<?xml version="1.0" encoding="us-ascii" standalone="no"?><svg xmlns="http://www.w3.org/2000/svg" xmlns:xlink="http://www.w3.org/1999/xlink" contentStyleType="text/css" height="263.4px" preserveAspectRatio="none" style="width:410px;height:263px;background:#FFFFFF;" version="1.1" viewBox="0 0 410 263" width="410.4px" zoomAndPan="magnify"><defs/><g><!--cluster UserAggregate--><g id="cluster_UserAggregate"><path d="M5.1,190.8082 L69.3,190.8082 A2.25,2.25 0 0 1 70.8,192.3082 L75,205.5809 L82.5,205.5809 A1.5,1.5 0 0 1 84,207.0809 L84,257.7082 A1.5,1.5 0 0 1 82.5,259.2082 L5.1,259.2082 A1.5,1.5 0 0 1 3.6,257.7082 L3.6,192.3082 A1.5,1.5 0 0 1 5.1,190.8082 " fill="none" style="stroke:#000000;stroke-width:0.8999999999999999;"/><line style="stroke:#000000;stroke-width:0.8999999999999999;" x1="3.6" x2="75" y1="205.5809" y2="205.5809"/><text fill="#000000" font-family="sans-serif" font-size="8.4" font-weight="bold" lengthAdjust="spacing" textLength="63.6" x="6" y="201.0727">UserAggregate</text></g><!--cluster StaffAggregate--><g id="cluster_StaffAggregate"><path d="M99.9,91.8082 L163.5,91.8082 A2.25,2.25 0 0 1 165,93.3082 L169.2,106.5809 L207.3,106.5809 A1.5,1.5 0 0 1 208.8,108.0809 L208.8,257.7082 A1.5,1.5 0 0 1 207.3,259.2082 L99.9,259.2082 A1.5,1.5 0 0 1 98.4,257.7082 L98.4,93.3082 A1.5,1.5 0 0 1 99.9,91.8082 " fill="none" style="stroke:#000000;stroke-width:0.8999999999999999;"/><line style="stroke:#000000;stroke-width:0.8999999999999999;" x1="98.4" x2="169.2" y1="106.5809" y2="106.5809"/><text fill="#000000" font-family="sans-serif" font-size="8.4" font-weight="bold" lengthAdjust="spacing" textLength="63" x="100.8" y="102.0727">StaffAggregate</text></g><!--cluster SpecializationAggregate--><g id="cluster_SpecializationAggregate"><path d="M224.7,91.8082 L327.3,91.8082 A2.25,2.25 0 0 1 328.8,93.3082 L333,106.5809 L333.3,106.5809 A1.5,1.5 0 0 1 334.8,108.0809 L334.8,158.7082 A1.5,1.5 0 0 1 333.3,160.2082 L224.7,160.2082 A1.5,1.5 0 0 1 223.2,158.7082 L223.2,93.3082 A1.5,1.5 0 0 1 224.7,91.8082 " fill="none" style="stroke:#000000;stroke-width:0.8999999999999999;"/><line style="stroke:#000000;stroke-width:0.8999999999999999;" x1="223.2" x2="333" y1="106.5809" y2="106.5809"/><text fill="#000000" font-family="sans-serif" font-size="8.4" font-weight="bold" lengthAdjust="spacing" textLength="102" x="225.6" y="102.0727">SpecializationAggregate</text></g><!--cluster DoctorAggregate--><g id="cluster_DoctorAggregate"><path d="M326.1,3.6082 L398.7,3.6082 A2.25,2.25 0 0 1 400.2,5.1082 L404.4,18.3809 L404.7,18.3809 A1.5,1.5 0 0 1 406.2,19.8809 L406.2,70.5082 A1.5,1.5 0 0 1 404.7,72.0082 L326.1,72.0082 A1.5,1.5 0 0 1 324.6,70.5082 L324.6,5.1082 A1.5,1.5 0 0 1 326.1,3.6082 " fill="none" style="stroke:#000000;stroke-width:0.8999999999999999;"/><line style="stroke:#000000;stroke-width:0.8999999999999999;" x1="324.6" x2="404.4" y1="18.3809" y2="18.3809"/><text fill="#000000" font-family="sans-serif" font-size="8.4" font-weight="bold" lengthAdjust="spacing" textLength="72" x="327" y="13.8727">DoctorAggregate</text></g><!--class User--><g id="elem_User"><rect codeLine="3" fill="#F1F1F1" height="36.3492" id="User" rx="1.5" ry="1.5" style="stroke:#181818;stroke-width:0.3;" width="60.6" x="13.5" y="213.0082"/><ellipse cx="22.5" cy="226.3828" fill="#0000FF" rx="6.6" ry="6.6" style="stroke:#181818;stroke-width:0.6;"/><path d="M22.8563,228.3422 L24.3375,224.8172 L24.1031,224.8172 Q23.7375,224.8172 23.5781,224.6766 Q23.4188,224.5359 23.4188,224.3016 Q23.4188,224.0766 23.5781,223.9359 Q23.7375,223.7953 24.1031,223.7953 L25.4719,223.7953 Q25.8375,223.7953 25.9969,223.9359 Q26.1563,224.0766 26.1563,224.3016 Q26.1563,224.5828 25.9125,224.7422 Q25.8,224.8172 25.4437,224.8172 L23.3531,229.8328 L22.3688,229.8328 L20.2781,224.8172 Q19.9219,224.8172 19.8094,224.7422 Q19.5656,224.5828 19.5656,224.3016 Q19.5656,224.0766 19.725,223.9359 Q19.8844,223.7953 20.25,223.7953 L21.6281,223.7953 Q21.9938,223.7953 22.1438,223.9359 Q22.3031,224.0766 22.3031,224.3016 Q22.3031,224.5359 22.1438,224.6766 Q21.9938,224.8172 21.6281,224.8172 L21.3844,224.8172 L22.8563,228.3422 Z " fill="#000000"/><text fill="#000000" font-family="sans-serif" font-size="7.2" font-style="italic" lengthAdjust="spacing" textLength="43.8" x="29.7" y="223.7777">&#171;Root Entity&#187;</text><text fill="#000000" font-family="sans-serif" font-size="8.4" lengthAdjust="spacing" textLength="17.4" x="42.9" y="234.6492">User</text><line style="stroke:#181818;stroke-width:0.3;" x1="14.1" x2="73.5" y1="239.7574" y2="239.7574"/><line style="stroke:#181818;stroke-width:0.3;" x1="14.1" x2="73.5" y1="244.5574" y2="244.5574"/></g><!--class Staff--><g id="elem_Staff"><rect codeLine="10" fill="#F1F1F1" height="36.3492" id="Staff" rx="1.5" ry="1.5" style="stroke:#181818;stroke-width:0.3;" width="60.6" x="131.1" y="213.0082"/><ellipse cx="140.1" cy="226.3828" fill="#0000FF" rx="6.6" ry="6.6" style="stroke:#181818;stroke-width:0.6;"/><path d="M140.4562,228.3422 L141.9375,224.8172 L141.7031,224.8172 Q141.3375,224.8172 141.1781,224.6766 Q141.0187,224.5359 141.0187,224.3016 Q141.0187,224.0766 141.1781,223.9359 Q141.3375,223.7953 141.7031,223.7953 L143.0719,223.7953 Q143.4375,223.7953 143.5969,223.9359 Q143.7563,224.0766 143.7563,224.3016 Q143.7563,224.5828 143.5125,224.7422 Q143.4,224.8172 143.0438,224.8172 L140.9531,229.8328 L139.9688,229.8328 L137.8781,224.8172 Q137.5219,224.8172 137.4094,224.7422 Q137.1656,224.5828 137.1656,224.3016 Q137.1656,224.0766 137.325,223.9359 Q137.4844,223.7953 137.85,223.7953 L139.2281,223.7953 Q139.5938,223.7953 139.7438,223.9359 Q139.9031,224.0766 139.9031,224.3016 Q139.9031,224.5359 139.7438,224.6766 Q139.5938,224.8172 139.2281,224.8172 L138.9844,224.8172 L140.4562,228.3422 Z " fill="#000000"/><text fill="#000000" font-family="sans-serif" font-size="7.2" font-style="italic" lengthAdjust="spacing" textLength="43.8" x="147.3" y="223.7777">&#171;Root Entity&#187;</text><text fill="#000000" font-family="sans-serif" font-size="8.4" lengthAdjust="spacing" textLength="17.4" x="160.5" y="234.6492">Staff</text><line style="stroke:#181818;stroke-width:0.3;" x1="131.7" x2="191.1" y1="239.7574" y2="239.7574"/><line style="stroke:#181818;stroke-width:0.3;" x1="131.7" x2="191.1" y1="244.5574" y2="244.5574"/></g><!--class ContactInformation--><g id="elem_ContactInformation"><rect codeLine="13" fill="#F1F1F1" height="36.3492" id="ContactInformation" rx="1.5" ry="1.5" style="stroke:#181818;stroke-width:0.3;" width="90.6" x="108.3" y="114.0082"/><ellipse cx="117.3" cy="127.3828" fill="#ADD1B2" rx="6.6" ry="6.6" style="stroke:#181818;stroke-width:0.6;"/><path d="M116.6156,127.8609 L116.6156,129.3609 L119.2125,129.3609 L119.2125,128.8078 Q119.2125,128.4422 119.3531,128.2828 Q119.5031,128.1234 119.7281,128.1234 Q119.9531,128.1234 120.0938,128.2828 Q120.2344,128.4422 120.2344,128.8078 L120.2344,130.3828 L115.4344,130.3828 Q115.0594,130.3828 114.9,130.2422 Q114.75,130.1016 114.75,129.8672 Q114.75,129.6422 114.9094,129.5016 Q115.0688,129.3609 115.4344,129.3609 L115.5938,129.3609 L115.5938,125.3672 L115.4344,125.3672 Q115.0594,125.3672 114.9,125.2266 Q114.75,125.0859 114.75,124.8516 Q114.75,124.6266 114.9,124.4859 Q115.0594,124.3453 115.4344,124.3453 L120.0094,124.3453 L120.0094,125.9016 Q120.0094,126.2672 119.8687,126.4266 Q119.7375,126.5766 119.5031,126.5766 Q119.2781,126.5766 119.1375,126.4266 Q118.9969,126.2672 118.9969,125.9016 L118.9969,125.3672 L116.6156,125.3672 L116.6156,126.8391 L117.5063,126.8391 Q117.5063,126.4453 117.5813,126.3328 Q117.7406,126.0891 118.0219,126.0891 Q118.2469,126.0891 118.3875,126.2484 Q118.5281,126.3984 118.5281,126.7641 L118.5281,127.9453 Q118.5281,128.2734 118.4531,128.3859 Q118.2937,128.6203 118.0219,128.6203 Q117.7406,128.6203 117.5813,128.3766 Q117.5063,128.2641 117.5063,127.8609 L116.6156,127.8609 Z " fill="#000000"/><text fill="#000000" font-family="sans-serif" font-size="7.2" font-style="italic" lengthAdjust="spacing" textLength="26.4" x="148.2" y="124.7777">&#171;Entity&#187;</text><text fill="#000000" font-family="sans-serif" font-size="8.4" lengthAdjust="spacing" textLength="71.4" x="125.7" y="135.6492">ContactInformation</text><line style="stroke:#181818;stroke-width:0.3;" x1="108.9" x2="198.3" y1="140.7574" y2="140.7574"/><line style="stroke:#181818;stroke-width:0.3;" x1="108.9" x2="198.3" y1="145.5574" y2="145.5574"/></g><!--class Specialization--><g id="elem_Specialization"><rect codeLine="25" fill="#F1F1F1" height="36.3492" id="Specialization" rx="1.5" ry="1.5" style="stroke:#181818;stroke-width:0.3;" width="70.8" x="232.8" y="114.0082"/><ellipse cx="241.8" cy="127.3828" fill="#0000FF" rx="6.6" ry="6.6" style="stroke:#181818;stroke-width:0.6;"/><path d="M242.1563,129.3422 L243.6375,125.8172 L243.4031,125.8172 Q243.0375,125.8172 242.8781,125.6766 Q242.7188,125.5359 242.7188,125.3016 Q242.7188,125.0766 242.8781,124.9359 Q243.0375,124.7953 243.4031,124.7953 L244.7719,124.7953 Q245.1375,124.7953 245.2969,124.9359 Q245.4562,125.0766 245.4562,125.3016 Q245.4562,125.5828 245.2125,125.7422 Q245.1,125.8172 244.7437,125.8172 L242.6531,130.8328 L241.6688,130.8328 L239.5781,125.8172 Q239.2219,125.8172 239.1094,125.7422 Q238.8656,125.5828 238.8656,125.3016 Q238.8656,125.0766 239.025,124.9359 Q239.1844,124.7953 239.55,124.7953 L240.9281,124.7953 Q241.2938,124.7953 241.4438,124.9359 Q241.6031,125.0766 241.6031,125.3016 Q241.6031,125.5359 241.4438,125.6766 Q241.2938,125.8172 240.9281,125.8172 L240.6844,125.8172 L242.1563,129.3422 Z " fill="#000000"/><text fill="#000000" font-family="sans-serif" font-size="7.2" font-style="italic" lengthAdjust="spacing" textLength="43.8" x="254.1" y="124.7777">&#171;Root Entity&#187;</text><text fill="#000000" font-family="sans-serif" font-size="8.4" lengthAdjust="spacing" textLength="51.6" x="250.2" y="135.6492">Specialization</text><line style="stroke:#181818;stroke-width:0.3;" x1="233.4" x2="303" y1="140.7574" y2="140.7574"/><line style="stroke:#181818;stroke-width:0.3;" x1="233.4" x2="303" y1="145.5574" y2="145.5574"/></g><!--class Doctor--><g id="elem_Doctor"><rect codeLine="36" fill="#F1F1F1" height="36.3492" id="Doctor" rx="1.5" ry="1.5" style="stroke:#181818;stroke-width:0.3;" width="60.6" x="335.1" y="25.8082"/><ellipse cx="344.1" cy="39.1828" fill="#0000FF" rx="6.6" ry="6.6" style="stroke:#181818;stroke-width:0.6;"/><path d="M344.4563,41.1422 L345.9375,37.6172 L345.7031,37.6172 Q345.3375,37.6172 345.1781,37.4766 Q345.0188,37.3359 345.0188,37.1016 Q345.0188,36.8766 345.1781,36.7359 Q345.3375,36.5953 345.7031,36.5953 L347.0719,36.5953 Q347.4375,36.5953 347.5969,36.7359 Q347.7562,36.8766 347.7562,37.1016 Q347.7562,37.3828 347.5125,37.5422 Q347.4,37.6172 347.0438,37.6172 L344.9531,42.6328 L343.9688,42.6328 L341.8781,37.6172 Q341.5219,37.6172 341.4094,37.5422 Q341.1656,37.3828 341.1656,37.1016 Q341.1656,36.8766 341.325,36.7359 Q341.4844,36.5953 341.85,36.5953 L343.2281,36.5953 Q343.5938,36.5953 343.7438,36.7359 Q343.9031,36.8766 343.9031,37.1016 Q343.9031,37.3359 343.7438,37.4766 Q343.5938,37.6172 343.2281,37.6172 L342.9844,37.6172 L344.4563,41.1422 Z " fill="#000000"/><text fill="#000000" font-family="sans-serif" font-size="7.2" font-style="italic" lengthAdjust="spacing" textLength="43.8" x="351.3" y="36.5777">&#171;Root Entity&#187;</text><text fill="#000000" font-family="sans-serif" font-size="8.4" lengthAdjust="spacing" textLength="25.2" x="360.6" y="47.4492">Doctor</text><line style="stroke:#181818;stroke-width:0.3;" x1="335.7" x2="395.1" y1="52.5574" y2="52.5574"/><line style="stroke:#181818;stroke-width:0.3;" x1="335.7" x2="395.1" y1="57.3574" y2="57.3574"/></g><!--link ContactInformation to Staff--><g id="link_ContactInformation_Staff"><path codeLine="20" d="M155.01,150.6202 C156.42,168.2902 158.0017,188.107 159.4117,205.789 " fill="none" id="ContactInformation-to-Staff" style="stroke:#181818;stroke-width:0.6;"/><polygon fill="#181818" points="159.984,212.9662,162.0902,209.1868,159.4117,205.789,157.3054,209.5684,159.984,212.9662" style="stroke:#181818;stroke-width:0.6;"/><text fill="#000000" font-family="sans-serif" font-size="7.8" lengthAdjust="spacing" textLength="4.2" x="150.6785" y="163.5407">1</text><text fill="#000000" font-family="sans-serif" font-size="7.8" lengthAdjust="spacing" textLength="4.2" x="155.0588" y="206.3922">1</text></g><!--reverse link Specialization to Staff--><g id="link_Specialization_Staff"><path codeLine="30" d="M246.207,153.0515 C226.911,170.7215 200.088,195.2842 180.774,212.9662 " fill="none" id="Specialization-backto-Staff" style="stroke:#181818;stroke-width:0.6;"/><polygon fill="#181818" points="248.862,150.6202,243.2587,152.4971,246.6495,152.6463,246.5004,156.0371,248.862,150.6202" style="stroke:#181818;stroke-width:0.6;"/><text fill="#000000" font-family="sans-serif" font-size="7.8" lengthAdjust="spacing" textLength="19.2" x="228" y="178.8252">has a</text><text fill="#000000" font-family="sans-serif" font-size="7.8" lengthAdjust="spacing" textLength="4.2" x="240.5754" y="163.5407">1</text><text fill="#000000" font-family="sans-serif" font-size="7.8" lengthAdjust="spacing" textLength="4.2" x="180.1368" y="206.3922">1</text></g><!--reverse link User to Staff--><g id="link_User_Staff"><path codeLine="47" d="M77.838,231.3082 C95.328,231.3082 113.622,231.3082 131.088,231.3082 " fill="none" id="User-backto-Staff" style="stroke:#181818;stroke-width:0.6;"/><polygon fill="#181818" points="74.238,231.3082,79.638,233.7082,77.238,231.3082,79.638,228.9082,74.238,231.3082" style="stroke:#181818;stroke-width:0.6;"/><text fill="#000000" font-family="sans-serif" font-size="7.8" lengthAdjust="spacing" textLength="12.6" x="96.3" y="227.1252">is a</text><text fill="#000000" font-family="sans-serif" font-size="7.8" lengthAdjust="spacing" textLength="4.2" x="78.8137" y="228.8379">1</text><text fill="#000000" font-family="sans-serif" font-size="7.8" lengthAdjust="spacing" textLength="4.2" x="122.1275" y="228.8074">1</text></g><!--reverse link Doctor to Staff--><g id="link_Doctor_Staff"><path codeLine="51" d="M361.2104,66.077 C355.4324,91.847 342.192,136.0462 313.2,165.0082 C279.426,198.7522 225.498,216.3742 191.838,224.5882 " fill="none" id="Doctor-backto-Staff" style="stroke:#181818;stroke-width:0.6;"/><polygon fill="#181818" points="361.998,62.5642,358.4747,67.3083,361.3417,65.4915,363.1584,68.3585,361.998,62.5642" style="stroke:#181818;stroke-width:0.6;"/><text fill="#000000" font-family="sans-serif" font-size="7.8" lengthAdjust="spacing" textLength="25.8" x="355.8" y="135.6252">may be</text><text fill="#000000" font-family="sans-serif" font-size="7.8" lengthAdjust="spacing" textLength="13.2" x="346.9539" y="75.3635">0..1</text><text fill="#000000" font-family="sans-serif" font-size="7.8" lengthAdjust="spacing" textLength="4.2" x="196.4137" y="221.1729">1</text></g><!--SRC=[ZP5F2y8m3CNl-HHXNbJiqAkCWVW7l8cYzpYwMTHLPYvJ_EvkMQTE52sKKl9Utg_fWg8z9HhNPvsDaYJJ2R76As2nfYaRpgM4GT3Uz5hzOirc7LnQowuSXjSR09HxuNgjcEBuIpEf_UpsOXZRb2dYUHhRx4XiR5guQp6A6fpZWzGRUAXKLqw95j87w4b7XWxc8k87SHEueVbd3gNvpLN61qezCN28EpeZ2NkDCx4Hswo9uIYgqg_qUXW0LKZrUdNGCIiLobK-SuZ6PRk-Nj_tAyGcuv5ot6g0Em00]--></g></svg>