<?xml version="1.0" encoding="us-ascii" standalone="no"?><svg xmlns="http://www.w3.org/2000/svg" xmlns:xlink="http://www.w3.org/1999/xlink" contentStyleType="text/css" height="547px" preserveAspectRatio="none" style="width:975px;height:547px;background:#FFFFFF;" version="1.1" viewBox="0 0 975 547" width="975px" zoomAndPan="magnify"><defs/><g><text fill="#000000" font-family="sans-serif" font-size="14" font-weight="bold" lengthAdjust="spacing" textLength="229" x="366" y="22.9951">US21 Relevant Domain Model</text><!--cluster SpecializationAggregate--><g id="cluster_SpecializationAggregate"><path d="M8.5,181.2969 L200.5,181.2969 A3.75,3.75 0 0 1 203,183.7969 L210,203.5938 L210.5,203.5938 A2.5,2.5 0 0 1 213,206.0938 L213,418.7969 A2.5,2.5 0 0 1 210.5,421.2969 L8.5,421.2969 A2.5,2.5 0 0 1 6,418.7969 L6,183.7969 A2.5,2.5 0 0 1 8.5,181.2969 " fill="none" style="stroke:#000000;stroke-width:1.5;"/><line style="stroke:#000000;stroke-width:1.5;" x1="6" x2="210" y1="203.5938" y2="203.5938"/><text fill="#000000" font-family="sans-serif" font-size="14" font-weight="bold" lengthAdjust="spacing" textLength="191" x="10" y="196.292">SpecializationAggregate</text></g><!--cluster OperationTypeAggregate--><g id="cluster_OperationTypeAggregate"><path d="M239.5,43.2969 L440.5,43.2969 A3.75,3.75 0 0 1 443,45.7969 L450,65.5938 L965.5,65.5938 A2.5,2.5 0 0 1 968,68.0938 L968,537.7969 A2.5,2.5 0 0 1 965.5,540.2969 L239.5,540.2969 A2.5,2.5 0 0 1 237,537.7969 L237,45.7969 A2.5,2.5 0 0 1 239.5,43.2969 " fill="none" style="stroke:#000000;stroke-width:1.5;"/><line style="stroke:#000000;stroke-width:1.5;" x1="237" x2="450" y1="65.5938" y2="65.5938"/><text fill="#000000" font-family="sans-serif" font-size="14" font-weight="bold" lengthAdjust="spacing" textLength="200" x="241" y="58.292">OperationTypeAggregate</text></g><!--class Specialization--><g id="elem_Specialization"><rect codeLine="5" fill="#F1F1F1" height="56.2656" id="Specialization" rx="2.5" ry="2.5" style="stroke:#181818;stroke-width:0.5;" width="126" x="66" y="349.2969"/><ellipse cx="81" cy="369.4297" fill="#0099FF" rx="11" ry="11" style="stroke:#181818;stroke-width:1.0;"/><path d="M82.2031,369.5703 Q82.5625,369.6484 82.8281,369.9297 Q83.1094,370.1953 83.5,370.9766 L85.7344,375.4297 L83.0469,375.4297 L81.5469,372.3047 Q81.4844,372.1641 81.375,371.9297 Q80.7188,370.5391 79.8281,370.5391 L79.0469,370.5391 L79.0469,375.4297 L76.6094,375.4297 L76.6094,363.0391 L80.1406,363.0391 Q82.5313,363.0391 83.5625,363.8828 Q84.6094,364.7266 84.6094,366.6328 Q84.6094,367.9141 83.9844,368.6797 Q83.375,369.4297 82.2031,369.5703 Z M79.0469,365.1016 L79.0469,368.4766 L80.2031,368.4766 Q81.2188,368.4766 81.6406,368.0859 Q82.0781,367.6797 82.0781,366.7734 Q82.0781,365.8828 81.6406,365.4922 Q81.2188,365.1016 80.2031,365.1016 L79.0469,365.1016 Z " fill="#000000"/><text fill="#000000" font-family="sans-serif" font-size="12" font-style="italic" lengthAdjust="spacing" textLength="83" x="100.5" y="365.4355">&#171;Root Entity&#187;</text><text fill="#000000" font-family="sans-serif" font-size="14" lengthAdjust="spacing" textLength="94" x="95" y="381.2607">Specialization</text><line style="stroke:#181818;stroke-width:0.5;" x1="67" x2="191" y1="389.5625" y2="389.5625"/><line style="stroke:#181818;stroke-width:0.5;" x1="67" x2="191" y1="397.5625" y2="397.5625"/></g><!--class SpecializationName--><g id="elem_SpecializationName"><rect codeLine="7" fill="#F1F1F1" height="56.2656" id="SpecializationName" rx="2.5" ry="2.5" style="stroke:#181818;stroke-width:0.5;" width="166" x="31" y="216.2969"/><ellipse cx="46" cy="236.4297" fill="#F09800" rx="11" ry="11" style="stroke:#181818;stroke-width:1.0;"/><path d="M46.1094,240.8828 L48.2969,230.5391 L50.7656,230.5391 L47.8125,242.9297 L44.4219,242.9297 L41.4688,230.5391 L43.9375,230.5391 L46.1094,240.8828 Z " fill="#000000"/><text fill="#000000" font-family="sans-serif" font-size="12" font-style="italic" lengthAdjust="spacing" textLength="118" x="68" y="232.4355">&#171;Unique Identifier&#187;</text><text fill="#000000" font-family="sans-serif" font-size="14" lengthAdjust="spacing" textLength="134" x="60" y="248.2607">SpecializationName</text><line style="stroke:#181818;stroke-width:0.5;" x1="32" x2="196" y1="256.5625" y2="256.5625"/><line style="stroke:#181818;stroke-width:0.5;" x1="32" x2="196" y1="264.5625" y2="264.5625"/></g><!--class OperationType--><g id="elem_OperationType"><rect codeLine="13" fill="#F1F1F1" height="56.2656" id="OperationType" rx="2.5" ry="2.5" style="stroke:#181818;stroke-width:0.5;" width="134" x="532" y="349.2969"/><ellipse cx="547" cy="369.4297" fill="#0099FF" rx="11" ry="11" style="stroke:#181818;stroke-width:1.0;"/><path d="M548.2031,369.5703 Q548.5625,369.6484 548.8281,369.9297 Q549.1094,370.1953 549.5,370.9766 L551.7344,375.4297 L549.0469,375.4297 L547.5469,372.3047 Q547.4844,372.1641 547.375,371.9297 Q546.7188,370.5391 545.8281,370.5391 L545.0469,370.5391 L545.0469,375.4297 L542.6094,375.4297 L542.6094,363.0391 L546.1406,363.0391 Q548.5313,363.0391 549.5625,363.8828 Q550.6094,364.7266 550.6094,366.6328 Q550.6094,367.9141 549.9844,368.6797 Q549.375,369.4297 548.2031,369.5703 Z M545.0469,365.1016 L545.0469,368.4766 L546.2031,368.4766 Q547.2188,368.4766 547.6406,368.0859 Q548.0781,367.6797 548.0781,366.7734 Q548.0781,365.8828 547.6406,365.4922 Q547.2188,365.1016 546.2031,365.1016 L545.0469,365.1016 Z " fill="#000000"/><text fill="#000000" font-family="sans-serif" font-size="12" font-style="italic" lengthAdjust="spacing" textLength="83" x="570.5" y="365.4355">&#171;Root Entity&#187;</text><text fill="#000000" font-family="sans-serif" font-size="14" lengthAdjust="spacing" textLength="102" x="561" y="381.2607">OperationType</text><line style="stroke:#181818;stroke-width:0.5;" x1="533" x2="665" y1="389.5625" y2="389.5625"/><line style="stroke:#181818;stroke-width:0.5;" x1="533" x2="665" y1="397.5625" y2="397.5625"/></g><!--class OperationTypeID--><g id="elem_OperationTypeID"><rect codeLine="15" fill="#F1F1F1" height="56.2656" id="OperationTypeID" rx="2.5" ry="2.5" style="stroke:#181818;stroke-width:0.5;" width="148" x="625" y="216.2969"/><ellipse cx="640" cy="236.4297" fill="#F09800" rx="11" ry="11" style="stroke:#181818;stroke-width:1.0;"/><path d="M640.1094,240.8828 L642.2969,230.5391 L644.7656,230.5391 L641.8125,242.9297 L638.4219,242.9297 L635.4688,230.5391 L637.9375,230.5391 L640.1094,240.8828 Z " fill="#000000"/><text fill="#000000" font-family="sans-serif" font-size="12" font-style="italic" lengthAdjust="spacing" textLength="118" x="653" y="232.4355">&#171;Unique Identifier&#187;</text><text fill="#000000" font-family="sans-serif" font-size="14" lengthAdjust="spacing" textLength="116" x="654" y="248.2607">OperationTypeID</text><line style="stroke:#181818;stroke-width:0.5;" x1="626" x2="772" y1="256.5625" y2="256.5625"/><line style="stroke:#181818;stroke-width:0.5;" x1="626" x2="772" y1="264.5625" y2="264.5625"/></g><!--class OperationTypeName--><g id="elem_OperationTypeName"><rect codeLine="16" fill="#F1F1F1" height="56.2656" id="OperationTypeName" rx="2.5" ry="2.5" style="stroke:#181818;stroke-width:0.5;" width="174" x="310" y="468.2969"/><ellipse cx="325" cy="488.4297" fill="#F04800" rx="11" ry="11" style="stroke:#181818;stroke-width:1.0;"/><path d="M325.1094,492.8828 L327.2969,482.5391 L329.7656,482.5391 L326.8125,494.9297 L323.4219,494.9297 L320.4688,482.5391 L322.9375,482.5391 L325.1094,492.8828 Z " fill="#000000"/><text fill="#000000" font-family="sans-serif" font-size="12" font-style="italic" lengthAdjust="spacing" textLength="92" x="364" y="484.4355">&#171;Value Object&#187;</text><text fill="#000000" font-family="sans-serif" font-size="14" lengthAdjust="spacing" textLength="142" x="339" y="500.2607">OperationTypeName</text><line style="stroke:#181818;stroke-width:0.5;" x1="311" x2="483" y1="508.5625" y2="508.5625"/><line style="stroke:#181818;stroke-width:0.5;" x1="311" x2="483" y1="516.5625" y2="516.5625"/></g><!--class EstimatedDuration--><g id="elem_EstimatedDuration"><rect codeLine="17" fill="#F1F1F1" height="56.2656" id="EstimatedDuration" rx="2.5" ry="2.5" style="stroke:#181818;stroke-width:0.5;" width="160" x="519" y="468.2969"/><ellipse cx="534" cy="488.4297" fill="#F04800" rx="11" ry="11" style="stroke:#181818;stroke-width:1.0;"/><path d="M534.1094,492.8828 L536.2969,482.5391 L538.7656,482.5391 L535.8125,494.9297 L532.4219,494.9297 L529.4688,482.5391 L531.9375,482.5391 L534.1094,492.8828 Z " fill="#000000"/><text fill="#000000" font-family="sans-serif" font-size="12" font-style="italic" lengthAdjust="spacing" textLength="92" x="566" y="484.4355">&#171;Value Object&#187;</text><text fill="#000000" font-family="sans-serif" font-size="14" lengthAdjust="spacing" textLength="128" x="548" y="500.2607">EstimatedDuration</text><line style="stroke:#181818;stroke-width:0.5;" x1="520" x2="678" y1="508.5625" y2="508.5625"/><line style="stroke:#181818;stroke-width:0.5;" x1="520" x2="678" y1="516.5625" y2="516.5625"/></g><!--class OperationTypeVersion--><g id="elem_OperationTypeVersion"><rect codeLine="18" fill="#F1F1F1" height="56.2656" id="OperationTypeVersion" rx="2.5" ry="2.5" style="stroke:#181818;stroke-width:0.5;" width="186" x="714" y="468.2969"/><ellipse cx="729" cy="488.4297" fill="#F04800" rx="11" ry="11" style="stroke:#181818;stroke-width:1.0;"/><path d="M729.1094,492.8828 L731.2969,482.5391 L733.7656,482.5391 L730.8125,494.9297 L727.4219,494.9297 L724.4688,482.5391 L726.9375,482.5391 L729.1094,492.8828 Z " fill="#000000"/><text fill="#000000" font-family="sans-serif" font-size="12" font-style="italic" lengthAdjust="spacing" textLength="92" x="774" y="484.4355">&#171;Value Object&#187;</text><text fill="#000000" font-family="sans-serif" font-size="14" lengthAdjust="spacing" textLength="154" x="743" y="500.2607">OperationTypeVersion</text><line style="stroke:#181818;stroke-width:0.5;" x1="715" x2="899" y1="508.5625" y2="508.5625"/><line style="stroke:#181818;stroke-width:0.5;" x1="715" x2="899" y1="516.5625" y2="516.5625"/></g><!--class OperationTypeStartDate--><g id="elem_OperationTypeStartDate"><rect codeLine="19" fill="#F1F1F1" height="56.2656" id="OperationTypeStartDate" rx="2.5" ry="2.5" style="stroke:#181818;stroke-width:0.5;" width="199" x="701.5" y="349.2969"/><ellipse cx="716.5" cy="369.4297" fill="#F04800" rx="11" ry="11" style="stroke:#181818;stroke-width:1.0;"/><path d="M716.6094,373.8828 L718.7969,363.5391 L721.2656,363.5391 L718.3125,375.9297 L714.9219,375.9297 L711.9688,363.5391 L714.4375,363.5391 L716.6094,373.8828 Z " fill="#000000"/><text fill="#000000" font-family="sans-serif" font-size="12" font-style="italic" lengthAdjust="spacing" textLength="92" x="768" y="365.4355">&#171;Value Object&#187;</text><text fill="#000000" font-family="sans-serif" font-size="14" lengthAdjust="spacing" textLength="167" x="730.5" y="381.2607">OperationTypeStartDate</text><line style="stroke:#181818;stroke-width:0.5;" x1="702.5" x2="899.5" y1="389.5625" y2="389.5625"/><line style="stroke:#181818;stroke-width:0.5;" x1="702.5" x2="899.5" y1="397.5625" y2="397.5625"/></g><!--class OperationTypeEndDate--><g id="elem_OperationTypeEndDate"><rect codeLine="20" fill="#F1F1F1" height="56.2656" id="OperationTypeEndDate" rx="2.5" ry="2.5" style="stroke:#181818;stroke-width:0.5;" width="194" x="303" y="349.2969"/><ellipse cx="318" cy="369.4297" fill="#F04800" rx="11" ry="11" style="stroke:#181818;stroke-width:1.0;"/><path d="M318.1094,373.8828 L320.2969,363.5391 L322.7656,363.5391 L319.8125,375.9297 L316.4219,375.9297 L313.4688,363.5391 L315.9375,363.5391 L318.1094,373.8828 Z " fill="#000000"/><text fill="#000000" font-family="sans-serif" font-size="12" font-style="italic" lengthAdjust="spacing" textLength="92" x="367" y="365.4355">&#171;Value Object&#187;</text><text fill="#000000" font-family="sans-serif" font-size="14" lengthAdjust="spacing" textLength="162" x="332" y="381.2607">OperationTypeEndDate</text><line style="stroke:#181818;stroke-width:0.5;" x1="304" x2="496" y1="389.5625" y2="389.5625"/><line style="stroke:#181818;stroke-width:0.5;" x1="304" x2="496" y1="397.5625" y2="397.5625"/></g><!--class ActivationStatus--><g id="elem_ActivationStatus"><rect codeLine="21" fill="#F1F1F1" height="56.2656" id="ActivationStatus" rx="2.5" ry="2.5" style="stroke:#181818;stroke-width:0.5;" width="142" x="448" y="216.2969"/><ellipse cx="463" cy="236.4297" fill="#F04800" rx="11" ry="11" style="stroke:#181818;stroke-width:1.0;"/><path d="M463.1094,240.8828 L465.2969,230.5391 L467.7656,230.5391 L464.8125,242.9297 L461.4219,242.9297 L458.4688,230.5391 L460.9375,230.5391 L463.1094,240.8828 Z " fill="#000000"/><text fill="#000000" font-family="sans-serif" font-size="12" font-style="italic" lengthAdjust="spacing" textLength="92" x="486" y="232.4355">&#171;Value Object&#187;</text><text fill="#000000" font-family="sans-serif" font-size="14" lengthAdjust="spacing" textLength="110" x="477" y="248.2607">ActivationStatus</text><line style="stroke:#181818;stroke-width:0.5;" x1="449" x2="589" y1="256.5625" y2="256.5625"/><line style="stroke:#181818;stroke-width:0.5;" x1="449" x2="589" y1="264.5625" y2="264.5625"/></g><!--class RequiredSpecialist--><g id="elem_RequiredSpecialist"><rect codeLine="23" fill="#F1F1F1" height="56.2656" id="RequiredSpecialist" rx="2.5" ry="2.5" style="stroke:#181818;stroke-width:0.5;" width="160" x="253" y="216.2969"/><ellipse cx="268" cy="236.4297" fill="#ADD1B2" rx="11" ry="11" style="stroke:#181818;stroke-width:1.0;"/><path d="M272.1094,242.4297 L264.3906,242.4297 L264.3906,230.0391 L272.1094,230.0391 L272.1094,232.1953 L266.8438,232.1953 L266.8438,234.8672 L271.6094,234.8672 L271.6094,237.0234 L266.8438,237.0234 L266.8438,240.2734 L272.1094,240.2734 L272.1094,242.4297 Z " fill="#000000"/><text fill="#000000" font-family="sans-serif" font-size="12" font-style="italic" lengthAdjust="spacing" textLength="50" x="321" y="232.4355">&#171;Entity&#187;</text><text fill="#000000" font-family="sans-serif" font-size="14" lengthAdjust="spacing" textLength="128" x="282" y="248.2607">RequiredSpecialist</text><line style="stroke:#181818;stroke-width:0.5;" x1="254" x2="412" y1="256.5625" y2="256.5625"/><line style="stroke:#181818;stroke-width:0.5;" x1="254" x2="412" y1="264.5625" y2="264.5625"/></g><!--class SpecialistCount--><g id="elem_SpecialistCount"><rect codeLine="24" fill="#F1F1F1" height="56.2656" id="SpecialistCount" rx="2.5" ry="2.5" style="stroke:#181818;stroke-width:0.5;" width="139" x="263.5" y="78.2969"/><ellipse cx="278.5" cy="98.4297" fill="#F04800" rx="11" ry="11" style="stroke:#181818;stroke-width:1.0;"/><path d="M278.6094,102.8828 L280.7969,92.5391 L283.2656,92.5391 L280.3125,104.9297 L276.9219,104.9297 L273.9688,92.5391 L276.4375,92.5391 L278.6094,102.8828 Z " fill="#000000"/><text fill="#000000" font-family="sans-serif" font-size="12" font-style="italic" lengthAdjust="spacing" textLength="92" x="300" y="94.4355">&#171;Value Object&#187;</text><text fill="#000000" font-family="sans-serif" font-size="14" lengthAdjust="spacing" textLength="107" x="292.5" y="110.2607">SpecialistCount</text><line style="stroke:#181818;stroke-width:0.5;" x1="264.5" x2="401.5" y1="118.5625" y2="118.5625"/><line style="stroke:#181818;stroke-width:0.5;" x1="264.5" x2="401.5" y1="126.5625" y2="126.5625"/></g><!--class OperationPhase--><g id="elem_OperationPhase"><rect codeLine="26" fill="#F1F1F1" height="56.2656" id="OperationPhase" rx="2.5" ry="2.5" style="stroke:#181818;stroke-width:0.5;" width="143" x="808.5" y="216.2969"/><ellipse cx="823.5" cy="236.4297" fill="#ADD1B2" rx="11" ry="11" style="stroke:#181818;stroke-width:1.0;"/><path d="M827.6094,242.4297 L819.8906,242.4297 L819.8906,230.0391 L827.6094,230.0391 L827.6094,232.1953 L822.3438,232.1953 L822.3438,234.8672 L827.1094,234.8672 L827.1094,237.0234 L822.3438,237.0234 L822.3438,240.2734 L827.6094,240.2734 L827.6094,242.4297 Z " fill="#000000"/><text fill="#000000" font-family="sans-serif" font-size="12" font-style="italic" lengthAdjust="spacing" textLength="50" x="868" y="232.4355">&#171;Entity&#187;</text><text fill="#000000" font-family="sans-serif" font-size="14" lengthAdjust="spacing" textLength="111" x="837.5" y="248.2607">OperationPhase</text><line style="stroke:#181818;stroke-width:0.5;" x1="809.5" x2="950.5" y1="256.5625" y2="256.5625"/><line style="stroke:#181818;stroke-width:0.5;" x1="809.5" x2="950.5" y1="264.5625" y2="264.5625"/></g><!--class PhaseName--><g id="elem_PhaseName"><rect codeLine="27" fill="#F1F1F1" height="56.2656" id="PhaseName" rx="2.5" ry="2.5" style="stroke:#181818;stroke-width:0.5;" width="120" x="661" y="78.2969"/><ellipse cx="676" cy="98.4297" fill="#F04800" rx="11" ry="11" style="stroke:#181818;stroke-width:1.0;"/><path d="M676.1094,102.8828 L678.2969,92.5391 L680.7656,92.5391 L677.8125,104.9297 L674.4219,104.9297 L671.4688,92.5391 L673.9375,92.5391 L676.1094,102.8828 Z " fill="#000000"/><text fill="#000000" font-family="sans-serif" font-size="12" font-style="italic" lengthAdjust="spacing" textLength="92" x="688" y="94.4355">&#171;Value Object&#187;</text><text fill="#000000" font-family="sans-serif" font-size="14" lengthAdjust="spacing" textLength="83" x="692.5" y="110.2607">PhaseName</text><line style="stroke:#181818;stroke-width:0.5;" x1="662" x2="780" y1="118.5625" y2="118.5625"/><line style="stroke:#181818;stroke-width:0.5;" x1="662" x2="780" y1="126.5625" y2="126.5625"/></g><!--class PhaseDuration--><g id="elem_PhaseDuration"><rect codeLine="28" fill="#F1F1F1" height="56.2656" id="PhaseDuration" rx="2.5" ry="2.5" style="stroke:#181818;stroke-width:0.5;" width="134" x="816" y="78.2969"/><ellipse cx="831" cy="98.4297" fill="#F04800" rx="11" ry="11" style="stroke:#181818;stroke-width:1.0;"/><path d="M831.1094,102.8828 L833.2969,92.5391 L835.7656,92.5391 L832.8125,104.9297 L829.4219,104.9297 L826.4688,92.5391 L828.9375,92.5391 L831.1094,102.8828 Z " fill="#000000"/><text fill="#000000" font-family="sans-serif" font-size="12" font-style="italic" lengthAdjust="spacing" textLength="92" x="850" y="94.4355">&#171;Value Object&#187;</text><text fill="#000000" font-family="sans-serif" font-size="14" lengthAdjust="spacing" textLength="102" x="845" y="110.2607">PhaseDuration</text><line style="stroke:#181818;stroke-width:0.5;" x1="817" x2="949" y1="118.5625" y2="118.5625"/><line style="stroke:#181818;stroke-width:0.5;" x1="817" x2="949" y1="126.5625" y2="126.5625"/></g><!--link SpecializationName to Specialization--><g id="link_SpecializationName_Specialization"><path codeLine="10" d="M117.11,272.4369 C119.68,294.9269 121.9512,314.7952 124.5312,337.2652 " fill="none" id="SpecializationName-to-Specialization" style="stroke:#181818;stroke-width:1.0;"/><polygon fill="#181818" points="125.9,349.1869,129.1895,342.7698,124.5312,337.2652,121.2417,343.6823,125.9,349.1869" style="stroke:#181818;stroke-width:1.0;"/><text fill="#000000" font-family="sans-serif" font-size="13" lengthAdjust="spacing" textLength="57" x="123" y="315.3638">identifies</text><text fill="#000000" font-family="sans-serif" font-size="13" lengthAdjust="spacing" textLength="8" x="108.9042" y="292.7302">1</text><text fill="#000000" font-family="sans-serif" font-size="13" lengthAdjust="spacing" textLength="8" x="116.3469" y="338.4496">1</text></g><!--link OperationTypeID to OperationType--><g id="link_OperationTypeID_OperationType"><path codeLine="31" d="M678.28,272.4369 C661.12,294.9269 644.1333,317.1799 626.9733,339.6499 " fill="none" id="OperationTypeID-to-OperationType" style="stroke:#181818;stroke-width:1.0;"/><polygon fill="#181818" points="619.69,349.1869,626.5106,346.8461,626.9733,339.6499,620.1526,341.9906,619.69,349.1869" style="stroke:#181818;stroke-width:1.0;"/><text fill="#000000" font-family="sans-serif" font-size="13" lengthAdjust="spacing" textLength="8" x="664.5635" y="292.7302">1</text><text fill="#000000" font-family="sans-serif" font-size="13" lengthAdjust="spacing" textLength="8" x="615.3409" y="338.4496">1</text></g><!--reverse link OperationType to OperationTypeName--><g id="link_OperationType_OperationTypeName"><path codeLine="32" d="M544.8961,411.5604 C532.0161,419.3904 528.12,421.6469 515,429.2969 C492.59,442.3569 467.54,456.4469 446.31,468.2269 " fill="none" id="OperationType-backto-OperationTypeName" style="stroke:#181818;stroke-width:1.0;"/><polygon fill="#181818" points="555.15,405.3269,547.9452,405.0257,544.8961,411.5604,552.1009,411.8616,555.15,405.3269" style="stroke:#181818;stroke-width:1.0;"/><text fill="#000000" font-family="sans-serif" font-size="13" lengthAdjust="spacing" textLength="8" x="536.0847" y="425.5947">1</text><text fill="#000000" font-family="sans-serif" font-size="13" lengthAdjust="spacing" textLength="8" x="448.7879" y="457.0529">1</text></g><!--reverse link OperationType to EstimatedDuration--><g id="link_OperationType_EstimatedDuration"><path codeLine="33" d="M599,417.4369 C599,436.1969 599,449.0769 599,467.9069 " fill="none" id="OperationType-backto-EstimatedDuration" style="stroke:#181818;stroke-width:1.0;"/><polygon fill="#181818" points="599,405.4369,595,411.4369,599,417.4369,603,411.4369,599,405.4369" style="stroke:#181818;stroke-width:1.0;"/><text fill="#000000" font-family="sans-serif" font-size="13" lengthAdjust="spacing" textLength="8" x="590.075" y="425.7302">1</text><text fill="#000000" font-family="sans-serif" font-size="13" lengthAdjust="spacing" textLength="8" x="590.125" y="457.1083">1</text></g><!--reverse link OperationType to OperationTypeVersion--><g id="link_OperationType_OperationTypeVersion"><path codeLine="34" d="M653.6057,411.6178 C666.6357,419.4478 670.68,421.7369 684,429.2969 C707.18,442.4569 733.15,456.4969 755.23,468.2269 " fill="none" id="OperationType-backto-OperationTypeVersion" style="stroke:#181818;stroke-width:1.0;"/><polygon fill="#181818" points="643.32,405.4369,646.4026,411.9559,653.6057,411.6178,650.5232,405.0988,643.32,405.4369" style="stroke:#181818;stroke-width:1.0;"/><text fill="#000000" font-family="sans-serif" font-size="13" lengthAdjust="spacing" textLength="8" x="644.644" y="425.7302">1</text><text fill="#000000" font-family="sans-serif" font-size="13" lengthAdjust="spacing" textLength="8" x="734.3332" y="457.0529">1</text></g><!--reverse link OperationType to OperationTypeStartDate--><g id="link_OperationType_OperationTypeStartDate"><path codeLine="35" d="M678.07,377.2969 C689.84,377.2969 689.61,377.2969 701.38,377.2969 " fill="none" id="OperationType-backto-OperationTypeStartDate" style="stroke:#181818;stroke-width:1.0;"/><polygon fill="#181818" points="666.07,377.2969,672.07,381.2969,678.07,377.2969,672.07,373.2969,666.07,377.2969" style="stroke:#181818;stroke-width:1.0;"/><text fill="#000000" font-family="sans-serif" font-size="13" lengthAdjust="spacing" textLength="8" x="673.8433" y="373.5362">1</text><text fill="#000000" font-family="sans-serif" font-size="13" lengthAdjust="spacing" textLength="8" x="685.4466" y="373.7845">1</text></g><!--link OperationTypeEndDate to OperationType--><g id="link_OperationTypeEndDate_OperationType"><path codeLine="36" d="M497.17,377.2969 C508.7,377.2969 508.24,377.2969 519.77,377.2969 " fill="none" id="OperationTypeEndDate-to-OperationType" style="stroke:#181818;stroke-width:1.0;"/><polygon fill="#181818" points="531.77,377.2969,525.77,373.2969,519.77,377.2969,525.77,381.2969,531.77,377.2969" style="stroke:#181818;stroke-width:1.0;"/><text fill="#000000" font-family="sans-serif" font-size="13" lengthAdjust="spacing" textLength="8" x="504.9158" y="373.7845">1</text><text fill="#000000" font-family="sans-serif" font-size="13" lengthAdjust="spacing" textLength="8" x="515.9792" y="373.5362">1</text></g><!--link ActivationStatus to OperationType--><g id="link_ActivationStatus_OperationType"><path codeLine="37" d="M535.58,272.4369 C549.31,294.9269 562.4632,316.4772 576.1932,338.9472 " fill="none" id="ActivationStatus-to-OperationType" style="stroke:#181818;stroke-width:1.0;"/><polygon fill="#181818" points="582.45,349.1869,582.7348,341.9814,576.1932,338.9472,575.9083,346.1526,582.45,349.1869" style="stroke:#181818;stroke-width:1.0;"/><text fill="#000000" font-family="sans-serif" font-size="13" lengthAdjust="spacing" textLength="8" x="530.4891" y="292.7302">1</text><text fill="#000000" font-family="sans-serif" font-size="13" lengthAdjust="spacing" textLength="8" x="569.9547" y="338.4496">1</text></g><!--link RequiredSpecialist to OperationType--><g id="link_RequiredSpecialist_OperationType"><path codeLine="38" d="M388.12,272.4369 C433.77,294.9269 487.5541,321.4165 533.1941,343.8865 " fill="none" id="RequiredSpecialist-to-OperationType" style="stroke:#181818;stroke-width:1.0;"/><polygon fill="#181818" points="543.96,349.1869,540.3438,342.948,533.1941,343.8865,536.8102,350.1253,543.96,349.1869" style="stroke:#181818;stroke-width:1.0;"/><text fill="#000000" font-family="sans-serif" font-size="13" lengthAdjust="spacing" textLength="7" x="393.0571" y="292.7302">*</text><text fill="#000000" font-family="sans-serif" font-size="13" lengthAdjust="spacing" textLength="8" x="523.045" y="338.4496">1</text></g><!--link RequiredSpecialist to Specialization--><g id="link_RequiredSpecialist_Specialization"><path codeLine="39" d="M290.73,272.4369 C255.72,294.9269 211.259,323.4754 176.259,345.9454 " fill="none" id="RequiredSpecialist-to-Specialization" style="stroke:#181818;stroke-width:1.0;"/><polygon fill="#181818" points="171.21,349.1869,180.9445,347.6907,175.4175,346.4856,176.6226,340.9586,171.21,349.1869" style="stroke:#181818;stroke-width:1.0;"/><text fill="#000000" font-family="sans-serif" font-size="13" lengthAdjust="spacing" textLength="7" x="273.1457" y="292.7302">*</text><text fill="#000000" font-family="sans-serif" font-size="13" lengthAdjust="spacing" textLength="8" x="171.5684" y="338.4496">1</text></g><!--link SpecialistCount to RequiredSpecialist--><g id="link_SpecialistCount_RequiredSpecialist"><path codeLine="40" d="M333,134.4869 C333,158.2069 333,192.4469 333,216.1469 " fill="none" id="SpecialistCount-RequiredSpecialist" style="stroke:#181818;stroke-width:1.0;"/><text fill="#000000" font-family="sans-serif" font-size="13" lengthAdjust="spacing" textLength="8" x="324.075" y="154.7917">1</text><text fill="#000000" font-family="sans-serif" font-size="13" lengthAdjust="spacing" textLength="8" x="324.125" y="205.4008">1</text></g><!--link OperationPhase to OperationType--><g id="link_OperationPhase_OperationType"><path codeLine="41" d="M821.78,272.4369 C773.55,294.9269 716.2262,321.6466 668.0262,344.1166 " fill="none" id="OperationPhase-to-OperationType" style="stroke:#181818;stroke-width:1.0;"/><polygon fill="#181818" points="657.15,349.1869,664.2782,350.2771,668.0262,344.1166,660.898,343.0263,657.15,349.1869" style="stroke:#181818;stroke-width:1.0;"/><text fill="#000000" font-family="sans-serif" font-size="13" lengthAdjust="spacing" textLength="7" x="800.5073" y="292.7302">*</text><text fill="#000000" font-family="sans-serif" font-size="13" lengthAdjust="spacing" textLength="8" x="660.9953" y="338.4496">1</text></g><!--link PhaseName to OperationPhase--><g id="link_PhaseName_OperationPhase"><path codeLine="42" d="M752.79,134.4869 C780.53,158.2069 820.55,192.4469 848.26,216.1469 " fill="none" id="PhaseName-OperationPhase" style="stroke:#181818;stroke-width:1.0;"/><text fill="#000000" font-family="sans-serif" font-size="13" lengthAdjust="spacing" textLength="8" x="751.2164" y="154.7917">1</text><text fill="#000000" font-family="sans-serif" font-size="13" lengthAdjust="spacing" textLength="7" x="833.5513" y="205.4008">*</text></g><!--link PhaseDuration to OperationPhase--><g id="link_PhaseDuration_OperationPhase"><path codeLine="43" d="M882.4,134.4869 C881.88,158.2069 881.12,192.4469 880.6,216.1469 " fill="none" id="PhaseDuration-OperationPhase" style="stroke:#181818;stroke-width:1.0;"/><text fill="#000000" font-family="sans-serif" font-size="13" lengthAdjust="spacing" textLength="8" x="873.3363" y="154.7917">1</text><text fill="#000000" font-family="sans-serif" font-size="13" lengthAdjust="spacing" textLength="7" x="872.9656" y="205.4008">*</text></g><!--SRC=[dPJDRe9058NNdQUOwAOQJR3feZQ6n8WcBbeDLlTJkEAq23XSJApfktSS2mfCAxgQnJtV_Js077sWyzb3XzhWmvO5IArmpNX0Nq8NV4AcpFba7j1P10vdFlzYoCEWxta2F8Qm9tV303dk2WBQwztRhRfXTBkZKOFQOOZqA3JD_JSXTmEVnN41UcLhE82BLdrfT9yCeq7d0TyaGCSkI7Z9GPWcbRpCe45hdHfjjvlgBRJpJ7cQ8ZuDDOb0gFZRBe9i9deQAYUeE5EE6LlL1jAnkNKyAdh1V0bFtZ_0mHmuZ96lPU-kbOZi05N0NCK5YFXMTePCe7LOtotqC72lOViEygs2PLbCuejSTb4RDWaNuAR-Y56owHNFAfpYWp09i7g1RApfYiMWJwv2rvnN0PLFAxifcl3yqyXldfGzfyH9z2lFgyj6-q-jTLTbu6GfXVYmnCjGwYI52Ewjz4p9GUSRoairbgarhnQRcjyIARhis8Hwoeb8mLf_Dw4JoeKhPUQzowhqnEG7]--></g></svg>