<?xml version="1.0" encoding="us-ascii" standalone="no"?><svg xmlns="http://www.w3.org/2000/svg" xmlns:xlink="http://www.w3.org/1999/xlink" contentStyleType="text/css" height="812px" preserveAspectRatio="none" style="width:2253px;height:812px;background:#FFFFFF;" version="1.1" viewBox="0 0 2253 812" width="2253px" zoomAndPan="magnify"><defs/><g><text fill="#000000" font-family="sans-serif" font-size="14" font-weight="bold" lengthAdjust="spacing" textLength="210" x="1020.5" y="27.9951">Sequence Diagram - US 21</text><rect fill="#FFFFFF" height="654.9219" style="stroke:#181818;stroke-width:1.0;" width="10" x="367" y="104.7266"/><rect fill="#FFFFFF" height="596.6563" style="stroke:#181818;stroke-width:1.0;" width="10" x="764" y="133.8594"/><rect fill="#FFFFFF" height="494.2891" style="stroke:#181818;stroke-width:1.0;" width="10" x="1203" y="207.0938"/><rect fill="#FFFFFF" height="29.1328" style="stroke:#181818;stroke-width:1.0;" width="10" x="1492" y="236.2266"/><rect fill="#FFFFFF" height="29.1328" style="stroke:#181818;stroke-width:1.0;" width="10" x="1492" y="543.5547"/><rect fill="#FFFFFF" height="29.1328" style="stroke:#181818;stroke-width:1.0;" width="10" x="1492" y="601.8203"/><rect fill="#FFFFFF" height="29.1328" style="stroke:#181818;stroke-width:1.0;" width="10" x="1688" y="318.625"/><rect fill="#FFFFFF" height="29.1328" style="stroke:#181818;stroke-width:1.0;" width="10" x="1877" y="399.0234"/><rect fill="#FFFFFF" height="14" style="stroke:#181818;stroke-width:1.0;" width="10" x="2027" y="457.2891"/><rect fill="#FFFFFF" height="14" style="stroke:#181818;stroke-width:1.0;" width="10" x="2027" y="500.4219"/><rect fill="none" height="75.3984" style="stroke:#000000;stroke-width:1.5;" width="679" x="1115" y="280.3594"/><line style="stroke:#181818;stroke-width:0.5;stroke-dasharray:5.0,5.0;" x1="372" x2="372" y1="73.5938" y2="777.6484"/><line style="stroke:#181818;stroke-width:0.5;stroke-dasharray:5.0,5.0;" x1="768.5" x2="768.5" y1="73.5938" y2="777.6484"/><line style="stroke:#181818;stroke-width:0.5;stroke-dasharray:5.0,5.0;" x1="1208" x2="1208" y1="73.5938" y2="777.6484"/><line style="stroke:#181818;stroke-width:0.5;stroke-dasharray:5.0,5.0;" x1="1497" x2="1497" y1="73.5938" y2="777.6484"/><line style="stroke:#181818;stroke-width:0.5;stroke-dasharray:5.0,5.0;" x1="1693" x2="1693" y1="73.5938" y2="777.6484"/><line style="stroke:#181818;stroke-width:0.5;stroke-dasharray:5.0,5.0;" x1="1882" x2="1882" y1="73.5938" y2="777.6484"/><line style="stroke:#181818;stroke-width:0.5;stroke-dasharray:5.0,5.0;" x1="2032" x2="2032" y1="73.5938" y2="777.6484"/><line style="stroke:#181818;stroke-width:0.5;stroke-dasharray:5.0,5.0;" x1="2173" x2="2173" y1="669.6016" y2="777.6484"/><rect fill="#E2E2F0" height="30.2969" rx="2.5" ry="2.5" style="stroke:#181818;stroke-width:0.5;" width="68" x="338" y="42.2969"/><text fill="#000000" font-family="sans-serif" font-size="14" lengthAdjust="spacing" textLength="54" x="345" y="62.292">Routing</text><rect fill="#E2E2F0" height="30.2969" rx="2.5" ry="2.5" style="stroke:#181818;stroke-width:0.5;" width="68" x="338" y="776.6484"/><text fill="#000000" font-family="sans-serif" font-size="14" lengthAdjust="spacing" textLength="54" x="345" y="796.6436">Routing</text><rect fill="#E2E2F0" height="30.2969" rx="2.5" ry="2.5" style="stroke:#181818;stroke-width:0.5;" width="241" x="648.5" y="42.2969"/><text fill="#000000" font-family="sans-serif" font-size="14" lengthAdjust="spacing" textLength="227" x="655.5" y="62.292">RegisterOperationTypeController</text><rect fill="#E2E2F0" height="30.2969" rx="2.5" ry="2.5" style="stroke:#181818;stroke-width:0.5;" width="241" x="648.5" y="776.6484"/><text fill="#000000" font-family="sans-serif" font-size="14" lengthAdjust="spacing" textLength="227" x="655.5" y="796.6436">RegisterOperationTypeController</text><rect fill="#E2E2F0" height="30.2969" rx="2.5" ry="2.5" style="stroke:#181818;stroke-width:0.5;" width="166" x="1125" y="42.2969"/><text fill="#000000" font-family="sans-serif" font-size="14" lengthAdjust="spacing" textLength="152" x="1132" y="62.292">OperationTypeService</text><rect fill="#E2E2F0" height="30.2969" rx="2.5" ry="2.5" style="stroke:#181818;stroke-width:0.5;" width="166" x="1125" y="776.6484"/><text fill="#000000" font-family="sans-serif" font-size="14" lengthAdjust="spacing" textLength="152" x="1132" y="796.6436">OperationTypeService</text><rect fill="#E2E2F0" height="30.2969" rx="2.5" ry="2.5" style="stroke:#181818;stroke-width:0.5;" width="190" x="1402" y="42.2969"/><text fill="#000000" font-family="sans-serif" font-size="14" lengthAdjust="spacing" textLength="176" x="1409" y="62.292">OperationTypeRepository</text><rect fill="#E2E2F0" height="30.2969" rx="2.5" ry="2.5" style="stroke:#181818;stroke-width:0.5;" width="190" x="1402" y="776.6484"/><text fill="#000000" font-family="sans-serif" font-size="14" lengthAdjust="spacing" textLength="176" x="1409" y="796.6436">OperationTypeRepository</text><rect fill="#E2E2F0" height="30.2969" rx="2.5" ry="2.5" style="stroke:#181818;stroke-width:0.5;" width="182" x="1602" y="42.2969"/><text fill="#000000" font-family="sans-serif" font-size="14" lengthAdjust="spacing" textLength="168" x="1609" y="62.292">SpecializationRepository</text><rect fill="#E2E2F0" height="30.2969" rx="2.5" ry="2.5" style="stroke:#181818;stroke-width:0.5;" width="182" x="1602" y="776.6484"/><text fill="#000000" font-family="sans-serif" font-size="14" lengthAdjust="spacing" textLength="168" x="1609" y="796.6436">SpecializationRepository</text><rect fill="#E2E2F0" height="30.2969" rx="2.5" ry="2.5" style="stroke:#181818;stroke-width:0.5;" width="164" x="1800" y="42.2969"/><text fill="#000000" font-family="sans-serif" font-size="14" lengthAdjust="spacing" textLength="150" x="1807" y="62.292">OperationTypeBuilder</text><rect fill="#E2E2F0" height="30.2969" rx="2.5" ry="2.5" style="stroke:#181818;stroke-width:0.5;" width="164" x="1800" y="776.6484"/><text fill="#000000" font-family="sans-serif" font-size="14" lengthAdjust="spacing" textLength="150" x="1807" y="796.6436">OperationTypeBuilder</text><rect fill="#E2E2F0" height="30.2969" rx="2.5" ry="2.5" style="stroke:#181818;stroke-width:0.5;" width="116" x="1974" y="42.2969"/><text fill="#000000" font-family="sans-serif" font-size="14" lengthAdjust="spacing" textLength="102" x="1981" y="62.292">OperationType</text><rect fill="#E2E2F0" height="30.2969" rx="2.5" ry="2.5" style="stroke:#181818;stroke-width:0.5;" width="116" x="1974" y="776.6484"/><text fill="#000000" font-family="sans-serif" font-size="14" lengthAdjust="spacing" textLength="102" x="1981" y="796.6436">OperationType</text><rect fill="#E2E2F0" height="30.2969" rx="2.5" ry="2.5" style="stroke:#181818;stroke-width:0.5;" width="147" x="2100" y="776.6484"/><text fill="#000000" font-family="sans-serif" font-size="14" lengthAdjust="spacing" textLength="133" x="2107" y="796.6436">OperationTypeDTO</text><rect fill="#FFFFFF" height="654.9219" style="stroke:#181818;stroke-width:1.0;" width="10" x="367" y="104.7266"/><rect fill="#FFFFFF" height="596.6563" style="stroke:#181818;stroke-width:1.0;" width="10" x="764" y="133.8594"/><rect fill="#FFFFFF" height="494.2891" style="stroke:#181818;stroke-width:1.0;" width="10" x="1203" y="207.0938"/><rect fill="#FFFFFF" height="29.1328" style="stroke:#181818;stroke-width:1.0;" width="10" x="1492" y="236.2266"/><rect fill="#FFFFFF" height="29.1328" style="stroke:#181818;stroke-width:1.0;" width="10" x="1492" y="543.5547"/><rect fill="#FFFFFF" height="29.1328" style="stroke:#181818;stroke-width:1.0;" width="10" x="1492" y="601.8203"/><rect fill="#FFFFFF" height="29.1328" style="stroke:#181818;stroke-width:1.0;" width="10" x="1688" y="318.625"/><rect fill="#FFFFFF" height="29.1328" style="stroke:#181818;stroke-width:1.0;" width="10" x="1877" y="399.0234"/><rect fill="#FFFFFF" height="14" style="stroke:#181818;stroke-width:1.0;" width="10" x="2027" y="457.2891"/><rect fill="#FFFFFF" height="14" style="stroke:#181818;stroke-width:1.0;" width="10" x="2027" y="500.4219"/><polygon fill="#181818" points="355,100.7266,365,104.7266,355,108.7266,359,104.7266" style="stroke:#181818;stroke-width:1.0;"/><line style="stroke:#181818;stroke-width:1.0;" x1="0" x2="361" y1="104.7266" y2="104.7266"/><text fill="#000000" font-family="sans-serif" font-size="13" lengthAdjust="spacing" textLength="348" x="7" y="99.6606">POST(operationTypeName, operationType, authToken)</text><polygon fill="#181818" points="752,129.8594,762,133.8594,752,137.8594,756,133.8594" style="stroke:#181818;stroke-width:1.0;"/><line style="stroke:#181818;stroke-width:1.0;" x1="377" x2="758" y1="133.8594" y2="133.8594"/><text fill="#000000" font-family="sans-serif" font-size="13" lengthAdjust="spacing" textLength="368" x="384" y="128.7935">UpdateByName(operationTypeName, operationTypeDTO)</text><rect fill="none" height="39.1016" style="stroke:#000000;stroke-width:1.5;" width="247" x="645.5" y="141.8594"/><path d="M645.5,141.8594 L711.5,141.8594 L711.5,148.8594 L701.5,158.8594 L645.5,158.8594 L645.5,141.8594 " fill="#EEEEEE" style="stroke:#000000;stroke-width:2.0;"/><text fill="#000000" font-family="sans-serif" font-size="13" font-weight="bold" lengthAdjust="spacing" textLength="21" x="658.5" y="155.9263">ref</text><text fill="#000000" font-family="sans-serif" font-size="12" lengthAdjust="spacing" textLength="155" x="691.5" y="173.998">Refer to generic auth SD</text><polygon fill="#181818" points="1191,203.0938,1201,207.0938,1191,211.0938,1195,207.0938" style="stroke:#181818;stroke-width:1.0;"/><line style="stroke:#181818;stroke-width:1.0;" x1="774" x2="1197" y1="207.0938" y2="207.0938"/><text fill="#000000" font-family="sans-serif" font-size="13" lengthAdjust="spacing" textLength="410" x="781" y="202.0278">UpdateOperationType(OperationTypeName, OperationTypeDTO)</text><polygon fill="#181818" points="1480,232.2266,1490,236.2266,1480,240.2266,1484,236.2266" style="stroke:#181818;stroke-width:1.0;"/><line style="stroke:#181818;stroke-width:1.0;" x1="1213" x2="1486" y1="236.2266" y2="236.2266"/><text fill="#000000" font-family="sans-serif" font-size="13" lengthAdjust="spacing" textLength="260" x="1220" y="231.1606">GetByNameLatest(OperationTypeName)</text><polygon fill="#181818" points="1224,261.3594,1214,265.3594,1224,269.3594,1220,265.3594" style="stroke:#181818;stroke-width:1.0;"/><line style="stroke:#181818;stroke-width:1.0;stroke-dasharray:2.0,2.0;" x1="1218" x2="1496" y1="265.3594" y2="265.3594"/><text fill="#000000" font-family="sans-serif" font-size="13" lengthAdjust="spacing" textLength="93" x="1230" y="260.2935">OperationType</text><path d="M1115,280.3594 L1192,280.3594 L1192,287.4922 L1182,297.4922 L1115,297.4922 L1115,280.3594 " fill="#EEEEEE" style="stroke:#000000;stroke-width:1.5;"/><rect fill="none" height="75.3984" style="stroke:#000000;stroke-width:1.5;" width="679" x="1115" y="280.3594"/><text fill="#000000" font-family="sans-serif" font-size="13" font-weight="bold" lengthAdjust="spacing" textLength="32" x="1130" y="293.4263">loop</text><text fill="#000000" font-family="sans-serif" font-size="11" font-weight="bold" lengthAdjust="spacing" textLength="208" x="1207" y="292.5698">[each Specialization mentioned]</text><polygon fill="#181818" points="1676,314.625,1686,318.625,1676,322.625,1680,318.625" style="stroke:#181818;stroke-width:1.0;"/><line style="stroke:#181818;stroke-width:1.0;" x1="1213" x2="1682" y1="318.625" y2="318.625"/><text fill="#000000" font-family="sans-serif" font-size="13" lengthAdjust="spacing" textLength="225" x="1220" y="313.5591">GetByIdAsync(SpecializationName)</text><polygon fill="#181818" points="1224,343.7578,1214,347.7578,1224,351.7578,1220,347.7578" style="stroke:#181818;stroke-width:1.0;"/><line style="stroke:#181818;stroke-width:1.0;stroke-dasharray:2.0,2.0;" x1="1218" x2="1692" y1="347.7578" y2="347.7578"/><text fill="#000000" font-family="sans-serif" font-size="13" lengthAdjust="spacing" textLength="88" x="1230" y="342.6919">Specialization</text><polygon fill="#181818" points="1865,395.0234,1875,399.0234,1865,403.0234,1869,399.0234" style="stroke:#181818;stroke-width:1.0;"/><line style="stroke:#181818;stroke-width:1.0;" x1="1213" x2="1871" y1="399.0234" y2="399.0234"/><text fill="#000000" font-family="sans-serif" font-size="13" lengthAdjust="spacing" textLength="645" x="1220" y="378.8247">createOperationType(OperationTypeName, OperationTypeVersion, OperationTypeEstimatedDuration,</text><text fill="#000000" font-family="sans-serif" font-size="13" lengthAdjust="spacing" textLength="467" x="1220" y="393.9575">Specializations, SpecializationsCount, OperationPhases, PhasesDuration)</text><polygon fill="#181818" points="1224,424.1563,1214,428.1563,1224,432.1563,1220,428.1563" style="stroke:#181818;stroke-width:1.0;"/><line style="stroke:#181818;stroke-width:1.0;stroke-dasharray:2.0,2.0;" x1="1218" x2="1881" y1="428.1563" y2="428.1563"/><text fill="#000000" font-family="sans-serif" font-size="13" lengthAdjust="spacing" textLength="91" x="1230" y="423.0903">operationType</text><polygon fill="#181818" points="2015,453.2891,2025,457.2891,2015,461.2891,2019,457.2891" style="stroke:#181818;stroke-width:1.0;"/><line style="stroke:#181818;stroke-width:1.0;" x1="1213" x2="2021" y1="457.2891" y2="457.2891"/><text fill="#000000" font-family="sans-serif" font-size="13" lengthAdjust="spacing" textLength="172" x="1220" y="452.2231">DeactivateOperationType()</text><polygon fill="#181818" points="1224,467.2891,1214,471.2891,1224,475.2891,1220,471.2891" style="stroke:#181818;stroke-width:1.0;"/><line style="stroke:#181818;stroke-width:1.0;stroke-dasharray:2.0,2.0;" x1="1218" x2="2031" y1="471.2891" y2="471.2891"/><polygon fill="#181818" points="2015,496.4219,2025,500.4219,2015,504.4219,2019,500.4219" style="stroke:#181818;stroke-width:1.0;"/><line style="stroke:#181818;stroke-width:1.0;" x1="1213" x2="2021" y1="500.4219" y2="500.4219"/><text fill="#000000" font-family="sans-serif" font-size="13" lengthAdjust="spacing" textLength="141" x="1220" y="495.356">ChangeEndDateNow()</text><polygon fill="#181818" points="1224,510.4219,1214,514.4219,1224,518.4219,1220,514.4219" style="stroke:#181818;stroke-width:1.0;"/><line style="stroke:#181818;stroke-width:1.0;stroke-dasharray:2.0,2.0;" x1="1218" x2="2031" y1="514.4219" y2="514.4219"/><polygon fill="#181818" points="1480,539.5547,1490,543.5547,1480,547.5547,1484,543.5547" style="stroke:#181818;stroke-width:1.0;"/><line style="stroke:#181818;stroke-width:1.0;" x1="1213" x2="1486" y1="543.5547" y2="543.5547"/><text fill="#000000" font-family="sans-serif" font-size="13" lengthAdjust="spacing" textLength="150" x="1220" y="538.4888">Update(OperationType)</text><polygon fill="#181818" points="1224,568.6875,1214,572.6875,1224,576.6875,1220,572.6875" style="stroke:#181818;stroke-width:1.0;"/><line style="stroke:#181818;stroke-width:1.0;stroke-dasharray:2.0,2.0;" x1="1218" x2="1496" y1="572.6875" y2="572.6875"/><text fill="#000000" font-family="sans-serif" font-size="13" lengthAdjust="spacing" textLength="91" x="1230" y="567.6216">operationType</text><polygon fill="#181818" points="1480,597.8203,1490,601.8203,1480,605.8203,1484,601.8203" style="stroke:#181818;stroke-width:1.0;"/><line style="stroke:#181818;stroke-width:1.0;" x1="1213" x2="1486" y1="601.8203" y2="601.8203"/><text fill="#000000" font-family="sans-serif" font-size="13" lengthAdjust="spacing" textLength="166" x="1220" y="596.7544">AddAsync(OperationType)</text><polygon fill="#181818" points="1224,626.9531,1214,630.9531,1224,634.9531,1220,630.9531" style="stroke:#181818;stroke-width:1.0;"/><line style="stroke:#181818;stroke-width:1.0;stroke-dasharray:2.0,2.0;" x1="1218" x2="1496" y1="630.9531" y2="630.9531"/><text fill="#000000" font-family="sans-serif" font-size="13" lengthAdjust="spacing" textLength="91" x="1230" y="625.8872">operationType</text><polygon fill="#181818" points="2088,656.0859,2098,660.0859,2088,664.0859,2092,660.0859" style="stroke:#181818;stroke-width:1.0;"/><line style="stroke:#181818;stroke-width:1.0;" x1="1213" x2="2094" y1="660.0859" y2="660.0859"/><text fill="#000000" font-family="sans-serif" font-size="13" lengthAdjust="spacing" textLength="51" x="1220" y="655.02">create()</text><rect fill="#E2E2F0" height="30.2969" rx="2.5" ry="2.5" style="stroke:#181818;stroke-width:0.5;" width="147" x="2100" y="638.9531"/><text fill="#000000" font-family="sans-serif" font-size="14" lengthAdjust="spacing" textLength="133" x="2107" y="658.9482">OperationTypeDTO</text><polygon fill="#181818" points="785,697.3828,775,701.3828,785,705.3828,781,701.3828" style="stroke:#181818;stroke-width:1.0;"/><line style="stroke:#181818;stroke-width:1.0;stroke-dasharray:2.0,2.0;" x1="779" x2="1207" y1="701.3828" y2="701.3828"/><text fill="#000000" font-family="sans-serif" font-size="13" lengthAdjust="spacing" textLength="118" x="791" y="696.3169">operationTypeDTO</text><polygon fill="#181818" points="388,726.5156,378,730.5156,388,734.5156,384,730.5156" style="stroke:#181818;stroke-width:1.0;"/><line style="stroke:#181818;stroke-width:1.0;stroke-dasharray:2.0,2.0;" x1="382" x2="768" y1="730.5156" y2="730.5156"/><text fill="#000000" font-family="sans-serif" font-size="13" lengthAdjust="spacing" textLength="100" x="394" y="725.4497">operationResult</text><polygon fill="#181818" points="11,755.6484,1,759.6484,11,763.6484,7,759.6484" style="stroke:#181818;stroke-width:1.0;"/><line style="stroke:#181818;stroke-width:1.0;stroke-dasharray:2.0,2.0;" x1="5" x2="371" y1="759.6484" y2="759.6484"/><text fill="#000000" font-family="sans-serif" font-size="13" lengthAdjust="spacing" textLength="100" x="17" y="754.5825">operationResult</text><!--SRC=[jLJ1ZjCm4BtxAtmig-O0HuIGTfk2aD1cbNJtnCKRpwOMgHtioQBozKpi9BLJbGeaJd7iDs-Utum75RR0A_ZHWww1vqeqLXnunXyh_kujOvsmg6hL2OsyD3qgtN3XkCNq11hb46pHWHMeZDuTEzWOZTQqBTWXeaRR9Z49jWBxgYW_0HqjBmDBw8nJQEpHow2_15jrK2lHgby-80Mxhbp24-gxNhKoY7qEoylO0MIwo-VvhXWW4WrZsKUoYx_d3qMrMvaOTIyEiER9rfgB7lSxyntq6oPgLAy2OR2R4GSn3JOIrsCdQV_kE31SvIGn4PSl12ktdtZnj2t3RmalT74ql04DLjLU1Azo1bgIoI-C-RoKVwZEd3-vygeubr6SoJZfy7LcdczmY4f3l9y1mwM-4iJXEMVCuAll0xEJiYI2IKZHZBN6T9nszujUuGVGmnVah2aqpAJgYxnrHrslqh2bfh79nj18LneM2nj3lDU3kfCfOnjIT6tXh_r-0kjekTZTEbG7uf9v7pRNttIgpQqNOjt6z1eZdeUzS42my9s8OXkc1pJT83B2N2hG53DVdw24psT4Ulqu7Pb6s5EIc3Osr1Dkza8tiDKof-Dxy_EVcCP-3UyWBSNL5ZL_Rj55YbivDjv_IK8JwkPcRZ2o8XoS9iroaYITwvzm60tJb9ln9RY-nHWU9i-7BBkAf7dt6m00]--></g></svg>