<?xml version="1.0" encoding="us-ascii" standalone="no"?><svg xmlns="http://www.w3.org/2000/svg" xmlns:xlink="http://www.w3.org/1999/xlink" contentStyleType="text/css" height="383px" preserveAspectRatio="none" style="width:470px;height:383px;background:#FFFFFF;" version="1.1" viewBox="0 0 470 383" width="470px" zoomAndPan="magnify"><defs/><g><rect fill="#FFFFFF" height="30.3516" style="stroke:#181818;stroke-width:1.0;" width="10" x="88" y="69.9609"/><rect fill="#FFFFFF" height="30.3516" style="stroke:#181818;stroke-width:1.0;" width="10" x="88" y="298.5156"/><rect fill="#FFFFFF" height="76.7969" style="stroke:#181818;stroke-width:1.0;" width="10" x="186" y="100.3125"/><rect fill="#FFFFFF" height="30.3516" style="stroke:#181818;stroke-width:1.0;" width="10" x="186" y="268.1641"/><rect fill="#FFFFFF" height="30.3516" style="stroke:#181818;stroke-width:1.0;" width="10" x="293.5" y="177.1094"/><rect fill="#FFFFFF" height="30.3516" style="stroke:#181818;stroke-width:1.0;" width="10" x="293.5" y="237.8125"/><rect fill="#FFFFFF" height="30.3516" style="stroke:#181818;stroke-width:1.0;" width="10" x="404" y="207.4609"/><line style="stroke:#181818;stroke-width:0.5;stroke-dasharray:5.0,5.0;" x1="92.5" x2="92.5" y1="37.6094" y2="346.8672"/><line style="stroke:#181818;stroke-width:0.5;stroke-dasharray:5.0,5.0;" x1="190.5" x2="190.5" y1="37.6094" y2="346.8672"/><line style="stroke:#181818;stroke-width:0.5;stroke-dasharray:5.0,5.0;" x1="298.5" x2="298.5" y1="37.6094" y2="346.8672"/><line style="stroke:#181818;stroke-width:0.5;stroke-dasharray:5.0,5.0;" x1="408.5" x2="408.5" y1="37.6094" y2="346.8672"/><rect fill="#E2E2F0" height="31.6094" rx="2.5" ry="2.5" style="stroke:#181818;stroke-width:0.5;" width="63" x="61.5" y="5"/><text fill="#000000" font-family="sans-serif" font-size="14" lengthAdjust="spacing" textLength="49" x="68.5" y="26.5332">Routing</text><rect fill="#E2E2F0" height="31.6094" rx="2.5" ry="2.5" style="stroke:#181818;stroke-width:0.5;" width="63" x="61.5" y="345.8672"/><text fill="#000000" font-family="sans-serif" font-size="14" lengthAdjust="spacing" textLength="49" x="68.5" y="367.4004">Routing</text><rect fill="#E2E2F0" height="31.6094" rx="2.5" ry="2.5" style="stroke:#181818;stroke-width:0.5;" width="105" x="138.5" y="5"/><text fill="#000000" font-family="sans-serif" font-size="14" lengthAdjust="spacing" textLength="91" x="145.5" y="26.5332">StaffController</text><rect fill="#E2E2F0" height="31.6094" rx="2.5" ry="2.5" style="stroke:#181818;stroke-width:0.5;" width="105" x="138.5" y="345.8672"/><text fill="#000000" font-family="sans-serif" font-size="14" lengthAdjust="spacing" textLength="91" x="145.5" y="367.4004">StaffController</text><rect fill="#E2E2F0" height="31.6094" rx="2.5" ry="2.5" style="stroke:#181818;stroke-width:0.5;" width="90" x="253.5" y="5"/><text fill="#000000" font-family="sans-serif" font-size="14" lengthAdjust="spacing" textLength="76" x="260.5" y="26.5332">StaffService</text><rect fill="#E2E2F0" height="31.6094" rx="2.5" ry="2.5" style="stroke:#181818;stroke-width:0.5;" width="90" x="253.5" y="345.8672"/><text fill="#000000" font-family="sans-serif" font-size="14" lengthAdjust="spacing" textLength="76" x="260.5" y="367.4004">StaffService</text><rect fill="#E2E2F0" height="31.6094" rx="2.5" ry="2.5" style="stroke:#181818;stroke-width:0.5;" width="111" x="353.5" y="5"/><text fill="#000000" font-family="sans-serif" font-size="14" lengthAdjust="spacing" textLength="97" x="360.5" y="26.5332">StaffRepository</text><rect fill="#E2E2F0" height="31.6094" rx="2.5" ry="2.5" style="stroke:#181818;stroke-width:0.5;" width="111" x="353.5" y="345.8672"/><text fill="#000000" font-family="sans-serif" font-size="14" lengthAdjust="spacing" textLength="97" x="360.5" y="367.4004">StaffRepository</text><rect fill="#FFFFFF" height="30.3516" style="stroke:#181818;stroke-width:1.0;" width="10" x="88" y="69.9609"/><rect fill="#FFFFFF" height="30.3516" style="stroke:#181818;stroke-width:1.0;" width="10" x="88" y="298.5156"/><rect fill="#FFFFFF" height="76.7969" style="stroke:#181818;stroke-width:1.0;" width="10" x="186" y="100.3125"/><rect fill="#FFFFFF" height="30.3516" style="stroke:#181818;stroke-width:1.0;" width="10" x="186" y="268.1641"/><rect fill="#FFFFFF" height="30.3516" style="stroke:#181818;stroke-width:1.0;" width="10" x="293.5" y="177.1094"/><rect fill="#FFFFFF" height="30.3516" style="stroke:#181818;stroke-width:1.0;" width="10" x="293.5" y="237.8125"/><rect fill="#FFFFFF" height="30.3516" style="stroke:#181818;stroke-width:1.0;" width="10" x="404" y="207.4609"/><polygon fill="#181818" points="76,65.9609,86,69.9609,76,73.9609,80,69.9609" style="stroke:#181818;stroke-width:1.0;"/><line style="stroke:#181818;stroke-width:1.0;" x1="0" x2="82" y1="69.9609" y2="69.9609"/><text fill="#000000" font-family="sans-serif" font-size="13" lengthAdjust="spacing" textLength="59" x="7" y="65.1045">GET(auth)</text><polygon fill="#181818" points="174,96.3125,184,100.3125,174,104.3125,178,100.3125" style="stroke:#181818;stroke-width:1.0;"/><line style="stroke:#181818;stroke-width:1.0;" x1="93" x2="180" y1="100.3125" y2="100.3125"/><text fill="#000000" font-family="sans-serif" font-size="13" lengthAdjust="spacing" textLength="69" x="100" y="95.4561">ListAll(auth)</text><rect fill="none" height="41.4453" style="stroke:#000000;stroke-width:1.5;" width="142" x="135.5" y="108.3125"/><path d="M135.5,108.3125 L197.5,108.3125 L197.5,116.3125 L187.5,126.3125 L135.5,126.3125 L135.5,108.3125 " fill="#EEEEEE" style="stroke:#000000;stroke-width:2.0;"/><text fill="#000000" font-family="sans-serif" font-size="13" font-weight="bold" lengthAdjust="spacing" textLength="17" x="148.5" y="123.8076">ref</text><text fill="#000000" font-family="sans-serif" font-size="12" lengthAdjust="spacing" textLength="134" x="139.5" y="142.7695">Refer to generic auth SD</text><polygon fill="#181818" points="281.5,173.1094,291.5,177.1094,281.5,181.1094,285.5,177.1094" style="stroke:#181818;stroke-width:1.0;"/><line style="stroke:#181818;stroke-width:1.0;" x1="191" x2="287.5" y1="177.1094" y2="177.1094"/><text fill="#000000" font-family="sans-serif" font-size="13" lengthAdjust="spacing" textLength="76" x="198" y="172.2529">GetStaffList()</text><polygon fill="#181818" points="392,203.4609,402,207.4609,392,211.4609,396,207.4609" style="stroke:#181818;stroke-width:1.0;"/><line style="stroke:#181818;stroke-width:1.0;" x1="298.5" x2="398" y1="207.4609" y2="207.4609"/><text fill="#000000" font-family="sans-serif" font-size="13" lengthAdjust="spacing" textLength="76" x="305.5" y="202.6045">GetStaffList()</text><polygon fill="#181818" points="314.5,233.8125,304.5,237.8125,314.5,241.8125,310.5,237.8125" style="stroke:#181818;stroke-width:1.0;"/><line style="stroke:#181818;stroke-width:1.0;stroke-dasharray:2.0,2.0;" x1="308.5" x2="408" y1="237.8125" y2="237.8125"/><text fill="#000000" font-family="sans-serif" font-size="13" lengthAdjust="spacing" textLength="69" x="320.5" y="232.9561">listStaffDTO</text><polygon fill="#181818" points="207,264.1641,197,268.1641,207,272.1641,203,268.1641" style="stroke:#181818;stroke-width:1.0;"/><line style="stroke:#181818;stroke-width:1.0;stroke-dasharray:2.0,2.0;" x1="201" x2="297.5" y1="268.1641" y2="268.1641"/><text fill="#000000" font-family="sans-serif" font-size="13" lengthAdjust="spacing" textLength="69" x="213" y="263.3076">listStaffDTO</text><polygon fill="#181818" points="109,294.5156,99,298.5156,109,302.5156,105,298.5156" style="stroke:#181818;stroke-width:1.0;"/><line style="stroke:#181818;stroke-width:1.0;stroke-dasharray:2.0,2.0;" x1="103" x2="190" y1="298.5156" y2="298.5156"/><text fill="#000000" font-family="sans-serif" font-size="13" lengthAdjust="spacing" textLength="69" x="115" y="293.6592">listStaffDTO</text><polygon fill="#181818" points="11,324.8672,1,328.8672,11,332.8672,7,328.8672" style="stroke:#181818;stroke-width:1.0;"/><line style="stroke:#181818;stroke-width:1.0;stroke-dasharray:2.0,2.0;" x1="5" x2="92" y1="328.8672" y2="328.8672"/><text fill="#000000" font-family="sans-serif" font-size="13" lengthAdjust="spacing" textLength="69" x="17" y="324.0107">listStaffDTO</text><!--SRC=[XP7FQiCm3CRFqrFes1xo0cCKHfljCYWufNVZAft1sC5H0ttx-i_grWlBRf7oqwTFdmVfMIizICiet8MrFQCSqOTFWk7fPyUoxxVEidV6a8-GOc_cJ4T-qeeYCAPwKdD8qE16pSvV2nTR0D1iyd9ynS_si98N_bw3LAmd6PhPLmO26Hq4y4kF_6xC3toYNtWfas4GxGVkZwt8vOkWFfp33izaoMk5KGMx7P0zeQSU86q9s-xdH6l4wOwuULMjJAAbAWb06RuBnNiNbSfitSavFIIQsfa9EabmTzZFrDBiehb7g8j2bQqSQqxfwVd-4gWJoZJ0MzFyEvcVymO0]--></g></svg>