<?xml version="1.0" encoding="us-ascii" standalone="no"?><svg xmlns="http://www.w3.org/2000/svg" xmlns:xlink="http://www.w3.org/1999/xlink" contentStyleType="text/css" height="663px" preserveAspectRatio="none" style="width:488px;height:663px;background:#FFFFFF;" version="1.1" viewBox="0 0 488 663" width="488px" zoomAndPan="magnify"><defs/><g><rect fill="#FFFFFF" height="23.291" style="stroke:#181818;stroke-width:1.0;" width="10" x="47.5" y="93.6211"/><rect fill="#FFFFFF" height="31.291" style="stroke:#181818;stroke-width:1.0;" width="10" x="47.5" y="148.2031"/><rect fill="#FFFFFF" height="31.291" style="stroke:#181818;stroke-width:1.0;" width="10" x="47.5" y="237.0762"/><rect fill="#FFFFFF" height="57.582" style="stroke:#181818;stroke-width:1.0;" width="10" x="47.5" y="306.6582"/><rect fill="#FFFFFF" height="57.582" style="stroke:#181818;stroke-width:1.0;" width="10" x="47.5" y="395.5313"/><rect fill="#FFFFFF" height="23" style="stroke:#181818;stroke-width:1.0;" width="10" x="47.5" y="548.6172"/><rect fill="#FFFFFF" height="31.291" style="stroke:#181818;stroke-width:1.0;" width="10" x="351.5" y="116.9121"/><rect fill="#FFFFFF" height="57.582" style="stroke:#181818;stroke-width:1.0;" width="10" x="351.5" y="179.4941"/><rect fill="#FFFFFF" height="38.291" style="stroke:#181818;stroke-width:1.0;" width="10" x="351.5" y="268.3672"/><rect fill="#FFFFFF" height="31.291" style="stroke:#181818;stroke-width:1.0;" width="10" x="351.5" y="364.2402"/><rect fill="#FFFFFF" height="95.5039" style="stroke:#181818;stroke-width:1.0;" width="10" x="351.5" y="453.1133"/><rect fill="none" height="81.873" style="stroke:#000000;stroke-width:1.5;" width="376.5" x="20" y="194.4941"/><rect fill="none" height="241.959" style="stroke:#000000;stroke-width:1.5;" width="472.5" x="10" y="321.6582"/><rect fill="none" height="146.0859" style="stroke:#000000;stroke-width:1.5;" width="452.5" x="20" y="410.5313"/><line style="stroke:#181818;stroke-width:0.5;stroke-dasharray:5.0,5.0;" x1="52" x2="52" y1="83.6211" y2="580.6172"/><line style="stroke:#181818;stroke-width:0.5;stroke-dasharray:5.0,5.0;" x1="356.5" x2="356.5" y1="83.6211" y2="580.6172"/><text fill="#000000" font-family="sans-serif" font-size="14" lengthAdjust="spacing" textLength="39" x="30" y="80.1074">Admin</text><ellipse cx="52.5" cy="13.5" fill="#E2E2F0" rx="8" ry="8" style="stroke:#181818;stroke-width:0.5;"/><path d="M52.5,21.5 L52.5,48.5 M39.5,29.5 L65.5,29.5 M52.5,48.5 L39.5,63.5 M52.5,48.5 L65.5,63.5 " fill="none" style="stroke:#181818;stroke-width:0.5;"/><text fill="#000000" font-family="sans-serif" font-size="14" lengthAdjust="spacing" textLength="39" x="30" y="594.7246">Admin</text><ellipse cx="52.5" cy="606.7383" fill="#E2E2F0" rx="8" ry="8" style="stroke:#181818;stroke-width:0.5;"/><path d="M52.5,614.7383 L52.5,641.7383 M39.5,622.7383 L65.5,622.7383 M52.5,641.7383 L39.5,656.7383 M52.5,641.7383 L65.5,656.7383 " fill="none" style="stroke:#181818;stroke-width:0.5;"/><rect fill="#E2E2F0" height="32.6211" rx="2.5" ry="2.5" style="stroke:#181818;stroke-width:0.5;" width="60" x="326.5" y="50"/><text fill="#000000" font-family="sans-serif" font-size="14" lengthAdjust="spacing" textLength="46" x="333.5" y="72.1074">System</text><rect fill="#E2E2F0" height="32.6211" rx="2.5" ry="2.5" style="stroke:#181818;stroke-width:0.5;" width="60" x="326.5" y="579.6172"/><text fill="#000000" font-family="sans-serif" font-size="14" lengthAdjust="spacing" textLength="46" x="333.5" y="601.7246">System</text><rect fill="#FFFFFF" height="23.291" style="stroke:#181818;stroke-width:1.0;" width="10" x="47.5" y="93.6211"/><rect fill="#FFFFFF" height="31.291" style="stroke:#181818;stroke-width:1.0;" width="10" x="47.5" y="148.2031"/><rect fill="#FFFFFF" height="31.291" style="stroke:#181818;stroke-width:1.0;" width="10" x="47.5" y="237.0762"/><rect fill="#FFFFFF" height="57.582" style="stroke:#181818;stroke-width:1.0;" width="10" x="47.5" y="306.6582"/><rect fill="#FFFFFF" height="57.582" style="stroke:#181818;stroke-width:1.0;" width="10" x="47.5" y="395.5313"/><rect fill="#FFFFFF" height="23" style="stroke:#181818;stroke-width:1.0;" width="10" x="47.5" y="548.6172"/><rect fill="#FFFFFF" height="31.291" style="stroke:#181818;stroke-width:1.0;" width="10" x="351.5" y="116.9121"/><rect fill="#FFFFFF" height="57.582" style="stroke:#181818;stroke-width:1.0;" width="10" x="351.5" y="179.4941"/><rect fill="#FFFFFF" height="38.291" style="stroke:#181818;stroke-width:1.0;" width="10" x="351.5" y="268.3672"/><rect fill="#FFFFFF" height="31.291" style="stroke:#181818;stroke-width:1.0;" width="10" x="351.5" y="364.2402"/><rect fill="#FFFFFF" height="95.5039" style="stroke:#181818;stroke-width:1.0;" width="10" x="351.5" y="453.1133"/><polygon fill="#181818" points="339.5,112.9121,349.5,116.9121,339.5,120.9121,343.5,116.9121" style="stroke:#181818;stroke-width:1.0;"/><line style="stroke:#181818;stroke-width:1.0;" x1="52.5" x2="345.5" y1="116.9121" y2="116.9121"/><text fill="#000000" font-family="sans-serif" font-size="13" lengthAdjust="spacing" textLength="178" x="59.5" y="111.6494">requests to view list of patients</text><polygon fill="#181818" points="68.5,144.2031,58.5,148.2031,68.5,152.2031,64.5,148.2031" style="stroke:#181818;stroke-width:1.0;"/><line style="stroke:#181818;stroke-width:1.0;stroke-dasharray:2.0,2.0;" x1="62.5" x2="355.5" y1="148.2031" y2="148.2031"/><text fill="#000000" font-family="sans-serif" font-size="13" lengthAdjust="spacing" textLength="124" x="74.5" y="142.9404">requests filter options</text><polygon fill="#181818" points="339.5,175.4941,349.5,179.4941,339.5,183.4941,343.5,179.4941" style="stroke:#181818;stroke-width:1.0;"/><line style="stroke:#181818;stroke-width:1.0;" x1="52.5" x2="345.5" y1="179.4941" y2="179.4941"/><text fill="#000000" font-family="sans-serif" font-size="13" lengthAdjust="spacing" textLength="109" x="59.5" y="174.2314">inputs filter options</text><path d="M20,194.4941 L93,194.4941 L93,203.7852 L83,213.7852 L20,213.7852 L20,194.4941 " fill="#EEEEEE" style="stroke:#000000;stroke-width:1.5;"/><rect fill="none" height="81.873" style="stroke:#000000;stroke-width:1.5;" width="376.5" x="20" y="194.4941"/><text fill="#000000" font-family="sans-serif" font-size="13" font-weight="bold" lengthAdjust="spacing" textLength="28" x="35" y="209.5225">loop</text><text fill="#000000" font-family="sans-serif" font-size="11" font-weight="bold" lengthAdjust="spacing" textLength="82" x="108" y="208.3643">[for each filter]</text><polygon fill="#181818" points="68.5,233.0762,58.5,237.0762,68.5,241.0762,64.5,237.0762" style="stroke:#181818;stroke-width:1.0;"/><line style="stroke:#181818;stroke-width:1.0;stroke-dasharray:2.0,2.0;" x1="62.5" x2="355.5" y1="237.0762" y2="237.0762"/><text fill="#000000" font-family="sans-serif" font-size="13" lengthAdjust="spacing" textLength="193" x="74.5" y="231.8135">requests filter relevant information</text><polygon fill="#181818" points="339.5,264.3672,349.5,268.3672,339.5,272.3672,343.5,268.3672" style="stroke:#181818;stroke-width:1.0;"/><line style="stroke:#181818;stroke-width:1.0;" x1="52.5" x2="345.5" y1="268.3672" y2="268.3672"/><text fill="#000000" font-family="sans-serif" font-size="13" lengthAdjust="spacing" textLength="130" x="59.5" y="263.1045">inputs filter information</text><polygon fill="#181818" points="68.5,302.6582,58.5,306.6582,68.5,310.6582,64.5,306.6582" style="stroke:#181818;stroke-width:1.0;"/><line style="stroke:#181818;stroke-width:1.0;stroke-dasharray:2.0,2.0;" x1="62.5" x2="355.5" y1="306.6582" y2="306.6582"/><text fill="#000000" font-family="sans-serif" font-size="13" lengthAdjust="spacing" textLength="164" x="74.5" y="301.3955">shows filtered list of patients</text><path d="M10,321.6582 L71,321.6582 L71,330.9492 L61,340.9492 L10,340.9492 L10,321.6582 " fill="#EEEEEE" style="stroke:#000000;stroke-width:1.5;"/><rect fill="none" height="241.959" style="stroke:#000000;stroke-width:1.5;" width="472.5" x="10" y="321.6582"/><text fill="#000000" font-family="sans-serif" font-size="13" font-weight="bold" lengthAdjust="spacing" textLength="16" x="25" y="336.6865">alt</text><text fill="#000000" font-family="sans-serif" font-size="11" font-weight="bold" lengthAdjust="spacing" textLength="148" x="86" y="335.5283">[if selects a patient profile]</text><polygon fill="#181818" points="339.5,360.2402,349.5,364.2402,339.5,368.2402,343.5,364.2402" style="stroke:#181818;stroke-width:1.0;"/><line style="stroke:#181818;stroke-width:1.0;" x1="52.5" x2="345.5" y1="364.2402" y2="364.2402"/><text fill="#000000" font-family="sans-serif" font-size="13" lengthAdjust="spacing" textLength="123" x="59.5" y="358.9775">selects patient profile</text><polygon fill="#181818" points="68.5,391.5313,58.5,395.5313,68.5,399.5313,64.5,395.5313" style="stroke:#181818;stroke-width:1.0;"/><line style="stroke:#181818;stroke-width:1.0;stroke-dasharray:2.0,2.0;" x1="62.5" x2="355.5" y1="395.5313" y2="395.5313"/><text fill="#000000" font-family="sans-serif" font-size="13" lengthAdjust="spacing" textLength="275" x="74.5" y="390.2686">displays data and requests operation to perform</text><path d="M20,410.5313 L81,410.5313 L81,419.8223 L71,429.8223 L20,429.8223 L20,410.5313 " fill="#EEEEEE" style="stroke:#000000;stroke-width:1.5;"/><rect fill="none" height="146.0859" style="stroke:#000000;stroke-width:1.5;" width="452.5" x="20" y="410.5313"/><text fill="#000000" font-family="sans-serif" font-size="13" font-weight="bold" lengthAdjust="spacing" textLength="16" x="35" y="425.5596">alt</text><text fill="#000000" font-family="sans-serif" font-size="11" font-weight="bold" lengthAdjust="spacing" textLength="195" x="96" y="424.4014">[if selects an operation is selected]</text><polygon fill="#181818" points="339.5,449.1133,349.5,453.1133,339.5,457.1133,343.5,453.1133" style="stroke:#181818;stroke-width:1.0;"/><line style="stroke:#181818;stroke-width:1.0;" x1="52.5" x2="345.5" y1="453.1133" y2="453.1133"/><text fill="#000000" font-family="sans-serif" font-size="13" lengthAdjust="spacing" textLength="99" x="59.5" y="447.8506">selects operation</text><rect fill="none" height="59.2129" style="stroke:#000000;stroke-width:1.5;" width="142" x="323.5" y="461.1133"/><path d="M323.5,461.1133 L385.5,461.1133 L385.5,470.1133 L375.5,480.1133 L323.5,480.1133 L323.5,461.1133 " fill="#EEEEEE" style="stroke:#000000;stroke-width:2.0;"/><text fill="#000000" font-family="sans-serif" font-size="13" font-weight="bold" lengthAdjust="spacing" textLength="17" x="336.5" y="477.1416">ref</text><text fill="#000000" font-family="sans-serif" font-size="12" lengthAdjust="spacing" textLength="107" x="341" y="497.0625">See US09/US10 for</text><text fill="#000000" font-family="sans-serif" font-size="12" lengthAdjust="spacing" textLength="134" x="327.5" y="513.0234">following chain of events</text><polygon fill="#181818" points="68.5,544.6172,58.5,548.6172,68.5,552.6172,64.5,548.6172" style="stroke:#181818;stroke-width:1.0;"/><line style="stroke:#181818;stroke-width:1.0;stroke-dasharray:2.0,2.0;" x1="62.5" x2="355.5" y1="548.6172" y2="548.6172"/><text fill="#000000" font-family="sans-serif" font-size="13" lengthAdjust="spacing" textLength="275" x="74.5" y="543.3545">displays data and requests operation to perform</text><!--SRC=[fPDHRi8m38RVUmfVO1fxt1ucSOD95GUm6cTO2d6Mc29kFxi2H64hqjQd9BR_VFwThWUL2kkmumpO00VjFh0g3rmmA_J7fhJpI3kshhCmZwWqvVaEdjuz0czGwMjFJHkemCXqWCHDGI8KLAQihGiqAxzi9cNxNEV9z5psIYzoKgeWHLdoJCKB5uWub_rY_Jr54YaGpH1Bsfug7t1LIZIwLPojS8T-ovyXVz6u0wKSm5blJMjREPp5ADoFO1dCq9Br4Q5PJuDHuRaIIXLJfJdxEUqsQT7YEN3WLXBQKK15G6lhugyKgfCJ_g9ixSuyCFQ6FbzfS3kTK_YvYKlgCdwb23BQg7pN4y6cNxq-R_gNbR-RBafASk3y2SCMxPSoyscShAUfj_ZF_XzCq2yn5wuMtJS0]--></g></svg>