<?xml version="1.0" encoding="us-ascii" standalone="no"?><svg xmlns="http://www.w3.org/2000/svg" xmlns:xlink="http://www.w3.org/1999/xlink" contentStyleType="text/css" height="423.9px" preserveAspectRatio="none" style="width:1141px;height:423px;background:#FFFFFF;" version="1.1" viewBox="0 0 1141 423" width="1141.2px" zoomAndPan="magnify"><defs/><g><rect fill="#FFFFFF" height="28.1619" style="stroke:#181818;stroke-width:0.9;" width="9" x="180" y="64.7209"/><rect fill="#FFFFFF" height="28.1619" style="stroke:#181818;stroke-width:0.9;" width="9" x="180" y="346.34"/><rect fill="#FFFFFF" height="71.5887" style="stroke:#181818;stroke-width:0.9;" width="9" x="372.6" y="92.8828"/><rect fill="#FFFFFF" height="28.1619" style="stroke:#181818;stroke-width:0.9;" width="9" x="372.6" y="318.1781"/><rect fill="#FFFFFF" height="28.1619" style="stroke:#181818;stroke-width:0.9;" width="9" x="575.1" y="164.4715"/><rect fill="#FFFFFF" height="97.3828" style="stroke:#181818;stroke-width:0.9;" width="9" x="575.1" y="220.7953"/><rect fill="#FFFFFF" height="28.1619" style="stroke:#181818;stroke-width:0.9;" width="9" x="1074.6" y="192.6334"/><rect fill="none" height="56.6209" style="stroke:#000000;stroke-width:1.35;" width="227.7" x="523.35" y="234.2953"/><line style="stroke:#181818;stroke-width:0.45;stroke-dasharray:5.0,5.0;" x1="184.05" x2="184.05" y1="34.759" y2="390.702"/><line style="stroke:#181818;stroke-width:0.45;stroke-dasharray:5.0,5.0;" x1="376.65" x2="376.65" y1="34.759" y2="390.702"/><line style="stroke:#181818;stroke-width:0.45;stroke-dasharray:5.0,5.0;" x1="579.15" x2="579.15" y1="34.759" y2="390.702"/><line style="stroke:#181818;stroke-width:0.45;stroke-dasharray:5.0,5.0;" x1="681.3" x2="681.3" y1="280.2867" y2="390.702"/><line style="stroke:#181818;stroke-width:0.45;stroke-dasharray:5.0,5.0;" x1="771.3" x2="771.3" y1="34.759" y2="390.702"/><line style="stroke:#181818;stroke-width:0.45;stroke-dasharray:5.0,5.0;" x1="860.4" x2="860.4" y1="34.759" y2="390.702"/><line style="stroke:#181818;stroke-width:0.45;stroke-dasharray:5.0,5.0;" x1="958.5" x2="958.5" y1="34.759" y2="390.702"/><line style="stroke:#181818;stroke-width:0.45;stroke-dasharray:5.0,5.0;" x1="1079.1" x2="1079.1" y1="34.759" y2="390.702"/><rect fill="#E2E2F0" height="29.359" rx="2.25" ry="2.25" style="stroke:#181818;stroke-width:0.45;" width="56.7" x="156.15" y="4.5"/><text fill="#000000" font-family="sans-serif" font-size="12.6" lengthAdjust="spacing" textLength="44.1" x="162.45" y="24.3967">Routing</text><rect fill="#E2E2F0" height="29.359" rx="2.25" ry="2.25" style="stroke:#181818;stroke-width:0.45;" width="56.7" x="156.15" y="389.802"/><text fill="#000000" font-family="sans-serif" font-size="12.6" lengthAdjust="spacing" textLength="44.1" x="162.45" y="409.6986">Routing</text><rect fill="#E2E2F0" height="29.359" rx="2.25" ry="2.25" style="stroke:#181818;stroke-width:0.45;" width="188.1" x="283.05" y="4.5"/><text fill="#000000" font-family="sans-serif" font-size="12.6" lengthAdjust="spacing" textLength="175.5" x="289.35" y="24.3967">FilteredPatientListingController</text><rect fill="#E2E2F0" height="29.359" rx="2.25" ry="2.25" style="stroke:#181818;stroke-width:0.45;" width="188.1" x="283.05" y="389.802"/><text fill="#000000" font-family="sans-serif" font-size="12.6" lengthAdjust="spacing" textLength="175.5" x="289.35" y="409.6986">FilteredPatientListingController</text><rect fill="#E2E2F0" height="29.359" rx="2.25" ry="2.25" style="stroke:#181818;stroke-width:0.45;" width="94.5" x="532.35" y="4.5"/><text fill="#000000" font-family="sans-serif" font-size="12.6" lengthAdjust="spacing" textLength="81.9" x="538.65" y="24.3967">PatientService</text><rect fill="#E2E2F0" height="29.359" rx="2.25" ry="2.25" style="stroke:#181818;stroke-width:0.45;" width="94.5" x="532.35" y="389.802"/><text fill="#000000" font-family="sans-serif" font-size="12.6" lengthAdjust="spacing" textLength="81.9" x="538.65" y="409.6986">PatientService</text><rect fill="#E2E2F0" height="29.359" rx="2.25" ry="2.25" style="stroke:#181818;stroke-width:0.45;" width="72" x="645.3" y="389.802"/><text fill="#000000" font-family="sans-serif" font-size="12.6" lengthAdjust="spacing" textLength="59.4" x="651.6" y="409.6986">PatientDto</text><rect fill="#E2E2F0" height="29.359" rx="2.25" ry="2.25" style="stroke:#181818;stroke-width:0.45;" width="90.9" x="726.3" y="4.5"/><text fill="#000000" font-family="sans-serif" font-size="12.6" lengthAdjust="spacing" textLength="78.3" x="732.6" y="24.3967">TokenService</text><rect fill="#E2E2F0" height="29.359" rx="2.25" ry="2.25" style="stroke:#181818;stroke-width:0.45;" width="90.9" x="726.3" y="389.802"/><text fill="#000000" font-family="sans-serif" font-size="12.6" lengthAdjust="spacing" textLength="78.3" x="732.6" y="409.6986">TokenService</text><rect fill="#E2E2F0" height="29.359" rx="2.25" ry="2.25" style="stroke:#181818;stroke-width:0.45;" width="68.4" x="826.2" y="4.5"/><text fill="#000000" font-family="sans-serif" font-size="12.6" lengthAdjust="spacing" textLength="55.8" x="832.5" y="24.3967">TokenDto</text><rect fill="#E2E2F0" height="29.359" rx="2.25" ry="2.25" style="stroke:#181818;stroke-width:0.45;" width="68.4" x="826.2" y="389.802"/><text fill="#000000" font-family="sans-serif" font-size="12.6" lengthAdjust="spacing" textLength="55.8" x="832.5" y="409.6986">TokenDto</text><rect fill="#E2E2F0" height="29.359" rx="2.25" ry="2.25" style="stroke:#181818;stroke-width:0.45;" width="109.8" x="903.6" y="4.5"/><text fill="#000000" font-family="sans-serif" font-size="12.6" lengthAdjust="spacing" textLength="97.2" x="909.9" y="24.3967">TokenRepository</text><rect fill="#E2E2F0" height="29.359" rx="2.25" ry="2.25" style="stroke:#181818;stroke-width:0.45;" width="109.8" x="903.6" y="389.802"/><text fill="#000000" font-family="sans-serif" font-size="12.6" lengthAdjust="spacing" textLength="97.2" x="909.9" y="409.6986">TokenRepository</text><rect fill="#E2E2F0" height="29.359" rx="2.25" ry="2.25" style="stroke:#181818;stroke-width:0.45;" width="113.4" x="1022.4" y="4.5"/><text fill="#000000" font-family="sans-serif" font-size="12.6" lengthAdjust="spacing" textLength="100.8" x="1028.7" y="24.3967">PatientRepository</text><rect fill="#E2E2F0" height="29.359" rx="2.25" ry="2.25" style="stroke:#181818;stroke-width:0.45;" width="113.4" x="1022.4" y="389.802"/><text fill="#000000" font-family="sans-serif" font-size="12.6" lengthAdjust="spacing" textLength="100.8" x="1028.7" y="409.6986">PatientRepository</text><rect fill="#FFFFFF" height="28.1619" style="stroke:#181818;stroke-width:0.9;" width="9" x="180" y="64.7209"/><rect fill="#FFFFFF" height="28.1619" style="stroke:#181818;stroke-width:0.9;" width="9" x="180" y="346.34"/><rect fill="#FFFFFF" height="71.5887" style="stroke:#181818;stroke-width:0.9;" width="9" x="372.6" y="92.8828"/><rect fill="#FFFFFF" height="28.1619" style="stroke:#181818;stroke-width:0.9;" width="9" x="372.6" y="318.1781"/><rect fill="#FFFFFF" height="28.1619" style="stroke:#181818;stroke-width:0.9;" width="9" x="575.1" y="164.4715"/><rect fill="#FFFFFF" height="97.3828" style="stroke:#181818;stroke-width:0.9;" width="9" x="575.1" y="220.7953"/><rect fill="#FFFFFF" height="28.1619" style="stroke:#181818;stroke-width:0.9;" width="9" x="1074.6" y="192.6334"/><polygon fill="#181818" points="169.2,61.1209,178.2,64.7209,169.2,68.3209,172.8,64.7209" style="stroke:#181818;stroke-width:0.9;"/><line style="stroke:#181818;stroke-width:0.9;" x1="0" x2="174.6" y1="64.7209" y2="64.7209"/><text fill="#000000" font-family="sans-serif" font-size="11.7" lengthAdjust="spacing" textLength="162.9" x="6.3" y="59.9845">GET(queryDataDto, authToken)</text><polygon fill="#181818" points="361.8,89.2828,370.8,92.8828,361.8,96.4828,365.4,92.8828" style="stroke:#181818;stroke-width:0.9;"/><line style="stroke:#181818;stroke-width:0.9;" x1="184.5" x2="367.2" y1="92.8828" y2="92.8828"/><text fill="#000000" font-family="sans-serif" font-size="11.7" lengthAdjust="spacing" textLength="166.5" x="190.8" y="88.1464">GET (queryDataDto, authToken)</text><rect fill="none" height="38.9268" style="stroke:#000000;stroke-width:1.35;" width="193.5" x="280.35" y="100.0828"/><path d="M280.35,100.0828 L336.15,100.0828 L336.15,108.1828 L327.15,117.1828 L280.35,117.1828 L280.35,100.0828 " fill="#EEEEEE" style="stroke:#000000;stroke-width:1.8;"/><text fill="#000000" font-family="sans-serif" font-size="11.7" font-weight="bold" lengthAdjust="spacing" textLength="15.3" x="292.05" y="114.5083">ref</text><text fill="#000000" font-family="sans-serif" font-size="10.8" lengthAdjust="spacing" textLength="155.7" x="299.25" y="132.4371">REFER TO GENERIC AUTH SD</text><polygon fill="#181818" points="564.3,160.8715,573.3,164.4715,564.3,168.0715,567.9,164.4715" style="stroke:#181818;stroke-width:0.9;"/><line style="stroke:#181818;stroke-width:0.9;" x1="377.1" x2="569.7" y1="164.4715" y2="164.4715"/><text fill="#000000" font-family="sans-serif" font-size="11.7" lengthAdjust="spacing" textLength="176.4" x="383.4" y="159.7351">getFilteredPatients(queryDataDto)</text><polygon fill="#181818" points="1063.8,189.0334,1072.8,192.6334,1063.8,196.2334,1067.4,192.6334" style="stroke:#181818;stroke-width:0.9;"/><line style="stroke:#181818;stroke-width:0.9;" x1="579.6" x2="1069.2" y1="192.6334" y2="192.6334"/><text fill="#000000" font-family="sans-serif" font-size="11.7" lengthAdjust="spacing" textLength="163.8" x="585.9" y="187.897">getFilterPatients(queryDataDto)</text><polygon fill="#181818" points="594,217.1953,585,220.7953,594,224.3953,590.4,220.7953" style="stroke:#181818;stroke-width:0.9;"/><line style="stroke:#181818;stroke-width:0.9;stroke-dasharray:2.0,2.0;" x1="588.6" x2="1078.2" y1="220.7953" y2="220.7953"/><text fill="#000000" font-family="sans-serif" font-size="11.7" lengthAdjust="spacing" textLength="43.2" x="599.4" y="216.0589">Patients</text><path d="M523.35,234.2953 L589.05,234.2953 L589.05,242.6572 L580.05,251.6572 L523.35,251.6572 L523.35,234.2953 " fill="#EEEEEE" style="stroke:#000000;stroke-width:1.35;"/><rect fill="none" height="56.6209" style="stroke:#000000;stroke-width:1.35;" width="227.7" x="523.35" y="234.2953"/><text fill="#000000" font-family="sans-serif" font-size="11.7" font-weight="bold" lengthAdjust="spacing" textLength="25.2" x="536.85" y="247.8208">loop</text><text fill="#000000" font-family="sans-serif" font-size="9.9" font-weight="bold" lengthAdjust="spacing" textLength="144" x="602.55" y="246.7784">[for every Patient in Patients]</text><polygon fill="#181818" points="634.5,269.0191,643.5,272.6191,634.5,276.2191,638.1,272.6191" style="stroke:#181818;stroke-width:0.9;"/><line style="stroke:#181818;stroke-width:0.9;" x1="584.1" x2="639.9" y1="272.6191" y2="272.6191"/><text fill="#000000" font-family="sans-serif" font-size="11.7" lengthAdjust="spacing" textLength="39.6" x="590.4" y="267.8827">create()</text><rect fill="#E2E2F0" height="29.359" rx="2.25" ry="2.25" style="stroke:#181818;stroke-width:0.45;" width="72" x="645.3" y="251.6572"/><text fill="#000000" font-family="sans-serif" font-size="12.6" lengthAdjust="spacing" textLength="59.4" x="651.6" y="271.5539">PatientDto</text><polygon fill="#181818" points="391.5,314.5781,382.5,318.1781,391.5,321.7781,387.9,318.1781" style="stroke:#181818;stroke-width:0.9;"/><line style="stroke:#181818;stroke-width:0.9;stroke-dasharray:2.0,2.0;" x1="386.1" x2="578.7" y1="318.1781" y2="318.1781"/><text fill="#000000" font-family="sans-serif" font-size="11.7" lengthAdjust="spacing" textLength="61.2" x="396.9" y="313.4417">PatientDtos</text><polygon fill="#181818" points="198.9,342.74,189.9,346.34,198.9,349.94,195.3,346.34" style="stroke:#181818;stroke-width:0.9;"/><line style="stroke:#181818;stroke-width:0.9;" x1="193.5" x2="376.2" y1="346.34" y2="346.34"/><text fill="#000000" font-family="sans-serif" font-size="11.7" lengthAdjust="spacing" textLength="61.2" x="204.3" y="341.6036">PatientDtos</text><polygon fill="#181818" points="9.9,370.902,0.9,374.502,9.9,378.102,6.3,374.502" style="stroke:#181818;stroke-width:0.9;"/><line style="stroke:#181818;stroke-width:0.9;stroke-dasharray:2.0,2.0;" x1="4.5" x2="183.6" y1="374.502" y2="374.502"/><text fill="#000000" font-family="sans-serif" font-size="11.7" lengthAdjust="spacing" textLength="61.2" x="15.3" y="369.7655">PatientDtos</text><!--SRC=[ZL9PJiCm4FttAUQphSW54492RGf8YA8a7C1AfyKYieCpYPJRCxQJPcbO_EMntp9-ur9QKhagfIP8J4rAdq5MO7cBeXnTxbL1QF7u9acXfXTLEUpMQBAcAD0wLawsc90wS8gsKJawI5tPjCcNG3ioa-FCVABkcDSNZ7PoOPyThW49bgPIP6phSDGVBJbFeToX1meHtOSSu1OUusprLQDjTv8aUz-0hEd36ws5a3cfHZ8mnCOhy5Z0HHBuy8l04MSIbz97Ql44fk6CVPN4-pY1xC2Yht7ol8M7z-m9qfr0VHJUZtr3pknyHfgDhfeqCdNt1fUg6vRen8Ai2sUi-m_LJcTSXuXxkMZSSIyub_2KgzuAOqeu6Gl80RKz6PGUT8RsXw-ssR1JRf6bLckN73YXuQd3w0PEjVIesQWk0-X_pa_qW9x_dBie-fCPeDy0]--></g></svg>