<?xml version="1.0" encoding="us-ascii" standalone="no"?><svg xmlns="http://www.w3.org/2000/svg" xmlns:xlink="http://www.w3.org/1999/xlink" contentStyleType="text/css" height="542px" preserveAspectRatio="none" style="width:2062px;height:542px;background:#FFFFFF;" version="1.1" viewBox="0 0 2062 542" width="2062px" zoomAndPan="magnify"><defs/><g><!--cluster PatientAggregate--><g id="cluster_PatientAggregate"><path d="M783.5,6 L906.5,6 A3.75,3.75 0 0 1 909,8.5 L916,29.6094 L1469.5,29.6094 A2.5,2.5 0 0 1 1472,32.1094 L1472,532.5 A2.5,2.5 0 0 1 1469.5,535 L783.5,535 A2.5,2.5 0 0 1 781,532.5 L781,8.5 A2.5,2.5 0 0 1 783.5,6 " fill="none" style="stroke:#000000;stroke-width:1.5;"/><line style="stroke:#000000;stroke-width:1.5;" x1="781" x2="916" y1="29.6094" y2="29.6094"/><text fill="#000000" font-family="sans-serif" font-size="14" font-weight="bold" lengthAdjust="spacing" textLength="122" x="785" y="22.5332">PatientAggregate</text></g><!--cluster MedicalConditionAggregate--><g id="cluster_MedicalConditionAggregate"><path d="M8.5,6 L205.5,6 A3.75,3.75 0 0 1 208,8.5 L215,29.6094 L754.5,29.6094 A2.5,2.5 0 0 1 757,32.1094 L757,233.5 A2.5,2.5 0 0 1 754.5,236 L8.5,236 A2.5,2.5 0 0 1 6,233.5 L6,8.5 A2.5,2.5 0 0 1 8.5,6 " fill="none" style="stroke:#000000;stroke-width:1.5;"/><line style="stroke:#000000;stroke-width:1.5;" x1="6" x2="215" y1="29.6094" y2="29.6094"/><text fill="#000000" font-family="sans-serif" font-size="14" font-weight="bold" lengthAdjust="spacing" textLength="196" x="10" y="22.5332">MedicalConditionAggregate</text></g><!--cluster AllergyAggregate--><g id="cluster_AllergyAggregate"><path d="M1498.5,6 L1620.5,6 A3.75,3.75 0 0 1 1623,8.5 L1630,29.6094 L2052.5,29.6094 A2.5,2.5 0 0 1 2055,32.1094 L2055,233.5 A2.5,2.5 0 0 1 2052.5,236 L1498.5,236 A2.5,2.5 0 0 1 1496,233.5 L1496,8.5 A2.5,2.5 0 0 1 1498.5,6 " fill="none" style="stroke:#000000;stroke-width:1.5;"/><line style="stroke:#000000;stroke-width:1.5;" x1="1496" x2="1630" y1="29.6094" y2="29.6094"/><text fill="#000000" font-family="sans-serif" font-size="14" font-weight="bold" lengthAdjust="spacing" textLength="121" x="1500" y="22.5332">AllergyAggregate</text></g><!--class Patient--><g id="elem_Patient"><rect codeLine="3" fill="#F1F1F1" height="58.7031" id="Patient" rx="2.5" ry="2.5" style="stroke:#181818;stroke-width:0.5;" width="101" x="1021.5" y="161"/><ellipse cx="1036.5" cy="182.3516" fill="#0099FF" rx="11" ry="11" style="stroke:#181818;stroke-width:1.0;"/><path d="M1035.3438,183.5078 L1035.3438,185.6484 L1035.9531,185.6484 Q1036.5781,185.6484 1036.8281,185.8828 Q1037.0938,186.1172 1037.0938,186.5078 Q1037.0938,186.8828 1036.8281,187.1172 Q1036.5781,187.3516 1035.9531,187.3516 L1033.375,187.3516 Q1032.7656,187.3516 1032.5,187.1172 Q1032.2344,186.8828 1032.2344,186.4922 Q1032.2344,186.1172 1032.5,185.8828 Q1032.7656,185.6484 1033.375,185.6484 L1033.6406,185.6484 L1033.6406,178.9922 L1033.375,178.9922 Q1032.7656,178.9922 1032.5,178.7578 Q1032.2344,178.5234 1032.2344,178.1328 Q1032.2344,177.7578 1032.5,177.5234 Q1032.7656,177.2891 1033.375,177.2891 L1037.2344,177.2891 Q1039.0313,177.2891 1040.0156,178.1797 Q1041.0156,179.0703 1041.0156,180.3516 Q1041.0156,181.1484 1040.5469,181.8047 Q1040.0781,182.4609 1039.1406,182.9609 Q1039.6875,183.4297 1040.2969,184.1797 Q1040.6875,184.6484 1041.3281,185.6484 Q1041.9844,185.6484 1042.1875,185.7891 Q1042.5625,186.0391 1042.5625,186.5078 Q1042.5625,186.8828 1042.2969,187.1172 Q1042.0469,187.3516 1041.4375,187.3516 L1040.4531,187.3516 Q1038.3906,184.1484 1037.0313,183.5078 L1035.3438,183.5078 Z M1035.3438,181.8047 L1036.6719,181.8047 Q1037.4063,181.8047 1038,181.5859 Q1038.7813,181.2891 1039.0469,180.9609 Q1039.3125,180.6172 1039.3125,180.2891 Q1039.3125,179.8203 1038.7969,179.4141 Q1038.2813,178.9922 1037.2969,178.9922 L1035.3438,178.9922 L1035.3438,181.8047 Z " fill="#000000"/><text fill="#000000" font-family="sans-serif" font-size="12" font-style="italic" lengthAdjust="spacing" textLength="73" x="1048.5" y="178.457">&#171;Root Entity&#187;</text><text fill="#000000" font-family="sans-serif" font-size="14" lengthAdjust="spacing" textLength="44" x="1063" y="195.627">Patient</text><line style="stroke:#181818;stroke-width:0.5;" x1="1022.5" x2="1121.5" y1="203.7031" y2="203.7031"/><line style="stroke:#181818;stroke-width:0.5;" x1="1022.5" x2="1121.5" y1="211.7031" y2="211.7031"/></g><!--class Gender--><g id="elem_Gender"><rect codeLine="5" fill="#F1F1F1" height="58.7031" id="Gender" rx="2.5" ry="2.5" style="stroke:#181818;stroke-width:0.5;" width="113" x="1342.5" y="42"/><ellipse cx="1357.5" cy="63.3516" fill="#F04800" rx="11" ry="11" style="stroke:#181818;stroke-width:1.0;"/><path d="M1358.0938,66.6172 L1360.5625,60.7422 L1360.1719,60.7422 Q1359.5625,60.7422 1359.2969,60.5078 Q1359.0313,60.2734 1359.0313,59.8828 Q1359.0313,59.5078 1359.2969,59.2734 Q1359.5625,59.0391 1360.1719,59.0391 L1362.4531,59.0391 Q1363.0625,59.0391 1363.3281,59.2734 Q1363.5938,59.5078 1363.5938,59.8828 Q1363.5938,60.3516 1363.1875,60.6172 Q1363,60.7422 1362.4063,60.7422 L1358.9219,69.1016 L1357.2813,69.1016 L1353.7969,60.7422 Q1353.2031,60.7422 1353.0156,60.6172 Q1352.6094,60.3516 1352.6094,59.8828 Q1352.6094,59.5078 1352.875,59.2734 Q1353.1406,59.0391 1353.75,59.0391 L1356.0469,59.0391 Q1356.6563,59.0391 1356.9063,59.2734 Q1357.1719,59.5078 1357.1719,59.8828 Q1357.1719,60.2734 1356.9063,60.5078 Q1356.6563,60.7422 1356.0469,60.7422 L1355.6406,60.7422 L1358.0938,66.6172 Z " fill="#000000"/><text fill="#000000" font-family="sans-serif" font-size="12" font-style="italic" lengthAdjust="spacing" textLength="85" x="1369.5" y="59.457">&#171;Value Object&#187;</text><text fill="#000000" font-family="sans-serif" font-size="14" lengthAdjust="spacing" textLength="48" x="1388" y="76.627">Gender</text><line style="stroke:#181818;stroke-width:0.5;" x1="1343.5" x2="1454.5" y1="84.7031" y2="84.7031"/><line style="stroke:#181818;stroke-width:0.5;" x1="1343.5" x2="1454.5" y1="92.7031" y2="92.7031"/></g><!--class MedicalRecordNumber--><g id="elem_MedicalRecordNumber"><rect codeLine="6" fill="#F1F1F1" height="58.7031" id="MedicalRecordNumber" rx="2.5" ry="2.5" style="stroke:#181818;stroke-width:0.5;" width="175" x="1132.5" y="42"/><ellipse cx="1147.5" cy="63.3516" fill="#F09800" rx="11" ry="11" style="stroke:#181818;stroke-width:1.0;"/><path d="M1148.0938,66.6172 L1150.5625,60.7422 L1150.1719,60.7422 Q1149.5625,60.7422 1149.2969,60.5078 Q1149.0313,60.2734 1149.0313,59.8828 Q1149.0313,59.5078 1149.2969,59.2734 Q1149.5625,59.0391 1150.1719,59.0391 L1152.4531,59.0391 Q1153.0625,59.0391 1153.3281,59.2734 Q1153.5938,59.5078 1153.5938,59.8828 Q1153.5938,60.3516 1153.1875,60.6172 Q1153,60.7422 1152.4063,60.7422 L1148.9219,69.1016 L1147.2813,69.1016 L1143.7969,60.7422 Q1143.2031,60.7422 1143.0156,60.6172 Q1142.6094,60.3516 1142.6094,59.8828 Q1142.6094,59.5078 1142.875,59.2734 Q1143.1406,59.0391 1143.75,59.0391 L1146.0469,59.0391 Q1146.6563,59.0391 1146.9063,59.2734 Q1147.1719,59.5078 1147.1719,59.8828 Q1147.1719,60.2734 1146.9063,60.5078 Q1146.6563,60.7422 1146.0469,60.7422 L1145.6406,60.7422 L1148.0938,66.6172 Z " fill="#000000"/><text fill="#000000" font-family="sans-serif" font-size="12" font-style="italic" lengthAdjust="spacing" textLength="105" x="1180.5" y="59.457">&#171;Unique Identifier&#187;</text><text fill="#000000" font-family="sans-serif" font-size="14" lengthAdjust="spacing" textLength="143" x="1161.5" y="76.627">MedicalRecordNumber</text><line style="stroke:#181818;stroke-width:0.5;" x1="1133.5" x2="1306.5" y1="84.7031" y2="84.7031"/><line style="stroke:#181818;stroke-width:0.5;" x1="1133.5" x2="1306.5" y1="92.7031" y2="92.7031"/></g><!--class DateOfBirth--><g id="elem_DateOfBirth"><rect codeLine="7" fill="#F1F1F1" height="58.7031" id="DateOfBirth" rx="2.5" ry="2.5" style="stroke:#181818;stroke-width:0.5;" width="113" x="984.5" y="42"/><ellipse cx="999.5" cy="63.3516" fill="#F04800" rx="11" ry="11" style="stroke:#181818;stroke-width:1.0;"/><path d="M1000.0938,66.6172 L1002.5625,60.7422 L1002.1719,60.7422 Q1001.5625,60.7422 1001.2969,60.5078 Q1001.0313,60.2734 1001.0313,59.8828 Q1001.0313,59.5078 1001.2969,59.2734 Q1001.5625,59.0391 1002.1719,59.0391 L1004.4531,59.0391 Q1005.0625,59.0391 1005.3281,59.2734 Q1005.5938,59.5078 1005.5938,59.8828 Q1005.5938,60.3516 1005.1875,60.6172 Q1005,60.7422 1004.4063,60.7422 L1000.9219,69.1016 L999.2813,69.1016 L995.7969,60.7422 Q995.2031,60.7422 995.0156,60.6172 Q994.6094,60.3516 994.6094,59.8828 Q994.6094,59.5078 994.875,59.2734 Q995.1406,59.0391 995.75,59.0391 L998.0469,59.0391 Q998.6563,59.0391 998.9063,59.2734 Q999.1719,59.5078 999.1719,59.8828 Q999.1719,60.2734 998.9063,60.5078 Q998.6563,60.7422 998.0469,60.7422 L997.6406,60.7422 L1000.0938,66.6172 Z " fill="#000000"/><text fill="#000000" font-family="sans-serif" font-size="12" font-style="italic" lengthAdjust="spacing" textLength="85" x="1011.5" y="59.457">&#171;Value Object&#187;</text><text fill="#000000" font-family="sans-serif" font-size="14" lengthAdjust="spacing" textLength="74" x="1017" y="76.627">DateOfBirth</text><line style="stroke:#181818;stroke-width:0.5;" x1="985.5" x2="1096.5" y1="84.7031" y2="84.7031"/><line style="stroke:#181818;stroke-width:0.5;" x1="985.5" x2="1096.5" y1="92.7031" y2="92.7031"/></g><!--class EmergencyContact--><g id="elem_EmergencyContact"><rect codeLine="8" fill="#F1F1F1" height="58.7031" id="EmergencyContact" rx="2.5" ry="2.5" style="stroke:#181818;stroke-width:0.5;" width="152" x="797" y="42"/><ellipse cx="812" cy="63.3516" fill="#F04800" rx="11" ry="11" style="stroke:#181818;stroke-width:1.0;"/><path d="M812.5938,66.6172 L815.0625,60.7422 L814.6719,60.7422 Q814.0625,60.7422 813.7969,60.5078 Q813.5313,60.2734 813.5313,59.8828 Q813.5313,59.5078 813.7969,59.2734 Q814.0625,59.0391 814.6719,59.0391 L816.9531,59.0391 Q817.5625,59.0391 817.8281,59.2734 Q818.0938,59.5078 818.0938,59.8828 Q818.0938,60.3516 817.6875,60.6172 Q817.5,60.7422 816.9063,60.7422 L813.4219,69.1016 L811.7813,69.1016 L808.2969,60.7422 Q807.7031,60.7422 807.5156,60.6172 Q807.1094,60.3516 807.1094,59.8828 Q807.1094,59.5078 807.375,59.2734 Q807.6406,59.0391 808.25,59.0391 L810.5469,59.0391 Q811.1563,59.0391 811.4063,59.2734 Q811.6719,59.5078 811.6719,59.8828 Q811.6719,60.2734 811.4063,60.5078 Q811.1563,60.7422 810.5469,60.7422 L810.1406,60.7422 L812.5938,66.6172 Z " fill="#000000"/><text fill="#000000" font-family="sans-serif" font-size="12" font-style="italic" lengthAdjust="spacing" textLength="85" x="843.5" y="59.457">&#171;Value Object&#187;</text><text fill="#000000" font-family="sans-serif" font-size="14" lengthAdjust="spacing" textLength="120" x="826" y="76.627">EmergencyContact</text><line style="stroke:#181818;stroke-width:0.5;" x1="798" x2="948" y1="84.7031" y2="84.7031"/><line style="stroke:#181818;stroke-width:0.5;" x1="798" x2="948" y1="92.7031" y2="92.7031"/></g><!--class EmailAddress--><g id="elem_EmailAddress"><rect codeLine="9" fill="#F1F1F1" height="58.7031" id="EmailAddress" rx="2.5" ry="2.5" style="stroke:#181818;stroke-width:0.5;" width="118" x="806" y="460"/><ellipse cx="821" cy="481.3516" fill="#F04800" rx="11" ry="11" style="stroke:#181818;stroke-width:1.0;"/><path d="M821.5938,484.6172 L824.0625,478.7422 L823.6719,478.7422 Q823.0625,478.7422 822.7969,478.5078 Q822.5313,478.2734 822.5313,477.8828 Q822.5313,477.5078 822.7969,477.2734 Q823.0625,477.0391 823.6719,477.0391 L825.9531,477.0391 Q826.5625,477.0391 826.8281,477.2734 Q827.0938,477.5078 827.0938,477.8828 Q827.0938,478.3516 826.6875,478.6172 Q826.5,478.7422 825.9063,478.7422 L822.4219,487.1016 L820.7813,487.1016 L817.2969,478.7422 Q816.7031,478.7422 816.5156,478.6172 Q816.1094,478.3516 816.1094,477.8828 Q816.1094,477.5078 816.375,477.2734 Q816.6406,477.0391 817.25,477.0391 L819.5469,477.0391 Q820.1563,477.0391 820.4063,477.2734 Q820.6719,477.5078 820.6719,477.8828 Q820.6719,478.2734 820.4063,478.5078 Q820.1563,478.7422 819.5469,478.7422 L819.1406,478.7422 L821.5938,484.6172 Z " fill="#000000"/><text fill="#000000" font-family="sans-serif" font-size="12" font-style="italic" lengthAdjust="spacing" textLength="85" x="835.5" y="477.457">&#171;Value Object&#187;</text><text fill="#000000" font-family="sans-serif" font-size="14" lengthAdjust="spacing" textLength="86" x="835" y="494.627">EmailAddress</text><line style="stroke:#181818;stroke-width:0.5;" x1="807" x2="923" y1="502.7031" y2="502.7031"/><line style="stroke:#181818;stroke-width:0.5;" x1="807" x2="923" y1="510.7031" y2="510.7031"/></g><!--class PhoneNumber--><g id="elem_PhoneNumber"><rect codeLine="10" fill="#F1F1F1" height="58.7031" id="PhoneNumber" rx="2.5" ry="2.5" style="stroke:#181818;stroke-width:0.5;" width="122" x="959" y="460"/><ellipse cx="974" cy="481.3516" fill="#F04800" rx="11" ry="11" style="stroke:#181818;stroke-width:1.0;"/><path d="M974.5938,484.6172 L977.0625,478.7422 L976.6719,478.7422 Q976.0625,478.7422 975.7969,478.5078 Q975.5313,478.2734 975.5313,477.8828 Q975.5313,477.5078 975.7969,477.2734 Q976.0625,477.0391 976.6719,477.0391 L978.9531,477.0391 Q979.5625,477.0391 979.8281,477.2734 Q980.0938,477.5078 980.0938,477.8828 Q980.0938,478.3516 979.6875,478.6172 Q979.5,478.7422 978.9063,478.7422 L975.4219,487.1016 L973.7813,487.1016 L970.2969,478.7422 Q969.7031,478.7422 969.5156,478.6172 Q969.1094,478.3516 969.1094,477.8828 Q969.1094,477.5078 969.375,477.2734 Q969.6406,477.0391 970.25,477.0391 L972.5469,477.0391 Q973.1563,477.0391 973.4063,477.2734 Q973.6719,477.5078 973.6719,477.8828 Q973.6719,478.2734 973.4063,478.5078 Q973.1563,478.7422 972.5469,478.7422 L972.1406,478.7422 L974.5938,484.6172 Z " fill="#000000"/><text fill="#000000" font-family="sans-serif" font-size="12" font-style="italic" lengthAdjust="spacing" textLength="85" x="990.5" y="477.457">&#171;Value Object&#187;</text><text fill="#000000" font-family="sans-serif" font-size="14" lengthAdjust="spacing" textLength="90" x="988" y="494.627">PhoneNumber</text><line style="stroke:#181818;stroke-width:0.5;" x1="960" x2="1080" y1="502.7031" y2="502.7031"/><line style="stroke:#181818;stroke-width:0.5;" x1="960" x2="1080" y1="510.7031" y2="510.7031"/></g><!--class ContactInformation--><g id="elem_ContactInformation"><rect codeLine="12" fill="#F1F1F1" height="58.7031" id="ContactInformation" rx="2.5" ry="2.5" style="stroke:#181818;stroke-width:0.5;" width="151" x="829.5" y="280"/><ellipse cx="844.5" cy="301.3516" fill="#ADD1B2" rx="11" ry="11" style="stroke:#181818;stroke-width:1.0;"/><path d="M843.3594,302.1484 L843.3594,304.6484 L847.6875,304.6484 L847.6875,303.7266 Q847.6875,303.1172 847.9219,302.8516 Q848.1719,302.5859 848.5469,302.5859 Q848.9219,302.5859 849.1563,302.8516 Q849.3906,303.1172 849.3906,303.7266 L849.3906,306.3516 L841.3906,306.3516 Q840.7656,306.3516 840.5,306.1172 Q840.25,305.8828 840.25,305.4922 Q840.25,305.1172 840.5156,304.8828 Q840.7813,304.6484 841.3906,304.6484 L841.6563,304.6484 L841.6563,297.9922 L841.3906,297.9922 Q840.7656,297.9922 840.5,297.7578 Q840.25,297.5234 840.25,297.1328 Q840.25,296.7578 840.5,296.5234 Q840.7656,296.2891 841.3906,296.2891 L849.0156,296.2891 L849.0156,298.8828 Q849.0156,299.4922 848.7813,299.7578 Q848.5625,300.0078 848.1719,300.0078 Q847.7969,300.0078 847.5625,299.7578 Q847.3281,299.4922 847.3281,298.8828 L847.3281,297.9922 L843.3594,297.9922 L843.3594,300.4453 L844.8438,300.4453 Q844.8438,299.7891 844.9688,299.6016 Q845.2344,299.1953 845.7031,299.1953 Q846.0781,299.1953 846.3125,299.4609 Q846.5469,299.7109 846.5469,300.3203 L846.5469,302.2891 Q846.5469,302.8359 846.4219,303.0234 Q846.1563,303.4141 845.7031,303.4141 Q845.2344,303.4141 844.9688,303.0078 Q844.8438,302.8203 844.8438,302.1484 L843.3594,302.1484 Z " fill="#000000"/><text fill="#000000" font-family="sans-serif" font-size="12" font-style="italic" lengthAdjust="spacing" textLength="44" x="896" y="297.457">&#171;Entity&#187;</text><text fill="#000000" font-family="sans-serif" font-size="14" lengthAdjust="spacing" textLength="119" x="858.5" y="314.627">ContactInformation</text><line style="stroke:#181818;stroke-width:0.5;" x1="830.5" x2="979.5" y1="322.7031" y2="322.7031"/><line style="stroke:#181818;stroke-width:0.5;" x1="830.5" x2="979.5" y1="330.7031" y2="330.7031"/></g><!--class FirstName--><g id="elem_FirstName"><rect codeLine="14" fill="#F1F1F1" height="58.7031" id="FirstName" rx="2.5" ry="2.5" style="stroke:#181818;stroke-width:0.5;" width="113" x="1015.5" y="280"/><ellipse cx="1030.5" cy="301.3516" fill="#F04800" rx="11" ry="11" style="stroke:#181818;stroke-width:1.0;"/><path d="M1031.0938,304.6172 L1033.5625,298.7422 L1033.1719,298.7422 Q1032.5625,298.7422 1032.2969,298.5078 Q1032.0313,298.2734 1032.0313,297.8828 Q1032.0313,297.5078 1032.2969,297.2734 Q1032.5625,297.0391 1033.1719,297.0391 L1035.4531,297.0391 Q1036.0625,297.0391 1036.3281,297.2734 Q1036.5938,297.5078 1036.5938,297.8828 Q1036.5938,298.3516 1036.1875,298.6172 Q1036,298.7422 1035.4063,298.7422 L1031.9219,307.1016 L1030.2813,307.1016 L1026.7969,298.7422 Q1026.2031,298.7422 1026.0156,298.6172 Q1025.6094,298.3516 1025.6094,297.8828 Q1025.6094,297.5078 1025.875,297.2734 Q1026.1406,297.0391 1026.75,297.0391 L1029.0469,297.0391 Q1029.6563,297.0391 1029.9063,297.2734 Q1030.1719,297.5078 1030.1719,297.8828 Q1030.1719,298.2734 1029.9063,298.5078 Q1029.6563,298.7422 1029.0469,298.7422 L1028.6406,298.7422 L1031.0938,304.6172 Z " fill="#000000"/><text fill="#000000" font-family="sans-serif" font-size="12" font-style="italic" lengthAdjust="spacing" textLength="85" x="1042.5" y="297.457">&#171;Value Object&#187;</text><text fill="#000000" font-family="sans-serif" font-size="14" lengthAdjust="spacing" textLength="64" x="1053" y="314.627">FirstName</text><line style="stroke:#181818;stroke-width:0.5;" x1="1016.5" x2="1127.5" y1="322.7031" y2="322.7031"/><line style="stroke:#181818;stroke-width:0.5;" x1="1016.5" x2="1127.5" y1="330.7031" y2="330.7031"/></g><!--class LastName--><g id="elem_LastName"><rect codeLine="15" fill="#F1F1F1" height="58.7031" id="LastName" rx="2.5" ry="2.5" style="stroke:#181818;stroke-width:0.5;" width="113" x="1163.5" y="280"/><ellipse cx="1178.5" cy="301.3516" fill="#F04800" rx="11" ry="11" style="stroke:#181818;stroke-width:1.0;"/><path d="M1179.0938,304.6172 L1181.5625,298.7422 L1181.1719,298.7422 Q1180.5625,298.7422 1180.2969,298.5078 Q1180.0313,298.2734 1180.0313,297.8828 Q1180.0313,297.5078 1180.2969,297.2734 Q1180.5625,297.0391 1181.1719,297.0391 L1183.4531,297.0391 Q1184.0625,297.0391 1184.3281,297.2734 Q1184.5938,297.5078 1184.5938,297.8828 Q1184.5938,298.3516 1184.1875,298.6172 Q1184,298.7422 1183.4063,298.7422 L1179.9219,307.1016 L1178.2813,307.1016 L1174.7969,298.7422 Q1174.2031,298.7422 1174.0156,298.6172 Q1173.6094,298.3516 1173.6094,297.8828 Q1173.6094,297.5078 1173.875,297.2734 Q1174.1406,297.0391 1174.75,297.0391 L1177.0469,297.0391 Q1177.6563,297.0391 1177.9063,297.2734 Q1178.1719,297.5078 1178.1719,297.8828 Q1178.1719,298.2734 1177.9063,298.5078 Q1177.6563,298.7422 1177.0469,298.7422 L1176.6406,298.7422 L1179.0938,304.6172 Z " fill="#000000"/><text fill="#000000" font-family="sans-serif" font-size="12" font-style="italic" lengthAdjust="spacing" textLength="85" x="1190.5" y="297.457">&#171;Value Object&#187;</text><text fill="#000000" font-family="sans-serif" font-size="14" lengthAdjust="spacing" textLength="63" x="1201.5" y="314.627">LastName</text><line style="stroke:#181818;stroke-width:0.5;" x1="1164.5" x2="1275.5" y1="322.7031" y2="322.7031"/><line style="stroke:#181818;stroke-width:0.5;" x1="1164.5" x2="1275.5" y1="330.7031" y2="330.7031"/></g><!--class FullName--><g id="elem_FullName"><rect codeLine="16" fill="#F1F1F1" height="58.7031" id="FullName" rx="2.5" ry="2.5" style="stroke:#181818;stroke-width:0.5;" width="113" x="1311.5" y="280"/><ellipse cx="1326.5" cy="301.3516" fill="#F04800" rx="11" ry="11" style="stroke:#181818;stroke-width:1.0;"/><path d="M1327.0938,304.6172 L1329.5625,298.7422 L1329.1719,298.7422 Q1328.5625,298.7422 1328.2969,298.5078 Q1328.0313,298.2734 1328.0313,297.8828 Q1328.0313,297.5078 1328.2969,297.2734 Q1328.5625,297.0391 1329.1719,297.0391 L1331.4531,297.0391 Q1332.0625,297.0391 1332.3281,297.2734 Q1332.5938,297.5078 1332.5938,297.8828 Q1332.5938,298.3516 1332.1875,298.6172 Q1332,298.7422 1331.4063,298.7422 L1327.9219,307.1016 L1326.2813,307.1016 L1322.7969,298.7422 Q1322.2031,298.7422 1322.0156,298.6172 Q1321.6094,298.3516 1321.6094,297.8828 Q1321.6094,297.5078 1321.875,297.2734 Q1322.1406,297.0391 1322.75,297.0391 L1325.0469,297.0391 Q1325.6563,297.0391 1325.9063,297.2734 Q1326.1719,297.5078 1326.1719,297.8828 Q1326.1719,298.2734 1325.9063,298.5078 Q1325.6563,298.7422 1325.0469,298.7422 L1324.6406,298.7422 L1327.0938,304.6172 Z " fill="#000000"/><text fill="#000000" font-family="sans-serif" font-size="12" font-style="italic" lengthAdjust="spacing" textLength="85" x="1338.5" y="297.457">&#171;Value Object&#187;</text><text fill="#000000" font-family="sans-serif" font-size="14" lengthAdjust="spacing" textLength="59" x="1351.5" y="314.627">FullName</text><line style="stroke:#181818;stroke-width:0.5;" x1="1312.5" x2="1423.5" y1="322.7031" y2="322.7031"/><line style="stroke:#181818;stroke-width:0.5;" x1="1312.5" x2="1423.5" y1="330.7031" y2="330.7031"/></g><!--class MedicalCondition--><g id="elem_MedicalCondition"><rect codeLine="32" fill="#F1F1F1" height="58.7031" id="MedicalCondition" rx="2.5" ry="2.5" style="stroke:#181818;stroke-width:0.5;" width="140" x="397" y="42"/><ellipse cx="412" cy="63.3516" fill="#0099FF" rx="11" ry="11" style="stroke:#181818;stroke-width:1.0;"/><path d="M410.8438,64.5078 L410.8438,66.6484 L411.4531,66.6484 Q412.0781,66.6484 412.3281,66.8828 Q412.5938,67.1172 412.5938,67.5078 Q412.5938,67.8828 412.3281,68.1172 Q412.0781,68.3516 411.4531,68.3516 L408.875,68.3516 Q408.2656,68.3516 408,68.1172 Q407.7344,67.8828 407.7344,67.4922 Q407.7344,67.1172 408,66.8828 Q408.2656,66.6484 408.875,66.6484 L409.1406,66.6484 L409.1406,59.9922 L408.875,59.9922 Q408.2656,59.9922 408,59.7578 Q407.7344,59.5234 407.7344,59.1328 Q407.7344,58.7578 408,58.5234 Q408.2656,58.2891 408.875,58.2891 L412.7344,58.2891 Q414.5313,58.2891 415.5156,59.1797 Q416.5156,60.0703 416.5156,61.3516 Q416.5156,62.1484 416.0469,62.8047 Q415.5781,63.4609 414.6406,63.9609 Q415.1875,64.4297 415.7969,65.1797 Q416.1875,65.6484 416.8281,66.6484 Q417.4844,66.6484 417.6875,66.7891 Q418.0625,67.0391 418.0625,67.5078 Q418.0625,67.8828 417.7969,68.1172 Q417.5469,68.3516 416.9375,68.3516 L415.9531,68.3516 Q413.8906,65.1484 412.5313,64.5078 L410.8438,64.5078 Z M410.8438,62.8047 L412.1719,62.8047 Q412.9063,62.8047 413.5,62.5859 Q414.2813,62.2891 414.5469,61.9609 Q414.8125,61.6172 414.8125,61.2891 Q414.8125,60.8203 414.2969,60.4141 Q413.7813,59.9922 412.7969,59.9922 L410.8438,59.9922 L410.8438,62.8047 Z " fill="#000000"/><text fill="#000000" font-family="sans-serif" font-size="12" font-style="italic" lengthAdjust="spacing" textLength="73" x="443.5" y="59.457">&#171;Root Entity&#187;</text><text fill="#000000" font-family="sans-serif" font-size="14" lengthAdjust="spacing" textLength="108" x="426" y="76.627">MedicalCondition</text><line style="stroke:#181818;stroke-width:0.5;" x1="398" x2="536" y1="84.7031" y2="84.7031"/><line style="stroke:#181818;stroke-width:0.5;" x1="398" x2="536" y1="92.7031" y2="92.7031"/></g><!--class ConditionCode--><g id="elem_ConditionCode"><rect codeLine="34" fill="#F1F1F1" height="58.7031" id="ConditionCode" rx="2.5" ry="2.5" style="stroke:#181818;stroke-width:0.5;" width="126" x="22" y="161"/><ellipse cx="37" cy="182.3516" fill="#F04800" rx="11" ry="11" style="stroke:#181818;stroke-width:1.0;"/><path d="M37.5938,185.6172 L40.0625,179.7422 L39.6719,179.7422 Q39.0625,179.7422 38.7969,179.5078 Q38.5313,179.2734 38.5313,178.8828 Q38.5313,178.5078 38.7969,178.2734 Q39.0625,178.0391 39.6719,178.0391 L41.9531,178.0391 Q42.5625,178.0391 42.8281,178.2734 Q43.0938,178.5078 43.0938,178.8828 Q43.0938,179.3516 42.6875,179.6172 Q42.5,179.7422 41.9063,179.7422 L38.4219,188.1016 L36.7813,188.1016 L33.2969,179.7422 Q32.7031,179.7422 32.5156,179.6172 Q32.1094,179.3516 32.1094,178.8828 Q32.1094,178.5078 32.375,178.2734 Q32.6406,178.0391 33.25,178.0391 L35.5469,178.0391 Q36.1563,178.0391 36.4063,178.2734 Q36.6719,178.5078 36.6719,178.8828 Q36.6719,179.2734 36.4063,179.5078 Q36.1563,179.7422 35.5469,179.7422 L35.1406,179.7422 L37.5938,185.6172 Z " fill="#000000"/><text fill="#000000" font-family="sans-serif" font-size="12" font-style="italic" lengthAdjust="spacing" textLength="85" x="55.5" y="178.457">&#171;Value Object&#187;</text><text fill="#000000" font-family="sans-serif" font-size="14" lengthAdjust="spacing" textLength="94" x="51" y="195.627">ConditionCode</text><line style="stroke:#181818;stroke-width:0.5;" x1="23" x2="147" y1="203.7031" y2="203.7031"/><line style="stroke:#181818;stroke-width:0.5;" x1="23" x2="147" y1="211.7031" y2="211.7031"/></g><!--class ConditionDesignation--><g id="elem_ConditionDesignation"><rect codeLine="35" fill="#F1F1F1" height="58.7031" id="ConditionDesignation" rx="2.5" ry="2.5" style="stroke:#181818;stroke-width:0.5;" width="167" x="183.5" y="161"/><ellipse cx="198.5" cy="182.3516" fill="#F04800" rx="11" ry="11" style="stroke:#181818;stroke-width:1.0;"/><path d="M199.0938,185.6172 L201.5625,179.7422 L201.1719,179.7422 Q200.5625,179.7422 200.2969,179.5078 Q200.0313,179.2734 200.0313,178.8828 Q200.0313,178.5078 200.2969,178.2734 Q200.5625,178.0391 201.1719,178.0391 L203.4531,178.0391 Q204.0625,178.0391 204.3281,178.2734 Q204.5938,178.5078 204.5938,178.8828 Q204.5938,179.3516 204.1875,179.6172 Q204,179.7422 203.4063,179.7422 L199.9219,188.1016 L198.2813,188.1016 L194.7969,179.7422 Q194.2031,179.7422 194.0156,179.6172 Q193.6094,179.3516 193.6094,178.8828 Q193.6094,178.5078 193.875,178.2734 Q194.1406,178.0391 194.75,178.0391 L197.0469,178.0391 Q197.6563,178.0391 197.9063,178.2734 Q198.1719,178.5078 198.1719,178.8828 Q198.1719,179.2734 197.9063,179.5078 Q197.6563,179.7422 197.0469,179.7422 L196.6406,179.7422 L199.0938,185.6172 Z " fill="#000000"/><text fill="#000000" font-family="sans-serif" font-size="12" font-style="italic" lengthAdjust="spacing" textLength="85" x="237.5" y="178.457">&#171;Value Object&#187;</text><text fill="#000000" font-family="sans-serif" font-size="14" lengthAdjust="spacing" textLength="135" x="212.5" y="195.627">ConditionDesignation</text><line style="stroke:#181818;stroke-width:0.5;" x1="184.5" x2="349.5" y1="203.7031" y2="203.7031"/><line style="stroke:#181818;stroke-width:0.5;" x1="184.5" x2="349.5" y1="211.7031" y2="211.7031"/></g><!--class ConditionDescription--><g id="elem_ConditionDescription"><rect codeLine="36" fill="#F1F1F1" height="58.7031" id="ConditionDescription" rx="2.5" ry="2.5" style="stroke:#181818;stroke-width:0.5;" width="163" x="385.5" y="161"/><ellipse cx="400.5" cy="182.3516" fill="#F04800" rx="11" ry="11" style="stroke:#181818;stroke-width:1.0;"/><path d="M401.0938,185.6172 L403.5625,179.7422 L403.1719,179.7422 Q402.5625,179.7422 402.2969,179.5078 Q402.0313,179.2734 402.0313,178.8828 Q402.0313,178.5078 402.2969,178.2734 Q402.5625,178.0391 403.1719,178.0391 L405.4531,178.0391 Q406.0625,178.0391 406.3281,178.2734 Q406.5938,178.5078 406.5938,178.8828 Q406.5938,179.3516 406.1875,179.6172 Q406,179.7422 405.4063,179.7422 L401.9219,188.1016 L400.2813,188.1016 L396.7969,179.7422 Q396.2031,179.7422 396.0156,179.6172 Q395.6094,179.3516 395.6094,178.8828 Q395.6094,178.5078 395.875,178.2734 Q396.1406,178.0391 396.75,178.0391 L399.0469,178.0391 Q399.6563,178.0391 399.9063,178.2734 Q400.1719,178.5078 400.1719,178.8828 Q400.1719,179.2734 399.9063,179.5078 Q399.6563,179.7422 399.0469,179.7422 L398.6406,179.7422 L401.0938,185.6172 Z " fill="#000000"/><text fill="#000000" font-family="sans-serif" font-size="12" font-style="italic" lengthAdjust="spacing" textLength="85" x="437.5" y="178.457">&#171;Value Object&#187;</text><text fill="#000000" font-family="sans-serif" font-size="14" lengthAdjust="spacing" textLength="131" x="414.5" y="195.627">ConditionDescription</text><line style="stroke:#181818;stroke-width:0.5;" x1="386.5" x2="547.5" y1="203.7031" y2="203.7031"/><line style="stroke:#181818;stroke-width:0.5;" x1="386.5" x2="547.5" y1="211.7031" y2="211.7031"/></g><!--class ConditionSymptoms--><g id="elem_ConditionSymptoms"><rect codeLine="37" fill="#F1F1F1" height="58.7031" id="ConditionSymptoms" rx="2.5" ry="2.5" style="stroke:#181818;stroke-width:0.5;" width="157" x="583.5" y="161"/><ellipse cx="598.5" cy="182.3516" fill="#F04800" rx="11" ry="11" style="stroke:#181818;stroke-width:1.0;"/><path d="M599.0938,185.6172 L601.5625,179.7422 L601.1719,179.7422 Q600.5625,179.7422 600.2969,179.5078 Q600.0313,179.2734 600.0313,178.8828 Q600.0313,178.5078 600.2969,178.2734 Q600.5625,178.0391 601.1719,178.0391 L603.4531,178.0391 Q604.0625,178.0391 604.3281,178.2734 Q604.5938,178.5078 604.5938,178.8828 Q604.5938,179.3516 604.1875,179.6172 Q604,179.7422 603.4063,179.7422 L599.9219,188.1016 L598.2813,188.1016 L594.7969,179.7422 Q594.2031,179.7422 594.0156,179.6172 Q593.6094,179.3516 593.6094,178.8828 Q593.6094,178.5078 593.875,178.2734 Q594.1406,178.0391 594.75,178.0391 L597.0469,178.0391 Q597.6563,178.0391 597.9063,178.2734 Q598.1719,178.5078 598.1719,178.8828 Q598.1719,179.2734 597.9063,179.5078 Q597.6563,179.7422 597.0469,179.7422 L596.6406,179.7422 L599.0938,185.6172 Z " fill="#000000"/><text fill="#000000" font-family="sans-serif" font-size="12" font-style="italic" lengthAdjust="spacing" textLength="85" x="632.5" y="178.457">&#171;Value Object&#187;</text><text fill="#000000" font-family="sans-serif" font-size="14" lengthAdjust="spacing" textLength="125" x="612.5" y="195.627">ConditionSymptoms</text><line style="stroke:#181818;stroke-width:0.5;" x1="584.5" x2="739.5" y1="203.7031" y2="203.7031"/><line style="stroke:#181818;stroke-width:0.5;" x1="584.5" x2="739.5" y1="211.7031" y2="211.7031"/></g><!--class Allergy--><g id="elem_Allergy"><rect codeLine="47" fill="#F1F1F1" height="58.7031" id="Allergy" rx="2.5" ry="2.5" style="stroke:#181818;stroke-width:0.5;" width="101" x="1615.5" y="42"/><ellipse cx="1630.5" cy="63.3516" fill="#0099FF" rx="11" ry="11" style="stroke:#181818;stroke-width:1.0;"/><path d="M1629.3438,64.5078 L1629.3438,66.6484 L1629.9531,66.6484 Q1630.5781,66.6484 1630.8281,66.8828 Q1631.0938,67.1172 1631.0938,67.5078 Q1631.0938,67.8828 1630.8281,68.1172 Q1630.5781,68.3516 1629.9531,68.3516 L1627.375,68.3516 Q1626.7656,68.3516 1626.5,68.1172 Q1626.2344,67.8828 1626.2344,67.4922 Q1626.2344,67.1172 1626.5,66.8828 Q1626.7656,66.6484 1627.375,66.6484 L1627.6406,66.6484 L1627.6406,59.9922 L1627.375,59.9922 Q1626.7656,59.9922 1626.5,59.7578 Q1626.2344,59.5234 1626.2344,59.1328 Q1626.2344,58.7578 1626.5,58.5234 Q1626.7656,58.2891 1627.375,58.2891 L1631.2344,58.2891 Q1633.0313,58.2891 1634.0156,59.1797 Q1635.0156,60.0703 1635.0156,61.3516 Q1635.0156,62.1484 1634.5469,62.8047 Q1634.0781,63.4609 1633.1406,63.9609 Q1633.6875,64.4297 1634.2969,65.1797 Q1634.6875,65.6484 1635.3281,66.6484 Q1635.9844,66.6484 1636.1875,66.7891 Q1636.5625,67.0391 1636.5625,67.5078 Q1636.5625,67.8828 1636.2969,68.1172 Q1636.0469,68.3516 1635.4375,68.3516 L1634.4531,68.3516 Q1632.3906,65.1484 1631.0313,64.5078 L1629.3438,64.5078 Z M1629.3438,62.8047 L1630.6719,62.8047 Q1631.4063,62.8047 1632,62.5859 Q1632.7813,62.2891 1633.0469,61.9609 Q1633.3125,61.6172 1633.3125,61.2891 Q1633.3125,60.8203 1632.7969,60.4141 Q1632.2813,59.9922 1631.2969,59.9922 L1629.3438,59.9922 L1629.3438,62.8047 Z " fill="#000000"/><text fill="#000000" font-family="sans-serif" font-size="12" font-style="italic" lengthAdjust="spacing" textLength="73" x="1642.5" y="59.457">&#171;Root Entity&#187;</text><text fill="#000000" font-family="sans-serif" font-size="14" lengthAdjust="spacing" textLength="43" x="1657.5" y="76.627">Allergy</text><line style="stroke:#181818;stroke-width:0.5;" x1="1616.5" x2="1715.5" y1="84.7031" y2="84.7031"/><line style="stroke:#181818;stroke-width:0.5;" x1="1616.5" x2="1715.5" y1="92.7031" y2="92.7031"/></g><!--class ConditionCode--><g id="elem_ConditionCode"><rect codeLine="49" fill="#F1F1F1" height="58.7031" id="ConditionCode" rx="2.5" ry="2.5" style="stroke:#181818;stroke-width:0.5;" width="126" x="1512" y="161"/><ellipse cx="1527" cy="182.3516" fill="#F04800" rx="11" ry="11" style="stroke:#181818;stroke-width:1.0;"/><path d="M1527.5938,185.6172 L1530.0625,179.7422 L1529.6719,179.7422 Q1529.0625,179.7422 1528.7969,179.5078 Q1528.5313,179.2734 1528.5313,178.8828 Q1528.5313,178.5078 1528.7969,178.2734 Q1529.0625,178.0391 1529.6719,178.0391 L1531.9531,178.0391 Q1532.5625,178.0391 1532.8281,178.2734 Q1533.0938,178.5078 1533.0938,178.8828 Q1533.0938,179.3516 1532.6875,179.6172 Q1532.5,179.7422 1531.9063,179.7422 L1528.4219,188.1016 L1526.7813,188.1016 L1523.2969,179.7422 Q1522.7031,179.7422 1522.5156,179.6172 Q1522.1094,179.3516 1522.1094,178.8828 Q1522.1094,178.5078 1522.375,178.2734 Q1522.6406,178.0391 1523.25,178.0391 L1525.5469,178.0391 Q1526.1563,178.0391 1526.4063,178.2734 Q1526.6719,178.5078 1526.6719,178.8828 Q1526.6719,179.2734 1526.4063,179.5078 Q1526.1563,179.7422 1525.5469,179.7422 L1525.1406,179.7422 L1527.5938,185.6172 Z " fill="#000000"/><text fill="#000000" font-family="sans-serif" font-size="12" font-style="italic" lengthAdjust="spacing" textLength="85" x="1545.5" y="178.457">&#171;Value Object&#187;</text><text fill="#000000" font-family="sans-serif" font-size="14" lengthAdjust="spacing" textLength="94" x="1541" y="195.627">ConditionCode</text><line style="stroke:#181818;stroke-width:0.5;" x1="1513" x2="1637" y1="203.7031" y2="203.7031"/><line style="stroke:#181818;stroke-width:0.5;" x1="1513" x2="1637" y1="211.7031" y2="211.7031"/></g><!--class ConditionDesignation--><g id="elem_ConditionDesignation"><rect codeLine="50" fill="#F1F1F1" height="58.7031" id="ConditionDesignation" rx="2.5" ry="2.5" style="stroke:#181818;stroke-width:0.5;" width="167" x="1673.5" y="161"/><ellipse cx="1688.5" cy="182.3516" fill="#F04800" rx="11" ry="11" style="stroke:#181818;stroke-width:1.0;"/><path d="M1689.0938,185.6172 L1691.5625,179.7422 L1691.1719,179.7422 Q1690.5625,179.7422 1690.2969,179.5078 Q1690.0313,179.2734 1690.0313,178.8828 Q1690.0313,178.5078 1690.2969,178.2734 Q1690.5625,178.0391 1691.1719,178.0391 L1693.4531,178.0391 Q1694.0625,178.0391 1694.3281,178.2734 Q1694.5938,178.5078 1694.5938,178.8828 Q1694.5938,179.3516 1694.1875,179.6172 Q1694,179.7422 1693.4063,179.7422 L1689.9219,188.1016 L1688.2813,188.1016 L1684.7969,179.7422 Q1684.2031,179.7422 1684.0156,179.6172 Q1683.6094,179.3516 1683.6094,178.8828 Q1683.6094,178.5078 1683.875,178.2734 Q1684.1406,178.0391 1684.75,178.0391 L1687.0469,178.0391 Q1687.6563,178.0391 1687.9063,178.2734 Q1688.1719,178.5078 1688.1719,178.8828 Q1688.1719,179.2734 1687.9063,179.5078 Q1687.6563,179.7422 1687.0469,179.7422 L1686.6406,179.7422 L1689.0938,185.6172 Z " fill="#000000"/><text fill="#000000" font-family="sans-serif" font-size="12" font-style="italic" lengthAdjust="spacing" textLength="85" x="1727.5" y="178.457">&#171;Value Object&#187;</text><text fill="#000000" font-family="sans-serif" font-size="14" lengthAdjust="spacing" textLength="135" x="1702.5" y="195.627">ConditionDesignation</text><line style="stroke:#181818;stroke-width:0.5;" x1="1674.5" x2="1839.5" y1="203.7031" y2="203.7031"/><line style="stroke:#181818;stroke-width:0.5;" x1="1674.5" x2="1839.5" y1="211.7031" y2="211.7031"/></g><!--class ConditionDescription--><g id="elem_ConditionDescription"><rect codeLine="51" fill="#F1F1F1" height="58.7031" id="ConditionDescription" rx="2.5" ry="2.5" style="stroke:#181818;stroke-width:0.5;" width="163" x="1875.5" y="161"/><ellipse cx="1890.5" cy="182.3516" fill="#F04800" rx="11" ry="11" style="stroke:#181818;stroke-width:1.0;"/><path d="M1891.0938,185.6172 L1893.5625,179.7422 L1893.1719,179.7422 Q1892.5625,179.7422 1892.2969,179.5078 Q1892.0313,179.2734 1892.0313,178.8828 Q1892.0313,178.5078 1892.2969,178.2734 Q1892.5625,178.0391 1893.1719,178.0391 L1895.4531,178.0391 Q1896.0625,178.0391 1896.3281,178.2734 Q1896.5938,178.5078 1896.5938,178.8828 Q1896.5938,179.3516 1896.1875,179.6172 Q1896,179.7422 1895.4063,179.7422 L1891.9219,188.1016 L1890.2813,188.1016 L1886.7969,179.7422 Q1886.2031,179.7422 1886.0156,179.6172 Q1885.6094,179.3516 1885.6094,178.8828 Q1885.6094,178.5078 1885.875,178.2734 Q1886.1406,178.0391 1886.75,178.0391 L1889.0469,178.0391 Q1889.6563,178.0391 1889.9063,178.2734 Q1890.1719,178.5078 1890.1719,178.8828 Q1890.1719,179.2734 1889.9063,179.5078 Q1889.6563,179.7422 1889.0469,179.7422 L1888.6406,179.7422 L1891.0938,185.6172 Z " fill="#000000"/><text fill="#000000" font-family="sans-serif" font-size="12" font-style="italic" lengthAdjust="spacing" textLength="85" x="1927.5" y="178.457">&#171;Value Object&#187;</text><text fill="#000000" font-family="sans-serif" font-size="14" lengthAdjust="spacing" textLength="131" x="1904.5" y="195.627">ConditionDescription</text><line style="stroke:#181818;stroke-width:0.5;" x1="1876.5" x2="2037.5" y1="203.7031" y2="203.7031"/><line style="stroke:#181818;stroke-width:0.5;" x1="1876.5" x2="2037.5" y1="211.7031" y2="211.7031"/></g><!--reverse link ContactInformation to EmailAddress--><g id="link_ContactInformation_EmailAddress"><path codeLine="18" d="M895.9407,350.8084 C888.4807,384.0284 878.87,426.79 871.41,459.97 " fill="none" id="ContactInformation-backto-EmailAddress" style="stroke:#181818;stroke-width:1.0;"/><polygon fill="#181818" points="898.57,339.1,893.3526,344.0778,895.9407,350.8084,901.1582,345.8306,898.57,339.1" style="stroke:#181818;stroke-width:1.0;"/><text fill="#000000" font-family="sans-serif" font-size="13" lengthAdjust="spacing" textLength="7" x="889.5219" y="360.417">1</text><text fill="#000000" font-family="sans-serif" font-size="13" lengthAdjust="spacing" textLength="7" x="865.0466" y="449.3264">1</text></g><!--reverse link ContactInformation to PhoneNumber--><g id="link_ContactInformation_PhoneNumber"><path codeLine="19" d="M929.9915,349.1797 C951.4515,382.3997 980.13,426.79 1001.57,459.97 " fill="none" id="ContactInformation-backto-PhoneNumber" style="stroke:#181818;stroke-width:1.0;"/><polygon fill="#181818" points="923.48,339.1,923.3758,346.3104,929.9915,349.1797,930.0956,341.9694,923.48,339.1" style="stroke:#181818;stroke-width:1.0;"/><text fill="#000000" font-family="sans-serif" font-size="13" lengthAdjust="spacing" textLength="7" x="919.5696" y="360.417">1</text><text fill="#000000" font-family="sans-serif" font-size="13" lengthAdjust="spacing" textLength="7" x="989.7728" y="449.3264">1</text></g><!--reverse link Patient to FirstName--><g id="link_Patient_FirstName"><path codeLine="21" d="M1072,232.12 C1072,250.25 1072,261.62 1072,279.77 " fill="none" id="Patient-backto-FirstName" style="stroke:#181818;stroke-width:1.0;"/><polygon fill="#181818" points="1072,220.12,1068,226.12,1072,232.12,1076,226.12,1072,220.12" style="stroke:#181818;stroke-width:1.0;"/><text fill="#000000" font-family="sans-serif" font-size="13" lengthAdjust="spacing" textLength="7" x="1064.3109" y="241.0854">1</text><text fill="#000000" font-family="sans-serif" font-size="13" lengthAdjust="spacing" textLength="7" x="1064.2344" y="269.0826">1</text></g><!--reverse link Patient to LastName--><g id="link_Patient_LastName"><path codeLine="22" d="M1117.6134,227.5624 C1140.6334,245.7624 1160.92,261.79 1183.91,279.97 " fill="none" id="Patient-backto-LastName" style="stroke:#181818;stroke-width:1.0;"/><polygon fill="#181818" points="1108.2,220.12,1110.4259,226.979,1117.6134,227.5624,1115.3875,220.7034,1108.2,220.12" style="stroke:#181818;stroke-width:1.0;"/><text fill="#000000" font-family="sans-serif" font-size="13" lengthAdjust="spacing" textLength="7" x="1107.6378" y="241.0854">1</text><text fill="#000000" font-family="sans-serif" font-size="13" lengthAdjust="spacing" textLength="7" x="1168.2497" y="269.3264">1</text></g><!--reverse link Patient to FullName--><g id="link_Patient_FullName"><path codeLine="23" d="M1133.7098,215.8911 C1186.1298,236.6111 1256.77,264.53 1311.34,286.11 " fill="none" id="Patient-backto-FullName" style="stroke:#181818;stroke-width:1.0;"/><polygon fill="#181818" points="1122.55,211.48,1126.6595,217.4055,1133.7098,215.8911,1129.6003,209.9656,1122.55,211.48" style="stroke:#181818;stroke-width:1.0;"/><text fill="#000000" font-family="sans-serif" font-size="13" lengthAdjust="spacing" textLength="7" x="1130.4886" y="210.9292">1</text><text fill="#000000" font-family="sans-serif" font-size="13" lengthAdjust="spacing" textLength="7" x="1296.632" y="279.6248">1</text></g><!--reverse link Patient to ContactInformation--><g id="link_Patient_ContactInformation"><path codeLine="24" d="M1021.3217,227.0051 C995.3417,245.2051 971.67,261.79 945.72,279.97 " fill="none" id="Patient-backto-ContactInformation" style="stroke:#181818;stroke-width:1.0;"/><polygon fill="#181818" points="1031.15,220.12,1023.9408,220.2865,1021.3217,227.0051,1028.5309,226.8386,1031.15,220.12" style="stroke:#181818;stroke-width:1.0;"/><text fill="#000000" font-family="sans-serif" font-size="13" lengthAdjust="spacing" textLength="7" x="1015.4186" y="241.0854">1</text><text fill="#000000" font-family="sans-serif" font-size="13" lengthAdjust="spacing" textLength="7" x="946.8619" y="269.3264">1</text></g><!--link Gender to Patient--><g id="link_Gender_Patient"><path codeLine="25" d="M1342.1,94.62 C1336.33,96.8 1330.56,98.96 1325,101 C1255.11,126.67 1185.1148,150.9482 1133.9248,168.4482 " fill="none" id="Gender-to-Patient" style="stroke:#181818;stroke-width:1.0;"/><polygon fill="#181818" points="1122.57,172.33,1129.5413,174.174,1133.9248,168.4482,1126.9535,166.6042,1122.57,172.33" style="stroke:#181818;stroke-width:1.0;"/><text fill="#000000" font-family="sans-serif" font-size="13" lengthAdjust="spacing" textLength="7" x="1327.3613" y="94.0939">1</text><text fill="#000000" font-family="sans-serif" font-size="13" lengthAdjust="spacing" textLength="7" x="1130.5115" y="166.029">1</text></g><!--link MedicalRecordNumber to Patient--><g id="link_MedicalRecordNumber_Patient"><path codeLine="26" d="M1183.8,101.12 C1160.78,119.32 1140.4926,135.3467 1117.5026,153.5267 " fill="none" id="MedicalRecordNumber-to-Patient" style="stroke:#181818;stroke-width:1.0;"/><polygon fill="#181818" points="1108.09,160.97,1115.2774,160.3859,1117.5026,153.5267,1110.3152,154.1108,1108.09,160.97" style="stroke:#181818;stroke-width:1.0;"/><text fill="#000000" font-family="sans-serif" font-size="13" lengthAdjust="spacing" textLength="7" x="1168.9841" y="122.0854">1</text><text fill="#000000" font-family="sans-serif" font-size="13" lengthAdjust="spacing" textLength="7" x="1108.2191" y="150.3264">1</text></g><!--link DateOfBirth to Patient--><g id="link_DateOfBirth_Patient"><path codeLine="27" d="M1048.58,101.12 C1053.39,119.25 1056.506,131.0204 1061.316,149.1704 " fill="none" id="DateOfBirth-to-Patient" style="stroke:#181818;stroke-width:1.0;"/><polygon fill="#181818" points="1064.39,160.77,1066.7195,153.9455,1061.316,149.1704,1058.9864,155.9949,1064.39,160.77" style="stroke:#181818;stroke-width:1.0;"/><text fill="#000000" font-family="sans-serif" font-size="13" lengthAdjust="spacing" textLength="7" x="1042.3832" y="122.0854">1</text><text fill="#000000" font-family="sans-serif" font-size="13" lengthAdjust="spacing" textLength="7" x="1054.9597" y="150.0826">1</text></g><!--link EmergencyContact to Patient--><g id="link_EmergencyContact_Patient"><path codeLine="28" d="M921.68,101.12 C952.63,119.32 982.2156,136.7078 1013.1356,154.8878 " fill="none" id="EmergencyContact-to-Patient" style="stroke:#181818;stroke-width:1.0;"/><polygon fill="#181818" points="1023.48,160.97,1020.3352,154.4808,1013.1356,154.8878,1016.2804,161.377,1023.48,160.97" style="stroke:#181818;stroke-width:1.0;"/><text fill="#000000" font-family="sans-serif" font-size="13" lengthAdjust="spacing" textLength="7" x="923.5748" y="122.0854">1</text><text fill="#000000" font-family="sans-serif" font-size="13" lengthAdjust="spacing" textLength="7" x="1006.5637" y="151.3728">1</text></g><!--reverse link MedicalCondition to ConditionCode--><g id="link_MedicalCondition_ConditionCode"><path codeLine="39" d="M385.1919,95.292 C323.9819,112.582 244.53,135.66 166,161 C160.18,162.88 154.15,164.88 148.12,166.93 " fill="none" id="MedicalCondition-backto-ConditionCode" style="stroke:#181818;stroke-width:1.0;"/><polygon fill="#181818" points="396.74,92.03,389.8786,89.8116,385.1919,95.292,392.0533,97.5104,396.74,92.03" style="stroke:#181818;stroke-width:1.0;"/><text fill="#000000" font-family="sans-serif" font-size="13" lengthAdjust="spacing" textLength="7" x="382.1335" y="90.8507">1</text><text fill="#000000" font-family="sans-serif" font-size="13" lengthAdjust="spacing" textLength="7" x="155.8229" y="160.8123">1</text></g><!--reverse link MedicalCondition to ConditionDescription--><g id="link_MedicalCondition_ConditionDescription"><path codeLine="40" d="M467,113.12 C467,131.25 467,142.62 467,160.77 " fill="none" id="MedicalCondition-backto-ConditionDescription" style="stroke:#181818;stroke-width:1.0;"/><polygon fill="#181818" points="467,101.12,463,107.12,467,113.12,471,107.12,467,101.12" style="stroke:#181818;stroke-width:1.0;"/><text fill="#000000" font-family="sans-serif" font-size="13" lengthAdjust="spacing" textLength="7" x="459.3109" y="122.0854">1</text><text fill="#000000" font-family="sans-serif" font-size="13" lengthAdjust="spacing" textLength="7" x="459.2344" y="150.0826">1</text></g><!--reverse link MedicalCondition to ConditionDesignation--><g id="link_MedicalCondition_ConditionDesignation"><path codeLine="41" d="M407.7131,107.1809 C376.6131,125.3809 346.84,142.79 315.77,160.97 " fill="none" id="MedicalCondition-backto-ConditionDesignation" style="stroke:#181818;stroke-width:1.0;"/><polygon fill="#181818" points="418.07,101.12,410.8712,100.6982,407.7131,107.1809,414.9119,107.6028,418.07,101.12" style="stroke:#181818;stroke-width:1.0;"/><text fill="#000000" font-family="sans-serif" font-size="13" lengthAdjust="spacing" textLength="7" x="400.7478" y="122.0854">1</text><text fill="#000000" font-family="sans-serif" font-size="13" lengthAdjust="spacing" textLength="7" x="318.6728" y="150.3264">1</text></g><!--reverse link MedicalCondition to ConditionSymptoms--><g id="link_MedicalCondition_ConditionSymptoms"><path codeLine="42" d="M524.9896,107.2944 C555.3196,125.4944 584.15,142.79 614.45,160.97 " fill="none" id="MedicalCondition-backto-ConditionSymptoms" style="stroke:#181818;stroke-width:1.0;"/><polygon fill="#181818" points="514.7,101.12,517.7867,107.6371,524.9896,107.2944,521.903,100.7774,514.7,101.12" style="stroke:#181818;stroke-width:1.0;"/><text fill="#000000" font-family="sans-serif" font-size="13" lengthAdjust="spacing" textLength="7" x="516.4019" y="122.0854">1</text><text fill="#000000" font-family="sans-serif" font-size="13" lengthAdjust="spacing" textLength="7" x="596.2828" y="150.3264">1</text></g><!--reverse link Allergy to ConditionCode--><g id="link_Allergy_ConditionCode"><path codeLine="53" d="M1636.3731,110.5925 C1622.2731,128.7225 1611.46,142.62 1597.35,160.77 " fill="none" id="Allergy-backto-ConditionCode" style="stroke:#181818;stroke-width:1.0;"/><polygon fill="#181818" points="1643.74,101.12,1636.899,103.4006,1636.3731,110.5925,1643.214,108.3119,1643.74,101.12" style="stroke:#181818;stroke-width:1.0;"/><text fill="#000000" font-family="sans-serif" font-size="13" lengthAdjust="spacing" textLength="7" x="1631.6685" y="122.0854">1</text><text fill="#000000" font-family="sans-serif" font-size="13" lengthAdjust="spacing" textLength="7" x="1594.4734" y="150.0826">1</text></g><!--reverse link Allergy to ConditionDescription--><g id="link_Allergy_ConditionDescription"><path codeLine="54" d="M1727.8238,97.3564 C1774.6338,116.1764 1833.52,139.85 1885.91,160.92 " fill="none" id="Allergy-backto-ConditionDescription" style="stroke:#181818;stroke-width:1.0;"/><polygon fill="#181818" points="1716.69,92.88,1720.7648,98.8295,1727.8238,97.3564,1723.749,91.4069,1716.69,92.88" style="stroke:#181818;stroke-width:1.0;"/><text fill="#000000" font-family="sans-serif" font-size="13" lengthAdjust="spacing" textLength="7" x="1724.6492" y="92.3879">1</text><text fill="#000000" font-family="sans-serif" font-size="13" lengthAdjust="spacing" textLength="7" x="1862.5934" y="150.2654">1</text></g><!--reverse link Allergy to ConditionDesignation--><g id="link_Allergy_ConditionDesignation"><path codeLine="55" d="M1695.6269,110.5925 C1709.7269,128.7225 1720.54,142.62 1734.65,160.77 " fill="none" id="Allergy-backto-ConditionDesignation" style="stroke:#181818;stroke-width:1.0;"/><polygon fill="#181818" points="1688.26,101.12,1688.786,108.3119,1695.6269,110.5925,1695.101,103.4006,1688.26,101.12" style="stroke:#181818;stroke-width:1.0;"/><text fill="#000000" font-family="sans-serif" font-size="13" lengthAdjust="spacing" textLength="7" x="1684.9534" y="122.0854">1</text><text fill="#000000" font-family="sans-serif" font-size="13" lengthAdjust="spacing" textLength="7" x="1721.9953" y="150.0826">1</text></g><!--link Allergy to Patient--><g id="link_Allergy_Patient"><path codeLine="58" d="M1615.36,82.48 C1503.13,104.58 1246.3938,155.151 1134.2938,177.231 " fill="none" id="Allergy-to-Patient" style="stroke:#181818;stroke-width:1.0;"/><polygon fill="#181818" points="1122.52,179.55,1129.1799,182.3151,1134.2938,177.231,1127.6339,174.4659,1122.52,179.55" style="stroke:#181818;stroke-width:1.0;"/><text fill="#000000" font-family="sans-serif" font-size="13" lengthAdjust="spacing" textLength="5" x="1602.5551" y="80.4604">*</text><text fill="#000000" font-family="sans-serif" font-size="13" lengthAdjust="spacing" textLength="7" x="1130.4542" y="192.6595">1</text></g><!--link MedicalCondition to Patient--><g id="link_MedicalCondition_Patient"><path codeLine="59" d="M537.29,86.09 C660.75,109.97 901.8883,156.6017 1009.7083,177.4517 " fill="none" id="MedicalCondition-to-Patient" style="stroke:#181818;stroke-width:1.0;"/><polygon fill="#181818" points="1021.49,179.73,1016.3586,174.6636,1009.7083,177.4517,1014.8397,182.5181,1021.49,179.73" style="stroke:#181818;stroke-width:1.0;"/><text fill="#000000" font-family="sans-serif" font-size="13" lengthAdjust="spacing" textLength="5" x="544.7965" y="84.2981">*</text><text fill="#000000" font-family="sans-serif" font-size="13" lengthAdjust="spacing" textLength="7" x="1006.5573" y="174.5159">1</text></g><!--SRC=[tPD1Ru9048NFy2isUgb64fhqK1D3ObKQarQ9JRslCE2si6kNvK1C_tjN18e2klRO4v3v7Zlpvgs3tKyS07Am8435E0Wu15W0sklQZ0eYqgA4HgExrQ1hciEXRVVGYZ61ZeHbxRzrNPk4E8xHCr0F-05U3xg- -V1ecZsqnc42QBdv05TO5f9uJh-2HrmShi1bt5iaqQOY7MRITqg-f7RkoHQ8Ju2VwAUorQN_HBZOgXuvYu07GDrqmgZ0hb3NOHAEFO-3_53KE5j6uMoiDadfTzxNdFgCHz9xHgMsS1fLhBO9ZyK2Hw3QpWk-ZRUJC5JYfQ3UTEU-W_g6OMGlLVUkqnNVvBz_vppKZ6Hdz8_KCPYwLixLKY_dQActjDD0vkdEgkUrfYmtWjNGDWArY3PHqdKdlxpvoPBsoA7xfbjypbowpjMGbO89yvI3Kugc49E05Y6-MUjoilkJzYsDTe95iK9oQyRaISoU9zEhifN6Rv0KFgbAYX7rQXB6OIYZapO582_zixthMZ7NXRLTH4wsTOqiboIDAjb-_NBMLzW0_G00]--></g></svg>