<?xml version="1.0" encoding="us-ascii" standalone="no"?><svg xmlns="http://www.w3.org/2000/svg" xmlns:xlink="http://www.w3.org/1999/xlink" contentStyleType="text/css" height="642px" preserveAspectRatio="none" style="width:1143px;height:642px;background:#FFFFFF;" version="1.1" viewBox="0 0 1143 642" width="1143px" zoomAndPan="magnify"><defs/><g><rect fill="#FFFFFF" height="46.7031" style="stroke:#181818;stroke-width:1.0;" width="10" x="188" y="69.9609"/><rect fill="#FFFFFF" height="30.3516" style="stroke:#181818;stroke-width:1.0;" width="10" x="188" y="557.9375"/><rect fill="#FFFFFF" height="83.0547" style="stroke:#181818;stroke-width:1.0;" width="10" x="408" y="116.6641"/><rect fill="#FFFFFF" height="30.3516" style="stroke:#181818;stroke-width:1.0;" width="10" x="408" y="527.5859"/><rect fill="#FFFFFF" height="30.3516" style="stroke:#181818;stroke-width:1.0;" width="10" x="588" y="199.7188"/><rect fill="#FFFFFF" height="93.0547" style="stroke:#181818;stroke-width:1.0;" width="10" x="588" y="313.125"/><rect fill="#FFFFFF" height="30.3516" style="stroke:#181818;stroke-width:1.0;" width="10" x="588" y="436.5313"/><rect fill="#FFFFFF" height="30.3516" style="stroke:#181818;stroke-width:1.0;" width="10" x="588" y="497.2344"/><rect fill="#FFFFFF" height="83.0547" style="stroke:#181818;stroke-width:1.0;" width="10" x="797" y="230.0703"/><rect fill="#FFFFFF" height="30.3516" style="stroke:#181818;stroke-width:1.0;" width="10" x="797" y="466.8828"/><rect fill="#FFFFFF" height="30.3516" style="stroke:#181818;stroke-width:1.0;" width="10" x="939" y="406.1797"/><rect fill="none" height="48.7031" style="stroke:#000000;stroke-width:1.5;" width="674.5" x="3" y="328.125"/><line style="stroke:#181818;stroke-width:0.5;stroke-dasharray:5.0,5.0;" x1="192.5" x2="192.5" y1="37.6094" y2="606.2891"/><line style="stroke:#181818;stroke-width:0.5;stroke-dasharray:5.0,5.0;" x1="413" x2="413" y1="37.6094" y2="606.2891"/><line style="stroke:#181818;stroke-width:0.5;stroke-dasharray:5.0,5.0;" x1="592.5" x2="592.5" y1="37.6094" y2="606.2891"/><line style="stroke:#181818;stroke-width:0.5;stroke-dasharray:5.0,5.0;" x1="802" x2="802" y1="37.6094" y2="606.2891"/><line style="stroke:#181818;stroke-width:0.5;stroke-dasharray:5.0,5.0;" x1="944" x2="944" y1="37.6094" y2="606.2891"/><line style="stroke:#181818;stroke-width:0.5;stroke-dasharray:5.0,5.0;" x1="1081" x2="1081" y1="37.6094" y2="606.2891"/><rect fill="#E2E2F0" height="31.6094" rx="2.5" ry="2.5" style="stroke:#181818;stroke-width:0.5;" width="63" x="161.5" y="5"/><text fill="#000000" font-family="sans-serif" font-size="14" lengthAdjust="spacing" textLength="49" x="168.5" y="26.5332">Routing</text><rect fill="#E2E2F0" height="31.6094" rx="2.5" ry="2.5" style="stroke:#181818;stroke-width:0.5;" width="63" x="161.5" y="605.2891"/><text fill="#000000" font-family="sans-serif" font-size="14" lengthAdjust="spacing" textLength="49" x="168.5" y="626.8223">Routing</text><rect fill="#E2E2F0" height="31.6094" rx="2.5" ry="2.5" style="stroke:#181818;stroke-width:0.5;" width="164" x="331" y="5"/><text fill="#000000" font-family="sans-serif" font-size="14" lengthAdjust="spacing" textLength="150" x="338" y="26.5332">ClinicalDetailsController</text><rect fill="#E2E2F0" height="31.6094" rx="2.5" ry="2.5" style="stroke:#181818;stroke-width:0.5;" width="164" x="331" y="605.2891"/><text fill="#000000" font-family="sans-serif" font-size="14" lengthAdjust="spacing" textLength="150" x="338" y="626.8223">ClinicalDetailsController</text><rect fill="#E2E2F0" height="31.6094" rx="2.5" ry="2.5" style="stroke:#181818;stroke-width:0.5;" width="149" x="518.5" y="5"/><text fill="#000000" font-family="sans-serif" font-size="14" lengthAdjust="spacing" textLength="135" x="525.5" y="26.5332">ClinicalDetailsService</text><rect fill="#E2E2F0" height="31.6094" rx="2.5" ry="2.5" style="stroke:#181818;stroke-width:0.5;" width="149" x="518.5" y="605.2891"/><text fill="#000000" font-family="sans-serif" font-size="14" lengthAdjust="spacing" textLength="135" x="525.5" y="626.8223">ClinicalDetailsService</text><rect fill="#E2E2F0" height="31.6094" rx="2.5" ry="2.5" style="stroke:#181818;stroke-width:0.5;" width="122" x="741" y="5"/><text fill="#000000" font-family="sans-serif" font-size="14" lengthAdjust="spacing" textLength="108" x="748" y="26.5332">ClinicalDetailMap</text><rect fill="#E2E2F0" height="31.6094" rx="2.5" ry="2.5" style="stroke:#181818;stroke-width:0.5;" width="122" x="741" y="605.2891"/><text fill="#000000" font-family="sans-serif" font-size="14" lengthAdjust="spacing" textLength="108" x="748" y="626.8223">ClinicalDetailMap</text><rect fill="#E2E2F0" height="31.6094" rx="2.5" ry="2.5" style="stroke:#181818;stroke-width:0.5;" width="142" x="873" y="5"/><text fill="#000000" font-family="sans-serif" font-size="14" lengthAdjust="spacing" textLength="128" x="880" y="26.5332">ConditionRepository</text><rect fill="#E2E2F0" height="31.6094" rx="2.5" ry="2.5" style="stroke:#181818;stroke-width:0.5;" width="142" x="873" y="605.2891"/><text fill="#000000" font-family="sans-serif" font-size="14" lengthAdjust="spacing" textLength="128" x="880" y="626.8223">ConditionRepository</text><rect fill="#E2E2F0" height="31.6094" rx="2.5" ry="2.5" style="stroke:#181818;stroke-width:0.5;" width="112" x="1025" y="5"/><text fill="#000000" font-family="sans-serif" font-size="14" lengthAdjust="spacing" textLength="98" x="1032" y="26.5332">LoggingService</text><rect fill="#E2E2F0" height="31.6094" rx="2.5" ry="2.5" style="stroke:#181818;stroke-width:0.5;" width="112" x="1025" y="605.2891"/><text fill="#000000" font-family="sans-serif" font-size="14" lengthAdjust="spacing" textLength="98" x="1032" y="626.8223">LoggingService</text><rect fill="#FFFFFF" height="46.7031" style="stroke:#181818;stroke-width:1.0;" width="10" x="188" y="69.9609"/><rect fill="#FFFFFF" height="30.3516" style="stroke:#181818;stroke-width:1.0;" width="10" x="188" y="557.9375"/><rect fill="#FFFFFF" height="83.0547" style="stroke:#181818;stroke-width:1.0;" width="10" x="408" y="116.6641"/><rect fill="#FFFFFF" height="30.3516" style="stroke:#181818;stroke-width:1.0;" width="10" x="408" y="527.5859"/><rect fill="#FFFFFF" height="30.3516" style="stroke:#181818;stroke-width:1.0;" width="10" x="588" y="199.7188"/><rect fill="#FFFFFF" height="93.0547" style="stroke:#181818;stroke-width:1.0;" width="10" x="588" y="313.125"/><rect fill="#FFFFFF" height="30.3516" style="stroke:#181818;stroke-width:1.0;" width="10" x="588" y="436.5313"/><rect fill="#FFFFFF" height="30.3516" style="stroke:#181818;stroke-width:1.0;" width="10" x="588" y="497.2344"/><rect fill="#FFFFFF" height="83.0547" style="stroke:#181818;stroke-width:1.0;" width="10" x="797" y="230.0703"/><rect fill="#FFFFFF" height="30.3516" style="stroke:#181818;stroke-width:1.0;" width="10" x="797" y="466.8828"/><rect fill="#FFFFFF" height="30.3516" style="stroke:#181818;stroke-width:1.0;" width="10" x="939" y="406.1797"/><polygon fill="#181818" points="176,65.9609,186,69.9609,176,73.9609,180,69.9609" style="stroke:#181818;stroke-width:1.0;"/><line style="stroke:#181818;stroke-width:1.0;" x1="0" x2="182" y1="69.9609" y2="69.9609"/><text fill="#000000" font-family="sans-serif" font-size="13" font-weight="bold" lengthAdjust="spacing" textLength="7" x="7" y="65.1045">1</text><text fill="#000000" font-family="sans-serif" font-size="13" lengthAdjust="spacing" textLength="151" x="18" y="65.1045">POST(ClinicalDetailsDTO)</text><polygon fill="#181818" points="396,112.6641,406,116.6641,396,120.6641,400,116.6641" style="stroke:#181818;stroke-width:1.0;"/><line style="stroke:#181818;stroke-width:1.0;" x1="193" x2="402" y1="116.6641" y2="116.6641"/><text fill="#000000" font-family="sans-serif" font-size="13" font-weight="bold" lengthAdjust="spacing" textLength="7" x="200" y="103.6318">2</text><text fill="#000000" font-family="sans-serif" font-size="13" lengthAdjust="spacing" textLength="176" x="211" y="95.4561">saveClinicalDetails(authToken,</text><text fill="#000000" font-family="sans-serif" font-size="13" lengthAdjust="spacing" textLength="110" x="211" y="111.8076">clinicalDetailsDTO)</text><path d="M423,129.6641 L423,171.6641 L651,171.6641 L651,139.6641 L641,129.6641 L423,129.6641 " fill="#FEFFDD" style="stroke:#181818;stroke-width:0.5;"/><path d="M641,129.6641 L641,139.6641 L651,139.6641 L641,129.6641 " fill="#FEFFDD" style="stroke:#181818;stroke-width:0.5;"/><text fill="#000000" font-family="sans-serif" font-size="13" font-weight="bold" lengthAdjust="spacing" textLength="188" x="429" y="148.1592">Token Authentication Process</text><text fill="#000000" font-family="sans-serif" font-size="13" lengthAdjust="spacing" textLength="11" x="621" y="148.1592">to</text><text fill="#000000" font-family="sans-serif" font-size="13" lengthAdjust="spacing" textLength="168" x="429" y="164.5107">validate the user permissions</text><polygon fill="#181818" points="576,195.7188,586,199.7188,576,203.7188,580,199.7188" style="stroke:#181818;stroke-width:1.0;"/><line style="stroke:#181818;stroke-width:1.0;" x1="413" x2="582" y1="199.7188" y2="199.7188"/><text fill="#000000" font-family="sans-serif" font-size="13" font-weight="bold" lengthAdjust="spacing" textLength="7" x="420" y="194.8623">3</text><text fill="#000000" font-family="sans-serif" font-size="13" lengthAdjust="spacing" textLength="140" x="431" y="194.8623">save(clinicalDetailsDTO)</text><polygon fill="#181818" points="785,226.0703,795,230.0703,785,234.0703,789,230.0703" style="stroke:#181818;stroke-width:1.0;"/><line style="stroke:#181818;stroke-width:1.0;" x1="593" x2="791" y1="230.0703" y2="230.0703"/><text fill="#000000" font-family="sans-serif" font-size="13" font-weight="bold" lengthAdjust="spacing" textLength="7" x="600" y="225.2139">4</text><text fill="#000000" font-family="sans-serif" font-size="13" lengthAdjust="spacing" textLength="169" x="611" y="225.2139">toDomain(clinicalDetailsDTO)</text><path d="M812,243.0703 L812,285.0703 L1082,285.0703 L1082,253.0703 L1072,243.0703 L812,243.0703 " fill="#FEFFDD" style="stroke:#181818;stroke-width:0.5;"/><path d="M1072,243.0703 L1072,253.0703 L1082,253.0703 L1072,243.0703 " fill="#FEFFDD" style="stroke:#181818;stroke-width:0.5;"/><text fill="#000000" font-family="sans-serif" font-size="13" lengthAdjust="spacing" textLength="238" x="818" y="261.5654">Converts DTO to actual object, by getting</text><text fill="#000000" font-family="sans-serif" font-size="13" lengthAdjust="spacing" textLength="249" x="818" y="277.917">each disease from the repo through their ID</text><polygon fill="#181818" points="609,309.125,599,313.125,609,317.125,605,313.125" style="stroke:#181818;stroke-width:1.0;"/><line style="stroke:#181818;stroke-width:1.0;stroke-dasharray:2.0,2.0;" x1="603" x2="801" y1="313.125" y2="313.125"/><text fill="#000000" font-family="sans-serif" font-size="13" font-weight="bold" lengthAdjust="spacing" textLength="7" x="615" y="308.2686">5</text><text fill="#000000" font-family="sans-serif" font-size="13" lengthAdjust="spacing" textLength="122" x="626" y="308.2686">clinicalDetailsOrError</text><path d="M3,328.125 L64,328.125 L64,336.4766 L54,346.4766 L3,346.4766 L3,328.125 " fill="#EEEEEE" style="stroke:#000000;stroke-width:1.5;"/><rect fill="none" height="48.7031" style="stroke:#000000;stroke-width:1.5;" width="674.5" x="3" y="328.125"/><text fill="#000000" font-family="sans-serif" font-size="13" font-weight="bold" lengthAdjust="spacing" textLength="16" x="18" y="342.6201">alt</text><text fill="#000000" font-family="sans-serif" font-size="11" font-weight="bold" lengthAdjust="spacing" textLength="288" x="79" y="341.5439">[If any disease doesn't exist, process returns error]</text><polygon fill="#181818" points="11,364.8281,1,368.8281,11,372.8281,7,368.8281" style="stroke:#181818;stroke-width:1.0;"/><line style="stroke:#181818;stroke-width:1.0;stroke-dasharray:2.0,2.0;" x1="5" x2="587" y1="368.8281" y2="368.8281"/><text fill="#000000" font-family="sans-serif" font-size="13" font-weight="bold" lengthAdjust="spacing" textLength="7" x="17" y="363.9717">6</text><text fill="#000000" font-family="sans-serif" font-size="13" lengthAdjust="spacing" textLength="34" x="28" y="363.9717">error()</text><polygon fill="#181818" points="927,402.1797,937,406.1797,927,410.1797,931,406.1797" style="stroke:#181818;stroke-width:1.0;"/><line style="stroke:#181818;stroke-width:1.0;" x1="593" x2="933" y1="406.1797" y2="406.1797"/><text fill="#000000" font-family="sans-serif" font-size="13" font-weight="bold" lengthAdjust="spacing" textLength="7" x="600" y="401.3232">7</text><text fill="#000000" font-family="sans-serif" font-size="13" lengthAdjust="spacing" textLength="156" x="611" y="401.3232">save(clinicalDetailsOrError)</text><polygon fill="#181818" points="609,432.5313,599,436.5313,609,440.5313,605,436.5313" style="stroke:#181818;stroke-width:1.0;"/><line style="stroke:#181818;stroke-width:1.0;stroke-dasharray:2.0,2.0;" x1="603" x2="943" y1="436.5313" y2="436.5313"/><text fill="#000000" font-family="sans-serif" font-size="13" font-weight="bold" lengthAdjust="spacing" textLength="7" x="615" y="431.6748">8</text><text fill="#000000" font-family="sans-serif" font-size="13" lengthAdjust="spacing" textLength="52" x="626" y="431.6748">condition</text><polygon fill="#181818" points="785,462.8828,795,466.8828,785,470.8828,789,466.8828" style="stroke:#181818;stroke-width:1.0;"/><line style="stroke:#181818;stroke-width:1.0;" x1="593" x2="791" y1="466.8828" y2="466.8828"/><text fill="#000000" font-family="sans-serif" font-size="13" font-weight="bold" lengthAdjust="spacing" textLength="7" x="600" y="462.0264">9</text><text fill="#000000" font-family="sans-serif" font-size="13" lengthAdjust="spacing" textLength="45" x="611" y="462.0264">toDTO()</text><polygon fill="#181818" points="609,493.2344,599,497.2344,609,501.2344,605,497.2344" style="stroke:#181818;stroke-width:1.0;"/><line style="stroke:#181818;stroke-width:1.0;stroke-dasharray:2.0,2.0;" x1="603" x2="801" y1="497.2344" y2="497.2344"/><text fill="#000000" font-family="sans-serif" font-size="13" font-weight="bold" lengthAdjust="spacing" textLength="14" x="615" y="492.3779">10</text><text fill="#000000" font-family="sans-serif" font-size="13" lengthAdjust="spacing" textLength="106" x="633" y="492.3779">clinicalDetailsDTO</text><polygon fill="#181818" points="429,523.5859,419,527.5859,429,531.5859,425,527.5859" style="stroke:#181818;stroke-width:1.0;"/><line style="stroke:#181818;stroke-width:1.0;stroke-dasharray:2.0,2.0;" x1="423" x2="592" y1="527.5859" y2="527.5859"/><text fill="#000000" font-family="sans-serif" font-size="13" font-weight="bold" lengthAdjust="spacing" textLength="14" x="435" y="522.7295">11</text><text fill="#000000" font-family="sans-serif" font-size="13" lengthAdjust="spacing" textLength="106" x="453" y="522.7295">clinicalDetailsDTO</text><polygon fill="#181818" points="209,553.9375,199,557.9375,209,561.9375,205,557.9375" style="stroke:#181818;stroke-width:1.0;"/><line style="stroke:#181818;stroke-width:1.0;stroke-dasharray:2.0,2.0;" x1="203" x2="412" y1="557.9375" y2="557.9375"/><text fill="#000000" font-family="sans-serif" font-size="13" font-weight="bold" lengthAdjust="spacing" textLength="14" x="215" y="553.0811">12</text><text fill="#000000" font-family="sans-serif" font-size="13" lengthAdjust="spacing" textLength="106" x="233" y="553.0811">clinicalDetailsDTO</text><polygon fill="#181818" points="11,584.2891,1,588.2891,11,592.2891,7,588.2891" style="stroke:#181818;stroke-width:1.0;"/><line style="stroke:#181818;stroke-width:1.0;stroke-dasharray:2.0,2.0;" x1="5" x2="192" y1="588.2891" y2="588.2891"/><text fill="#000000" font-family="sans-serif" font-size="13" font-weight="bold" lengthAdjust="spacing" textLength="14" x="17" y="583.4326">13</text><text fill="#000000" font-family="sans-serif" font-size="13" lengthAdjust="spacing" textLength="106" x="35" y="583.4326">clinicalDetailsDTO</text><!--SRC=[bLJ1Zjf03Btp5RvjG9joHrMbQkbXfQrOBHnx6IRUCDt9E9sPHENlQqy88Ud2jXnGS9wV_PvjxWunrc6rNDPMkTXKzfEcQXdmLuDEOruOLNfLpMQgYUIQQez-LYiVZJOru-65ccXS2Ig0vqSSlNomnXcjx1gZCZOya8kUh4KlS1szlONUec-DHe66Ljz0VbUrW2fLZq7a2XCDkHUiAPX8_fZASbWY8-mJbIMhk2XfgTnorLd-fTC5AtZUR7VPfCdrRZDdRtGqhM9GPm7mfqlYR979oK6rECdDsDB3ZjxGtSCFfzyXBd32F5HAxaaXH_BMb8Sun1QBH0jVkG0wLgd41tZsf364nG8YGGAsoff2w1W7JU31rEWh4mB3GmT1LwGQwKSImw9u82TDsGTzfvw6jcMIGYG4pCCpOvv8QwgKSUzoJJJAb2N4qstHnm0C4ZbSeL4MQFyJTRo7_H5AZBAPdGYb3r2OW2eWl7ggac3FQy0FR6rva83nyBWUYxvG8gqFGle-H47UERA2IVyR_yrxyfSaVTh8aHIGBsKZFBw2SiTpimLXS7SHyBS9hAlkHiYjnyRpY30LaDpFUNuQIufbys5ybuxtwtzbVAUMvzU5d-ydxKFFbf-NGlTdDzg2FkdZJTXjilb_sGv_-SuSKy-lr1tkypR5n8B-phfpkFYBkCsIyYONBMFxj-o4-WC0]--></g></svg>