<?xml version="1.0" encoding="us-ascii" standalone="no"?><svg xmlns="http://www.w3.org/2000/svg" xmlns:xlink="http://www.w3.org/1999/xlink" contentStyleType="text/css" height="366px" preserveAspectRatio="none" style="width:388px;height:366px;background:#FFFFFF;" version="1.1" viewBox="0 0 388 366" width="388px" zoomAndPan="magnify"><defs/><g><rect fill="#FFFFFF" height="22.3516" style="stroke:#181818;stroke-width:1.0;" width="10" x="24" y="92.6094"/><rect fill="#FFFFFF" height="30.3516" style="stroke:#181818;stroke-width:1.0;" width="10" x="24" y="145.3125"/><rect fill="#FFFFFF" height="30.3516" style="stroke:#181818;stroke-width:1.0;" width="10" x="24" y="206.0156"/><rect fill="#FFFFFF" height="9" style="stroke:#181818;stroke-width:1.0;" width="10" x="24" y="266.7188"/><rect fill="#FFFFFF" height="30.3516" style="stroke:#181818;stroke-width:1.0;" width="10" x="356" y="114.9609"/><rect fill="#FFFFFF" height="30.3516" style="stroke:#181818;stroke-width:1.0;" width="10" x="356" y="175.6641"/><rect fill="#FFFFFF" height="30.3516" style="stroke:#181818;stroke-width:1.0;" width="10" x="356" y="236.3672"/><line style="stroke:#181818;stroke-width:0.5;stroke-dasharray:5.0,5.0;" x1="29" x2="29" y1="82.6094" y2="284.7188"/><line style="stroke:#181818;stroke-width:0.5;stroke-dasharray:5.0,5.0;" x1="361" x2="361" y1="82.6094" y2="284.7188"/><text fill="#000000" font-family="sans-serif" font-size="14" lengthAdjust="spacing" textLength="42" x="5" y="79.5332">Doctor</text><ellipse cx="29" cy="13.5" fill="#E2E2F0" rx="8" ry="8" style="stroke:#181818;stroke-width:0.5;"/><path d="M29,21.5 L29,48.5 M16,29.5 L42,29.5 M29,48.5 L16,63.5 M29,48.5 L42,63.5 " fill="none" style="stroke:#181818;stroke-width:0.5;"/><text fill="#000000" font-family="sans-serif" font-size="14" lengthAdjust="spacing" textLength="42" x="5" y="298.252">Doctor</text><ellipse cx="29" cy="309.8281" fill="#E2E2F0" rx="8" ry="8" style="stroke:#181818;stroke-width:0.5;"/><path d="M29,317.8281 L29,344.8281 M16,325.8281 L42,325.8281 M29,344.8281 L16,359.8281 M29,344.8281 L42,359.8281 " fill="none" style="stroke:#181818;stroke-width:0.5;"/><text fill="#000000" font-family="sans-serif" font-size="14" lengthAdjust="spacing" textLength="46" x="335" y="79.5332">System</text><ellipse cx="361" cy="13.5" fill="#E2E2F0" rx="8" ry="8" style="stroke:#181818;stroke-width:0.5;"/><path d="M361,21.5 L361,48.5 M348,29.5 L374,29.5 M361,48.5 L348,63.5 M361,48.5 L374,63.5 " fill="none" style="stroke:#181818;stroke-width:0.5;"/><text fill="#000000" font-family="sans-serif" font-size="14" lengthAdjust="spacing" textLength="46" x="335" y="298.252">System</text><ellipse cx="361" cy="309.8281" fill="#E2E2F0" rx="8" ry="8" style="stroke:#181818;stroke-width:0.5;"/><path d="M361,317.8281 L361,344.8281 M348,325.8281 L374,325.8281 M361,344.8281 L348,359.8281 M361,344.8281 L374,359.8281 " fill="none" style="stroke:#181818;stroke-width:0.5;"/><rect fill="#FFFFFF" height="22.3516" style="stroke:#181818;stroke-width:1.0;" width="10" x="24" y="92.6094"/><rect fill="#FFFFFF" height="30.3516" style="stroke:#181818;stroke-width:1.0;" width="10" x="24" y="145.3125"/><rect fill="#FFFFFF" height="30.3516" style="stroke:#181818;stroke-width:1.0;" width="10" x="24" y="206.0156"/><rect fill="#FFFFFF" height="9" style="stroke:#181818;stroke-width:1.0;" width="10" x="24" y="266.7188"/><rect fill="#FFFFFF" height="30.3516" style="stroke:#181818;stroke-width:1.0;" width="10" x="356" y="114.9609"/><rect fill="#FFFFFF" height="30.3516" style="stroke:#181818;stroke-width:1.0;" width="10" x="356" y="175.6641"/><rect fill="#FFFFFF" height="30.3516" style="stroke:#181818;stroke-width:1.0;" width="10" x="356" y="236.3672"/><polygon fill="#181818" points="344,110.9609,354,114.9609,344,118.9609,348,114.9609" style="stroke:#181818;stroke-width:1.0;"/><line style="stroke:#181818;stroke-width:1.0;" x1="29" x2="350" y1="114.9609" y2="114.9609"/><text fill="#000000" font-family="sans-serif" font-size="13" lengthAdjust="spacing" textLength="240" x="36" y="110.1045">requests to update patient medical record</text><polygon fill="#181818" points="45,141.3125,35,145.3125,45,149.3125,41,145.3125" style="stroke:#181818;stroke-width:1.0;"/><line style="stroke:#181818;stroke-width:1.0;stroke-dasharray:2.0,2.0;" x1="39" x2="360" y1="145.3125" y2="145.3125"/><text fill="#000000" font-family="sans-serif" font-size="13" lengthAdjust="spacing" textLength="95" x="51" y="140.4561">requests Patient</text><polygon fill="#181818" points="344,171.6641,354,175.6641,344,179.6641,348,175.6641" style="stroke:#181818;stroke-width:1.0;"/><line style="stroke:#181818;stroke-width:1.0;" x1="29" x2="350" y1="175.6641" y2="175.6641"/><text fill="#000000" font-family="sans-serif" font-size="13" lengthAdjust="spacing" textLength="87" x="36" y="170.8076">selects Patient</text><polygon fill="#181818" points="45,202.0156,35,206.0156,45,210.0156,41,206.0156" style="stroke:#181818;stroke-width:1.0;"/><line style="stroke:#181818;stroke-width:1.0;stroke-dasharray:2.0,2.0;" x1="39" x2="360" y1="206.0156" y2="206.0156"/><text fill="#000000" font-family="sans-serif" font-size="13" lengthAdjust="spacing" textLength="303" x="51" y="201.1592">requests new ClinicalDetails (add + remove process)</text><polygon fill="#181818" points="344,232.3672,354,236.3672,344,240.3672,348,236.3672" style="stroke:#181818;stroke-width:1.0;"/><line style="stroke:#181818;stroke-width:1.0;" x1="29" x2="350" y1="236.3672" y2="236.3672"/><text fill="#000000" font-family="sans-serif" font-size="13" lengthAdjust="spacing" textLength="148" x="36" y="231.5107">sends new ClinicalDetails</text><polygon fill="#181818" points="45,262.7188,35,266.7188,45,270.7188,41,266.7188" style="stroke:#181818;stroke-width:1.0;"/><line style="stroke:#181818;stroke-width:1.0;stroke-dasharray:2.0,2.0;" x1="39" x2="360" y1="266.7188" y2="266.7188"/><text fill="#000000" font-family="sans-serif" font-size="13" lengthAdjust="spacing" textLength="234" x="51" y="261.8623">shows requested updated ClinicalDetails</text><!--SRC=[dP513i8W44Ntd6AM6jCBk71Z3s3Y2GWpYIGKAZDjqziBj8sDQJHr1GoVDs-2DX8YrA4icW7BJkboleyirEGoZwnKhjfU2osfQO7gak_X396U7R4mI82knPnijLZo0WsXDTgbY0aH5T8dwmtFlJAlIjovmmfzcu1hGf7xvSRao6o_tsdWQO2hipxFKvDewnWE6X5EATE4FWqTWo7cun-I7ZSRxDVbHnXuaIQS_mE_WJSLNm00]--></g></svg>