<?xml version="1.0" encoding="us-ascii" standalone="no"?><svg xmlns="http://www.w3.org/2000/svg" xmlns:xlink="http://www.w3.org/1999/xlink" contentStyleType="text/css" height="523px" preserveAspectRatio="none" style="width:1261px;height:523px;background:#FFFFFF;" version="1.1" viewBox="0 0 1261 523" width="1261px" zoomAndPan="magnify"><defs/><g><text fill="#000000" font-family="sans-serif" font-size="14" font-weight="bold" lengthAdjust="spacing" textLength="210" x="527.25" y="27.9951">Sequence Diagram - US 23</text><rect fill="#FFFFFF" height="365.8594" style="stroke:#181818;stroke-width:1.0;" width="10" x="268" y="104.7266"/><rect fill="#FFFFFF" height="292.4609" style="stroke:#181818;stroke-width:1.0;" width="10" x="551" y="148.9922"/><rect fill="#FFFFFF" height="174.9609" style="stroke:#181818;stroke-width:1.0;" width="10" x="764.5" y="237.3594"/><rect fill="#FFFFFF" height="29.1328" style="stroke:#181818;stroke-width:1.0;" width="10" x="988.5" y="281.625"/><rect fill="none" height="58.4297" style="stroke:#000000;stroke-width:1.5;" width="579" x="676.5" y="325.7578"/><line style="stroke:#181818;stroke-width:0.5;stroke-dasharray:5.0,5.0;" x1="273" x2="273" y1="73.5938" y2="488.5859"/><line style="stroke:#181818;stroke-width:0.5;stroke-dasharray:5.0,5.0;" x1="555.5" x2="555.5" y1="73.5938" y2="488.5859"/><line style="stroke:#181818;stroke-width:0.5;stroke-dasharray:5.0,5.0;" x1="769.5" x2="769.5" y1="73.5938" y2="488.5859"/><line style="stroke:#181818;stroke-width:0.5;stroke-dasharray:5.0,5.0;" x1="993.5" x2="993.5" y1="73.5938" y2="488.5859"/><line style="stroke:#181818;stroke-width:0.5;stroke-dasharray:5.0,5.0;" x1="1171.5" x2="1171.5" y1="373.5391" y2="488.5859"/><rect fill="#E2E2F0" height="30.2969" rx="2.5" ry="2.5" style="stroke:#181818;stroke-width:0.5;" width="68" x="239" y="42.2969"/><text fill="#000000" font-family="sans-serif" font-size="14" lengthAdjust="spacing" textLength="54" x="246" y="62.292">Routing</text><rect fill="#E2E2F0" height="30.2969" rx="2.5" ry="2.5" style="stroke:#181818;stroke-width:0.5;" width="68" x="239" y="487.5859"/><text fill="#000000" font-family="sans-serif" font-size="14" lengthAdjust="spacing" textLength="54" x="246" y="507.5811">Routing</text><rect fill="#E2E2F0" height="30.2969" rx="2.5" ry="2.5" style="stroke:#181818;stroke-width:0.5;" width="241" x="435.5" y="42.2969"/><text fill="#000000" font-family="sans-serif" font-size="14" lengthAdjust="spacing" textLength="227" x="442.5" y="62.292">RegisterOperationTypeController</text><rect fill="#E2E2F0" height="30.2969" rx="2.5" ry="2.5" style="stroke:#181818;stroke-width:0.5;" width="241" x="435.5" y="487.5859"/><text fill="#000000" font-family="sans-serif" font-size="14" lengthAdjust="spacing" textLength="227" x="442.5" y="507.5811">RegisterOperationTypeController</text><rect fill="#E2E2F0" height="30.2969" rx="2.5" ry="2.5" style="stroke:#181818;stroke-width:0.5;" width="166" x="686.5" y="42.2969"/><text fill="#000000" font-family="sans-serif" font-size="14" lengthAdjust="spacing" textLength="152" x="693.5" y="62.292">OperationTypeService</text><rect fill="#E2E2F0" height="30.2969" rx="2.5" ry="2.5" style="stroke:#181818;stroke-width:0.5;" width="166" x="686.5" y="487.5859"/><text fill="#000000" font-family="sans-serif" font-size="14" lengthAdjust="spacing" textLength="152" x="693.5" y="507.5811">OperationTypeService</text><rect fill="#E2E2F0" height="30.2969" rx="2.5" ry="2.5" style="stroke:#181818;stroke-width:0.5;" width="190" x="898.5" y="42.2969"/><text fill="#000000" font-family="sans-serif" font-size="14" lengthAdjust="spacing" textLength="176" x="905.5" y="62.292">OperationTypeRepository</text><rect fill="#E2E2F0" height="30.2969" rx="2.5" ry="2.5" style="stroke:#181818;stroke-width:0.5;" width="190" x="898.5" y="487.5859"/><text fill="#000000" font-family="sans-serif" font-size="14" lengthAdjust="spacing" textLength="176" x="905.5" y="507.5811">OperationTypeRepository</text><rect fill="#E2E2F0" height="30.2969" rx="2.5" ry="2.5" style="stroke:#181818;stroke-width:0.5;" width="147" x="1098.5" y="487.5859"/><text fill="#000000" font-family="sans-serif" font-size="14" lengthAdjust="spacing" textLength="133" x="1105.5" y="507.5811">OperationTypeDTO</text><rect fill="#FFFFFF" height="365.8594" style="stroke:#181818;stroke-width:1.0;" width="10" x="268" y="104.7266"/><rect fill="#FFFFFF" height="292.4609" style="stroke:#181818;stroke-width:1.0;" width="10" x="551" y="148.9922"/><rect fill="#FFFFFF" height="174.9609" style="stroke:#181818;stroke-width:1.0;" width="10" x="764.5" y="237.3594"/><rect fill="#FFFFFF" height="29.1328" style="stroke:#181818;stroke-width:1.0;" width="10" x="988.5" y="281.625"/><polygon fill="#181818" points="256,100.7266,266,104.7266,256,108.7266,260,104.7266" style="stroke:#181818;stroke-width:1.0;"/><line style="stroke:#181818;stroke-width:1.0;" x1="0" x2="262" y1="104.7266" y2="104.7266"/><text fill="#000000" font-family="sans-serif" font-size="13" lengthAdjust="spacing" textLength="249" x="7" y="99.6606">POST(operationTypeName, authToken)</text><polygon fill="#181818" points="539,144.9922,549,148.9922,539,152.9922,543,148.9922" style="stroke:#181818;stroke-width:1.0;"/><line style="stroke:#181818;stroke-width:1.0;" x1="278" x2="545" y1="148.9922" y2="148.9922"/><text fill="#000000" font-family="sans-serif" font-size="13" lengthAdjust="spacing" textLength="201" x="285" y="128.7935">FilteredSearch(operationName,</text><text fill="#000000" font-family="sans-serif" font-size="13" lengthAdjust="spacing" textLength="254" x="285" y="143.9263">specialization, activeStatus, authToken)</text><rect fill="none" height="39.1016" style="stroke:#000000;stroke-width:1.5;" width="247" x="432.5" y="156.9922"/><path d="M432.5,156.9922 L498.5,156.9922 L498.5,163.9922 L488.5,173.9922 L432.5,173.9922 L432.5,156.9922 " fill="#EEEEEE" style="stroke:#000000;stroke-width:2.0;"/><text fill="#000000" font-family="sans-serif" font-size="13" font-weight="bold" lengthAdjust="spacing" textLength="21" x="445.5" y="171.0591">ref</text><text fill="#000000" font-family="sans-serif" font-size="12" lengthAdjust="spacing" textLength="155" x="478.5" y="189.1309">Refer to generic auth SD</text><polygon fill="#181818" points="752.5,233.3594,762.5,237.3594,752.5,241.3594,756.5,237.3594" style="stroke:#181818;stroke-width:1.0;"/><line style="stroke:#181818;stroke-width:1.0;" x1="561" x2="758.5" y1="237.3594" y2="237.3594"/><text fill="#000000" font-family="sans-serif" font-size="13" lengthAdjust="spacing" textLength="181" x="568" y="217.1606">FilteredGet(OperationName,</text><text fill="#000000" font-family="sans-serif" font-size="13" lengthAdjust="spacing" textLength="182" x="568" y="232.2935">Specialization, ActiveStatus)</text><polygon fill="#181818" points="976.5,277.625,986.5,281.625,976.5,285.625,980.5,281.625" style="stroke:#181818;stroke-width:1.0;"/><line style="stroke:#181818;stroke-width:1.0;" x1="774.5" x2="982.5" y1="281.625" y2="281.625"/><text fill="#000000" font-family="sans-serif" font-size="13" lengthAdjust="spacing" textLength="181" x="781.5" y="261.4263">GetFiltered(OperationName,</text><text fill="#000000" font-family="sans-serif" font-size="13" lengthAdjust="spacing" textLength="195" x="781.5" y="276.5591">Specialization, ActivateStatus)</text><polygon fill="#181818" points="785.5,306.7578,775.5,310.7578,785.5,314.7578,781.5,310.7578" style="stroke:#181818;stroke-width:1.0;"/><line style="stroke:#181818;stroke-width:1.0;stroke-dasharray:2.0,2.0;" x1="779.5" x2="992.5" y1="310.7578" y2="310.7578"/><text fill="#000000" font-family="sans-serif" font-size="13" lengthAdjust="spacing" textLength="100" x="791.5" y="305.6919">OperationTypes</text><path d="M676.5,325.7578 L753.5,325.7578 L753.5,332.8906 L743.5,342.8906 L676.5,342.8906 L676.5,325.7578 " fill="#EEEEEE" style="stroke:#000000;stroke-width:1.5;"/><rect fill="none" height="58.4297" style="stroke:#000000;stroke-width:1.5;" width="579" x="676.5" y="325.7578"/><text fill="#000000" font-family="sans-serif" font-size="13" font-weight="bold" lengthAdjust="spacing" textLength="32" x="691.5" y="338.8247">loop</text><text fill="#000000" font-family="sans-serif" font-size="11" font-weight="bold" lengthAdjust="spacing" textLength="161" x="768.5" y="337.9683">[for each operation type]</text><polygon fill="#181818" points="1086.5,360.0234,1096.5,364.0234,1086.5,368.0234,1090.5,364.0234" style="stroke:#181818;stroke-width:1.0;"/><line style="stroke:#181818;stroke-width:1.0;" x1="774.5" x2="1092.5" y1="364.0234" y2="364.0234"/><text fill="#000000" font-family="sans-serif" font-size="13" lengthAdjust="spacing" textLength="51" x="781.5" y="358.9575">create()</text><rect fill="#E2E2F0" height="30.2969" rx="2.5" ry="2.5" style="stroke:#181818;stroke-width:0.5;" width="147" x="1098.5" y="342.8906"/><text fill="#000000" font-family="sans-serif" font-size="14" lengthAdjust="spacing" textLength="133" x="1105.5" y="362.8857">OperationTypeDTO</text><polygon fill="#181818" points="572,408.3203,562,412.3203,572,416.3203,568,412.3203" style="stroke:#181818;stroke-width:1.0;"/><line style="stroke:#181818;stroke-width:1.0;stroke-dasharray:2.0,2.0;" x1="566" x2="768.5" y1="412.3203" y2="412.3203"/><text fill="#000000" font-family="sans-serif" font-size="13" lengthAdjust="spacing" textLength="118" x="578" y="407.2544">operationTypeDTO</text><polygon fill="#181818" points="289,437.4531,279,441.4531,289,445.4531,285,441.4531" style="stroke:#181818;stroke-width:1.0;"/><line style="stroke:#181818;stroke-width:1.0;stroke-dasharray:2.0,2.0;" x1="283" x2="555" y1="441.4531" y2="441.4531"/><text fill="#000000" font-family="sans-serif" font-size="13" lengthAdjust="spacing" textLength="100" x="295" y="436.3872">operationResult</text><polygon fill="#181818" points="11,466.5859,1,470.5859,11,474.5859,7,470.5859" style="stroke:#181818;stroke-width:1.0;"/><line style="stroke:#181818;stroke-width:1.0;stroke-dasharray:2.0,2.0;" x1="5" x2="272" y1="470.5859" y2="470.5859"/><text fill="#000000" font-family="sans-serif" font-size="13" lengthAdjust="spacing" textLength="100" x="17" y="465.52">operationResult</text><!--SRC=[ZPBDJiCm48JlVeezjXMvm0qX94HRRWJ5WHCNozcc5guTd4sbylIi7RL92XNSyZFpUNRMPCWYIFpiq6c4fL5rK3l8u5N2zOqGZGfaj6cK8oXyHyRLe5e8DFs3jMa9GzvWK6IyAmyDFdf7mLkB8Jeq1JlnJBGImzxm-Ini-V6oiC36juPyEAGO_7PPkoppAAh82v7TSsQuXPTSbZC_LZsh7Lw1wcXR-WzqSw4qcRqYZ4CADh4rXcVpsbWU4Yk9AkZjW4c8TzSsg8sovYjzP6O4eIH5NVlx2QaKKQpMaB-jYlwrm0qtHXvgT1YCJaQGIu6kue4tGgGqd2esDKhrX3JBpoB9iqWFeqXpCGH9fOi4Z4rnhGncu97zFp2JVgBJZX8n6p9FzjIA2gToORrlOEC3y8yjd8e6Olaf9YzsiM2O3iZEsJmr59t7IORD-RDxCJwndxqlzNXDJle2syxIMDxlx2xB_bJo_Va6]--></g></svg>