<?xml version="1.0" encoding="us-ascii" standalone="no"?><svg xmlns="http://www.w3.org/2000/svg" xmlns:xlink="http://www.w3.org/1999/xlink" contentStyleType="text/css" height="901px" preserveAspectRatio="none" style="width:1805px;height:901px;background:#FFFFFF;" version="1.1" viewBox="0 0 1805 901" width="1805px" zoomAndPan="magnify"><defs/><g><text fill="#000000" font-family="sans-serif" font-size="14" font-weight="bold" lengthAdjust="spacing" textLength="240" x="781.5" y="27.9951">Sequence Diagram - US 7.2.13</text><rect fill="#FFFFFF" height="743.3516" style="stroke:#181818;stroke-width:1.0;" width="10" x="260" y="104.7266"/><rect fill="#FFFFFF" height="685.0859" style="stroke:#181818;stroke-width:1.0;" width="10" x="640" y="133.8594"/><rect fill="#FFFFFF" height="582.7188" style="stroke:#181818;stroke-width:1.0;" width="10" x="968" y="207.0938"/><rect fill="#FFFFFF" height="29.1328" style="stroke:#181818;stroke-width:1.0;" width="10" x="1216" y="236.2266"/><rect fill="#FFFFFF" height="29.1328" style="stroke:#181818;stroke-width:1.0;" width="10" x="1216" y="418.1875"/><rect fill="#FFFFFF" height="29.1328" style="stroke:#181818;stroke-width:1.0;" width="10" x="1216" y="690.25"/><rect fill="#FFFFFF" height="29.1328" style="stroke:#181818;stroke-width:1.0;" width="10" x="1360.5" y="335.7891"/><rect fill="#FFFFFF" height="14" style="stroke:#181818;stroke-width:1.0;" width="10" x="1468" y="500.5859"/><rect fill="#FFFFFF" height="14" style="stroke:#181818;stroke-width:1.0;" width="10" x="1468" y="581.8516"/><rect fill="#FFFFFF" height="29.1328" style="stroke:#181818;stroke-width:1.0;" width="10" x="1588.5" y="631.9844"/><rect fill="none" height="149.6641" style="stroke:#000000;stroke-width:1.5;" width="673" x="874" y="379.9219"/><rect fill="none" height="60.2656" style="stroke:#000000;stroke-width:1.5;" width="653" x="884" y="462.3203"/><rect fill="none" height="60.2656" style="stroke:#000000;stroke-width:1.5;" width="653" x="884" y="543.5859"/><line style="stroke:#181818;stroke-width:0.5;stroke-dasharray:5.0,5.0;" x1="265" x2="265" y1="73.5938" y2="866.0781"/><line style="stroke:#181818;stroke-width:0.5;stroke-dasharray:5.0,5.0;" x1="644.5" x2="644.5" y1="73.5938" y2="866.0781"/><line style="stroke:#181818;stroke-width:0.5;stroke-dasharray:5.0,5.0;" x1="973" x2="973" y1="73.5938" y2="866.0781"/><line style="stroke:#181818;stroke-width:0.5;stroke-dasharray:5.0,5.0;" x1="1221" x2="1221" y1="73.5938" y2="866.0781"/><line style="stroke:#181818;stroke-width:0.5;stroke-dasharray:5.0,5.0;" x1="1365" x2="1365" y1="304.0078" y2="866.0781"/><line style="stroke:#181818;stroke-width:0.5;stroke-dasharray:5.0,5.0;" x1="1473" x2="1473" y1="73.5938" y2="866.0781"/><line style="stroke:#181818;stroke-width:0.5;stroke-dasharray:5.0,5.0;" x1="1593" x2="1593" y1="73.5938" y2="866.0781"/><line style="stroke:#181818;stroke-width:0.5;stroke-dasharray:5.0,5.0;" x1="1729" x2="1729" y1="758.0313" y2="866.0781"/><rect fill="#E2E2F0" height="30.2969" rx="2.5" ry="2.5" style="stroke:#181818;stroke-width:0.5;" width="68" x="231" y="42.2969"/><text fill="#000000" font-family="sans-serif" font-size="14" lengthAdjust="spacing" textLength="54" x="238" y="62.292">Routing</text><rect fill="#E2E2F0" height="30.2969" rx="2.5" ry="2.5" style="stroke:#181818;stroke-width:0.5;" width="68" x="231" y="865.0781"/><text fill="#000000" font-family="sans-serif" font-size="14" lengthAdjust="spacing" textLength="54" x="238" y="885.0732">Routing</text><rect fill="#E2E2F0" height="30.2969" rx="2.5" ry="2.5" style="stroke:#181818;stroke-width:0.5;" width="175" x="557.5" y="42.2969"/><text fill="#000000" font-family="sans-serif" font-size="14" lengthAdjust="spacing" textLength="161" x="564.5" y="62.292">SpecializationController</text><rect fill="#E2E2F0" height="30.2969" rx="2.5" ry="2.5" style="stroke:#181818;stroke-width:0.5;" width="175" x="557.5" y="865.0781"/><text fill="#000000" font-family="sans-serif" font-size="14" lengthAdjust="spacing" textLength="161" x="564.5" y="885.0732">SpecializationController</text><rect fill="#E2E2F0" height="30.2969" rx="2.5" ry="2.5" style="stroke:#181818;stroke-width:0.5;" width="158" x="894" y="42.2969"/><text fill="#000000" font-family="sans-serif" font-size="14" lengthAdjust="spacing" textLength="144" x="901" y="62.292">SpecializationService</text><rect fill="#E2E2F0" height="30.2969" rx="2.5" ry="2.5" style="stroke:#181818;stroke-width:0.5;" width="158" x="894" y="865.0781"/><text fill="#000000" font-family="sans-serif" font-size="14" lengthAdjust="spacing" textLength="144" x="901" y="885.0732">SpecializationService</text><rect fill="#E2E2F0" height="30.2969" rx="2.5" ry="2.5" style="stroke:#181818;stroke-width:0.5;" width="182" x="1130" y="42.2969"/><text fill="#000000" font-family="sans-serif" font-size="14" lengthAdjust="spacing" textLength="168" x="1137" y="62.292">SpecializationRepository</text><rect fill="#E2E2F0" height="30.2969" rx="2.5" ry="2.5" style="stroke:#181818;stroke-width:0.5;" width="182" x="1130" y="865.0781"/><text fill="#000000" font-family="sans-serif" font-size="14" lengthAdjust="spacing" textLength="168" x="1137" y="885.0732">SpecializationRepository</text><rect fill="#E2E2F0" height="30.2969" rx="2.5" ry="2.5" style="stroke:#181818;stroke-width:0.5;" width="87" x="1322" y="865.0781"/><text fill="#000000" font-family="sans-serif" font-size="14" lengthAdjust="spacing" textLength="73" x="1329" y="885.0732">LogBuilder</text><rect fill="#E2E2F0" height="30.2969" rx="2.5" ry="2.5" style="stroke:#181818;stroke-width:0.5;" width="108" x="1419" y="42.2969"/><text fill="#000000" font-family="sans-serif" font-size="14" lengthAdjust="spacing" textLength="94" x="1426" y="62.292">Specialization</text><rect fill="#E2E2F0" height="30.2969" rx="2.5" ry="2.5" style="stroke:#181818;stroke-width:0.5;" width="108" x="1419" y="865.0781"/><text fill="#000000" font-family="sans-serif" font-size="14" lengthAdjust="spacing" textLength="94" x="1426" y="885.0732">Specialization</text><rect fill="#E2E2F0" height="30.2969" rx="2.5" ry="2.5" style="stroke:#181818;stroke-width:0.5;" width="113" x="1537" y="42.2969"/><text fill="#000000" font-family="sans-serif" font-size="14" lengthAdjust="spacing" textLength="99" x="1544" y="62.292">LogRepository</text><rect fill="#E2E2F0" height="30.2969" rx="2.5" ry="2.5" style="stroke:#181818;stroke-width:0.5;" width="113" x="1537" y="865.0781"/><text fill="#000000" font-family="sans-serif" font-size="14" lengthAdjust="spacing" textLength="99" x="1544" y="885.0732">LogRepository</text><rect fill="#E2E2F0" height="30.2969" rx="2.5" ry="2.5" style="stroke:#181818;stroke-width:0.5;" width="139" x="1660" y="865.0781"/><text fill="#000000" font-family="sans-serif" font-size="14" lengthAdjust="spacing" textLength="125" x="1667" y="885.0732">SpecializationDTO</text><rect fill="#FFFFFF" height="743.3516" style="stroke:#181818;stroke-width:1.0;" width="10" x="260" y="104.7266"/><rect fill="#FFFFFF" height="685.0859" style="stroke:#181818;stroke-width:1.0;" width="10" x="640" y="133.8594"/><rect fill="#FFFFFF" height="582.7188" style="stroke:#181818;stroke-width:1.0;" width="10" x="968" y="207.0938"/><rect fill="#FFFFFF" height="29.1328" style="stroke:#181818;stroke-width:1.0;" width="10" x="1216" y="236.2266"/><rect fill="#FFFFFF" height="29.1328" style="stroke:#181818;stroke-width:1.0;" width="10" x="1216" y="418.1875"/><rect fill="#FFFFFF" height="29.1328" style="stroke:#181818;stroke-width:1.0;" width="10" x="1216" y="690.25"/><rect fill="#FFFFFF" height="29.1328" style="stroke:#181818;stroke-width:1.0;" width="10" x="1360.5" y="335.7891"/><rect fill="#FFFFFF" height="14" style="stroke:#181818;stroke-width:1.0;" width="10" x="1468" y="500.5859"/><rect fill="#FFFFFF" height="14" style="stroke:#181818;stroke-width:1.0;" width="10" x="1468" y="581.8516"/><rect fill="#FFFFFF" height="29.1328" style="stroke:#181818;stroke-width:1.0;" width="10" x="1588.5" y="631.9844"/><polygon fill="#181818" points="248,100.7266,258,104.7266,248,108.7266,252,104.7266" style="stroke:#181818;stroke-width:1.0;"/><line style="stroke:#181818;stroke-width:1.0;" x1="0" x2="254" y1="104.7266" y2="104.7266"/><text fill="#000000" font-family="sans-serif" font-size="13" lengthAdjust="spacing" textLength="241" x="7" y="99.6606">PATCH(specializationDTO, authToken)</text><polygon fill="#181818" points="628,129.8594,638,133.8594,628,137.8594,632,133.8594" style="stroke:#181818;stroke-width:1.0;"/><line style="stroke:#181818;stroke-width:1.0;" x1="270" x2="634" y1="133.8594" y2="133.8594"/><text fill="#000000" font-family="sans-serif" font-size="13" lengthAdjust="spacing" textLength="351" x="277" y="128.7935">EditSpecialization(code, name, description, authToken)</text><rect fill="none" height="39.1016" style="stroke:#000000;stroke-width:1.5;" width="181" x="554.5" y="141.8594"/><path d="M554.5,141.8594 L620.5,141.8594 L620.5,148.8594 L610.5,158.8594 L554.5,158.8594 L554.5,141.8594 " fill="#EEEEEE" style="stroke:#000000;stroke-width:2.0;"/><text fill="#000000" font-family="sans-serif" font-size="13" font-weight="bold" lengthAdjust="spacing" textLength="21" x="567.5" y="155.9263">ref</text><text fill="#000000" font-family="sans-serif" font-size="12" lengthAdjust="spacing" textLength="155" x="567.5" y="173.998">Refer to generic auth SD</text><polygon fill="#181818" points="956,203.0938,966,207.0938,956,211.0938,960,207.0938" style="stroke:#181818;stroke-width:1.0;"/><line style="stroke:#181818;stroke-width:1.0;" x1="650" x2="962" y1="207.0938" y2="207.0938"/><text fill="#000000" font-family="sans-serif" font-size="13" lengthAdjust="spacing" textLength="299" x="657" y="202.0278">UpdateSpecialization(code, name, description)</text><polygon fill="#181818" points="1204,232.2266,1214,236.2266,1204,240.2266,1208,236.2266" style="stroke:#181818;stroke-width:1.0;"/><line style="stroke:#181818;stroke-width:1.0;" x1="978" x2="1210" y1="236.2266" y2="236.2266"/><text fill="#000000" font-family="sans-serif" font-size="13" lengthAdjust="spacing" textLength="219" x="985" y="231.1606">GetByIdAsync(SpecializationCode)</text><polygon fill="#181818" points="989,261.3594,979,265.3594,989,269.3594,985,265.3594" style="stroke:#181818;stroke-width:1.0;"/><line style="stroke:#181818;stroke-width:1.0;stroke-dasharray:2.0,2.0;" x1="983" x2="1220" y1="265.3594" y2="265.3594"/><text fill="#000000" font-family="sans-serif" font-size="13" lengthAdjust="spacing" textLength="86" x="995" y="260.2935">specialization</text><polygon fill="#181818" points="1310,290.4922,1320,294.4922,1310,298.4922,1314,294.4922" style="stroke:#181818;stroke-width:1.0;"/><line style="stroke:#181818;stroke-width:1.0;" x1="978" x2="1316" y1="294.4922" y2="294.4922"/><text fill="#000000" font-family="sans-serif" font-size="13" lengthAdjust="spacing" textLength="51" x="985" y="289.4263">create()</text><rect fill="#E2E2F0" height="30.2969" rx="2.5" ry="2.5" style="stroke:#181818;stroke-width:0.5;" width="87" x="1322" y="273.3594"/><text fill="#000000" font-family="sans-serif" font-size="14" lengthAdjust="spacing" textLength="73" x="1329" y="293.3545">LogBuilder</text><polygon fill="#181818" points="1348.5,331.7891,1358.5,335.7891,1348.5,339.7891,1352.5,335.7891" style="stroke:#181818;stroke-width:1.0;"/><line style="stroke:#181818;stroke-width:1.0;" x1="978" x2="1354.5" y1="335.7891" y2="335.7891"/><text fill="#000000" font-family="sans-serif" font-size="13" lengthAdjust="spacing" textLength="41" x="985" y="330.7231">Build()</text><polygon fill="#181818" points="989,360.9219,979,364.9219,989,368.9219,985,364.9219" style="stroke:#181818;stroke-width:1.0;"/><line style="stroke:#181818;stroke-width:1.0;stroke-dasharray:2.0,2.0;" x1="983" x2="1364.5" y1="364.9219" y2="364.9219"/><text fill="#000000" font-family="sans-serif" font-size="13" lengthAdjust="spacing" textLength="19" x="995" y="359.856">log</text><path d="M874,379.9219 L938,379.9219 L938,387.0547 L928,397.0547 L874,397.0547 L874,379.9219 " fill="#EEEEEE" style="stroke:#000000;stroke-width:1.5;"/><rect fill="none" height="149.6641" style="stroke:#000000;stroke-width:1.5;" width="673" x="874" y="379.9219"/><text fill="#000000" font-family="sans-serif" font-size="13" font-weight="bold" lengthAdjust="spacing" textLength="19" x="889" y="392.9888">alt</text><text fill="#000000" font-family="sans-serif" font-size="11" font-weight="bold" lengthAdjust="spacing" textLength="158" x="953" y="392.1323">[name not null or empty]</text><polygon fill="#181818" points="1204,414.1875,1214,418.1875,1204,422.1875,1208,418.1875" style="stroke:#181818;stroke-width:1.0;"/><line style="stroke:#181818;stroke-width:1.0;" x1="978" x2="1210" y1="418.1875" y2="418.1875"/><text fill="#000000" font-family="sans-serif" font-size="13" lengthAdjust="spacing" textLength="215" x="985" y="413.1216">GetByName(SpecializationName)</text><polygon fill="#181818" points="989,443.3203,979,447.3203,989,451.3203,985,447.3203" style="stroke:#181818;stroke-width:1.0;"/><line style="stroke:#181818;stroke-width:1.0;stroke-dasharray:2.0,2.0;" x1="983" x2="1220" y1="447.3203" y2="447.3203"/><text fill="#000000" font-family="sans-serif" font-size="13" lengthAdjust="spacing" textLength="86" x="995" y="442.2544">specialization</text><path d="M884,462.3203 L948,462.3203 L948,469.4531 L938,479.4531 L884,479.4531 L884,462.3203 " fill="#EEEEEE" style="stroke:#000000;stroke-width:1.5;"/><rect fill="none" height="60.2656" style="stroke:#000000;stroke-width:1.5;" width="653" x="884" y="462.3203"/><text fill="#000000" font-family="sans-serif" font-size="13" font-weight="bold" lengthAdjust="spacing" textLength="19" x="899" y="475.3872">alt</text><text fill="#000000" font-family="sans-serif" font-size="11" font-weight="bold" lengthAdjust="spacing" textLength="223" x="963" y="474.5308">[no specialization uses that name]</text><polygon fill="#181818" points="1456,496.5859,1466,500.5859,1456,504.5859,1460,500.5859" style="stroke:#181818;stroke-width:1.0;"/><line style="stroke:#181818;stroke-width:1.0;" x1="978" x2="1462" y1="500.5859" y2="500.5859"/><text fill="#000000" font-family="sans-serif" font-size="13" lengthAdjust="spacing" textLength="225" x="985" y="495.52">ChangeName(SpecializationName)</text><polygon fill="#181818" points="989,510.5859,979,514.5859,989,518.5859,985,514.5859" style="stroke:#181818;stroke-width:1.0;"/><line style="stroke:#181818;stroke-width:1.0;stroke-dasharray:2.0,2.0;" x1="983" x2="1472" y1="514.5859" y2="514.5859"/><path d="M884,543.5859 L948,543.5859 L948,550.7188 L938,560.7188 L884,560.7188 L884,543.5859 " fill="#EEEEEE" style="stroke:#000000;stroke-width:1.5;"/><rect fill="none" height="60.2656" style="stroke:#000000;stroke-width:1.5;" width="653" x="884" y="543.5859"/><text fill="#000000" font-family="sans-serif" font-size="13" font-weight="bold" lengthAdjust="spacing" textLength="19" x="899" y="556.6528">alt</text><text fill="#000000" font-family="sans-serif" font-size="11" font-weight="bold" lengthAdjust="spacing" textLength="210" x="963" y="555.7964">[description is not null or empty]</text><polygon fill="#181818" points="1456,577.8516,1466,581.8516,1456,585.8516,1460,581.8516" style="stroke:#181818;stroke-width:1.0;"/><line style="stroke:#181818;stroke-width:1.0;" x1="978" x2="1462" y1="581.8516" y2="581.8516"/><text fill="#000000" font-family="sans-serif" font-size="13" lengthAdjust="spacing" textLength="291" x="985" y="576.7856">ChangeDescription(SpecializationDescription)</text><polygon fill="#181818" points="989,591.8516,979,595.8516,989,599.8516,985,595.8516" style="stroke:#181818;stroke-width:1.0;"/><line style="stroke:#181818;stroke-width:1.0;stroke-dasharray:2.0,2.0;" x1="983" x2="1472" y1="595.8516" y2="595.8516"/><polygon fill="#181818" points="1576.5,627.9844,1586.5,631.9844,1576.5,635.9844,1580.5,631.9844" style="stroke:#181818;stroke-width:1.0;"/><line style="stroke:#181818;stroke-width:1.0;" x1="978" x2="1582.5" y1="631.9844" y2="631.9844"/><text fill="#000000" font-family="sans-serif" font-size="13" lengthAdjust="spacing" textLength="92" x="985" y="626.9185">AddAsync(log)</text><polygon fill="#181818" points="989,657.1172,979,661.1172,989,665.1172,985,661.1172" style="stroke:#181818;stroke-width:1.0;"/><line style="stroke:#181818;stroke-width:1.0;stroke-dasharray:2.0,2.0;" x1="983" x2="1592.5" y1="661.1172" y2="661.1172"/><text fill="#000000" font-family="sans-serif" font-size="13" lengthAdjust="spacing" textLength="19" x="995" y="656.0513">log</text><polygon fill="#181818" points="1204,686.25,1214,690.25,1204,694.25,1208,690.25" style="stroke:#181818;stroke-width:1.0;"/><line style="stroke:#181818;stroke-width:1.0;" x1="978" x2="1210" y1="690.25" y2="690.25"/><text fill="#000000" font-family="sans-serif" font-size="13" lengthAdjust="spacing" textLength="143" x="985" y="685.1841">Update(specialization)</text><polygon fill="#181818" points="989,715.3828,979,719.3828,989,723.3828,985,719.3828" style="stroke:#181818;stroke-width:1.0;"/><line style="stroke:#181818;stroke-width:1.0;stroke-dasharray:2.0,2.0;" x1="983" x2="1220" y1="719.3828" y2="719.3828"/><text fill="#000000" font-family="sans-serif" font-size="13" lengthAdjust="spacing" textLength="88" x="995" y="714.3169">Specialization</text><polygon fill="#181818" points="1648,744.5156,1658,748.5156,1648,752.5156,1652,748.5156" style="stroke:#181818;stroke-width:1.0;"/><line style="stroke:#181818;stroke-width:1.0;" x1="978" x2="1654" y1="748.5156" y2="748.5156"/><text fill="#000000" font-family="sans-serif" font-size="13" lengthAdjust="spacing" textLength="51" x="985" y="743.4497">create()</text><rect fill="#E2E2F0" height="30.2969" rx="2.5" ry="2.5" style="stroke:#181818;stroke-width:0.5;" width="139" x="1660" y="727.3828"/><text fill="#000000" font-family="sans-serif" font-size="14" lengthAdjust="spacing" textLength="125" x="1667" y="747.3779">SpecializationDTO</text><polygon fill="#181818" points="661,785.8125,651,789.8125,661,793.8125,657,789.8125" style="stroke:#181818;stroke-width:1.0;"/><line style="stroke:#181818;stroke-width:1.0;stroke-dasharray:2.0,2.0;" x1="655" x2="972" y1="789.8125" y2="789.8125"/><text fill="#000000" font-family="sans-serif" font-size="13" lengthAdjust="spacing" textLength="113" x="667" y="784.7466">specializationDTO</text><polygon fill="#181818" points="281,814.9453,271,818.9453,281,822.9453,277,818.9453" style="stroke:#181818;stroke-width:1.0;"/><line style="stroke:#181818;stroke-width:1.0;stroke-dasharray:2.0,2.0;" x1="275" x2="644" y1="818.9453" y2="818.9453"/><text fill="#000000" font-family="sans-serif" font-size="13" lengthAdjust="spacing" textLength="113" x="287" y="813.8794">specializationDTO</text><polygon fill="#181818" points="11,844.0781,1,848.0781,11,852.0781,7,848.0781" style="stroke:#181818;stroke-width:1.0;"/><line style="stroke:#181818;stroke-width:1.0;stroke-dasharray:2.0,2.0;" x1="5" x2="264" y1="848.0781" y2="848.0781"/><text fill="#000000" font-family="sans-serif" font-size="13" lengthAdjust="spacing" textLength="113" x="17" y="843.0122">specializationDTO</text><!--SRC=[dLHDRzim3BthL_3e57M1ROS1mp0WZRCFO5W7E-rTa5X7c29vibmW-_MZvBQMtCmBUaXWKO_am-CJlV8QeS7V0ng1K2dUEdw04cuRU7_rzkhDEyOwxhmIgkF6Gsq7hqmBl0VdivkcGw6uLd-uLzPihF7EQeqkG8LtUW7Se7jGr9sGFNqk86liRA-yTSV8W4uP-BjjhmUbvTXLFvyMAiQc59dNoJlfCR1GfzhT1A3qbh7o4ua37-3dUhVvMlHpt2NmmUztzXUQ5UF2gmVkCSZ9A8joWrgKlPNAvpqAOILUWk47-fVO2wUw43zTC8hEwkrdkBdRrkEnndlInbjeqQ1J8YP2Kp4qakIyPoms9n9X44JYjfDKwpmQApOrZtDaiKXGWxIZOb_GNn-_oNL_DAAO-qLYAaOGEsQL4vTSI2OnXpztc-P-SK5fmY5XYjM9UxgDNqNIEd5D0aneK3JjdU0PrpxA0iRInw0rM0TuwFpnj1O_23iJ8eHI8L-bHEHXPp0OUkp1x_d8SM8KO5Hqi-UcnNzIcaORNalCcHYb5E9zC5JyHIw9IK3rI-faNAefRKQfIbtt2cQf5-fn86lvQ4mAvNQ8B_y9k6Y4ElFXuwJ79pHR0__pUdEcrsdVd3Bvj4LUR1-MAHAUwVZadvRMouG4F-wKZsLv1fOMsby0]--></g></svg>