<?xml version="1.0" encoding="us-ascii" standalone="no"?><svg xmlns="http://www.w3.org/2000/svg" xmlns:xlink="http://www.w3.org/1999/xlink" contentStyleType="text/css" height="290px" preserveAspectRatio="none" style="width:650px;height:290px;background:#FFFFFF;" version="1.1" viewBox="0 0 650 290" width="650px" zoomAndPan="magnify"><defs/><g><text fill="#000000" font-family="sans-serif" font-size="14" font-weight="bold" lengthAdjust="spacing" textLength="264" x="186" y="22.9951">US 7.2.13 Relevant Domain Model</text><!--cluster SpecializationAggregate--><g id="cluster_SpecializationAggregate"><path d="M8.5,43.2969 L200.5,43.2969 A3.75,3.75 0 0 1 203,45.7969 L210,65.5938 L640.5,65.5938 A2.5,2.5 0 0 1 643,68.0938 L643,280.7969 A2.5,2.5 0 0 1 640.5,283.2969 L8.5,283.2969 A2.5,2.5 0 0 1 6,280.7969 L6,45.7969 A2.5,2.5 0 0 1 8.5,43.2969 " fill="none" style="stroke:#000000;stroke-width:1.5;"/><line style="stroke:#000000;stroke-width:1.5;" x1="6" x2="210" y1="65.5938" y2="65.5938"/><text fill="#000000" font-family="sans-serif" font-size="14" font-weight="bold" lengthAdjust="spacing" textLength="191" x="10" y="58.292">SpecializationAggregate</text></g><!--class Specialization--><g id="elem_Specialization"><rect codeLine="5" fill="#F1F1F1" height="56.2656" id="Specialization" rx="2.5" ry="2.5" style="stroke:#181818;stroke-width:0.5;" width="126" x="282" y="211.2969"/><ellipse cx="297" cy="231.4297" fill="#0099FF" rx="11" ry="11" style="stroke:#181818;stroke-width:1.0;"/><path d="M298.2031,231.5703 Q298.5625,231.6484 298.8281,231.9297 Q299.1094,232.1953 299.5,232.9766 L301.7344,237.4297 L299.0469,237.4297 L297.5469,234.3047 Q297.4844,234.1641 297.375,233.9297 Q296.7188,232.5391 295.8281,232.5391 L295.0469,232.5391 L295.0469,237.4297 L292.6094,237.4297 L292.6094,225.0391 L296.1406,225.0391 Q298.5313,225.0391 299.5625,225.8828 Q300.6094,226.7266 300.6094,228.6328 Q300.6094,229.9141 299.9844,230.6797 Q299.375,231.4297 298.2031,231.5703 Z M295.0469,227.1016 L295.0469,230.4766 L296.2031,230.4766 Q297.2188,230.4766 297.6406,230.0859 Q298.0781,229.6797 298.0781,228.7734 Q298.0781,227.8828 297.6406,227.4922 Q297.2188,227.1016 296.2031,227.1016 L295.0469,227.1016 Z " fill="#000000"/><text fill="#000000" font-family="sans-serif" font-size="12" font-style="italic" lengthAdjust="spacing" textLength="83" x="316.5" y="227.4355">&#171;Root Entity&#187;</text><text fill="#000000" font-family="sans-serif" font-size="14" lengthAdjust="spacing" textLength="94" x="311" y="243.2607">Specialization</text><line style="stroke:#181818;stroke-width:0.5;" x1="283" x2="407" y1="251.5625" y2="251.5625"/><line style="stroke:#181818;stroke-width:0.5;" x1="283" x2="407" y1="259.5625" y2="259.5625"/></g><!--class SpecializationCode--><g id="elem_SpecializationCode"><rect codeLine="7" fill="#F1F1F1" height="56.2656" id="SpecializationCode" rx="2.5" ry="2.5" style="stroke:#181818;stroke-width:0.5;" width="163" x="463.5" y="78.2969"/><ellipse cx="478.5" cy="98.4297" fill="#F09800" rx="11" ry="11" style="stroke:#181818;stroke-width:1.0;"/><path d="M478.6094,102.8828 L480.7969,92.5391 L483.2656,92.5391 L480.3125,104.9297 L476.9219,104.9297 L473.9688,92.5391 L476.4375,92.5391 L478.6094,102.8828 Z " fill="#000000"/><text fill="#000000" font-family="sans-serif" font-size="12" font-style="italic" lengthAdjust="spacing" textLength="118" x="499" y="94.4355">&#171;Unique Identifier&#187;</text><text fill="#000000" font-family="sans-serif" font-size="14" lengthAdjust="spacing" textLength="131" x="492.5" y="110.2607">SpecializationCode</text><line style="stroke:#181818;stroke-width:0.5;" x1="464.5" x2="625.5" y1="118.5625" y2="118.5625"/><line style="stroke:#181818;stroke-width:0.5;" x1="464.5" x2="625.5" y1="126.5625" y2="126.5625"/></g><!--class SpecializationName--><g id="elem_SpecializationName"><rect codeLine="8" fill="#F1F1F1" height="56.2656" id="SpecializationName" rx="2.5" ry="2.5" style="stroke:#181818;stroke-width:0.5;" width="166" x="262" y="78.2969"/><ellipse cx="277" cy="98.4297" fill="#F04800" rx="11" ry="11" style="stroke:#181818;stroke-width:1.0;"/><path d="M277.1094,102.8828 L279.2969,92.5391 L281.7656,92.5391 L278.8125,104.9297 L275.4219,104.9297 L272.4688,92.5391 L274.9375,92.5391 L277.1094,102.8828 Z " fill="#000000"/><text fill="#000000" font-family="sans-serif" font-size="12" font-style="italic" lengthAdjust="spacing" textLength="92" x="312" y="94.4355">&#171;Value Object&#187;</text><text fill="#000000" font-family="sans-serif" font-size="14" lengthAdjust="spacing" textLength="134" x="291" y="110.2607">SpecializationName</text><line style="stroke:#181818;stroke-width:0.5;" x1="263" x2="427" y1="118.5625" y2="118.5625"/><line style="stroke:#181818;stroke-width:0.5;" x1="263" x2="427" y1="126.5625" y2="126.5625"/></g><!--class SpecializationDescription--><g id="elem_SpecializationDescription"><rect codeLine="9" fill="#F1F1F1" height="56.2656" id="SpecializationDescription" rx="2.5" ry="2.5" style="stroke:#181818;stroke-width:0.5;" width="205" x="21.5" y="78.2969"/><ellipse cx="36.5" cy="98.4297" fill="#F04800" rx="11" ry="11" style="stroke:#181818;stroke-width:1.0;"/><path d="M36.6094,102.8828 L38.7969,92.5391 L41.2656,92.5391 L38.3125,104.9297 L34.9219,104.9297 L31.9688,92.5391 L34.4375,92.5391 L36.6094,102.8828 Z " fill="#000000"/><text fill="#000000" font-family="sans-serif" font-size="12" font-style="italic" lengthAdjust="spacing" textLength="92" x="91" y="94.4355">&#171;Value Object&#187;</text><text fill="#000000" font-family="sans-serif" font-size="14" lengthAdjust="spacing" textLength="173" x="50.5" y="110.2607">SpecializationDescription</text><line style="stroke:#181818;stroke-width:0.5;" x1="22.5" x2="225.5" y1="118.5625" y2="118.5625"/><line style="stroke:#181818;stroke-width:0.5;" x1="22.5" x2="225.5" y1="126.5625" y2="126.5625"/></g><!--link SpecializationCode to Specialization--><g id="link_SpecializationCode_Specialization"><path codeLine="11" d="M503.56,134.4369 C469.23,156.9269 430.7387,182.1424 396.4287,204.6124 " fill="none" id="SpecializationCode-to-Specialization" style="stroke:#181818;stroke-width:1.0;"/><polygon fill="#181818" points="386.39,211.1869,393.6009,211.2459,396.4287,204.6124,389.2179,204.5534,386.39,211.1869" style="stroke:#181818;stroke-width:1.0;"/><text fill="#000000" font-family="sans-serif" font-size="13" lengthAdjust="spacing" textLength="57" x="457" y="177.3638">identifies</text><text fill="#000000" font-family="sans-serif" font-size="13" lengthAdjust="spacing" textLength="8" x="485.052" y="154.7302">1</text><text fill="#000000" font-family="sans-serif" font-size="13" lengthAdjust="spacing" textLength="8" x="386.5691" y="200.4496">1</text></g><!--link SpecializationName to Specialization--><g id="link_SpecializationName_Specialization"><path codeLine="12" d="M345,134.4369 C345,156.9269 345,176.7169 345,199.1869 " fill="none" id="SpecializationName-to-Specialization" style="stroke:#181818;stroke-width:1.0;"/><polygon fill="#181818" points="345,211.1869,349,205.1869,345,199.1869,341,205.1869,345,211.1869" style="stroke:#181818;stroke-width:1.0;"/><text fill="#000000" font-family="sans-serif" font-size="13" lengthAdjust="spacing" textLength="8" x="336.075" y="154.7302">1</text><text fill="#000000" font-family="sans-serif" font-size="13" lengthAdjust="spacing" textLength="8" x="336.125" y="200.4496">1</text></g><!--link SpecializationDescription to Specialization--><g id="link_SpecializationDescription_Specialization"><path codeLine="13" d="M169.79,134.4369 C207.72,156.9269 251.0264,182.5995 288.9464,205.0695 " fill="none" id="SpecializationDescription-to-Specialization" style="stroke:#181818;stroke-width:1.0;"/><polygon fill="#181818" points="299.27,211.1869,296.1473,204.687,288.9464,205.0695,292.069,211.5694,299.27,211.1869" style="stroke:#181818;stroke-width:1.0;"/><text fill="#000000" font-family="sans-serif" font-size="13" lengthAdjust="spacing" textLength="8" x="171.4539" y="154.7302">1</text><text fill="#000000" font-family="sans-serif" font-size="13" lengthAdjust="spacing" textLength="8" x="280.3916" y="200.4496">1</text></g><!--SRC=[VT11Qy9048RXS_PN37gfehBQGfiYWQ8LUj1AHE_JE8PfrrsRZ0KL_xjfYbWMpMaltxFxii9Y2EOpUEpqEjrxYCdG3rg1eLiZMnYx9HcbffXyOKemsr32Q7YFmiw-f6b6AGeTLF1gXMNd3Q3VlujRTQt3S3HgGEoSmDymYWv7fOA1mJptqA1uyXSkMlML3f-qRi3SylUMu6r91LunPL44XR_A9xY-y8UIBz0K-ltZanAfa4FAaumtv_3A2rHm9RhMhK6xtInFxoEUWS_nkM_BujlMd__Fh517TG80]--></g></svg>