<?xml version="1.0" encoding="us-ascii" standalone="no"?><svg xmlns="http://www.w3.org/2000/svg" xmlns:xlink="http://www.w3.org/1999/xlink" contentStyleType="text/css" height="740px" preserveAspectRatio="none" style="width:1787px;height:740px;background:#FFFFFF;" version="1.1" viewBox="0 0 1787 740" width="1787px" zoomAndPan="magnify"><defs/><g><text fill="#000000" font-family="sans-serif" font-size="14" font-weight="bold" lengthAdjust="spacing" textLength="210" x="790" y="27.9951">Sequence Diagram - US 20</text><rect fill="#FFFFFF" height="582.8203" style="stroke:#181818;stroke-width:1.0;" width="10" x="256" y="104.7266"/><rect fill="#FFFFFF" height="524.5547" style="stroke:#181818;stroke-width:1.0;" width="10" x="549" y="133.8594"/><rect fill="#FFFFFF" height="415.1875" style="stroke:#181818;stroke-width:1.0;" width="10" x="853" y="207.0938"/><rect fill="#FFFFFF" height="29.1328" style="stroke:#181818;stroke-width:1.0;" width="10" x="1102" y="236.2266"/><rect fill="#FFFFFF" height="29.1328" style="stroke:#181818;stroke-width:1.0;" width="10" x="1102" y="522.7188"/><rect fill="#FFFFFF" height="29.1328" style="stroke:#181818;stroke-width:1.0;" width="10" x="1298" y="342.7578"/><rect fill="#FFFFFF" height="29.1328" style="stroke:#181818;stroke-width:1.0;" width="10" x="1527" y="464.4531"/><rect fill="none" height="349.9219" style="stroke:#000000;stroke-width:1.5;" width="1357.5" x="423.5" y="280.3594"/><rect fill="none" height="75.3984" style="stroke:#000000;stroke-width:1.5;" width="639" x="765" y="304.4922"/><line style="stroke:#181818;stroke-width:0.5;stroke-dasharray:5.0,5.0;" x1="261" x2="261" y1="73.5938" y2="705.5469"/><line style="stroke:#181818;stroke-width:0.5;stroke-dasharray:5.0,5.0;" x1="553.5" x2="553.5" y1="73.5938" y2="705.5469"/><line style="stroke:#181818;stroke-width:0.5;stroke-dasharray:5.0,5.0;" x1="858" x2="858" y1="73.5938" y2="705.5469"/><line style="stroke:#181818;stroke-width:0.5;stroke-dasharray:5.0,5.0;" x1="1107" x2="1107" y1="73.5938" y2="705.5469"/><line style="stroke:#181818;stroke-width:0.5;stroke-dasharray:5.0,5.0;" x1="1303" x2="1303" y1="73.5938" y2="705.5469"/><line style="stroke:#181818;stroke-width:0.5;stroke-dasharray:5.0,5.0;" x1="1532" x2="1532" y1="417.5391" y2="705.5469"/><line style="stroke:#181818;stroke-width:0.5;stroke-dasharray:5.0,5.0;" x1="1697" x2="1697" y1="590.5" y2="705.5469"/><rect fill="#E2E2F0" height="30.2969" rx="2.5" ry="2.5" style="stroke:#181818;stroke-width:0.5;" width="68" x="227" y="42.2969"/><text fill="#000000" font-family="sans-serif" font-size="14" lengthAdjust="spacing" textLength="54" x="234" y="62.292">Routing</text><rect fill="#E2E2F0" height="30.2969" rx="2.5" ry="2.5" style="stroke:#181818;stroke-width:0.5;" width="68" x="227" y="704.5469"/><text fill="#000000" font-family="sans-serif" font-size="14" lengthAdjust="spacing" textLength="54" x="234" y="724.542">Routing</text><rect fill="#E2E2F0" height="30.2969" rx="2.5" ry="2.5" style="stroke:#181818;stroke-width:0.5;" width="241" x="433.5" y="42.2969"/><text fill="#000000" font-family="sans-serif" font-size="14" lengthAdjust="spacing" textLength="227" x="440.5" y="62.292">RegisterOperationTypeController</text><rect fill="#E2E2F0" height="30.2969" rx="2.5" ry="2.5" style="stroke:#181818;stroke-width:0.5;" width="241" x="433.5" y="704.5469"/><text fill="#000000" font-family="sans-serif" font-size="14" lengthAdjust="spacing" textLength="227" x="440.5" y="724.542">RegisterOperationTypeController</text><rect fill="#E2E2F0" height="30.2969" rx="2.5" ry="2.5" style="stroke:#181818;stroke-width:0.5;" width="166" x="775" y="42.2969"/><text fill="#000000" font-family="sans-serif" font-size="14" lengthAdjust="spacing" textLength="152" x="782" y="62.292">OperationTypeService</text><rect fill="#E2E2F0" height="30.2969" rx="2.5" ry="2.5" style="stroke:#181818;stroke-width:0.5;" width="166" x="775" y="704.5469"/><text fill="#000000" font-family="sans-serif" font-size="14" lengthAdjust="spacing" textLength="152" x="782" y="724.542">OperationTypeService</text><rect fill="#E2E2F0" height="30.2969" rx="2.5" ry="2.5" style="stroke:#181818;stroke-width:0.5;" width="190" x="1012" y="42.2969"/><text fill="#000000" font-family="sans-serif" font-size="14" lengthAdjust="spacing" textLength="176" x="1019" y="62.292">OperationTypeRepository</text><rect fill="#E2E2F0" height="30.2969" rx="2.5" ry="2.5" style="stroke:#181818;stroke-width:0.5;" width="190" x="1012" y="704.5469"/><text fill="#000000" font-family="sans-serif" font-size="14" lengthAdjust="spacing" textLength="176" x="1019" y="724.542">OperationTypeRepository</text><rect fill="#E2E2F0" height="30.2969" rx="2.5" ry="2.5" style="stroke:#181818;stroke-width:0.5;" width="182" x="1212" y="42.2969"/><text fill="#000000" font-family="sans-serif" font-size="14" lengthAdjust="spacing" textLength="168" x="1219" y="62.292">SpecializationRepository</text><rect fill="#E2E2F0" height="30.2969" rx="2.5" ry="2.5" style="stroke:#181818;stroke-width:0.5;" width="182" x="1212" y="704.5469"/><text fill="#000000" font-family="sans-serif" font-size="14" lengthAdjust="spacing" textLength="168" x="1219" y="724.542">SpecializationRepository</text><rect fill="#E2E2F0" height="30.2969" rx="2.5" ry="2.5" style="stroke:#181818;stroke-width:0.5;" width="164" x="1450" y="704.5469"/><text fill="#000000" font-family="sans-serif" font-size="14" lengthAdjust="spacing" textLength="150" x="1457" y="724.542">OperationTypeBuilder</text><rect fill="#E2E2F0" height="30.2969" rx="2.5" ry="2.5" style="stroke:#181818;stroke-width:0.5;" width="147" x="1624" y="704.5469"/><text fill="#000000" font-family="sans-serif" font-size="14" lengthAdjust="spacing" textLength="133" x="1631" y="724.542">OperationTypeDTO</text><rect fill="#FFFFFF" height="582.8203" style="stroke:#181818;stroke-width:1.0;" width="10" x="256" y="104.7266"/><rect fill="#FFFFFF" height="524.5547" style="stroke:#181818;stroke-width:1.0;" width="10" x="549" y="133.8594"/><rect fill="#FFFFFF" height="415.1875" style="stroke:#181818;stroke-width:1.0;" width="10" x="853" y="207.0938"/><rect fill="#FFFFFF" height="29.1328" style="stroke:#181818;stroke-width:1.0;" width="10" x="1102" y="236.2266"/><rect fill="#FFFFFF" height="29.1328" style="stroke:#181818;stroke-width:1.0;" width="10" x="1102" y="522.7188"/><rect fill="#FFFFFF" height="29.1328" style="stroke:#181818;stroke-width:1.0;" width="10" x="1298" y="342.7578"/><rect fill="#FFFFFF" height="29.1328" style="stroke:#181818;stroke-width:1.0;" width="10" x="1527" y="464.4531"/><polygon fill="#181818" points="244,100.7266,254,104.7266,244,108.7266,248,104.7266" style="stroke:#181818;stroke-width:1.0;"/><line style="stroke:#181818;stroke-width:1.0;" x1="0" x2="250" y1="104.7266" y2="104.7266"/><text fill="#000000" font-family="sans-serif" font-size="13" lengthAdjust="spacing" textLength="237" x="7" y="99.6606">POST(operationTypeDTO, authToken)</text><polygon fill="#181818" points="537,129.8594,547,133.8594,537,137.8594,541,133.8594" style="stroke:#181818;stroke-width:1.0;"/><line style="stroke:#181818;stroke-width:1.0;" x1="266" x2="543" y1="133.8594" y2="133.8594"/><text fill="#000000" font-family="sans-serif" font-size="13" lengthAdjust="spacing" textLength="264" x="273" y="128.7935">CreateOperationType(operationTypeDTO)</text><rect fill="none" height="39.1016" style="stroke:#000000;stroke-width:1.5;" width="247" x="430.5" y="141.8594"/><path d="M430.5,141.8594 L496.5,141.8594 L496.5,148.8594 L486.5,158.8594 L430.5,158.8594 L430.5,141.8594 " fill="#EEEEEE" style="stroke:#000000;stroke-width:2.0;"/><text fill="#000000" font-family="sans-serif" font-size="13" font-weight="bold" lengthAdjust="spacing" textLength="21" x="443.5" y="155.9263">ref</text><text fill="#000000" font-family="sans-serif" font-size="12" lengthAdjust="spacing" textLength="155" x="476.5" y="173.998">Refer to generic auth SD</text><polygon fill="#181818" points="841,203.0938,851,207.0938,841,211.0938,845,207.0938" style="stroke:#181818;stroke-width:1.0;"/><line style="stroke:#181818;stroke-width:1.0;" x1="559" x2="847" y1="207.0938" y2="207.0938"/><text fill="#000000" font-family="sans-serif" font-size="13" lengthAdjust="spacing" textLength="275" x="566" y="202.0278">RegisterOperationType(OperationTypeDTO)</text><polygon fill="#181818" points="1090,232.2266,1100,236.2266,1090,240.2266,1094,236.2266" style="stroke:#181818;stroke-width:1.0;"/><line style="stroke:#181818;stroke-width:1.0;" x1="863" x2="1096" y1="236.2266" y2="236.2266"/><text fill="#000000" font-family="sans-serif" font-size="13" lengthAdjust="spacing" textLength="220" x="870" y="231.1606">GetByName(OperationTypeName)</text><polygon fill="#181818" points="874,261.3594,864,265.3594,874,269.3594,870,265.3594" style="stroke:#181818;stroke-width:1.0;"/><line style="stroke:#181818;stroke-width:1.0;stroke-dasharray:2.0,2.0;" x1="868" x2="1106" y1="265.3594" y2="265.3594"/><text fill="#000000" font-family="sans-serif" font-size="13" lengthAdjust="spacing" textLength="93" x="880" y="260.2935">OperationType</text><path d="M423.5,280.3594 L487.5,280.3594 L487.5,287.4922 L477.5,297.4922 L423.5,297.4922 L423.5,280.3594 " fill="#EEEEEE" style="stroke:#000000;stroke-width:1.5;"/><rect fill="none" height="349.9219" style="stroke:#000000;stroke-width:1.5;" width="1357.5" x="423.5" y="280.3594"/><text fill="#000000" font-family="sans-serif" font-size="13" font-weight="bold" lengthAdjust="spacing" textLength="19" x="438.5" y="293.4263">alt</text><text fill="#000000" font-family="sans-serif" font-size="11" font-weight="bold" lengthAdjust="spacing" textLength="235" x="502.5" y="292.5698">[no operation with that name exists]</text><path d="M765,304.4922 L842,304.4922 L842,311.625 L832,321.625 L765,321.625 L765,304.4922 " fill="#EEEEEE" style="stroke:#000000;stroke-width:1.5;"/><rect fill="none" height="75.3984" style="stroke:#000000;stroke-width:1.5;" width="639" x="765" y="304.4922"/><text fill="#000000" font-family="sans-serif" font-size="13" font-weight="bold" lengthAdjust="spacing" textLength="32" x="780" y="317.5591">loop</text><text fill="#000000" font-family="sans-serif" font-size="11" font-weight="bold" lengthAdjust="spacing" textLength="208" x="857" y="316.7026">[each Specialization mentioned]</text><polygon fill="#181818" points="1286,338.7578,1296,342.7578,1286,346.7578,1290,342.7578" style="stroke:#181818;stroke-width:1.0;"/><line style="stroke:#181818;stroke-width:1.0;" x1="863" x2="1292" y1="342.7578" y2="342.7578"/><text fill="#000000" font-family="sans-serif" font-size="13" lengthAdjust="spacing" textLength="225" x="870" y="337.6919">GetByIdAsync(SpecializationName)</text><polygon fill="#181818" points="874,367.8906,864,371.8906,874,375.8906,870,371.8906" style="stroke:#181818;stroke-width:1.0;"/><line style="stroke:#181818;stroke-width:1.0;stroke-dasharray:2.0,2.0;" x1="868" x2="1302" y1="371.8906" y2="371.8906"/><text fill="#000000" font-family="sans-serif" font-size="13" lengthAdjust="spacing" textLength="88" x="880" y="366.8247">Specialization</text><polygon fill="#181818" points="1438,404.0234,1448,408.0234,1438,412.0234,1442,408.0234" style="stroke:#181818;stroke-width:1.0;"/><line style="stroke:#181818;stroke-width:1.0;" x1="863" x2="1444" y1="408.0234" y2="408.0234"/><text fill="#000000" font-family="sans-serif" font-size="13" lengthAdjust="spacing" textLength="51" x="870" y="402.9575">create()</text><rect fill="#E2E2F0" height="30.2969" rx="2.5" ry="2.5" style="stroke:#181818;stroke-width:0.5;" width="164" x="1450" y="386.8906"/><text fill="#000000" font-family="sans-serif" font-size="14" lengthAdjust="spacing" textLength="150" x="1457" y="406.8857">OperationTypeBuilder</text><polygon fill="#181818" points="1515,460.4531,1525,464.4531,1515,468.4531,1519,464.4531" style="stroke:#181818;stroke-width:1.0;"/><line style="stroke:#181818;stroke-width:1.0;" x1="863" x2="1521" y1="464.4531" y2="464.4531"/><text fill="#000000" font-family="sans-serif" font-size="13" lengthAdjust="spacing" textLength="645" x="870" y="444.2544">createOperationType(OperationTypeName, OperationTypeVersion, OperationTypeEstimatedDuration,</text><text fill="#000000" font-family="sans-serif" font-size="13" lengthAdjust="spacing" textLength="467" x="870" y="459.3872">Specializations, SpecializationsCount, OperationPhases, PhasesDuration)</text><polygon fill="#181818" points="874,489.5859,864,493.5859,874,497.5859,870,493.5859" style="stroke:#181818;stroke-width:1.0;"/><line style="stroke:#181818;stroke-width:1.0;stroke-dasharray:2.0,2.0;" x1="868" x2="1531" y1="493.5859" y2="493.5859"/><text fill="#000000" font-family="sans-serif" font-size="13" lengthAdjust="spacing" textLength="91" x="880" y="488.52">operationType</text><polygon fill="#181818" points="1090,518.7188,1100,522.7188,1090,526.7188,1094,522.7188" style="stroke:#181818;stroke-width:1.0;"/><line style="stroke:#181818;stroke-width:1.0;" x1="863" x2="1096" y1="522.7188" y2="522.7188"/><text fill="#000000" font-family="sans-serif" font-size="13" lengthAdjust="spacing" textLength="166" x="870" y="517.6528">AddAsync(OperationType)</text><polygon fill="#181818" points="874,547.8516,864,551.8516,874,555.8516,870,551.8516" style="stroke:#181818;stroke-width:1.0;"/><line style="stroke:#181818;stroke-width:1.0;stroke-dasharray:2.0,2.0;" x1="868" x2="1106" y1="551.8516" y2="551.8516"/><text fill="#000000" font-family="sans-serif" font-size="13" lengthAdjust="spacing" textLength="91" x="880" y="546.7856">operationType</text><polygon fill="#181818" points="1612,576.9844,1622,580.9844,1612,584.9844,1616,580.9844" style="stroke:#181818;stroke-width:1.0;"/><line style="stroke:#181818;stroke-width:1.0;" x1="863" x2="1618" y1="580.9844" y2="580.9844"/><text fill="#000000" font-family="sans-serif" font-size="13" lengthAdjust="spacing" textLength="51" x="870" y="575.9185">create()</text><rect fill="#E2E2F0" height="30.2969" rx="2.5" ry="2.5" style="stroke:#181818;stroke-width:0.5;" width="147" x="1624" y="559.8516"/><text fill="#000000" font-family="sans-serif" font-size="14" lengthAdjust="spacing" textLength="133" x="1631" y="579.8467">OperationTypeDTO</text><polygon fill="#181818" points="570,618.2813,560,622.2813,570,626.2813,566,622.2813" style="stroke:#181818;stroke-width:1.0;"/><line style="stroke:#181818;stroke-width:1.0;stroke-dasharray:2.0,2.0;" x1="564" x2="857" y1="622.2813" y2="622.2813"/><text fill="#000000" font-family="sans-serif" font-size="13" lengthAdjust="spacing" textLength="118" x="576" y="617.2153">operationTypeDTO</text><polygon fill="#181818" points="277,654.4141,267,658.4141,277,662.4141,273,658.4141" style="stroke:#181818;stroke-width:1.0;"/><line style="stroke:#181818;stroke-width:1.0;stroke-dasharray:2.0,2.0;" x1="271" x2="553" y1="658.4141" y2="658.4141"/><text fill="#000000" font-family="sans-serif" font-size="13" lengthAdjust="spacing" textLength="100" x="283" y="653.3481">operationResult</text><polygon fill="#181818" points="11,683.5469,1,687.5469,11,691.5469,7,687.5469" style="stroke:#181818;stroke-width:1.0;"/><line style="stroke:#181818;stroke-width:1.0;stroke-dasharray:2.0,2.0;" x1="5" x2="260" y1="687.5469" y2="687.5469"/><text fill="#000000" font-family="sans-serif" font-size="13" lengthAdjust="spacing" textLength="100" x="17" y="682.481">operationResult</text><!--SRC=[XLJ1Rjim3BthAtXCYnWOTXo60MsI3RlCXPtrj8jciuamHV8akblszQDaEx6KfZtPbjuZ7nz9aoADKEFl7as3i5Pov-G12lXUm_jtGdJIaMfK9mr1PNjIPWVIWwFq1dVA4xgoGoT9MRCzThYoXfpL6brWDEHqmacmDRfdnVaPwFdrEh32pdf5rXsZ3FvAi7M7ZP9Q_Ok45EoxAeSdeUzxfTj1xC_XzJfslIq3hYKhHF69xO0Fy53MsuNDK4kGFUstzXUQ6o4RKi-ICDWdcCFCO0jpLmxvF4bn4Mh6ZsQAQlCPoiTDDNnM-CJYoS8E3JhLnCHGhmMQberw4YBcufp1OSxvOjCMvKNMSzhO6X7feMXsayDyGRe_VfE7Z1fEvjpOgaWfpX8IXcWnHGkf2Oo5an7mHt59j9TypE41_t81NWXjRGTCtcVzXmEQyCJs97eOWadsr_RE7qspI6cvz75mHkfCVagRwnyfqVkWxkpQE5gtjynlOjSNDnUtfxjNUXDKBbC77z5vVirEDvxKWMErwtuuNFumgNA_p4hnAziRciLvs4kF31kUKw2vITFAJ1NCRBBNkZnnyf6wQyU-97MyEKtszMcQal3IfkuF5-Tbp1SlQMnO0Uxgk4pJxfye5VfUqvmnxEh7edWJoN-5_m00]--></g></svg>