<?xml version="1.0" encoding="us-ascii" standalone="no"?><svg xmlns="http://www.w3.org/2000/svg" xmlns:xlink="http://www.w3.org/1999/xlink" contentStyleType="text/css" height="543px" preserveAspectRatio="none" style="width:991px;height:543px;background:#FFFFFF;" version="1.1" viewBox="0 0 991 543" width="991px" zoomAndPan="magnify"><defs/><g><rect fill="#FFFFFF" height="23.291" style="stroke:#181818;stroke-width:1.0;" width="10" x="24" y="93.6211"/><rect fill="#FFFFFF" height="31.291" style="stroke:#181818;stroke-width:1.0;" width="10" x="24" y="148.2031"/><rect fill="#FFFFFF" height="9" style="stroke:#181818;stroke-width:1.0;" width="10" x="24" y="442.1523"/><rect fill="#FFFFFF" height="31.291" style="stroke:#181818;stroke-width:1.0;" width="10" x="212" y="116.9121"/><rect fill="#FFFFFF" height="31.291" style="stroke:#181818;stroke-width:1.0;" width="10" x="212" y="179.4941"/><rect fill="#FFFFFF" height="31.291" style="stroke:#181818;stroke-width:1.0;" width="10" x="212" y="410.8613"/><rect fill="#FFFFFF" height="31.291" style="stroke:#181818;stroke-width:1.0;" width="10" x="458" y="210.7852"/><rect fill="#FFFFFF" height="31.291" style="stroke:#181818;stroke-width:1.0;" width="10" x="458" y="273.3672"/><rect fill="#FFFFFF" height="74.9121" style="stroke:#181818;stroke-width:1.0;" width="10" x="458" y="335.9492"/><rect fill="#FFFFFF" height="31.291" style="stroke:#181818;stroke-width:1.0;" width="10" x="704" y="242.0762"/><rect fill="#FFFFFF" height="31.291" style="stroke:#181818;stroke-width:1.0;" width="10" x="918" y="304.6582"/><line style="stroke:#181818;stroke-width:0.5;stroke-dasharray:5.0,5.0;" x1="29" x2="29" y1="83.6211" y2="460.1523"/><line style="stroke:#181818;stroke-width:0.5;stroke-dasharray:5.0,5.0;" x1="216.5" x2="216.5" y1="83.6211" y2="460.1523"/><line style="stroke:#181818;stroke-width:0.5;stroke-dasharray:5.0,5.0;" x1="463" x2="463" y1="83.6211" y2="460.1523"/><line style="stroke:#181818;stroke-width:0.5;stroke-dasharray:5.0,5.0;" x1="708.5" x2="708.5" y1="83.6211" y2="460.1523"/><line style="stroke:#181818;stroke-width:0.5;stroke-dasharray:5.0,5.0;" x1="810.5" x2="810.5" y1="375.7598" y2="460.1523"/><line style="stroke:#181818;stroke-width:0.5;stroke-dasharray:5.0,5.0;" x1="922.5" x2="922.5" y1="83.6211" y2="460.1523"/><text fill="#000000" font-family="sans-serif" font-size="14" lengthAdjust="spacing" textLength="42" x="5" y="80.1074">ADMIN</text><ellipse cx="29" cy="13.5" fill="#E2E2F0" rx="8" ry="8" style="stroke:#181818;stroke-width:0.5;"/><path d="M29,21.5 L29,48.5 M16,29.5 L42,29.5 M29,48.5 L16,63.5 M29,48.5 L42,63.5 " fill="none" style="stroke:#181818;stroke-width:0.5;"/><text fill="#000000" font-family="sans-serif" font-size="14" lengthAdjust="spacing" textLength="42" x="5" y="474.2598">ADMIN</text><ellipse cx="29" cy="486.2734" fill="#E2E2F0" rx="8" ry="8" style="stroke:#181818;stroke-width:0.5;"/><path d="M29,494.2734 L29,521.2734 M16,502.2734 L42,502.2734 M29,521.2734 L16,536.2734 M29,521.2734 L42,536.2734 " fill="none" style="stroke:#181818;stroke-width:0.5;"/><rect fill="#E2E2F0" height="32.6211" rx="2.5" ry="2.5" style="stroke:#181818;stroke-width:0.5;" width="119" x="157.5" y="50"/><text fill="#000000" font-family="sans-serif" font-size="14" lengthAdjust="spacing" textLength="105" x="164.5" y="72.1074">AllergyController</text><rect fill="#E2E2F0" height="32.6211" rx="2.5" ry="2.5" style="stroke:#181818;stroke-width:0.5;" width="119" x="157.5" y="459.1523"/><text fill="#000000" font-family="sans-serif" font-size="14" lengthAdjust="spacing" textLength="105" x="164.5" y="481.2598">AllergyController</text><rect fill="#E2E2F0" height="32.6211" rx="2.5" ry="2.5" style="stroke:#181818;stroke-width:0.5;" width="104" x="411" y="50"/><text fill="#000000" font-family="sans-serif" font-size="14" lengthAdjust="spacing" textLength="90" x="418" y="72.1074">AllergyService</text><rect fill="#E2E2F0" height="32.6211" rx="2.5" ry="2.5" style="stroke:#181818;stroke-width:0.5;" width="104" x="411" y="459.1523"/><text fill="#000000" font-family="sans-serif" font-size="14" lengthAdjust="spacing" textLength="90" x="418" y="481.2598">AllergyService</text><rect fill="#E2E2F0" height="32.6211" rx="2.5" ry="2.5" style="stroke:#181818;stroke-width:0.5;" width="105" x="656.5" y="50"/><text fill="#000000" font-family="sans-serif" font-size="14" lengthAdjust="spacing" textLength="91" x="663.5" y="72.1074">AllergyFactory</text><rect fill="#E2E2F0" height="32.6211" rx="2.5" ry="2.5" style="stroke:#181818;stroke-width:0.5;" width="105" x="656.5" y="459.1523"/><text fill="#000000" font-family="sans-serif" font-size="14" lengthAdjust="spacing" textLength="91" x="663.5" y="481.2598">AllergyFactory</text><rect fill="#E2E2F0" height="32.6211" rx="2.5" ry="2.5" style="stroke:#181818;stroke-width:0.5;" width="79" x="771.5" y="459.1523"/><text fill="#000000" font-family="sans-serif" font-size="14" lengthAdjust="spacing" textLength="65" x="778.5" y="481.2598">AllergyDto</text><rect fill="#E2E2F0" height="32.6211" rx="2.5" ry="2.5" style="stroke:#181818;stroke-width:0.5;" width="125" x="860.5" y="50"/><text fill="#000000" font-family="sans-serif" font-size="14" lengthAdjust="spacing" textLength="111" x="867.5" y="72.1074">AllergyRepository</text><rect fill="#E2E2F0" height="32.6211" rx="2.5" ry="2.5" style="stroke:#181818;stroke-width:0.5;" width="125" x="860.5" y="459.1523"/><text fill="#000000" font-family="sans-serif" font-size="14" lengthAdjust="spacing" textLength="111" x="867.5" y="481.2598">AllergyRepository</text><rect fill="#FFFFFF" height="23.291" style="stroke:#181818;stroke-width:1.0;" width="10" x="24" y="93.6211"/><rect fill="#FFFFFF" height="31.291" style="stroke:#181818;stroke-width:1.0;" width="10" x="24" y="148.2031"/><rect fill="#FFFFFF" height="9" style="stroke:#181818;stroke-width:1.0;" width="10" x="24" y="442.1523"/><rect fill="#FFFFFF" height="31.291" style="stroke:#181818;stroke-width:1.0;" width="10" x="212" y="116.9121"/><rect fill="#FFFFFF" height="31.291" style="stroke:#181818;stroke-width:1.0;" width="10" x="212" y="179.4941"/><rect fill="#FFFFFF" height="31.291" style="stroke:#181818;stroke-width:1.0;" width="10" x="212" y="410.8613"/><rect fill="#FFFFFF" height="31.291" style="stroke:#181818;stroke-width:1.0;" width="10" x="458" y="210.7852"/><rect fill="#FFFFFF" height="31.291" style="stroke:#181818;stroke-width:1.0;" width="10" x="458" y="273.3672"/><rect fill="#FFFFFF" height="74.9121" style="stroke:#181818;stroke-width:1.0;" width="10" x="458" y="335.9492"/><rect fill="#FFFFFF" height="31.291" style="stroke:#181818;stroke-width:1.0;" width="10" x="704" y="242.0762"/><rect fill="#FFFFFF" height="31.291" style="stroke:#181818;stroke-width:1.0;" width="10" x="918" y="304.6582"/><polygon fill="#181818" points="200,112.9121,210,116.9121,200,120.9121,204,116.9121" style="stroke:#181818;stroke-width:1.0;"/><line style="stroke:#181818;stroke-width:1.0;" x1="29" x2="206" y1="116.9121" y2="116.9121"/><text fill="#000000" font-family="sans-serif" font-size="13" lengthAdjust="spacing" textLength="149" x="36" y="111.6494">request creation of allergy</text><polygon fill="#181818" points="45,144.2031,35,148.2031,45,152.2031,41,148.2031" style="stroke:#181818;stroke-width:1.0;"/><line style="stroke:#181818;stroke-width:1.0;stroke-dasharray:2.0,2.0;" x1="39" x2="216" y1="148.2031" y2="148.2031"/><text fill="#000000" font-family="sans-serif" font-size="13" lengthAdjust="spacing" textLength="159" x="51" y="142.9404">requests allergy information</text><polygon fill="#181818" points="200,175.4941,210,179.4941,200,183.4941,204,179.4941" style="stroke:#181818;stroke-width:1.0;"/><line style="stroke:#181818;stroke-width:1.0;" x1="29" x2="206" y1="179.4941" y2="179.4941"/><text fill="#000000" font-family="sans-serif" font-size="13" lengthAdjust="spacing" textLength="137" x="36" y="174.2314">input allergy information</text><polygon fill="#181818" points="446,206.7852,456,210.7852,446,214.7852,450,210.7852" style="stroke:#181818;stroke-width:1.0;"/><line style="stroke:#181818;stroke-width:1.0;" x1="217" x2="452" y1="210.7852" y2="210.7852"/><text fill="#000000" font-family="sans-serif" font-size="13" lengthAdjust="spacing" textLength="217" x="224" y="205.5225">create(code, designation, description)</text><polygon fill="#181818" points="692,238.0762,702,242.0762,692,246.0762,696,242.0762" style="stroke:#181818;stroke-width:1.0;"/><line style="stroke:#181818;stroke-width:1.0;" x1="463" x2="698" y1="242.0762" y2="242.0762"/><text fill="#000000" font-family="sans-serif" font-size="13" lengthAdjust="spacing" textLength="217" x="470" y="236.8135">create(code, designation, description)</text><polygon fill="#181818" points="479,269.3672,469,273.3672,479,277.3672,475,273.3672" style="stroke:#181818;stroke-width:1.0;"/><line style="stroke:#181818;stroke-width:1.0;stroke-dasharray:2.0,2.0;" x1="473" x2="708" y1="273.3672" y2="273.3672"/><text fill="#000000" font-family="sans-serif" font-size="13" lengthAdjust="spacing" textLength="38" x="485" y="268.1045">allergy</text><polygon fill="#181818" points="906,300.6582,916,304.6582,906,308.6582,910,304.6582" style="stroke:#181818;stroke-width:1.0;"/><line style="stroke:#181818;stroke-width:1.0;" x1="463" x2="912" y1="304.6582" y2="304.6582"/><text fill="#000000" font-family="sans-serif" font-size="13" lengthAdjust="spacing" textLength="72" x="470" y="299.3955">save(allergy)</text><polygon fill="#181818" points="479,331.9492,469,335.9492,479,339.9492,475,335.9492" style="stroke:#181818;stroke-width:1.0;"/><line style="stroke:#181818;stroke-width:1.0;stroke-dasharray:2.0,2.0;" x1="473" x2="922" y1="335.9492" y2="335.9492"/><text fill="#000000" font-family="sans-serif" font-size="13" lengthAdjust="spacing" textLength="38" x="485" y="330.6865">allergy</text><polygon fill="#181818" points="759.5,363.2402,769.5,367.2402,759.5,371.2402,763.5,367.2402" style="stroke:#181818;stroke-width:1.0;"/><line style="stroke:#181818;stroke-width:1.0;" x1="468" x2="765.5" y1="367.2402" y2="367.2402"/><text fill="#000000" font-family="sans-serif" font-size="13" lengthAdjust="spacing" textLength="77" x="475" y="361.9775">toDto(allergy)</text><rect fill="#E2E2F0" height="32.6211" rx="2.5" ry="2.5" style="stroke:#181818;stroke-width:0.5;" width="79" x="771.5" y="343.9492"/><text fill="#000000" font-family="sans-serif" font-size="14" lengthAdjust="spacing" textLength="65" x="778.5" y="366.0566">AllergyDto</text><polygon fill="#181818" points="233,406.8613,223,410.8613,233,414.8613,229,410.8613" style="stroke:#181818;stroke-width:1.0;"/><line style="stroke:#181818;stroke-width:1.0;stroke-dasharray:2.0,2.0;" x1="227" x2="462" y1="410.8613" y2="410.8613"/><text fill="#000000" font-family="sans-serif" font-size="13" lengthAdjust="spacing" textLength="58" x="239" y="405.5986">allergyDto</text><polygon fill="#181818" points="45,438.1523,35,442.1523,45,446.1523,41,442.1523" style="stroke:#181818;stroke-width:1.0;"/><line style="stroke:#181818;stroke-width:1.0;stroke-dasharray:2.0,2.0;" x1="39" x2="216" y1="442.1523" y2="442.1523"/><text fill="#000000" font-family="sans-serif" font-size="13" lengthAdjust="spacing" textLength="146" x="51" y="436.8896">operation result message</text><!--SRC=[dPB1QiCm38RlVWeTsxA-m0w5iZBOOJriJo0S9HXIExELGDz-bf8cNUPHM2w9yAzFlwCVBOS8nzFxsnam0LONvqs7aPrr7Ng6OzjIRAulmNCCyYqoox4jgJuf3iwIID9WIufNb85NKTHOL9muo6d5eNJwGLr8xeQ8kJB6PAORa6coR_G5-uFwXESi- -efCTX8o2vu23NWo3CLhRhdKY-P7uNiCst4phXqOu3pTOWNHT_p5F38c_DTpuz8HMUZhuFywSpHkz76XegUeABa6gyOBMnqdHHRyxS_MPWHLaRcrVmFgP2vaWqBQZ-xBFnr4HLDo79pIyA1DbFVTZKBO6dLB6ZFht5mtwOIytFaD552jzlbFWuvXSlGyNpP6Sv9NT-zkAAxw8IEuXZ1IAbl6IwK4ZRqA3RV]--></g></svg>