<?xml version="1.0" encoding="us-ascii" standalone="no"?><svg xmlns="http://www.w3.org/2000/svg" xmlns:xlink="http://www.w3.org/1999/xlink" contentStyleType="text/css" height="1053px" preserveAspectRatio="none" style="width:1656px;height:1053px;background:#FFFFFF;" version="1.1" viewBox="0 0 1656 1053" width="1656px" zoomAndPan="magnify"><defs/><g><rect fill="#FFFFFF" height="46.7031" style="stroke:#181818;stroke-width:1.0;" width="10" x="175" y="69.9609"/><rect fill="#FFFFFF" height="30.3516" style="stroke:#181818;stroke-width:1.0;" width="10" x="175" y="968.3438"/><rect fill="#FFFFFF" height="83.0547" style="stroke:#181818;stroke-width:1.0;" width="10" x="466" y="116.6641"/><rect fill="#FFFFFF" height="55.7031" style="stroke:#181818;stroke-width:1.0;" width="10" x="466" y="689.3438"/><rect fill="#FFFFFF" height="32.3516" style="stroke:#181818;stroke-width:1.0;" width="10" x="466" y="821.8438"/><rect fill="#FFFFFF" height="37.3516" style="stroke:#181818;stroke-width:1.0;" width="10" x="466" y="930.9922"/><rect fill="#FFFFFF" height="30.3516" style="stroke:#181818;stroke-width:1.0;" width="10" x="825" y="199.7188"/><rect fill="#FFFFFF" height="72.9609" style="stroke:#181818;stroke-width:1.0;" width="10" x="825" y="260.4219"/><rect fill="#FFFFFF" height="98.3125" style="stroke:#181818;stroke-width:1.0;" width="10" x="825" y="363.7344"/><rect fill="#FFFFFF" height="30.3516" style="stroke:#181818;stroke-width:1.0;" width="10" x="825" y="492.3984"/><rect fill="#FFFFFF" height="57.3633" style="stroke:#181818;stroke-width:1.0;" width="10" x="825" y="564.2773"/><rect fill="#FFFFFF" height="37.3516" style="stroke:#181818;stroke-width:1.0;" width="10" x="825" y="651.9922"/><rect fill="#FFFFFF" height="30.3516" style="stroke:#181818;stroke-width:1.0;" width="10" x="1109" y="333.3828"/><rect fill="#FFFFFF" height="30.3516" style="stroke:#181818;stroke-width:1.0;" width="10" x="1233" y="230.0703"/><rect fill="#FFFFFF" height="30.3516" style="stroke:#181818;stroke-width:1.0;" width="10" x="1233" y="621.6406"/><rect fill="#FFFFFF" height="41.5273" style="stroke:#181818;stroke-width:1.0;" width="10" x="1353.5" y="522.75"/><rect fill="#FFFFFF" height="76.7969" style="stroke:#181818;stroke-width:1.0;" width="10" x="1467" y="745.0469"/><rect fill="#FFFFFF" height="76.7969" style="stroke:#181818;stroke-width:1.0;" width="10" x="1467" y="854.1953"/><rect fill="#FFFFFF" height="30.3516" style="stroke:#181818;stroke-width:1.0;" width="10" x="1583.5" y="462.0469"/><rect fill="none" height="238.6484" style="stroke:#000000;stroke-width:1.5;" width="987" x="662" y="421.3438"/><rect fill="none" height="234.6484" style="stroke:#000000;stroke-width:1.5;" width="1194" x="401" y="704.3438"/><line style="stroke:#181818;stroke-width:0.5;stroke-dasharray:5.0,5.0;" x1="179.5" x2="179.5" y1="37.6094" y2="1016.6953"/><line style="stroke:#181818;stroke-width:0.5;stroke-dasharray:5.0,5.0;" x1="471" x2="471" y1="37.6094" y2="1016.6953"/><line style="stroke:#181818;stroke-width:0.5;stroke-dasharray:5.0,5.0;" x1="829.5" x2="829.5" y1="37.6094" y2="1016.6953"/><line style="stroke:#181818;stroke-width:0.5;stroke-dasharray:5.0,5.0;" x1="954" x2="954" y1="403.0391" y2="1016.6953"/><line style="stroke:#181818;stroke-width:0.5;stroke-dasharray:5.0,5.0;" x1="1114" x2="1114" y1="299.7266" y2="1016.6953"/><line style="stroke:#181818;stroke-width:0.5;stroke-dasharray:5.0,5.0;" x1="1238" x2="1238" y1="37.6094" y2="1016.6953"/><line style="stroke:#181818;stroke-width:0.5;stroke-dasharray:5.0,5.0;" x1="1358" x2="1358" y1="37.6094" y2="1016.6953"/><line style="stroke:#181818;stroke-width:0.5;stroke-dasharray:5.0,5.0;" x1="1472" x2="1472" y1="37.6094" y2="1016.6953"/><line style="stroke:#181818;stroke-width:0.5;stroke-dasharray:5.0,5.0;" x1="1588" x2="1588" y1="37.6094" y2="1016.6953"/><rect fill="#E2E2F0" height="31.6094" rx="2.5" ry="2.5" style="stroke:#181818;stroke-width:0.5;" width="63" x="148.5" y="5"/><text fill="#000000" font-family="sans-serif" font-size="14" lengthAdjust="spacing" textLength="49" x="155.5" y="26.5332">Routing</text><rect fill="#E2E2F0" height="31.6094" rx="2.5" ry="2.5" style="stroke:#181818;stroke-width:0.5;" width="63" x="148.5" y="1015.6953"/><text fill="#000000" font-family="sans-serif" font-size="14" lengthAdjust="spacing" textLength="49" x="155.5" y="1037.2285">Routing</text><rect fill="#E2E2F0" height="31.6094" rx="2.5" ry="2.5" style="stroke:#181818;stroke-width:0.5;" width="120" x="411" y="5"/><text fill="#000000" font-family="sans-serif" font-size="14" lengthAdjust="spacing" textLength="106" x="418" y="26.5332">PatientController</text><rect fill="#E2E2F0" height="31.6094" rx="2.5" ry="2.5" style="stroke:#181818;stroke-width:0.5;" width="120" x="411" y="1015.6953"/><text fill="#000000" font-family="sans-serif" font-size="14" lengthAdjust="spacing" textLength="106" x="418" y="1037.2285">PatientController</text><rect fill="#E2E2F0" height="31.6094" rx="2.5" ry="2.5" style="stroke:#181818;stroke-width:0.5;" width="105" x="777.5" y="5"/><text fill="#000000" font-family="sans-serif" font-size="14" lengthAdjust="spacing" textLength="91" x="784.5" y="26.5332">PatientService</text><rect fill="#E2E2F0" height="31.6094" rx="2.5" ry="2.5" style="stroke:#181818;stroke-width:0.5;" width="105" x="777.5" y="1015.6953"/><text fill="#000000" font-family="sans-serif" font-size="14" lengthAdjust="spacing" textLength="91" x="784.5" y="1037.2285">PatientService</text><rect fill="#E2E2F0" height="31.6094" rx="2.5" ry="2.5" style="stroke:#181818;stroke-width:0.5;" width="80" x="914" y="1015.6953"/><text fill="#000000" font-family="sans-serif" font-size="14" lengthAdjust="spacing" textLength="66" x="921" y="1037.2285">PatientDto</text><rect fill="#E2E2F0" height="31.6094" rx="2.5" ry="2.5" style="stroke:#181818;stroke-width:0.5;" width="102" x="1063" y="1015.6953"/><text fill="#000000" font-family="sans-serif" font-size="14" lengthAdjust="spacing" textLength="88" x="1070" y="1037.2285">PatientBuilder</text><rect fill="#E2E2F0" height="31.6094" rx="2.5" ry="2.5" style="stroke:#181818;stroke-width:0.5;" width="126" x="1175" y="5"/><text fill="#000000" font-family="sans-serif" font-size="14" lengthAdjust="spacing" textLength="112" x="1182" y="26.5332">PatientRepository</text><rect fill="#E2E2F0" height="31.6094" rx="2.5" ry="2.5" style="stroke:#181818;stroke-width:0.5;" width="126" x="1175" y="1015.6953"/><text fill="#000000" font-family="sans-serif" font-size="14" lengthAdjust="spacing" textLength="112" x="1182" y="1037.2285">PatientRepository</text><rect fill="#E2E2F0" height="31.6094" rx="2.5" ry="2.5" style="stroke:#181818;stroke-width:0.5;" width="95" x="1311" y="5"/><text fill="#000000" font-family="sans-serif" font-size="14" lengthAdjust="spacing" textLength="81" x="1318" y="26.5332">EmailService</text><rect fill="#E2E2F0" height="31.6094" rx="2.5" ry="2.5" style="stroke:#181818;stroke-width:0.5;" width="95" x="1311" y="1015.6953"/><text fill="#000000" font-family="sans-serif" font-size="14" lengthAdjust="spacing" textLength="81" x="1318" y="1037.2285">EmailService</text><rect fill="#E2E2F0" height="31.6094" rx="2.5" ry="2.5" style="stroke:#181818;stroke-width:0.5;" width="112" x="1416" y="5"/><text fill="#000000" font-family="sans-serif" font-size="14" lengthAdjust="spacing" textLength="98" x="1423" y="26.5332">LoggingService</text><rect fill="#E2E2F0" height="31.6094" rx="2.5" ry="2.5" style="stroke:#181818;stroke-width:0.5;" width="112" x="1416" y="1015.6953"/><text fill="#000000" font-family="sans-serif" font-size="14" lengthAdjust="spacing" textLength="98" x="1423" y="1037.2285">LoggingService</text><rect fill="#E2E2F0" height="31.6094" rx="2.5" ry="2.5" style="stroke:#181818;stroke-width:0.5;" width="101" x="1538" y="5"/><text fill="#000000" font-family="sans-serif" font-size="14" lengthAdjust="spacing" textLength="87" x="1545" y="26.5332">TokenService</text><rect fill="#E2E2F0" height="31.6094" rx="2.5" ry="2.5" style="stroke:#181818;stroke-width:0.5;" width="101" x="1538" y="1015.6953"/><text fill="#000000" font-family="sans-serif" font-size="14" lengthAdjust="spacing" textLength="87" x="1545" y="1037.2285">TokenService</text><rect fill="#FFFFFF" height="46.7031" style="stroke:#181818;stroke-width:1.0;" width="10" x="175" y="69.9609"/><rect fill="#FFFFFF" height="30.3516" style="stroke:#181818;stroke-width:1.0;" width="10" x="175" y="968.3438"/><rect fill="#FFFFFF" height="83.0547" style="stroke:#181818;stroke-width:1.0;" width="10" x="466" y="116.6641"/><rect fill="#FFFFFF" height="55.7031" style="stroke:#181818;stroke-width:1.0;" width="10" x="466" y="689.3438"/><rect fill="#FFFFFF" height="32.3516" style="stroke:#181818;stroke-width:1.0;" width="10" x="466" y="821.8438"/><rect fill="#FFFFFF" height="37.3516" style="stroke:#181818;stroke-width:1.0;" width="10" x="466" y="930.9922"/><rect fill="#FFFFFF" height="30.3516" style="stroke:#181818;stroke-width:1.0;" width="10" x="825" y="199.7188"/><rect fill="#FFFFFF" height="72.9609" style="stroke:#181818;stroke-width:1.0;" width="10" x="825" y="260.4219"/><rect fill="#FFFFFF" height="98.3125" style="stroke:#181818;stroke-width:1.0;" width="10" x="825" y="363.7344"/><rect fill="#FFFFFF" height="30.3516" style="stroke:#181818;stroke-width:1.0;" width="10" x="825" y="492.3984"/><rect fill="#FFFFFF" height="57.3633" style="stroke:#181818;stroke-width:1.0;" width="10" x="825" y="564.2773"/><rect fill="#FFFFFF" height="37.3516" style="stroke:#181818;stroke-width:1.0;" width="10" x="825" y="651.9922"/><rect fill="#FFFFFF" height="30.3516" style="stroke:#181818;stroke-width:1.0;" width="10" x="1109" y="333.3828"/><rect fill="#FFFFFF" height="30.3516" style="stroke:#181818;stroke-width:1.0;" width="10" x="1233" y="230.0703"/><rect fill="#FFFFFF" height="30.3516" style="stroke:#181818;stroke-width:1.0;" width="10" x="1233" y="621.6406"/><rect fill="#FFFFFF" height="41.5273" style="stroke:#181818;stroke-width:1.0;" width="10" x="1353.5" y="522.75"/><rect fill="#FFFFFF" height="76.7969" style="stroke:#181818;stroke-width:1.0;" width="10" x="1467" y="745.0469"/><rect fill="#FFFFFF" height="76.7969" style="stroke:#181818;stroke-width:1.0;" width="10" x="1467" y="854.1953"/><rect fill="#FFFFFF" height="30.3516" style="stroke:#181818;stroke-width:1.0;" width="10" x="1583.5" y="462.0469"/><polygon fill="#181818" points="163,65.9609,173,69.9609,163,73.9609,167,69.9609" style="stroke:#181818;stroke-width:1.0;"/><line style="stroke:#181818;stroke-width:1.0;" x1="0" x2="169" y1="69.9609" y2="69.9609"/><text fill="#000000" font-family="sans-serif" font-size="13" font-weight="bold" lengthAdjust="spacing" textLength="7" x="7" y="65.1045">1</text><text fill="#000000" font-family="sans-serif" font-size="13" lengthAdjust="spacing" textLength="145" x="18" y="65.1045">POST(editPatientInfoDto)</text><polygon fill="#181818" points="454,112.6641,464,116.6641,454,120.6641,458,116.6641" style="stroke:#181818;stroke-width:1.0;"/><line style="stroke:#181818;stroke-width:1.0;" x1="180" x2="460" y1="116.6641" y2="116.6641"/><text fill="#000000" font-family="sans-serif" font-size="13" font-weight="bold" lengthAdjust="spacing" textLength="7" x="187" y="103.6318">2</text><text fill="#000000" font-family="sans-serif" font-size="13" lengthAdjust="spacing" textLength="251" x="198" y="95.4561">EditPatientProfilePatient(editPatientInfoDto,</text><text fill="#000000" font-family="sans-serif" font-size="13" lengthAdjust="spacing" textLength="64" x="202" y="111.8076">authToken)</text><path d="M481,129.6641 L481,171.6641 L709,171.6641 L709,139.6641 L699,129.6641 L481,129.6641 " fill="#FEFFDD" style="stroke:#181818;stroke-width:0.5;"/><path d="M699,129.6641 L699,139.6641 L709,139.6641 L699,129.6641 " fill="#FEFFDD" style="stroke:#181818;stroke-width:0.5;"/><text fill="#000000" font-family="sans-serif" font-size="13" font-weight="bold" lengthAdjust="spacing" textLength="188" x="487" y="148.1592">Token Authentication Process</text><text fill="#000000" font-family="sans-serif" font-size="13" lengthAdjust="spacing" textLength="11" x="679" y="148.1592">to</text><text fill="#000000" font-family="sans-serif" font-size="13" lengthAdjust="spacing" textLength="168" x="487" y="164.5107">validate the user permissions</text><polygon fill="#181818" points="813,195.7188,823,199.7188,813,203.7188,817,199.7188" style="stroke:#181818;stroke-width:1.0;"/><line style="stroke:#181818;stroke-width:1.0;" x1="471" x2="819" y1="199.7188" y2="199.7188"/><text fill="#000000" font-family="sans-serif" font-size="13" font-weight="bold" lengthAdjust="spacing" textLength="7" x="478" y="194.8623">3</text><text fill="#000000" font-family="sans-serif" font-size="13" lengthAdjust="spacing" textLength="319" x="489" y="194.8623">EditPatientProfilePatient(editPatientInfoDto, authToken)</text><polygon fill="#181818" points="1221,226.0703,1231,230.0703,1221,234.0703,1225,230.0703" style="stroke:#181818;stroke-width:1.0;"/><line style="stroke:#181818;stroke-width:1.0;" x1="830" x2="1227" y1="230.0703" y2="230.0703"/><text fill="#000000" font-family="sans-serif" font-size="13" font-weight="bold" lengthAdjust="spacing" textLength="7" x="837" y="225.2139">4</text><text fill="#000000" font-family="sans-serif" font-size="13" lengthAdjust="spacing" textLength="218" x="848" y="225.2139">GetByUserIdAsync(authToken.userId)</text><polygon fill="#181818" points="846,256.4219,836,260.4219,846,264.4219,842,260.4219" style="stroke:#181818;stroke-width:1.0;"/><line style="stroke:#181818;stroke-width:1.0;stroke-dasharray:2.0,2.0;" x1="840" x2="1237" y1="260.4219" y2="260.4219"/><text fill="#000000" font-family="sans-serif" font-size="13" font-weight="bold" lengthAdjust="spacing" textLength="7" x="852" y="255.5654">5</text><text fill="#000000" font-family="sans-serif" font-size="13" lengthAdjust="spacing" textLength="39" x="863" y="255.5654">patient</text><polygon fill="#181818" points="1051,286.7734,1061,290.7734,1051,294.7734,1055,290.7734" style="stroke:#181818;stroke-width:1.0;"/><line style="stroke:#181818;stroke-width:1.0;" x1="835" x2="1057" y1="290.7734" y2="290.7734"/><text fill="#000000" font-family="sans-serif" font-size="13" font-weight="bold" lengthAdjust="spacing" textLength="7" x="842" y="285.917">6</text><text fill="#000000" font-family="sans-serif" font-size="13" lengthAdjust="spacing" textLength="83" x="853" y="285.917">create(patient)</text><rect fill="#E2E2F0" height="31.6094" rx="2.5" ry="2.5" style="stroke:#181818;stroke-width:0.5;" width="102" x="1063" y="268.4219"/><text fill="#000000" font-family="sans-serif" font-size="14" lengthAdjust="spacing" textLength="88" x="1070" y="289.9551">PatientBuilder</text><polygon fill="#181818" points="1097,329.3828,1107,333.3828,1097,337.3828,1101,333.3828" style="stroke:#181818;stroke-width:1.0;"/><line style="stroke:#181818;stroke-width:1.0;" x1="830" x2="1103" y1="333.3828" y2="333.3828"/><text fill="#000000" font-family="sans-serif" font-size="13" font-weight="bold" lengthAdjust="spacing" textLength="7" x="837" y="328.5264">7</text><text fill="#000000" font-family="sans-serif" font-size="13" lengthAdjust="spacing" textLength="244" x="848" y="328.5264">updatePatientWithData(editPatientInfoDto)</text><polygon fill="#181818" points="846,359.7344,836,363.7344,846,367.7344,842,363.7344" style="stroke:#181818;stroke-width:1.0;"/><line style="stroke:#181818;stroke-width:1.0;stroke-dasharray:2.0,2.0;" x1="840" x2="1113" y1="363.7344" y2="363.7344"/><text fill="#000000" font-family="sans-serif" font-size="13" font-weight="bold" lengthAdjust="spacing" textLength="7" x="852" y="358.8779">8</text><text fill="#000000" font-family="sans-serif" font-size="13" lengthAdjust="spacing" textLength="39" x="863" y="358.8779">patient</text><polygon fill="#181818" points="902,390.0859,912,394.0859,902,398.0859,906,394.0859" style="stroke:#181818;stroke-width:1.0;"/><line style="stroke:#181818;stroke-width:1.0;" x1="835" x2="908" y1="394.0859" y2="394.0859"/><text fill="#000000" font-family="sans-serif" font-size="13" font-weight="bold" lengthAdjust="spacing" textLength="7" x="842" y="389.2295">9</text><text fill="#000000" font-family="sans-serif" font-size="13" lengthAdjust="spacing" textLength="44" x="853" y="389.2295">create()</text><rect fill="#E2E2F0" height="31.6094" rx="2.5" ry="2.5" style="stroke:#181818;stroke-width:0.5;" width="80" x="914" y="371.7344"/><text fill="#000000" font-family="sans-serif" font-size="14" lengthAdjust="spacing" textLength="66" x="921" y="393.2676">PatientDto</text><path d="M662,421.3438 L723,421.3438 L723,429.6953 L713,439.6953 L662,439.6953 L662,421.3438 " fill="#EEEEEE" style="stroke:#000000;stroke-width:1.5;"/><rect fill="none" height="238.6484" style="stroke:#000000;stroke-width:1.5;" width="987" x="662" y="421.3438"/><text fill="#000000" font-family="sans-serif" font-size="13" font-weight="bold" lengthAdjust="spacing" textLength="16" x="677" y="435.8389">alt</text><text fill="#000000" font-family="sans-serif" font-size="11" font-weight="bold" lengthAdjust="spacing" textLength="226" x="738" y="434.7627">[if any sensitive information was altered]</text><polygon fill="#181818" points="1571.5,458.0469,1581.5,462.0469,1571.5,466.0469,1575.5,462.0469" style="stroke:#181818;stroke-width:1.0;"/><line style="stroke:#181818;stroke-width:1.0;" x1="830" x2="1577.5" y1="462.0469" y2="462.0469"/><text fill="#000000" font-family="sans-serif" font-size="13" font-weight="bold" lengthAdjust="spacing" textLength="14" x="837" y="457.1904">10</text><text fill="#000000" font-family="sans-serif" font-size="13" lengthAdjust="spacing" textLength="305" x="855" y="457.1904">generateUpdateConfirmationToken(authToken.userId)</text><polygon fill="#181818" points="846,488.3984,836,492.3984,846,496.3984,842,492.3984" style="stroke:#181818;stroke-width:1.0;"/><line style="stroke:#181818;stroke-width:1.0;stroke-dasharray:2.0,2.0;" x1="840" x2="1587.5" y1="492.3984" y2="492.3984"/><text fill="#000000" font-family="sans-serif" font-size="13" font-weight="bold" lengthAdjust="spacing" textLength="14" x="852" y="487.542">11</text><text fill="#000000" font-family="sans-serif" font-size="13" lengthAdjust="spacing" textLength="52" x="870" y="487.542">tokenDto</text><polygon fill="#181818" points="1341.5,518.75,1351.5,522.75,1341.5,526.75,1345.5,522.75" style="stroke:#181818;stroke-width:1.0;"/><line style="stroke:#181818;stroke-width:1.0;" x1="830" x2="1347.5" y1="522.75" y2="522.75"/><text fill="#000000" font-family="sans-serif" font-size="13" font-weight="bold" lengthAdjust="spacing" textLength="14" x="837" y="517.8936">12</text><text fill="#000000" font-family="sans-serif" font-size="13" lengthAdjust="spacing" textLength="400" x="855" y="517.8936">sendPatientUpdateNotification(emailAddress, tokenDTO, patientDTO)</text><polygon fill="#181818" points="846,560.2773,836,564.2773,846,568.2773,842,564.2773" style="stroke:#181818;stroke-width:1.0;"/><line style="stroke:#181818;stroke-width:1.0;stroke-dasharray:2.0,2.0;" x1="840" x2="1357.5" y1="564.2773" y2="564.2773"/><text fill="#000000" font-family="sans-serif" font-size="13" font-weight="bold" lengthAdjust="spacing" textLength="14" x="852" y="559.4209">13</text><text fill="#000000" font-family="sans-serif" font-size="13" lengthAdjust="spacing" textLength="51" x="870" y="559.4209">opResult</text><path d="M672,535.75 L672,577.75 L820,577.75 L820,545.75 L810,535.75 L672,535.75 " fill="#FEFFDD" style="stroke:#181818;stroke-width:0.5;"/><path d="M810,535.75 L810,545.75 L820,545.75 L810,535.75 " fill="#FEFFDD" style="stroke:#181818;stroke-width:0.5;"/><text fill="#000000" font-family="sans-serif" font-size="13" lengthAdjust="spacing" textLength="122" x="678" y="554.2451">Ends process to wait</text><text fill="#000000" font-family="sans-serif" font-size="13" lengthAdjust="spacing" textLength="127" x="678" y="570.5967">for e-mail confirmation</text><line style="stroke:#000000;stroke-width:1.0;stroke-dasharray:2.0,2.0;" x1="662" x2="1649" y1="584.4531" y2="584.4531"/><text fill="#000000" font-family="sans-serif" font-size="11" font-weight="bold" lengthAdjust="spacing" textLength="228" x="667" y="595.8721">[if non sensitive information was altered]</text><polygon fill="#181818" points="1221,617.6406,1231,621.6406,1221,625.6406,1225,621.6406" style="stroke:#181818;stroke-width:1.0;"/><line style="stroke:#181818;stroke-width:1.0;" x1="830" x2="1227" y1="621.6406" y2="621.6406"/><text fill="#000000" font-family="sans-serif" font-size="13" font-weight="bold" lengthAdjust="spacing" textLength="14" x="837" y="616.7842">14</text><text fill="#000000" font-family="sans-serif" font-size="13" lengthAdjust="spacing" textLength="86" x="855" y="616.7842">update(patient)</text><polygon fill="#181818" points="846,647.9922,836,651.9922,846,655.9922,842,651.9922" style="stroke:#181818;stroke-width:1.0;"/><line style="stroke:#181818;stroke-width:1.0;stroke-dasharray:2.0,2.0;" x1="840" x2="1237" y1="651.9922" y2="651.9922"/><text fill="#000000" font-family="sans-serif" font-size="13" font-weight="bold" lengthAdjust="spacing" textLength="14" x="852" y="647.1357">15</text><text fill="#000000" font-family="sans-serif" font-size="13" lengthAdjust="spacing" textLength="39" x="870" y="647.1357">patient</text><polygon fill="#181818" points="487,685.3438,477,689.3438,487,693.3438,483,689.3438" style="stroke:#181818;stroke-width:1.0;"/><line style="stroke:#181818;stroke-width:1.0;stroke-dasharray:2.0,2.0;" x1="481" x2="829" y1="689.3438" y2="689.3438"/><text fill="#000000" font-family="sans-serif" font-size="13" font-weight="bold" lengthAdjust="spacing" textLength="14" x="493" y="684.4873">16</text><text fill="#000000" font-family="sans-serif" font-size="13" lengthAdjust="spacing" textLength="59" x="511" y="684.4873">patientDto</text><path d="M401,704.3438 L462,704.3438 L462,712.6953 L452,722.6953 L401,722.6953 L401,704.3438 " fill="#EEEEEE" style="stroke:#000000;stroke-width:1.5;"/><rect fill="none" height="234.6484" style="stroke:#000000;stroke-width:1.5;" width="1194" x="401" y="704.3438"/><text fill="#000000" font-family="sans-serif" font-size="13" font-weight="bold" lengthAdjust="spacing" textLength="16" x="416" y="718.8389">alt</text><text fill="#000000" font-family="sans-serif" font-size="11" font-weight="bold" lengthAdjust="spacing" textLength="226" x="477" y="717.7627">[If any sensitive information was altered]</text><polygon fill="#181818" points="1455,741.0469,1465,745.0469,1455,749.0469,1459,745.0469" style="stroke:#181818;stroke-width:1.0;"/><line style="stroke:#181818;stroke-width:1.0;" x1="471" x2="1461" y1="745.0469" y2="745.0469"/><text fill="#000000" font-family="sans-serif" font-size="13" font-weight="bold" lengthAdjust="spacing" textLength="14" x="478" y="740.1904">17</text><text fill="#000000" font-family="sans-serif" font-size="13" lengthAdjust="spacing" textLength="318" x="496" y="740.1904">logPatientEditingAttempt(patientDto, authToken.userId)</text><rect fill="none" height="41.4453" style="stroke:#000000;stroke-width:1.5;" width="175" x="1413" y="753.0469"/><path d="M1413,753.0469 L1475,753.0469 L1475,761.0469 L1465,771.0469 L1413,771.0469 L1413,753.0469 " fill="#EEEEEE" style="stroke:#000000;stroke-width:2.0;"/><text fill="#000000" font-family="sans-serif" font-size="13" font-weight="bold" lengthAdjust="spacing" textLength="17" x="1426" y="768.542">ref</text><text fill="#000000" font-family="sans-serif" font-size="12" lengthAdjust="spacing" textLength="167" x="1417" y="787.5039">See Generic SD-Logging-Flow</text><polygon fill="#181818" points="487,817.8438,477,821.8438,487,825.8438,483,821.8438" style="stroke:#181818;stroke-width:1.0;"/><line style="stroke:#181818;stroke-width:1.0;stroke-dasharray:2.0,2.0;" x1="481" x2="1471" y1="821.8438" y2="821.8438"/><text fill="#000000" font-family="sans-serif" font-size="13" font-weight="bold" lengthAdjust="spacing" textLength="14" x="493" y="816.9873">18</text><text fill="#000000" font-family="sans-serif" font-size="13" lengthAdjust="spacing" textLength="4" x="511" y="816.9873">&#160;</text><line style="stroke:#000000;stroke-width:1.0;stroke-dasharray:2.0,2.0;" x1="401" x2="1595" y1="830.8438" y2="830.8438"/><polygon fill="#181818" points="1455,850.1953,1465,854.1953,1455,858.1953,1459,854.1953" style="stroke:#181818;stroke-width:1.0;"/><line style="stroke:#181818;stroke-width:1.0;" x1="471" x2="1461" y1="854.1953" y2="854.1953"/><text fill="#000000" font-family="sans-serif" font-size="13" font-weight="bold" lengthAdjust="spacing" textLength="14" x="478" y="849.3389">19</text><text fill="#000000" font-family="sans-serif" font-size="13" lengthAdjust="spacing" textLength="165" x="496" y="849.3389">logPatientEditing(patientDto)</text><rect fill="none" height="41.4453" style="stroke:#000000;stroke-width:1.5;" width="175" x="1413" y="862.1953"/><path d="M1413,862.1953 L1475,862.1953 L1475,870.1953 L1465,880.1953 L1413,880.1953 L1413,862.1953 " fill="#EEEEEE" style="stroke:#000000;stroke-width:2.0;"/><text fill="#000000" font-family="sans-serif" font-size="13" font-weight="bold" lengthAdjust="spacing" textLength="17" x="1426" y="877.6904">ref</text><text fill="#000000" font-family="sans-serif" font-size="12" lengthAdjust="spacing" textLength="167" x="1417" y="896.6523">See Generic SD-Logging-Flow</text><polygon fill="#181818" points="487,926.9922,477,930.9922,487,934.9922,483,930.9922" style="stroke:#181818;stroke-width:1.0;"/><line style="stroke:#181818;stroke-width:1.0;stroke-dasharray:2.0,2.0;" x1="481" x2="1471" y1="930.9922" y2="930.9922"/><text fill="#000000" font-family="sans-serif" font-size="13" font-weight="bold" lengthAdjust="spacing" textLength="14" x="493" y="926.1357">20</text><text fill="#000000" font-family="sans-serif" font-size="13" lengthAdjust="spacing" textLength="4" x="511" y="926.1357">&#160;</text><polygon fill="#181818" points="196,964.3438,186,968.3438,196,972.3438,192,968.3438" style="stroke:#181818;stroke-width:1.0;"/><line style="stroke:#181818;stroke-width:1.0;stroke-dasharray:2.0,2.0;" x1="190" x2="470" y1="968.3438" y2="968.3438"/><text fill="#000000" font-family="sans-serif" font-size="13" font-weight="bold" lengthAdjust="spacing" textLength="14" x="202" y="963.4873">21</text><text fill="#000000" font-family="sans-serif" font-size="13" lengthAdjust="spacing" textLength="111" x="220" y="963.4873">opperationSuccess</text><polygon fill="#181818" points="11,994.6953,1,998.6953,11,1002.6953,7,998.6953" style="stroke:#181818;stroke-width:1.0;"/><line style="stroke:#181818;stroke-width:1.0;stroke-dasharray:2.0,2.0;" x1="5" x2="179" y1="998.6953" y2="998.6953"/><text fill="#000000" font-family="sans-serif" font-size="13" font-weight="bold" lengthAdjust="spacing" textLength="14" x="17" y="993.8389">22</text><text fill="#000000" font-family="sans-serif" font-size="13" lengthAdjust="spacing" textLength="111" x="35" y="993.8389">opperationSuccess</text><!--SRC=[pLNBRjim4BphAtYhRKJ9tIWAE4rQ12YQ84xGIoyikPA9KgHAKWxyzrrIf4GvSXuzLIU9cftTsHS_x9nhxVhYefLKkQwHvqmt5nR-TA0Ob5pGsj2cA6ZdjEgQNs2AbXedc6WHJ-vrvuIg2RN4u2jCVjvH9q2vprevewK4us7C6Jc7seBP2mOUOlTi3d7bjF_BdPxxUza9oNiNBKrVSy1xQBKLJfj3nFg32V2weK9cyK3uFWhgcwvhL9x1fAuzg2W_zRaWQt9tktrO01Sk-hvHbKOPIymdSs9F4TIdZU3J6w6rJn4QNuzsTqPNGaBycc4y-wa8bcZte7-3MXOSZlX7Vo7_tftI_g-eTsuyMwq20TaW5P8BXawq8kYUWRMh5S4I1E2UIi4z7U98Pp7lBPX6M8jmsqD0yU0ZV0H9A0rB-rvb9tI5c4TPlcUy8-y0_SIoeg-lu2uFZnZX3T_OWsABWUwy2wSJLaypagRcyCI9iUnLhFs13pEtJlYNmegTYRbS4sO0GOl8j9n78gvhVQvZNdu8jxkYZixsrKjIqan4DOc-7CeohoYPdHI50vchMHPKEY8gGjM1M50uQs8FH628fkdxwGcd1K5WW9ESAPGbJTIQrA308ELZa8zhf1AH8G1Vh-JmaHC7XnDFOmQSFyP4vaGJsrCvI2i2EL0oZsNf0_-kdQZYA2q2SCEvmNawY_uURizIxl7zXI8EYoZCLt8vXg_RUx2Td5Hmi9d6NeJnbr2vubfnt8FzYFi1VwB2aGAhHQ3qneHbcI-6iIv0Ml1rLbZHL-iyFvnzOuy3y2-JIDunYZxuCP9nrRR33NEoXOOTwRlxvbtTdPPVVq6WEto97U8t8TuY6-UWQTrYZ2DRUtFTVRJzujKJRX6eYDxZN6Td_ja2u2x4WHACRA_AU7sLNwH-6jOrseRt6EYOeDnrkkQciOHcUAFQJEP_BahnJ59sh-kszPi9gxtjc9-RPpAExj-FPVasum3w2m00]--></g></svg>