<?xml version="1.0" encoding="us-ascii" standalone="no"?><svg xmlns="http://www.w3.org/2000/svg" xmlns:xlink="http://www.w3.org/1999/xlink" contentStyleType="text/css" height="642px" preserveAspectRatio="none" style="width:1499px;height:642px;background:#FFFFFF;" version="1.1" viewBox="0 0 1499 642" width="1499px" zoomAndPan="magnify"><defs/><g><rect fill="#FFFFFF" height="30.3516" style="stroke:#181818;stroke-width:1.0;" width="10" x="175" y="69.9609"/><rect fill="#FFFFFF" height="30.3516" style="stroke:#181818;stroke-width:1.0;" width="10" x="175" y="557.8438"/><rect fill="#FFFFFF" height="83.0547" style="stroke:#181818;stroke-width:1.0;" width="10" x="476" y="100.3125"/><rect fill="#FFFFFF" height="30.3516" style="stroke:#181818;stroke-width:1.0;" width="10" x="476" y="420.3438"/><rect fill="#FFFFFF" height="30.3516" style="stroke:#181818;stroke-width:1.0;" width="10" x="476" y="527.4922"/><rect fill="#FFFFFF" height="30.3516" style="stroke:#181818;stroke-width:1.0;" width="10" x="835" y="183.3672"/><rect fill="#FFFFFF" height="72.9609" style="stroke:#181818;stroke-width:1.0;" width="10" x="835" y="244.0703"/><rect fill="#FFFFFF" height="72.9609" style="stroke:#181818;stroke-width:1.0;" width="10" x="835" y="347.3828"/><rect fill="#FFFFFF" height="30.3516" style="stroke:#181818;stroke-width:1.0;" width="10" x="1119" y="317.0313"/><rect fill="#FFFFFF" height="30.3516" style="stroke:#181818;stroke-width:1.0;" width="10" x="1243" y="213.7188"/><rect fill="#FFFFFF" height="76.7969" style="stroke:#181818;stroke-width:1.0;" width="10" x="1372" y="450.6953"/><line style="stroke:#181818;stroke-width:0.5;stroke-dasharray:5.0,5.0;" x1="179.5" x2="179.5" y1="37.6094" y2="606.1953"/><line style="stroke:#181818;stroke-width:0.5;stroke-dasharray:5.0,5.0;" x1="481" x2="481" y1="37.6094" y2="606.1953"/><line style="stroke:#181818;stroke-width:0.5;stroke-dasharray:5.0,5.0;" x1="839.5" x2="839.5" y1="37.6094" y2="606.1953"/><line style="stroke:#181818;stroke-width:0.5;stroke-dasharray:5.0,5.0;" x1="964" x2="964" y1="386.6875" y2="606.1953"/><line style="stroke:#181818;stroke-width:0.5;stroke-dasharray:5.0,5.0;" x1="1124" x2="1124" y1="283.375" y2="606.1953"/><line style="stroke:#181818;stroke-width:0.5;stroke-dasharray:5.0,5.0;" x1="1248" x2="1248" y1="37.6094" y2="606.1953"/><line style="stroke:#181818;stroke-width:0.5;stroke-dasharray:5.0,5.0;" x1="1377" x2="1377" y1="37.6094" y2="606.1953"/><rect fill="#E2E2F0" height="31.6094" rx="2.5" ry="2.5" style="stroke:#181818;stroke-width:0.5;" width="63" x="148.5" y="5"/><text fill="#000000" font-family="sans-serif" font-size="14" lengthAdjust="spacing" textLength="49" x="155.5" y="26.5332">Routing</text><rect fill="#E2E2F0" height="31.6094" rx="2.5" ry="2.5" style="stroke:#181818;stroke-width:0.5;" width="63" x="148.5" y="605.1953"/><text fill="#000000" font-family="sans-serif" font-size="14" lengthAdjust="spacing" textLength="49" x="155.5" y="626.7285">Routing</text><rect fill="#E2E2F0" height="31.6094" rx="2.5" ry="2.5" style="stroke:#181818;stroke-width:0.5;" width="170" x="396" y="5"/><text fill="#000000" font-family="sans-serif" font-size="14" lengthAdjust="spacing" textLength="156" x="403" y="26.5332">ConfirmUpdateController</text><rect fill="#E2E2F0" height="31.6094" rx="2.5" ry="2.5" style="stroke:#181818;stroke-width:0.5;" width="170" x="396" y="605.1953"/><text fill="#000000" font-family="sans-serif" font-size="14" lengthAdjust="spacing" textLength="156" x="403" y="626.7285">ConfirmUpdateController</text><rect fill="#E2E2F0" height="31.6094" rx="2.5" ry="2.5" style="stroke:#181818;stroke-width:0.5;" width="105" x="787.5" y="5"/><text fill="#000000" font-family="sans-serif" font-size="14" lengthAdjust="spacing" textLength="91" x="794.5" y="26.5332">PatientService</text><rect fill="#E2E2F0" height="31.6094" rx="2.5" ry="2.5" style="stroke:#181818;stroke-width:0.5;" width="105" x="787.5" y="605.1953"/><text fill="#000000" font-family="sans-serif" font-size="14" lengthAdjust="spacing" textLength="91" x="794.5" y="626.7285">PatientService</text><rect fill="#E2E2F0" height="31.6094" rx="2.5" ry="2.5" style="stroke:#181818;stroke-width:0.5;" width="80" x="924" y="605.1953"/><text fill="#000000" font-family="sans-serif" font-size="14" lengthAdjust="spacing" textLength="66" x="931" y="626.7285">PatientDto</text><rect fill="#E2E2F0" height="31.6094" rx="2.5" ry="2.5" style="stroke:#181818;stroke-width:0.5;" width="102" x="1073" y="605.1953"/><text fill="#000000" font-family="sans-serif" font-size="14" lengthAdjust="spacing" textLength="88" x="1080" y="626.7285">PatientBuilder</text><rect fill="#E2E2F0" height="31.6094" rx="2.5" ry="2.5" style="stroke:#181818;stroke-width:0.5;" width="126" x="1185" y="5"/><text fill="#000000" font-family="sans-serif" font-size="14" lengthAdjust="spacing" textLength="112" x="1192" y="26.5332">PatientRepository</text><rect fill="#E2E2F0" height="31.6094" rx="2.5" ry="2.5" style="stroke:#181818;stroke-width:0.5;" width="126" x="1185" y="605.1953"/><text fill="#000000" font-family="sans-serif" font-size="14" lengthAdjust="spacing" textLength="112" x="1192" y="626.7285">PatientRepository</text><rect fill="#E2E2F0" height="31.6094" rx="2.5" ry="2.5" style="stroke:#181818;stroke-width:0.5;" width="112" x="1321" y="5"/><text fill="#000000" font-family="sans-serif" font-size="14" lengthAdjust="spacing" textLength="98" x="1328" y="26.5332">LoggingService</text><rect fill="#E2E2F0" height="31.6094" rx="2.5" ry="2.5" style="stroke:#181818;stroke-width:0.5;" width="112" x="1321" y="605.1953"/><text fill="#000000" font-family="sans-serif" font-size="14" lengthAdjust="spacing" textLength="98" x="1328" y="626.7285">LoggingService</text><rect fill="#FFFFFF" height="30.3516" style="stroke:#181818;stroke-width:1.0;" width="10" x="175" y="69.9609"/><rect fill="#FFFFFF" height="30.3516" style="stroke:#181818;stroke-width:1.0;" width="10" x="175" y="557.8438"/><rect fill="#FFFFFF" height="83.0547" style="stroke:#181818;stroke-width:1.0;" width="10" x="476" y="100.3125"/><rect fill="#FFFFFF" height="30.3516" style="stroke:#181818;stroke-width:1.0;" width="10" x="476" y="420.3438"/><rect fill="#FFFFFF" height="30.3516" style="stroke:#181818;stroke-width:1.0;" width="10" x="476" y="527.4922"/><rect fill="#FFFFFF" height="30.3516" style="stroke:#181818;stroke-width:1.0;" width="10" x="835" y="183.3672"/><rect fill="#FFFFFF" height="72.9609" style="stroke:#181818;stroke-width:1.0;" width="10" x="835" y="244.0703"/><rect fill="#FFFFFF" height="72.9609" style="stroke:#181818;stroke-width:1.0;" width="10" x="835" y="347.3828"/><rect fill="#FFFFFF" height="30.3516" style="stroke:#181818;stroke-width:1.0;" width="10" x="1119" y="317.0313"/><rect fill="#FFFFFF" height="30.3516" style="stroke:#181818;stroke-width:1.0;" width="10" x="1243" y="213.7188"/><rect fill="#FFFFFF" height="76.7969" style="stroke:#181818;stroke-width:1.0;" width="10" x="1372" y="450.6953"/><polygon fill="#181818" points="163,65.9609,173,69.9609,163,73.9609,167,69.9609" style="stroke:#181818;stroke-width:1.0;"/><line style="stroke:#181818;stroke-width:1.0;" x1="0" x2="169" y1="69.9609" y2="69.9609"/><text fill="#000000" font-family="sans-serif" font-size="13" font-weight="bold" lengthAdjust="spacing" textLength="7" x="7" y="65.1045">1</text><text fill="#000000" font-family="sans-serif" font-size="13" lengthAdjust="spacing" textLength="145" x="18" y="65.1045">POST(editPatientInfoDto)</text><polygon fill="#181818" points="464,96.3125,474,100.3125,464,104.3125,468,100.3125" style="stroke:#181818;stroke-width:1.0;"/><line style="stroke:#181818;stroke-width:1.0;" x1="180" x2="470" y1="100.3125" y2="100.3125"/><text fill="#000000" font-family="sans-serif" font-size="13" font-weight="bold" lengthAdjust="spacing" textLength="7" x="187" y="95.4561">2</text><text fill="#000000" font-family="sans-serif" font-size="13" lengthAdjust="spacing" textLength="261" x="198" y="95.4561">ConfirmPatientInformation(confirmationToken)</text><path d="M491,113.3125 L491,155.3125 L719,155.3125 L719,123.3125 L709,113.3125 L491,113.3125 " fill="#FEFFDD" style="stroke:#181818;stroke-width:0.5;"/><path d="M709,113.3125 L709,123.3125 L719,123.3125 L709,113.3125 " fill="#FEFFDD" style="stroke:#181818;stroke-width:0.5;"/><text fill="#000000" font-family="sans-serif" font-size="13" font-weight="bold" lengthAdjust="spacing" textLength="188" x="497" y="131.8076">Token Authentication Process</text><text fill="#000000" font-family="sans-serif" font-size="13" lengthAdjust="spacing" textLength="11" x="689" y="131.8076">to</text><text fill="#000000" font-family="sans-serif" font-size="13" lengthAdjust="spacing" textLength="168" x="497" y="148.1592">validate the user permissions</text><polygon fill="#181818" points="823,179.3672,833,183.3672,823,187.3672,827,183.3672" style="stroke:#181818;stroke-width:1.0;"/><line style="stroke:#181818;stroke-width:1.0;" x1="481" x2="829" y1="183.3672" y2="183.3672"/><text fill="#000000" font-family="sans-serif" font-size="13" font-weight="bold" lengthAdjust="spacing" textLength="7" x="488" y="178.5107">3</text><text fill="#000000" font-family="sans-serif" font-size="13" lengthAdjust="spacing" textLength="319" x="499" y="178.5107">EditPatientProfilePatient(editPatientInfoDto, authToken)</text><polygon fill="#181818" points="1231,209.7188,1241,213.7188,1231,217.7188,1235,213.7188" style="stroke:#181818;stroke-width:1.0;"/><line style="stroke:#181818;stroke-width:1.0;" x1="840" x2="1237" y1="213.7188" y2="213.7188"/><text fill="#000000" font-family="sans-serif" font-size="13" font-weight="bold" lengthAdjust="spacing" textLength="7" x="847" y="208.8623">4</text><text fill="#000000" font-family="sans-serif" font-size="13" lengthAdjust="spacing" textLength="218" x="858" y="208.8623">GetByUserIdAsync(authToken.userId)</text><polygon fill="#181818" points="856,240.0703,846,244.0703,856,248.0703,852,244.0703" style="stroke:#181818;stroke-width:1.0;"/><line style="stroke:#181818;stroke-width:1.0;stroke-dasharray:2.0,2.0;" x1="850" x2="1247" y1="244.0703" y2="244.0703"/><text fill="#000000" font-family="sans-serif" font-size="13" font-weight="bold" lengthAdjust="spacing" textLength="7" x="862" y="239.2139">5</text><text fill="#000000" font-family="sans-serif" font-size="13" lengthAdjust="spacing" textLength="39" x="873" y="239.2139">patient</text><polygon fill="#181818" points="1061,270.4219,1071,274.4219,1061,278.4219,1065,274.4219" style="stroke:#181818;stroke-width:1.0;"/><line style="stroke:#181818;stroke-width:1.0;" x1="845" x2="1067" y1="274.4219" y2="274.4219"/><text fill="#000000" font-family="sans-serif" font-size="13" font-weight="bold" lengthAdjust="spacing" textLength="7" x="852" y="269.5654">6</text><text fill="#000000" font-family="sans-serif" font-size="13" lengthAdjust="spacing" textLength="83" x="863" y="269.5654">create(patient)</text><rect fill="#E2E2F0" height="31.6094" rx="2.5" ry="2.5" style="stroke:#181818;stroke-width:0.5;" width="102" x="1073" y="252.0703"/><text fill="#000000" font-family="sans-serif" font-size="14" lengthAdjust="spacing" textLength="88" x="1080" y="273.6035">PatientBuilder</text><polygon fill="#181818" points="1107,313.0313,1117,317.0313,1107,321.0313,1111,317.0313" style="stroke:#181818;stroke-width:1.0;"/><line style="stroke:#181818;stroke-width:1.0;" x1="840" x2="1113" y1="317.0313" y2="317.0313"/><text fill="#000000" font-family="sans-serif" font-size="13" font-weight="bold" lengthAdjust="spacing" textLength="7" x="847" y="312.1748">7</text><text fill="#000000" font-family="sans-serif" font-size="13" lengthAdjust="spacing" textLength="244" x="858" y="312.1748">updatePatientWithData(editPatientInfoDto)</text><polygon fill="#181818" points="856,343.3828,846,347.3828,856,351.3828,852,347.3828" style="stroke:#181818;stroke-width:1.0;"/><line style="stroke:#181818;stroke-width:1.0;stroke-dasharray:2.0,2.0;" x1="850" x2="1123" y1="347.3828" y2="347.3828"/><text fill="#000000" font-family="sans-serif" font-size="13" font-weight="bold" lengthAdjust="spacing" textLength="7" x="862" y="342.5264">8</text><text fill="#000000" font-family="sans-serif" font-size="13" lengthAdjust="spacing" textLength="39" x="873" y="342.5264">patient</text><polygon fill="#181818" points="912,373.7344,922,377.7344,912,381.7344,916,377.7344" style="stroke:#181818;stroke-width:1.0;"/><line style="stroke:#181818;stroke-width:1.0;" x1="845" x2="918" y1="377.7344" y2="377.7344"/><text fill="#000000" font-family="sans-serif" font-size="13" font-weight="bold" lengthAdjust="spacing" textLength="7" x="852" y="372.8779">9</text><text fill="#000000" font-family="sans-serif" font-size="13" lengthAdjust="spacing" textLength="44" x="863" y="372.8779">create()</text><rect fill="#E2E2F0" height="31.6094" rx="2.5" ry="2.5" style="stroke:#181818;stroke-width:0.5;" width="80" x="924" y="355.3828"/><text fill="#000000" font-family="sans-serif" font-size="14" lengthAdjust="spacing" textLength="66" x="931" y="376.916">PatientDto</text><polygon fill="#181818" points="497,416.3438,487,420.3438,497,424.3438,493,420.3438" style="stroke:#181818;stroke-width:1.0;"/><line style="stroke:#181818;stroke-width:1.0;stroke-dasharray:2.0,2.0;" x1="491" x2="839" y1="420.3438" y2="420.3438"/><text fill="#000000" font-family="sans-serif" font-size="13" font-weight="bold" lengthAdjust="spacing" textLength="14" x="503" y="415.4873">10</text><text fill="#000000" font-family="sans-serif" font-size="13" lengthAdjust="spacing" textLength="59" x="521" y="415.4873">patientDto</text><polygon fill="#181818" points="1360,446.6953,1370,450.6953,1360,454.6953,1364,450.6953" style="stroke:#181818;stroke-width:1.0;"/><line style="stroke:#181818;stroke-width:1.0;" x1="481" x2="1366" y1="450.6953" y2="450.6953"/><text fill="#000000" font-family="sans-serif" font-size="13" font-weight="bold" lengthAdjust="spacing" textLength="14" x="488" y="445.8389">11</text><text fill="#000000" font-family="sans-serif" font-size="13" lengthAdjust="spacing" textLength="165" x="506" y="445.8389">logPatientEditing(patientDto)</text><rect fill="none" height="41.4453" style="stroke:#000000;stroke-width:1.5;" width="175" x="1318" y="458.6953"/><path d="M1318,458.6953 L1380,458.6953 L1380,466.6953 L1370,476.6953 L1318,476.6953 L1318,458.6953 " fill="#EEEEEE" style="stroke:#000000;stroke-width:2.0;"/><text fill="#000000" font-family="sans-serif" font-size="13" font-weight="bold" lengthAdjust="spacing" textLength="17" x="1331" y="474.1904">ref</text><text fill="#000000" font-family="sans-serif" font-size="12" lengthAdjust="spacing" textLength="167" x="1322" y="493.1523">See Generic SD-Logging-Flow</text><polygon fill="#181818" points="497,523.4922,487,527.4922,497,531.4922,493,527.4922" style="stroke:#181818;stroke-width:1.0;"/><line style="stroke:#181818;stroke-width:1.0;stroke-dasharray:2.0,2.0;" x1="491" x2="1376" y1="527.4922" y2="527.4922"/><text fill="#000000" font-family="sans-serif" font-size="13" font-weight="bold" lengthAdjust="spacing" textLength="14" x="503" y="522.6357">12</text><text fill="#000000" font-family="sans-serif" font-size="13" lengthAdjust="spacing" textLength="4" x="521" y="522.6357">&#160;</text><polygon fill="#181818" points="196,553.8438,186,557.8438,196,561.8438,192,557.8438" style="stroke:#181818;stroke-width:1.0;"/><line style="stroke:#181818;stroke-width:1.0;stroke-dasharray:2.0,2.0;" x1="190" x2="480" y1="557.8438" y2="557.8438"/><text fill="#000000" font-family="sans-serif" font-size="13" font-weight="bold" lengthAdjust="spacing" textLength="14" x="202" y="552.9873">13</text><text fill="#000000" font-family="sans-serif" font-size="13" lengthAdjust="spacing" textLength="111" x="220" y="552.9873">opperationSuccess</text><polygon fill="#181818" points="11,584.1953,1,588.1953,11,592.1953,7,588.1953" style="stroke:#181818;stroke-width:1.0;"/><line style="stroke:#181818;stroke-width:1.0;stroke-dasharray:2.0,2.0;" x1="5" x2="179" y1="588.1953" y2="588.1953"/><text fill="#000000" font-family="sans-serif" font-size="13" font-weight="bold" lengthAdjust="spacing" textLength="14" x="17" y="583.3389">14</text><text fill="#000000" font-family="sans-serif" font-size="13" lengthAdjust="spacing" textLength="111" x="35" y="583.3389">opperationSuccess</text><!--SRC=[ZLHDRzim3BtxL-Ws9vYRUp0CQ9jrA31WGTrYPqrcRA6ov4cKX_pxKR8SEuaRp2TzF3xoKNp-r21sRhlPT8fhzAsw4wRTEFZZGGieAibhoziiunwDzkrli5d7BKeXEyAp5-DHwffnnomjuUpoqUY3jErRLt44sg0rIe4DO85MdM7t72LeBC7sKa20k5ui8NPemcs5PkdsmKjL3IawFkwMW2_G6IVHs6F2XeCpu0zJroHjLf4oTKb5PSNNGIpRiltFyZM7IcAYVTO7GnMkg642PK-wKryOVKCGHGVr59pwCmkrBQsDpiLm4pUlvXtqAglWWd7A49iP4cWJRcNTu7IsNaS2Tk-neInIH5AsjqQ0S-iretv6OC-L30_52CUyeoPsO5lf7C7T005TnHnn4qMG67edql9jwW5H7wI2j5lepcT6qzHSwuerJxB208H48G7bIMz4kRu3FXpVgCBdwjuTjSXFT7S-dfwn1fg9T7pfG3mo5eEARJW8PSwZH_ojijAOKI-tJ5WWK9wOLij8mlbeYjINNnAR7KU-E4ctf8m3djICzCNfMPOLZM4VYY9tpTNCP4pJsvtyU5dYzM2Eip8uY89faNI6mI6RvHFThPb85enkWWCpFQcTdOMl1A09qM2bOEMkI3OkdfJvUnfYYethLC-aQfvwjFj7ScQ_0TEHLwAnIY-2hwuaN9ZtIr7yNt04_GC0]--></g></svg>