<?xml version="1.0" encoding="us-ascii" standalone="no"?><svg xmlns="http://www.w3.org/2000/svg" xmlns:xlink="http://www.w3.org/1999/xlink" contentStyleType="text/css" height="686px" preserveAspectRatio="none" style="width:1280px;height:686px;background:#FFFFFF;" version="1.1" viewBox="0 0 1280 686" width="1280px" zoomAndPan="magnify"><defs/><g><!--cluster UserAggregate--><g id="cluster_UserAggregate"><path d="M659.5,165 L766.5,165 A3.75,3.75 0 0 1 769,167.5 L776,188.6094 L1270.5,188.6094 A2.5,2.5 0 0 1 1273,191.1094 L1273,417.5 A2.5,2.5 0 0 1 1270.5,420 L659.5,420 A2.5,2.5 0 0 1 657,417.5 L657,167.5 A2.5,2.5 0 0 1 659.5,165 " fill="none" style="stroke:#000000;stroke-width:1.5;"/><line style="stroke:#000000;stroke-width:1.5;" x1="657" x2="776" y1="188.6094" y2="188.6094"/><text fill="#000000" font-family="sans-serif" font-size="14" font-weight="bold" lengthAdjust="spacing" textLength="106" x="661" y="181.5332">UserAggregate</text></g><!--cluster StaffAggregate--><g id="cluster_StaffAggregate"><path d="M8.5,309 L114.5,309 A3.75,3.75 0 0 1 117,311.5 L124,332.6094 L519.5,332.6094 A2.5,2.5 0 0 1 522,335.1094 L522,676.5 A2.5,2.5 0 0 1 519.5,679 L8.5,679 A2.5,2.5 0 0 1 6,676.5 L6,311.5 A2.5,2.5 0 0 1 8.5,309 " fill="none" style="stroke:#000000;stroke-width:1.5;"/><line style="stroke:#000000;stroke-width:1.5;" x1="6" x2="124" y1="332.6094" y2="332.6094"/><text fill="#000000" font-family="sans-serif" font-size="14" font-weight="bold" lengthAdjust="spacing" textLength="105" x="10" y="325.5332">StaffAggregate</text></g><!--cluster SpecializationAggregate--><g id="cluster_SpecializationAggregate"><path d="M449.5,6 L620.5,6 A3.75,3.75 0 0 1 623,8.5 L630,29.6094 L630.5,29.6094 A2.5,2.5 0 0 1 633,32.1094 L633,273.5 A2.5,2.5 0 0 1 630.5,276 L449.5,276 A2.5,2.5 0 0 1 447,273.5 L447,8.5 A2.5,2.5 0 0 1 449.5,6 " fill="none" style="stroke:#000000;stroke-width:1.5;"/><line style="stroke:#000000;stroke-width:1.5;" x1="447" x2="630" y1="29.6094" y2="29.6094"/><text fill="#000000" font-family="sans-serif" font-size="14" font-weight="bold" lengthAdjust="spacing" textLength="170" x="451" y="22.5332">SpecializationAggregate</text></g><!--class User--><g id="elem_User"><rect codeLine="4" fill="#F1F1F1" height="58.7031" id="User" rx="2.5" ry="2.5" style="stroke:#181818;stroke-width:0.5;" width="101" x="841.5" y="345"/><ellipse cx="856.5" cy="366.3516" fill="#0000FF" rx="11" ry="11" style="stroke:#181818;stroke-width:1.0;"/><path d="M857.0938,369.6172 L859.5625,363.7422 L859.1719,363.7422 Q858.5625,363.7422 858.2969,363.5078 Q858.0313,363.2734 858.0313,362.8828 Q858.0313,362.5078 858.2969,362.2734 Q858.5625,362.0391 859.1719,362.0391 L861.4531,362.0391 Q862.0625,362.0391 862.3281,362.2734 Q862.5938,362.5078 862.5938,362.8828 Q862.5938,363.3516 862.1875,363.6172 Q862,363.7422 861.4063,363.7422 L857.9219,372.1016 L856.2813,372.1016 L852.7969,363.7422 Q852.2031,363.7422 852.0156,363.6172 Q851.6094,363.3516 851.6094,362.8828 Q851.6094,362.5078 851.875,362.2734 Q852.1406,362.0391 852.75,362.0391 L855.0469,362.0391 Q855.6563,362.0391 855.9063,362.2734 Q856.1719,362.5078 856.1719,362.8828 Q856.1719,363.2734 855.9063,363.5078 Q855.6563,363.7422 855.0469,363.7422 L854.6406,363.7422 L857.0938,369.6172 Z " fill="#000000"/><text fill="#000000" font-family="sans-serif" font-size="12" font-style="italic" lengthAdjust="spacing" textLength="73" x="868.5" y="362.457">&#171;Root Entity&#187;</text><text fill="#000000" font-family="sans-serif" font-size="14" lengthAdjust="spacing" textLength="29" x="890.5" y="379.627">User</text><line style="stroke:#181818;stroke-width:0.5;" x1="842.5" x2="941.5" y1="387.7031" y2="387.7031"/><line style="stroke:#181818;stroke-width:0.5;" x1="842.5" x2="941.5" y1="395.7031" y2="395.7031"/></g><!--class ActivationStatus--><g id="elem_ActivationStatus"><rect codeLine="6" fill="#F1F1F1" height="58.7031" id="ActivationStatus" rx="2.5" ry="2.5" style="stroke:#181818;stroke-width:0.5;" width="133" x="673.5" y="345"/><ellipse cx="688.5" cy="366.3516" fill="#F04800" rx="11" ry="11" style="stroke:#181818;stroke-width:1.0;"/><path d="M689.0938,369.6172 L691.5625,363.7422 L691.1719,363.7422 Q690.5625,363.7422 690.2969,363.5078 Q690.0313,363.2734 690.0313,362.8828 Q690.0313,362.5078 690.2969,362.2734 Q690.5625,362.0391 691.1719,362.0391 L693.4531,362.0391 Q694.0625,362.0391 694.3281,362.2734 Q694.5938,362.5078 694.5938,362.8828 Q694.5938,363.3516 694.1875,363.6172 Q694,363.7422 693.4063,363.7422 L689.9219,372.1016 L688.2813,372.1016 L684.7969,363.7422 Q684.2031,363.7422 684.0156,363.6172 Q683.6094,363.3516 683.6094,362.8828 Q683.6094,362.5078 683.875,362.2734 Q684.1406,362.0391 684.75,362.0391 L687.0469,362.0391 Q687.6563,362.0391 687.9063,362.2734 Q688.1719,362.5078 688.1719,362.8828 Q688.1719,363.2734 687.9063,363.5078 Q687.6563,363.7422 687.0469,363.7422 L686.6406,363.7422 L689.0938,369.6172 Z " fill="#000000"/><text fill="#000000" font-family="sans-serif" font-size="12" font-style="italic" lengthAdjust="spacing" textLength="85" x="710.5" y="362.457">&#171;Value Object&#187;</text><text fill="#000000" font-family="sans-serif" font-size="14" lengthAdjust="spacing" textLength="101" x="702.5" y="379.627">ActivationStatus</text><line style="stroke:#181818;stroke-width:0.5;" x1="674.5" x2="805.5" y1="387.7031" y2="387.7031"/><line style="stroke:#181818;stroke-width:0.5;" x1="674.5" x2="805.5" y1="395.7031" y2="395.7031"/></g><!--class Username--><g id="elem_Username"><rect codeLine="7" fill="#F1F1F1" height="58.7031" id="Username" rx="2.5" ry="2.5" style="stroke:#181818;stroke-width:0.5;" width="133" x="1123.5" y="201"/><ellipse cx="1138.5" cy="222.3516" fill="#F09800" rx="11" ry="11" style="stroke:#181818;stroke-width:1.0;"/><path d="M1139.0938,225.6172 L1141.5625,219.7422 L1141.1719,219.7422 Q1140.5625,219.7422 1140.2969,219.5078 Q1140.0313,219.2734 1140.0313,218.8828 Q1140.0313,218.5078 1140.2969,218.2734 Q1140.5625,218.0391 1141.1719,218.0391 L1143.4531,218.0391 Q1144.0625,218.0391 1144.3281,218.2734 Q1144.5938,218.5078 1144.5938,218.8828 Q1144.5938,219.3516 1144.1875,219.6172 Q1144,219.7422 1143.4063,219.7422 L1139.9219,228.1016 L1138.2813,228.1016 L1134.7969,219.7422 Q1134.2031,219.7422 1134.0156,219.6172 Q1133.6094,219.3516 1133.6094,218.8828 Q1133.6094,218.5078 1133.875,218.2734 Q1134.1406,218.0391 1134.75,218.0391 L1137.0469,218.0391 Q1137.6563,218.0391 1137.9063,218.2734 Q1138.1719,218.5078 1138.1719,218.8828 Q1138.1719,219.2734 1137.9063,219.5078 Q1137.6563,219.7422 1137.0469,219.7422 L1136.6406,219.7422 L1139.0938,225.6172 Z " fill="#000000"/><text fill="#000000" font-family="sans-serif" font-size="12" font-style="italic" lengthAdjust="spacing" textLength="105" x="1150.5" y="218.457">&#171;Unique Identifier&#187;</text><text fill="#000000" font-family="sans-serif" font-size="14" lengthAdjust="spacing" textLength="64" x="1171" y="235.627">Username</text><line style="stroke:#181818;stroke-width:0.5;" x1="1124.5" x2="1255.5" y1="243.7031" y2="243.7031"/><line style="stroke:#181818;stroke-width:0.5;" x1="1124.5" x2="1255.5" y1="251.7031" y2="251.7031"/></g><!--class UserRole--><g id="elem_UserRole"><rect codeLine="8" fill="#F1F1F1" height="58.7031" id="UserRole" rx="2.5" ry="2.5" style="stroke:#181818;stroke-width:0.5;" width="113" x="975.5" y="201"/><ellipse cx="990.5" cy="222.3516" fill="#F04800" rx="11" ry="11" style="stroke:#181818;stroke-width:1.0;"/><path d="M991.0938,225.6172 L993.5625,219.7422 L993.1719,219.7422 Q992.5625,219.7422 992.2969,219.5078 Q992.0313,219.2734 992.0313,218.8828 Q992.0313,218.5078 992.2969,218.2734 Q992.5625,218.0391 993.1719,218.0391 L995.4531,218.0391 Q996.0625,218.0391 996.3281,218.2734 Q996.5938,218.5078 996.5938,218.8828 Q996.5938,219.3516 996.1875,219.6172 Q996,219.7422 995.4063,219.7422 L991.9219,228.1016 L990.2813,228.1016 L986.7969,219.7422 Q986.2031,219.7422 986.0156,219.6172 Q985.6094,219.3516 985.6094,218.8828 Q985.6094,218.5078 985.875,218.2734 Q986.1406,218.0391 986.75,218.0391 L989.0469,218.0391 Q989.6563,218.0391 989.9063,218.2734 Q990.1719,218.5078 990.1719,218.8828 Q990.1719,219.2734 989.9063,219.5078 Q989.6563,219.7422 989.0469,219.7422 L988.6406,219.7422 L991.0938,225.6172 Z " fill="#000000"/><text fill="#000000" font-family="sans-serif" font-size="12" font-style="italic" lengthAdjust="spacing" textLength="85" x="1002.5" y="218.457">&#171;Value Object&#187;</text><text fill="#000000" font-family="sans-serif" font-size="14" lengthAdjust="spacing" textLength="58" x="1016" y="235.627">UserRole</text><line style="stroke:#181818;stroke-width:0.5;" x1="976.5" x2="1087.5" y1="243.7031" y2="243.7031"/><line style="stroke:#181818;stroke-width:0.5;" x1="976.5" x2="1087.5" y1="251.7031" y2="251.7031"/></g><!--class EmailAddress--><g id="elem_EmailAddress"><rect codeLine="9" fill="#F1F1F1" height="58.7031" id="EmailAddress" rx="2.5" ry="2.5" style="stroke:#181818;stroke-width:0.5;" width="118" x="822" y="201"/><ellipse cx="837" cy="222.3516" fill="#F04800" rx="11" ry="11" style="stroke:#181818;stroke-width:1.0;"/><path d="M837.5938,225.6172 L840.0625,219.7422 L839.6719,219.7422 Q839.0625,219.7422 838.7969,219.5078 Q838.5313,219.2734 838.5313,218.8828 Q838.5313,218.5078 838.7969,218.2734 Q839.0625,218.0391 839.6719,218.0391 L841.9531,218.0391 Q842.5625,218.0391 842.8281,218.2734 Q843.0938,218.5078 843.0938,218.8828 Q843.0938,219.3516 842.6875,219.6172 Q842.5,219.7422 841.9063,219.7422 L838.4219,228.1016 L836.7813,228.1016 L833.2969,219.7422 Q832.7031,219.7422 832.5156,219.6172 Q832.1094,219.3516 832.1094,218.8828 Q832.1094,218.5078 832.375,218.2734 Q832.6406,218.0391 833.25,218.0391 L835.5469,218.0391 Q836.1563,218.0391 836.4063,218.2734 Q836.6719,218.5078 836.6719,218.8828 Q836.6719,219.2734 836.4063,219.5078 Q836.1563,219.7422 835.5469,219.7422 L835.1406,219.7422 L837.5938,225.6172 Z " fill="#000000"/><text fill="#000000" font-family="sans-serif" font-size="12" font-style="italic" lengthAdjust="spacing" textLength="85" x="851.5" y="218.457">&#171;Value Object&#187;</text><text fill="#000000" font-family="sans-serif" font-size="14" lengthAdjust="spacing" textLength="86" x="851" y="235.627">EmailAddress</text><line style="stroke:#181818;stroke-width:0.5;" x1="823" x2="939" y1="243.7031" y2="243.7031"/><line style="stroke:#181818;stroke-width:0.5;" x1="823" x2="939" y1="251.7031" y2="251.7031"/></g><!--class Password--><g id="elem_Password"><rect codeLine="10" fill="#F1F1F1" height="58.7031" id="Password" rx="2.5" ry="2.5" style="stroke:#181818;stroke-width:0.5;" width="113" x="673.5" y="201"/><ellipse cx="688.5" cy="222.3516" fill="#F04800" rx="11" ry="11" style="stroke:#181818;stroke-width:1.0;"/><path d="M689.0938,225.6172 L691.5625,219.7422 L691.1719,219.7422 Q690.5625,219.7422 690.2969,219.5078 Q690.0313,219.2734 690.0313,218.8828 Q690.0313,218.5078 690.2969,218.2734 Q690.5625,218.0391 691.1719,218.0391 L693.4531,218.0391 Q694.0625,218.0391 694.3281,218.2734 Q694.5938,218.5078 694.5938,218.8828 Q694.5938,219.3516 694.1875,219.6172 Q694,219.7422 693.4063,219.7422 L689.9219,228.1016 L688.2813,228.1016 L684.7969,219.7422 Q684.2031,219.7422 684.0156,219.6172 Q683.6094,219.3516 683.6094,218.8828 Q683.6094,218.5078 683.875,218.2734 Q684.1406,218.0391 684.75,218.0391 L687.0469,218.0391 Q687.6563,218.0391 687.9063,218.2734 Q688.1719,218.5078 688.1719,218.8828 Q688.1719,219.2734 687.9063,219.5078 Q687.6563,219.7422 687.0469,219.7422 L686.6406,219.7422 L689.0938,225.6172 Z " fill="#000000"/><text fill="#000000" font-family="sans-serif" font-size="12" font-style="italic" lengthAdjust="spacing" textLength="85" x="700.5" y="218.457">&#171;Value Object&#187;</text><text fill="#000000" font-family="sans-serif" font-size="14" lengthAdjust="spacing" textLength="61" x="712.5" y="235.627">Password</text><line style="stroke:#181818;stroke-width:0.5;" x1="674.5" x2="785.5" y1="243.7031" y2="243.7031"/><line style="stroke:#181818;stroke-width:0.5;" x1="674.5" x2="785.5" y1="251.7031" y2="251.7031"/></g><!--class Staff--><g id="elem_Staff"><rect codeLine="21" fill="#F1F1F1" height="58.7031" id="Staff" rx="2.5" ry="2.5" style="stroke:#181818;stroke-width:0.5;" width="101" x="363.5" y="484"/><ellipse cx="378.5" cy="505.3516" fill="#0000FF" rx="11" ry="11" style="stroke:#181818;stroke-width:1.0;"/><path d="M379.0938,508.6172 L381.5625,502.7422 L381.1719,502.7422 Q380.5625,502.7422 380.2969,502.5078 Q380.0313,502.2734 380.0313,501.8828 Q380.0313,501.5078 380.2969,501.2734 Q380.5625,501.0391 381.1719,501.0391 L383.4531,501.0391 Q384.0625,501.0391 384.3281,501.2734 Q384.5938,501.5078 384.5938,501.8828 Q384.5938,502.3516 384.1875,502.6172 Q384,502.7422 383.4063,502.7422 L379.9219,511.1016 L378.2813,511.1016 L374.7969,502.7422 Q374.2031,502.7422 374.0156,502.6172 Q373.6094,502.3516 373.6094,501.8828 Q373.6094,501.5078 373.875,501.2734 Q374.1406,501.0391 374.75,501.0391 L377.0469,501.0391 Q377.6563,501.0391 377.9063,501.2734 Q378.1719,501.5078 378.1719,501.8828 Q378.1719,502.2734 377.9063,502.5078 Q377.6563,502.7422 377.0469,502.7422 L376.6406,502.7422 L379.0938,508.6172 Z " fill="#000000"/><text fill="#000000" font-family="sans-serif" font-size="12" font-style="italic" lengthAdjust="spacing" textLength="73" x="390.5" y="501.457">&#171;Root Entity&#187;</text><text fill="#000000" font-family="sans-serif" font-size="14" lengthAdjust="spacing" textLength="29" x="412.5" y="518.627">Staff</text><line style="stroke:#181818;stroke-width:0.5;" x1="364.5" x2="463.5" y1="526.7031" y2="526.7031"/><line style="stroke:#181818;stroke-width:0.5;" x1="364.5" x2="463.5" y1="534.7031" y2="534.7031"/></g><!--class AvailabilitySlots--><g id="elem_AvailabilitySlots"><rect codeLine="23" fill="#F1F1F1" height="58.7031" id="AvailabilitySlots" rx="2.5" ry="2.5" style="stroke:#181818;stroke-width:0.5;" width="129" x="376.5" y="345"/><ellipse cx="391.5" cy="366.3516" fill="#F04800" rx="11" ry="11" style="stroke:#181818;stroke-width:1.0;"/><path d="M392.0938,369.6172 L394.5625,363.7422 L394.1719,363.7422 Q393.5625,363.7422 393.2969,363.5078 Q393.0313,363.2734 393.0313,362.8828 Q393.0313,362.5078 393.2969,362.2734 Q393.5625,362.0391 394.1719,362.0391 L396.4531,362.0391 Q397.0625,362.0391 397.3281,362.2734 Q397.5938,362.5078 397.5938,362.8828 Q397.5938,363.3516 397.1875,363.6172 Q397,363.7422 396.4063,363.7422 L392.9219,372.1016 L391.2813,372.1016 L387.7969,363.7422 Q387.2031,363.7422 387.0156,363.6172 Q386.6094,363.3516 386.6094,362.8828 Q386.6094,362.5078 386.875,362.2734 Q387.1406,362.0391 387.75,362.0391 L390.0469,362.0391 Q390.6563,362.0391 390.9063,362.2734 Q391.1719,362.5078 391.1719,362.8828 Q391.1719,363.2734 390.9063,363.5078 Q390.6563,363.7422 390.0469,363.7422 L389.6406,363.7422 L392.0938,369.6172 Z " fill="#000000"/><text fill="#000000" font-family="sans-serif" font-size="12" font-style="italic" lengthAdjust="spacing" textLength="85" x="411.5" y="362.457">&#171;Value Object&#187;</text><text fill="#000000" font-family="sans-serif" font-size="14" lengthAdjust="spacing" textLength="97" x="405.5" y="379.627">AvailabilitySlots</text><line style="stroke:#181818;stroke-width:0.5;" x1="377.5" x2="504.5" y1="387.7031" y2="387.7031"/><line style="stroke:#181818;stroke-width:0.5;" x1="377.5" x2="504.5" y1="395.7031" y2="395.7031"/></g><!--class LicenseNumber--><g id="elem_LicenseNumber"><rect codeLine="24" fill="#F1F1F1" height="58.7031" id="LicenseNumber" rx="2.5" ry="2.5" style="stroke:#181818;stroke-width:0.5;" width="133" x="208.5" y="345"/><ellipse cx="223.5" cy="366.3516" fill="#F09800" rx="11" ry="11" style="stroke:#181818;stroke-width:1.0;"/><path d="M224.0938,369.6172 L226.5625,363.7422 L226.1719,363.7422 Q225.5625,363.7422 225.2969,363.5078 Q225.0313,363.2734 225.0313,362.8828 Q225.0313,362.5078 225.2969,362.2734 Q225.5625,362.0391 226.1719,362.0391 L228.4531,362.0391 Q229.0625,362.0391 229.3281,362.2734 Q229.5938,362.5078 229.5938,362.8828 Q229.5938,363.3516 229.1875,363.6172 Q229,363.7422 228.4063,363.7422 L224.9219,372.1016 L223.2813,372.1016 L219.7969,363.7422 Q219.2031,363.7422 219.0156,363.6172 Q218.6094,363.3516 218.6094,362.8828 Q218.6094,362.5078 218.875,362.2734 Q219.1406,362.0391 219.75,362.0391 L222.0469,362.0391 Q222.6563,362.0391 222.9063,362.2734 Q223.1719,362.5078 223.1719,362.8828 Q223.1719,363.2734 222.9063,363.5078 Q222.6563,363.7422 222.0469,363.7422 L221.6406,363.7422 L224.0938,369.6172 Z " fill="#000000"/><text fill="#000000" font-family="sans-serif" font-size="12" font-style="italic" lengthAdjust="spacing" textLength="105" x="235.5" y="362.457">&#171;Unique Identifier&#187;</text><text fill="#000000" font-family="sans-serif" font-size="14" lengthAdjust="spacing" textLength="98" x="239" y="379.627">LicenseNumber</text><line style="stroke:#181818;stroke-width:0.5;" x1="209.5" x2="340.5" y1="387.7031" y2="387.7031"/><line style="stroke:#181818;stroke-width:0.5;" x1="209.5" x2="340.5" y1="395.7031" y2="395.7031"/></g><!--class ContactInformation--><g id="elem_ContactInformation"><rect codeLine="27" fill="#F1F1F1" height="58.7031" id="ContactInformation" rx="2.5" ry="2.5" style="stroke:#181818;stroke-width:0.5;" width="151" x="22.5" y="345"/><ellipse cx="37.5" cy="366.3516" fill="#ADD1B2" rx="11" ry="11" style="stroke:#181818;stroke-width:1.0;"/><path d="M36.3594,367.1484 L36.3594,369.6484 L40.6875,369.6484 L40.6875,368.7266 Q40.6875,368.1172 40.9219,367.8516 Q41.1719,367.5859 41.5469,367.5859 Q41.9219,367.5859 42.1563,367.8516 Q42.3906,368.1172 42.3906,368.7266 L42.3906,371.3516 L34.3906,371.3516 Q33.7656,371.3516 33.5,371.1172 Q33.25,370.8828 33.25,370.4922 Q33.25,370.1172 33.5156,369.8828 Q33.7813,369.6484 34.3906,369.6484 L34.6563,369.6484 L34.6563,362.9922 L34.3906,362.9922 Q33.7656,362.9922 33.5,362.7578 Q33.25,362.5234 33.25,362.1328 Q33.25,361.7578 33.5,361.5234 Q33.7656,361.2891 34.3906,361.2891 L42.0156,361.2891 L42.0156,363.8828 Q42.0156,364.4922 41.7813,364.7578 Q41.5625,365.0078 41.1719,365.0078 Q40.7969,365.0078 40.5625,364.7578 Q40.3281,364.4922 40.3281,363.8828 L40.3281,362.9922 L36.3594,362.9922 L36.3594,365.4453 L37.8438,365.4453 Q37.8438,364.7891 37.9688,364.6016 Q38.2344,364.1953 38.7031,364.1953 Q39.0781,364.1953 39.3125,364.4609 Q39.5469,364.7109 39.5469,365.3203 L39.5469,367.2891 Q39.5469,367.8359 39.4219,368.0234 Q39.1563,368.4141 38.7031,368.4141 Q38.2344,368.4141 37.9688,368.0078 Q37.8438,367.8203 37.8438,367.1484 L36.3594,367.1484 Z " fill="#000000"/><text fill="#000000" font-family="sans-serif" font-size="12" font-style="italic" lengthAdjust="spacing" textLength="44" x="89" y="362.457">&#171;Entity&#187;</text><text fill="#000000" font-family="sans-serif" font-size="14" lengthAdjust="spacing" textLength="119" x="51.5" y="379.627">ContactInformation</text><line style="stroke:#181818;stroke-width:0.5;" x1="23.5" x2="172.5" y1="387.7031" y2="387.7031"/><line style="stroke:#181818;stroke-width:0.5;" x1="23.5" x2="172.5" y1="395.7031" y2="395.7031"/></g><!--class FirstName--><g id="elem_FirstName"><rect codeLine="29" fill="#F1F1F1" height="58.7031" id="FirstName" rx="2.5" ry="2.5" style="stroke:#181818;stroke-width:0.5;" width="113" x="96.5" y="604"/><ellipse cx="111.5" cy="625.3516" fill="#F04800" rx="11" ry="11" style="stroke:#181818;stroke-width:1.0;"/><path d="M112.0938,628.6172 L114.5625,622.7422 L114.1719,622.7422 Q113.5625,622.7422 113.2969,622.5078 Q113.0313,622.2734 113.0313,621.8828 Q113.0313,621.5078 113.2969,621.2734 Q113.5625,621.0391 114.1719,621.0391 L116.4531,621.0391 Q117.0625,621.0391 117.3281,621.2734 Q117.5938,621.5078 117.5938,621.8828 Q117.5938,622.3516 117.1875,622.6172 Q117,622.7422 116.4063,622.7422 L112.9219,631.1016 L111.2813,631.1016 L107.7969,622.7422 Q107.2031,622.7422 107.0156,622.6172 Q106.6094,622.3516 106.6094,621.8828 Q106.6094,621.5078 106.875,621.2734 Q107.1406,621.0391 107.75,621.0391 L110.0469,621.0391 Q110.6563,621.0391 110.9063,621.2734 Q111.1719,621.5078 111.1719,621.8828 Q111.1719,622.2734 110.9063,622.5078 Q110.6563,622.7422 110.0469,622.7422 L109.6406,622.7422 L112.0938,628.6172 Z " fill="#000000"/><text fill="#000000" font-family="sans-serif" font-size="12" font-style="italic" lengthAdjust="spacing" textLength="85" x="123.5" y="621.457">&#171;Value Object&#187;</text><text fill="#000000" font-family="sans-serif" font-size="14" lengthAdjust="spacing" textLength="64" x="134" y="638.627">FirstName</text><line style="stroke:#181818;stroke-width:0.5;" x1="97.5" x2="208.5" y1="646.7031" y2="646.7031"/><line style="stroke:#181818;stroke-width:0.5;" x1="97.5" x2="208.5" y1="654.7031" y2="654.7031"/></g><!--class LastName--><g id="elem_LastName"><rect codeLine="30" fill="#F1F1F1" height="58.7031" id="LastName" rx="2.5" ry="2.5" style="stroke:#181818;stroke-width:0.5;" width="113" x="244.5" y="604"/><ellipse cx="259.5" cy="625.3516" fill="#F04800" rx="11" ry="11" style="stroke:#181818;stroke-width:1.0;"/><path d="M260.0938,628.6172 L262.5625,622.7422 L262.1719,622.7422 Q261.5625,622.7422 261.2969,622.5078 Q261.0313,622.2734 261.0313,621.8828 Q261.0313,621.5078 261.2969,621.2734 Q261.5625,621.0391 262.1719,621.0391 L264.4531,621.0391 Q265.0625,621.0391 265.3281,621.2734 Q265.5938,621.5078 265.5938,621.8828 Q265.5938,622.3516 265.1875,622.6172 Q265,622.7422 264.4063,622.7422 L260.9219,631.1016 L259.2813,631.1016 L255.7969,622.7422 Q255.2031,622.7422 255.0156,622.6172 Q254.6094,622.3516 254.6094,621.8828 Q254.6094,621.5078 254.875,621.2734 Q255.1406,621.0391 255.75,621.0391 L258.0469,621.0391 Q258.6563,621.0391 258.9063,621.2734 Q259.1719,621.5078 259.1719,621.8828 Q259.1719,622.2734 258.9063,622.5078 Q258.6563,622.7422 258.0469,622.7422 L257.6406,622.7422 L260.0938,628.6172 Z " fill="#000000"/><text fill="#000000" font-family="sans-serif" font-size="12" font-style="italic" lengthAdjust="spacing" textLength="85" x="271.5" y="621.457">&#171;Value Object&#187;</text><text fill="#000000" font-family="sans-serif" font-size="14" lengthAdjust="spacing" textLength="63" x="282.5" y="638.627">LastName</text><line style="stroke:#181818;stroke-width:0.5;" x1="245.5" x2="356.5" y1="646.7031" y2="646.7031"/><line style="stroke:#181818;stroke-width:0.5;" x1="245.5" x2="356.5" y1="654.7031" y2="654.7031"/></g><!--class FullName--><g id="elem_FullName"><rect codeLine="31" fill="#F1F1F1" height="58.7031" id="FullName" rx="2.5" ry="2.5" style="stroke:#181818;stroke-width:0.5;" width="113" x="392.5" y="604"/><ellipse cx="407.5" cy="625.3516" fill="#F04800" rx="11" ry="11" style="stroke:#181818;stroke-width:1.0;"/><path d="M408.0938,628.6172 L410.5625,622.7422 L410.1719,622.7422 Q409.5625,622.7422 409.2969,622.5078 Q409.0313,622.2734 409.0313,621.8828 Q409.0313,621.5078 409.2969,621.2734 Q409.5625,621.0391 410.1719,621.0391 L412.4531,621.0391 Q413.0625,621.0391 413.3281,621.2734 Q413.5938,621.5078 413.5938,621.8828 Q413.5938,622.3516 413.1875,622.6172 Q413,622.7422 412.4063,622.7422 L408.9219,631.1016 L407.2813,631.1016 L403.7969,622.7422 Q403.2031,622.7422 403.0156,622.6172 Q402.6094,622.3516 402.6094,621.8828 Q402.6094,621.5078 402.875,621.2734 Q403.1406,621.0391 403.75,621.0391 L406.0469,621.0391 Q406.6563,621.0391 406.9063,621.2734 Q407.1719,621.5078 407.1719,621.8828 Q407.1719,622.2734 406.9063,622.5078 Q406.6563,622.7422 406.0469,622.7422 L405.6406,622.7422 L408.0938,628.6172 Z " fill="#000000"/><text fill="#000000" font-family="sans-serif" font-size="12" font-style="italic" lengthAdjust="spacing" textLength="85" x="419.5" y="621.457">&#171;Value Object&#187;</text><text fill="#000000" font-family="sans-serif" font-size="14" lengthAdjust="spacing" textLength="59" x="432.5" y="638.627">FullName</text><line style="stroke:#181818;stroke-width:0.5;" x1="393.5" x2="504.5" y1="646.7031" y2="646.7031"/><line style="stroke:#181818;stroke-width:0.5;" x1="393.5" x2="504.5" y1="654.7031" y2="654.7031"/></g><!--class EmailAddress--><g id="elem_EmailAddress"><rect codeLine="32" fill="#F1F1F1" height="58.7031" id="EmailAddress" rx="2.5" ry="2.5" style="stroke:#181818;stroke-width:0.5;" width="118" x="183" y="484"/><ellipse cx="198" cy="505.3516" fill="#F04800" rx="11" ry="11" style="stroke:#181818;stroke-width:1.0;"/><path d="M198.5938,508.6172 L201.0625,502.7422 L200.6719,502.7422 Q200.0625,502.7422 199.7969,502.5078 Q199.5313,502.2734 199.5313,501.8828 Q199.5313,501.5078 199.7969,501.2734 Q200.0625,501.0391 200.6719,501.0391 L202.9531,501.0391 Q203.5625,501.0391 203.8281,501.2734 Q204.0938,501.5078 204.0938,501.8828 Q204.0938,502.3516 203.6875,502.6172 Q203.5,502.7422 202.9063,502.7422 L199.4219,511.1016 L197.7813,511.1016 L194.2969,502.7422 Q193.7031,502.7422 193.5156,502.6172 Q193.1094,502.3516 193.1094,501.8828 Q193.1094,501.5078 193.375,501.2734 Q193.6406,501.0391 194.25,501.0391 L196.5469,501.0391 Q197.1563,501.0391 197.4063,501.2734 Q197.6719,501.5078 197.6719,501.8828 Q197.6719,502.2734 197.4063,502.5078 Q197.1563,502.7422 196.5469,502.7422 L196.1406,502.7422 L198.5938,508.6172 Z " fill="#000000"/><text fill="#000000" font-family="sans-serif" font-size="12" font-style="italic" lengthAdjust="spacing" textLength="85" x="212.5" y="501.457">&#171;Value Object&#187;</text><text fill="#000000" font-family="sans-serif" font-size="14" lengthAdjust="spacing" textLength="86" x="212" y="518.627">EmailAddress</text><line style="stroke:#181818;stroke-width:0.5;" x1="184" x2="300" y1="526.7031" y2="526.7031"/><line style="stroke:#181818;stroke-width:0.5;" x1="184" x2="300" y1="534.7031" y2="534.7031"/></g><!--class PhoneNumber--><g id="elem_PhoneNumber"><rect codeLine="33" fill="#F1F1F1" height="58.7031" id="PhoneNumber" rx="2.5" ry="2.5" style="stroke:#181818;stroke-width:0.5;" width="122" x="26" y="484"/><ellipse cx="41" cy="505.3516" fill="#F04800" rx="11" ry="11" style="stroke:#181818;stroke-width:1.0;"/><path d="M41.5938,508.6172 L44.0625,502.7422 L43.6719,502.7422 Q43.0625,502.7422 42.7969,502.5078 Q42.5313,502.2734 42.5313,501.8828 Q42.5313,501.5078 42.7969,501.2734 Q43.0625,501.0391 43.6719,501.0391 L45.9531,501.0391 Q46.5625,501.0391 46.8281,501.2734 Q47.0938,501.5078 47.0938,501.8828 Q47.0938,502.3516 46.6875,502.6172 Q46.5,502.7422 45.9063,502.7422 L42.4219,511.1016 L40.7813,511.1016 L37.2969,502.7422 Q36.7031,502.7422 36.5156,502.6172 Q36.1094,502.3516 36.1094,501.8828 Q36.1094,501.5078 36.375,501.2734 Q36.6406,501.0391 37.25,501.0391 L39.5469,501.0391 Q40.1563,501.0391 40.4063,501.2734 Q40.6719,501.5078 40.6719,501.8828 Q40.6719,502.2734 40.4063,502.5078 Q40.1563,502.7422 39.5469,502.7422 L39.1406,502.7422 L41.5938,508.6172 Z " fill="#000000"/><text fill="#000000" font-family="sans-serif" font-size="12" font-style="italic" lengthAdjust="spacing" textLength="85" x="57.5" y="501.457">&#171;Value Object&#187;</text><text fill="#000000" font-family="sans-serif" font-size="14" lengthAdjust="spacing" textLength="90" x="55" y="518.627">PhoneNumber</text><line style="stroke:#181818;stroke-width:0.5;" x1="27" x2="147" y1="526.7031" y2="526.7031"/><line style="stroke:#181818;stroke-width:0.5;" x1="27" x2="147" y1="534.7031" y2="534.7031"/></g><!--class Specialization--><g id="elem_Specialization"><rect codeLine="50" fill="#F1F1F1" height="58.7031" id="Specialization" rx="2.5" ry="2.5" style="stroke:#181818;stroke-width:0.5;" width="118" x="490" y="201"/><ellipse cx="505" cy="222.3516" fill="#0000FF" rx="11" ry="11" style="stroke:#181818;stroke-width:1.0;"/><path d="M505.5938,225.6172 L508.0625,219.7422 L507.6719,219.7422 Q507.0625,219.7422 506.7969,219.5078 Q506.5313,219.2734 506.5313,218.8828 Q506.5313,218.5078 506.7969,218.2734 Q507.0625,218.0391 507.6719,218.0391 L509.9531,218.0391 Q510.5625,218.0391 510.8281,218.2734 Q511.0938,218.5078 511.0938,218.8828 Q511.0938,219.3516 510.6875,219.6172 Q510.5,219.7422 509.9063,219.7422 L506.4219,228.1016 L504.7813,228.1016 L501.2969,219.7422 Q500.7031,219.7422 500.5156,219.6172 Q500.1094,219.3516 500.1094,218.8828 Q500.1094,218.5078 500.375,218.2734 Q500.6406,218.0391 501.25,218.0391 L503.5469,218.0391 Q504.1563,218.0391 504.4063,218.2734 Q504.6719,218.5078 504.6719,218.8828 Q504.6719,219.2734 504.4063,219.5078 Q504.1563,219.7422 503.5469,219.7422 L503.1406,219.7422 L505.5938,225.6172 Z " fill="#000000"/><text fill="#000000" font-family="sans-serif" font-size="12" font-style="italic" lengthAdjust="spacing" textLength="73" x="525.5" y="218.457">&#171;Root Entity&#187;</text><text fill="#000000" font-family="sans-serif" font-size="14" lengthAdjust="spacing" textLength="86" x="519" y="235.627">Specialization</text><line style="stroke:#181818;stroke-width:0.5;" x1="491" x2="607" y1="243.7031" y2="243.7031"/><line style="stroke:#181818;stroke-width:0.5;" x1="491" x2="607" y1="251.7031" y2="251.7031"/></g><!--class SpecializationName--><g id="elem_SpecializationName"><rect codeLine="51" fill="#F1F1F1" height="58.7031" id="SpecializationName" rx="2.5" ry="2.5" style="stroke:#181818;stroke-width:0.5;" width="154" x="463" y="42"/><ellipse cx="478" cy="63.3516" fill="#F09800" rx="11" ry="11" style="stroke:#181818;stroke-width:1.0;"/><path d="M478.5938,66.6172 L481.0625,60.7422 L480.6719,60.7422 Q480.0625,60.7422 479.7969,60.5078 Q479.5313,60.2734 479.5313,59.8828 Q479.5313,59.5078 479.7969,59.2734 Q480.0625,59.0391 480.6719,59.0391 L482.9531,59.0391 Q483.5625,59.0391 483.8281,59.2734 Q484.0938,59.5078 484.0938,59.8828 Q484.0938,60.3516 483.6875,60.6172 Q483.5,60.7422 482.9063,60.7422 L479.4219,69.1016 L477.7813,69.1016 L474.2969,60.7422 Q473.7031,60.7422 473.5156,60.6172 Q473.1094,60.3516 473.1094,59.8828 Q473.1094,59.5078 473.375,59.2734 Q473.6406,59.0391 474.25,59.0391 L476.5469,59.0391 Q477.1563,59.0391 477.4063,59.2734 Q477.6719,59.5078 477.6719,59.8828 Q477.6719,60.2734 477.4063,60.5078 Q477.1563,60.7422 476.5469,60.7422 L476.1406,60.7422 L478.5938,66.6172 Z " fill="#000000"/><text fill="#000000" font-family="sans-serif" font-size="12" font-style="italic" lengthAdjust="spacing" textLength="105" x="500.5" y="59.457">&#171;Unique Identifier&#187;</text><text fill="#000000" font-family="sans-serif" font-size="14" lengthAdjust="spacing" textLength="122" x="492" y="76.627">SpecializationName</text><line style="stroke:#181818;stroke-width:0.5;" x1="464" x2="616" y1="84.7031" y2="84.7031"/><line style="stroke:#181818;stroke-width:0.5;" x1="464" x2="616" y1="92.7031" y2="92.7031"/></g><!--link ActivationStatus to User--><g id="link_ActivationStatus_User"><path codeLine="12" d="M806.8,374.5 C818.33,374.5 817.87,374.5 829.41,374.5 " fill="none" id="ActivationStatus-to-User" style="stroke:#181818;stroke-width:1.0;"/><polygon fill="#181818" points="841.41,374.5,835.41,370.5,829.41,374.5,835.41,378.5,841.41,374.5" style="stroke:#181818;stroke-width:1.0;"/><text fill="#000000" font-family="sans-serif" font-size="13" lengthAdjust="spacing" textLength="7" x="814.4891" y="371.1556">1</text><text fill="#000000" font-family="sans-serif" font-size="13" lengthAdjust="spacing" textLength="7" x="826.4655" y="370.8677">1</text></g><!--link Username to User--><g id="link_Username_User"><path codeLine="14" d="M1147.19,260.13 C1134.21,268.29 1119.75,276.89 1106,284 C1051.81,312.03 998.0284,333.9699 953.9984,350.6899 " fill="none" id="Username-to-User" style="stroke:#181818;stroke-width:1.0;"/><polygon fill="#181818" points="942.78,354.95,949.8092,356.5594,953.9984,350.6899,946.9692,349.0805,942.78,354.95" style="stroke:#181818;stroke-width:1.0;"/><text fill="#000000" font-family="sans-serif" font-size="13" lengthAdjust="spacing" textLength="7" x="1131.0727" y="281.0974">1</text><text fill="#000000" font-family="sans-serif" font-size="13" lengthAdjust="spacing" textLength="7" x="950.4131" y="348.6165">1</text></g><!--link UserRole to User--><g id="link_UserRole_User"><path codeLine="15" d="M1003.67,260.24 C979.38,284.87 952.9943,311.6342 928.7143,336.2642 " fill="none" id="UserRole-to-User" style="stroke:#181818;stroke-width:1.0;"/><polygon fill="#181818" points="920.29,344.81,927.3508,343.3452,928.7143,336.2642,921.6536,337.729,920.29,344.81" style="stroke:#181818;stroke-width:1.0;"/><text fill="#000000" font-family="sans-serif" font-size="13" lengthAdjust="spacing" textLength="7" x="990.4035" y="281.229">1</text><text fill="#000000" font-family="sans-serif" font-size="13" lengthAdjust="spacing" textLength="7" x="918.7128" y="334.1314">1</text></g><!--link EmailAddress to User--><g id="link_EmailAddress_User"><path codeLine="16" d="M883.23,260.24 C885.13,284.87 886.9422,308.2159 888.8522,332.8459 " fill="none" id="EmailAddress-to-User" style="stroke:#181818;stroke-width:1.0;"/><polygon fill="#181818" points="889.78,344.81,893.3041,338.5187,888.8522,332.8459,885.3281,339.1372,889.78,344.81" style="stroke:#181818;stroke-width:1.0;"/><text fill="#000000" font-family="sans-serif" font-size="13" lengthAdjust="spacing" textLength="7" x="875.98" y="281.229">1</text><text fill="#000000" font-family="sans-serif" font-size="13" lengthAdjust="spacing" textLength="7" x="881.5288" y="334.1314">1</text></g><!--link Password to User--><g id="link_Password_User"><path codeLine="17" d="M771.97,260.06 C788.69,272.06 807.77,286.57 824,301 C839.21,314.53 846.8185,322.084 859.2585,335.894 " fill="none" id="Password-to-User" style="stroke:#181818;stroke-width:1.0;"/><polygon fill="#181818" points="867.29,344.81,866.2462,337.6748,859.2585,335.894,860.3023,343.0292,867.29,344.81" style="stroke:#181818;stroke-width:1.0;"/><text fill="#000000" font-family="sans-serif" font-size="13" lengthAdjust="spacing" textLength="7" x="772.9044" y="281.3687">1</text><text fill="#000000" font-family="sans-serif" font-size="13" lengthAdjust="spacing" textLength="7" x="854.1191" y="334.1314">1</text></g><!--reverse link ContactInformation to EmailAddress--><g id="link_ContactInformation_EmailAddress"><path codeLine="37" d="M136.8832,412.4922 C161.4532,435.8722 187.29,460.45 211.85,483.82 " fill="none" id="ContactInformation-backto-EmailAddress" style="stroke:#181818;stroke-width:1.0;"/><polygon fill="#181818" points="128.19,404.22,129.7792,411.2538,136.8832,412.4922,135.294,405.4583,128.19,404.22" style="stroke:#181818;stroke-width:1.0;"/><text fill="#000000" font-family="sans-serif" font-size="13" lengthAdjust="spacing" textLength="7" x="126.4446" y="425.2051">1</text><text fill="#000000" font-family="sans-serif" font-size="13" lengthAdjust="spacing" textLength="7" x="197.4891" y="473.1435">1</text></g><!--reverse link ContactInformation to PhoneNumber--><g id="link_ContactInformation_PhoneNumber"><path codeLine="38" d="M94.7333,416.1818 C92.8633,439.5618 91.18,460.45 89.3,483.82 " fill="none" id="ContactInformation-backto-PhoneNumber" style="stroke:#181818;stroke-width:1.0;"/><polygon fill="#181818" points="95.69,404.22,91.2244,409.882,94.7333,416.1818,99.1989,410.5198,95.69,404.22" style="stroke:#181818;stroke-width:1.0;"/><text fill="#000000" font-family="sans-serif" font-size="13" lengthAdjust="spacing" textLength="7" x="87.5462" y="425.2051">1</text><text fill="#000000" font-family="sans-serif" font-size="13" lengthAdjust="spacing" textLength="7" x="82.0375" y="473.1435">1</text></g><!--reverse link Staff to FirstName--><g id="link_Staff_FirstName"><path codeLine="41" d="M352.4359,542.3343 C308.4059,562.2443 255.6,586.11 209.84,606.8 " fill="none" id="Staff-backto-FirstName" style="stroke:#181818;stroke-width:1.0;"/><polygon fill="#181818" points="363.37,537.39,356.2549,536.2175,352.4359,542.3343,359.5511,543.5068,363.37,537.39" style="stroke:#181818;stroke-width:1.0;"/><text fill="#000000" font-family="sans-serif" font-size="13" lengthAdjust="spacing" textLength="7" x="348.4197" y="537.2666">1</text><text fill="#000000" font-family="sans-serif" font-size="13" lengthAdjust="spacing" textLength="7" x="217.5711" y="599.8907">1</text></g><!--reverse link Staff to LastName--><g id="link_Staff_LastName"><path codeLine="42" d="M378.3502,551.7268 C360.7102,570.1468 346.16,585.34 328.49,603.79 " fill="none" id="Staff-backto-LastName" style="stroke:#181818;stroke-width:1.0;"/><polygon fill="#181818" points="386.65,543.06,379.6112,544.6268,378.3502,551.7268,385.389,550.16,386.65,543.06" style="stroke:#181818;stroke-width:1.0;"/><text fill="#000000" font-family="sans-serif" font-size="13" lengthAdjust="spacing" textLength="7" x="373.2872" y="564.3687">1</text><text fill="#000000" font-family="sans-serif" font-size="13" lengthAdjust="spacing" textLength="7" x="326.7378" y="593.107">1</text></g><!--reverse link Staff to FullName--><g id="link_Staff_FullName"><path codeLine="43" d="M425.8803,554.5652 C431.3403,572.9852 435.01,585.34 440.48,603.79 " fill="none" id="Staff-backto-FullName" style="stroke:#181818;stroke-width:1.0;"/><polygon fill="#181818" points="422.47,543.06,420.3401,549.9494,425.8803,554.5652,428.0102,547.6758,422.47,543.06" style="stroke:#181818;stroke-width:1.0;"/><text fill="#000000" font-family="sans-serif" font-size="13" lengthAdjust="spacing" textLength="7" x="416.4951" y="564.3687">1</text><text fill="#000000" font-family="sans-serif" font-size="13" lengthAdjust="spacing" textLength="7" x="430.8506" y="593.107">1</text></g><!--link ContactInformation to Staff--><g id="link_ContactInformation_Staff"><path codeLine="44" d="M145.54,404.17 C159.91,412.33 175.89,420.92 191,428 C248.55,454.96 305.9084,476.0787 351.7084,491.7787 " fill="none" id="ContactInformation-to-Staff" style="stroke:#181818;stroke-width:1.0;"/><polygon fill="#181818" points="363.06,495.67,358.6813,489.9405,351.7084,491.7787,356.0871,497.5082,363.06,495.67" style="stroke:#181818;stroke-width:1.0;"/><text fill="#000000" font-family="sans-serif" font-size="13" lengthAdjust="spacing" textLength="7" x="147.2104" y="425.1452">1</text><text fill="#000000" font-family="sans-serif" font-size="13" lengthAdjust="spacing" textLength="7" x="348.4044" y="489.5784">1</text></g><!--link AvailabilitySlots to Staff--><g id="link_AvailabilitySlots_Staff"><path codeLine="45" d="M435.34,404.22 C430.73,427.6 426.5824,448.6769 421.9724,472.0469 " fill="none" id="AvailabilitySlots-to-Staff" style="stroke:#181818;stroke-width:1.0;"/><polygon fill="#181818" points="419.65,483.82,424.7356,478.7076,421.9724,472.0469,416.8868,477.1593,419.65,483.82" style="stroke:#181818;stroke-width:1.0;"/><text fill="#000000" font-family="sans-serif" font-size="13" lengthAdjust="spacing" textLength="5" x="428.7335" y="425.2051">*</text><text fill="#000000" font-family="sans-serif" font-size="13" lengthAdjust="spacing" textLength="7" x="413.1203" y="473.1435">1</text></g><!--link LicenseNumber to Staff--><g id="link_LicenseNumber_Staff"><path codeLine="46" d="M304.14,404.22 C327.86,427.6 352.6437,452.0262 376.3537,475.3962 " fill="none" id="LicenseNumber-to-Staff" style="stroke:#181818;stroke-width:1.0;"/><polygon fill="#181818" points="384.9,483.82,383.4348,476.7593,376.3537,475.3962,377.8189,482.4569,384.9,483.82" style="stroke:#181818;stroke-width:1.0;"/><text fill="#000000" font-family="sans-serif" font-size="13" lengthAdjust="spacing" textLength="7" x="302.1879" y="425.2051">1</text><text fill="#000000" font-family="sans-serif" font-size="13" lengthAdjust="spacing" textLength="7" x="370.7687" y="473.1435">1</text></g><!--link SpecializationName to Specialization--><g id="link_SpecializationName_Specialization"><path codeLine="53" d="M541.65,101.3 C543.27,129.62 545.0535,160.6397 546.6735,188.9097 " fill="none" id="SpecializationName-to-Specialization" style="stroke:#181818;stroke-width:1.0;"/><polygon fill="#181818" points="547.36,200.89,551.0102,194.671,546.6735,188.9097,543.0233,195.1287,547.36,200.89" style="stroke:#181818;stroke-width:1.0;"/><text fill="#000000" font-family="sans-serif" font-size="13" lengthAdjust="spacing" textLength="51" x="545" y="145.4951">identifies</text><text fill="#000000" font-family="sans-serif" font-size="13" lengthAdjust="spacing" textLength="7" x="534.2858" y="122.3008">1</text><text fill="#000000" font-family="sans-serif" font-size="13" lengthAdjust="spacing" textLength="7" x="539.2356" y="190.2289">1</text></g><!--reverse link Specialization to Staff--><g id="link_Specialization_Staff"><path codeLine="56" d="M552.091,266.3091 C554.521,306.6191 553.51,374.89 523,428 C509.34,451.77 486.1,471.18 464.57,485.38 " fill="none" id="Specialization-backto-Staff" style="stroke:#181818;stroke-width:1.0;"/><polygon fill="#181818" points="551.73,260.32,548.2788,269.5444,552.0309,265.3109,556.2643,269.063,551.73,260.32" style="stroke:#181818;stroke-width:1.0;"/><text fill="#000000" font-family="sans-serif" font-size="13" lengthAdjust="spacing" textLength="32" x="553" y="379.9951">has a</text><text fill="#000000" font-family="sans-serif" font-size="13" lengthAdjust="spacing" textLength="7" x="544.5832" y="281.0864">1</text><text fill="#000000" font-family="sans-serif" font-size="13" lengthAdjust="spacing" textLength="7" x="472.5115" y="477.6176">1</text></g><!--reverse link User to Staff--><g id="link_User_Staff"><path codeLine="58" d="M856.4356,407.8716 C845.4256,416.7316 837.15,421.96 824,428 C702.63,483.71 544.26,502.98 464.54,509.42 " fill="none" id="User-backto-Staff" style="stroke:#181818;stroke-width:1.0;"/><polygon fill="#181818" points="861.11,404.11,851.5906,406.6361,857.2146,407.2447,856.6061,412.8687,861.11,404.11" style="stroke:#181818;stroke-width:1.0;"/><text fill="#000000" font-family="sans-serif" font-size="13" lengthAdjust="spacing" textLength="21" x="804" y="450.4951">is a</text></g><!--SRC=[dLLDIyD04BtdLopre1PZAtZGKW95MX2aYbBlqsIIhcvsQtQZgFZVtKpJV9Y6DkQG4DvxiszdtYR7AsFMUZGOh0L8ayRYt5VnGEDRYj97D-0G9H0xpWFuhn0XMsXC9b6KO0G6sRV3x3MLXfjFWjXuVF9yTZIqrsnsoXwLCZdiUTy_3j5l16ZD9hxXxs2uaay6JAfPBWs7brV3uIbx1f4Ykr- -e6yyZrbngSrMaX1Z8RacoK9oQvlT1cXN33acfMugqvXaZqfWXvMcCN0n2O84xSlXiWTx-r19i5T2ccOlUXSzvlRfaPdUq8fT4rg5joXjRYTQsyTEHc6vWVwKqxVsmh1b_8HrcF-xTGHBBYps99JfqjuxxgFKE4_ZPH6vFI5mgbPlb3JWcriPgYIcljiYMvkixdF64stcrR0Tu0ywIsQf41qb_ytcIic_hMkDPzw9Ph-oTFHTbvvL8uVmAmxo1SecK_hITPu_oXGnYfQs4Oe6jX5QJBaDOZEPlVukNZs5pLhLSxD6duFWNxHkSO3gvwV6sNEGod7MPVE3lufKOeUuje-wfH7Zso8wszqVE5ECtNp6cw_1YAr0Cx1KUit6uct-4xQM1Nu1]--></g></svg>