<?xml version="1.0" encoding="us-ascii" standalone="no"?><svg xmlns="http://www.w3.org/2000/svg" xmlns:xlink="http://www.w3.org/1999/xlink" contentStyleType="text/css" height="440px" preserveAspectRatio="none" style="width:775px;height:440px;background:#FFFFFF;" version="1.1" viewBox="0 0 775 440" width="775px" zoomAndPan="magnify"><defs/><g><rect fill="#FFFFFF" height="30.3516" style="stroke:#181818;stroke-width:1.0;" width="10" x="138" y="69.9609"/><rect fill="#FFFFFF" height="30.3516" style="stroke:#181818;stroke-width:1.0;" width="10" x="138" y="355.125"/><rect fill="#FFFFFF" height="76.7969" style="stroke:#181818;stroke-width:1.0;" width="10" x="318" y="100.3125"/><rect fill="#FFFFFF" height="30.3516" style="stroke:#181818;stroke-width:1.0;" width="10" x="318" y="324.7734"/><rect fill="#FFFFFF" height="30.3516" style="stroke:#181818;stroke-width:1.0;" width="10" x="465" y="177.1094"/><rect fill="#FFFFFF" height="30.3516" style="stroke:#181818;stroke-width:1.0;" width="10" x="465" y="237.8125"/><rect fill="#FFFFFF" height="30.3516" style="stroke:#181818;stroke-width:1.0;" width="10" x="465" y="294.4219"/><rect fill="#FFFFFF" height="16.2578" style="stroke:#181818;stroke-width:1.0;" width="10" x="621.5" y="278.1641"/><rect fill="#FFFFFF" height="30.3516" style="stroke:#181818;stroke-width:1.0;" width="10" x="708.5" y="207.4609"/><line style="stroke:#181818;stroke-width:0.5;stroke-dasharray:5.0,5.0;" x1="142.5" x2="142.5" y1="37.6094" y2="403.4766"/><line style="stroke:#181818;stroke-width:0.5;stroke-dasharray:5.0,5.0;" x1="322.5" x2="322.5" y1="37.6094" y2="403.4766"/><line style="stroke:#181818;stroke-width:0.5;stroke-dasharray:5.0,5.0;" x1="470" x2="470" y1="37.6094" y2="403.4766"/><line style="stroke:#181818;stroke-width:0.5;stroke-dasharray:5.0,5.0;" x1="626" x2="626" y1="277.1172" y2="403.4766"/><line style="stroke:#181818;stroke-width:0.5;stroke-dasharray:5.0,5.0;" x1="713" x2="713" y1="37.6094" y2="403.4766"/><rect fill="#E2E2F0" height="31.6094" rx="2.5" ry="2.5" style="stroke:#181818;stroke-width:0.5;" width="63" x="111.5" y="5"/><text fill="#000000" font-family="sans-serif" font-size="14" lengthAdjust="spacing" textLength="49" x="118.5" y="26.5332">Routing</text><rect fill="#E2E2F0" height="31.6094" rx="2.5" ry="2.5" style="stroke:#181818;stroke-width:0.5;" width="63" x="111.5" y="402.4766"/><text fill="#000000" font-family="sans-serif" font-size="14" lengthAdjust="spacing" textLength="49" x="118.5" y="424.0098">Routing</text><rect fill="#E2E2F0" height="31.6094" rx="2.5" ry="2.5" style="stroke:#181818;stroke-width:0.5;" width="105" x="270.5" y="5"/><text fill="#000000" font-family="sans-serif" font-size="14" lengthAdjust="spacing" textLength="91" x="277.5" y="26.5332">StaffController</text><rect fill="#E2E2F0" height="31.6094" rx="2.5" ry="2.5" style="stroke:#181818;stroke-width:0.5;" width="105" x="270.5" y="402.4766"/><text fill="#000000" font-family="sans-serif" font-size="14" lengthAdjust="spacing" textLength="91" x="277.5" y="424.0098">StaffController</text><rect fill="#E2E2F0" height="31.6094" rx="2.5" ry="2.5" style="stroke:#181818;stroke-width:0.5;" width="90" x="425" y="5"/><text fill="#000000" font-family="sans-serif" font-size="14" lengthAdjust="spacing" textLength="76" x="432" y="26.5332">StaffService</text><rect fill="#E2E2F0" height="31.6094" rx="2.5" ry="2.5" style="stroke:#181818;stroke-width:0.5;" width="90" x="425" y="402.4766"/><text fill="#000000" font-family="sans-serif" font-size="14" lengthAdjust="spacing" textLength="76" x="432" y="424.0098">StaffService</text><rect fill="#E2E2F0" height="31.6094" rx="2.5" ry="2.5" style="stroke:#181818;stroke-width:0.5;" width="43" x="605" y="402.4766"/><text fill="#000000" font-family="sans-serif" font-size="14" lengthAdjust="spacing" textLength="29" x="612" y="424.0098">Staff</text><rect fill="#E2E2F0" height="31.6094" rx="2.5" ry="2.5" style="stroke:#181818;stroke-width:0.5;" width="111" x="658" y="5"/><text fill="#000000" font-family="sans-serif" font-size="14" lengthAdjust="spacing" textLength="97" x="665" y="26.5332">StaffRepository</text><rect fill="#E2E2F0" height="31.6094" rx="2.5" ry="2.5" style="stroke:#181818;stroke-width:0.5;" width="111" x="658" y="402.4766"/><text fill="#000000" font-family="sans-serif" font-size="14" lengthAdjust="spacing" textLength="97" x="665" y="424.0098">StaffRepository</text><rect fill="#FFFFFF" height="30.3516" style="stroke:#181818;stroke-width:1.0;" width="10" x="138" y="69.9609"/><rect fill="#FFFFFF" height="30.3516" style="stroke:#181818;stroke-width:1.0;" width="10" x="138" y="355.125"/><rect fill="#FFFFFF" height="76.7969" style="stroke:#181818;stroke-width:1.0;" width="10" x="318" y="100.3125"/><rect fill="#FFFFFF" height="30.3516" style="stroke:#181818;stroke-width:1.0;" width="10" x="318" y="324.7734"/><rect fill="#FFFFFF" height="30.3516" style="stroke:#181818;stroke-width:1.0;" width="10" x="465" y="177.1094"/><rect fill="#FFFFFF" height="30.3516" style="stroke:#181818;stroke-width:1.0;" width="10" x="465" y="237.8125"/><rect fill="#FFFFFF" height="30.3516" style="stroke:#181818;stroke-width:1.0;" width="10" x="465" y="294.4219"/><rect fill="#FFFFFF" height="16.2578" style="stroke:#181818;stroke-width:1.0;" width="10" x="621.5" y="278.1641"/><rect fill="#FFFFFF" height="30.3516" style="stroke:#181818;stroke-width:1.0;" width="10" x="708.5" y="207.4609"/><polygon fill="#181818" points="126,65.9609,136,69.9609,126,73.9609,130,69.9609" style="stroke:#181818;stroke-width:1.0;"/><line style="stroke:#181818;stroke-width:1.0;" x1="0" x2="132" y1="69.9609" y2="69.9609"/><text fill="#000000" font-family="sans-serif" font-size="13" lengthAdjust="spacing" textLength="119" x="7" y="65.1045">Delete(license, auth)</text><polygon fill="#181818" points="306,96.3125,316,100.3125,306,104.3125,310,100.3125" style="stroke:#181818;stroke-width:1.0;"/><line style="stroke:#181818;stroke-width:1.0;" x1="143" x2="312" y1="100.3125" y2="100.3125"/><text fill="#000000" font-family="sans-serif" font-size="13" lengthAdjust="spacing" textLength="151" x="150" y="95.4561">DisableStaff(license, auth)</text><rect fill="none" height="41.4453" style="stroke:#000000;stroke-width:1.5;" width="142" x="267.5" y="108.3125"/><path d="M267.5,108.3125 L329.5,108.3125 L329.5,116.3125 L319.5,126.3125 L267.5,126.3125 L267.5,108.3125 " fill="#EEEEEE" style="stroke:#000000;stroke-width:2.0;"/><text fill="#000000" font-family="sans-serif" font-size="13" font-weight="bold" lengthAdjust="spacing" textLength="17" x="280.5" y="123.8076">ref</text><text fill="#000000" font-family="sans-serif" font-size="12" lengthAdjust="spacing" textLength="134" x="271.5" y="142.7695">Refer to generic auth SD</text><polygon fill="#181818" points="453,173.1094,463,177.1094,453,181.1094,457,177.1094" style="stroke:#181818;stroke-width:1.0;"/><line style="stroke:#181818;stroke-width:1.0;" x1="323" x2="459" y1="177.1094" y2="177.1094"/><text fill="#000000" font-family="sans-serif" font-size="13" lengthAdjust="spacing" textLength="118" x="330" y="172.2529">DisableStaff(license)</text><polygon fill="#181818" points="696.5,203.4609,706.5,207.4609,696.5,211.4609,700.5,207.4609" style="stroke:#181818;stroke-width:1.0;"/><line style="stroke:#181818;stroke-width:1.0;" x1="470" x2="702.5" y1="207.4609" y2="207.4609"/><text fill="#000000" font-family="sans-serif" font-size="13" lengthAdjust="spacing" textLength="157" x="477" y="202.6045">GetStaffByLicense(license)</text><polygon fill="#181818" points="486,233.8125,476,237.8125,486,241.8125,482,237.8125" style="stroke:#181818;stroke-width:1.0;"/><line style="stroke:#181818;stroke-width:1.0;stroke-dasharray:2.0,2.0;" x1="480" x2="712.5" y1="237.8125" y2="237.8125"/><text fill="#000000" font-family="sans-serif" font-size="13" lengthAdjust="spacing" textLength="24" x="492" y="232.9561">staff</text><polygon fill="#181818" points="593,264.1641,603,268.1641,593,272.1641,597,268.1641" style="stroke:#181818;stroke-width:1.0;"/><line style="stroke:#181818;stroke-width:1.0;" x1="470" x2="599" y1="268.1641" y2="268.1641"/><text fill="#000000" font-family="sans-serif" font-size="13" lengthAdjust="spacing" textLength="106" x="477" y="263.3076">DeactivateStatus()</text><rect fill="#E2E2F0" height="31.6094" rx="2.5" ry="2.5" style="stroke:#181818;stroke-width:0.5;" width="43" x="605" y="245.8125"/><text fill="#000000" font-family="sans-serif" font-size="14" lengthAdjust="spacing" textLength="29" x="612" y="267.3457">Staff</text><polygon fill="#181818" points="486,290.4219,476,294.4219,486,298.4219,482,294.4219" style="stroke:#181818;stroke-width:1.0;"/><line style="stroke:#181818;stroke-width:1.0;stroke-dasharray:2.0,2.0;" x1="480" x2="625.5" y1="294.4219" y2="294.4219"/><polygon fill="#181818" points="339,320.7734,329,324.7734,339,328.7734,335,324.7734" style="stroke:#181818;stroke-width:1.0;"/><line style="stroke:#181818;stroke-width:1.0;stroke-dasharray:2.0,2.0;" x1="333" x2="469" y1="324.7734" y2="324.7734"/><text fill="#000000" font-family="sans-serif" font-size="13" lengthAdjust="spacing" textLength="50" x="345" y="319.917">staffDTO</text><polygon fill="#181818" points="159,351.125,149,355.125,159,359.125,155,355.125" style="stroke:#181818;stroke-width:1.0;"/><line style="stroke:#181818;stroke-width:1.0;stroke-dasharray:2.0,2.0;" x1="153" x2="322" y1="355.125" y2="355.125"/><text fill="#000000" font-family="sans-serif" font-size="13" lengthAdjust="spacing" textLength="50" x="165" y="350.2686">staffDTO</text><polygon fill="#181818" points="11,381.4766,1,385.4766,11,389.4766,7,385.4766" style="stroke:#181818;stroke-width:1.0;"/><line style="stroke:#181818;stroke-width:1.0;stroke-dasharray:2.0,2.0;" x1="5" x2="142" y1="385.4766" y2="385.4766"/><text fill="#000000" font-family="sans-serif" font-size="13" lengthAdjust="spacing" textLength="50" x="17" y="380.6201">staffDTO</text><!--SRC=[XLBBJiCm4BplL_XOAl8327605Yv8bHB4tRYROYco8tiJgN-FlLRS9ARjATxDpEpievUEjDAzD2HgEv0s9o6zSE69qCz-DYJRziqQShRhq4MG8jULc0RTg1L6WETuL2MepDJOMw_9kdDcnXH0zPBSY2Unmmu9DrsGDnuVXHpezm6a8ZtA04Yc4pYmehr8qbx-TCX5rjGZhiWvvDwWth-Bm_U-Jc6DRMYSh3YXGQSLYuXc1sYEmc4Bm2L3wQdnA-KNXLawHtbaa3KclJYE8FY1n6Alvy-azgzgrbbcqaWlSjNIB3yB6IRTSSYMjbjUqWGDEHhyvewlT0_0dxMVEJFXRjguB9rpkw_3xT9foMbfipERoEBwcX8KuBcg2bfvLNy0]--></g></svg>