<?xml version="1.0" encoding="us-ascii" standalone="no"?><svg xmlns="http://www.w3.org/2000/svg" xmlns:xlink="http://www.w3.org/1999/xlink" contentStyleType="text/css" height="442px" preserveAspectRatio="none" style="width:609px;height:442px;background:#FFFFFF;" version="1.1" viewBox="0 0 609 442" width="609px" zoomAndPan="magnify"><defs/><g><rect fill="#FFFFFF" height="23.291" style="stroke:#181818;stroke-width:1.0;" width="10" x="63" y="48.6211"/><rect fill="#FFFFFF" height="9" style="stroke:#181818;stroke-width:1.0;" width="10" x="63" y="386.9004"/><rect fill="#FFFFFF" height="119.2031" style="stroke:#181818;stroke-width:1.0;" width="10" x="242" y="71.9121"/><rect fill="#FFFFFF" height="79.9121" style="stroke:#181818;stroke-width:1.0;" width="10" x="247" y="111.2031"/><rect fill="#FFFFFF" height="31.291" style="stroke:#181818;stroke-width:1.0;" width="10" x="242" y="222.4063"/><rect fill="#FFFFFF" height="101.9121" style="stroke:#181818;stroke-width:1.0;" width="10" x="247" y="284.9883"/><rect fill="#FFFFFF" height="80.9121" style="stroke:#181818;stroke-width:1.0;" width="10" x="247" y="284.9883"/><rect fill="#FFFFFF" height="31.291" style="stroke:#181818;stroke-width:1.0;" width="10" x="371" y="191.1152"/><rect fill="#FFFFFF" height="31.291" style="stroke:#181818;stroke-width:1.0;" width="10" x="545" y="253.6973"/><line style="stroke:#181818;stroke-width:0.5;stroke-dasharray:5.0,5.0;" x1="68" x2="68" y1="38.6211" y2="404.9004"/><line style="stroke:#181818;stroke-width:0.5;stroke-dasharray:5.0,5.0;" x1="246.5" x2="246.5" y1="38.6211" y2="404.9004"/><line style="stroke:#181818;stroke-width:0.5;stroke-dasharray:5.0,5.0;" x1="376" x2="376" y1="156.0137" y2="404.9004"/><line style="stroke:#181818;stroke-width:0.5;stroke-dasharray:5.0,5.0;" x1="457" x2="457" y1="324.7988" y2="404.9004"/><line style="stroke:#181818;stroke-width:0.5;stroke-dasharray:5.0,5.0;" x1="550" x2="550" y1="38.6211" y2="404.9004"/><rect fill="#E2E2F0" height="32.6211" rx="2.5" ry="2.5" style="stroke:#181818;stroke-width:0.5;" width="126" x="5" y="5"/><text fill="#000000" font-family="sans-serif" font-size="14" lengthAdjust="spacing" textLength="112" x="12" y="27.1074">GenericController</text><rect fill="#E2E2F0" height="32.6211" rx="2.5" ry="2.5" style="stroke:#181818;stroke-width:0.5;" width="126" x="5" y="403.9004"/><text fill="#000000" font-family="sans-serif" font-size="14" lengthAdjust="spacing" textLength="112" x="12" y="426.0078">GenericController</text><rect fill="#E2E2F0" height="32.6211" rx="2.5" ry="2.5" style="stroke:#181818;stroke-width:0.5;" width="85" x="204.5" y="5"/><text fill="#000000" font-family="sans-serif" font-size="14" lengthAdjust="spacing" textLength="71" x="211.5" y="27.1074">LogService</text><rect fill="#E2E2F0" height="32.6211" rx="2.5" ry="2.5" style="stroke:#181818;stroke-width:0.5;" width="85" x="204.5" y="403.9004"/><text fill="#000000" font-family="sans-serif" font-size="14" lengthAdjust="spacing" textLength="71" x="211.5" y="426.0078">LogService</text><rect fill="#E2E2F0" height="32.6211" rx="2.5" ry="2.5" style="stroke:#181818;stroke-width:0.5;" width="82" x="335" y="403.9004"/><text fill="#000000" font-family="sans-serif" font-size="14" lengthAdjust="spacing" textLength="68" x="342" y="426.0078">LogBuilder</text><rect fill="#E2E2F0" height="32.6211" rx="2.5" ry="2.5" style="stroke:#181818;stroke-width:0.5;" width="60" x="427" y="403.9004"/><text fill="#000000" font-family="sans-serif" font-size="14" lengthAdjust="spacing" textLength="46" x="434" y="426.0078">LogDto</text><rect fill="#E2E2F0" height="32.6211" rx="2.5" ry="2.5" style="stroke:#181818;stroke-width:0.5;" width="106" x="497" y="5"/><text fill="#000000" font-family="sans-serif" font-size="14" lengthAdjust="spacing" textLength="92" x="504" y="27.1074">LogRepository</text><rect fill="#E2E2F0" height="32.6211" rx="2.5" ry="2.5" style="stroke:#181818;stroke-width:0.5;" width="106" x="497" y="403.9004"/><text fill="#000000" font-family="sans-serif" font-size="14" lengthAdjust="spacing" textLength="92" x="504" y="426.0078">LogRepository</text><rect fill="#FFFFFF" height="23.291" style="stroke:#181818;stroke-width:1.0;" width="10" x="63" y="48.6211"/><rect fill="#FFFFFF" height="9" style="stroke:#181818;stroke-width:1.0;" width="10" x="63" y="386.9004"/><rect fill="#FFFFFF" height="119.2031" style="stroke:#181818;stroke-width:1.0;" width="10" x="242" y="71.9121"/><rect fill="#FFFFFF" height="79.9121" style="stroke:#181818;stroke-width:1.0;" width="10" x="247" y="111.2031"/><rect fill="#FFFFFF" height="31.291" style="stroke:#181818;stroke-width:1.0;" width="10" x="242" y="222.4063"/><rect fill="#FFFFFF" height="101.9121" style="stroke:#181818;stroke-width:1.0;" width="10" x="247" y="284.9883"/><rect fill="#FFFFFF" height="80.9121" style="stroke:#181818;stroke-width:1.0;" width="10" x="247" y="284.9883"/><rect fill="#FFFFFF" height="31.291" style="stroke:#181818;stroke-width:1.0;" width="10" x="371" y="191.1152"/><rect fill="#FFFFFF" height="31.291" style="stroke:#181818;stroke-width:1.0;" width="10" x="545" y="253.6973"/><polygon fill="#181818" points="230,67.9121,240,71.9121,230,75.9121,234,71.9121" style="stroke:#181818;stroke-width:1.0;"/><line style="stroke:#181818;stroke-width:1.0;" x1="68" x2="236" y1="71.9121" y2="71.9121"/><text fill="#000000" font-family="sans-serif" font-size="13" lengthAdjust="spacing" textLength="150" x="75" y="66.6494">LogObject(GenericObject)</text><line style="stroke:#181818;stroke-width:1.0;" x1="252" x2="299" y1="98.2031" y2="98.2031"/><line style="stroke:#181818;stroke-width:1.0;" x1="299" x2="299" y1="98.2031" y2="111.2031"/><line style="stroke:#181818;stroke-width:1.0;" x1="258" x2="299" y1="111.2031" y2="111.2031"/><polygon fill="#181818" points="268,107.2031,258,111.2031,268,115.2031,264,111.2031" style="stroke:#181818;stroke-width:1.0;"/><text fill="#000000" font-family="sans-serif" font-size="13" lengthAdjust="spacing" textLength="105" x="264" y="92.9404">AddAsync(logDto)</text><polygon fill="#181818" points="323,143.4941,333,147.4941,323,151.4941,327,147.4941" style="stroke:#181818;stroke-width:1.0;"/><line style="stroke:#181818;stroke-width:1.0;" x1="257" x2="329" y1="147.4941" y2="147.4941"/><text fill="#000000" font-family="sans-serif" font-size="13" lengthAdjust="spacing" textLength="44" x="264" y="142.2314">create()</text><rect fill="#E2E2F0" height="32.6211" rx="2.5" ry="2.5" style="stroke:#181818;stroke-width:0.5;" width="82" x="335" y="124.2031"/><text fill="#000000" font-family="sans-serif" font-size="14" lengthAdjust="spacing" textLength="68" x="342" y="146.3105">LogBuilder</text><polygon fill="#181818" points="359,187.1152,369,191.1152,359,195.1152,363,191.1152" style="stroke:#181818;stroke-width:1.0;"/><line style="stroke:#181818;stroke-width:1.0;" x1="247" x2="365" y1="191.1152" y2="191.1152"/><text fill="#000000" font-family="sans-serif" font-size="13" lengthAdjust="spacing" textLength="37" x="254" y="185.8525">Build()</text><polygon fill="#181818" points="263,218.4063,253,222.4063,263,226.4063,259,222.4063" style="stroke:#181818;stroke-width:1.0;"/><line style="stroke:#181818;stroke-width:1.0;stroke-dasharray:2.0,2.0;" x1="257" x2="375" y1="222.4063" y2="222.4063"/><text fill="#000000" font-family="sans-serif" font-size="13" lengthAdjust="spacing" textLength="17" x="269" y="217.1436">log</text><polygon fill="#181818" points="533,249.6973,543,253.6973,533,257.6973,537,253.6973" style="stroke:#181818;stroke-width:1.0;"/><line style="stroke:#181818;stroke-width:1.0;" x1="247" x2="539" y1="253.6973" y2="253.6973"/><text fill="#000000" font-family="sans-serif" font-size="13" lengthAdjust="spacing" textLength="85" x="254" y="248.4346">AddAsync(log)</text><polygon fill="#181818" points="268,280.9883,258,284.9883,268,288.9883,264,284.9883" style="stroke:#181818;stroke-width:1.0;"/><line style="stroke:#181818;stroke-width:1.0;stroke-dasharray:2.0,2.0;" x1="262" x2="549" y1="284.9883" y2="284.9883"/><text fill="#000000" font-family="sans-serif" font-size="13" lengthAdjust="spacing" textLength="17" x="274" y="279.7256">log</text><polygon fill="#181818" points="415,312.2793,425,316.2793,415,320.2793,419,316.2793" style="stroke:#181818;stroke-width:1.0;"/><line style="stroke:#181818;stroke-width:1.0;" x1="257" x2="421" y1="316.2793" y2="316.2793"/><text fill="#000000" font-family="sans-serif" font-size="13" lengthAdjust="spacing" textLength="44" x="264" y="311.0166">create()</text><rect fill="#E2E2F0" height="32.6211" rx="2.5" ry="2.5" style="stroke:#181818;stroke-width:0.5;" width="60" x="427" y="292.9883"/><text fill="#000000" font-family="sans-serif" font-size="14" lengthAdjust="spacing" textLength="46" x="434" y="315.0957">LogDto</text><line style="stroke:#181818;stroke-width:1.0;stroke-dasharray:2.0,2.0;" x1="257" x2="299" y1="364.9004" y2="364.9004"/><line style="stroke:#181818;stroke-width:1.0;stroke-dasharray:2.0,2.0;" x1="299" x2="299" y1="364.9004" y2="377.9004"/><line style="stroke:#181818;stroke-width:1.0;stroke-dasharray:2.0,2.0;" x1="252" x2="299" y1="377.9004" y2="377.9004"/><polygon fill="#181818" points="262,373.9004,252,377.9004,262,381.9004,258,377.9004" style="stroke:#181818;stroke-width:1.0;"/><text fill="#000000" font-family="sans-serif" font-size="13" lengthAdjust="spacing" textLength="37" x="264" y="359.6377">logDto</text><polygon fill="#181818" points="84,382.9004,74,386.9004,84,390.9004,80,386.9004" style="stroke:#181818;stroke-width:1.0;"/><line style="stroke:#181818;stroke-width:1.0;" x1="78" x2="246" y1="386.9004" y2="386.9004"/><!--SRC=[TL51RiCW4Bpp2cwrBRc- -r0fRQLUAbLANq00fLJOe6LZARyF2wbbY7knlCpCpkpkqm-Y3-CmU2jcl4psMRffSATVBR5NHfn1J8nv0MYayP72F_IimSWtDoCuQpLm4RX4i0Nhqvs_DIn6QeB38clqzMAiok8J_TRuEph25BeQEMhlWa47Lo90h1WJ4iqYKESWZBwyVo5VFfBcAmtKtBFdgcLAbxgrehoCn6kFWrA7S9rbOrEqTf-R9kcwaKlG4MlQ4ebzqjXDOKqDgd8pK5vEblThd9XYgycatKYqdoh_W_jQv6KcoRzUYRClt_h6mtKTtsmYlVyrpLjy7FikJjUemV9MDm00]--></g></svg>