<?xml version="1.0" encoding="us-ascii" standalone="no"?><svg xmlns="http://www.w3.org/2000/svg" xmlns:xlink="http://www.w3.org/1999/xlink" contentStyleType="text/css" height="542px" preserveAspectRatio="none" style="width:1479px;height:542px;background:#FFFFFF;" version="1.1" viewBox="0 0 1479 542" width="1479px" zoomAndPan="magnify"><defs/><g><!--cluster PatientAggregate--><g id="cluster_PatientAggregate"><path d="M8.5,6 L131.5,6 A3.75,3.75 0 0 1 134,8.5 L141,29.6094 L694.5,29.6094 A2.5,2.5 0 0 1 697,32.1094 L697,532.5 A2.5,2.5 0 0 1 694.5,535 L8.5,535 A2.5,2.5 0 0 1 6,532.5 L6,8.5 A2.5,2.5 0 0 1 8.5,6 " fill="none" style="stroke:#000000;stroke-width:1.5;"/><line style="stroke:#000000;stroke-width:1.5;" x1="6" x2="141" y1="29.6094" y2="29.6094"/><text fill="#000000" font-family="sans-serif" font-size="14" font-weight="bold" lengthAdjust="spacing" textLength="122" x="10" y="22.5332">PatientAggregate</text></g><!--cluster MedicalConditionAggregate--><g id="cluster_MedicalConditionAggregate"><path d="M723.5,6 L920.5,6 A3.75,3.75 0 0 1 923,8.5 L930,29.6094 L1469.5,29.6094 A2.5,2.5 0 0 1 1472,32.1094 L1472,233.5 A2.5,2.5 0 0 1 1469.5,236 L723.5,236 A2.5,2.5 0 0 1 721,233.5 L721,8.5 A2.5,2.5 0 0 1 723.5,6 " fill="none" style="stroke:#000000;stroke-width:1.5;"/><line style="stroke:#000000;stroke-width:1.5;" x1="721" x2="930" y1="29.6094" y2="29.6094"/><text fill="#000000" font-family="sans-serif" font-size="14" font-weight="bold" lengthAdjust="spacing" textLength="196" x="725" y="22.5332">MedicalConditionAggregate</text></g><!--class Patient--><g id="elem_Patient"><rect codeLine="3" fill="#F1F1F1" height="58.7031" id="Patient" rx="2.5" ry="2.5" style="stroke:#181818;stroke-width:0.5;" width="101" x="394.5" y="161"/><ellipse cx="409.5" cy="182.3516" fill="#0099FF" rx="11" ry="11" style="stroke:#181818;stroke-width:1.0;"/><path d="M408.3438,183.5078 L408.3438,185.6484 L408.9531,185.6484 Q409.5781,185.6484 409.8281,185.8828 Q410.0938,186.1172 410.0938,186.5078 Q410.0938,186.8828 409.8281,187.1172 Q409.5781,187.3516 408.9531,187.3516 L406.375,187.3516 Q405.7656,187.3516 405.5,187.1172 Q405.2344,186.8828 405.2344,186.4922 Q405.2344,186.1172 405.5,185.8828 Q405.7656,185.6484 406.375,185.6484 L406.6406,185.6484 L406.6406,178.9922 L406.375,178.9922 Q405.7656,178.9922 405.5,178.7578 Q405.2344,178.5234 405.2344,178.1328 Q405.2344,177.7578 405.5,177.5234 Q405.7656,177.2891 406.375,177.2891 L410.2344,177.2891 Q412.0313,177.2891 413.0156,178.1797 Q414.0156,179.0703 414.0156,180.3516 Q414.0156,181.1484 413.5469,181.8047 Q413.0781,182.4609 412.1406,182.9609 Q412.6875,183.4297 413.2969,184.1797 Q413.6875,184.6484 414.3281,185.6484 Q414.9844,185.6484 415.1875,185.7891 Q415.5625,186.0391 415.5625,186.5078 Q415.5625,186.8828 415.2969,187.1172 Q415.0469,187.3516 414.4375,187.3516 L413.4531,187.3516 Q411.3906,184.1484 410.0313,183.5078 L408.3438,183.5078 Z M408.3438,181.8047 L409.6719,181.8047 Q410.4063,181.8047 411,181.5859 Q411.7813,181.2891 412.0469,180.9609 Q412.3125,180.6172 412.3125,180.2891 Q412.3125,179.8203 411.7969,179.4141 Q411.2813,178.9922 410.2969,178.9922 L408.3438,178.9922 L408.3438,181.8047 Z " fill="#000000"/><text fill="#000000" font-family="sans-serif" font-size="12" font-style="italic" lengthAdjust="spacing" textLength="73" x="421.5" y="178.457">&#171;Root Entity&#187;</text><text fill="#000000" font-family="sans-serif" font-size="14" lengthAdjust="spacing" textLength="44" x="436" y="195.627">Patient</text><line style="stroke:#181818;stroke-width:0.5;" x1="395.5" x2="494.5" y1="203.7031" y2="203.7031"/><line style="stroke:#181818;stroke-width:0.5;" x1="395.5" x2="494.5" y1="211.7031" y2="211.7031"/></g><!--class Gender--><g id="elem_Gender"><rect codeLine="5" fill="#F1F1F1" height="58.7031" id="Gender" rx="2.5" ry="2.5" style="stroke:#181818;stroke-width:0.5;" width="113" x="567.5" y="42"/><ellipse cx="582.5" cy="63.3516" fill="#F04800" rx="11" ry="11" style="stroke:#181818;stroke-width:1.0;"/><path d="M583.0938,66.6172 L585.5625,60.7422 L585.1719,60.7422 Q584.5625,60.7422 584.2969,60.5078 Q584.0313,60.2734 584.0313,59.8828 Q584.0313,59.5078 584.2969,59.2734 Q584.5625,59.0391 585.1719,59.0391 L587.4531,59.0391 Q588.0625,59.0391 588.3281,59.2734 Q588.5938,59.5078 588.5938,59.8828 Q588.5938,60.3516 588.1875,60.6172 Q588,60.7422 587.4063,60.7422 L583.9219,69.1016 L582.2813,69.1016 L578.7969,60.7422 Q578.2031,60.7422 578.0156,60.6172 Q577.6094,60.3516 577.6094,59.8828 Q577.6094,59.5078 577.875,59.2734 Q578.1406,59.0391 578.75,59.0391 L581.0469,59.0391 Q581.6563,59.0391 581.9063,59.2734 Q582.1719,59.5078 582.1719,59.8828 Q582.1719,60.2734 581.9063,60.5078 Q581.6563,60.7422 581.0469,60.7422 L580.6406,60.7422 L583.0938,66.6172 Z " fill="#000000"/><text fill="#000000" font-family="sans-serif" font-size="12" font-style="italic" lengthAdjust="spacing" textLength="85" x="594.5" y="59.457">&#171;Value Object&#187;</text><text fill="#000000" font-family="sans-serif" font-size="14" lengthAdjust="spacing" textLength="48" x="613" y="76.627">Gender</text><line style="stroke:#181818;stroke-width:0.5;" x1="568.5" x2="679.5" y1="84.7031" y2="84.7031"/><line style="stroke:#181818;stroke-width:0.5;" x1="568.5" x2="679.5" y1="92.7031" y2="92.7031"/></g><!--class MedicalRecordNumber--><g id="elem_MedicalRecordNumber"><rect codeLine="6" fill="#F1F1F1" height="58.7031" id="MedicalRecordNumber" rx="2.5" ry="2.5" style="stroke:#181818;stroke-width:0.5;" width="175" x="357.5" y="42"/><ellipse cx="372.5" cy="63.3516" fill="#F09800" rx="11" ry="11" style="stroke:#181818;stroke-width:1.0;"/><path d="M373.0938,66.6172 L375.5625,60.7422 L375.1719,60.7422 Q374.5625,60.7422 374.2969,60.5078 Q374.0313,60.2734 374.0313,59.8828 Q374.0313,59.5078 374.2969,59.2734 Q374.5625,59.0391 375.1719,59.0391 L377.4531,59.0391 Q378.0625,59.0391 378.3281,59.2734 Q378.5938,59.5078 378.5938,59.8828 Q378.5938,60.3516 378.1875,60.6172 Q378,60.7422 377.4063,60.7422 L373.9219,69.1016 L372.2813,69.1016 L368.7969,60.7422 Q368.2031,60.7422 368.0156,60.6172 Q367.6094,60.3516 367.6094,59.8828 Q367.6094,59.5078 367.875,59.2734 Q368.1406,59.0391 368.75,59.0391 L371.0469,59.0391 Q371.6563,59.0391 371.9063,59.2734 Q372.1719,59.5078 372.1719,59.8828 Q372.1719,60.2734 371.9063,60.5078 Q371.6563,60.7422 371.0469,60.7422 L370.6406,60.7422 L373.0938,66.6172 Z " fill="#000000"/><text fill="#000000" font-family="sans-serif" font-size="12" font-style="italic" lengthAdjust="spacing" textLength="105" x="405.5" y="59.457">&#171;Unique Identifier&#187;</text><text fill="#000000" font-family="sans-serif" font-size="14" lengthAdjust="spacing" textLength="143" x="386.5" y="76.627">MedicalRecordNumber</text><line style="stroke:#181818;stroke-width:0.5;" x1="358.5" x2="531.5" y1="84.7031" y2="84.7031"/><line style="stroke:#181818;stroke-width:0.5;" x1="358.5" x2="531.5" y1="92.7031" y2="92.7031"/></g><!--class DateOfBirth--><g id="elem_DateOfBirth"><rect codeLine="7" fill="#F1F1F1" height="58.7031" id="DateOfBirth" rx="2.5" ry="2.5" style="stroke:#181818;stroke-width:0.5;" width="113" x="209.5" y="42"/><ellipse cx="224.5" cy="63.3516" fill="#F04800" rx="11" ry="11" style="stroke:#181818;stroke-width:1.0;"/><path d="M225.0938,66.6172 L227.5625,60.7422 L227.1719,60.7422 Q226.5625,60.7422 226.2969,60.5078 Q226.0313,60.2734 226.0313,59.8828 Q226.0313,59.5078 226.2969,59.2734 Q226.5625,59.0391 227.1719,59.0391 L229.4531,59.0391 Q230.0625,59.0391 230.3281,59.2734 Q230.5938,59.5078 230.5938,59.8828 Q230.5938,60.3516 230.1875,60.6172 Q230,60.7422 229.4063,60.7422 L225.9219,69.1016 L224.2813,69.1016 L220.7969,60.7422 Q220.2031,60.7422 220.0156,60.6172 Q219.6094,60.3516 219.6094,59.8828 Q219.6094,59.5078 219.875,59.2734 Q220.1406,59.0391 220.75,59.0391 L223.0469,59.0391 Q223.6563,59.0391 223.9063,59.2734 Q224.1719,59.5078 224.1719,59.8828 Q224.1719,60.2734 223.9063,60.5078 Q223.6563,60.7422 223.0469,60.7422 L222.6406,60.7422 L225.0938,66.6172 Z " fill="#000000"/><text fill="#000000" font-family="sans-serif" font-size="12" font-style="italic" lengthAdjust="spacing" textLength="85" x="236.5" y="59.457">&#171;Value Object&#187;</text><text fill="#000000" font-family="sans-serif" font-size="14" lengthAdjust="spacing" textLength="74" x="242" y="76.627">DateOfBirth</text><line style="stroke:#181818;stroke-width:0.5;" x1="210.5" x2="321.5" y1="84.7031" y2="84.7031"/><line style="stroke:#181818;stroke-width:0.5;" x1="210.5" x2="321.5" y1="92.7031" y2="92.7031"/></g><!--class EmergencyContact--><g id="elem_EmergencyContact"><rect codeLine="8" fill="#F1F1F1" height="58.7031" id="EmergencyContact" rx="2.5" ry="2.5" style="stroke:#181818;stroke-width:0.5;" width="152" x="22" y="42"/><ellipse cx="37" cy="63.3516" fill="#F04800" rx="11" ry="11" style="stroke:#181818;stroke-width:1.0;"/><path d="M37.5938,66.6172 L40.0625,60.7422 L39.6719,60.7422 Q39.0625,60.7422 38.7969,60.5078 Q38.5313,60.2734 38.5313,59.8828 Q38.5313,59.5078 38.7969,59.2734 Q39.0625,59.0391 39.6719,59.0391 L41.9531,59.0391 Q42.5625,59.0391 42.8281,59.2734 Q43.0938,59.5078 43.0938,59.8828 Q43.0938,60.3516 42.6875,60.6172 Q42.5,60.7422 41.9063,60.7422 L38.4219,69.1016 L36.7813,69.1016 L33.2969,60.7422 Q32.7031,60.7422 32.5156,60.6172 Q32.1094,60.3516 32.1094,59.8828 Q32.1094,59.5078 32.375,59.2734 Q32.6406,59.0391 33.25,59.0391 L35.5469,59.0391 Q36.1563,59.0391 36.4063,59.2734 Q36.6719,59.5078 36.6719,59.8828 Q36.6719,60.2734 36.4063,60.5078 Q36.1563,60.7422 35.5469,60.7422 L35.1406,60.7422 L37.5938,66.6172 Z " fill="#000000"/><text fill="#000000" font-family="sans-serif" font-size="12" font-style="italic" lengthAdjust="spacing" textLength="85" x="68.5" y="59.457">&#171;Value Object&#187;</text><text fill="#000000" font-family="sans-serif" font-size="14" lengthAdjust="spacing" textLength="120" x="51" y="76.627">EmergencyContact</text><line style="stroke:#181818;stroke-width:0.5;" x1="23" x2="173" y1="84.7031" y2="84.7031"/><line style="stroke:#181818;stroke-width:0.5;" x1="23" x2="173" y1="92.7031" y2="92.7031"/></g><!--class EmailAddress--><g id="elem_EmailAddress"><rect codeLine="9" fill="#F1F1F1" height="58.7031" id="EmailAddress" rx="2.5" ry="2.5" style="stroke:#181818;stroke-width:0.5;" width="118" x="36" y="460"/><ellipse cx="51" cy="481.3516" fill="#F04800" rx="11" ry="11" style="stroke:#181818;stroke-width:1.0;"/><path d="M51.5938,484.6172 L54.0625,478.7422 L53.6719,478.7422 Q53.0625,478.7422 52.7969,478.5078 Q52.5313,478.2734 52.5313,477.8828 Q52.5313,477.5078 52.7969,477.2734 Q53.0625,477.0391 53.6719,477.0391 L55.9531,477.0391 Q56.5625,477.0391 56.8281,477.2734 Q57.0938,477.5078 57.0938,477.8828 Q57.0938,478.3516 56.6875,478.6172 Q56.5,478.7422 55.9063,478.7422 L52.4219,487.1016 L50.7813,487.1016 L47.2969,478.7422 Q46.7031,478.7422 46.5156,478.6172 Q46.1094,478.3516 46.1094,477.8828 Q46.1094,477.5078 46.375,477.2734 Q46.6406,477.0391 47.25,477.0391 L49.5469,477.0391 Q50.1563,477.0391 50.4063,477.2734 Q50.6719,477.5078 50.6719,477.8828 Q50.6719,478.2734 50.4063,478.5078 Q50.1563,478.7422 49.5469,478.7422 L49.1406,478.7422 L51.5938,484.6172 Z " fill="#000000"/><text fill="#000000" font-family="sans-serif" font-size="12" font-style="italic" lengthAdjust="spacing" textLength="85" x="65.5" y="477.457">&#171;Value Object&#187;</text><text fill="#000000" font-family="sans-serif" font-size="14" lengthAdjust="spacing" textLength="86" x="65" y="494.627">EmailAddress</text><line style="stroke:#181818;stroke-width:0.5;" x1="37" x2="153" y1="502.7031" y2="502.7031"/><line style="stroke:#181818;stroke-width:0.5;" x1="37" x2="153" y1="510.7031" y2="510.7031"/></g><!--class PhoneNumber--><g id="elem_PhoneNumber"><rect codeLine="10" fill="#F1F1F1" height="58.7031" id="PhoneNumber" rx="2.5" ry="2.5" style="stroke:#181818;stroke-width:0.5;" width="122" x="189" y="460"/><ellipse cx="204" cy="481.3516" fill="#F04800" rx="11" ry="11" style="stroke:#181818;stroke-width:1.0;"/><path d="M204.5938,484.6172 L207.0625,478.7422 L206.6719,478.7422 Q206.0625,478.7422 205.7969,478.5078 Q205.5313,478.2734 205.5313,477.8828 Q205.5313,477.5078 205.7969,477.2734 Q206.0625,477.0391 206.6719,477.0391 L208.9531,477.0391 Q209.5625,477.0391 209.8281,477.2734 Q210.0938,477.5078 210.0938,477.8828 Q210.0938,478.3516 209.6875,478.6172 Q209.5,478.7422 208.9063,478.7422 L205.4219,487.1016 L203.7813,487.1016 L200.2969,478.7422 Q199.7031,478.7422 199.5156,478.6172 Q199.1094,478.3516 199.1094,477.8828 Q199.1094,477.5078 199.375,477.2734 Q199.6406,477.0391 200.25,477.0391 L202.5469,477.0391 Q203.1563,477.0391 203.4063,477.2734 Q203.6719,477.5078 203.6719,477.8828 Q203.6719,478.2734 203.4063,478.5078 Q203.1563,478.7422 202.5469,478.7422 L202.1406,478.7422 L204.5938,484.6172 Z " fill="#000000"/><text fill="#000000" font-family="sans-serif" font-size="12" font-style="italic" lengthAdjust="spacing" textLength="85" x="220.5" y="477.457">&#171;Value Object&#187;</text><text fill="#000000" font-family="sans-serif" font-size="14" lengthAdjust="spacing" textLength="90" x="218" y="494.627">PhoneNumber</text><line style="stroke:#181818;stroke-width:0.5;" x1="190" x2="310" y1="502.7031" y2="502.7031"/><line style="stroke:#181818;stroke-width:0.5;" x1="190" x2="310" y1="510.7031" y2="510.7031"/></g><!--class ContactInformation--><g id="elem_ContactInformation"><rect codeLine="12" fill="#F1F1F1" height="58.7031" id="ContactInformation" rx="2.5" ry="2.5" style="stroke:#181818;stroke-width:0.5;" width="151" x="70.5" y="280"/><ellipse cx="85.5" cy="301.3516" fill="#ADD1B2" rx="11" ry="11" style="stroke:#181818;stroke-width:1.0;"/><path d="M84.3594,302.1484 L84.3594,304.6484 L88.6875,304.6484 L88.6875,303.7266 Q88.6875,303.1172 88.9219,302.8516 Q89.1719,302.5859 89.5469,302.5859 Q89.9219,302.5859 90.1563,302.8516 Q90.3906,303.1172 90.3906,303.7266 L90.3906,306.3516 L82.3906,306.3516 Q81.7656,306.3516 81.5,306.1172 Q81.25,305.8828 81.25,305.4922 Q81.25,305.1172 81.5156,304.8828 Q81.7813,304.6484 82.3906,304.6484 L82.6563,304.6484 L82.6563,297.9922 L82.3906,297.9922 Q81.7656,297.9922 81.5,297.7578 Q81.25,297.5234 81.25,297.1328 Q81.25,296.7578 81.5,296.5234 Q81.7656,296.2891 82.3906,296.2891 L90.0156,296.2891 L90.0156,298.8828 Q90.0156,299.4922 89.7813,299.7578 Q89.5625,300.0078 89.1719,300.0078 Q88.7969,300.0078 88.5625,299.7578 Q88.3281,299.4922 88.3281,298.8828 L88.3281,297.9922 L84.3594,297.9922 L84.3594,300.4453 L85.8438,300.4453 Q85.8438,299.7891 85.9688,299.6016 Q86.2344,299.1953 86.7031,299.1953 Q87.0781,299.1953 87.3125,299.4609 Q87.5469,299.7109 87.5469,300.3203 L87.5469,302.2891 Q87.5469,302.8359 87.4219,303.0234 Q87.1563,303.4141 86.7031,303.4141 Q86.2344,303.4141 85.9688,303.0078 Q85.8438,302.8203 85.8438,302.1484 L84.3594,302.1484 Z " fill="#000000"/><text fill="#000000" font-family="sans-serif" font-size="12" font-style="italic" lengthAdjust="spacing" textLength="44" x="137" y="297.457">&#171;Entity&#187;</text><text fill="#000000" font-family="sans-serif" font-size="14" lengthAdjust="spacing" textLength="119" x="99.5" y="314.627">ContactInformation</text><line style="stroke:#181818;stroke-width:0.5;" x1="71.5" x2="220.5" y1="322.7031" y2="322.7031"/><line style="stroke:#181818;stroke-width:0.5;" x1="71.5" x2="220.5" y1="330.7031" y2="330.7031"/></g><!--class FirstName--><g id="elem_FirstName"><rect codeLine="14" fill="#F1F1F1" height="58.7031" id="FirstName" rx="2.5" ry="2.5" style="stroke:#181818;stroke-width:0.5;" width="113" x="256.5" y="280"/><ellipse cx="271.5" cy="301.3516" fill="#F04800" rx="11" ry="11" style="stroke:#181818;stroke-width:1.0;"/><path d="M272.0938,304.6172 L274.5625,298.7422 L274.1719,298.7422 Q273.5625,298.7422 273.2969,298.5078 Q273.0313,298.2734 273.0313,297.8828 Q273.0313,297.5078 273.2969,297.2734 Q273.5625,297.0391 274.1719,297.0391 L276.4531,297.0391 Q277.0625,297.0391 277.3281,297.2734 Q277.5938,297.5078 277.5938,297.8828 Q277.5938,298.3516 277.1875,298.6172 Q277,298.7422 276.4063,298.7422 L272.9219,307.1016 L271.2813,307.1016 L267.7969,298.7422 Q267.2031,298.7422 267.0156,298.6172 Q266.6094,298.3516 266.6094,297.8828 Q266.6094,297.5078 266.875,297.2734 Q267.1406,297.0391 267.75,297.0391 L270.0469,297.0391 Q270.6563,297.0391 270.9063,297.2734 Q271.1719,297.5078 271.1719,297.8828 Q271.1719,298.2734 270.9063,298.5078 Q270.6563,298.7422 270.0469,298.7422 L269.6406,298.7422 L272.0938,304.6172 Z " fill="#000000"/><text fill="#000000" font-family="sans-serif" font-size="12" font-style="italic" lengthAdjust="spacing" textLength="85" x="283.5" y="297.457">&#171;Value Object&#187;</text><text fill="#000000" font-family="sans-serif" font-size="14" lengthAdjust="spacing" textLength="64" x="294" y="314.627">FirstName</text><line style="stroke:#181818;stroke-width:0.5;" x1="257.5" x2="368.5" y1="322.7031" y2="322.7031"/><line style="stroke:#181818;stroke-width:0.5;" x1="257.5" x2="368.5" y1="330.7031" y2="330.7031"/></g><!--class LastName--><g id="elem_LastName"><rect codeLine="15" fill="#F1F1F1" height="58.7031" id="LastName" rx="2.5" ry="2.5" style="stroke:#181818;stroke-width:0.5;" width="113" x="404.5" y="280"/><ellipse cx="419.5" cy="301.3516" fill="#F04800" rx="11" ry="11" style="stroke:#181818;stroke-width:1.0;"/><path d="M420.0938,304.6172 L422.5625,298.7422 L422.1719,298.7422 Q421.5625,298.7422 421.2969,298.5078 Q421.0313,298.2734 421.0313,297.8828 Q421.0313,297.5078 421.2969,297.2734 Q421.5625,297.0391 422.1719,297.0391 L424.4531,297.0391 Q425.0625,297.0391 425.3281,297.2734 Q425.5938,297.5078 425.5938,297.8828 Q425.5938,298.3516 425.1875,298.6172 Q425,298.7422 424.4063,298.7422 L420.9219,307.1016 L419.2813,307.1016 L415.7969,298.7422 Q415.2031,298.7422 415.0156,298.6172 Q414.6094,298.3516 414.6094,297.8828 Q414.6094,297.5078 414.875,297.2734 Q415.1406,297.0391 415.75,297.0391 L418.0469,297.0391 Q418.6563,297.0391 418.9063,297.2734 Q419.1719,297.5078 419.1719,297.8828 Q419.1719,298.2734 418.9063,298.5078 Q418.6563,298.7422 418.0469,298.7422 L417.6406,298.7422 L420.0938,304.6172 Z " fill="#000000"/><text fill="#000000" font-family="sans-serif" font-size="12" font-style="italic" lengthAdjust="spacing" textLength="85" x="431.5" y="297.457">&#171;Value Object&#187;</text><text fill="#000000" font-family="sans-serif" font-size="14" lengthAdjust="spacing" textLength="63" x="442.5" y="314.627">LastName</text><line style="stroke:#181818;stroke-width:0.5;" x1="405.5" x2="516.5" y1="322.7031" y2="322.7031"/><line style="stroke:#181818;stroke-width:0.5;" x1="405.5" x2="516.5" y1="330.7031" y2="330.7031"/></g><!--class FullName--><g id="elem_FullName"><rect codeLine="16" fill="#F1F1F1" height="58.7031" id="FullName" rx="2.5" ry="2.5" style="stroke:#181818;stroke-width:0.5;" width="113" x="552.5" y="280"/><ellipse cx="567.5" cy="301.3516" fill="#F04800" rx="11" ry="11" style="stroke:#181818;stroke-width:1.0;"/><path d="M568.0938,304.6172 L570.5625,298.7422 L570.1719,298.7422 Q569.5625,298.7422 569.2969,298.5078 Q569.0313,298.2734 569.0313,297.8828 Q569.0313,297.5078 569.2969,297.2734 Q569.5625,297.0391 570.1719,297.0391 L572.4531,297.0391 Q573.0625,297.0391 573.3281,297.2734 Q573.5938,297.5078 573.5938,297.8828 Q573.5938,298.3516 573.1875,298.6172 Q573,298.7422 572.4063,298.7422 L568.9219,307.1016 L567.2813,307.1016 L563.7969,298.7422 Q563.2031,298.7422 563.0156,298.6172 Q562.6094,298.3516 562.6094,297.8828 Q562.6094,297.5078 562.875,297.2734 Q563.1406,297.0391 563.75,297.0391 L566.0469,297.0391 Q566.6563,297.0391 566.9063,297.2734 Q567.1719,297.5078 567.1719,297.8828 Q567.1719,298.2734 566.9063,298.5078 Q566.6563,298.7422 566.0469,298.7422 L565.6406,298.7422 L568.0938,304.6172 Z " fill="#000000"/><text fill="#000000" font-family="sans-serif" font-size="12" font-style="italic" lengthAdjust="spacing" textLength="85" x="579.5" y="297.457">&#171;Value Object&#187;</text><text fill="#000000" font-family="sans-serif" font-size="14" lengthAdjust="spacing" textLength="59" x="592.5" y="314.627">FullName</text><line style="stroke:#181818;stroke-width:0.5;" x1="553.5" x2="664.5" y1="322.7031" y2="322.7031"/><line style="stroke:#181818;stroke-width:0.5;" x1="553.5" x2="664.5" y1="330.7031" y2="330.7031"/></g><!--class MedicalCondition--><g id="elem_MedicalCondition"><rect codeLine="32" fill="#F1F1F1" height="58.7031" id="MedicalCondition" rx="2.5" ry="2.5" style="stroke:#181818;stroke-width:0.5;" width="140" x="912" y="42"/><ellipse cx="927" cy="63.3516" fill="#0099FF" rx="11" ry="11" style="stroke:#181818;stroke-width:1.0;"/><path d="M925.8438,64.5078 L925.8438,66.6484 L926.4531,66.6484 Q927.0781,66.6484 927.3281,66.8828 Q927.5938,67.1172 927.5938,67.5078 Q927.5938,67.8828 927.3281,68.1172 Q927.0781,68.3516 926.4531,68.3516 L923.875,68.3516 Q923.2656,68.3516 923,68.1172 Q922.7344,67.8828 922.7344,67.4922 Q922.7344,67.1172 923,66.8828 Q923.2656,66.6484 923.875,66.6484 L924.1406,66.6484 L924.1406,59.9922 L923.875,59.9922 Q923.2656,59.9922 923,59.7578 Q922.7344,59.5234 922.7344,59.1328 Q922.7344,58.7578 923,58.5234 Q923.2656,58.2891 923.875,58.2891 L927.7344,58.2891 Q929.5313,58.2891 930.5156,59.1797 Q931.5156,60.0703 931.5156,61.3516 Q931.5156,62.1484 931.0469,62.8047 Q930.5781,63.4609 929.6406,63.9609 Q930.1875,64.4297 930.7969,65.1797 Q931.1875,65.6484 931.8281,66.6484 Q932.4844,66.6484 932.6875,66.7891 Q933.0625,67.0391 933.0625,67.5078 Q933.0625,67.8828 932.7969,68.1172 Q932.5469,68.3516 931.9375,68.3516 L930.9531,68.3516 Q928.8906,65.1484 927.5313,64.5078 L925.8438,64.5078 Z M925.8438,62.8047 L927.1719,62.8047 Q927.9063,62.8047 928.5,62.5859 Q929.2813,62.2891 929.5469,61.9609 Q929.8125,61.6172 929.8125,61.2891 Q929.8125,60.8203 929.2969,60.4141 Q928.7813,59.9922 927.7969,59.9922 L925.8438,59.9922 L925.8438,62.8047 Z " fill="#000000"/><text fill="#000000" font-family="sans-serif" font-size="12" font-style="italic" lengthAdjust="spacing" textLength="73" x="958.5" y="59.457">&#171;Root Entity&#187;</text><text fill="#000000" font-family="sans-serif" font-size="14" lengthAdjust="spacing" textLength="108" x="941" y="76.627">MedicalCondition</text><line style="stroke:#181818;stroke-width:0.5;" x1="913" x2="1051" y1="84.7031" y2="84.7031"/><line style="stroke:#181818;stroke-width:0.5;" x1="913" x2="1051" y1="92.7031" y2="92.7031"/></g><!--class ConditionCode--><g id="elem_ConditionCode"><rect codeLine="34" fill="#F1F1F1" height="58.7031" id="ConditionCode" rx="2.5" ry="2.5" style="stroke:#181818;stroke-width:0.5;" width="126" x="737" y="161"/><ellipse cx="752" cy="182.3516" fill="#F04800" rx="11" ry="11" style="stroke:#181818;stroke-width:1.0;"/><path d="M752.5938,185.6172 L755.0625,179.7422 L754.6719,179.7422 Q754.0625,179.7422 753.7969,179.5078 Q753.5313,179.2734 753.5313,178.8828 Q753.5313,178.5078 753.7969,178.2734 Q754.0625,178.0391 754.6719,178.0391 L756.9531,178.0391 Q757.5625,178.0391 757.8281,178.2734 Q758.0938,178.5078 758.0938,178.8828 Q758.0938,179.3516 757.6875,179.6172 Q757.5,179.7422 756.9063,179.7422 L753.4219,188.1016 L751.7813,188.1016 L748.2969,179.7422 Q747.7031,179.7422 747.5156,179.6172 Q747.1094,179.3516 747.1094,178.8828 Q747.1094,178.5078 747.375,178.2734 Q747.6406,178.0391 748.25,178.0391 L750.5469,178.0391 Q751.1563,178.0391 751.4063,178.2734 Q751.6719,178.5078 751.6719,178.8828 Q751.6719,179.2734 751.4063,179.5078 Q751.1563,179.7422 750.5469,179.7422 L750.1406,179.7422 L752.5938,185.6172 Z " fill="#000000"/><text fill="#000000" font-family="sans-serif" font-size="12" font-style="italic" lengthAdjust="spacing" textLength="85" x="770.5" y="178.457">&#171;Value Object&#187;</text><text fill="#000000" font-family="sans-serif" font-size="14" lengthAdjust="spacing" textLength="94" x="766" y="195.627">ConditionCode</text><line style="stroke:#181818;stroke-width:0.5;" x1="738" x2="862" y1="203.7031" y2="203.7031"/><line style="stroke:#181818;stroke-width:0.5;" x1="738" x2="862" y1="211.7031" y2="211.7031"/></g><!--class ConditionDesignation--><g id="elem_ConditionDesignation"><rect codeLine="35" fill="#F1F1F1" height="58.7031" id="ConditionDesignation" rx="2.5" ry="2.5" style="stroke:#181818;stroke-width:0.5;" width="167" x="898.5" y="161"/><ellipse cx="913.5" cy="182.3516" fill="#F04800" rx="11" ry="11" style="stroke:#181818;stroke-width:1.0;"/><path d="M914.0938,185.6172 L916.5625,179.7422 L916.1719,179.7422 Q915.5625,179.7422 915.2969,179.5078 Q915.0313,179.2734 915.0313,178.8828 Q915.0313,178.5078 915.2969,178.2734 Q915.5625,178.0391 916.1719,178.0391 L918.4531,178.0391 Q919.0625,178.0391 919.3281,178.2734 Q919.5938,178.5078 919.5938,178.8828 Q919.5938,179.3516 919.1875,179.6172 Q919,179.7422 918.4063,179.7422 L914.9219,188.1016 L913.2813,188.1016 L909.7969,179.7422 Q909.2031,179.7422 909.0156,179.6172 Q908.6094,179.3516 908.6094,178.8828 Q908.6094,178.5078 908.875,178.2734 Q909.1406,178.0391 909.75,178.0391 L912.0469,178.0391 Q912.6563,178.0391 912.9063,178.2734 Q913.1719,178.5078 913.1719,178.8828 Q913.1719,179.2734 912.9063,179.5078 Q912.6563,179.7422 912.0469,179.7422 L911.6406,179.7422 L914.0938,185.6172 Z " fill="#000000"/><text fill="#000000" font-family="sans-serif" font-size="12" font-style="italic" lengthAdjust="spacing" textLength="85" x="952.5" y="178.457">&#171;Value Object&#187;</text><text fill="#000000" font-family="sans-serif" font-size="14" lengthAdjust="spacing" textLength="135" x="927.5" y="195.627">ConditionDesignation</text><line style="stroke:#181818;stroke-width:0.5;" x1="899.5" x2="1064.5" y1="203.7031" y2="203.7031"/><line style="stroke:#181818;stroke-width:0.5;" x1="899.5" x2="1064.5" y1="211.7031" y2="211.7031"/></g><!--class ConditionDescription--><g id="elem_ConditionDescription"><rect codeLine="36" fill="#F1F1F1" height="58.7031" id="ConditionDescription" rx="2.5" ry="2.5" style="stroke:#181818;stroke-width:0.5;" width="163" x="1100.5" y="161"/><ellipse cx="1115.5" cy="182.3516" fill="#F04800" rx="11" ry="11" style="stroke:#181818;stroke-width:1.0;"/><path d="M1116.0938,185.6172 L1118.5625,179.7422 L1118.1719,179.7422 Q1117.5625,179.7422 1117.2969,179.5078 Q1117.0313,179.2734 1117.0313,178.8828 Q1117.0313,178.5078 1117.2969,178.2734 Q1117.5625,178.0391 1118.1719,178.0391 L1120.4531,178.0391 Q1121.0625,178.0391 1121.3281,178.2734 Q1121.5938,178.5078 1121.5938,178.8828 Q1121.5938,179.3516 1121.1875,179.6172 Q1121,179.7422 1120.4063,179.7422 L1116.9219,188.1016 L1115.2813,188.1016 L1111.7969,179.7422 Q1111.2031,179.7422 1111.0156,179.6172 Q1110.6094,179.3516 1110.6094,178.8828 Q1110.6094,178.5078 1110.875,178.2734 Q1111.1406,178.0391 1111.75,178.0391 L1114.0469,178.0391 Q1114.6563,178.0391 1114.9063,178.2734 Q1115.1719,178.5078 1115.1719,178.8828 Q1115.1719,179.2734 1114.9063,179.5078 Q1114.6563,179.7422 1114.0469,179.7422 L1113.6406,179.7422 L1116.0938,185.6172 Z " fill="#000000"/><text fill="#000000" font-family="sans-serif" font-size="12" font-style="italic" lengthAdjust="spacing" textLength="85" x="1152.5" y="178.457">&#171;Value Object&#187;</text><text fill="#000000" font-family="sans-serif" font-size="14" lengthAdjust="spacing" textLength="131" x="1129.5" y="195.627">ConditionDescription</text><line style="stroke:#181818;stroke-width:0.5;" x1="1101.5" x2="1262.5" y1="203.7031" y2="203.7031"/><line style="stroke:#181818;stroke-width:0.5;" x1="1101.5" x2="1262.5" y1="211.7031" y2="211.7031"/></g><!--class ConditionSymptoms--><g id="elem_ConditionSymptoms"><rect codeLine="37" fill="#F1F1F1" height="58.7031" id="ConditionSymptoms" rx="2.5" ry="2.5" style="stroke:#181818;stroke-width:0.5;" width="157" x="1298.5" y="161"/><ellipse cx="1313.5" cy="182.3516" fill="#F04800" rx="11" ry="11" style="stroke:#181818;stroke-width:1.0;"/><path d="M1314.0938,185.6172 L1316.5625,179.7422 L1316.1719,179.7422 Q1315.5625,179.7422 1315.2969,179.5078 Q1315.0313,179.2734 1315.0313,178.8828 Q1315.0313,178.5078 1315.2969,178.2734 Q1315.5625,178.0391 1316.1719,178.0391 L1318.4531,178.0391 Q1319.0625,178.0391 1319.3281,178.2734 Q1319.5938,178.5078 1319.5938,178.8828 Q1319.5938,179.3516 1319.1875,179.6172 Q1319,179.7422 1318.4063,179.7422 L1314.9219,188.1016 L1313.2813,188.1016 L1309.7969,179.7422 Q1309.2031,179.7422 1309.0156,179.6172 Q1308.6094,179.3516 1308.6094,178.8828 Q1308.6094,178.5078 1308.875,178.2734 Q1309.1406,178.0391 1309.75,178.0391 L1312.0469,178.0391 Q1312.6563,178.0391 1312.9063,178.2734 Q1313.1719,178.5078 1313.1719,178.8828 Q1313.1719,179.2734 1312.9063,179.5078 Q1312.6563,179.7422 1312.0469,179.7422 L1311.6406,179.7422 L1314.0938,185.6172 Z " fill="#000000"/><text fill="#000000" font-family="sans-serif" font-size="12" font-style="italic" lengthAdjust="spacing" textLength="85" x="1347.5" y="178.457">&#171;Value Object&#187;</text><text fill="#000000" font-family="sans-serif" font-size="14" lengthAdjust="spacing" textLength="125" x="1327.5" y="195.627">ConditionSymptoms</text><line style="stroke:#181818;stroke-width:0.5;" x1="1299.5" x2="1454.5" y1="203.7031" y2="203.7031"/><line style="stroke:#181818;stroke-width:0.5;" x1="1299.5" x2="1454.5" y1="211.7031" y2="211.7031"/></g><!--reverse link ContactInformation to EmailAddress--><g id="link_ContactInformation_EmailAddress"><path codeLine="18" d="M134.5042,350.6357 C124.9842,383.8557 112.68,426.79 103.17,459.97 " fill="none" id="ContactInformation-backto-EmailAddress" style="stroke:#181818;stroke-width:1.0;"/><polygon fill="#181818" points="137.81,339.1,132.3119,343.7659,134.5042,350.6357,140.0023,345.9698,137.81,339.1" style="stroke:#181818;stroke-width:1.0;"/><text fill="#000000" font-family="sans-serif" font-size="13" lengthAdjust="spacing" textLength="7" x="128.3989" y="360.417">1</text><text fill="#000000" font-family="sans-serif" font-size="13" lengthAdjust="spacing" textLength="7" x="97.1916" y="449.3264">1</text></g><!--reverse link ContactInformation to PhoneNumber--><g id="link_ContactInformation_PhoneNumber"><path codeLine="19" d="M168.7638,349.461 C188.1738,382.681 213.94,426.79 233.33,459.97 " fill="none" id="ContactInformation-backto-PhoneNumber" style="stroke:#181818;stroke-width:1.0;"/><polygon fill="#181818" points="162.71,339.1,162.2832,346.2985,168.7638,349.461,169.1906,342.2626,162.71,339.1" style="stroke:#181818;stroke-width:1.0;"/><text fill="#000000" font-family="sans-serif" font-size="13" lengthAdjust="spacing" textLength="7" x="158.4346" y="360.417">1</text><text fill="#000000" font-family="sans-serif" font-size="13" lengthAdjust="spacing" textLength="7" x="221.9178" y="449.3264">1</text></g><!--reverse link Patient to FirstName--><g id="link_Patient_FirstName"><path codeLine="21" d="M403.7287,228.0785 C383.2687,246.2085 365.89,261.62 345.41,279.77 " fill="none" id="Patient-backto-FirstName" style="stroke:#181818;stroke-width:1.0;"/><polygon fill="#181818" points="412.71,220.12,405.5666,221.1055,403.7287,228.0785,410.8722,227.093,412.71,220.12" style="stroke:#181818;stroke-width:1.0;"/><text fill="#000000" font-family="sans-serif" font-size="13" lengthAdjust="spacing" textLength="7" x="398.6638" y="241.0854">1</text><text fill="#000000" font-family="sans-serif" font-size="13" lengthAdjust="spacing" textLength="7" x="344.7341" y="269.0826">1</text></g><!--reverse link Patient to LastName--><g id="link_Patient_LastName"><path codeLine="22" d="M450.5363,232.0093 C453.0163,250.1393 454.59,261.62 457.07,279.77 " fill="none" id="Patient-backto-LastName" style="stroke:#181818;stroke-width:1.0;"/><polygon fill="#181818" points="448.91,220.12,445.7601,226.6068,450.5363,232.0093,453.6863,225.5225,448.91,220.12" style="stroke:#181818;stroke-width:1.0;"/><text fill="#000000" font-family="sans-serif" font-size="13" lengthAdjust="spacing" textLength="7" x="441.9907" y="241.0854">1</text><text fill="#000000" font-family="sans-serif" font-size="13" lengthAdjust="spacing" textLength="7" x="448.4447" y="269.0826">1</text></g><!--reverse link Patient to FullName--><g id="link_Patient_FullName"><path codeLine="23" d="M494.8887,227.0894 C520.3987,245.2894 543.53,261.79 569.01,279.97 " fill="none" id="Patient-backto-FullName" style="stroke:#181818;stroke-width:1.0;"/><polygon fill="#181818" points="485.12,220.12,487.6812,226.8609,494.8887,227.0894,492.3275,220.3485,485.12,220.12" style="stroke:#181818;stroke-width:1.0;"/><text fill="#000000" font-family="sans-serif" font-size="13" lengthAdjust="spacing" textLength="7" x="485.3296" y="241.0854">1</text><text fill="#000000" font-family="sans-serif" font-size="13" lengthAdjust="spacing" textLength="7" x="552.4966" y="269.3264">1</text></g><!--reverse link Patient to ContactInformation--><g id="link_Patient_ContactInformation"><path codeLine="24" d="M383.105,215.7225 C334.955,234.5625 273.23,258.71 218.87,279.99 " fill="none" id="Patient-backto-ContactInformation" style="stroke:#181818;stroke-width:1.0;"/><polygon fill="#181818" points="394.28,211.35,387.235,209.8113,383.105,215.7225,390.15,217.2613,394.28,211.35" style="stroke:#181818;stroke-width:1.0;"/><text fill="#000000" font-family="sans-serif" font-size="13" lengthAdjust="spacing" textLength="7" x="379.6553" y="210.6977">1</text><text fill="#000000" font-family="sans-serif" font-size="13" lengthAdjust="spacing" textLength="7" x="227.0447" y="269.3507">1</text></g><!--link Gender to Patient--><g id="link_Gender_Patient"><path codeLine="25" d="M580.21,101.12 C552.37,119.32 526.5042,136.2239 498.6942,154.4039 " fill="none" id="Gender-to-Patient" style="stroke:#181818;stroke-width:1.0;"/><polygon fill="#181818" points="488.65,160.97,495.8608,161.035,498.6942,154.4039,491.4834,154.3389,488.65,160.97" style="stroke:#181818;stroke-width:1.0;"/><text fill="#000000" font-family="sans-serif" font-size="13" lengthAdjust="spacing" textLength="7" x="563.8998" y="122.0854">1</text><text fill="#000000" font-family="sans-serif" font-size="13" lengthAdjust="spacing" textLength="7" x="490.4328" y="150.3264">1</text></g><!--link MedicalRecordNumber to Patient--><g id="link_MedicalRecordNumber_Patient"><path codeLine="26" d="M445,101.12 C445,119.25 445,130.62 445,148.77 " fill="none" id="MedicalRecordNumber-to-Patient" style="stroke:#181818;stroke-width:1.0;"/><polygon fill="#181818" points="445,160.77,449,154.77,445,148.77,441,154.77,445,160.77" style="stroke:#181818;stroke-width:1.0;"/><text fill="#000000" font-family="sans-serif" font-size="13" lengthAdjust="spacing" textLength="7" x="437.3109" y="122.0854">1</text><text fill="#000000" font-family="sans-serif" font-size="13" lengthAdjust="spacing" textLength="7" x="437.2344" y="150.0826">1</text></g><!--link DateOfBirth to Patient--><g id="link_DateOfBirth_Patient"><path codeLine="27" d="M309.79,101.12 C337.63,119.32 363.4958,136.2239 391.3058,154.4039 " fill="none" id="DateOfBirth-to-Patient" style="stroke:#181818;stroke-width:1.0;"/><polygon fill="#181818" points="401.35,160.97,398.5166,154.3389,391.3058,154.4039,394.1392,161.035,401.35,160.97" style="stroke:#181818;stroke-width:1.0;"/><text fill="#000000" font-family="sans-serif" font-size="13" lengthAdjust="spacing" textLength="7" x="310.7221" y="122.0854">1</text><text fill="#000000" font-family="sans-serif" font-size="13" lengthAdjust="spacing" textLength="7" x="384.0359" y="150.3264">1</text></g><!--link EmergencyContact to Patient--><g id="link_EmergencyContact_Patient"><path codeLine="28" d="M174.15,98.18 C241.08,120.74 325.229,149.1158 383.119,168.6358 " fill="none" id="EmergencyContact-to-Patient" style="stroke:#181818;stroke-width:1.0;"/><polygon fill="#181818" points="394.49,172.47,390.0826,166.7626,383.119,168.6358,387.5265,174.3432,394.49,172.47" style="stroke:#181818;stroke-width:1.0;"/><text fill="#000000" font-family="sans-serif" font-size="13" lengthAdjust="spacing" textLength="7" x="181.9905" y="97.5458">1</text><text fill="#000000" font-family="sans-serif" font-size="13" lengthAdjust="spacing" textLength="7" x="379.5573" y="166.1896">1</text></g><!--reverse link MedicalCondition to ConditionCode--><g id="link_MedicalCondition_ConditionCode"><path codeLine="39" d="M927.386,107.6093 C899.076,125.8093 872.66,142.79 844.38,160.97 " fill="none" id="MedicalCondition-backto-ConditionCode" style="stroke:#181818;stroke-width:1.0;"/><polygon fill="#181818" points="937.48,101.12,930.2699,101,927.386,107.6093,934.5961,107.7293,937.48,101.12" style="stroke:#181818;stroke-width:1.0;"/><text fill="#000000" font-family="sans-serif" font-size="13" lengthAdjust="spacing" textLength="7" x="921.0261" y="122.0854">1</text><text fill="#000000" font-family="sans-serif" font-size="13" lengthAdjust="spacing" textLength="7" x="846.3225" y="150.3264">1</text></g><!--reverse link MedicalCondition to ConditionDescription--><g id="link_MedicalCondition_ConditionDescription"><path codeLine="40" d="M1041.2869,107.1809 C1072.3869,125.3809 1102.16,142.79 1133.23,160.97 " fill="none" id="MedicalCondition-backto-ConditionDescription" style="stroke:#181818;stroke-width:1.0;"/><polygon fill="#181818" points="1030.93,101.12,1034.0881,107.6028,1041.2869,107.1809,1038.1288,100.6982,1030.93,101.12" style="stroke:#181818;stroke-width:1.0;"/><text fill="#000000" font-family="sans-serif" font-size="13" lengthAdjust="spacing" textLength="7" x="1032.874" y="122.0854">1</text><text fill="#000000" font-family="sans-serif" font-size="13" lengthAdjust="spacing" textLength="7" x="1114.7959" y="150.3264">1</text></g><!--reverse link MedicalCondition to ConditionDesignation--><g id="link_MedicalCondition_ConditionDesignation"><path codeLine="41" d="M982,113.12 C982,131.25 982,142.62 982,160.77 " fill="none" id="MedicalCondition-backto-ConditionDesignation" style="stroke:#181818;stroke-width:1.0;"/><polygon fill="#181818" points="982,101.12,978,107.12,982,113.12,986,107.12,982,101.12" style="stroke:#181818;stroke-width:1.0;"/><text fill="#000000" font-family="sans-serif" font-size="13" lengthAdjust="spacing" textLength="7" x="974.3109" y="122.0854">1</text><text fill="#000000" font-family="sans-serif" font-size="13" lengthAdjust="spacing" textLength="7" x="974.2344" y="150.0826">1</text></g><!--reverse link MedicalCondition to ConditionSymptoms--><g id="link_MedicalCondition_ConditionSymptoms"><path codeLine="42" d="M1063.5874,96.6329 C1124.1874,114.5529 1202.63,137.77 1281,161 C1286.67,162.68 1292.52,164.42 1298.42,166.16 " fill="none" id="MedicalCondition-backto-ConditionSymptoms" style="stroke:#181818;stroke-width:1.0;"/><polygon fill="#181818" points="1052.08,93.23,1056.6994,98.7672,1063.5874,96.6329,1058.968,91.0956,1052.08,93.23" style="stroke:#181818;stroke-width:1.0;"/><text fill="#000000" font-family="sans-serif" font-size="13" lengthAdjust="spacing" textLength="7" x="1060.1278" y="92.2623">1</text><text fill="#000000" font-family="sans-serif" font-size="13" lengthAdjust="spacing" textLength="7" x="1283.5968" y="160.6036">1</text></g><!--link MedicalCondition to Patient--><g id="link_MedicalCondition_Patient"><path codeLine="46" d="M911.8,87.8 C801.92,111.74 603.655,154.9357 507.305,175.9257 " fill="none" id="MedicalCondition-to-Patient" style="stroke:#181818;stroke-width:1.0;"/><polygon fill="#181818" points="495.58,178.48,502.2939,181.1112,507.305,175.9257,500.5911,173.2945,495.58,178.48" style="stroke:#181818;stroke-width:1.0;"/><text fill="#000000" font-family="sans-serif" font-size="13" lengthAdjust="spacing" textLength="5" x="898.8484" y="86.2384">*</text><text fill="#000000" font-family="sans-serif" font-size="13" lengthAdjust="spacing" textLength="7" x="503.523" y="173.0823">1</text></g><!--SRC=[dPDHRu8m58MVvLSq-ZAD92pPmqmCYLDPJ3ObclbUwGMxGUjAUJ1c_tq5WQ70LlS4v9wFddjowcBl0mU0N2mfC3a90W41be1EHcVE99N7OeJ6uxlri6TPev7ZzD6QSudE2ji-VHb6PnhYE4RFm0Y8LBmTzdphuT6o-cYBmmJGQlSEdhHjfEIv-XK8zN2u1eyBiaoYNGKTPUWRev-ANH1bWVeKn0K_KrPN_XCLSgzxv3m24G3pZbFE9FQaFeTfE254WFhGPDmzPt2rLXjIvftxMZ2VYqXbpvbYYwHH9Mg7YbWkSGIwTbxmRNed2KCjlGBgfhltNJGmJJDxgQRtjxgIc_htpvxfp4mEvk2iEXVJw9HxjSpBFLhcBNOQb7cxi-drhAdBZS9gQHi5jOesgLJgRdvvyvELcj3KVTCjljRyTfsh9Ik1AIVQnIcX6SGqO4M9RsOzGG__OZV7w21v56iqjnPCtiJiUR6zhhPY_0Qao4aNALOqqYRKaK6zCTy0]--></g></svg>