<?xml version="1.0" encoding="us-ascii" standalone="no"?><svg xmlns="http://www.w3.org/2000/svg" xmlns:xlink="http://www.w3.org/1999/xlink" contentStyleType="text/css" height="411px" preserveAspectRatio="none" style="width:1066px;height:411px;background:#FFFFFF;" version="1.1" viewBox="0 0 1066 411" width="1066px" zoomAndPan="magnify"><defs/><g><rect fill="#FFFFFF" height="30.3516" style="stroke:#181818;stroke-width:1.0;" width="10" x="162" y="69.9609"/><rect fill="#FFFFFF" height="30.3516" style="stroke:#181818;stroke-width:1.0;" width="10" x="162" y="327.0313"/><rect fill="#FFFFFF" height="30.3516" style="stroke:#181818;stroke-width:1.0;" width="10" x="351" y="100.3125"/><rect fill="#FFFFFF" height="30.3516" style="stroke:#181818;stroke-width:1.0;" width="10" x="351" y="296.6797"/><rect fill="#FFFFFF" height="30.3516" style="stroke:#181818;stroke-width:1.0;" width="10" x="540" y="130.6641"/><rect fill="#FFFFFF" height="105.3125" style="stroke:#181818;stroke-width:1.0;" width="10" x="540" y="191.3672"/><rect fill="#FFFFFF" height="30.3516" style="stroke:#181818;stroke-width:1.0;" width="10" x="960" y="161.0156"/><rect fill="none" height="60.9609" style="stroke:#000000;stroke-width:1.5;" width="419.5" x="450.5" y="206.3672"/><line style="stroke:#181818;stroke-width:0.5;stroke-dasharray:5.0,5.0;" x1="166.5" x2="166.5" y1="37.6094" y2="375.3828"/><line style="stroke:#181818;stroke-width:0.5;stroke-dasharray:5.0,5.0;" x1="356" x2="356" y1="37.6094" y2="375.3828"/><line style="stroke:#181818;stroke-width:0.5;stroke-dasharray:5.0,5.0;" x1="544.5" x2="544.5" y1="37.6094" y2="375.3828"/><line style="stroke:#181818;stroke-width:0.5;stroke-dasharray:5.0,5.0;" x1="788" x2="788" y1="256.0234" y2="375.3828"/><line style="stroke:#181818;stroke-width:0.5;stroke-dasharray:5.0,5.0;" x1="965" x2="965" y1="37.6094" y2="375.3828"/><rect fill="#E2E2F0" height="31.6094" rx="2.5" ry="2.5" style="stroke:#181818;stroke-width:0.5;" width="63" x="135.5" y="5"/><text fill="#000000" font-family="sans-serif" font-size="14" lengthAdjust="spacing" textLength="49" x="142.5" y="26.5332">Routing</text><rect fill="#E2E2F0" height="31.6094" rx="2.5" ry="2.5" style="stroke:#181818;stroke-width:0.5;" width="63" x="135.5" y="374.3828"/><text fill="#000000" font-family="sans-serif" font-size="14" lengthAdjust="spacing" textLength="49" x="142.5" y="395.916">Routing</text><rect fill="#E2E2F0" height="31.6094" rx="2.5" ry="2.5" style="stroke:#181818;stroke-width:0.5;" width="184" x="264" y="5"/><text fill="#000000" font-family="sans-serif" font-size="14" lengthAdjust="spacing" textLength="170" x="271" y="26.5332">MedicalConditionController</text><rect fill="#E2E2F0" height="31.6094" rx="2.5" ry="2.5" style="stroke:#181818;stroke-width:0.5;" width="184" x="264" y="374.3828"/><text fill="#000000" font-family="sans-serif" font-size="14" lengthAdjust="spacing" textLength="170" x="271" y="395.916">MedicalConditionController</text><rect fill="#E2E2F0" height="31.6094" rx="2.5" ry="2.5" style="stroke:#181818;stroke-width:0.5;" width="169" x="460.5" y="5"/><text fill="#000000" font-family="sans-serif" font-size="14" lengthAdjust="spacing" textLength="155" x="467.5" y="26.5332">MedicalConditionService</text><rect fill="#E2E2F0" height="31.6094" rx="2.5" ry="2.5" style="stroke:#181818;stroke-width:0.5;" width="169" x="460.5" y="374.3828"/><text fill="#000000" font-family="sans-serif" font-size="14" lengthAdjust="spacing" textLength="155" x="467.5" y="395.916">MedicalConditionService</text><rect fill="#E2E2F0" height="31.6094" rx="2.5" ry="2.5" style="stroke:#181818;stroke-width:0.5;" width="144" x="716" y="374.3828"/><text fill="#000000" font-family="sans-serif" font-size="14" lengthAdjust="spacing" textLength="130" x="723" y="395.916">MedicalConditionDto</text><rect fill="#E2E2F0" height="31.6094" rx="2.5" ry="2.5" style="stroke:#181818;stroke-width:0.5;" width="190" x="870" y="5"/><text fill="#000000" font-family="sans-serif" font-size="14" lengthAdjust="spacing" textLength="176" x="877" y="26.5332">MedicalConditionRepository</text><rect fill="#E2E2F0" height="31.6094" rx="2.5" ry="2.5" style="stroke:#181818;stroke-width:0.5;" width="190" x="870" y="374.3828"/><text fill="#000000" font-family="sans-serif" font-size="14" lengthAdjust="spacing" textLength="176" x="877" y="395.916">MedicalConditionRepository</text><rect fill="#FFFFFF" height="30.3516" style="stroke:#181818;stroke-width:1.0;" width="10" x="162" y="69.9609"/><rect fill="#FFFFFF" height="30.3516" style="stroke:#181818;stroke-width:1.0;" width="10" x="162" y="327.0313"/><rect fill="#FFFFFF" height="30.3516" style="stroke:#181818;stroke-width:1.0;" width="10" x="351" y="100.3125"/><rect fill="#FFFFFF" height="30.3516" style="stroke:#181818;stroke-width:1.0;" width="10" x="351" y="296.6797"/><rect fill="#FFFFFF" height="30.3516" style="stroke:#181818;stroke-width:1.0;" width="10" x="540" y="130.6641"/><rect fill="#FFFFFF" height="105.3125" style="stroke:#181818;stroke-width:1.0;" width="10" x="540" y="191.3672"/><rect fill="#FFFFFF" height="30.3516" style="stroke:#181818;stroke-width:1.0;" width="10" x="960" y="161.0156"/><polygon fill="#181818" points="150,65.9609,160,69.9609,150,73.9609,154,69.9609" style="stroke:#181818;stroke-width:1.0;"/><line style="stroke:#181818;stroke-width:1.0;" x1="0" x2="156" y1="69.9609" y2="69.9609"/><text fill="#000000" font-family="sans-serif" font-size="13" lengthAdjust="spacing" textLength="93" x="7" y="65.1045">GET(queryData)</text><polygon fill="#181818" points="339,96.3125,349,100.3125,339,104.3125,343,100.3125" style="stroke:#181818;stroke-width:1.0;"/><line style="stroke:#181818;stroke-width:1.0;" x1="167" x2="345" y1="100.3125" y2="100.3125"/><text fill="#000000" font-family="sans-serif" font-size="13" lengthAdjust="spacing" textLength="160" x="174" y="95.4561">searchCondition(queryData)</text><polygon fill="#181818" points="528,126.6641,538,130.6641,528,134.6641,532,130.6641" style="stroke:#181818;stroke-width:1.0;"/><line style="stroke:#181818;stroke-width:1.0;" x1="356" x2="534" y1="130.6641" y2="130.6641"/><text fill="#000000" font-family="sans-serif" font-size="13" lengthAdjust="spacing" textLength="160" x="363" y="125.8076">searchCondition(queryData)</text><polygon fill="#181818" points="948,157.0156,958,161.0156,948,165.0156,952,161.0156" style="stroke:#181818;stroke-width:1.0;"/><line style="stroke:#181818;stroke-width:1.0;" x1="545" x2="954" y1="161.0156" y2="161.0156"/><text fill="#000000" font-family="sans-serif" font-size="13" lengthAdjust="spacing" textLength="87" x="552" y="156.1592">find(queryData)</text><polygon fill="#181818" points="561,187.3672,551,191.3672,561,195.3672,557,191.3672" style="stroke:#181818;stroke-width:1.0;"/><line style="stroke:#181818;stroke-width:1.0;stroke-dasharray:2.0,2.0;" x1="555" x2="964" y1="191.3672" y2="191.3672"/><text fill="#000000" font-family="sans-serif" font-size="13" lengthAdjust="spacing" textLength="106" x="567" y="186.5107">medicalConditions</text><path d="M450.5,206.3672 L523.5,206.3672 L523.5,214.7188 L513.5,224.7188 L450.5,224.7188 L450.5,206.3672 " fill="#EEEEEE" style="stroke:#000000;stroke-width:1.5;"/><rect fill="none" height="60.9609" style="stroke:#000000;stroke-width:1.5;" width="419.5" x="450.5" y="206.3672"/><text fill="#000000" font-family="sans-serif" font-size="13" font-weight="bold" lengthAdjust="spacing" textLength="28" x="465.5" y="220.8623">loop</text><text fill="#000000" font-family="sans-serif" font-size="11" font-weight="bold" lengthAdjust="spacing" textLength="278" x="538.5" y="219.7861">[for each medicalCondition that meets the criteria]</text><polygon fill="#181818" points="704,243.0703,714,247.0703,704,251.0703,708,247.0703" style="stroke:#181818;stroke-width:1.0;"/><line style="stroke:#181818;stroke-width:1.0;" x1="550" x2="710" y1="247.0703" y2="247.0703"/><text fill="#000000" font-family="sans-serif" font-size="13" lengthAdjust="spacing" textLength="142" x="557" y="242.2139">medicalCondition.toDto()</text><rect fill="#E2E2F0" height="31.6094" rx="2.5" ry="2.5" style="stroke:#181818;stroke-width:0.5;" width="144" x="716" y="224.7188"/><text fill="#000000" font-family="sans-serif" font-size="14" lengthAdjust="spacing" textLength="130" x="723" y="246.252">MedicalConditionDto</text><polygon fill="#181818" points="372,292.6797,362,296.6797,372,300.6797,368,296.6797" style="stroke:#181818;stroke-width:1.0;"/><line style="stroke:#181818;stroke-width:1.0;stroke-dasharray:2.0,2.0;" x1="366" x2="544" y1="296.6797" y2="296.6797"/><text fill="#000000" font-family="sans-serif" font-size="13" lengthAdjust="spacing" textLength="126" x="378" y="291.8232">medicalConditionsDto</text><polygon fill="#181818" points="183,323.0313,173,327.0313,183,331.0313,179,327.0313" style="stroke:#181818;stroke-width:1.0;"/><line style="stroke:#181818;stroke-width:1.0;stroke-dasharray:2.0,2.0;" x1="177" x2="355" y1="327.0313" y2="327.0313"/><text fill="#000000" font-family="sans-serif" font-size="13" lengthAdjust="spacing" textLength="143" x="189" y="322.1748">operationResultMessage</text><polygon fill="#181818" points="11,353.3828,1,357.3828,11,361.3828,7,357.3828" style="stroke:#181818;stroke-width:1.0;"/><line style="stroke:#181818;stroke-width:1.0;stroke-dasharray:2.0,2.0;" x1="5" x2="166" y1="357.3828" y2="357.3828"/><text fill="#000000" font-family="sans-serif" font-size="13" lengthAdjust="spacing" textLength="143" x="17" y="352.5264">operationResultMessage</text><!--SRC=[bPBFJiCm3CRlVOeSjqdb0H3YmX2dNGOlO2NU6gd4mN4hxUrnClKFAwkWfpJwlf_zsOd0ugsF4CGSgHCVpbMStHtGUGlj2mNdnLFGWp2rBRA1PAnmkof_H-wznQnDlLsLxeMop0cjoeuOANaXlcGrwrzLrSz3x-RHlBr-RBuwvCiU1BOLMF4z28xfZ7w3MeqvWheI0jjch38dE5mm9cgPG4OMZl8qvfznnJonyeGoAYEKbBCfwkI3k-FFXibUPf7znLYFlNpUJ33D4TS1BbfeYQ8v4HjLDWk2aGP4Rr6I7ZK7Uq7sCEy-BtAt-wNyWv2kUhCjOWokr9gSqqeMVQljVlgRHVnu4XIHuVfuKjVA0LE2CwviOlvMdkgw_XThC7y3]--></g></svg>