<?xml version="1.0" encoding="us-ascii" standalone="no"?><svg xmlns="http://www.w3.org/2000/svg" xmlns:xlink="http://www.w3.org/1999/xlink" contentStyleType="text/css" height="490px" preserveAspectRatio="none" style="width:1167px;height:490px;background:#FFFFFF;" version="1.1" viewBox="0 0 1167 490" width="1167px" zoomAndPan="magnify"><defs/><g><text fill="#000000" font-family="sans-serif" font-size="14" font-weight="bold" lengthAdjust="spacing" textLength="240" x="462.5" y="27.9951">Sequence Diagram - US 7.2.15</text><rect fill="#FFFFFF" height="332.4609" style="stroke:#181818;stroke-width:1.0;" width="10" x="183" y="104.7266"/><rect fill="#FFFFFF" height="274.1953" style="stroke:#181818;stroke-width:1.0;" width="10" x="468" y="133.8594"/><rect fill="#FFFFFF" height="171.8281" style="stroke:#181818;stroke-width:1.0;" width="10" x="668" y="207.0938"/><rect fill="#FFFFFF" height="29.1328" style="stroke:#181818;stroke-width:1.0;" width="10" x="916" y="236.2266"/><rect fill="#FFFFFF" height="14" style="stroke:#181818;stroke-width:1.0;" width="10" x="916" y="294.4922"/><line style="stroke:#181818;stroke-width:0.5;stroke-dasharray:5.0,5.0;" x1="188" x2="188" y1="73.5938" y2="455.1875"/><line style="stroke:#181818;stroke-width:0.5;stroke-dasharray:5.0,5.0;" x1="472.5" x2="472.5" y1="73.5938" y2="455.1875"/><line style="stroke:#181818;stroke-width:0.5;stroke-dasharray:5.0,5.0;" x1="673" x2="673" y1="73.5938" y2="455.1875"/><line style="stroke:#181818;stroke-width:0.5;stroke-dasharray:5.0,5.0;" x1="921" x2="921" y1="73.5938" y2="455.1875"/><line style="stroke:#181818;stroke-width:0.5;stroke-dasharray:5.0,5.0;" x1="1091" x2="1091" y1="347.1406" y2="455.1875"/><rect fill="#E2E2F0" height="30.2969" rx="2.5" ry="2.5" style="stroke:#181818;stroke-width:0.5;" width="68" x="154" y="42.2969"/><text fill="#000000" font-family="sans-serif" font-size="14" lengthAdjust="spacing" textLength="54" x="161" y="62.292">Routing</text><rect fill="#E2E2F0" height="30.2969" rx="2.5" ry="2.5" style="stroke:#181818;stroke-width:0.5;" width="68" x="154" y="454.1875"/><text fill="#000000" font-family="sans-serif" font-size="14" lengthAdjust="spacing" textLength="54" x="161" y="474.1826">Routing</text><rect fill="#E2E2F0" height="30.2969" rx="2.5" ry="2.5" style="stroke:#181818;stroke-width:0.5;" width="175" x="385.5" y="42.2969"/><text fill="#000000" font-family="sans-serif" font-size="14" lengthAdjust="spacing" textLength="161" x="392.5" y="62.292">SpecializationController</text><rect fill="#E2E2F0" height="30.2969" rx="2.5" ry="2.5" style="stroke:#181818;stroke-width:0.5;" width="175" x="385.5" y="454.1875"/><text fill="#000000" font-family="sans-serif" font-size="14" lengthAdjust="spacing" textLength="161" x="392.5" y="474.1826">SpecializationController</text><rect fill="#E2E2F0" height="30.2969" rx="2.5" ry="2.5" style="stroke:#181818;stroke-width:0.5;" width="158" x="594" y="42.2969"/><text fill="#000000" font-family="sans-serif" font-size="14" lengthAdjust="spacing" textLength="144" x="601" y="62.292">SpecializationService</text><rect fill="#E2E2F0" height="30.2969" rx="2.5" ry="2.5" style="stroke:#181818;stroke-width:0.5;" width="158" x="594" y="454.1875"/><text fill="#000000" font-family="sans-serif" font-size="14" lengthAdjust="spacing" textLength="144" x="601" y="474.1826">SpecializationService</text><rect fill="#E2E2F0" height="30.2969" rx="2.5" ry="2.5" style="stroke:#181818;stroke-width:0.5;" width="182" x="830" y="42.2969"/><text fill="#000000" font-family="sans-serif" font-size="14" lengthAdjust="spacing" textLength="168" x="837" y="62.292">SpecializationRepository</text><rect fill="#E2E2F0" height="30.2969" rx="2.5" ry="2.5" style="stroke:#181818;stroke-width:0.5;" width="182" x="830" y="454.1875"/><text fill="#000000" font-family="sans-serif" font-size="14" lengthAdjust="spacing" textLength="168" x="837" y="474.1826">SpecializationRepository</text><rect fill="#E2E2F0" height="30.2969" rx="2.5" ry="2.5" style="stroke:#181818;stroke-width:0.5;" width="139" x="1022" y="454.1875"/><text fill="#000000" font-family="sans-serif" font-size="14" lengthAdjust="spacing" textLength="125" x="1029" y="474.1826">SpecializationDTO</text><rect fill="#FFFFFF" height="332.4609" style="stroke:#181818;stroke-width:1.0;" width="10" x="183" y="104.7266"/><rect fill="#FFFFFF" height="274.1953" style="stroke:#181818;stroke-width:1.0;" width="10" x="468" y="133.8594"/><rect fill="#FFFFFF" height="171.8281" style="stroke:#181818;stroke-width:1.0;" width="10" x="668" y="207.0938"/><rect fill="#FFFFFF" height="29.1328" style="stroke:#181818;stroke-width:1.0;" width="10" x="916" y="236.2266"/><rect fill="#FFFFFF" height="14" style="stroke:#181818;stroke-width:1.0;" width="10" x="916" y="294.4922"/><polygon fill="#181818" points="171,100.7266,181,104.7266,171,108.7266,175,104.7266" style="stroke:#181818;stroke-width:1.0;"/><line style="stroke:#181818;stroke-width:1.0;" x1="0" x2="177" y1="104.7266" y2="104.7266"/><text fill="#000000" font-family="sans-serif" font-size="13" lengthAdjust="spacing" textLength="164" x="7" y="99.6606">DELETE(code, authToken)</text><polygon fill="#181818" points="456,129.8594,466,133.8594,456,137.8594,460,133.8594" style="stroke:#181818;stroke-width:1.0;"/><line style="stroke:#181818;stroke-width:1.0;" x1="193" x2="462" y1="133.8594" y2="133.8594"/><text fill="#000000" font-family="sans-serif" font-size="13" lengthAdjust="spacing" textLength="256" x="200" y="128.7935">RemoveSpecialization(code, authToken)</text><rect fill="none" height="39.1016" style="stroke:#000000;stroke-width:1.5;" width="181" x="382.5" y="141.8594"/><path d="M382.5,141.8594 L448.5,141.8594 L448.5,148.8594 L438.5,158.8594 L382.5,158.8594 L382.5,141.8594 " fill="#EEEEEE" style="stroke:#000000;stroke-width:2.0;"/><text fill="#000000" font-family="sans-serif" font-size="13" font-weight="bold" lengthAdjust="spacing" textLength="21" x="395.5" y="155.9263">ref</text><text fill="#000000" font-family="sans-serif" font-size="12" lengthAdjust="spacing" textLength="155" x="395.5" y="173.998">Refer to generic auth SD</text><polygon fill="#181818" points="656,203.0938,666,207.0938,656,211.0938,660,207.0938" style="stroke:#181818;stroke-width:1.0;"/><line style="stroke:#181818;stroke-width:1.0;" x1="478" x2="662" y1="207.0938" y2="207.0938"/><text fill="#000000" font-family="sans-serif" font-size="13" lengthAdjust="spacing" textLength="171" x="485" y="202.0278">DeleteSpecialization(code)</text><polygon fill="#181818" points="904,232.2266,914,236.2266,904,240.2266,908,236.2266" style="stroke:#181818;stroke-width:1.0;"/><line style="stroke:#181818;stroke-width:1.0;" x1="678" x2="910" y1="236.2266" y2="236.2266"/><text fill="#000000" font-family="sans-serif" font-size="13" lengthAdjust="spacing" textLength="219" x="685" y="231.1606">GetByIdAsync(SpecializationCode)</text><polygon fill="#181818" points="689,261.3594,679,265.3594,689,269.3594,685,265.3594" style="stroke:#181818;stroke-width:1.0;"/><line style="stroke:#181818;stroke-width:1.0;stroke-dasharray:2.0,2.0;" x1="683" x2="920" y1="265.3594" y2="265.3594"/><text fill="#000000" font-family="sans-serif" font-size="13" lengthAdjust="spacing" textLength="88" x="695" y="260.2935">Specialization</text><polygon fill="#181818" points="904,290.4922,914,294.4922,904,298.4922,908,294.4922" style="stroke:#181818;stroke-width:1.0;"/><line style="stroke:#181818;stroke-width:1.0;" x1="678" x2="910" y1="294.4922" y2="294.4922"/><text fill="#000000" font-family="sans-serif" font-size="13" lengthAdjust="spacing" textLength="150" x="685" y="289.4263">Remove(Specialization)</text><polygon fill="#181818" points="689,304.4922,679,308.4922,689,312.4922,685,308.4922" style="stroke:#181818;stroke-width:1.0;"/><line style="stroke:#181818;stroke-width:1.0;stroke-dasharray:2.0,2.0;" x1="683" x2="920" y1="308.4922" y2="308.4922"/><polygon fill="#181818" points="1010,333.625,1020,337.625,1010,341.625,1014,337.625" style="stroke:#181818;stroke-width:1.0;"/><line style="stroke:#181818;stroke-width:1.0;" x1="678" x2="1016" y1="337.625" y2="337.625"/><text fill="#000000" font-family="sans-serif" font-size="13" lengthAdjust="spacing" textLength="51" x="685" y="332.5591">create()</text><rect fill="#E2E2F0" height="30.2969" rx="2.5" ry="2.5" style="stroke:#181818;stroke-width:0.5;" width="139" x="1022" y="316.4922"/><text fill="#000000" font-family="sans-serif" font-size="14" lengthAdjust="spacing" textLength="125" x="1029" y="336.4873">SpecializationDTO</text><polygon fill="#181818" points="489,374.9219,479,378.9219,489,382.9219,485,378.9219" style="stroke:#181818;stroke-width:1.0;"/><line style="stroke:#181818;stroke-width:1.0;stroke-dasharray:2.0,2.0;" x1="483" x2="672" y1="378.9219" y2="378.9219"/><text fill="#000000" font-family="sans-serif" font-size="13" lengthAdjust="spacing" textLength="113" x="495" y="373.856">specializationDTO</text><polygon fill="#181818" points="204,404.0547,194,408.0547,204,412.0547,200,408.0547" style="stroke:#181818;stroke-width:1.0;"/><line style="stroke:#181818;stroke-width:1.0;stroke-dasharray:2.0,2.0;" x1="198" x2="472" y1="408.0547" y2="408.0547"/><text fill="#000000" font-family="sans-serif" font-size="13" lengthAdjust="spacing" textLength="113" x="210" y="402.9888">specializationDTO</text><polygon fill="#181818" points="11,433.1875,1,437.1875,11,441.1875,7,437.1875" style="stroke:#181818;stroke-width:1.0;"/><line style="stroke:#181818;stroke-width:1.0;stroke-dasharray:2.0,2.0;" x1="5" x2="187" y1="437.1875" y2="437.1875"/><text fill="#000000" font-family="sans-serif" font-size="13" lengthAdjust="spacing" textLength="113" x="17" y="432.1216">specializationDTO</text><!--SRC=[ZLBHIiD047pVhzZ7jfY2WWWYWfeeWb18gk_7PHiFqxjusHRgrxjtKMA2ZRxbs9cTdPcmuPgmeFSTMKsO6bLvjSK4dmkyM9ujJyy16kNPQDCeovYx7HjReMhHys1IDAIDgis7OkFidRFiNLsJ3r3Dlfu05-JtHjG5sShd13AdnhM6dJ_42-Gr0KxNgu0gsG4art8lNcAQFMNhRAPTIIUeTlowTczavw0qcxrY2gv0a88FHmiZfwtRqt3p13zQXJoxnzLBbdVFd3QI0pkio98tEXAnI85iAIOs055BD8FzS2NLnBzfpg5NYb51P0HtaeKm7uXl3u_bJNkmUZQk9F1xeo6yo4fwuI43IXh2nsfTDYETlpIERvMc5Wj1Q4yodCs_1dqNxRZVdxkwFBeal-kU97HLNIN9Fx3oMtm2]--></g></svg>