<?xml version="1.0" encoding="us-ascii" standalone="no"?><svg xmlns="http://www.w3.org/2000/svg" xmlns:xlink="http://www.w3.org/1999/xlink" contentStyleType="text/css" height="1330px" preserveAspectRatio="none" style="width:1762px;height:1330px;background:#FFFFFF;" version="1.1" viewBox="0 0 1762 1330" width="1762px" zoomAndPan="magnify"><defs/><g><text fill="#000000" font-family="sans-serif" font-size="14" font-weight="bold" lengthAdjust="spacing" textLength="206" x="771" y="24.5332">US16 Relevant Domain Model</text><!--cluster PatientAggregate--><g id="cluster_PatientAggregate"><path d="M884.5,466.6094 L1007.5,466.6094 A3.75,3.75 0 0 1 1010,469.1094 L1017,490.2188 L1752.5,490.2188 A2.5,2.5 0 0 1 1755,492.7188 L1755,1079.1094 A2.5,2.5 0 0 1 1752.5,1081.6094 L884.5,1081.6094 A2.5,2.5 0 0 1 882,1079.1094 L882,469.1094 A2.5,2.5 0 0 1 884.5,466.6094 " fill="none" style="stroke:#000000;stroke-width:1.5;"/><line style="stroke:#000000;stroke-width:1.5;" x1="882" x2="1017" y1="490.2188" y2="490.2188"/><text fill="#000000" font-family="sans-serif" font-size="14" font-weight="bold" lengthAdjust="spacing" textLength="122" x="886" y="483.1426">PatientAggregate</text></g><!--cluster DoctorAggregate--><g id="cluster_DoctorAggregate"><path d="M764.5,44.6094 L885.5,44.6094 A3.75,3.75 0 0 1 888,47.1094 L895,68.2188 L925.5,68.2188 A2.5,2.5 0 0 1 928,70.7188 L928,290.1094 A2.5,2.5 0 0 1 925.5,292.6094 L764.5,292.6094 A2.5,2.5 0 0 1 762,290.1094 L762,47.1094 A2.5,2.5 0 0 1 764.5,44.6094 " fill="none" style="stroke:#000000;stroke-width:1.5;"/><line style="stroke:#000000;stroke-width:1.5;" x1="762" x2="895" y1="68.2188" y2="68.2188"/><text fill="#000000" font-family="sans-serif" font-size="14" font-weight="bold" lengthAdjust="spacing" textLength="120" x="766" y="61.1426">DoctorAggregate</text></g><!--cluster OperationTypeAggregate--><g id="cluster_OperationTypeAggregate"><path d="M8.5,850.6094 L185.5,850.6094 A3.75,3.75 0 0 1 188,853.1094 L195,874.2188 L700.5,874.2188 A2.5,2.5 0 0 1 703,876.7188 L703,1321.1094 A2.5,2.5 0 0 1 700.5,1323.6094 L8.5,1323.6094 A2.5,2.5 0 0 1 6,1321.1094 L6,853.1094 A2.5,2.5 0 0 1 8.5,850.6094 " fill="none" style="stroke:#000000;stroke-width:1.5;"/><line style="stroke:#000000;stroke-width:1.5;" x1="6" x2="195" y1="874.2188" y2="874.2188"/><text fill="#000000" font-family="sans-serif" font-size="14" font-weight="bold" lengthAdjust="spacing" textLength="176" x="10" y="867.1426">OperationTypeAggregate</text></g><!--cluster OperationRequestAggregate--><g id="cluster_OperationRequestAggregate"><path d="M430.5,466.6094 L633.5,466.6094 A3.75,3.75 0 0 1 636,469.1094 L643,490.2188 L805.5,490.2188 A2.5,2.5 0 0 1 808,492.7188 L808,815.1094 A2.5,2.5 0 0 1 805.5,817.6094 L430.5,817.6094 A2.5,2.5 0 0 1 428,815.1094 L428,469.1094 A2.5,2.5 0 0 1 430.5,466.6094 " fill="none" style="stroke:#000000;stroke-width:1.5;"/><line style="stroke:#000000;stroke-width:1.5;" x1="428" x2="643" y1="490.2188" y2="490.2188"/><text fill="#000000" font-family="sans-serif" font-size="14" font-weight="bold" lengthAdjust="spacing" textLength="202" x="432" y="483.1426">OperationRequestAggregate</text></g><!--class Patient--><g id="elem_Patient"><rect codeLine="5" fill="#F1F1F1" height="58.7031" id="Patient" rx="2.5" ry="2.5" style="stroke:#181818;stroke-width:0.5;" width="101" x="1231.5" y="622.6094"/><ellipse cx="1246.5" cy="643.9609" fill="#0099FF" rx="11" ry="11" style="stroke:#181818;stroke-width:1.0;"/><path d="M1245.3438,645.1172 L1245.3438,647.2578 L1245.9531,647.2578 Q1246.5781,647.2578 1246.8281,647.4922 Q1247.0938,647.7266 1247.0938,648.1172 Q1247.0938,648.4922 1246.8281,648.7266 Q1246.5781,648.9609 1245.9531,648.9609 L1243.375,648.9609 Q1242.7656,648.9609 1242.5,648.7266 Q1242.2344,648.4922 1242.2344,648.1016 Q1242.2344,647.7266 1242.5,647.4922 Q1242.7656,647.2578 1243.375,647.2578 L1243.6406,647.2578 L1243.6406,640.6016 L1243.375,640.6016 Q1242.7656,640.6016 1242.5,640.3672 Q1242.2344,640.1328 1242.2344,639.7422 Q1242.2344,639.3672 1242.5,639.1328 Q1242.7656,638.8984 1243.375,638.8984 L1247.2344,638.8984 Q1249.0313,638.8984 1250.0156,639.7891 Q1251.0156,640.6797 1251.0156,641.9609 Q1251.0156,642.7578 1250.5469,643.4141 Q1250.0781,644.0703 1249.1406,644.5703 Q1249.6875,645.0391 1250.2969,645.7891 Q1250.6875,646.2578 1251.3281,647.2578 Q1251.9844,647.2578 1252.1875,647.3984 Q1252.5625,647.6484 1252.5625,648.1172 Q1252.5625,648.4922 1252.2969,648.7266 Q1252.0469,648.9609 1251.4375,648.9609 L1250.4531,648.9609 Q1248.3906,645.7578 1247.0313,645.1172 L1245.3438,645.1172 Z M1245.3438,643.4141 L1246.6719,643.4141 Q1247.4063,643.4141 1248,643.1953 Q1248.7813,642.8984 1249.0469,642.5703 Q1249.3125,642.2266 1249.3125,641.8984 Q1249.3125,641.4297 1248.7969,641.0234 Q1248.2813,640.6016 1247.2969,640.6016 L1245.3438,640.6016 L1245.3438,643.4141 Z " fill="#000000"/><text fill="#000000" font-family="sans-serif" font-size="12" font-style="italic" lengthAdjust="spacing" textLength="73" x="1258.5" y="640.0664">&#171;Root Entity&#187;</text><text fill="#000000" font-family="sans-serif" font-size="14" lengthAdjust="spacing" textLength="44" x="1273" y="657.2363">Patient</text><line style="stroke:#181818;stroke-width:0.5;" x1="1232.5" x2="1331.5" y1="665.3125" y2="665.3125"/><line style="stroke:#181818;stroke-width:0.5;" x1="1232.5" x2="1331.5" y1="673.3125" y2="673.3125"/></g><!--class Gender--><g id="elem_Gender"><rect codeLine="7" fill="#F1F1F1" height="58.7031" id="Gender" rx="2.5" ry="2.5" style="stroke:#181818;stroke-width:0.5;" width="113" x="1625.5" y="502.6094"/><ellipse cx="1640.5" cy="523.9609" fill="#F04800" rx="11" ry="11" style="stroke:#181818;stroke-width:1.0;"/><path d="M1641.0938,527.2266 L1643.5625,521.3516 L1643.1719,521.3516 Q1642.5625,521.3516 1642.2969,521.1172 Q1642.0313,520.8828 1642.0313,520.4922 Q1642.0313,520.1172 1642.2969,519.8828 Q1642.5625,519.6484 1643.1719,519.6484 L1645.4531,519.6484 Q1646.0625,519.6484 1646.3281,519.8828 Q1646.5938,520.1172 1646.5938,520.4922 Q1646.5938,520.9609 1646.1875,521.2266 Q1646,521.3516 1645.4063,521.3516 L1641.9219,529.7109 L1640.2813,529.7109 L1636.7969,521.3516 Q1636.2031,521.3516 1636.0156,521.2266 Q1635.6094,520.9609 1635.6094,520.4922 Q1635.6094,520.1172 1635.875,519.8828 Q1636.1406,519.6484 1636.75,519.6484 L1639.0469,519.6484 Q1639.6563,519.6484 1639.9063,519.8828 Q1640.1719,520.1172 1640.1719,520.4922 Q1640.1719,520.8828 1639.9063,521.1172 Q1639.6563,521.3516 1639.0469,521.3516 L1638.6406,521.3516 L1641.0938,527.2266 Z " fill="#000000"/><text fill="#000000" font-family="sans-serif" font-size="12" font-style="italic" lengthAdjust="spacing" textLength="85" x="1652.5" y="520.0664">&#171;Value Object&#187;</text><text fill="#000000" font-family="sans-serif" font-size="14" lengthAdjust="spacing" textLength="48" x="1671" y="537.2363">Gender</text><line style="stroke:#181818;stroke-width:0.5;" x1="1626.5" x2="1737.5" y1="545.3125" y2="545.3125"/><line style="stroke:#181818;stroke-width:0.5;" x1="1626.5" x2="1737.5" y1="553.3125" y2="553.3125"/></g><!--class MedicalRecordNumber--><g id="elem_MedicalRecordNumber"><rect codeLine="8" fill="#F1F1F1" height="58.7031" id="MedicalRecordNumber" rx="2.5" ry="2.5" style="stroke:#181818;stroke-width:0.5;" width="175" x="1415.5" y="502.6094"/><ellipse cx="1430.5" cy="523.9609" fill="#F09800" rx="11" ry="11" style="stroke:#181818;stroke-width:1.0;"/><path d="M1431.0938,527.2266 L1433.5625,521.3516 L1433.1719,521.3516 Q1432.5625,521.3516 1432.2969,521.1172 Q1432.0313,520.8828 1432.0313,520.4922 Q1432.0313,520.1172 1432.2969,519.8828 Q1432.5625,519.6484 1433.1719,519.6484 L1435.4531,519.6484 Q1436.0625,519.6484 1436.3281,519.8828 Q1436.5938,520.1172 1436.5938,520.4922 Q1436.5938,520.9609 1436.1875,521.2266 Q1436,521.3516 1435.4063,521.3516 L1431.9219,529.7109 L1430.2813,529.7109 L1426.7969,521.3516 Q1426.2031,521.3516 1426.0156,521.2266 Q1425.6094,520.9609 1425.6094,520.4922 Q1425.6094,520.1172 1425.875,519.8828 Q1426.1406,519.6484 1426.75,519.6484 L1429.0469,519.6484 Q1429.6563,519.6484 1429.9063,519.8828 Q1430.1719,520.1172 1430.1719,520.4922 Q1430.1719,520.8828 1429.9063,521.1172 Q1429.6563,521.3516 1429.0469,521.3516 L1428.6406,521.3516 L1431.0938,527.2266 Z " fill="#000000"/><text fill="#000000" font-family="sans-serif" font-size="12" font-style="italic" lengthAdjust="spacing" textLength="105" x="1463.5" y="520.0664">&#171;Unique Identifier&#187;</text><text fill="#000000" font-family="sans-serif" font-size="14" lengthAdjust="spacing" textLength="143" x="1444.5" y="537.2363">MedicalRecordNumber</text><line style="stroke:#181818;stroke-width:0.5;" x1="1416.5" x2="1589.5" y1="545.3125" y2="545.3125"/><line style="stroke:#181818;stroke-width:0.5;" x1="1416.5" x2="1589.5" y1="553.3125" y2="553.3125"/></g><!--class DateOfBirth--><g id="elem_DateOfBirth"><rect codeLine="9" fill="#F1F1F1" height="58.7031" id="DateOfBirth" rx="2.5" ry="2.5" style="stroke:#181818;stroke-width:0.5;" width="113" x="1267.5" y="502.6094"/><ellipse cx="1282.5" cy="523.9609" fill="#F04800" rx="11" ry="11" style="stroke:#181818;stroke-width:1.0;"/><path d="M1283.0938,527.2266 L1285.5625,521.3516 L1285.1719,521.3516 Q1284.5625,521.3516 1284.2969,521.1172 Q1284.0313,520.8828 1284.0313,520.4922 Q1284.0313,520.1172 1284.2969,519.8828 Q1284.5625,519.6484 1285.1719,519.6484 L1287.4531,519.6484 Q1288.0625,519.6484 1288.3281,519.8828 Q1288.5938,520.1172 1288.5938,520.4922 Q1288.5938,520.9609 1288.1875,521.2266 Q1288,521.3516 1287.4063,521.3516 L1283.9219,529.7109 L1282.2813,529.7109 L1278.7969,521.3516 Q1278.2031,521.3516 1278.0156,521.2266 Q1277.6094,520.9609 1277.6094,520.4922 Q1277.6094,520.1172 1277.875,519.8828 Q1278.1406,519.6484 1278.75,519.6484 L1281.0469,519.6484 Q1281.6563,519.6484 1281.9063,519.8828 Q1282.1719,520.1172 1282.1719,520.4922 Q1282.1719,520.8828 1281.9063,521.1172 Q1281.6563,521.3516 1281.0469,521.3516 L1280.6406,521.3516 L1283.0938,527.2266 Z " fill="#000000"/><text fill="#000000" font-family="sans-serif" font-size="12" font-style="italic" lengthAdjust="spacing" textLength="85" x="1294.5" y="520.0664">&#171;Value Object&#187;</text><text fill="#000000" font-family="sans-serif" font-size="14" lengthAdjust="spacing" textLength="74" x="1300" y="537.2363">DateOfBirth</text><line style="stroke:#181818;stroke-width:0.5;" x1="1268.5" x2="1379.5" y1="545.3125" y2="545.3125"/><line style="stroke:#181818;stroke-width:0.5;" x1="1268.5" x2="1379.5" y1="553.3125" y2="553.3125"/></g><!--class MedicalConditions--><g id="elem_MedicalConditions"><rect codeLine="10" fill="#F1F1F1" height="58.7031" id="MedicalConditions" rx="2.5" ry="2.5" style="stroke:#181818;stroke-width:0.5;" width="147" x="1085.5" y="502.6094"/><ellipse cx="1100.5" cy="523.9609" fill="#F04800" rx="11" ry="11" style="stroke:#181818;stroke-width:1.0;"/><path d="M1101.0938,527.2266 L1103.5625,521.3516 L1103.1719,521.3516 Q1102.5625,521.3516 1102.2969,521.1172 Q1102.0313,520.8828 1102.0313,520.4922 Q1102.0313,520.1172 1102.2969,519.8828 Q1102.5625,519.6484 1103.1719,519.6484 L1105.4531,519.6484 Q1106.0625,519.6484 1106.3281,519.8828 Q1106.5938,520.1172 1106.5938,520.4922 Q1106.5938,520.9609 1106.1875,521.2266 Q1106,521.3516 1105.4063,521.3516 L1101.9219,529.7109 L1100.2813,529.7109 L1096.7969,521.3516 Q1096.2031,521.3516 1096.0156,521.2266 Q1095.6094,520.9609 1095.6094,520.4922 Q1095.6094,520.1172 1095.875,519.8828 Q1096.1406,519.6484 1096.75,519.6484 L1099.0469,519.6484 Q1099.6563,519.6484 1099.9063,519.8828 Q1100.1719,520.1172 1100.1719,520.4922 Q1100.1719,520.8828 1099.9063,521.1172 Q1099.6563,521.3516 1099.0469,521.3516 L1098.6406,521.3516 L1101.0938,527.2266 Z " fill="#000000"/><text fill="#000000" font-family="sans-serif" font-size="12" font-style="italic" lengthAdjust="spacing" textLength="85" x="1129.5" y="520.0664">&#171;Value Object&#187;</text><text fill="#000000" font-family="sans-serif" font-size="14" lengthAdjust="spacing" textLength="115" x="1114.5" y="537.2363">MedicalConditions</text><line style="stroke:#181818;stroke-width:0.5;" x1="1086.5" x2="1231.5" y1="545.3125" y2="545.3125"/><line style="stroke:#181818;stroke-width:0.5;" x1="1086.5" x2="1231.5" y1="553.3125" y2="553.3125"/></g><!--class EmergencyContact--><g id="elem_EmergencyContact"><rect codeLine="11" fill="#F1F1F1" height="58.7031" id="EmergencyContact" rx="2.5" ry="2.5" style="stroke:#181818;stroke-width:0.5;" width="152" x="898" y="502.6094"/><ellipse cx="913" cy="523.9609" fill="#F04800" rx="11" ry="11" style="stroke:#181818;stroke-width:1.0;"/><path d="M913.5938,527.2266 L916.0625,521.3516 L915.6719,521.3516 Q915.0625,521.3516 914.7969,521.1172 Q914.5313,520.8828 914.5313,520.4922 Q914.5313,520.1172 914.7969,519.8828 Q915.0625,519.6484 915.6719,519.6484 L917.9531,519.6484 Q918.5625,519.6484 918.8281,519.8828 Q919.0938,520.1172 919.0938,520.4922 Q919.0938,520.9609 918.6875,521.2266 Q918.5,521.3516 917.9063,521.3516 L914.4219,529.7109 L912.7813,529.7109 L909.2969,521.3516 Q908.7031,521.3516 908.5156,521.2266 Q908.1094,520.9609 908.1094,520.4922 Q908.1094,520.1172 908.375,519.8828 Q908.6406,519.6484 909.25,519.6484 L911.5469,519.6484 Q912.1563,519.6484 912.4063,519.8828 Q912.6719,520.1172 912.6719,520.4922 Q912.6719,520.8828 912.4063,521.1172 Q912.1563,521.3516 911.5469,521.3516 L911.1406,521.3516 L913.5938,527.2266 Z " fill="#000000"/><text fill="#000000" font-family="sans-serif" font-size="12" font-style="italic" lengthAdjust="spacing" textLength="85" x="944.5" y="520.0664">&#171;Value Object&#187;</text><text fill="#000000" font-family="sans-serif" font-size="14" lengthAdjust="spacing" textLength="120" x="927" y="537.2363">EmergencyContact</text><line style="stroke:#181818;stroke-width:0.5;" x1="899" x2="1049" y1="545.3125" y2="545.3125"/><line style="stroke:#181818;stroke-width:0.5;" x1="899" x2="1049" y1="553.3125" y2="553.3125"/></g><!--class EmailAddress--><g id="elem_EmailAddress"><rect codeLine="12" fill="#F1F1F1" height="58.7031" id="EmailAddress" rx="2.5" ry="2.5" style="stroke:#181818;stroke-width:0.5;" width="118" x="976" y="1006.6094"/><ellipse cx="991" cy="1027.9609" fill="#F04800" rx="11" ry="11" style="stroke:#181818;stroke-width:1.0;"/><path d="M991.5938,1031.2266 L994.0625,1025.3516 L993.6719,1025.3516 Q993.0625,1025.3516 992.7969,1025.1172 Q992.5313,1024.8828 992.5313,1024.4922 Q992.5313,1024.1172 992.7969,1023.8828 Q993.0625,1023.6484 993.6719,1023.6484 L995.9531,1023.6484 Q996.5625,1023.6484 996.8281,1023.8828 Q997.0938,1024.1172 997.0938,1024.4922 Q997.0938,1024.9609 996.6875,1025.2266 Q996.5,1025.3516 995.9063,1025.3516 L992.4219,1033.7109 L990.7813,1033.7109 L987.2969,1025.3516 Q986.7031,1025.3516 986.5156,1025.2266 Q986.1094,1024.9609 986.1094,1024.4922 Q986.1094,1024.1172 986.375,1023.8828 Q986.6406,1023.6484 987.25,1023.6484 L989.5469,1023.6484 Q990.1563,1023.6484 990.4063,1023.8828 Q990.6719,1024.1172 990.6719,1024.4922 Q990.6719,1024.8828 990.4063,1025.1172 Q990.1563,1025.3516 989.5469,1025.3516 L989.1406,1025.3516 L991.5938,1031.2266 Z " fill="#000000"/><text fill="#000000" font-family="sans-serif" font-size="12" font-style="italic" lengthAdjust="spacing" textLength="85" x="1005.5" y="1024.0664">&#171;Value Object&#187;</text><text fill="#000000" font-family="sans-serif" font-size="14" lengthAdjust="spacing" textLength="86" x="1005" y="1041.2363">EmailAddress</text><line style="stroke:#181818;stroke-width:0.5;" x1="977" x2="1093" y1="1049.3125" y2="1049.3125"/><line style="stroke:#181818;stroke-width:0.5;" x1="977" x2="1093" y1="1057.3125" y2="1057.3125"/></g><!--class PhoneNumber--><g id="elem_PhoneNumber"><rect codeLine="13" fill="#F1F1F1" height="58.7031" id="PhoneNumber" rx="2.5" ry="2.5" style="stroke:#181818;stroke-width:0.5;" width="122" x="1129" y="1006.6094"/><ellipse cx="1144" cy="1027.9609" fill="#F04800" rx="11" ry="11" style="stroke:#181818;stroke-width:1.0;"/><path d="M1144.5938,1031.2266 L1147.0625,1025.3516 L1146.6719,1025.3516 Q1146.0625,1025.3516 1145.7969,1025.1172 Q1145.5313,1024.8828 1145.5313,1024.4922 Q1145.5313,1024.1172 1145.7969,1023.8828 Q1146.0625,1023.6484 1146.6719,1023.6484 L1148.9531,1023.6484 Q1149.5625,1023.6484 1149.8281,1023.8828 Q1150.0938,1024.1172 1150.0938,1024.4922 Q1150.0938,1024.9609 1149.6875,1025.2266 Q1149.5,1025.3516 1148.9063,1025.3516 L1145.4219,1033.7109 L1143.7813,1033.7109 L1140.2969,1025.3516 Q1139.7031,1025.3516 1139.5156,1025.2266 Q1139.1094,1024.9609 1139.1094,1024.4922 Q1139.1094,1024.1172 1139.375,1023.8828 Q1139.6406,1023.6484 1140.25,1023.6484 L1142.5469,1023.6484 Q1143.1563,1023.6484 1143.4063,1023.8828 Q1143.6719,1024.1172 1143.6719,1024.4922 Q1143.6719,1024.8828 1143.4063,1025.1172 Q1143.1563,1025.3516 1142.5469,1025.3516 L1142.1406,1025.3516 L1144.5938,1031.2266 Z " fill="#000000"/><text fill="#000000" font-family="sans-serif" font-size="12" font-style="italic" lengthAdjust="spacing" textLength="85" x="1160.5" y="1024.0664">&#171;Value Object&#187;</text><text fill="#000000" font-family="sans-serif" font-size="14" lengthAdjust="spacing" textLength="90" x="1158" y="1041.2363">PhoneNumber</text><line style="stroke:#181818;stroke-width:0.5;" x1="1130" x2="1250" y1="1049.3125" y2="1049.3125"/><line style="stroke:#181818;stroke-width:0.5;" x1="1130" x2="1250" y1="1057.3125" y2="1057.3125"/></g><!--class ContactInformation--><g id="elem_ContactInformation"><rect codeLine="15" fill="#F1F1F1" height="58.7031" id="ContactInformation" rx="2.5" ry="2.5" style="stroke:#181818;stroke-width:0.5;" width="151" x="997.5" y="742.6094"/><ellipse cx="1012.5" cy="763.9609" fill="#ADD1B2" rx="11" ry="11" style="stroke:#181818;stroke-width:1.0;"/><path d="M1011.3594,764.7578 L1011.3594,767.2578 L1015.6875,767.2578 L1015.6875,766.3359 Q1015.6875,765.7266 1015.9219,765.4609 Q1016.1719,765.1953 1016.5469,765.1953 Q1016.9219,765.1953 1017.1563,765.4609 Q1017.3906,765.7266 1017.3906,766.3359 L1017.3906,768.9609 L1009.3906,768.9609 Q1008.7656,768.9609 1008.5,768.7266 Q1008.25,768.4922 1008.25,768.1016 Q1008.25,767.7266 1008.5156,767.4922 Q1008.7813,767.2578 1009.3906,767.2578 L1009.6563,767.2578 L1009.6563,760.6016 L1009.3906,760.6016 Q1008.7656,760.6016 1008.5,760.3672 Q1008.25,760.1328 1008.25,759.7422 Q1008.25,759.3672 1008.5,759.1328 Q1008.7656,758.8984 1009.3906,758.8984 L1017.0156,758.8984 L1017.0156,761.4922 Q1017.0156,762.1016 1016.7813,762.3672 Q1016.5625,762.6172 1016.1719,762.6172 Q1015.7969,762.6172 1015.5625,762.3672 Q1015.3281,762.1016 1015.3281,761.4922 L1015.3281,760.6016 L1011.3594,760.6016 L1011.3594,763.0547 L1012.8438,763.0547 Q1012.8438,762.3984 1012.9688,762.2109 Q1013.2344,761.8047 1013.7031,761.8047 Q1014.0781,761.8047 1014.3125,762.0703 Q1014.5469,762.3203 1014.5469,762.9297 L1014.5469,764.8984 Q1014.5469,765.4453 1014.4219,765.6328 Q1014.1563,766.0234 1013.7031,766.0234 Q1013.2344,766.0234 1012.9688,765.6172 Q1012.8438,765.4297 1012.8438,764.7578 L1011.3594,764.7578 Z " fill="#000000"/><text fill="#000000" font-family="sans-serif" font-size="12" font-style="italic" lengthAdjust="spacing" textLength="44" x="1064" y="760.0664">&#171;Entity&#187;</text><text fill="#000000" font-family="sans-serif" font-size="14" lengthAdjust="spacing" textLength="119" x="1026.5" y="777.2363">ContactInformation</text><line style="stroke:#181818;stroke-width:0.5;" x1="998.5" x2="1147.5" y1="785.3125" y2="785.3125"/><line style="stroke:#181818;stroke-width:0.5;" x1="998.5" x2="1147.5" y1="793.3125" y2="793.3125"/></g><!--class FirstName--><g id="elem_FirstName"><rect codeLine="17" fill="#F1F1F1" height="58.7031" id="FirstName" rx="2.5" ry="2.5" style="stroke:#181818;stroke-width:0.5;" width="113" x="1183.5" y="742.6094"/><ellipse cx="1198.5" cy="763.9609" fill="#F04800" rx="11" ry="11" style="stroke:#181818;stroke-width:1.0;"/><path d="M1199.0938,767.2266 L1201.5625,761.3516 L1201.1719,761.3516 Q1200.5625,761.3516 1200.2969,761.1172 Q1200.0313,760.8828 1200.0313,760.4922 Q1200.0313,760.1172 1200.2969,759.8828 Q1200.5625,759.6484 1201.1719,759.6484 L1203.4531,759.6484 Q1204.0625,759.6484 1204.3281,759.8828 Q1204.5938,760.1172 1204.5938,760.4922 Q1204.5938,760.9609 1204.1875,761.2266 Q1204,761.3516 1203.4063,761.3516 L1199.9219,769.7109 L1198.2813,769.7109 L1194.7969,761.3516 Q1194.2031,761.3516 1194.0156,761.2266 Q1193.6094,760.9609 1193.6094,760.4922 Q1193.6094,760.1172 1193.875,759.8828 Q1194.1406,759.6484 1194.75,759.6484 L1197.0469,759.6484 Q1197.6563,759.6484 1197.9063,759.8828 Q1198.1719,760.1172 1198.1719,760.4922 Q1198.1719,760.8828 1197.9063,761.1172 Q1197.6563,761.3516 1197.0469,761.3516 L1196.6406,761.3516 L1199.0938,767.2266 Z " fill="#000000"/><text fill="#000000" font-family="sans-serif" font-size="12" font-style="italic" lengthAdjust="spacing" textLength="85" x="1210.5" y="760.0664">&#171;Value Object&#187;</text><text fill="#000000" font-family="sans-serif" font-size="14" lengthAdjust="spacing" textLength="64" x="1221" y="777.2363">FirstName</text><line style="stroke:#181818;stroke-width:0.5;" x1="1184.5" x2="1295.5" y1="785.3125" y2="785.3125"/><line style="stroke:#181818;stroke-width:0.5;" x1="1184.5" x2="1295.5" y1="793.3125" y2="793.3125"/></g><!--class LastName--><g id="elem_LastName"><rect codeLine="18" fill="#F1F1F1" height="58.7031" id="LastName" rx="2.5" ry="2.5" style="stroke:#181818;stroke-width:0.5;" width="113" x="1331.5" y="742.6094"/><ellipse cx="1346.5" cy="763.9609" fill="#F04800" rx="11" ry="11" style="stroke:#181818;stroke-width:1.0;"/><path d="M1347.0938,767.2266 L1349.5625,761.3516 L1349.1719,761.3516 Q1348.5625,761.3516 1348.2969,761.1172 Q1348.0313,760.8828 1348.0313,760.4922 Q1348.0313,760.1172 1348.2969,759.8828 Q1348.5625,759.6484 1349.1719,759.6484 L1351.4531,759.6484 Q1352.0625,759.6484 1352.3281,759.8828 Q1352.5938,760.1172 1352.5938,760.4922 Q1352.5938,760.9609 1352.1875,761.2266 Q1352,761.3516 1351.4063,761.3516 L1347.9219,769.7109 L1346.2813,769.7109 L1342.7969,761.3516 Q1342.2031,761.3516 1342.0156,761.2266 Q1341.6094,760.9609 1341.6094,760.4922 Q1341.6094,760.1172 1341.875,759.8828 Q1342.1406,759.6484 1342.75,759.6484 L1345.0469,759.6484 Q1345.6563,759.6484 1345.9063,759.8828 Q1346.1719,760.1172 1346.1719,760.4922 Q1346.1719,760.8828 1345.9063,761.1172 Q1345.6563,761.3516 1345.0469,761.3516 L1344.6406,761.3516 L1347.0938,767.2266 Z " fill="#000000"/><text fill="#000000" font-family="sans-serif" font-size="12" font-style="italic" lengthAdjust="spacing" textLength="85" x="1358.5" y="760.0664">&#171;Value Object&#187;</text><text fill="#000000" font-family="sans-serif" font-size="14" lengthAdjust="spacing" textLength="63" x="1369.5" y="777.2363">LastName</text><line style="stroke:#181818;stroke-width:0.5;" x1="1332.5" x2="1443.5" y1="785.3125" y2="785.3125"/><line style="stroke:#181818;stroke-width:0.5;" x1="1332.5" x2="1443.5" y1="793.3125" y2="793.3125"/></g><!--class FullName--><g id="elem_FullName"><rect codeLine="19" fill="#F1F1F1" height="58.7031" id="FullName" rx="2.5" ry="2.5" style="stroke:#181818;stroke-width:0.5;" width="113" x="1479.5" y="742.6094"/><ellipse cx="1494.5" cy="763.9609" fill="#F04800" rx="11" ry="11" style="stroke:#181818;stroke-width:1.0;"/><path d="M1495.0938,767.2266 L1497.5625,761.3516 L1497.1719,761.3516 Q1496.5625,761.3516 1496.2969,761.1172 Q1496.0313,760.8828 1496.0313,760.4922 Q1496.0313,760.1172 1496.2969,759.8828 Q1496.5625,759.6484 1497.1719,759.6484 L1499.4531,759.6484 Q1500.0625,759.6484 1500.3281,759.8828 Q1500.5938,760.1172 1500.5938,760.4922 Q1500.5938,760.9609 1500.1875,761.2266 Q1500,761.3516 1499.4063,761.3516 L1495.9219,769.7109 L1494.2813,769.7109 L1490.7969,761.3516 Q1490.2031,761.3516 1490.0156,761.2266 Q1489.6094,760.9609 1489.6094,760.4922 Q1489.6094,760.1172 1489.875,759.8828 Q1490.1406,759.6484 1490.75,759.6484 L1493.0469,759.6484 Q1493.6563,759.6484 1493.9063,759.8828 Q1494.1719,760.1172 1494.1719,760.4922 Q1494.1719,760.8828 1493.9063,761.1172 Q1493.6563,761.3516 1493.0469,761.3516 L1492.6406,761.3516 L1495.0938,767.2266 Z " fill="#000000"/><text fill="#000000" font-family="sans-serif" font-size="12" font-style="italic" lengthAdjust="spacing" textLength="85" x="1506.5" y="760.0664">&#171;Value Object&#187;</text><text fill="#000000" font-family="sans-serif" font-size="14" lengthAdjust="spacing" textLength="59" x="1519.5" y="777.2363">FullName</text><line style="stroke:#181818;stroke-width:0.5;" x1="1480.5" x2="1591.5" y1="785.3125" y2="785.3125"/><line style="stroke:#181818;stroke-width:0.5;" x1="1480.5" x2="1591.5" y1="793.3125" y2="793.3125"/></g><!--class Doctor--><g id="elem_Doctor"><rect codeLine="36" fill="#F1F1F1" height="58.7031" id="Doctor" rx="2.5" ry="2.5" style="stroke:#181818;stroke-width:0.5;" width="101" x="794.5" y="217.6094"/><ellipse cx="809.5" cy="238.9609" fill="#0099FF" rx="11" ry="11" style="stroke:#181818;stroke-width:1.0;"/><path d="M808.3438,240.1172 L808.3438,242.2578 L808.9531,242.2578 Q809.5781,242.2578 809.8281,242.4922 Q810.0938,242.7266 810.0938,243.1172 Q810.0938,243.4922 809.8281,243.7266 Q809.5781,243.9609 808.9531,243.9609 L806.375,243.9609 Q805.7656,243.9609 805.5,243.7266 Q805.2344,243.4922 805.2344,243.1016 Q805.2344,242.7266 805.5,242.4922 Q805.7656,242.2578 806.375,242.2578 L806.6406,242.2578 L806.6406,235.6016 L806.375,235.6016 Q805.7656,235.6016 805.5,235.3672 Q805.2344,235.1328 805.2344,234.7422 Q805.2344,234.3672 805.5,234.1328 Q805.7656,233.8984 806.375,233.8984 L810.2344,233.8984 Q812.0313,233.8984 813.0156,234.7891 Q814.0156,235.6797 814.0156,236.9609 Q814.0156,237.7578 813.5469,238.4141 Q813.0781,239.0703 812.1406,239.5703 Q812.6875,240.0391 813.2969,240.7891 Q813.6875,241.2578 814.3281,242.2578 Q814.9844,242.2578 815.1875,242.3984 Q815.5625,242.6484 815.5625,243.1172 Q815.5625,243.4922 815.2969,243.7266 Q815.0469,243.9609 814.4375,243.9609 L813.4531,243.9609 Q811.3906,240.7578 810.0313,240.1172 L808.3438,240.1172 Z M808.3438,238.4141 L809.6719,238.4141 Q810.4063,238.4141 811,238.1953 Q811.7813,237.8984 812.0469,237.5703 Q812.3125,237.2266 812.3125,236.8984 Q812.3125,236.4297 811.7969,236.0234 Q811.2813,235.6016 810.2969,235.6016 L808.3438,235.6016 L808.3438,238.4141 Z " fill="#000000"/><text fill="#000000" font-family="sans-serif" font-size="12" font-style="italic" lengthAdjust="spacing" textLength="73" x="821.5" y="235.0664">&#171;Root Entity&#187;</text><text fill="#000000" font-family="sans-serif" font-size="14" lengthAdjust="spacing" textLength="42" x="837" y="252.2363">Doctor</text><line style="stroke:#181818;stroke-width:0.5;" x1="795.5" x2="894.5" y1="260.3125" y2="260.3125"/><line style="stroke:#181818;stroke-width:0.5;" x1="795.5" x2="894.5" y1="268.3125" y2="268.3125"/></g><!--class DoctorID--><g id="elem_DoctorID"><rect codeLine="37" fill="#F1F1F1" height="58.7031" id="DoctorID" rx="2.5" ry="2.5" style="stroke:#181818;stroke-width:0.5;" width="133" x="778.5" y="80.6094"/><ellipse cx="793.5" cy="101.9609" fill="#F09800" rx="11" ry="11" style="stroke:#181818;stroke-width:1.0;"/><path d="M794.0938,105.2266 L796.5625,99.3516 L796.1719,99.3516 Q795.5625,99.3516 795.2969,99.1172 Q795.0313,98.8828 795.0313,98.4922 Q795.0313,98.1172 795.2969,97.8828 Q795.5625,97.6484 796.1719,97.6484 L798.4531,97.6484 Q799.0625,97.6484 799.3281,97.8828 Q799.5938,98.1172 799.5938,98.4922 Q799.5938,98.9609 799.1875,99.2266 Q799,99.3516 798.4063,99.3516 L794.9219,107.7109 L793.2813,107.7109 L789.7969,99.3516 Q789.2031,99.3516 789.0156,99.2266 Q788.6094,98.9609 788.6094,98.4922 Q788.6094,98.1172 788.875,97.8828 Q789.1406,97.6484 789.75,97.6484 L792.0469,97.6484 Q792.6563,97.6484 792.9063,97.8828 Q793.1719,98.1172 793.1719,98.4922 Q793.1719,98.8828 792.9063,99.1172 Q792.6563,99.3516 792.0469,99.3516 L791.6406,99.3516 L794.0938,105.2266 Z " fill="#000000"/><text fill="#000000" font-family="sans-serif" font-size="12" font-style="italic" lengthAdjust="spacing" textLength="105" x="805.5" y="98.0664">&#171;Unique Identifier&#187;</text><text fill="#000000" font-family="sans-serif" font-size="14" lengthAdjust="spacing" textLength="55" x="830.5" y="115.2363">DoctorID</text><line style="stroke:#181818;stroke-width:0.5;" x1="779.5" x2="910.5" y1="123.3125" y2="123.3125"/><line style="stroke:#181818;stroke-width:0.5;" x1="779.5" x2="910.5" y1="131.3125" y2="131.3125"/></g><!--class OperationType--><g id="elem_OperationType"><rect codeLine="43" fill="#F1F1F1" height="58.7031" id="OperationType" rx="2.5" ry="2.5" style="stroke:#181818;stroke-width:0.5;" width="127" x="337.5" y="1128.6094"/><ellipse cx="352.5" cy="1149.9609" fill="#0099FF" rx="11" ry="11" style="stroke:#181818;stroke-width:1.0;"/><path d="M351.3438,1151.1172 L351.3438,1153.2578 L351.9531,1153.2578 Q352.5781,1153.2578 352.8281,1153.4922 Q353.0938,1153.7266 353.0938,1154.1172 Q353.0938,1154.4922 352.8281,1154.7266 Q352.5781,1154.9609 351.9531,1154.9609 L349.375,1154.9609 Q348.7656,1154.9609 348.5,1154.7266 Q348.2344,1154.4922 348.2344,1154.1016 Q348.2344,1153.7266 348.5,1153.4922 Q348.7656,1153.2578 349.375,1153.2578 L349.6406,1153.2578 L349.6406,1146.6016 L349.375,1146.6016 Q348.7656,1146.6016 348.5,1146.3672 Q348.2344,1146.1328 348.2344,1145.7422 Q348.2344,1145.3672 348.5,1145.1328 Q348.7656,1144.8984 349.375,1144.8984 L353.2344,1144.8984 Q355.0313,1144.8984 356.0156,1145.7891 Q357.0156,1146.6797 357.0156,1147.9609 Q357.0156,1148.7578 356.5469,1149.4141 Q356.0781,1150.0703 355.1406,1150.5703 Q355.6875,1151.0391 356.2969,1151.7891 Q356.6875,1152.2578 357.3281,1153.2578 Q357.9844,1153.2578 358.1875,1153.3984 Q358.5625,1153.6484 358.5625,1154.1172 Q358.5625,1154.4922 358.2969,1154.7266 Q358.0469,1154.9609 357.4375,1154.9609 L356.4531,1154.9609 Q354.3906,1151.7578 353.0313,1151.1172 L351.3438,1151.1172 Z M351.3438,1149.4141 L352.6719,1149.4141 Q353.4063,1149.4141 354,1149.1953 Q354.7813,1148.8984 355.0469,1148.5703 Q355.3125,1148.2266 355.3125,1147.8984 Q355.3125,1147.4297 354.7969,1147.0234 Q354.2813,1146.6016 353.2969,1146.6016 L351.3438,1146.6016 L351.3438,1149.4141 Z " fill="#000000"/><text fill="#000000" font-family="sans-serif" font-size="12" font-style="italic" lengthAdjust="spacing" textLength="73" x="377.5" y="1146.0664">&#171;Root Entity&#187;</text><text fill="#000000" font-family="sans-serif" font-size="14" lengthAdjust="spacing" textLength="95" x="366.5" y="1163.2363">OperationType</text><line style="stroke:#181818;stroke-width:0.5;" x1="338.5" x2="463.5" y1="1171.3125" y2="1171.3125"/><line style="stroke:#181818;stroke-width:0.5;" x1="338.5" x2="463.5" y1="1179.3125" y2="1179.3125"/></g><!--class OperationTypeID--><g id="elem_OperationTypeID"><rect codeLine="45" fill="#F1F1F1" height="58.7031" id="OperationTypeID" rx="2.5" ry="2.5" style="stroke:#181818;stroke-width:0.5;" width="140" x="376" y="1006.6094"/><ellipse cx="391" cy="1027.9609" fill="#F09800" rx="11" ry="11" style="stroke:#181818;stroke-width:1.0;"/><path d="M391.5938,1031.2266 L394.0625,1025.3516 L393.6719,1025.3516 Q393.0625,1025.3516 392.7969,1025.1172 Q392.5313,1024.8828 392.5313,1024.4922 Q392.5313,1024.1172 392.7969,1023.8828 Q393.0625,1023.6484 393.6719,1023.6484 L395.9531,1023.6484 Q396.5625,1023.6484 396.8281,1023.8828 Q397.0938,1024.1172 397.0938,1024.4922 Q397.0938,1024.9609 396.6875,1025.2266 Q396.5,1025.3516 395.9063,1025.3516 L392.4219,1033.7109 L390.7813,1033.7109 L387.2969,1025.3516 Q386.7031,1025.3516 386.5156,1025.2266 Q386.1094,1024.9609 386.1094,1024.4922 Q386.1094,1024.1172 386.375,1023.8828 Q386.6406,1023.6484 387.25,1023.6484 L389.5469,1023.6484 Q390.1563,1023.6484 390.4063,1023.8828 Q390.6719,1024.1172 390.6719,1024.4922 Q390.6719,1024.8828 390.4063,1025.1172 Q390.1563,1025.3516 389.5469,1025.3516 L389.1406,1025.3516 L391.5938,1031.2266 Z " fill="#000000"/><text fill="#000000" font-family="sans-serif" font-size="12" font-style="italic" lengthAdjust="spacing" textLength="105" x="406.5" y="1024.0664">&#171;Unique Identifier&#187;</text><text fill="#000000" font-family="sans-serif" font-size="14" lengthAdjust="spacing" textLength="108" x="405" y="1041.2363">OperationTypeID</text><line style="stroke:#181818;stroke-width:0.5;" x1="377" x2="515" y1="1049.3125" y2="1049.3125"/><line style="stroke:#181818;stroke-width:0.5;" x1="377" x2="515" y1="1057.3125" y2="1057.3125"/></g><!--class OperationTypeName--><g id="elem_OperationTypeName"><rect codeLine="46" fill="#F1F1F1" height="58.7031" id="OperationTypeName" rx="2.5" ry="2.5" style="stroke:#181818;stroke-width:0.5;" width="163" x="128.5" y="1248.6094"/><ellipse cx="143.5" cy="1269.9609" fill="#F04800" rx="11" ry="11" style="stroke:#181818;stroke-width:1.0;"/><path d="M144.0938,1273.2266 L146.5625,1267.3516 L146.1719,1267.3516 Q145.5625,1267.3516 145.2969,1267.1172 Q145.0313,1266.8828 145.0313,1266.4922 Q145.0313,1266.1172 145.2969,1265.8828 Q145.5625,1265.6484 146.1719,1265.6484 L148.4531,1265.6484 Q149.0625,1265.6484 149.3281,1265.8828 Q149.5938,1266.1172 149.5938,1266.4922 Q149.5938,1266.9609 149.1875,1267.2266 Q149,1267.3516 148.4063,1267.3516 L144.9219,1275.7109 L143.2813,1275.7109 L139.7969,1267.3516 Q139.2031,1267.3516 139.0156,1267.2266 Q138.6094,1266.9609 138.6094,1266.4922 Q138.6094,1266.1172 138.875,1265.8828 Q139.1406,1265.6484 139.75,1265.6484 L142.0469,1265.6484 Q142.6563,1265.6484 142.9063,1265.8828 Q143.1719,1266.1172 143.1719,1266.4922 Q143.1719,1266.8828 142.9063,1267.1172 Q142.6563,1267.3516 142.0469,1267.3516 L141.6406,1267.3516 L144.0938,1273.2266 Z " fill="#000000"/><text fill="#000000" font-family="sans-serif" font-size="12" font-style="italic" lengthAdjust="spacing" textLength="85" x="180.5" y="1266.0664">&#171;Value Object&#187;</text><text fill="#000000" font-family="sans-serif" font-size="14" lengthAdjust="spacing" textLength="131" x="157.5" y="1283.2363">OperationTypeName</text><line style="stroke:#181818;stroke-width:0.5;" x1="129.5" x2="290.5" y1="1291.3125" y2="1291.3125"/><line style="stroke:#181818;stroke-width:0.5;" x1="129.5" x2="290.5" y1="1299.3125" y2="1299.3125"/></g><!--class EstimatedDuration--><g id="elem_EstimatedDuration"><rect codeLine="47" fill="#F1F1F1" height="58.7031" id="EstimatedDuration" rx="2.5" ry="2.5" style="stroke:#181818;stroke-width:0.5;" width="148" x="327" y="1248.6094"/><ellipse cx="342" cy="1269.9609" fill="#F04800" rx="11" ry="11" style="stroke:#181818;stroke-width:1.0;"/><path d="M342.5938,1273.2266 L345.0625,1267.3516 L344.6719,1267.3516 Q344.0625,1267.3516 343.7969,1267.1172 Q343.5313,1266.8828 343.5313,1266.4922 Q343.5313,1266.1172 343.7969,1265.8828 Q344.0625,1265.6484 344.6719,1265.6484 L346.9531,1265.6484 Q347.5625,1265.6484 347.8281,1265.8828 Q348.0938,1266.1172 348.0938,1266.4922 Q348.0938,1266.9609 347.6875,1267.2266 Q347.5,1267.3516 346.9063,1267.3516 L343.4219,1275.7109 L341.7813,1275.7109 L338.2969,1267.3516 Q337.7031,1267.3516 337.5156,1267.2266 Q337.1094,1266.9609 337.1094,1266.4922 Q337.1094,1266.1172 337.375,1265.8828 Q337.6406,1265.6484 338.25,1265.6484 L340.5469,1265.6484 Q341.1563,1265.6484 341.4063,1265.8828 Q341.6719,1266.1172 341.6719,1266.4922 Q341.6719,1266.8828 341.4063,1267.1172 Q341.1563,1267.3516 340.5469,1267.3516 L340.1406,1267.3516 L342.5938,1273.2266 Z " fill="#000000"/><text fill="#000000" font-family="sans-serif" font-size="12" font-style="italic" lengthAdjust="spacing" textLength="85" x="371.5" y="1266.0664">&#171;Value Object&#187;</text><text fill="#000000" font-family="sans-serif" font-size="14" lengthAdjust="spacing" textLength="116" x="356" y="1283.2363">EstimatedDuration</text><line style="stroke:#181818;stroke-width:0.5;" x1="328" x2="474" y1="1291.3125" y2="1291.3125"/><line style="stroke:#181818;stroke-width:0.5;" x1="328" x2="474" y1="1299.3125" y2="1299.3125"/></g><!--class OperationTypeVersion--><g id="elem_OperationTypeVersion"><rect codeLine="48" fill="#F1F1F1" height="58.7031" id="OperationTypeVersion" rx="2.5" ry="2.5" style="stroke:#181818;stroke-width:0.5;" width="175" x="510.5" y="1248.6094"/><ellipse cx="525.5" cy="1269.9609" fill="#F04800" rx="11" ry="11" style="stroke:#181818;stroke-width:1.0;"/><path d="M526.0938,1273.2266 L528.5625,1267.3516 L528.1719,1267.3516 Q527.5625,1267.3516 527.2969,1267.1172 Q527.0313,1266.8828 527.0313,1266.4922 Q527.0313,1266.1172 527.2969,1265.8828 Q527.5625,1265.6484 528.1719,1265.6484 L530.4531,1265.6484 Q531.0625,1265.6484 531.3281,1265.8828 Q531.5938,1266.1172 531.5938,1266.4922 Q531.5938,1266.9609 531.1875,1267.2266 Q531,1267.3516 530.4063,1267.3516 L526.9219,1275.7109 L525.2813,1275.7109 L521.7969,1267.3516 Q521.2031,1267.3516 521.0156,1267.2266 Q520.6094,1266.9609 520.6094,1266.4922 Q520.6094,1266.1172 520.875,1265.8828 Q521.1406,1265.6484 521.75,1265.6484 L524.0469,1265.6484 Q524.6563,1265.6484 524.9063,1265.8828 Q525.1719,1266.1172 525.1719,1266.4922 Q525.1719,1266.8828 524.9063,1267.1172 Q524.6563,1267.3516 524.0469,1267.3516 L523.6406,1267.3516 L526.0938,1273.2266 Z " fill="#000000"/><text fill="#000000" font-family="sans-serif" font-size="12" font-style="italic" lengthAdjust="spacing" textLength="85" x="568.5" y="1266.0664">&#171;Value Object&#187;</text><text fill="#000000" font-family="sans-serif" font-size="14" lengthAdjust="spacing" textLength="143" x="539.5" y="1283.2363">OperationTypeVersion</text><line style="stroke:#181818;stroke-width:0.5;" x1="511.5" x2="684.5" y1="1291.3125" y2="1291.3125"/><line style="stroke:#181818;stroke-width:0.5;" x1="511.5" x2="684.5" y1="1299.3125" y2="1299.3125"/></g><!--class OperationTypeStartDate--><g id="elem_OperationTypeStartDate"><rect codeLine="49" fill="#F1F1F1" height="58.7031" id="OperationTypeStartDate" rx="2.5" ry="2.5" style="stroke:#181818;stroke-width:0.5;" width="187" x="499.5" y="1128.6094"/><ellipse cx="514.5" cy="1149.9609" fill="#F04800" rx="11" ry="11" style="stroke:#181818;stroke-width:1.0;"/><path d="M515.0938,1153.2266 L517.5625,1147.3516 L517.1719,1147.3516 Q516.5625,1147.3516 516.2969,1147.1172 Q516.0313,1146.8828 516.0313,1146.4922 Q516.0313,1146.1172 516.2969,1145.8828 Q516.5625,1145.6484 517.1719,1145.6484 L519.4531,1145.6484 Q520.0625,1145.6484 520.3281,1145.8828 Q520.5938,1146.1172 520.5938,1146.4922 Q520.5938,1146.9609 520.1875,1147.2266 Q520,1147.3516 519.4063,1147.3516 L515.9219,1155.7109 L514.2813,1155.7109 L510.7969,1147.3516 Q510.2031,1147.3516 510.0156,1147.2266 Q509.6094,1146.9609 509.6094,1146.4922 Q509.6094,1146.1172 509.875,1145.8828 Q510.1406,1145.6484 510.75,1145.6484 L513.0469,1145.6484 Q513.6563,1145.6484 513.9063,1145.8828 Q514.1719,1146.1172 514.1719,1146.4922 Q514.1719,1146.8828 513.9063,1147.1172 Q513.6563,1147.3516 513.0469,1147.3516 L512.6406,1147.3516 L515.0938,1153.2266 Z " fill="#000000"/><text fill="#000000" font-family="sans-serif" font-size="12" font-style="italic" lengthAdjust="spacing" textLength="85" x="563.5" y="1146.0664">&#171;Value Object&#187;</text><text fill="#000000" font-family="sans-serif" font-size="14" lengthAdjust="spacing" textLength="155" x="528.5" y="1163.2363">OperationTypeStartDate</text><line style="stroke:#181818;stroke-width:0.5;" x1="500.5" x2="685.5" y1="1171.3125" y2="1171.3125"/><line style="stroke:#181818;stroke-width:0.5;" x1="500.5" x2="685.5" y1="1179.3125" y2="1179.3125"/></g><!--class OperationTypeEndDate--><g id="elem_OperationTypeEndDate"><rect codeLine="50" fill="#F1F1F1" height="58.7031" id="OperationTypeEndDate" rx="2.5" ry="2.5" style="stroke:#181818;stroke-width:0.5;" width="182" x="120" y="1128.6094"/><ellipse cx="135" cy="1149.9609" fill="#F04800" rx="11" ry="11" style="stroke:#181818;stroke-width:1.0;"/><path d="M135.5938,1153.2266 L138.0625,1147.3516 L137.6719,1147.3516 Q137.0625,1147.3516 136.7969,1147.1172 Q136.5313,1146.8828 136.5313,1146.4922 Q136.5313,1146.1172 136.7969,1145.8828 Q137.0625,1145.6484 137.6719,1145.6484 L139.9531,1145.6484 Q140.5625,1145.6484 140.8281,1145.8828 Q141.0938,1146.1172 141.0938,1146.4922 Q141.0938,1146.9609 140.6875,1147.2266 Q140.5,1147.3516 139.9063,1147.3516 L136.4219,1155.7109 L134.7813,1155.7109 L131.2969,1147.3516 Q130.7031,1147.3516 130.5156,1147.2266 Q130.1094,1146.9609 130.1094,1146.4922 Q130.1094,1146.1172 130.375,1145.8828 Q130.6406,1145.6484 131.25,1145.6484 L133.5469,1145.6484 Q134.1563,1145.6484 134.4063,1145.8828 Q134.6719,1146.1172 134.6719,1146.4922 Q134.6719,1146.8828 134.4063,1147.1172 Q134.1563,1147.3516 133.5469,1147.3516 L133.1406,1147.3516 L135.5938,1153.2266 Z " fill="#000000"/><text fill="#000000" font-family="sans-serif" font-size="12" font-style="italic" lengthAdjust="spacing" textLength="85" x="181.5" y="1146.0664">&#171;Value Object&#187;</text><text fill="#000000" font-family="sans-serif" font-size="14" lengthAdjust="spacing" textLength="150" x="149" y="1163.2363">OperationTypeEndDate</text><line style="stroke:#181818;stroke-width:0.5;" x1="121" x2="301" y1="1171.3125" y2="1171.3125"/><line style="stroke:#181818;stroke-width:0.5;" x1="121" x2="301" y1="1179.3125" y2="1179.3125"/></g><!--class ActivationStatus--><g id="elem_ActivationStatus"><rect codeLine="51" fill="#F1F1F1" height="58.7031" id="ActivationStatus" rx="2.5" ry="2.5" style="stroke:#181818;stroke-width:0.5;" width="133" x="207.5" y="1006.6094"/><ellipse cx="222.5" cy="1027.9609" fill="#F04800" rx="11" ry="11" style="stroke:#181818;stroke-width:1.0;"/><path d="M223.0938,1031.2266 L225.5625,1025.3516 L225.1719,1025.3516 Q224.5625,1025.3516 224.2969,1025.1172 Q224.0313,1024.8828 224.0313,1024.4922 Q224.0313,1024.1172 224.2969,1023.8828 Q224.5625,1023.6484 225.1719,1023.6484 L227.4531,1023.6484 Q228.0625,1023.6484 228.3281,1023.8828 Q228.5938,1024.1172 228.5938,1024.4922 Q228.5938,1024.9609 228.1875,1025.2266 Q228,1025.3516 227.4063,1025.3516 L223.9219,1033.7109 L222.2813,1033.7109 L218.7969,1025.3516 Q218.2031,1025.3516 218.0156,1025.2266 Q217.6094,1024.9609 217.6094,1024.4922 Q217.6094,1024.1172 217.875,1023.8828 Q218.1406,1023.6484 218.75,1023.6484 L221.0469,1023.6484 Q221.6563,1023.6484 221.9063,1023.8828 Q222.1719,1024.1172 222.1719,1024.4922 Q222.1719,1024.8828 221.9063,1025.1172 Q221.6563,1025.3516 221.0469,1025.3516 L220.6406,1025.3516 L223.0938,1031.2266 Z " fill="#000000"/><text fill="#000000" font-family="sans-serif" font-size="12" font-style="italic" lengthAdjust="spacing" textLength="85" x="244.5" y="1024.0664">&#171;Value Object&#187;</text><text fill="#000000" font-family="sans-serif" font-size="14" lengthAdjust="spacing" textLength="101" x="236.5" y="1041.2363">ActivationStatus</text><line style="stroke:#181818;stroke-width:0.5;" x1="208.5" x2="339.5" y1="1049.3125" y2="1049.3125"/><line style="stroke:#181818;stroke-width:0.5;" x1="208.5" x2="339.5" y1="1057.3125" y2="1057.3125"/></g><!--class RequiredSpecialist--><g id="elem_RequiredSpecialist"><rect codeLine="53" fill="#F1F1F1" height="58.7031" id="RequiredSpecialist" rx="2.5" ry="2.5" style="stroke:#181818;stroke-width:0.5;" width="150" x="22" y="1006.6094"/><ellipse cx="37" cy="1027.9609" fill="#ADD1B2" rx="11" ry="11" style="stroke:#181818;stroke-width:1.0;"/><path d="M35.8594,1028.7578 L35.8594,1031.2578 L40.1875,1031.2578 L40.1875,1030.3359 Q40.1875,1029.7266 40.4219,1029.4609 Q40.6719,1029.1953 41.0469,1029.1953 Q41.4219,1029.1953 41.6563,1029.4609 Q41.8906,1029.7266 41.8906,1030.3359 L41.8906,1032.9609 L33.8906,1032.9609 Q33.2656,1032.9609 33,1032.7266 Q32.75,1032.4922 32.75,1032.1016 Q32.75,1031.7266 33.0156,1031.4922 Q33.2813,1031.2578 33.8906,1031.2578 L34.1563,1031.2578 L34.1563,1024.6016 L33.8906,1024.6016 Q33.2656,1024.6016 33,1024.3672 Q32.75,1024.1328 32.75,1023.7422 Q32.75,1023.3672 33,1023.1328 Q33.2656,1022.8984 33.8906,1022.8984 L41.5156,1022.8984 L41.5156,1025.4922 Q41.5156,1026.1016 41.2813,1026.3672 Q41.0625,1026.6172 40.6719,1026.6172 Q40.2969,1026.6172 40.0625,1026.3672 Q39.8281,1026.1016 39.8281,1025.4922 L39.8281,1024.6016 L35.8594,1024.6016 L35.8594,1027.0547 L37.3438,1027.0547 Q37.3438,1026.3984 37.4688,1026.2109 Q37.7344,1025.8047 38.2031,1025.8047 Q38.5781,1025.8047 38.8125,1026.0703 Q39.0469,1026.3203 39.0469,1026.9297 L39.0469,1028.8984 Q39.0469,1029.4453 38.9219,1029.6328 Q38.6563,1030.0234 38.2031,1030.0234 Q37.7344,1030.0234 37.4688,1029.6172 Q37.3438,1029.4297 37.3438,1028.7578 L35.8594,1028.7578 Z " fill="#000000"/><text fill="#000000" font-family="sans-serif" font-size="12" font-style="italic" lengthAdjust="spacing" textLength="44" x="88" y="1024.0664">&#171;Entity&#187;</text><text fill="#000000" font-family="sans-serif" font-size="14" lengthAdjust="spacing" textLength="118" x="51" y="1041.2363">RequiredSpecialist</text><line style="stroke:#181818;stroke-width:0.5;" x1="23" x2="171" y1="1049.3125" y2="1049.3125"/><line style="stroke:#181818;stroke-width:0.5;" x1="23" x2="171" y1="1057.3125" y2="1057.3125"/></g><!--class SpecialistCount--><g id="elem_SpecialistCount"><rect codeLine="54" fill="#F1F1F1" height="58.7031" id="SpecialistCount" rx="2.5" ry="2.5" style="stroke:#181818;stroke-width:0.5;" width="130" x="32" y="886.6094"/><ellipse cx="47" cy="907.9609" fill="#F04800" rx="11" ry="11" style="stroke:#181818;stroke-width:1.0;"/><path d="M47.5938,911.2266 L50.0625,905.3516 L49.6719,905.3516 Q49.0625,905.3516 48.7969,905.1172 Q48.5313,904.8828 48.5313,904.4922 Q48.5313,904.1172 48.7969,903.8828 Q49.0625,903.6484 49.6719,903.6484 L51.9531,903.6484 Q52.5625,903.6484 52.8281,903.8828 Q53.0938,904.1172 53.0938,904.4922 Q53.0938,904.9609 52.6875,905.2266 Q52.5,905.3516 51.9063,905.3516 L48.4219,913.7109 L46.7813,913.7109 L43.2969,905.3516 Q42.7031,905.3516 42.5156,905.2266 Q42.1094,904.9609 42.1094,904.4922 Q42.1094,904.1172 42.375,903.8828 Q42.6406,903.6484 43.25,903.6484 L45.5469,903.6484 Q46.1563,903.6484 46.4063,903.8828 Q46.6719,904.1172 46.6719,904.4922 Q46.6719,904.8828 46.4063,905.1172 Q46.1563,905.3516 45.5469,905.3516 L45.1406,905.3516 L47.5938,911.2266 Z " fill="#000000"/><text fill="#000000" font-family="sans-serif" font-size="12" font-style="italic" lengthAdjust="spacing" textLength="85" x="67.5" y="904.0664">&#171;Value Object&#187;</text><text fill="#000000" font-family="sans-serif" font-size="14" lengthAdjust="spacing" textLength="98" x="61" y="921.2363">SpecialistCount</text><line style="stroke:#181818;stroke-width:0.5;" x1="33" x2="161" y1="929.3125" y2="929.3125"/><line style="stroke:#181818;stroke-width:0.5;" x1="33" x2="161" y1="937.3125" y2="937.3125"/></g><!--class OperationPhase--><g id="elem_OperationPhase"><rect codeLine="56" fill="#F1F1F1" height="58.7031" id="OperationPhase" rx="2.5" ry="2.5" style="stroke:#181818;stroke-width:0.5;" width="135" x="551.5" y="1006.6094"/><ellipse cx="566.5" cy="1027.9609" fill="#ADD1B2" rx="11" ry="11" style="stroke:#181818;stroke-width:1.0;"/><path d="M565.3594,1028.7578 L565.3594,1031.2578 L569.6875,1031.2578 L569.6875,1030.3359 Q569.6875,1029.7266 569.9219,1029.4609 Q570.1719,1029.1953 570.5469,1029.1953 Q570.9219,1029.1953 571.1563,1029.4609 Q571.3906,1029.7266 571.3906,1030.3359 L571.3906,1032.9609 L563.3906,1032.9609 Q562.7656,1032.9609 562.5,1032.7266 Q562.25,1032.4922 562.25,1032.1016 Q562.25,1031.7266 562.5156,1031.4922 Q562.7813,1031.2578 563.3906,1031.2578 L563.6563,1031.2578 L563.6563,1024.6016 L563.3906,1024.6016 Q562.7656,1024.6016 562.5,1024.3672 Q562.25,1024.1328 562.25,1023.7422 Q562.25,1023.3672 562.5,1023.1328 Q562.7656,1022.8984 563.3906,1022.8984 L571.0156,1022.8984 L571.0156,1025.4922 Q571.0156,1026.1016 570.7813,1026.3672 Q570.5625,1026.6172 570.1719,1026.6172 Q569.7969,1026.6172 569.5625,1026.3672 Q569.3281,1026.1016 569.3281,1025.4922 L569.3281,1024.6016 L565.3594,1024.6016 L565.3594,1027.0547 L566.8438,1027.0547 Q566.8438,1026.3984 566.9688,1026.2109 Q567.2344,1025.8047 567.7031,1025.8047 Q568.0781,1025.8047 568.3125,1026.0703 Q568.5469,1026.3203 568.5469,1026.9297 L568.5469,1028.8984 Q568.5469,1029.4453 568.4219,1029.6328 Q568.1563,1030.0234 567.7031,1030.0234 Q567.2344,1030.0234 566.9688,1029.6172 Q566.8438,1029.4297 566.8438,1028.7578 L565.3594,1028.7578 Z " fill="#000000"/><text fill="#000000" font-family="sans-serif" font-size="12" font-style="italic" lengthAdjust="spacing" textLength="44" x="610" y="1024.0664">&#171;Entity&#187;</text><text fill="#000000" font-family="sans-serif" font-size="14" lengthAdjust="spacing" textLength="103" x="580.5" y="1041.2363">OperationPhase</text><line style="stroke:#181818;stroke-width:0.5;" x1="552.5" x2="685.5" y1="1049.3125" y2="1049.3125"/><line style="stroke:#181818;stroke-width:0.5;" x1="552.5" x2="685.5" y1="1057.3125" y2="1057.3125"/></g><!--class PhaseName--><g id="elem_PhaseName"><rect codeLine="57" fill="#F1F1F1" height="58.7031" id="PhaseName" rx="2.5" ry="2.5" style="stroke:#181818;stroke-width:0.5;" width="113" x="407.5" y="886.6094"/><ellipse cx="422.5" cy="907.9609" fill="#F04800" rx="11" ry="11" style="stroke:#181818;stroke-width:1.0;"/><path d="M423.0938,911.2266 L425.5625,905.3516 L425.1719,905.3516 Q424.5625,905.3516 424.2969,905.1172 Q424.0313,904.8828 424.0313,904.4922 Q424.0313,904.1172 424.2969,903.8828 Q424.5625,903.6484 425.1719,903.6484 L427.4531,903.6484 Q428.0625,903.6484 428.3281,903.8828 Q428.5938,904.1172 428.5938,904.4922 Q428.5938,904.9609 428.1875,905.2266 Q428,905.3516 427.4063,905.3516 L423.9219,913.7109 L422.2813,913.7109 L418.7969,905.3516 Q418.2031,905.3516 418.0156,905.2266 Q417.6094,904.9609 417.6094,904.4922 Q417.6094,904.1172 417.875,903.8828 Q418.1406,903.6484 418.75,903.6484 L421.0469,903.6484 Q421.6563,903.6484 421.9063,903.8828 Q422.1719,904.1172 422.1719,904.4922 Q422.1719,904.8828 421.9063,905.1172 Q421.6563,905.3516 421.0469,905.3516 L420.6406,905.3516 L423.0938,911.2266 Z " fill="#000000"/><text fill="#000000" font-family="sans-serif" font-size="12" font-style="italic" lengthAdjust="spacing" textLength="85" x="434.5" y="904.0664">&#171;Value Object&#187;</text><text fill="#000000" font-family="sans-serif" font-size="14" lengthAdjust="spacing" textLength="76" x="439" y="921.2363">PhaseName</text><line style="stroke:#181818;stroke-width:0.5;" x1="408.5" x2="519.5" y1="929.3125" y2="929.3125"/><line style="stroke:#181818;stroke-width:0.5;" x1="408.5" x2="519.5" y1="937.3125" y2="937.3125"/></g><!--class PhaseDuration--><g id="elem_PhaseDuration"><rect codeLine="58" fill="#F1F1F1" height="58.7031" id="PhaseDuration" rx="2.5" ry="2.5" style="stroke:#181818;stroke-width:0.5;" width="126" x="556" y="886.6094"/><ellipse cx="571" cy="907.9609" fill="#F04800" rx="11" ry="11" style="stroke:#181818;stroke-width:1.0;"/><path d="M571.5938,911.2266 L574.0625,905.3516 L573.6719,905.3516 Q573.0625,905.3516 572.7969,905.1172 Q572.5313,904.8828 572.5313,904.4922 Q572.5313,904.1172 572.7969,903.8828 Q573.0625,903.6484 573.6719,903.6484 L575.9531,903.6484 Q576.5625,903.6484 576.8281,903.8828 Q577.0938,904.1172 577.0938,904.4922 Q577.0938,904.9609 576.6875,905.2266 Q576.5,905.3516 575.9063,905.3516 L572.4219,913.7109 L570.7813,913.7109 L567.2969,905.3516 Q566.7031,905.3516 566.5156,905.2266 Q566.1094,904.9609 566.1094,904.4922 Q566.1094,904.1172 566.375,903.8828 Q566.6406,903.6484 567.25,903.6484 L569.5469,903.6484 Q570.1563,903.6484 570.4063,903.8828 Q570.6719,904.1172 570.6719,904.4922 Q570.6719,904.8828 570.4063,905.1172 Q570.1563,905.3516 569.5469,905.3516 L569.1406,905.3516 L571.5938,911.2266 Z " fill="#000000"/><text fill="#000000" font-family="sans-serif" font-size="12" font-style="italic" lengthAdjust="spacing" textLength="85" x="589.5" y="904.0664">&#171;Value Object&#187;</text><text fill="#000000" font-family="sans-serif" font-size="14" lengthAdjust="spacing" textLength="94" x="585" y="921.2363">PhaseDuration</text><line style="stroke:#181818;stroke-width:0.5;" x1="557" x2="681" y1="929.3125" y2="929.3125"/><line style="stroke:#181818;stroke-width:0.5;" x1="557" x2="681" y1="937.3125" y2="937.3125"/></g><!--class OperationRequest--><g id="elem_OperationRequest"><rect codeLine="77" fill="#F1F1F1" height="58.7031" id="OperationRequest" rx="2.5" ry="2.5" style="stroke:#181818;stroke-width:0.5;" width="148" x="641" y="622.6094"/><ellipse cx="656" cy="643.9609" fill="#0099FF" rx="11" ry="11" style="stroke:#181818;stroke-width:1.0;"/><path d="M654.8438,645.1172 L654.8438,647.2578 L655.4531,647.2578 Q656.0781,647.2578 656.3281,647.4922 Q656.5938,647.7266 656.5938,648.1172 Q656.5938,648.4922 656.3281,648.7266 Q656.0781,648.9609 655.4531,648.9609 L652.875,648.9609 Q652.2656,648.9609 652,648.7266 Q651.7344,648.4922 651.7344,648.1016 Q651.7344,647.7266 652,647.4922 Q652.2656,647.2578 652.875,647.2578 L653.1406,647.2578 L653.1406,640.6016 L652.875,640.6016 Q652.2656,640.6016 652,640.3672 Q651.7344,640.1328 651.7344,639.7422 Q651.7344,639.3672 652,639.1328 Q652.2656,638.8984 652.875,638.8984 L656.7344,638.8984 Q658.5313,638.8984 659.5156,639.7891 Q660.5156,640.6797 660.5156,641.9609 Q660.5156,642.7578 660.0469,643.4141 Q659.5781,644.0703 658.6406,644.5703 Q659.1875,645.0391 659.7969,645.7891 Q660.1875,646.2578 660.8281,647.2578 Q661.4844,647.2578 661.6875,647.3984 Q662.0625,647.6484 662.0625,648.1172 Q662.0625,648.4922 661.7969,648.7266 Q661.5469,648.9609 660.9375,648.9609 L659.9531,648.9609 Q657.8906,645.7578 656.5313,645.1172 L654.8438,645.1172 Z M654.8438,643.4141 L656.1719,643.4141 Q656.9063,643.4141 657.5,643.1953 Q658.2813,642.8984 658.5469,642.5703 Q658.8125,642.2266 658.8125,641.8984 Q658.8125,641.4297 658.2969,641.0234 Q657.7813,640.6016 656.7969,640.6016 L654.8438,640.6016 L654.8438,643.4141 Z " fill="#000000"/><text fill="#000000" font-family="sans-serif" font-size="12" font-style="italic" lengthAdjust="spacing" textLength="73" x="691.5" y="640.0664">&#171;Root Entity&#187;</text><text fill="#000000" font-family="sans-serif" font-size="14" lengthAdjust="spacing" textLength="116" x="670" y="657.2363">OperationRequest</text><line style="stroke:#181818;stroke-width:0.5;" x1="642" x2="788" y1="665.3125" y2="665.3125"/><line style="stroke:#181818;stroke-width:0.5;" x1="642" x2="788" y1="673.3125" y2="673.3125"/></g><!--class OperationRequestID--><g id="elem_OperationRequestID"><rect codeLine="79" fill="#F1F1F1" height="58.7031" id="OperationRequestID" rx="2.5" ry="2.5" style="stroke:#181818;stroke-width:0.5;" width="161" x="630.5" y="502.6094"/><ellipse cx="645.5" cy="523.9609" fill="#F09800" rx="11" ry="11" style="stroke:#181818;stroke-width:1.0;"/><path d="M646.0938,527.2266 L648.5625,521.3516 L648.1719,521.3516 Q647.5625,521.3516 647.2969,521.1172 Q647.0313,520.8828 647.0313,520.4922 Q647.0313,520.1172 647.2969,519.8828 Q647.5625,519.6484 648.1719,519.6484 L650.4531,519.6484 Q651.0625,519.6484 651.3281,519.8828 Q651.5938,520.1172 651.5938,520.4922 Q651.5938,520.9609 651.1875,521.2266 Q651,521.3516 650.4063,521.3516 L646.9219,529.7109 L645.2813,529.7109 L641.7969,521.3516 Q641.2031,521.3516 641.0156,521.2266 Q640.6094,520.9609 640.6094,520.4922 Q640.6094,520.1172 640.875,519.8828 Q641.1406,519.6484 641.75,519.6484 L644.0469,519.6484 Q644.6563,519.6484 644.9063,519.8828 Q645.1719,520.1172 645.1719,520.4922 Q645.1719,520.8828 644.9063,521.1172 Q644.6563,521.3516 644.0469,521.3516 L643.6406,521.3516 L646.0938,527.2266 Z " fill="#000000"/><text fill="#000000" font-family="sans-serif" font-size="12" font-style="italic" lengthAdjust="spacing" textLength="105" x="671.5" y="520.0664">&#171;Unique Identifier&#187;</text><text fill="#000000" font-family="sans-serif" font-size="14" lengthAdjust="spacing" textLength="129" x="659.5" y="537.2363">OperationRequestID</text><line style="stroke:#181818;stroke-width:0.5;" x1="631.5" x2="790.5" y1="545.3125" y2="545.3125"/><line style="stroke:#181818;stroke-width:0.5;" x1="631.5" x2="790.5" y1="553.3125" y2="553.3125"/></g><!--class OperationDeadline--><g id="elem_OperationDeadline"><rect codeLine="80" fill="#F1F1F1" height="58.7031" id="OperationDeadline" rx="2.5" ry="2.5" style="stroke:#181818;stroke-width:0.5;" width="151" x="444.5" y="502.6094"/><ellipse cx="459.5" cy="523.9609" fill="#F04800" rx="11" ry="11" style="stroke:#181818;stroke-width:1.0;"/><path d="M460.0938,527.2266 L462.5625,521.3516 L462.1719,521.3516 Q461.5625,521.3516 461.2969,521.1172 Q461.0313,520.8828 461.0313,520.4922 Q461.0313,520.1172 461.2969,519.8828 Q461.5625,519.6484 462.1719,519.6484 L464.4531,519.6484 Q465.0625,519.6484 465.3281,519.8828 Q465.5938,520.1172 465.5938,520.4922 Q465.5938,520.9609 465.1875,521.2266 Q465,521.3516 464.4063,521.3516 L460.9219,529.7109 L459.2813,529.7109 L455.7969,521.3516 Q455.2031,521.3516 455.0156,521.2266 Q454.6094,520.9609 454.6094,520.4922 Q454.6094,520.1172 454.875,519.8828 Q455.1406,519.6484 455.75,519.6484 L458.0469,519.6484 Q458.6563,519.6484 458.9063,519.8828 Q459.1719,520.1172 459.1719,520.4922 Q459.1719,520.8828 458.9063,521.1172 Q458.6563,521.3516 458.0469,521.3516 L457.6406,521.3516 L460.0938,527.2266 Z " fill="#000000"/><text fill="#000000" font-family="sans-serif" font-size="12" font-style="italic" lengthAdjust="spacing" textLength="85" x="490.5" y="520.0664">&#171;Value Object&#187;</text><text fill="#000000" font-family="sans-serif" font-size="14" lengthAdjust="spacing" textLength="119" x="473.5" y="537.2363">OperationDeadline</text><line style="stroke:#181818;stroke-width:0.5;" x1="445.5" x2="594.5" y1="545.3125" y2="545.3125"/><line style="stroke:#181818;stroke-width:0.5;" x1="445.5" x2="594.5" y1="553.3125" y2="553.3125"/></g><!--class OperationPriority--><g id="elem_OperationPriority"><rect codeLine="81" fill="#F1F1F1" height="58.7031" id="OperationPriority" rx="2.5" ry="2.5" style="stroke:#181818;stroke-width:0.5;" width="139" x="559.5" y="742.6094"/><ellipse cx="574.5" cy="763.9609" fill="#F04800" rx="11" ry="11" style="stroke:#181818;stroke-width:1.0;"/><path d="M575.0938,767.2266 L577.5625,761.3516 L577.1719,761.3516 Q576.5625,761.3516 576.2969,761.1172 Q576.0313,760.8828 576.0313,760.4922 Q576.0313,760.1172 576.2969,759.8828 Q576.5625,759.6484 577.1719,759.6484 L579.4531,759.6484 Q580.0625,759.6484 580.3281,759.8828 Q580.5938,760.1172 580.5938,760.4922 Q580.5938,760.9609 580.1875,761.2266 Q580,761.3516 579.4063,761.3516 L575.9219,769.7109 L574.2813,769.7109 L570.7969,761.3516 Q570.2031,761.3516 570.0156,761.2266 Q569.6094,760.9609 569.6094,760.4922 Q569.6094,760.1172 569.875,759.8828 Q570.1406,759.6484 570.75,759.6484 L573.0469,759.6484 Q573.6563,759.6484 573.9063,759.8828 Q574.1719,760.1172 574.1719,760.4922 Q574.1719,760.8828 573.9063,761.1172 Q573.6563,761.3516 573.0469,761.3516 L572.6406,761.3516 L575.0938,767.2266 Z " fill="#000000"/><text fill="#000000" font-family="sans-serif" font-size="12" font-style="italic" lengthAdjust="spacing" textLength="85" x="599.5" y="760.0664">&#171;Value Object&#187;</text><text fill="#000000" font-family="sans-serif" font-size="14" lengthAdjust="spacing" textLength="107" x="588.5" y="777.2363">OperationPriority</text><line style="stroke:#181818;stroke-width:0.5;" x1="560.5" x2="697.5" y1="785.3125" y2="785.3125"/><line style="stroke:#181818;stroke-width:0.5;" x1="560.5" x2="697.5" y1="793.3125" y2="793.3125"/></g><!--reverse link ContactInformation to EmailAddress--><g id="link_ContactInformation_EmailAddress"><path codeLine="21" d="M1067.1375,813.5251 C1059.8275,863.9251 1046.44,956.2294 1039.13,1006.6094 " fill="none" id="ContactInformation-backto-EmailAddress" style="stroke:#181818;stroke-width:1.0;"/><polygon fill="#181818" points="1068.86,801.6494,1064.0402,807.0131,1067.1375,813.5251,1071.9574,808.1614,1068.86,801.6494" style="stroke:#181818;stroke-width:1.0;"/><text fill="#000000" font-family="sans-serif" font-size="13" lengthAdjust="spacing" textLength="7" x="1060.2843" y="822.954">1</text><text fill="#000000" font-family="sans-serif" font-size="13" lengthAdjust="spacing" textLength="7" x="1032.2678" y="995.9723">1</text></g><!--reverse link ContactInformation to PhoneNumber--><g id="link_ContactInformation_PhoneNumber"><path codeLine="22" d="M1090.6336,812.6062 C1113.1436,863.0062 1154.78,956.2294 1177.27,1006.6094 " fill="none" id="ContactInformation-backto-PhoneNumber" style="stroke:#181818;stroke-width:1.0;"/><polygon fill="#181818" points="1085.74,801.6494,1084.5345,808.759,1090.6336,812.6062,1091.8391,805.4966,1085.74,801.6494" style="stroke:#181818;stroke-width:1.0;"/><text fill="#000000" font-family="sans-serif" font-size="13" lengthAdjust="spacing" textLength="7" x="1080.6458" y="822.954">1</text><text fill="#000000" font-family="sans-serif" font-size="13" lengthAdjust="spacing" textLength="7" x="1166.7197" y="995.9723">1</text></g><!--reverse link Patient to FirstName--><g id="link_Patient_FirstName"><path codeLine="24" d="M1267.8095,692.9758 C1261.2595,711.3958 1256.78,723.9494 1250.22,742.3994 " fill="none" id="Patient-backto-FirstName" style="stroke:#181818;stroke-width:1.0;"/><polygon fill="#181818" points="1271.83,681.6694,1266.0509,685.9824,1267.8095,692.9758,1273.5886,688.6628,1271.83,681.6694" style="stroke:#181818;stroke-width:1.0;"/><text fill="#000000" font-family="sans-serif" font-size="13" lengthAdjust="spacing" textLength="7" x="1262.0106" y="702.9781">1</text><text fill="#000000" font-family="sans-serif" font-size="13" lengthAdjust="spacing" textLength="7" x="1244.69" y="731.7164">1</text></g><!--reverse link Patient to LastName--><g id="link_Patient_LastName"><path codeLine="25" d="M1315.6774,690.5981 C1332.2174,709.0181 1345.64,723.9494 1362.21,742.3994 " fill="none" id="Patient-backto-LastName" style="stroke:#181818;stroke-width:1.0;"/><polygon fill="#181818" points="1307.66,681.6694,1308.6925,688.8062,1315.6774,690.5981,1314.6449,683.4613,1307.66,681.6694" style="stroke:#181818;stroke-width:1.0;"/><text fill="#000000" font-family="sans-serif" font-size="13" lengthAdjust="spacing" textLength="7" x="1305.2305" y="702.9781">1</text><text fill="#000000" font-family="sans-serif" font-size="13" lengthAdjust="spacing" textLength="7" x="1348.8028" y="731.7164">1</text></g><!--reverse link Patient to FullName--><g id="link_Patient_FullName"><path codeLine="26" d="M1343.6737,681.7637 C1385.9437,701.3937 1435.21,724.2894 1479.1,744.6794 " fill="none" id="Patient-backto-FullName" style="stroke:#181818;stroke-width:1.0;"/><polygon fill="#181818" points="1332.79,676.7094,1336.5471,682.8644,1343.6737,681.7637,1339.9166,675.6087,1332.79,676.7094" style="stroke:#181818;stroke-width:1.0;"/><text fill="#000000" font-family="sans-serif" font-size="13" lengthAdjust="spacing" textLength="7" x="1340.4245" y="676.5845">1</text><text fill="#000000" font-family="sans-serif" font-size="13" lengthAdjust="spacing" textLength="7" x="1464.3613" y="737.6766">1</text></g><!--reverse link Patient to ContactInformation--><g id="link_Patient_ContactInformation"><path codeLine="27" d="M1220.9612,687.5704 C1188.2212,706.0604 1156.21,724.1294 1123.49,742.5994 " fill="none" id="Patient-backto-ContactInformation" style="stroke:#181818;stroke-width:1.0;"/><polygon fill="#181818" points="1231.41,681.6694,1224.2186,681.1369,1220.9612,687.5704,1228.1526,688.1028,1231.41,681.6694" style="stroke:#181818;stroke-width:1.0;"/><text fill="#000000" font-family="sans-serif" font-size="13" lengthAdjust="spacing" textLength="7" x="1216.4655" y="682.3787">1</text><text fill="#000000" font-family="sans-serif" font-size="13" lengthAdjust="spacing" textLength="7" x="1126.7691" y="731.9601">1</text></g><!--link Gender to Patient--><g id="link_Gender_Patient"><path codeLine="28" d="M1625.24,555.6294 C1619.45,557.7294 1613.62,559.7594 1608,561.6094 C1511.83,593.2394 1408.8884,619.9957 1344.3784,635.9657 " fill="none" id="Gender-to-Patient" style="stroke:#181818;stroke-width:1.0;"/><polygon fill="#181818" points="1332.73,638.8494,1339.5154,641.2903,1344.3784,635.9657,1337.593,633.5248,1332.73,638.8494" style="stroke:#181818;stroke-width:1.0;"/><text fill="#000000" font-family="sans-serif" font-size="13" lengthAdjust="spacing" textLength="7" x="1610.5192" y="555.1545">1</text><text fill="#000000" font-family="sans-serif" font-size="13" lengthAdjust="spacing" textLength="7" x="1340.3561" y="651.6504">1</text></g><!--link MedicalRecordNumber to Patient--><g id="link_MedicalRecordNumber_Patient"><path codeLine="29" d="M1449.5,561.6694 C1413.99,580.6394 1378.2456,599.7174 1343.3156,618.3674 " fill="none" id="MedicalRecordNumber-to-Patient" style="stroke:#181818;stroke-width:1.0;"/><polygon fill="#181818" points="1332.73,624.0194,1339.9068,624.722,1343.3156,618.3674,1336.1388,617.6649,1332.73,624.0194" style="stroke:#181818;stroke-width:1.0;"/><text fill="#000000" font-family="sans-serif" font-size="13" lengthAdjust="spacing" textLength="7" x="1430.7438" y="582.9781">1</text><text fill="#000000" font-family="sans-serif" font-size="13" lengthAdjust="spacing" textLength="7" x="1340.3561" y="616.4849">1</text></g><!--link DateOfBirth to Patient--><g id="link_DateOfBirth_Patient"><path codeLine="30" d="M1313.83,561.6694 C1307.28,580.0894 1302.8001,592.6428 1296.2401,611.0928 " fill="none" id="DateOfBirth-to-Patient" style="stroke:#181818;stroke-width:1.0;"/><polygon fill="#181818" points="1292.22,622.3994,1297.9989,618.0861,1296.2401,611.0928,1290.4612,615.406,1292.22,622.3994" style="stroke:#181818;stroke-width:1.0;"/><text fill="#000000" font-family="sans-serif" font-size="13" lengthAdjust="spacing" textLength="7" x="1304.0106" y="582.9781">1</text><text fill="#000000" font-family="sans-serif" font-size="13" lengthAdjust="spacing" textLength="7" x="1286.69" y="611.7164">1</text></g><!--link MedicalConditions to Patient--><g id="link_MedicalConditions_Patient"><path codeLine="31" d="M1188.77,561.6694 C1207.97,580.0894 1224.1931,595.6393 1243.4131,614.0893 " fill="none" id="MedicalConditions-to-Patient" style="stroke:#181818;stroke-width:1.0;"/><polygon fill="#181818" points="1252.07,622.3994,1250.5116,615.3587,1243.4131,614.0893,1244.9715,621.13,1252.07,622.3994" style="stroke:#181818;stroke-width:1.0;"/><text fill="#000000" font-family="sans-serif" font-size="13" lengthAdjust="spacing" textLength="5" x="1189.3944" y="582.9781">*</text><text fill="#000000" font-family="sans-serif" font-size="13" lengthAdjust="spacing" textLength="7" x="1237.7572" y="611.7164">1</text></g><!--link EmergencyContact to Patient--><g id="link_EmergencyContact_Patient"><path codeLine="32" d="M1048.56,561.6694 C1105.17,583.3594 1170.3041,608.3167 1220.0341,627.3667 " fill="none" id="EmergencyContact-to-Patient" style="stroke:#181818;stroke-width:1.0;"/><polygon fill="#181818" points="1231.24,631.6594,1227.0679,625.7777,1220.0341,627.3667,1224.2061,633.2484,1231.24,631.6594" style="stroke:#181818;stroke-width:1.0;"/><text fill="#000000" font-family="sans-serif" font-size="13" lengthAdjust="spacing" textLength="7" x="1056.2161" y="582.9781">1</text><text fill="#000000" font-family="sans-serif" font-size="13" lengthAdjust="spacing" textLength="7" x="1216.6097" y="625.1993">1</text></g><!--link DoctorID to Doctor--><g id="link_DoctorID_Doctor"><path codeLine="39" d="M845,139.7394 C845,162.6494 845,182.6194 845,205.5194 " fill="none" id="DoctorID-to-Doctor" style="stroke:#181818;stroke-width:1.0;"/><polygon fill="#181818" points="845,217.5194,849,211.5194,845,205.5194,841,211.5194,845,217.5194" style="stroke:#181818;stroke-width:1.0;"/><text fill="#000000" font-family="sans-serif" font-size="13" lengthAdjust="spacing" textLength="51" x="846" y="184.1045">identifies</text><text fill="#000000" font-family="sans-serif" font-size="13" lengthAdjust="spacing" textLength="7" x="837.3109" y="160.7067">1</text><text fill="#000000" font-family="sans-serif" font-size="13" lengthAdjust="spacing" textLength="7" x="837.2344" y="206.8626">1</text></g><!--link ActivationStatus to OperationType--><g id="link_ActivationStatus_OperationType"><path codeLine="60" d="M304.42,1065.8494 C324.53,1084.8494 342.0468,1101.4089 362.1068,1120.3589 " fill="none" id="ActivationStatus-to-OperationType" style="stroke:#181818;stroke-width:1.0;"/><polygon fill="#181818" points="370.83,1128.5994,369.2152,1121.5714,362.1068,1120.3589,363.7216,1127.3869,370.83,1128.5994" style="stroke:#181818;stroke-width:1.0;"/><text fill="#000000" font-family="sans-serif" font-size="13" lengthAdjust="spacing" textLength="7" x="302.7199" y="1086.8384">1</text><text fill="#000000" font-family="sans-serif" font-size="13" lengthAdjust="spacing" textLength="7" x="356.4647" y="1117.9601">1</text></g><!--link OperationTypeID to OperationType--><g id="link_OperationTypeID_OperationType"><path codeLine="63" d="M435.22,1065.8494 C428.1,1084.8494 423.0154,1098.4142 415.9054,1117.3642 " fill="none" id="OperationTypeID-to-OperationType" style="stroke:#181818;stroke-width:1.0;"/><polygon fill="#181818" points="411.69,1128.5994,417.5428,1124.3869,415.9054,1117.3642,410.0526,1121.5766,411.69,1128.5994" style="stroke:#181818;stroke-width:1.0;"/><text fill="#000000" font-family="sans-serif" font-size="13" lengthAdjust="spacing" textLength="7" x="425.4086" y="1086.8384">1</text><text fill="#000000" font-family="sans-serif" font-size="13" lengthAdjust="spacing" textLength="7" x="406.2628" y="1117.9601">1</text></g><!--reverse link OperationType to OperationTypeName--><g id="link_OperationType_OperationTypeName"><path codeLine="64" d="M344.5519,1193.9778 C314.6319,1212.4678 286.04,1230.1294 256.14,1248.5994 " fill="none" id="OperationType-backto-OperationTypeName" style="stroke:#181818;stroke-width:1.0;"/><polygon fill="#181818" points="354.76,1187.6694,347.5532,1187.4209,344.5519,1193.9778,351.7588,1194.2263,354.76,1187.6694" style="stroke:#181818;stroke-width:1.0;"/><text fill="#000000" font-family="sans-serif" font-size="13" lengthAdjust="spacing" textLength="7" x="337.5011" y="1208.9781">1</text><text fill="#000000" font-family="sans-serif" font-size="13" lengthAdjust="spacing" textLength="7" x="258.4675" y="1237.9601">1</text></g><!--reverse link OperationType to EstimatedDuration--><g id="link_OperationType_EstimatedDuration"><path codeLine="65" d="M401,1199.6694 C401,1218.0894 401,1229.9494 401,1248.3994 " fill="none" id="OperationType-backto-EstimatedDuration" style="stroke:#181818;stroke-width:1.0;"/><polygon fill="#181818" points="401,1187.6694,397,1193.6694,401,1199.6694,405,1193.6694,401,1187.6694" style="stroke:#181818;stroke-width:1.0;"/><text fill="#000000" font-family="sans-serif" font-size="13" lengthAdjust="spacing" textLength="7" x="393.2781" y="1208.9781">1</text><text fill="#000000" font-family="sans-serif" font-size="13" lengthAdjust="spacing" textLength="7" x="393.2344" y="1237.7164">1</text></g><!--reverse link OperationType to OperationTypeVersion--><g id="link_OperationType_OperationTypeVersion"><path codeLine="66" d="M458.9837,1193.8369 C489.8437,1212.3269 519.57,1230.1294 550.41,1248.5994 " fill="none" id="OperationType-backto-OperationTypeVersion" style="stroke:#181818;stroke-width:1.0;"/><polygon fill="#181818" points="448.69,1187.6694,451.781,1194.1844,458.9837,1193.8369,455.8927,1187.3219,448.69,1187.6694" style="stroke:#181818;stroke-width:1.0;"/><text fill="#000000" font-family="sans-serif" font-size="13" lengthAdjust="spacing" textLength="7" x="450.8042" y="1208.9781">1</text><text fill="#000000" font-family="sans-serif" font-size="13" lengthAdjust="spacing" textLength="7" x="532.2341" y="1237.9601">1</text></g><!--reverse link OperationType to OperationTypeStartDate--><g id="link_OperationType_OperationTypeStartDate"><path codeLine="67" d="M476.75,1158.1094 C488.27,1158.1094 487.79,1158.1094 499.32,1158.1094 " fill="none" id="OperationType-backto-OperationTypeStartDate" style="stroke:#181818;stroke-width:1.0;"/><polygon fill="#181818" points="464.75,1158.1094,470.75,1162.1094,476.75,1158.1094,470.75,1154.1094,464.75,1158.1094" style="stroke:#181818;stroke-width:1.0;"/><text fill="#000000" font-family="sans-serif" font-size="13" lengthAdjust="spacing" textLength="7" x="472.5258" y="1154.717">1</text><text fill="#000000" font-family="sans-serif" font-size="13" lengthAdjust="spacing" textLength="7" x="484.576" y="1154.9928">1</text></g><!--link OperationTypeEndDate to OperationType--><g id="link_OperationTypeEndDate_OperationType"><path codeLine="68" d="M302.29,1158.1094 C313.99,1158.1094 313.68,1158.1094 325.38,1158.1094 " fill="none" id="OperationTypeEndDate-to-OperationType" style="stroke:#181818;stroke-width:1.0;"/><polygon fill="#181818" points="337.38,1158.1094,331.38,1154.1094,325.38,1158.1094,331.38,1162.1094,337.38,1158.1094" style="stroke:#181818;stroke-width:1.0;"/><text fill="#000000" font-family="sans-serif" font-size="13" lengthAdjust="spacing" textLength="7" x="310.1398" y="1154.9688">1</text><text fill="#000000" font-family="sans-serif" font-size="13" lengthAdjust="spacing" textLength="7" x="322.6193" y="1154.717">1</text></g><!--link RequiredSpecialist to OperationType--><g id="link_RequiredSpecialist_OperationType"><path codeLine="69" d="M142.8,1065.6394 C157.52,1074.0794 174.14,1082.8494 190,1089.6094 C245.5,1113.2494 262.64,1109.9294 320,1128.6094 C325.67,1130.4594 320.1912,1128.5493 326.0612,1130.5493 " fill="none" id="RequiredSpecialist-to-OperationType" style="stroke:#181818;stroke-width:1.0;"/><polygon fill="#181818" points="337.42,1134.4194,333.0306,1128.6981,326.0612,1130.5493,330.4506,1136.2706,337.42,1134.4194" style="stroke:#181818;stroke-width:1.0;"/><text fill="#000000" font-family="sans-serif" font-size="13" lengthAdjust="spacing" textLength="5" x="146.7306" y="1086.9419">*</text><text fill="#000000" font-family="sans-serif" font-size="13" lengthAdjust="spacing" textLength="7" x="322.6639" y="1128.2878">1</text></g><!--link SpecialistCount to RequiredSpecialist--><g id="link_SpecialistCount_RequiredSpecialist"><path codeLine="70" d="M97,945.6694 C97,964.0894 97,987.9494 97,1006.3994 " fill="none" id="SpecialistCount-RequiredSpecialist" style="stroke:#181818;stroke-width:1.0;"/><text fill="#000000" font-family="sans-serif" font-size="13" lengthAdjust="spacing" textLength="7" x="89.2781" y="966.9781">1</text><text fill="#000000" font-family="sans-serif" font-size="13" lengthAdjust="spacing" textLength="7" x="89.2344" y="995.7164">1</text></g><!--link OperationPhase to OperationType--><g id="link_OperationPhase_OperationType"><path codeLine="71" d="M574.42,1065.6094 C561.51,1073.5994 547.31,1082.1394 534,1089.6094 C510.07,1103.0394 493.8859,1111.5683 470.5559,1123.2183 " fill="none" id="OperationPhase-to-OperationType" style="stroke:#181818;stroke-width:1.0;"/><polygon fill="#181818" points="459.82,1128.5794,466.975,1129.4775,470.5559,1123.2183,463.4009,1122.3202,459.82,1128.5794" style="stroke:#181818;stroke-width:1.0;"/><text fill="#000000" font-family="sans-serif" font-size="13" lengthAdjust="spacing" textLength="5" x="559.7098" y="1086.9057">*</text><text fill="#000000" font-family="sans-serif" font-size="13" lengthAdjust="spacing" textLength="7" x="464.9213" y="1117.9357">1</text></g><!--link PhaseName to OperationPhase--><g id="link_PhaseName_OperationPhase"><path codeLine="72" d="M501.52,945.6694 C525.8,964.1594 557.29,988.1294 581.56,1006.5994 " fill="none" id="PhaseName-OperationPhase" style="stroke:#181818;stroke-width:1.0;"/><text fill="#000000" font-family="sans-serif" font-size="13" lengthAdjust="spacing" textLength="7" x="501.5366" y="966.9781">1</text><text fill="#000000" font-family="sans-serif" font-size="13" lengthAdjust="spacing" textLength="5" x="567.8231" y="995.9601">*</text></g><!--link PhaseDuration to OperationPhase--><g id="link_PhaseDuration_OperationPhase"><path codeLine="73" d="M619,945.6694 C619,964.0894 619,987.9494 619,1006.3994 " fill="none" id="PhaseDuration-OperationPhase" style="stroke:#181818;stroke-width:1.0;"/><text fill="#000000" font-family="sans-serif" font-size="13" lengthAdjust="spacing" textLength="7" x="611.2781" y="966.9781">1</text><text fill="#000000" font-family="sans-serif" font-size="13" lengthAdjust="spacing" textLength="5" x="613.4531" y="995.7164">*</text></g><!--link OperationRequestID to OperationRequest--><g id="link_OperationRequestID_OperationRequest"><path codeLine="84" d="M711.97,561.6694 C712.59,580.0894 712.9905,591.9564 713.6205,610.4064 " fill="none" id="OperationRequestID-to-OperationRequest" style="stroke:#181818;stroke-width:1.0;"/><polygon fill="#181818" points="714.03,622.3994,717.8229,616.2664,713.6205,610.4064,709.8276,616.5394,714.03,622.3994" style="stroke:#181818;stroke-width:1.0;"/><text fill="#000000" font-family="sans-serif" font-size="13" lengthAdjust="spacing" textLength="7" x="704.4482" y="582.9781">1</text><text fill="#000000" font-family="sans-serif" font-size="13" lengthAdjust="spacing" textLength="7" x="706.0522" y="611.7164">1</text></g><!--link OperationDeadline to OperationRequest--><g id="link_OperationDeadline_OperationRequest"><path codeLine="85" d="M567.2,561.6694 C597.75,580.1594 627.1036,597.9164 657.6236,616.3864 " fill="none" id="OperationDeadline-to-OperationRequest" style="stroke:#181818;stroke-width:1.0;"/><polygon fill="#181818" points="667.89,622.5994,664.8278,616.0708,657.6236,616.3864,660.6858,622.915,667.89,622.5994" style="stroke:#181818;stroke-width:1.0;"/><text fill="#000000" font-family="sans-serif" font-size="13" lengthAdjust="spacing" textLength="7" x="569.2131" y="582.9781">1</text><text fill="#000000" font-family="sans-serif" font-size="13" lengthAdjust="spacing" textLength="7" x="649.8191" y="611.9601">1</text></g><!--reverse link OperationRequest to OperationPriority--><g id="link_OperationRequest_OperationPriority"><path codeLine="86" d="M687.1138,691.3683 C673.6938,709.7883 663.37,723.9494 649.92,742.3994 " fill="none" id="OperationRequest-backto-OperationPriority" style="stroke:#181818;stroke-width:1.0;"/><polygon fill="#181818" points="694.18,681.6694,687.4139,684.1634,687.1138,691.3683,693.8799,688.8742,694.18,681.6694" style="stroke:#181818;stroke-width:1.0;"/><text fill="#000000" font-family="sans-serif" font-size="13" lengthAdjust="spacing" textLength="7" x="682.164" y="702.9781">1</text><text fill="#000000" font-family="sans-serif" font-size="13" lengthAdjust="spacing" textLength="7" x="646.7306" y="731.7164">1</text></g><!--link Doctor to OperationRequest--><g id="link_Doctor_OperationRequest"><path codeLine="88" d="M845,276.9594 C845,294.9694 845,318.6394 845,339.6094 C845,339.6094 845,339.6094 845,533.1094 C845,572.8894 816.3733,599.6964 783.2533,619.4464 " fill="none" id="Doctor-to-OperationRequest" style="stroke:#181818;stroke-width:1.0;"/><polygon fill="#181818" points="778.1,622.5194,787.8786,621.3454,782.3944,619.9585,783.7813,614.4743,778.1,622.5194" style="stroke:#181818;stroke-width:1.0;"/><text fill="#000000" font-family="sans-serif" font-size="13" lengthAdjust="spacing" textLength="43" x="846" y="416.1045">creates</text><text fill="#000000" font-family="sans-serif" font-size="13" lengthAdjust="spacing" textLength="7" x="837.3328" y="297.7315">1</text><text fill="#000000" font-family="sans-serif" font-size="13" lengthAdjust="spacing" textLength="5" x="786.3563" y="611.8626">*</text></g><!--reverse link Patient to OperationRequest--><g id="link_Patient_OperationRequest"><path codeLine="89" d="M1225.32,652.1094 C1124.89,652.1094 906.2,652.1094 789.13,652.1094 " fill="none" id="Patient-backto-OperationRequest" style="stroke:#181818;stroke-width:1.0;"/><polygon fill="#181818" points="1231.32,652.1094,1222.32,648.1094,1226.32,652.1094,1222.32,656.1094,1231.32,652.1094" style="stroke:#181818;stroke-width:1.0;"/><text fill="#000000" font-family="sans-serif" font-size="13" lengthAdjust="spacing" textLength="61" x="979.75" y="645.6045">pertains to</text><text fill="#000000" font-family="sans-serif" font-size="13" lengthAdjust="spacing" textLength="5" x="1218.5092" y="648.4771">*</text><text fill="#000000" font-family="sans-serif" font-size="13" lengthAdjust="spacing" textLength="5" x="797.0325" y="648.8129">*</text></g><!--link OperationRequest to OperationType--><g id="link_OperationRequest_OperationType"><path codeLine="90" d="M729.41,681.9094 C739.8,705.3294 752,739.5494 752,771.1094 C752,771.1094 752,771.1094 752,1037.1094 C752,1155.4794 571.84,1105.0794 482,1128.6094 C476.38,1130.0794 476.3186,1129.9854 470.5386,1131.7854 " fill="none" id="OperationRequest-to-OperationType" style="stroke:#181818;stroke-width:1.0;"/><polygon fill="#181818" points="464.81,1133.5694,474.5923,1134.7125,469.5839,1132.0827,472.2136,1127.0743,464.81,1133.5694" style="stroke:#181818;stroke-width:1.0;"/><text fill="#000000" font-family="sans-serif" font-size="13" lengthAdjust="spacing" textLength="49" x="753" y="921.6045">contains</text><text fill="#000000" font-family="sans-serif" font-size="13" lengthAdjust="spacing" textLength="5" x="726.7548" y="702.9102">*</text><text fill="#000000" font-family="sans-serif" font-size="13" lengthAdjust="spacing" textLength="7" x="472.5927" y="1127.3395">1</text></g><!--SRC=[dPRTRk8m48MloLDOxSssAXALLgkbgf1OVbP8snP1stit6S2xmQRsf1Ag-kxhE0auYGC6Re8qvxF7dZEJ8CCOoClyzWUPGGmVb2CPYZLbd3o82E8WcDBm7rq2cL9amB6_N4fOKWJo6RH671bkYn2vl_yskxdiTBhTyVYAp8H0aYbwlS-l86WDOgeK-Gqy0fcANsyk5vtlFpkTA_9AumJ8qzjV2B7N8rgUgnyWOY6DPn0A6JqcwpSBxHhqXRDtpKuYdG9RC90bVgXJVLhyOX9N9suv43nYo0HNlk1e3N89FDng56c8_XnbSJ-A92ZllQOhmQ5o7qt8hb1vNXE-479DqxDfjYWHiMeqPbBX8rs3Rpf_w6dwSHB7NdeDr9E-kBqWr-rss_onR- -ushetlVR-d6cidMpQrvagStJGsfsh8RuxHqEy8Hs7CcyB4wt6N4tW5DfkFxIIvUsBQuUivcJNOb_xuJ0K8GgvcmtxqP05Zao6ebMDTZBqwszzs49l9vTlU4TOeLTseayRaAOCpziDk6PPIU0vqKgCR_ukzfGE6Ybasb4G3HDPjB8NMDhn5QGwbvqZbPWwxYnwnADJs7w8xCF0UbjCbF_Gcy5xmYH4yms4ZCPCOMNevJliumEHSFJVO7UiwOegS2zkGgUKrm3UfGrQjVkncw9qyMaxL1rhYolgka7B0woihhloaDffHMzWxp-3nB30ur1XEuD8jbov6OTfx45P5bUTazscUTJN2IfsQLxM9TJtah_6SZyTLnML21nJC4qF51uSXBdcr5cOO-UEmo7GA6RSerz6F5bRFIYPa6d-npYx2_QvEhic3mVrvFpakvmQh5q0GVxoobRLlvufPwqIToIKeAkbQYV8tPJrGi4Nd-TtHAjHVzehWg8HDLJLY-cMwPU0PeF_]--></g></svg>