<?xml version="1.0" encoding="us-ascii" standalone="no"?><svg xmlns="http://www.w3.org/2000/svg" xmlns:xlink="http://www.w3.org/1999/xlink" contentStyleType="text/css" height="729px" preserveAspectRatio="none" style="width:2589px;height:729px;background:#FFFFFF;" version="1.1" viewBox="0 0 2589 729" width="2589px" zoomAndPan="magnify"><defs/><g><rect fill="#FFFFFF" height="30.3516" style="stroke:#181818;stroke-width:1.0;" width="10" x="384" y="69.9609"/><rect fill="#FFFFFF" height="30.3516" style="stroke:#181818;stroke-width:1.0;" width="10" x="384" y="644.6406"/><rect fill="#FFFFFF" height="76.7969" style="stroke:#181818;stroke-width:1.0;" width="10" x="846" y="100.3125"/><rect fill="#FFFFFF" height="30.3516" style="stroke:#181818;stroke-width:1.0;" width="10" x="846" y="614.2891"/><rect fill="#FFFFFF" height="30.3516" style="stroke:#181818;stroke-width:1.0;" width="10" x="1252" y="177.1094"/><rect fill="#FFFFFF" height="30.3516" style="stroke:#181818;stroke-width:1.0;" width="10" x="1252" y="237.8125"/><rect fill="#FFFFFF" height="30.3516" style="stroke:#181818;stroke-width:1.0;" width="10" x="1252" y="298.5156"/><rect fill="#FFFFFF" height="30.3516" style="stroke:#181818;stroke-width:1.0;" width="10" x="1252" y="359.2188"/><rect fill="#FFFFFF" height="72.9609" style="stroke:#181818;stroke-width:1.0;" width="10" x="1252" y="419.9219"/><rect fill="#FFFFFF" height="30.3516" style="stroke:#181818;stroke-width:1.0;" width="10" x="1252" y="523.2344"/><rect fill="#FFFFFF" height="30.3516" style="stroke:#181818;stroke-width:1.0;" width="10" x="1252" y="583.9375"/><rect fill="#FFFFFF" height="30.3516" style="stroke:#181818;stroke-width:1.0;" width="10" x="1705" y="492.8828"/><rect fill="#FFFFFF" height="30.3516" style="stroke:#181818;stroke-width:1.0;" width="10" x="1857.5" y="207.4609"/><rect fill="#FFFFFF" height="30.3516" style="stroke:#181818;stroke-width:1.0;" width="10" x="1985" y="268.1641"/><rect fill="#FFFFFF" height="30.3516" style="stroke:#181818;stroke-width:1.0;" width="10" x="2120" y="328.8672"/><rect fill="#FFFFFF" height="30.3516" style="stroke:#181818;stroke-width:1.0;" width="10" x="2281.5" y="389.5703"/><rect fill="#FFFFFF" height="30.3516" style="stroke:#181818;stroke-width:1.0;" width="10" x="2479" y="553.5859"/><line style="stroke:#181818;stroke-width:0.5;stroke-dasharray:5.0,5.0;" x1="388.5" x2="388.5" y1="37.6094" y2="692.9922"/><line style="stroke:#181818;stroke-width:0.5;stroke-dasharray:5.0,5.0;" x1="851" x2="851" y1="37.6094" y2="692.9922"/><line style="stroke:#181818;stroke-width:0.5;stroke-dasharray:5.0,5.0;" x1="1256.5" x2="1256.5" y1="37.6094" y2="692.9922"/><line style="stroke:#181818;stroke-width:0.5;stroke-dasharray:5.0,5.0;" x1="1710" x2="1710" y1="459.2266" y2="692.9922"/><line style="stroke:#181818;stroke-width:0.5;stroke-dasharray:5.0,5.0;" x1="1862" x2="1862" y1="37.6094" y2="692.9922"/><line style="stroke:#181818;stroke-width:0.5;stroke-dasharray:5.0,5.0;" x1="1990" x2="1990" y1="37.6094" y2="692.9922"/><line style="stroke:#181818;stroke-width:0.5;stroke-dasharray:5.0,5.0;" x1="2125" x2="2125" y1="37.6094" y2="692.9922"/><line style="stroke:#181818;stroke-width:0.5;stroke-dasharray:5.0,5.0;" x1="2286" x2="2286" y1="37.6094" y2="692.9922"/><line style="stroke:#181818;stroke-width:0.5;stroke-dasharray:5.0,5.0;" x1="2484" x2="2484" y1="37.6094" y2="692.9922"/><rect fill="#E2E2F0" height="31.6094" rx="2.5" ry="2.5" style="stroke:#181818;stroke-width:0.5;" width="63" x="357.5" y="5"/><text fill="#000000" font-family="sans-serif" font-size="14" lengthAdjust="spacing" textLength="49" x="364.5" y="26.5332">Routing</text><rect fill="#E2E2F0" height="31.6094" rx="2.5" ry="2.5" style="stroke:#181818;stroke-width:0.5;" width="63" x="357.5" y="691.9922"/><text fill="#000000" font-family="sans-serif" font-size="14" lengthAdjust="spacing" textLength="49" x="364.5" y="713.5254">Routing</text><rect fill="#E2E2F0" height="31.6094" rx="2.5" ry="2.5" style="stroke:#181818;stroke-width:0.5;" width="192" x="755" y="5"/><text fill="#000000" font-family="sans-serif" font-size="14" lengthAdjust="spacing" textLength="178" x="762" y="26.5332">OperationRequestController</text><rect fill="#E2E2F0" height="31.6094" rx="2.5" ry="2.5" style="stroke:#181818;stroke-width:0.5;" width="192" x="755" y="691.9922"/><text fill="#000000" font-family="sans-serif" font-size="14" lengthAdjust="spacing" textLength="178" x="762" y="713.5254">OperationRequestController</text><rect fill="#E2E2F0" height="31.6094" rx="2.5" ry="2.5" style="stroke:#181818;stroke-width:0.5;" width="177" x="1168.5" y="5"/><text fill="#000000" font-family="sans-serif" font-size="14" lengthAdjust="spacing" textLength="163" x="1175.5" y="26.5332">OperationRequestService</text><rect fill="#E2E2F0" height="31.6094" rx="2.5" ry="2.5" style="stroke:#181818;stroke-width:0.5;" width="177" x="1168.5" y="691.9922"/><text fill="#000000" font-family="sans-serif" font-size="14" lengthAdjust="spacing" textLength="163" x="1175.5" y="713.5254">OperationRequestService</text><rect fill="#E2E2F0" height="31.6094" rx="2.5" ry="2.5" style="stroke:#181818;stroke-width:0.5;" width="174" x="1623" y="691.9922"/><text fill="#000000" font-family="sans-serif" font-size="14" lengthAdjust="spacing" textLength="160" x="1630" y="713.5254">OperationRequestBuilder</text><rect fill="#E2E2F0" height="31.6094" rx="2.5" ry="2.5" style="stroke:#181818;stroke-width:0.5;" width="111" x="1807" y="5"/><text fill="#000000" font-family="sans-serif" font-size="14" lengthAdjust="spacing" textLength="97" x="1814" y="26.5332">StaffRepository</text><rect fill="#E2E2F0" height="31.6094" rx="2.5" ry="2.5" style="stroke:#181818;stroke-width:0.5;" width="111" x="1807" y="691.9922"/><text fill="#000000" font-family="sans-serif" font-size="14" lengthAdjust="spacing" textLength="97" x="1814" y="713.5254">StaffRepository</text><rect fill="#E2E2F0" height="31.6094" rx="2.5" ry="2.5" style="stroke:#181818;stroke-width:0.5;" width="124" x="1928" y="5"/><text fill="#000000" font-family="sans-serif" font-size="14" lengthAdjust="spacing" textLength="110" x="1935" y="26.5332">DoctorRepository</text><rect fill="#E2E2F0" height="31.6094" rx="2.5" ry="2.5" style="stroke:#181818;stroke-width:0.5;" width="124" x="1928" y="691.9922"/><text fill="#000000" font-family="sans-serif" font-size="14" lengthAdjust="spacing" textLength="110" x="1935" y="713.5254">DoctorRepository</text><rect fill="#E2E2F0" height="31.6094" rx="2.5" ry="2.5" style="stroke:#181818;stroke-width:0.5;" width="126" x="2062" y="5"/><text fill="#000000" font-family="sans-serif" font-size="14" lengthAdjust="spacing" textLength="112" x="2069" y="26.5332">PatientRepository</text><rect fill="#E2E2F0" height="31.6094" rx="2.5" ry="2.5" style="stroke:#181818;stroke-width:0.5;" width="126" x="2062" y="691.9922"/><text fill="#000000" font-family="sans-serif" font-size="14" lengthAdjust="spacing" textLength="112" x="2069" y="713.5254">PatientRepository</text><rect fill="#E2E2F0" height="31.6094" rx="2.5" ry="2.5" style="stroke:#181818;stroke-width:0.5;" width="177" x="2198" y="5"/><text fill="#000000" font-family="sans-serif" font-size="14" lengthAdjust="spacing" textLength="163" x="2205" y="26.5332">OperationTypeRepository</text><rect fill="#E2E2F0" height="31.6094" rx="2.5" ry="2.5" style="stroke:#181818;stroke-width:0.5;" width="177" x="2198" y="691.9922"/><text fill="#000000" font-family="sans-serif" font-size="14" lengthAdjust="spacing" textLength="163" x="2205" y="713.5254">OperationTypeRepository</text><rect fill="#E2E2F0" height="31.6094" rx="2.5" ry="2.5" style="stroke:#181818;stroke-width:0.5;" width="198" x="2385" y="5"/><text fill="#000000" font-family="sans-serif" font-size="14" lengthAdjust="spacing" textLength="184" x="2392" y="26.5332">OperationRequestRepository</text><rect fill="#E2E2F0" height="31.6094" rx="2.5" ry="2.5" style="stroke:#181818;stroke-width:0.5;" width="198" x="2385" y="691.9922"/><text fill="#000000" font-family="sans-serif" font-size="14" lengthAdjust="spacing" textLength="184" x="2392" y="713.5254">OperationRequestRepository</text><rect fill="#FFFFFF" height="30.3516" style="stroke:#181818;stroke-width:1.0;" width="10" x="384" y="69.9609"/><rect fill="#FFFFFF" height="30.3516" style="stroke:#181818;stroke-width:1.0;" width="10" x="384" y="644.6406"/><rect fill="#FFFFFF" height="76.7969" style="stroke:#181818;stroke-width:1.0;" width="10" x="846" y="100.3125"/><rect fill="#FFFFFF" height="30.3516" style="stroke:#181818;stroke-width:1.0;" width="10" x="846" y="614.2891"/><rect fill="#FFFFFF" height="30.3516" style="stroke:#181818;stroke-width:1.0;" width="10" x="1252" y="177.1094"/><rect fill="#FFFFFF" height="30.3516" style="stroke:#181818;stroke-width:1.0;" width="10" x="1252" y="237.8125"/><rect fill="#FFFFFF" height="30.3516" style="stroke:#181818;stroke-width:1.0;" width="10" x="1252" y="298.5156"/><rect fill="#FFFFFF" height="30.3516" style="stroke:#181818;stroke-width:1.0;" width="10" x="1252" y="359.2188"/><rect fill="#FFFFFF" height="72.9609" style="stroke:#181818;stroke-width:1.0;" width="10" x="1252" y="419.9219"/><rect fill="#FFFFFF" height="30.3516" style="stroke:#181818;stroke-width:1.0;" width="10" x="1252" y="523.2344"/><rect fill="#FFFFFF" height="30.3516" style="stroke:#181818;stroke-width:1.0;" width="10" x="1252" y="583.9375"/><rect fill="#FFFFFF" height="30.3516" style="stroke:#181818;stroke-width:1.0;" width="10" x="1705" y="492.8828"/><rect fill="#FFFFFF" height="30.3516" style="stroke:#181818;stroke-width:1.0;" width="10" x="1857.5" y="207.4609"/><rect fill="#FFFFFF" height="30.3516" style="stroke:#181818;stroke-width:1.0;" width="10" x="1985" y="268.1641"/><rect fill="#FFFFFF" height="30.3516" style="stroke:#181818;stroke-width:1.0;" width="10" x="2120" y="328.8672"/><rect fill="#FFFFFF" height="30.3516" style="stroke:#181818;stroke-width:1.0;" width="10" x="2281.5" y="389.5703"/><rect fill="#FFFFFF" height="30.3516" style="stroke:#181818;stroke-width:1.0;" width="10" x="2479" y="553.5859"/><polygon fill="#181818" points="372,65.9609,382,69.9609,372,73.9609,376,69.9609" style="stroke:#181818;stroke-width:1.0;"/><line style="stroke:#181818;stroke-width:1.0;" x1="0" x2="378" y1="69.9609" y2="69.9609"/><text fill="#000000" font-family="sans-serif" font-size="13" lengthAdjust="spacing" textLength="365" x="7" y="65.1045">PUT(patientID, doctorID, operationType, deadline, priority, auth)</text><polygon fill="#181818" points="834,96.3125,844,100.3125,834,104.3125,838,100.3125" style="stroke:#181818;stroke-width:1.0;"/><line style="stroke:#181818;stroke-width:1.0;" x1="389" x2="840" y1="100.3125" y2="100.3125"/><text fill="#000000" font-family="sans-serif" font-size="13" lengthAdjust="spacing" textLength="433" x="396" y="95.4561">CreateOperationRequest(patientID, operationType, deadline, priority, token)</text><rect fill="none" height="41.4453" style="stroke:#000000;stroke-width:1.5;" width="198" x="752" y="108.3125"/><path d="M752,108.3125 L814,108.3125 L814,116.3125 L804,126.3125 L752,126.3125 L752,108.3125 " fill="#EEEEEE" style="stroke:#000000;stroke-width:2.0;"/><text fill="#000000" font-family="sans-serif" font-size="13" font-weight="bold" lengthAdjust="spacing" textLength="17" x="765" y="123.8076">ref</text><text fill="#000000" font-family="sans-serif" font-size="12" lengthAdjust="spacing" textLength="134" x="784" y="142.7695">Refer to generic auth SD</text><polygon fill="#181818" points="1240,173.1094,1250,177.1094,1240,181.1094,1244,177.1094" style="stroke:#181818;stroke-width:1.0;"/><line style="stroke:#181818;stroke-width:1.0;" x1="851" x2="1246" y1="177.1094" y2="177.1094"/><text fill="#000000" font-family="sans-serif" font-size="13" lengthAdjust="spacing" textLength="377" x="858" y="172.2529">CreateRequest(patientID, operationType, deadline, priority, token)</text><polygon fill="#181818" points="1845.5,203.4609,1855.5,207.4609,1845.5,211.4609,1849.5,207.4609" style="stroke:#181818;stroke-width:1.0;"/><line style="stroke:#181818;stroke-width:1.0;" x1="1257" x2="1851.5" y1="207.4609" y2="207.4609"/><text fill="#000000" font-family="sans-serif" font-size="13" lengthAdjust="spacing" textLength="123" x="1264" y="202.6045">GetStaffByUser(user)</text><polygon fill="#181818" points="1273,233.8125,1263,237.8125,1273,241.8125,1269,237.8125" style="stroke:#181818;stroke-width:1.0;"/><line style="stroke:#181818;stroke-width:1.0;stroke-dasharray:2.0,2.0;" x1="1267" x2="1861.5" y1="237.8125" y2="237.8125"/><text fill="#000000" font-family="sans-serif" font-size="13" lengthAdjust="spacing" textLength="24" x="1279" y="232.9561">staff</text><polygon fill="#181818" points="1973,264.1641,1983,268.1641,1973,272.1641,1977,268.1641" style="stroke:#181818;stroke-width:1.0;"/><line style="stroke:#181818;stroke-width:1.0;" x1="1257" x2="1979" y1="268.1641" y2="268.1641"/><text fill="#000000" font-family="sans-serif" font-size="13" lengthAdjust="spacing" textLength="197" x="1264" y="263.3076">GetDoctorByLicenseNumber(staff)</text><polygon fill="#181818" points="1273,294.5156,1263,298.5156,1273,302.5156,1269,298.5156" style="stroke:#181818;stroke-width:1.0;"/><line style="stroke:#181818;stroke-width:1.0;stroke-dasharray:2.0,2.0;" x1="1267" x2="1989" y1="298.5156" y2="298.5156"/><text fill="#000000" font-family="sans-serif" font-size="13" lengthAdjust="spacing" textLength="36" x="1279" y="293.6592">doctor</text><polygon fill="#181818" points="2108,324.8672,2118,328.8672,2108,332.8672,2112,328.8672" style="stroke:#181818;stroke-width:1.0;"/><line style="stroke:#181818;stroke-width:1.0;" x1="1257" x2="2114" y1="328.8672" y2="328.8672"/><text fill="#000000" font-family="sans-serif" font-size="13" lengthAdjust="spacing" textLength="143" x="1264" y="324.0107">GetByIdAsync(patientID)</text><polygon fill="#181818" points="1273,355.2188,1263,359.2188,1273,363.2188,1269,359.2188" style="stroke:#181818;stroke-width:1.0;"/><line style="stroke:#181818;stroke-width:1.0;stroke-dasharray:2.0,2.0;" x1="1267" x2="2124" y1="359.2188" y2="359.2188"/><text fill="#000000" font-family="sans-serif" font-size="13" lengthAdjust="spacing" textLength="39" x="1279" y="354.3623">patient</text><polygon fill="#181818" points="2269.5,385.5703,2279.5,389.5703,2269.5,393.5703,2273.5,389.5703" style="stroke:#181818;stroke-width:1.0;"/><line style="stroke:#181818;stroke-width:1.0;" x1="1257" x2="2275.5" y1="389.5703" y2="389.5703"/><text fill="#000000" font-family="sans-serif" font-size="13" lengthAdjust="spacing" textLength="173" x="1264" y="384.7139">GetByIdAsync(operationType)</text><polygon fill="#181818" points="1273,415.9219,1263,419.9219,1273,423.9219,1269,419.9219" style="stroke:#181818;stroke-width:1.0;"/><line style="stroke:#181818;stroke-width:1.0;stroke-dasharray:2.0,2.0;" x1="1267" x2="2285.5" y1="419.9219" y2="419.9219"/><text fill="#000000" font-family="sans-serif" font-size="13" lengthAdjust="spacing" textLength="25" x="1279" y="415.0654">type</text><polygon fill="#181818" points="1611,446.2734,1621,450.2734,1611,454.2734,1615,450.2734" style="stroke:#181818;stroke-width:1.0;"/><line style="stroke:#181818;stroke-width:1.0;" x1="1262" x2="1617" y1="450.2734" y2="450.2734"/><text fill="#000000" font-family="sans-serif" font-size="13" lengthAdjust="spacing" textLength="44" x="1269" y="445.417">create()</text><rect fill="#E2E2F0" height="31.6094" rx="2.5" ry="2.5" style="stroke:#181818;stroke-width:0.5;" width="174" x="1623" y="427.9219"/><text fill="#000000" font-family="sans-serif" font-size="14" lengthAdjust="spacing" textLength="160" x="1630" y="449.4551">OperationRequestBuilder</text><polygon fill="#181818" points="1693,488.8828,1703,492.8828,1693,496.8828,1697,492.8828" style="stroke:#181818;stroke-width:1.0;"/><line style="stroke:#181818;stroke-width:1.0;" x1="1257" x2="1699" y1="492.8828" y2="492.8828"/><text fill="#000000" font-family="sans-serif" font-size="13" lengthAdjust="spacing" textLength="424" x="1264" y="488.0264">updateOperationRequestWithData(patient, doctor, type, priority, deadline)</text><polygon fill="#181818" points="1273,519.2344,1263,523.2344,1273,527.2344,1269,523.2344" style="stroke:#181818;stroke-width:1.0;"/><line style="stroke:#181818;stroke-width:1.0;stroke-dasharray:2.0,2.0;" x1="1267" x2="1709" y1="523.2344" y2="523.2344"/><text fill="#000000" font-family="sans-serif" font-size="13" lengthAdjust="spacing" textLength="101" x="1279" y="518.3779">operationRequest</text><polygon fill="#181818" points="2467,549.5859,2477,553.5859,2467,557.5859,2471,553.5859" style="stroke:#181818;stroke-width:1.0;"/><line style="stroke:#181818;stroke-width:1.0;" x1="1257" x2="2473" y1="553.5859" y2="553.5859"/><text fill="#000000" font-family="sans-serif" font-size="13" lengthAdjust="spacing" textLength="169" x="1264" y="548.7295">AddAsync(operationRequest)</text><polygon fill="#181818" points="1273,579.9375,1263,583.9375,1273,587.9375,1269,583.9375" style="stroke:#181818;stroke-width:1.0;"/><line style="stroke:#181818;stroke-width:1.0;stroke-dasharray:2.0,2.0;" x1="1267" x2="2483" y1="583.9375" y2="583.9375"/><text fill="#000000" font-family="sans-serif" font-size="13" lengthAdjust="spacing" textLength="127" x="1279" y="579.0811">operationRequestDTO</text><polygon fill="#181818" points="867,610.2891,857,614.2891,867,618.2891,863,614.2891" style="stroke:#181818;stroke-width:1.0;"/><line style="stroke:#181818;stroke-width:1.0;stroke-dasharray:2.0,2.0;" x1="861" x2="1256" y1="614.2891" y2="614.2891"/><text fill="#000000" font-family="sans-serif" font-size="13" lengthAdjust="spacing" textLength="127" x="873" y="609.4326">operationRequestDTO</text><polygon fill="#181818" points="405,640.6406,395,644.6406,405,648.6406,401,644.6406" style="stroke:#181818;stroke-width:1.0;"/><line style="stroke:#181818;stroke-width:1.0;stroke-dasharray:2.0,2.0;" x1="399" x2="850" y1="644.6406" y2="644.6406"/><text fill="#000000" font-family="sans-serif" font-size="13" lengthAdjust="spacing" textLength="127" x="411" y="639.7842">operationRequestDTO</text><polygon fill="#181818" points="11,670.9922,1,674.9922,11,678.9922,7,674.9922" style="stroke:#181818;stroke-width:1.0;"/><line style="stroke:#181818;stroke-width:1.0;stroke-dasharray:2.0,2.0;" x1="5" x2="388" y1="674.9922" y2="674.9922"/><text fill="#000000" font-family="sans-serif" font-size="13" lengthAdjust="spacing" textLength="127" x="17" y="670.1357">operationRequestDTO</text><!--SRC=[hPJFRXiX4CRFvIausf7z0bLLAOxJAb9LHskdFHDsdA1kWR2ifNtxpl9d5zOEpg4NYpNVVFC3PaOpOmKNcabBAzLP8LyeQwd19H2TREuq66Q5aXMyTT3QEoMjKKq3Pj1pQvgYV0_c93WCsbhn_OaNrPjEDBLtVlRBJBwtx7YiGAjMM6NwGTR6lpBXLd4Kv4fCVwPxnEGWRIxKp9u9Hz13ho6NA_s-EXmh3p3mvYB8-gk_R_gPFZuT5jh3F6nN0okgXvLA4-C6iBeH4bVQ26M4xLUKTVPrIHYtuiJGp3yXySwOOdWYp71d07VdP6dI3wIowW_89S6jFDluwUg1LFVVwExNVUK_FrLmn3UrYhw012Eu8wRxBG5PusqS2N6CoEfBPAJzNv0EO_mATKX2Camx5X5c_WxMbTccVsh1B3hyoRn259tyfX8aaz4wFOtxEpMPGWfKeM0zaw_eJVy3cqcsyBFx-unqpkS2NcRhqQ9R1kRhR1P_ZIlqX-VQz0_rRTjBFZrIaISs5uak6K_mI0rYG078T-2S9wkK8bFeO19yCYABmJGD3k82JfXSDpSOpbqTBvRdsxZPwVf2I_uMzdNBB8iN6gV1oh6aXHwBltYuE4T9p9iTJysIfqunid3KCChGwBQUNtjmlDGyoR2Aip0w5UcsXrqsUqBmku3JzBlYDByqFyRyL4gcz1MNVCo4EVnblVvel9UHVm00]--></g></svg>