<?xml version="1.0" encoding="us-ascii" standalone="no"?><svg xmlns="http://www.w3.org/2000/svg" xmlns:xlink="http://www.w3.org/1999/xlink" contentStyleType="text/css" height="428px" preserveAspectRatio="none" style="width:837px;height:428px;background:#FFFFFF;" version="1.1" viewBox="0 0 837 428" width="837px" zoomAndPan="magnify"><defs/><g><rect fill="#FFFFFF" height="30.3516" style="stroke:#181818;stroke-width:1.0;" width="10" x="175" y="69.9609"/><rect fill="#FFFFFF" height="30.3516" style="stroke:#181818;stroke-width:1.0;" width="10" x="175" y="343.4766"/><rect fill="#FFFFFF" height="83.0547" style="stroke:#181818;stroke-width:1.0;" width="10" x="419" y="100.3125"/><rect fill="#FFFFFF" height="46.7031" style="stroke:#181818;stroke-width:1.0;" width="10" x="419" y="213.7188"/><rect fill="#FFFFFF" height="41.5273" style="stroke:#181818;stroke-width:1.0;" width="10" x="419" y="301.9492"/><rect fill="#FFFFFF" height="30.3516" style="stroke:#181818;stroke-width:1.0;" width="10" x="671" y="183.3672"/><rect fill="#FFFFFF" height="41.5273" style="stroke:#181818;stroke-width:1.0;" width="10" x="779" y="260.4219"/><line style="stroke:#181818;stroke-width:0.5;stroke-dasharray:5.0,5.0;" x1="179.5" x2="179.5" y1="37.6094" y2="391.8281"/><line style="stroke:#181818;stroke-width:0.5;stroke-dasharray:5.0,5.0;" x1="424" x2="424" y1="37.6094" y2="391.8281"/><line style="stroke:#181818;stroke-width:0.5;stroke-dasharray:5.0,5.0;" x1="675.5" x2="675.5" y1="37.6094" y2="391.8281"/><line style="stroke:#181818;stroke-width:0.5;stroke-dasharray:5.0,5.0;" x1="783.5" x2="783.5" y1="37.6094" y2="391.8281"/><rect fill="#E2E2F0" height="31.6094" rx="2.5" ry="2.5" style="stroke:#181818;stroke-width:0.5;" width="63" x="148.5" y="5"/><text fill="#000000" font-family="sans-serif" font-size="14" lengthAdjust="spacing" textLength="49" x="155.5" y="26.5332">Routing</text><rect fill="#E2E2F0" height="31.6094" rx="2.5" ry="2.5" style="stroke:#181818;stroke-width:0.5;" width="63" x="148.5" y="390.8281"/><text fill="#000000" font-family="sans-serif" font-size="14" lengthAdjust="spacing" textLength="49" x="155.5" y="412.3613">Routing</text><rect fill="#E2E2F0" height="31.6094" rx="2.5" ry="2.5" style="stroke:#181818;stroke-width:0.5;" width="120" x="364" y="5"/><text fill="#000000" font-family="sans-serif" font-size="14" lengthAdjust="spacing" textLength="106" x="371" y="26.5332">PatientController</text><rect fill="#E2E2F0" height="31.6094" rx="2.5" ry="2.5" style="stroke:#181818;stroke-width:0.5;" width="120" x="364" y="390.8281"/><text fill="#000000" font-family="sans-serif" font-size="14" lengthAdjust="spacing" textLength="106" x="371" y="412.3613">PatientController</text><rect fill="#E2E2F0" height="31.6094" rx="2.5" ry="2.5" style="stroke:#181818;stroke-width:0.5;" width="101" x="625.5" y="5"/><text fill="#000000" font-family="sans-serif" font-size="14" lengthAdjust="spacing" textLength="87" x="632.5" y="26.5332">TokenService</text><rect fill="#E2E2F0" height="31.6094" rx="2.5" ry="2.5" style="stroke:#181818;stroke-width:0.5;" width="101" x="625.5" y="390.8281"/><text fill="#000000" font-family="sans-serif" font-size="14" lengthAdjust="spacing" textLength="87" x="632.5" y="412.3613">TokenService</text><rect fill="#E2E2F0" height="31.6094" rx="2.5" ry="2.5" style="stroke:#181818;stroke-width:0.5;" width="95" x="736.5" y="5"/><text fill="#000000" font-family="sans-serif" font-size="14" lengthAdjust="spacing" textLength="81" x="743.5" y="26.5332">EmailService</text><rect fill="#E2E2F0" height="31.6094" rx="2.5" ry="2.5" style="stroke:#181818;stroke-width:0.5;" width="95" x="736.5" y="390.8281"/><text fill="#000000" font-family="sans-serif" font-size="14" lengthAdjust="spacing" textLength="81" x="743.5" y="412.3613">EmailService</text><rect fill="#FFFFFF" height="30.3516" style="stroke:#181818;stroke-width:1.0;" width="10" x="175" y="69.9609"/><rect fill="#FFFFFF" height="30.3516" style="stroke:#181818;stroke-width:1.0;" width="10" x="175" y="343.4766"/><rect fill="#FFFFFF" height="83.0547" style="stroke:#181818;stroke-width:1.0;" width="10" x="419" y="100.3125"/><rect fill="#FFFFFF" height="46.7031" style="stroke:#181818;stroke-width:1.0;" width="10" x="419" y="213.7188"/><rect fill="#FFFFFF" height="41.5273" style="stroke:#181818;stroke-width:1.0;" width="10" x="419" y="301.9492"/><rect fill="#FFFFFF" height="30.3516" style="stroke:#181818;stroke-width:1.0;" width="10" x="671" y="183.3672"/><rect fill="#FFFFFF" height="41.5273" style="stroke:#181818;stroke-width:1.0;" width="10" x="779" y="260.4219"/><polygon fill="#181818" points="163,65.9609,173,69.9609,163,73.9609,167,69.9609" style="stroke:#181818;stroke-width:1.0;"/><line style="stroke:#181818;stroke-width:1.0;" x1="0" x2="169" y1="69.9609" y2="69.9609"/><text fill="#000000" font-family="sans-serif" font-size="13" font-weight="bold" lengthAdjust="spacing" textLength="7" x="7" y="65.1045">1</text><text fill="#000000" font-family="sans-serif" font-size="13" lengthAdjust="spacing" textLength="145" x="18" y="65.1045">POST(editPatientInfoDto)</text><polygon fill="#181818" points="407,96.3125,417,100.3125,407,104.3125,411,100.3125" style="stroke:#181818;stroke-width:1.0;"/><line style="stroke:#181818;stroke-width:1.0;" x1="180" x2="413" y1="100.3125" y2="100.3125"/><text fill="#000000" font-family="sans-serif" font-size="13" font-weight="bold" lengthAdjust="spacing" textLength="7" x="187" y="95.4561">2</text><text fill="#000000" font-family="sans-serif" font-size="13" lengthAdjust="spacing" textLength="204" x="198" y="95.4561">DeleteSelfPatientProfile(authToken)</text><path d="M434,113.3125 L434,155.3125 L662,155.3125 L662,123.3125 L652,113.3125 L434,113.3125 " fill="#FEFFDD" style="stroke:#181818;stroke-width:0.5;"/><path d="M652,113.3125 L652,123.3125 L662,123.3125 L652,113.3125 " fill="#FEFFDD" style="stroke:#181818;stroke-width:0.5;"/><text fill="#000000" font-family="sans-serif" font-size="13" font-weight="bold" lengthAdjust="spacing" textLength="188" x="440" y="131.8076">Token Authentication Process</text><text fill="#000000" font-family="sans-serif" font-size="13" lengthAdjust="spacing" textLength="11" x="632" y="131.8076">to</text><text fill="#000000" font-family="sans-serif" font-size="13" lengthAdjust="spacing" textLength="168" x="440" y="148.1592">validate the user permissions</text><polygon fill="#181818" points="659,179.3672,669,183.3672,659,187.3672,663,183.3672" style="stroke:#181818;stroke-width:1.0;"/><line style="stroke:#181818;stroke-width:1.0;" x1="424" x2="665" y1="183.3672" y2="183.3672"/><text fill="#000000" font-family="sans-serif" font-size="13" font-weight="bold" lengthAdjust="spacing" textLength="7" x="431" y="178.5107">3</text><text fill="#000000" font-family="sans-serif" font-size="13" lengthAdjust="spacing" textLength="212" x="442" y="178.5107">generateDeletionConfirmationToken()</text><polygon fill="#181818" points="440,209.7188,430,213.7188,440,217.7188,436,213.7188" style="stroke:#181818;stroke-width:1.0;"/><line style="stroke:#181818;stroke-width:1.0;stroke-dasharray:2.0,2.0;" x1="434" x2="675" y1="213.7188" y2="213.7188"/><text fill="#000000" font-family="sans-serif" font-size="13" font-weight="bold" lengthAdjust="spacing" textLength="7" x="446" y="208.8623">4</text><text fill="#000000" font-family="sans-serif" font-size="13" lengthAdjust="spacing" textLength="105" x="457" y="208.8623">confirmationToken</text><polygon fill="#181818" points="767,256.4219,777,260.4219,767,264.4219,771,260.4219" style="stroke:#181818;stroke-width:1.0;"/><line style="stroke:#181818;stroke-width:1.0;" x1="424" x2="773" y1="260.4219" y2="260.4219"/><text fill="#000000" font-family="sans-serif" font-size="13" font-weight="bold" lengthAdjust="spacing" textLength="7" x="431" y="247.3896">5</text><text fill="#000000" font-family="sans-serif" font-size="13" lengthAdjust="spacing" textLength="234" x="442" y="239.2139">sendDeletionConfirmation(emailAddress,</text><text fill="#000000" font-family="sans-serif" font-size="13" lengthAdjust="spacing" textLength="62" x="442" y="255.5654">tokenDTO)</text><polygon fill="#181818" points="440,297.9492,430,301.9492,440,305.9492,436,301.9492" style="stroke:#181818;stroke-width:1.0;"/><line style="stroke:#181818;stroke-width:1.0;stroke-dasharray:2.0,2.0;" x1="434" x2="783" y1="301.9492" y2="301.9492"/><text fill="#000000" font-family="sans-serif" font-size="13" font-weight="bold" lengthAdjust="spacing" textLength="7" x="446" y="297.0928">6</text><text fill="#000000" font-family="sans-serif" font-size="13" lengthAdjust="spacing" textLength="51" x="457" y="297.0928">opResult</text><path d="M266,273.4219 L266,315.4219 L414,315.4219 L414,283.4219 L404,273.4219 L266,273.4219 " fill="#FEFFDD" style="stroke:#181818;stroke-width:0.5;"/><path d="M404,273.4219 L404,283.4219 L414,283.4219 L404,273.4219 " fill="#FEFFDD" style="stroke:#181818;stroke-width:0.5;"/><text fill="#000000" font-family="sans-serif" font-size="13" lengthAdjust="spacing" textLength="122" x="272" y="291.917">Ends process to wait</text><text fill="#000000" font-family="sans-serif" font-size="13" lengthAdjust="spacing" textLength="127" x="272" y="308.2686">for e-mail confirmation</text><polygon fill="#181818" points="196,339.4766,186,343.4766,196,347.4766,192,343.4766" style="stroke:#181818;stroke-width:1.0;"/><line style="stroke:#181818;stroke-width:1.0;stroke-dasharray:2.0,2.0;" x1="190" x2="423" y1="343.4766" y2="343.4766"/><text fill="#000000" font-family="sans-serif" font-size="13" font-weight="bold" lengthAdjust="spacing" textLength="7" x="202" y="338.6201">7</text><text fill="#000000" font-family="sans-serif" font-size="13" lengthAdjust="spacing" textLength="51" x="213" y="338.6201">opResult</text><polygon fill="#181818" points="11,369.8281,1,373.8281,11,377.8281,7,373.8281" style="stroke:#181818;stroke-width:1.0;"/><line style="stroke:#181818;stroke-width:1.0;stroke-dasharray:2.0,2.0;" x1="5" x2="179" y1="373.8281" y2="373.8281"/><text fill="#000000" font-family="sans-serif" font-size="13" font-weight="bold" lengthAdjust="spacing" textLength="7" x="17" y="368.9717">8</text><text fill="#000000" font-family="sans-serif" font-size="13" lengthAdjust="spacing" textLength="51" x="28" y="368.9717">opResult</text><!--SRC=[VLAnRi8m4Dtp5TuQegRigAg42aCd431sSUqBdEhOgNr9Vxzd1qY2A9bYtxjtxxtpquce2Olvl37IKbkR5-NgUO2V5go2KgCyUbbdcMp9sRR-0fyrqXCgR1WlTgubj4SXW_3y2vFYLXA2fNTdoJjZm4UO8cycg8Fx1hi7tw6220YTcjJNjKGpgaCwCoWht_gXOY6sc_qX1urqdlbXAxSYDsFXYh2J3Ehr2Vxw9kwEMhXv1GO8zc2gS_VMkmeDv6pwbEJDCWqtH0DnSXHvhOjLF9vek2kAH22MJCNCg7Y2iu8dA0YXA0GvaO2TDAWZ7UD46pYi1doD8J0yz12mEir8XwITFN1SRE485Znt9olSmPbNwEiqB0d89nQIlC51Z3noHgvoo4NTaemfOi-T32woBbjYci2wx-dA4sQfjUSadZyjnH6hm-QHqkloKnwN6IFDhjb1Q0sDEOONapPaeA9iRNKGJR-5k8DVYIIooda1POHFp6VNvFzrF7gBzoJSsEYVq6jPFcnAjJy0]--></g></svg>