<?xml version="1.0" encoding="us-ascii" standalone="no"?><svg xmlns="http://www.w3.org/2000/svg" xmlns:xlink="http://www.w3.org/1999/xlink" contentStyleType="text/css" height="542px" preserveAspectRatio="none" style="width:886px;height:542px;background:#FFFFFF;" version="1.1" viewBox="0 0 886 542" width="886px" zoomAndPan="magnify"><defs/><g><!--cluster PatientAggregate--><g id="cluster_PatientAggregate"><path d="M8.5,6 L131.5,6 A3.75,3.75 0 0 1 134,8.5 L141,29.6094 L876.5,29.6094 A2.5,2.5 0 0 1 879,32.1094 L879,532.5 A2.5,2.5 0 0 1 876.5,535 L8.5,535 A2.5,2.5 0 0 1 6,532.5 L6,8.5 A2.5,2.5 0 0 1 8.5,6 " fill="none" style="stroke:#000000;stroke-width:1.5;"/><line style="stroke:#000000;stroke-width:1.5;" x1="6" x2="141" y1="29.6094" y2="29.6094"/><text fill="#000000" font-family="sans-serif" font-size="14" font-weight="bold" lengthAdjust="spacing" textLength="122" x="10" y="22.5332">PatientAggregate</text></g><!--class Patient--><g id="elem_Patient"><rect codeLine="4" fill="#F1F1F1" height="58.7031" id="Patient" rx="2.5" ry="2.5" style="stroke:#181818;stroke-width:0.5;" width="101" x="397.5" y="161"/><ellipse cx="412.5" cy="182.3516" fill="#0000FF" rx="11" ry="11" style="stroke:#181818;stroke-width:1.0;"/><path d="M413.0938,185.6172 L415.5625,179.7422 L415.1719,179.7422 Q414.5625,179.7422 414.2969,179.5078 Q414.0313,179.2734 414.0313,178.8828 Q414.0313,178.5078 414.2969,178.2734 Q414.5625,178.0391 415.1719,178.0391 L417.4531,178.0391 Q418.0625,178.0391 418.3281,178.2734 Q418.5938,178.5078 418.5938,178.8828 Q418.5938,179.3516 418.1875,179.6172 Q418,179.7422 417.4063,179.7422 L413.9219,188.1016 L412.2813,188.1016 L408.7969,179.7422 Q408.2031,179.7422 408.0156,179.6172 Q407.6094,179.3516 407.6094,178.8828 Q407.6094,178.5078 407.875,178.2734 Q408.1406,178.0391 408.75,178.0391 L411.0469,178.0391 Q411.6563,178.0391 411.9063,178.2734 Q412.1719,178.5078 412.1719,178.8828 Q412.1719,179.2734 411.9063,179.5078 Q411.6563,179.7422 411.0469,179.7422 L410.6406,179.7422 L413.0938,185.6172 Z " fill="#000000"/><text fill="#000000" font-family="sans-serif" font-size="12" font-style="italic" lengthAdjust="spacing" textLength="73" x="424.5" y="178.457">&#171;Root Entity&#187;</text><text fill="#000000" font-family="sans-serif" font-size="14" lengthAdjust="spacing" textLength="44" x="439" y="195.627">Patient</text><line style="stroke:#181818;stroke-width:0.5;" x1="398.5" x2="497.5" y1="203.7031" y2="203.7031"/><line style="stroke:#181818;stroke-width:0.5;" x1="398.5" x2="497.5" y1="211.7031" y2="211.7031"/></g><!--class Gender--><g id="elem_Gender"><rect codeLine="6" fill="#F1F1F1" height="58.7031" id="Gender" rx="2.5" ry="2.5" style="stroke:#181818;stroke-width:0.5;" width="113" x="749.5" y="42"/><ellipse cx="764.5" cy="63.3516" fill="#F04800" rx="11" ry="11" style="stroke:#181818;stroke-width:1.0;"/><path d="M765.0938,66.6172 L767.5625,60.7422 L767.1719,60.7422 Q766.5625,60.7422 766.2969,60.5078 Q766.0313,60.2734 766.0313,59.8828 Q766.0313,59.5078 766.2969,59.2734 Q766.5625,59.0391 767.1719,59.0391 L769.4531,59.0391 Q770.0625,59.0391 770.3281,59.2734 Q770.5938,59.5078 770.5938,59.8828 Q770.5938,60.3516 770.1875,60.6172 Q770,60.7422 769.4063,60.7422 L765.9219,69.1016 L764.2813,69.1016 L760.7969,60.7422 Q760.2031,60.7422 760.0156,60.6172 Q759.6094,60.3516 759.6094,59.8828 Q759.6094,59.5078 759.875,59.2734 Q760.1406,59.0391 760.75,59.0391 L763.0469,59.0391 Q763.6563,59.0391 763.9063,59.2734 Q764.1719,59.5078 764.1719,59.8828 Q764.1719,60.2734 763.9063,60.5078 Q763.6563,60.7422 763.0469,60.7422 L762.6406,60.7422 L765.0938,66.6172 Z " fill="#000000"/><text fill="#000000" font-family="sans-serif" font-size="12" font-style="italic" lengthAdjust="spacing" textLength="85" x="776.5" y="59.457">&#171;Value Object&#187;</text><text fill="#000000" font-family="sans-serif" font-size="14" lengthAdjust="spacing" textLength="48" x="795" y="76.627">Gender</text><line style="stroke:#181818;stroke-width:0.5;" x1="750.5" x2="861.5" y1="84.7031" y2="84.7031"/><line style="stroke:#181818;stroke-width:0.5;" x1="750.5" x2="861.5" y1="92.7031" y2="92.7031"/></g><!--class MedicalRecordNumber--><g id="elem_MedicalRecordNumber"><rect codeLine="7" fill="#F1F1F1" height="58.7031" id="MedicalRecordNumber" rx="2.5" ry="2.5" style="stroke:#181818;stroke-width:0.5;" width="175" x="539.5" y="42"/><ellipse cx="554.5" cy="63.3516" fill="#F09800" rx="11" ry="11" style="stroke:#181818;stroke-width:1.0;"/><path d="M555.0938,66.6172 L557.5625,60.7422 L557.1719,60.7422 Q556.5625,60.7422 556.2969,60.5078 Q556.0313,60.2734 556.0313,59.8828 Q556.0313,59.5078 556.2969,59.2734 Q556.5625,59.0391 557.1719,59.0391 L559.4531,59.0391 Q560.0625,59.0391 560.3281,59.2734 Q560.5938,59.5078 560.5938,59.8828 Q560.5938,60.3516 560.1875,60.6172 Q560,60.7422 559.4063,60.7422 L555.9219,69.1016 L554.2813,69.1016 L550.7969,60.7422 Q550.2031,60.7422 550.0156,60.6172 Q549.6094,60.3516 549.6094,59.8828 Q549.6094,59.5078 549.875,59.2734 Q550.1406,59.0391 550.75,59.0391 L553.0469,59.0391 Q553.6563,59.0391 553.9063,59.2734 Q554.1719,59.5078 554.1719,59.8828 Q554.1719,60.2734 553.9063,60.5078 Q553.6563,60.7422 553.0469,60.7422 L552.6406,60.7422 L555.0938,66.6172 Z " fill="#000000"/><text fill="#000000" font-family="sans-serif" font-size="12" font-style="italic" lengthAdjust="spacing" textLength="105" x="587.5" y="59.457">&#171;Unique Identifier&#187;</text><text fill="#000000" font-family="sans-serif" font-size="14" lengthAdjust="spacing" textLength="143" x="568.5" y="76.627">MedicalRecordNumber</text><line style="stroke:#181818;stroke-width:0.5;" x1="540.5" x2="713.5" y1="84.7031" y2="84.7031"/><line style="stroke:#181818;stroke-width:0.5;" x1="540.5" x2="713.5" y1="92.7031" y2="92.7031"/></g><!--class DateOfBirth--><g id="elem_DateOfBirth"><rect codeLine="8" fill="#F1F1F1" height="58.7031" id="DateOfBirth" rx="2.5" ry="2.5" style="stroke:#181818;stroke-width:0.5;" width="113" x="391.5" y="42"/><ellipse cx="406.5" cy="63.3516" fill="#F04800" rx="11" ry="11" style="stroke:#181818;stroke-width:1.0;"/><path d="M407.0938,66.6172 L409.5625,60.7422 L409.1719,60.7422 Q408.5625,60.7422 408.2969,60.5078 Q408.0313,60.2734 408.0313,59.8828 Q408.0313,59.5078 408.2969,59.2734 Q408.5625,59.0391 409.1719,59.0391 L411.4531,59.0391 Q412.0625,59.0391 412.3281,59.2734 Q412.5938,59.5078 412.5938,59.8828 Q412.5938,60.3516 412.1875,60.6172 Q412,60.7422 411.4063,60.7422 L407.9219,69.1016 L406.2813,69.1016 L402.7969,60.7422 Q402.2031,60.7422 402.0156,60.6172 Q401.6094,60.3516 401.6094,59.8828 Q401.6094,59.5078 401.875,59.2734 Q402.1406,59.0391 402.75,59.0391 L405.0469,59.0391 Q405.6563,59.0391 405.9063,59.2734 Q406.1719,59.5078 406.1719,59.8828 Q406.1719,60.2734 405.9063,60.5078 Q405.6563,60.7422 405.0469,60.7422 L404.6406,60.7422 L407.0938,66.6172 Z " fill="#000000"/><text fill="#000000" font-family="sans-serif" font-size="12" font-style="italic" lengthAdjust="spacing" textLength="85" x="418.5" y="59.457">&#171;Value Object&#187;</text><text fill="#000000" font-family="sans-serif" font-size="14" lengthAdjust="spacing" textLength="74" x="424" y="76.627">DateOfBirth</text><line style="stroke:#181818;stroke-width:0.5;" x1="392.5" x2="503.5" y1="84.7031" y2="84.7031"/><line style="stroke:#181818;stroke-width:0.5;" x1="392.5" x2="503.5" y1="92.7031" y2="92.7031"/></g><!--class MedicalConditions--><g id="elem_MedicalConditions"><rect codeLine="9" fill="#F1F1F1" height="58.7031" id="MedicalConditions" rx="2.5" ry="2.5" style="stroke:#181818;stroke-width:0.5;" width="147" x="209.5" y="42"/><ellipse cx="224.5" cy="63.3516" fill="#F04800" rx="11" ry="11" style="stroke:#181818;stroke-width:1.0;"/><path d="M225.0938,66.6172 L227.5625,60.7422 L227.1719,60.7422 Q226.5625,60.7422 226.2969,60.5078 Q226.0313,60.2734 226.0313,59.8828 Q226.0313,59.5078 226.2969,59.2734 Q226.5625,59.0391 227.1719,59.0391 L229.4531,59.0391 Q230.0625,59.0391 230.3281,59.2734 Q230.5938,59.5078 230.5938,59.8828 Q230.5938,60.3516 230.1875,60.6172 Q230,60.7422 229.4063,60.7422 L225.9219,69.1016 L224.2813,69.1016 L220.7969,60.7422 Q220.2031,60.7422 220.0156,60.6172 Q219.6094,60.3516 219.6094,59.8828 Q219.6094,59.5078 219.875,59.2734 Q220.1406,59.0391 220.75,59.0391 L223.0469,59.0391 Q223.6563,59.0391 223.9063,59.2734 Q224.1719,59.5078 224.1719,59.8828 Q224.1719,60.2734 223.9063,60.5078 Q223.6563,60.7422 223.0469,60.7422 L222.6406,60.7422 L225.0938,66.6172 Z " fill="#000000"/><text fill="#000000" font-family="sans-serif" font-size="12" font-style="italic" lengthAdjust="spacing" textLength="85" x="253.5" y="59.457">&#171;Value Object&#187;</text><text fill="#000000" font-family="sans-serif" font-size="14" lengthAdjust="spacing" textLength="115" x="238.5" y="76.627">MedicalConditions</text><line style="stroke:#181818;stroke-width:0.5;" x1="210.5" x2="355.5" y1="84.7031" y2="84.7031"/><line style="stroke:#181818;stroke-width:0.5;" x1="210.5" x2="355.5" y1="92.7031" y2="92.7031"/></g><!--class EmergencyContact--><g id="elem_EmergencyContact"><rect codeLine="10" fill="#F1F1F1" height="58.7031" id="EmergencyContact" rx="2.5" ry="2.5" style="stroke:#181818;stroke-width:0.5;" width="152" x="22" y="42"/><ellipse cx="37" cy="63.3516" fill="#F04800" rx="11" ry="11" style="stroke:#181818;stroke-width:1.0;"/><path d="M37.5938,66.6172 L40.0625,60.7422 L39.6719,60.7422 Q39.0625,60.7422 38.7969,60.5078 Q38.5313,60.2734 38.5313,59.8828 Q38.5313,59.5078 38.7969,59.2734 Q39.0625,59.0391 39.6719,59.0391 L41.9531,59.0391 Q42.5625,59.0391 42.8281,59.2734 Q43.0938,59.5078 43.0938,59.8828 Q43.0938,60.3516 42.6875,60.6172 Q42.5,60.7422 41.9063,60.7422 L38.4219,69.1016 L36.7813,69.1016 L33.2969,60.7422 Q32.7031,60.7422 32.5156,60.6172 Q32.1094,60.3516 32.1094,59.8828 Q32.1094,59.5078 32.375,59.2734 Q32.6406,59.0391 33.25,59.0391 L35.5469,59.0391 Q36.1563,59.0391 36.4063,59.2734 Q36.6719,59.5078 36.6719,59.8828 Q36.6719,60.2734 36.4063,60.5078 Q36.1563,60.7422 35.5469,60.7422 L35.1406,60.7422 L37.5938,66.6172 Z " fill="#000000"/><text fill="#000000" font-family="sans-serif" font-size="12" font-style="italic" lengthAdjust="spacing" textLength="85" x="68.5" y="59.457">&#171;Value Object&#187;</text><text fill="#000000" font-family="sans-serif" font-size="14" lengthAdjust="spacing" textLength="120" x="51" y="76.627">EmergencyContact</text><line style="stroke:#181818;stroke-width:0.5;" x1="23" x2="173" y1="84.7031" y2="84.7031"/><line style="stroke:#181818;stroke-width:0.5;" x1="23" x2="173" y1="92.7031" y2="92.7031"/></g><!--class EmailAddress--><g id="elem_EmailAddress"><rect codeLine="11" fill="#F1F1F1" height="58.7031" id="EmailAddress" rx="2.5" ry="2.5" style="stroke:#181818;stroke-width:0.5;" width="118" x="91" y="460"/><ellipse cx="106" cy="481.3516" fill="#F04800" rx="11" ry="11" style="stroke:#181818;stroke-width:1.0;"/><path d="M106.5938,484.6172 L109.0625,478.7422 L108.6719,478.7422 Q108.0625,478.7422 107.7969,478.5078 Q107.5313,478.2734 107.5313,477.8828 Q107.5313,477.5078 107.7969,477.2734 Q108.0625,477.0391 108.6719,477.0391 L110.9531,477.0391 Q111.5625,477.0391 111.8281,477.2734 Q112.0938,477.5078 112.0938,477.8828 Q112.0938,478.3516 111.6875,478.6172 Q111.5,478.7422 110.9063,478.7422 L107.4219,487.1016 L105.7813,487.1016 L102.2969,478.7422 Q101.7031,478.7422 101.5156,478.6172 Q101.1094,478.3516 101.1094,477.8828 Q101.1094,477.5078 101.375,477.2734 Q101.6406,477.0391 102.25,477.0391 L104.5469,477.0391 Q105.1563,477.0391 105.4063,477.2734 Q105.6719,477.5078 105.6719,477.8828 Q105.6719,478.2734 105.4063,478.5078 Q105.1563,478.7422 104.5469,478.7422 L104.1406,478.7422 L106.5938,484.6172 Z " fill="#000000"/><text fill="#000000" font-family="sans-serif" font-size="12" font-style="italic" lengthAdjust="spacing" textLength="85" x="120.5" y="477.457">&#171;Value Object&#187;</text><text fill="#000000" font-family="sans-serif" font-size="14" lengthAdjust="spacing" textLength="86" x="120" y="494.627">EmailAddress</text><line style="stroke:#181818;stroke-width:0.5;" x1="92" x2="208" y1="502.7031" y2="502.7031"/><line style="stroke:#181818;stroke-width:0.5;" x1="92" x2="208" y1="510.7031" y2="510.7031"/></g><!--class PhoneNumber--><g id="elem_PhoneNumber"><rect codeLine="12" fill="#F1F1F1" height="58.7031" id="PhoneNumber" rx="2.5" ry="2.5" style="stroke:#181818;stroke-width:0.5;" width="122" x="244" y="460"/><ellipse cx="259" cy="481.3516" fill="#F04800" rx="11" ry="11" style="stroke:#181818;stroke-width:1.0;"/><path d="M259.5938,484.6172 L262.0625,478.7422 L261.6719,478.7422 Q261.0625,478.7422 260.7969,478.5078 Q260.5313,478.2734 260.5313,477.8828 Q260.5313,477.5078 260.7969,477.2734 Q261.0625,477.0391 261.6719,477.0391 L263.9531,477.0391 Q264.5625,477.0391 264.8281,477.2734 Q265.0938,477.5078 265.0938,477.8828 Q265.0938,478.3516 264.6875,478.6172 Q264.5,478.7422 263.9063,478.7422 L260.4219,487.1016 L258.7813,487.1016 L255.2969,478.7422 Q254.7031,478.7422 254.5156,478.6172 Q254.1094,478.3516 254.1094,477.8828 Q254.1094,477.5078 254.375,477.2734 Q254.6406,477.0391 255.25,477.0391 L257.5469,477.0391 Q258.1563,477.0391 258.4063,477.2734 Q258.6719,477.5078 258.6719,477.8828 Q258.6719,478.2734 258.4063,478.5078 Q258.1563,478.7422 257.5469,478.7422 L257.1406,478.7422 L259.5938,484.6172 Z " fill="#000000"/><text fill="#000000" font-family="sans-serif" font-size="12" font-style="italic" lengthAdjust="spacing" textLength="85" x="275.5" y="477.457">&#171;Value Object&#187;</text><text fill="#000000" font-family="sans-serif" font-size="14" lengthAdjust="spacing" textLength="90" x="273" y="494.627">PhoneNumber</text><line style="stroke:#181818;stroke-width:0.5;" x1="245" x2="365" y1="502.7031" y2="502.7031"/><line style="stroke:#181818;stroke-width:0.5;" x1="245" x2="365" y1="510.7031" y2="510.7031"/></g><!--class ContactInformation--><g id="elem_ContactInformation"><rect codeLine="16" fill="#F1F1F1" height="58.7031" id="ContactInformation" rx="2.5" ry="2.5" style="stroke:#181818;stroke-width:0.5;" width="151" x="137.5" y="280"/><ellipse cx="152.5" cy="301.3516" fill="#ADD1B2" rx="11" ry="11" style="stroke:#181818;stroke-width:1.0;"/><path d="M151.3594,302.1484 L151.3594,304.6484 L155.6875,304.6484 L155.6875,303.7266 Q155.6875,303.1172 155.9219,302.8516 Q156.1719,302.5859 156.5469,302.5859 Q156.9219,302.5859 157.1563,302.8516 Q157.3906,303.1172 157.3906,303.7266 L157.3906,306.3516 L149.3906,306.3516 Q148.7656,306.3516 148.5,306.1172 Q148.25,305.8828 148.25,305.4922 Q148.25,305.1172 148.5156,304.8828 Q148.7813,304.6484 149.3906,304.6484 L149.6563,304.6484 L149.6563,297.9922 L149.3906,297.9922 Q148.7656,297.9922 148.5,297.7578 Q148.25,297.5234 148.25,297.1328 Q148.25,296.7578 148.5,296.5234 Q148.7656,296.2891 149.3906,296.2891 L157.0156,296.2891 L157.0156,298.8828 Q157.0156,299.4922 156.7813,299.7578 Q156.5625,300.0078 156.1719,300.0078 Q155.7969,300.0078 155.5625,299.7578 Q155.3281,299.4922 155.3281,298.8828 L155.3281,297.9922 L151.3594,297.9922 L151.3594,300.4453 L152.8438,300.4453 Q152.8438,299.7891 152.9688,299.6016 Q153.2344,299.1953 153.7031,299.1953 Q154.0781,299.1953 154.3125,299.4609 Q154.5469,299.7109 154.5469,300.3203 L154.5469,302.2891 Q154.5469,302.8359 154.4219,303.0234 Q154.1563,303.4141 153.7031,303.4141 Q153.2344,303.4141 152.9688,303.0078 Q152.8438,302.8203 152.8438,302.1484 L151.3594,302.1484 Z " fill="#000000"/><text fill="#000000" font-family="sans-serif" font-size="12" font-style="italic" lengthAdjust="spacing" textLength="44" x="204" y="297.457">&#171;Entity&#187;</text><text fill="#000000" font-family="sans-serif" font-size="14" lengthAdjust="spacing" textLength="119" x="166.5" y="314.627">ContactInformation</text><line style="stroke:#181818;stroke-width:0.5;" x1="138.5" x2="287.5" y1="322.7031" y2="322.7031"/><line style="stroke:#181818;stroke-width:0.5;" x1="138.5" x2="287.5" y1="330.7031" y2="330.7031"/></g><!--class FirstName--><g id="elem_FirstName"><rect codeLine="18" fill="#F1F1F1" height="58.7031" id="FirstName" rx="2.5" ry="2.5" style="stroke:#181818;stroke-width:0.5;" width="113" x="323.5" y="280"/><ellipse cx="338.5" cy="301.3516" fill="#F04800" rx="11" ry="11" style="stroke:#181818;stroke-width:1.0;"/><path d="M339.0938,304.6172 L341.5625,298.7422 L341.1719,298.7422 Q340.5625,298.7422 340.2969,298.5078 Q340.0313,298.2734 340.0313,297.8828 Q340.0313,297.5078 340.2969,297.2734 Q340.5625,297.0391 341.1719,297.0391 L343.4531,297.0391 Q344.0625,297.0391 344.3281,297.2734 Q344.5938,297.5078 344.5938,297.8828 Q344.5938,298.3516 344.1875,298.6172 Q344,298.7422 343.4063,298.7422 L339.9219,307.1016 L338.2813,307.1016 L334.7969,298.7422 Q334.2031,298.7422 334.0156,298.6172 Q333.6094,298.3516 333.6094,297.8828 Q333.6094,297.5078 333.875,297.2734 Q334.1406,297.0391 334.75,297.0391 L337.0469,297.0391 Q337.6563,297.0391 337.9063,297.2734 Q338.1719,297.5078 338.1719,297.8828 Q338.1719,298.2734 337.9063,298.5078 Q337.6563,298.7422 337.0469,298.7422 L336.6406,298.7422 L339.0938,304.6172 Z " fill="#000000"/><text fill="#000000" font-family="sans-serif" font-size="12" font-style="italic" lengthAdjust="spacing" textLength="85" x="350.5" y="297.457">&#171;Value Object&#187;</text><text fill="#000000" font-family="sans-serif" font-size="14" lengthAdjust="spacing" textLength="64" x="361" y="314.627">FirstName</text><line style="stroke:#181818;stroke-width:0.5;" x1="324.5" x2="435.5" y1="322.7031" y2="322.7031"/><line style="stroke:#181818;stroke-width:0.5;" x1="324.5" x2="435.5" y1="330.7031" y2="330.7031"/></g><!--class LastName--><g id="elem_LastName"><rect codeLine="19" fill="#F1F1F1" height="58.7031" id="LastName" rx="2.5" ry="2.5" style="stroke:#181818;stroke-width:0.5;" width="113" x="471.5" y="280"/><ellipse cx="486.5" cy="301.3516" fill="#F04800" rx="11" ry="11" style="stroke:#181818;stroke-width:1.0;"/><path d="M487.0938,304.6172 L489.5625,298.7422 L489.1719,298.7422 Q488.5625,298.7422 488.2969,298.5078 Q488.0313,298.2734 488.0313,297.8828 Q488.0313,297.5078 488.2969,297.2734 Q488.5625,297.0391 489.1719,297.0391 L491.4531,297.0391 Q492.0625,297.0391 492.3281,297.2734 Q492.5938,297.5078 492.5938,297.8828 Q492.5938,298.3516 492.1875,298.6172 Q492,298.7422 491.4063,298.7422 L487.9219,307.1016 L486.2813,307.1016 L482.7969,298.7422 Q482.2031,298.7422 482.0156,298.6172 Q481.6094,298.3516 481.6094,297.8828 Q481.6094,297.5078 481.875,297.2734 Q482.1406,297.0391 482.75,297.0391 L485.0469,297.0391 Q485.6563,297.0391 485.9063,297.2734 Q486.1719,297.5078 486.1719,297.8828 Q486.1719,298.2734 485.9063,298.5078 Q485.6563,298.7422 485.0469,298.7422 L484.6406,298.7422 L487.0938,304.6172 Z " fill="#000000"/><text fill="#000000" font-family="sans-serif" font-size="12" font-style="italic" lengthAdjust="spacing" textLength="85" x="498.5" y="297.457">&#171;Value Object&#187;</text><text fill="#000000" font-family="sans-serif" font-size="14" lengthAdjust="spacing" textLength="63" x="509.5" y="314.627">LastName</text><line style="stroke:#181818;stroke-width:0.5;" x1="472.5" x2="583.5" y1="322.7031" y2="322.7031"/><line style="stroke:#181818;stroke-width:0.5;" x1="472.5" x2="583.5" y1="330.7031" y2="330.7031"/></g><!--class FullName--><g id="elem_FullName"><rect codeLine="20" fill="#F1F1F1" height="58.7031" id="FullName" rx="2.5" ry="2.5" style="stroke:#181818;stroke-width:0.5;" width="113" x="619.5" y="280"/><ellipse cx="634.5" cy="301.3516" fill="#F04800" rx="11" ry="11" style="stroke:#181818;stroke-width:1.0;"/><path d="M635.0938,304.6172 L637.5625,298.7422 L637.1719,298.7422 Q636.5625,298.7422 636.2969,298.5078 Q636.0313,298.2734 636.0313,297.8828 Q636.0313,297.5078 636.2969,297.2734 Q636.5625,297.0391 637.1719,297.0391 L639.4531,297.0391 Q640.0625,297.0391 640.3281,297.2734 Q640.5938,297.5078 640.5938,297.8828 Q640.5938,298.3516 640.1875,298.6172 Q640,298.7422 639.4063,298.7422 L635.9219,307.1016 L634.2813,307.1016 L630.7969,298.7422 Q630.2031,298.7422 630.0156,298.6172 Q629.6094,298.3516 629.6094,297.8828 Q629.6094,297.5078 629.875,297.2734 Q630.1406,297.0391 630.75,297.0391 L633.0469,297.0391 Q633.6563,297.0391 633.9063,297.2734 Q634.1719,297.5078 634.1719,297.8828 Q634.1719,298.2734 633.9063,298.5078 Q633.6563,298.7422 633.0469,298.7422 L632.6406,298.7422 L635.0938,304.6172 Z " fill="#000000"/><text fill="#000000" font-family="sans-serif" font-size="12" font-style="italic" lengthAdjust="spacing" textLength="85" x="646.5" y="297.457">&#171;Value Object&#187;</text><text fill="#000000" font-family="sans-serif" font-size="14" lengthAdjust="spacing" textLength="59" x="659.5" y="314.627">FullName</text><line style="stroke:#181818;stroke-width:0.5;" x1="620.5" x2="731.5" y1="322.7031" y2="322.7031"/><line style="stroke:#181818;stroke-width:0.5;" x1="620.5" x2="731.5" y1="330.7031" y2="330.7031"/></g><!--reverse link ContactInformation to EmailAddress--><g id="link_ContactInformation_EmailAddress"><path codeLine="22" d="M198.8755,350.4121 C187.1155,383.6321 171.84,426.79 160.1,459.97 " fill="none" id="ContactInformation-backto-EmailAddress" style="stroke:#181818;stroke-width:1.0;"/><polygon fill="#181818" points="202.88,339.1,197.107,343.4212,198.8755,350.4121,204.6484,346.0909,202.88,339.1" style="stroke:#181818;stroke-width:1.0;"/><text fill="#000000" font-family="sans-serif" font-size="13" lengthAdjust="spacing" textLength="7" x="193.0709" y="360.417">1</text><text fill="#000000" font-family="sans-serif" font-size="13" lengthAdjust="spacing" textLength="7" x="154.5438" y="449.3264">1</text></g><!--reverse link ContactInformation to PhoneNumber--><g id="link_ContactInformation_PhoneNumber"><path codeLine="23" d="M233.2898,349.7603 C250.4598,382.9803 273.1,426.79 290.26,459.97 " fill="none" id="ContactInformation-backto-PhoneNumber" style="stroke:#181818;stroke-width:1.0;"/><polygon fill="#181818" points="227.78,339.1,226.9815,346.2668,233.2898,349.7603,234.0883,342.5935,227.78,339.1" style="stroke:#181818;stroke-width:1.0;"/><text fill="#000000" font-family="sans-serif" font-size="13" lengthAdjust="spacing" textLength="7" x="223.1065" y="360.417">1</text><text fill="#000000" font-family="sans-serif" font-size="13" lengthAdjust="spacing" textLength="7" x="279.27" y="449.3264">1</text></g><!--reverse link Patient to FirstName--><g id="link_Patient_FirstName"><path codeLine="27" d="M425.3389,230.4943 C414.7989,248.6243 407.25,261.62 396.7,279.77 " fill="none" id="Patient-backto-FirstName" style="stroke:#181818;stroke-width:1.0;"/><polygon fill="#181818" points="431.37,220.12,424.8963,223.2967,425.3389,230.4943,431.8125,227.3175,431.37,220.12" style="stroke:#181818;stroke-width:1.0;"/><text fill="#000000" font-family="sans-serif" font-size="13" lengthAdjust="spacing" textLength="7" x="420.4069" y="241.0854">1</text><text fill="#000000" font-family="sans-serif" font-size="13" lengthAdjust="spacing" textLength="7" x="392.5875" y="269.0826">1</text></g><!--reverse link Patient to LastName--><g id="link_Patient_LastName"><path codeLine="28" d="M474.3444,230.0249 C486.7444,248.1549 495.94,261.62 508.35,279.77 " fill="none" id="Patient-backto-LastName" style="stroke:#181818;stroke-width:1.0;"/><polygon fill="#181818" points="467.57,220.12,467.6556,227.3306,474.3444,230.0249,474.2589,222.8143,467.57,220.12" style="stroke:#181818;stroke-width:1.0;"/><text fill="#000000" font-family="sans-serif" font-size="13" lengthAdjust="spacing" textLength="7" x="463.7338" y="241.0854">1</text><text fill="#000000" font-family="sans-serif" font-size="13" lengthAdjust="spacing" textLength="7" x="496.2859" y="269.0826">1</text></g><!--reverse link Patient to FullName--><g id="link_Patient_FullName"><path codeLine="29" d="M509.2769,222.9475 C545.3569,241.4575 583.18,260.87 620.35,279.94 " fill="none" id="Patient-backto-FullName" style="stroke:#181818;stroke-width:1.0;"/><polygon fill="#181818" points="498.6,217.47,502.1126,223.7677,509.2769,222.9475,505.7643,216.6498,498.6,217.47" style="stroke:#181818;stroke-width:1.0;"/><text fill="#000000" font-family="sans-serif" font-size="13" lengthAdjust="spacing" textLength="7" x="506.5459" y="217.799">1</text><text fill="#000000" font-family="sans-serif" font-size="13" lengthAdjust="spacing" textLength="7" x="604.6623" y="271.9661">1</text></g><!--reverse link Patient to ContactInformation--><g id="link_Patient_ContactInformation"><path codeLine="30" d="M386.5577,222.0881 C349.3177,240.6281 309.41,260.5 270.64,279.8 " fill="none" id="Patient-backto-ContactInformation" style="stroke:#181818;stroke-width:1.0;"/><polygon fill="#181818" points="397.3,216.74,390.1461,215.8333,386.5577,222.0881,393.7115,222.9948,397.3,216.74" style="stroke:#181818;stroke-width:1.0;"/><text fill="#000000" font-family="sans-serif" font-size="13" lengthAdjust="spacing" textLength="7" x="382.3394" y="216.9617">1</text><text fill="#000000" font-family="sans-serif" font-size="13" lengthAdjust="spacing" textLength="7" x="275.4831" y="269.1192">1</text></g><!--link Gender to Patient--><g id="link_Gender_Patient"><path codeLine="31" d="M749.17,94.82 C743.39,96.96 737.59,99.05 732,101 C651.03,129.17 567.1714,154.6307 510.1114,171.4307 " fill="none" id="Gender-to-Patient" style="stroke:#181818;stroke-width:1.0;"/><polygon fill="#181818" points="498.6,174.82,505.4855,176.9625,510.1114,171.4307,503.226,169.2882,498.6,174.82" style="stroke:#181818;stroke-width:1.0;"/><text fill="#000000" font-family="sans-serif" font-size="13" lengthAdjust="spacing" textLength="7" x="734.4402" y="94.3195">1</text><text fill="#000000" font-family="sans-serif" font-size="13" lengthAdjust="spacing" textLength="7" x="506.5459" y="168.8847">1</text></g><!--link MedicalRecordNumber to Patient--><g id="link_MedicalRecordNumber_Patient"><path codeLine="32" d="M583.21,101.12 C555.37,119.32 529.5042,136.2239 501.6942,154.4039 " fill="none" id="MedicalRecordNumber-to-Patient" style="stroke:#181818;stroke-width:1.0;"/><polygon fill="#181818" points="491.65,160.97,498.8608,161.035,501.6942,154.4039,494.4834,154.3389,491.65,160.97" style="stroke:#181818;stroke-width:1.0;"/><text fill="#000000" font-family="sans-serif" font-size="13" lengthAdjust="spacing" textLength="7" x="566.8998" y="122.0854">1</text><text fill="#000000" font-family="sans-serif" font-size="13" lengthAdjust="spacing" textLength="7" x="493.4328" y="150.3264">1</text></g><!--link DateOfBirth to Patient--><g id="link_DateOfBirth_Patient"><path codeLine="33" d="M448,101.12 C448,119.25 448,130.62 448,148.77 " fill="none" id="DateOfBirth-to-Patient" style="stroke:#181818;stroke-width:1.0;"/><polygon fill="#181818" points="448,160.77,452,154.77,448,148.77,444,154.77,448,160.77" style="stroke:#181818;stroke-width:1.0;"/><text fill="#000000" font-family="sans-serif" font-size="13" lengthAdjust="spacing" textLength="7" x="440.3109" y="122.0854">1</text><text fill="#000000" font-family="sans-serif" font-size="13" lengthAdjust="spacing" textLength="7" x="440.2344" y="150.0826">1</text></g><!--link MedicalConditions to Patient--><g id="link_MedicalConditions_Patient"><path codeLine="34" d="M323.36,101.12 C349.03,119.32 372.341,135.8491 397.981,154.0291 " fill="none" id="MedicalConditions-to-Patient" style="stroke:#181818;stroke-width:1.0;"/><polygon fill="#181818" points="407.77,160.97,405.1891,154.2366,397.981,154.0291,400.5619,160.7626,407.77,160.97" style="stroke:#181818;stroke-width:1.0;"/><text fill="#000000" font-family="sans-serif" font-size="13" lengthAdjust="spacing" textLength="5" x="325.8137" y="122.0854">*</text><text fill="#000000" font-family="sans-serif" font-size="13" lengthAdjust="spacing" textLength="7" x="391.2041" y="150.3264">1</text></g><!--link EmergencyContact to Patient--><g id="link_EmergencyContact_Patient"><path codeLine="35" d="M174.38,98.03 C242.06,120.66 327.5891,149.2453 386.0691,168.7953 " fill="none" id="EmergencyContact-to-Patient" style="stroke:#181818;stroke-width:1.0;"/><polygon fill="#181818" points="397.45,172.6,393.0278,166.904,386.0691,168.7953,390.4913,174.4913,397.45,172.6" style="stroke:#181818;stroke-width:1.0;"/><text fill="#000000" font-family="sans-serif" font-size="13" lengthAdjust="spacing" textLength="7" x="181.9936" y="97.3222">1</text><text fill="#000000" font-family="sans-serif" font-size="13" lengthAdjust="spacing" textLength="7" x="382.5114" y="166.3387">1</text></g><!--SRC=[bPD1Qy8m583l_HMXkqnPeOCTDf22StO8cnPXtcFoMhEboPQc1v7zzyMqrQWjipa5ydqlxxta9PXyuGnGWZK3eSTPfY336j3EGsPDXMPwsvoYqUXsTNSJcXN70xIKKjT45Er-FMjCE2uAz0g2WghvD7nu3CC1Mc5U0bgiFu7eA4B6E0hlG1d1V0b4AZelyxLZFrdxGx0Vey-eIOIb3DHvY1UJzY9zPafl-byyaO8opQGeUhZJ75G6WcoDhJ7HlLJC-9XI1KMV6vED573MdYxByzmdh5ESYLIg7EyhDG6QnqEdhnSpLUWvpg57Pc-ujnANd5-bLCvb0VwzZuP14DYDsz6h1AUNJQ-EXU-1eFmEXXLQ_N_B70hjHWw5TICToRN3zJHPeEMuRNQwM7T8_eddZ8G_R2Sl1g0jf6U_elS7]--></g></svg>