<?xml version="1.0" encoding="us-ascii" standalone="no"?><svg xmlns="http://www.w3.org/2000/svg" xmlns:xlink="http://www.w3.org/1999/xlink" contentStyleType="text/css" height="759px" preserveAspectRatio="none" style="width:880px;height:759px;background:#FFFFFF;" version="1.1" viewBox="0 0 880 759" width="880px" zoomAndPan="magnify"><defs/><g><rect fill="#FFFFFF" height="57.582" style="stroke:#181818;stroke-width:1.0;" width="10" x="358" y="54.6211"/><rect fill="#FFFFFF" height="83.873" style="stroke:#181818;stroke-width:1.0;" width="10" x="358" y="143.4941"/><rect fill="#FFFFFF" height="31.291" style="stroke:#181818;stroke-width:1.0;" width="10" x="358" y="258.6582"/><rect fill="#FFFFFF" height="31.291" style="stroke:#181818;stroke-width:1.0;" width="10" x="358" y="321.2402"/><rect fill="#FFFFFF" height="31.291" style="stroke:#181818;stroke-width:1.0;" width="10" x="358" y="383.8223"/><rect fill="#FFFFFF" height="31.291" style="stroke:#181818;stroke-width:1.0;" width="10" x="358" y="429.1133"/><rect fill="#FFFFFF" height="57.582" style="stroke:#181818;stroke-width:1.0;" width="10" x="358" y="474.4043"/><rect fill="#FFFFFF" height="38.291" style="stroke:#181818;stroke-width:1.0;" width="10" x="358" y="545.9863"/><rect fill="#FFFFFF" height="114.582" style="stroke:#181818;stroke-width:1.0;" width="10" x="358" y="598.2773"/><rect fill="#FFFFFF" height="31.291" style="stroke:#181818;stroke-width:1.0;" width="10" x="498" y="112.2031"/><rect fill="#FFFFFF" height="14" style="stroke:#181818;stroke-width:1.0;" width="10" x="498" y="460.4043"/><rect fill="#FFFFFF" height="14" style="stroke:#181818;stroke-width:1.0;" width="10" x="498" y="531.9863"/><rect fill="#FFFFFF" height="31.291" style="stroke:#181818;stroke-width:1.0;" width="10" x="610" y="227.3672"/><rect fill="#FFFFFF" height="31.291" style="stroke:#181818;stroke-width:1.0;" width="10" x="610" y="352.5313"/><rect fill="#FFFFFF" height="31.291" style="stroke:#181818;stroke-width:1.0;" width="10" x="704.5" y="289.9492"/><rect fill="#FFFFFF" height="14" style="stroke:#181818;stroke-width:1.0;" width="10" x="704.5" y="415.1133"/><rect fill="#FFFFFF" height="44" style="stroke:#181818;stroke-width:1.0;" width="10" x="796" y="584.2773"/><rect fill="none" height="635.2383" style="stroke:#000000;stroke-width:1.5;" width="864" x="10" y="69.6211"/><rect fill="none" height="539.3652" style="stroke:#000000;stroke-width:1.5;" width="844" x="20" y="158.4941"/><rect fill="none" height="506.0742" style="stroke:#000000;stroke-width:1.5;" width="824" x="30" y="184.7852"/><rect fill="none" height="64.582" style="stroke:#000000;stroke-width:1.5;" width="312" x="259" y="489.4043"/><line style="stroke:#181818;stroke-width:0.5;stroke-dasharray:5.0,5.0;" x1="363" x2="363" y1="38.6211" y2="721.8594"/><line style="stroke:#181818;stroke-width:0.5;stroke-dasharray:5.0,5.0;" x1="503" x2="503" y1="38.6211" y2="721.8594"/><line style="stroke:#181818;stroke-width:0.5;stroke-dasharray:5.0,5.0;" x1="615" x2="615" y1="38.6211" y2="721.8594"/><line style="stroke:#181818;stroke-width:0.5;stroke-dasharray:5.0,5.0;" x1="709" x2="709" y1="38.6211" y2="721.8594"/><line style="stroke:#181818;stroke-width:0.5;stroke-dasharray:5.0,5.0;" x1="801" x2="801" y1="38.6211" y2="721.8594"/><rect fill="#E2E2F0" height="32.6211" rx="2.5" ry="2.5" style="stroke:#181818;stroke-width:0.5;" width="188" x="269" y="5"/><text fill="#000000" font-family="sans-serif" font-size="14" lengthAdjust="spacing" textLength="174" x="276" y="27.1074">LegalDeletionCheckService</text><rect fill="#E2E2F0" height="32.6211" rx="2.5" ry="2.5" style="stroke:#181818;stroke-width:0.5;" width="188" x="269" y="720.8594"/><text fill="#000000" font-family="sans-serif" font-size="14" lengthAdjust="spacing" textLength="174" x="276" y="742.9668">LegalDeletionCheckService</text><rect fill="#E2E2F0" height="32.6211" rx="2.5" ry="2.5" style="stroke:#181818;stroke-width:0.5;" width="72" x="467" y="5"/><text fill="#000000" font-family="sans-serif" font-size="14" lengthAdjust="spacing" textLength="58" x="474" y="27.1074">LogRepo</text><rect fill="#E2E2F0" height="32.6211" rx="2.5" ry="2.5" style="stroke:#181818;stroke-width:0.5;" width="72" x="467" y="720.8594"/><text fill="#000000" font-family="sans-serif" font-size="14" lengthAdjust="spacing" textLength="58" x="474" y="742.9668">LogRepo</text><rect fill="#E2E2F0" height="32.6211" rx="2.5" ry="2.5" style="stroke:#181818;stroke-width:0.5;" width="92" x="569" y="5"/><text fill="#000000" font-family="sans-serif" font-size="14" lengthAdjust="spacing" textLength="78" x="576" y="27.1074">PatientRepo</text><rect fill="#E2E2F0" height="32.6211" rx="2.5" ry="2.5" style="stroke:#181818;stroke-width:0.5;" width="92" x="569" y="720.8594"/><text fill="#000000" font-family="sans-serif" font-size="14" lengthAdjust="spacing" textLength="78" x="576" y="742.9668">PatientRepo</text><rect fill="#E2E2F0" height="32.6211" rx="2.5" ry="2.5" style="stroke:#181818;stroke-width:0.5;" width="77" x="671" y="5"/><text fill="#000000" font-family="sans-serif" font-size="14" lengthAdjust="spacing" textLength="63" x="678" y="27.1074">UserRepo</text><rect fill="#E2E2F0" height="32.6211" rx="2.5" ry="2.5" style="stroke:#181818;stroke-width:0.5;" width="77" x="671" y="720.8594"/><text fill="#000000" font-family="sans-serif" font-size="14" lengthAdjust="spacing" textLength="63" x="678" y="742.9668">UserRepo</text><rect fill="#E2E2F0" height="32.6211" rx="2.5" ry="2.5" style="stroke:#181818;stroke-width:0.5;" width="86" x="758" y="5"/><text fill="#000000" font-family="sans-serif" font-size="14" lengthAdjust="spacing" textLength="72" x="765" y="27.1074">UnitOfWork</text><rect fill="#E2E2F0" height="32.6211" rx="2.5" ry="2.5" style="stroke:#181818;stroke-width:0.5;" width="86" x="758" y="720.8594"/><text fill="#000000" font-family="sans-serif" font-size="14" lengthAdjust="spacing" textLength="72" x="765" y="742.9668">UnitOfWork</text><rect fill="#FFFFFF" height="57.582" style="stroke:#181818;stroke-width:1.0;" width="10" x="358" y="54.6211"/><rect fill="#FFFFFF" height="83.873" style="stroke:#181818;stroke-width:1.0;" width="10" x="358" y="143.4941"/><rect fill="#FFFFFF" height="31.291" style="stroke:#181818;stroke-width:1.0;" width="10" x="358" y="258.6582"/><rect fill="#FFFFFF" height="31.291" style="stroke:#181818;stroke-width:1.0;" width="10" x="358" y="321.2402"/><rect fill="#FFFFFF" height="31.291" style="stroke:#181818;stroke-width:1.0;" width="10" x="358" y="383.8223"/><rect fill="#FFFFFF" height="31.291" style="stroke:#181818;stroke-width:1.0;" width="10" x="358" y="429.1133"/><rect fill="#FFFFFF" height="57.582" style="stroke:#181818;stroke-width:1.0;" width="10" x="358" y="474.4043"/><rect fill="#FFFFFF" height="38.291" style="stroke:#181818;stroke-width:1.0;" width="10" x="358" y="545.9863"/><rect fill="#FFFFFF" height="114.582" style="stroke:#181818;stroke-width:1.0;" width="10" x="358" y="598.2773"/><rect fill="#FFFFFF" height="31.291" style="stroke:#181818;stroke-width:1.0;" width="10" x="498" y="112.2031"/><rect fill="#FFFFFF" height="14" style="stroke:#181818;stroke-width:1.0;" width="10" x="498" y="460.4043"/><rect fill="#FFFFFF" height="14" style="stroke:#181818;stroke-width:1.0;" width="10" x="498" y="531.9863"/><rect fill="#FFFFFF" height="31.291" style="stroke:#181818;stroke-width:1.0;" width="10" x="610" y="227.3672"/><rect fill="#FFFFFF" height="31.291" style="stroke:#181818;stroke-width:1.0;" width="10" x="610" y="352.5313"/><rect fill="#FFFFFF" height="31.291" style="stroke:#181818;stroke-width:1.0;" width="10" x="704.5" y="289.9492"/><rect fill="#FFFFFF" height="14" style="stroke:#181818;stroke-width:1.0;" width="10" x="704.5" y="415.1133"/><rect fill="#FFFFFF" height="44" style="stroke:#181818;stroke-width:1.0;" width="10" x="796" y="584.2773"/><polygon fill="#181818" points="346,50.6211,356,54.6211,346,58.6211,350,54.6211" style="stroke:#181818;stroke-width:1.0;"/><line style="stroke:#181818;stroke-width:1.0;" x1="0" x2="352" y1="54.6211" y2="54.6211"/><path d="M10,69.6211 L83,69.6211 L83,78.9121 L73,88.9121 L10,88.9121 L10,69.6211 " fill="#EEEEEE" style="stroke:#000000;stroke-width:1.5;"/><rect fill="none" height="635.2383" style="stroke:#000000;stroke-width:1.5;" width="864" x="10" y="69.6211"/><text fill="#000000" font-family="sans-serif" font-size="13" font-weight="bold" lengthAdjust="spacing" textLength="28" x="25" y="84.6494">loop</text><text fill="#000000" font-family="sans-serif" font-size="11" font-weight="bold" lengthAdjust="spacing" textLength="119" x="98" y="83.4912">[WHILE SYSTEM RUNS]</text><polygon fill="#181818" points="486,108.2031,496,112.2031,486,116.2031,490,112.2031" style="stroke:#181818;stroke-width:1.0;"/><line style="stroke:#181818;stroke-width:1.0;" x1="363" x2="492" y1="112.2031" y2="112.2031"/><text fill="#000000" font-family="sans-serif" font-size="13" lengthAdjust="spacing" textLength="81" x="370" y="106.9404">GetAllAsync()</text><polygon fill="#181818" points="379,139.4941,369,143.4941,379,147.4941,375,143.4941" style="stroke:#181818;stroke-width:1.0;"/><line style="stroke:#181818;stroke-width:1.0;stroke-dasharray:2.0,2.0;" x1="373" x2="502" y1="143.4941" y2="143.4941"/><text fill="#000000" font-family="sans-serif" font-size="13" lengthAdjust="spacing" textLength="24" x="385" y="138.2314">logs</text><path d="M20,158.4941 L93,158.4941 L93,167.7852 L83,177.7852 L20,177.7852 L20,158.4941 " fill="#EEEEEE" style="stroke:#000000;stroke-width:1.5;"/><rect fill="none" height="539.3652" style="stroke:#000000;stroke-width:1.5;" width="844" x="20" y="158.4941"/><text fill="#000000" font-family="sans-serif" font-size="13" font-weight="bold" lengthAdjust="spacing" textLength="28" x="35" y="173.5225">loop</text><text fill="#000000" font-family="sans-serif" font-size="11" font-weight="bold" lengthAdjust="spacing" textLength="146" x="108" y="172.3643">[FOR EVERY DELETION LOG]</text><path d="M30,184.7852 L91,184.7852 L91,194.0762 L81,204.0762 L30,204.0762 L30,184.7852 " fill="#EEEEEE" style="stroke:#000000;stroke-width:1.5;"/><rect fill="none" height="506.0742" style="stroke:#000000;stroke-width:1.5;" width="824" x="30" y="184.7852"/><text fill="#000000" font-family="sans-serif" font-size="13" font-weight="bold" lengthAdjust="spacing" textLength="16" x="45" y="199.8135">alt</text><text fill="#000000" font-family="sans-serif" font-size="11" font-weight="bold" lengthAdjust="spacing" textLength="223" x="106" y="198.6553">[IF DELETION GRACE PERIOD HAS EXPIRED]</text><polygon fill="#181818" points="598,223.3672,608,227.3672,598,231.3672,602,227.3672" style="stroke:#181818;stroke-width:1.0;"/><line style="stroke:#181818;stroke-width:1.0;" x1="363" x2="604" y1="227.3672" y2="227.3672"/><text fill="#000000" font-family="sans-serif" font-size="13" lengthAdjust="spacing" textLength="223" x="370" y="222.1045">GetByIdAsync(medicalRecordNumber)</text><polygon fill="#181818" points="379,254.6582,369,258.6582,379,262.6582,375,258.6582" style="stroke:#181818;stroke-width:1.0;"/><line style="stroke:#181818;stroke-width:1.0;stroke-dasharray:2.0,2.0;" x1="373" x2="614" y1="258.6582" y2="258.6582"/><text fill="#000000" font-family="sans-serif" font-size="13" lengthAdjust="spacing" textLength="39" x="385" y="253.3955">patient</text><polygon fill="#181818" points="692.5,285.9492,702.5,289.9492,692.5,293.9492,696.5,289.9492" style="stroke:#181818;stroke-width:1.0;"/><line style="stroke:#181818;stroke-width:1.0;" x1="363" x2="698.5" y1="289.9492" y2="289.9492"/><text fill="#000000" font-family="sans-serif" font-size="13" lengthAdjust="spacing" textLength="170" x="370" y="284.6865">GetByIdAsync(patient.userId)</text><polygon fill="#181818" points="379,317.2402,369,321.2402,379,325.2402,375,321.2402" style="stroke:#181818;stroke-width:1.0;"/><line style="stroke:#181818;stroke-width:1.0;stroke-dasharray:2.0,2.0;" x1="373" x2="708.5" y1="321.2402" y2="321.2402"/><text fill="#000000" font-family="sans-serif" font-size="13" lengthAdjust="spacing" textLength="25" x="385" y="315.9775">user</text><polygon fill="#181818" points="598,348.5313,608,352.5313,598,356.5313,602,352.5313" style="stroke:#181818;stroke-width:1.0;"/><line style="stroke:#181818;stroke-width:1.0;" x1="363" x2="604" y1="352.5313" y2="352.5313"/><text fill="#000000" font-family="sans-serif" font-size="13" lengthAdjust="spacing" textLength="88" x="370" y="347.2686">Update(patient)</text><polygon fill="#181818" points="379,379.8223,369,383.8223,379,387.8223,375,383.8223" style="stroke:#181818;stroke-width:1.0;"/><line style="stroke:#181818;stroke-width:1.0;stroke-dasharray:2.0,2.0;" x1="373" x2="614" y1="383.8223" y2="383.8223"/><text fill="#000000" font-family="sans-serif" font-size="13" lengthAdjust="spacing" textLength="39" x="385" y="378.5596">patient</text><polygon fill="#181818" points="692.5,411.1133,702.5,415.1133,692.5,419.1133,696.5,415.1133" style="stroke:#181818;stroke-width:1.0;"/><line style="stroke:#181818;stroke-width:1.0;" x1="363" x2="698.5" y1="415.1133" y2="415.1133"/><text fill="#000000" font-family="sans-serif" font-size="13" lengthAdjust="spacing" textLength="79" x="370" y="409.8506">Remove(user)</text><polygon fill="#181818" points="379,425.1133,369,429.1133,379,433.1133,375,429.1133" style="stroke:#181818;stroke-width:1.0;"/><line style="stroke:#181818;stroke-width:1.0;stroke-dasharray:2.0,2.0;" x1="373" x2="708.5" y1="429.1133" y2="429.1133"/><polygon fill="#181818" points="486,456.4043,496,460.4043,486,464.4043,490,460.4043" style="stroke:#181818;stroke-width:1.0;"/><line style="stroke:#181818;stroke-width:1.0;" x1="363" x2="492" y1="460.4043" y2="460.4043"/><text fill="#000000" font-family="sans-serif" font-size="13" lengthAdjust="spacing" textLength="71" x="370" y="455.1416">Remove(log)</text><polygon fill="#181818" points="379,470.4043,369,474.4043,379,478.4043,375,474.4043" style="stroke:#181818;stroke-width:1.0;"/><line style="stroke:#181818;stroke-width:1.0;stroke-dasharray:2.0,2.0;" x1="373" x2="502" y1="474.4043" y2="474.4043"/><path d="M259,489.4043 L332,489.4043 L332,498.6953 L322,508.6953 L259,508.6953 L259,489.4043 " fill="#EEEEEE" style="stroke:#000000;stroke-width:1.5;"/><rect fill="none" height="64.582" style="stroke:#000000;stroke-width:1.5;" width="312" x="259" y="489.4043"/><text fill="#000000" font-family="sans-serif" font-size="13" font-weight="bold" lengthAdjust="spacing" textLength="28" x="274" y="504.4326">loop</text><text fill="#000000" font-family="sans-serif" font-size="11" font-weight="bold" lengthAdjust="spacing" textLength="219" x="347" y="503.2744">[FOR EVERY LOG TO CHECK DUPLICATES]</text><polygon fill="#181818" points="486,527.9863,496,531.9863,486,535.9863,490,531.9863" style="stroke:#181818;stroke-width:1.0;"/><line style="stroke:#181818;stroke-width:1.0;" x1="363" x2="492" y1="531.9863" y2="531.9863"/><text fill="#000000" font-family="sans-serif" font-size="13" lengthAdjust="spacing" textLength="89" x="370" y="526.7236">Remove(check)</text><polygon fill="#181818" points="379,541.9863,369,545.9863,379,549.9863,375,545.9863" style="stroke:#181818;stroke-width:1.0;"/><line style="stroke:#181818;stroke-width:1.0;stroke-dasharray:2.0,2.0;" x1="373" x2="502" y1="545.9863" y2="545.9863"/><polygon fill="#181818" points="784,580.2773,794,584.2773,784,588.2773,788,584.2773" style="stroke:#181818;stroke-width:1.0;"/><line style="stroke:#181818;stroke-width:1.0;" x1="363" x2="790" y1="584.2773" y2="584.2773"/><text fill="#000000" font-family="sans-serif" font-size="13" lengthAdjust="spacing" textLength="90" x="370" y="579.0146">CommitAsync()</text><polygon fill="#181818" points="379,594.2773,369,598.2773,379,602.2773,375,598.2773" style="stroke:#181818;stroke-width:1.0;"/><line style="stroke:#181818;stroke-width:1.0;stroke-dasharray:2.0,2.0;" x1="373" x2="795" y1="598.2773" y2="598.2773"/><path d="M40,641.2773 L40,685.2773 L353,685.2773 L353,651.2773 L343,641.2773 L40,641.2773 " fill="#FEFFDD" style="stroke:#181818;stroke-width:0.5;"/><path d="M343,641.2773 L343,651.2773 L353,651.2773 L343,641.2773 " fill="#FEFFDD" style="stroke:#181818;stroke-width:0.5;"/><text fill="#000000" font-family="sans-serif" font-size="13" lengthAdjust="spacing" textLength="292" x="46" y="660.3057">The system repeats this process every 30 minutes</text><text fill="#000000" font-family="sans-serif" font-size="13" lengthAdjust="spacing" textLength="290" x="46" y="677.5967">until the service is stopped or system shuts down.</text><!--SRC=[hLHDSzem4BthL-ojwG78J6uvT8RQ2dZgOiQ6fZagyW9gR4jZoJ3y-qh-mX2IfZEvU2JjUxjlFxnVTiOeVJ-Pg8mLfigpCPVvH3x_GMv6gM3RakM4A5OQmOMo40Xnop8VCpH25juE-Kk2vLvm1AOXI_Ry72stCIfPs-JsqhfaHc1XEeHYvXAnrbXsvigUNzaBOQBDeonVQeGy43BwriWWcPGA7kT1I25vIbRq9yJhHK8ODsBF33Oezm57gTN1FSpGJBDigey5l_bAKZo73zXDEYrlr4Qr3koBFkCrm8ku98oY9Jn4CT1VD7u2duPq5KGB2ACPOPc1uE7qDekd7eKbZOF8X_aq0Vfx6SJK9xtyfdID_E_786tqvvWAph8OkIpJHPK_O_awfVxMbf-qlWOfgQPFGse7lbxDjbMNUbe_OsSEqdUaTAqcdQE16FSqPFROwrBwognLQesTXd_NuLFB46CkztZZ7ZwGzcNM_v5kFyTjH7j_9-3r8RuslVNFT1fNEwMmYi2RK-y7-Ejb67ZJ5Kq-A8gxjV4PiixvMAHlTa8UR7XFvhamR_tRfnAxDU8OVUHpuB0R5bf8Py2D0Rbf002h7O8-QeCvbAYG6Grc9-oAAoL7hG7tM1xXxXPoKLG6jQLKXH6PHLbYkr0jNXkf5AOWoywTtbNMMIeFnTWb32uwgLDtDxTL2A4Blpxz1G00]--></g></svg>