<?xml version="1.0" encoding="us-ascii" standalone="no"?><svg xmlns="http://www.w3.org/2000/svg" xmlns:xlink="http://www.w3.org/1999/xlink" contentStyleType="text/css" height="548px" preserveAspectRatio="none" style="width:1532px;height:548px;background:#FFFFFF;" version="1.1" viewBox="0 0 1532 548" width="1532px" zoomAndPan="magnify"><defs/><g><text fill="#000000" font-family="sans-serif" font-size="14" font-weight="bold" lengthAdjust="spacing" textLength="210" x="660" y="27.9951">Sequence Diagram - US 22</text><rect fill="#FFFFFF" height="390.7266" style="stroke:#181818;stroke-width:1.0;" width="10" x="268" y="104.7266"/><rect fill="#FFFFFF" height="332.4609" style="stroke:#181818;stroke-width:1.0;" width="10" x="561" y="133.8594"/><rect fill="#FFFFFF" height="230.0938" style="stroke:#181818;stroke-width:1.0;" width="10" x="854" y="207.0938"/><rect fill="#FFFFFF" height="29.1328" style="stroke:#181818;stroke-width:1.0;" width="10" x="1143" y="236.2266"/><rect fill="#FFFFFF" height="29.1328" style="stroke:#181818;stroke-width:1.0;" width="10" x="1143" y="337.625"/><rect fill="#FFFFFF" height="14" style="stroke:#181818;stroke-width:1.0;" width="10" x="1306" y="294.4922"/><line style="stroke:#181818;stroke-width:0.5;stroke-dasharray:5.0,5.0;" x1="273" x2="273" y1="73.5938" y2="513.4531"/><line style="stroke:#181818;stroke-width:0.5;stroke-dasharray:5.0,5.0;" x1="565.5" x2="565.5" y1="73.5938" y2="513.4531"/><line style="stroke:#181818;stroke-width:0.5;stroke-dasharray:5.0,5.0;" x1="859" x2="859" y1="73.5938" y2="513.4531"/><line style="stroke:#181818;stroke-width:0.5;stroke-dasharray:5.0,5.0;" x1="1148" x2="1148" y1="73.5938" y2="513.4531"/><line style="stroke:#181818;stroke-width:0.5;stroke-dasharray:5.0,5.0;" x1="1311" x2="1311" y1="73.5938" y2="513.4531"/><line style="stroke:#181818;stroke-width:0.5;stroke-dasharray:5.0,5.0;" x1="1452" x2="1452" y1="405.4063" y2="513.4531"/><rect fill="#E2E2F0" height="30.2969" rx="2.5" ry="2.5" style="stroke:#181818;stroke-width:0.5;" width="68" x="239" y="42.2969"/><text fill="#000000" font-family="sans-serif" font-size="14" lengthAdjust="spacing" textLength="54" x="246" y="62.292">Routing</text><rect fill="#E2E2F0" height="30.2969" rx="2.5" ry="2.5" style="stroke:#181818;stroke-width:0.5;" width="68" x="239" y="512.4531"/><text fill="#000000" font-family="sans-serif" font-size="14" lengthAdjust="spacing" textLength="54" x="246" y="532.4482">Routing</text><rect fill="#E2E2F0" height="30.2969" rx="2.5" ry="2.5" style="stroke:#181818;stroke-width:0.5;" width="241" x="445.5" y="42.2969"/><text fill="#000000" font-family="sans-serif" font-size="14" lengthAdjust="spacing" textLength="227" x="452.5" y="62.292">RegisterOperationTypeController</text><rect fill="#E2E2F0" height="30.2969" rx="2.5" ry="2.5" style="stroke:#181818;stroke-width:0.5;" width="241" x="445.5" y="512.4531"/><text fill="#000000" font-family="sans-serif" font-size="14" lengthAdjust="spacing" textLength="227" x="452.5" y="532.4482">RegisterOperationTypeController</text><rect fill="#E2E2F0" height="30.2969" rx="2.5" ry="2.5" style="stroke:#181818;stroke-width:0.5;" width="166" x="776" y="42.2969"/><text fill="#000000" font-family="sans-serif" font-size="14" lengthAdjust="spacing" textLength="152" x="783" y="62.292">OperationTypeService</text><rect fill="#E2E2F0" height="30.2969" rx="2.5" ry="2.5" style="stroke:#181818;stroke-width:0.5;" width="166" x="776" y="512.4531"/><text fill="#000000" font-family="sans-serif" font-size="14" lengthAdjust="spacing" textLength="152" x="783" y="532.4482">OperationTypeService</text><rect fill="#E2E2F0" height="30.2969" rx="2.5" ry="2.5" style="stroke:#181818;stroke-width:0.5;" width="190" x="1053" y="42.2969"/><text fill="#000000" font-family="sans-serif" font-size="14" lengthAdjust="spacing" textLength="176" x="1060" y="62.292">OperationTypeRepository</text><rect fill="#E2E2F0" height="30.2969" rx="2.5" ry="2.5" style="stroke:#181818;stroke-width:0.5;" width="190" x="1053" y="512.4531"/><text fill="#000000" font-family="sans-serif" font-size="14" lengthAdjust="spacing" textLength="176" x="1060" y="532.4482">OperationTypeRepository</text><rect fill="#E2E2F0" height="30.2969" rx="2.5" ry="2.5" style="stroke:#181818;stroke-width:0.5;" width="116" x="1253" y="42.2969"/><text fill="#000000" font-family="sans-serif" font-size="14" lengthAdjust="spacing" textLength="102" x="1260" y="62.292">OperationType</text><rect fill="#E2E2F0" height="30.2969" rx="2.5" ry="2.5" style="stroke:#181818;stroke-width:0.5;" width="116" x="1253" y="512.4531"/><text fill="#000000" font-family="sans-serif" font-size="14" lengthAdjust="spacing" textLength="102" x="1260" y="532.4482">OperationType</text><rect fill="#E2E2F0" height="30.2969" rx="2.5" ry="2.5" style="stroke:#181818;stroke-width:0.5;" width="147" x="1379" y="512.4531"/><text fill="#000000" font-family="sans-serif" font-size="14" lengthAdjust="spacing" textLength="133" x="1386" y="532.4482">OperationTypeDTO</text><rect fill="#FFFFFF" height="390.7266" style="stroke:#181818;stroke-width:1.0;" width="10" x="268" y="104.7266"/><rect fill="#FFFFFF" height="332.4609" style="stroke:#181818;stroke-width:1.0;" width="10" x="561" y="133.8594"/><rect fill="#FFFFFF" height="230.0938" style="stroke:#181818;stroke-width:1.0;" width="10" x="854" y="207.0938"/><rect fill="#FFFFFF" height="29.1328" style="stroke:#181818;stroke-width:1.0;" width="10" x="1143" y="236.2266"/><rect fill="#FFFFFF" height="29.1328" style="stroke:#181818;stroke-width:1.0;" width="10" x="1143" y="337.625"/><rect fill="#FFFFFF" height="14" style="stroke:#181818;stroke-width:1.0;" width="10" x="1306" y="294.4922"/><polygon fill="#181818" points="256,100.7266,266,104.7266,256,108.7266,260,104.7266" style="stroke:#181818;stroke-width:1.0;"/><line style="stroke:#181818;stroke-width:1.0;" x1="0" x2="262" y1="104.7266" y2="104.7266"/><text fill="#000000" font-family="sans-serif" font-size="13" lengthAdjust="spacing" textLength="249" x="7" y="99.6606">POST(operationTypeName, authToken)</text><polygon fill="#181818" points="549,129.8594,559,133.8594,549,137.8594,553,133.8594" style="stroke:#181818;stroke-width:1.0;"/><line style="stroke:#181818;stroke-width:1.0;" x1="278" x2="555" y1="133.8594" y2="133.8594"/><text fill="#000000" font-family="sans-serif" font-size="13" lengthAdjust="spacing" textLength="264" x="285" y="128.7935">DeactivateByName(operationTypeName)</text><rect fill="none" height="39.1016" style="stroke:#000000;stroke-width:1.5;" width="247" x="442.5" y="141.8594"/><path d="M442.5,141.8594 L508.5,141.8594 L508.5,148.8594 L498.5,158.8594 L442.5,158.8594 L442.5,141.8594 " fill="#EEEEEE" style="stroke:#000000;stroke-width:2.0;"/><text fill="#000000" font-family="sans-serif" font-size="13" font-weight="bold" lengthAdjust="spacing" textLength="21" x="455.5" y="155.9263">ref</text><text fill="#000000" font-family="sans-serif" font-size="12" lengthAdjust="spacing" textLength="155" x="488.5" y="173.998">Refer to generic auth SD</text><polygon fill="#181818" points="842,203.0938,852,207.0938,842,211.0938,846,207.0938" style="stroke:#181818;stroke-width:1.0;"/><line style="stroke:#181818;stroke-width:1.0;" x1="571" x2="848" y1="207.0938" y2="207.0938"/><text fill="#000000" font-family="sans-serif" font-size="13" lengthAdjust="spacing" textLength="264" x="578" y="202.0278">DeactivateByName(operationTypeName)</text><polygon fill="#181818" points="1131,232.2266,1141,236.2266,1131,240.2266,1135,236.2266" style="stroke:#181818;stroke-width:1.0;"/><line style="stroke:#181818;stroke-width:1.0;" x1="864" x2="1137" y1="236.2266" y2="236.2266"/><text fill="#000000" font-family="sans-serif" font-size="13" lengthAdjust="spacing" textLength="260" x="871" y="231.1606">GetByNameLatest(OperationTypeName)</text><polygon fill="#181818" points="875,261.3594,865,265.3594,875,269.3594,871,265.3594" style="stroke:#181818;stroke-width:1.0;"/><line style="stroke:#181818;stroke-width:1.0;stroke-dasharray:2.0,2.0;" x1="869" x2="1147" y1="265.3594" y2="265.3594"/><text fill="#000000" font-family="sans-serif" font-size="13" lengthAdjust="spacing" textLength="93" x="881" y="260.2935">OperationType</text><polygon fill="#181818" points="1294,290.4922,1304,294.4922,1294,298.4922,1298,294.4922" style="stroke:#181818;stroke-width:1.0;"/><line style="stroke:#181818;stroke-width:1.0;" x1="864" x2="1300" y1="294.4922" y2="294.4922"/><text fill="#000000" font-family="sans-serif" font-size="13" lengthAdjust="spacing" textLength="172" x="871" y="289.4263">DeactivateOperationType()</text><polygon fill="#181818" points="875,304.4922,865,308.4922,875,312.4922,871,308.4922" style="stroke:#181818;stroke-width:1.0;"/><line style="stroke:#181818;stroke-width:1.0;stroke-dasharray:2.0,2.0;" x1="869" x2="1310" y1="308.4922" y2="308.4922"/><polygon fill="#181818" points="1131,333.625,1141,337.625,1131,341.625,1135,337.625" style="stroke:#181818;stroke-width:1.0;"/><line style="stroke:#181818;stroke-width:1.0;" x1="864" x2="1137" y1="337.625" y2="337.625"/><text fill="#000000" font-family="sans-serif" font-size="13" lengthAdjust="spacing" textLength="150" x="871" y="332.5591">Update(OperationType)</text><polygon fill="#181818" points="875,362.7578,865,366.7578,875,370.7578,871,366.7578" style="stroke:#181818;stroke-width:1.0;"/><line style="stroke:#181818;stroke-width:1.0;stroke-dasharray:2.0,2.0;" x1="869" x2="1147" y1="366.7578" y2="366.7578"/><text fill="#000000" font-family="sans-serif" font-size="13" lengthAdjust="spacing" textLength="91" x="881" y="361.6919">operationType</text><polygon fill="#181818" points="1367,391.8906,1377,395.8906,1367,399.8906,1371,395.8906" style="stroke:#181818;stroke-width:1.0;"/><line style="stroke:#181818;stroke-width:1.0;" x1="864" x2="1373" y1="395.8906" y2="395.8906"/><text fill="#000000" font-family="sans-serif" font-size="13" lengthAdjust="spacing" textLength="51" x="871" y="390.8247">create()</text><rect fill="#E2E2F0" height="30.2969" rx="2.5" ry="2.5" style="stroke:#181818;stroke-width:0.5;" width="147" x="1379" y="374.7578"/><text fill="#000000" font-family="sans-serif" font-size="14" lengthAdjust="spacing" textLength="133" x="1386" y="394.7529">OperationTypeDTO</text><polygon fill="#181818" points="582,433.1875,572,437.1875,582,441.1875,578,437.1875" style="stroke:#181818;stroke-width:1.0;"/><line style="stroke:#181818;stroke-width:1.0;stroke-dasharray:2.0,2.0;" x1="576" x2="858" y1="437.1875" y2="437.1875"/><text fill="#000000" font-family="sans-serif" font-size="13" lengthAdjust="spacing" textLength="118" x="588" y="432.1216">operationTypeDTO</text><polygon fill="#181818" points="289,462.3203,279,466.3203,289,470.3203,285,466.3203" style="stroke:#181818;stroke-width:1.0;"/><line style="stroke:#181818;stroke-width:1.0;stroke-dasharray:2.0,2.0;" x1="283" x2="565" y1="466.3203" y2="466.3203"/><text fill="#000000" font-family="sans-serif" font-size="13" lengthAdjust="spacing" textLength="100" x="295" y="461.2544">operationResult</text><polygon fill="#181818" points="11,491.4531,1,495.4531,11,499.4531,7,495.4531" style="stroke:#181818;stroke-width:1.0;"/><line style="stroke:#181818;stroke-width:1.0;stroke-dasharray:2.0,2.0;" x1="5" x2="272" y1="495.4531" y2="495.4531"/><text fill="#000000" font-family="sans-serif" font-size="13" lengthAdjust="spacing" textLength="100" x="17" y="490.3872">operationResult</text><!--SRC=[ZP91JyCm38Nl-HK-RXEzx8WG1-ZWWYXgE-vHwtKHNH9ITzB-FKxArcPeRBTM_fwV_M9Ir28K-DsZhX1I9HidTv30ke3bKWWh7QbAMQa9SjEJqWt83Xp55MnKH-WoYqwICheyM7mscfnfMtHUKP5h8qt45kZsYlqPxFZpCfYZDPqYumvX3Fwxp7h2sClrjCmyKfCH8ddadU0UFhAYd9afzIvtU0Uofsrflb3FXQn8xIMX3q6mYAL-EHQdUAmz7RpiRwE9EWGYyjKBP9-hVFZDSSDfaO46DJfL1LieKe6wvcKtGWGdTlGftUWuMePeHP3wVJayRl6AD6ZV6EbebltN8GGUXCauHAGGDSRqoS_OQE18DPkQy9inEnfCMtBjV86rhRaIptrrPdFRp7mRYmNZbKFlCVyjZ4zkpWvgscg8UtYnutsT-1oxlgKfFXp4Gv9S9VdmVW00]--></g></svg>