<?xml version="1.0" encoding="us-ascii" standalone="no"?><svg xmlns="http://www.w3.org/2000/svg" xmlns:xlink="http://www.w3.org/1999/xlink" contentStyleType="text/css" height="590px" preserveAspectRatio="none" style="width:788px;height:590px;background:#FFFFFF;" version="1.1" viewBox="0 0 788 590" width="788px" zoomAndPan="magnify"><defs/><g><rect fill="#FFFFFF" height="23.291" style="stroke:#181818;stroke-width:1.0;" width="10" x="17.5" y="93.6211"/><rect fill="#FFFFFF" height="9" style="stroke:#181818;stroke-width:1.0;" width="10" x="17.5" y="488.9863"/><rect fill="#FFFFFF" height="79.543" style="stroke:#181818;stroke-width:1.0;" width="10" x="153.5" y="116.9121"/><rect fill="#FFFFFF" height="14" style="stroke:#181818;stroke-width:1.0;" width="10" x="153.5" y="474.9863"/><rect fill="#FFFFFF" height="74.9121" style="stroke:#181818;stroke-width:1.0;" width="10" x="324" y="196.4551"/><rect fill="#FFFFFF" height="31.291" style="stroke:#181818;stroke-width:1.0;" width="10" x="324" y="443.6953"/><rect fill="#FFFFFF" height="172.3281" style="stroke:#181818;stroke-width:1.0;" width="10" x="580" y="271.3672"/><line style="stroke:#181818;stroke-width:0.5;stroke-dasharray:5.0,5.0;" x1="22" x2="22" y1="83.6211" y2="506.9863"/><line style="stroke:#181818;stroke-width:0.5;stroke-dasharray:5.0,5.0;" x1="158" x2="158" y1="83.6211" y2="506.9863"/><line style="stroke:#181818;stroke-width:0.5;stroke-dasharray:5.0,5.0;" x1="329" x2="329" y1="83.6211" y2="506.9863"/><line style="stroke:#181818;stroke-width:0.5;stroke-dasharray:5.0,5.0;" x1="474" x2="474" y1="236.2656" y2="506.9863"/><line style="stroke:#181818;stroke-width:0.5;stroke-dasharray:5.0,5.0;" x1="584.5" x2="584.5" y1="83.6211" y2="506.9863"/><text fill="#000000" font-family="sans-serif" font-size="14" lengthAdjust="spacing" textLength="29" x="5" y="80.1074">User</text><ellipse cx="22.5" cy="13.5" fill="#E2E2F0" rx="8" ry="8" style="stroke:#181818;stroke-width:0.5;"/><path d="M22.5,21.5 L22.5,48.5 M9.5,29.5 L35.5,29.5 M22.5,48.5 L9.5,63.5 M22.5,48.5 L35.5,63.5 " fill="none" style="stroke:#181818;stroke-width:0.5;"/><text fill="#000000" font-family="sans-serif" font-size="14" lengthAdjust="spacing" textLength="29" x="5" y="521.0938">User</text><ellipse cx="22.5" cy="533.1074" fill="#E2E2F0" rx="8" ry="8" style="stroke:#181818;stroke-width:0.5;"/><path d="M22.5,541.1074 L22.5,568.1074 M9.5,549.1074 L35.5,549.1074 M22.5,568.1074 L9.5,583.1074 M22.5,568.1074 L35.5,583.1074 " fill="none" style="stroke:#181818;stroke-width:0.5;"/><rect fill="#E2E2F0" height="32.6211" rx="2.5" ry="2.5" style="stroke:#181818;stroke-width:0.5;" width="137" x="90" y="50"/><text fill="#000000" font-family="sans-serif" font-size="14" lengthAdjust="spacing" textLength="123" x="97" y="72.1074">GenericComponent</text><rect fill="#E2E2F0" height="32.6211" rx="2.5" ry="2.5" style="stroke:#181818;stroke-width:0.5;" width="137" x="90" y="505.9863"/><text fill="#000000" font-family="sans-serif" font-size="14" lengthAdjust="spacing" textLength="123" x="97" y="528.0938">GenericComponent</text><rect fill="#E2E2F0" height="32.6211" rx="2.5" ry="2.5" style="stroke:#181818;stroke-width:0.5;" width="184" x="237" y="50"/><text fill="#000000" font-family="sans-serif" font-size="14" lengthAdjust="spacing" textLength="170" x="244" y="72.1074">GenericComponentService</text><rect fill="#E2E2F0" height="32.6211" rx="2.5" ry="2.5" style="stroke:#181818;stroke-width:0.5;" width="184" x="237" y="505.9863"/><text fill="#000000" font-family="sans-serif" font-size="14" lengthAdjust="spacing" textLength="170" x="244" y="528.0938">GenericComponentService</text><rect fill="#E2E2F0" height="32.6211" rx="2.5" ry="2.5" style="stroke:#181818;stroke-width:0.5;" width="86" x="431" y="505.9863"/><text fill="#000000" font-family="sans-serif" font-size="14" lengthAdjust="spacing" textLength="72" x="438" y="528.0938">GenericDto</text><rect fill="#E2E2F0" height="32.6211" rx="2.5" ry="2.5" style="stroke:#181818;stroke-width:0.5;" width="69" x="550.5" y="50"/><text fill="#000000" font-family="sans-serif" font-size="14" lengthAdjust="spacing" textLength="55" x="557.5" y="72.1074">Backend</text><rect fill="#E2E2F0" height="32.6211" rx="2.5" ry="2.5" style="stroke:#181818;stroke-width:0.5;" width="69" x="550.5" y="505.9863"/><text fill="#000000" font-family="sans-serif" font-size="14" lengthAdjust="spacing" textLength="55" x="557.5" y="528.0938">Backend</text><rect fill="#FFFFFF" height="23.291" style="stroke:#181818;stroke-width:1.0;" width="10" x="17.5" y="93.6211"/><rect fill="#FFFFFF" height="9" style="stroke:#181818;stroke-width:1.0;" width="10" x="17.5" y="488.9863"/><rect fill="#FFFFFF" height="79.543" style="stroke:#181818;stroke-width:1.0;" width="10" x="153.5" y="116.9121"/><rect fill="#FFFFFF" height="14" style="stroke:#181818;stroke-width:1.0;" width="10" x="153.5" y="474.9863"/><rect fill="#FFFFFF" height="74.9121" style="stroke:#181818;stroke-width:1.0;" width="10" x="324" y="196.4551"/><rect fill="#FFFFFF" height="31.291" style="stroke:#181818;stroke-width:1.0;" width="10" x="324" y="443.6953"/><rect fill="#FFFFFF" height="172.3281" style="stroke:#181818;stroke-width:1.0;" width="10" x="580" y="271.3672"/><polygon fill="#181818" points="141.5,112.9121,151.5,116.9121,141.5,120.9121,145.5,116.9121" style="stroke:#181818;stroke-width:1.0;"/><line style="stroke:#181818;stroke-width:1.0;" x1="22.5" x2="147.5" y1="116.9121" y2="116.9121"/><text fill="#000000" font-family="sans-serif" font-size="13" lengthAdjust="spacing" textLength="107" x="29.5" y="111.6494">performs operation</text><rect fill="none" height="43.252" style="stroke:#000000;stroke-width:1.5;" width="209" x="87" y="124.9121"/><path d="M87,124.9121 L149,124.9121 L149,133.9121 L139,143.9121 L87,143.9121 L87,124.9121 " fill="#EEEEEE" style="stroke:#000000;stroke-width:2.0;"/><text fill="#000000" font-family="sans-serif" font-size="13" font-weight="bold" lengthAdjust="spacing" textLength="17" x="100" y="140.9404">ref</text><text fill="#000000" font-family="sans-serif" font-size="12" lengthAdjust="spacing" textLength="201" x="91" y="160.8613">Token Validation see SSD-Validation</text><polygon fill="#181818" points="312,192.4551,322,196.4551,312,200.4551,316,196.4551" style="stroke:#181818;stroke-width:1.0;"/><line style="stroke:#181818;stroke-width:1.0;" x1="158.5" x2="318" y1="196.4551" y2="196.4551"/><text fill="#000000" font-family="sans-serif" font-size="13" lengthAdjust="spacing" textLength="115" x="165.5" y="191.1924">handler(data, token)</text><polygon fill="#181818" points="419,223.7461,429,227.7461,419,231.7461,423,227.7461" style="stroke:#181818;stroke-width:1.0;"/><line style="stroke:#181818;stroke-width:1.0;" x1="334" x2="425" y1="227.7461" y2="227.7461"/><text fill="#000000" font-family="sans-serif" font-size="13" lengthAdjust="spacing" textLength="71" x="341" y="222.4834">Create(data)</text><rect fill="#E2E2F0" height="32.6211" rx="2.5" ry="2.5" style="stroke:#181818;stroke-width:0.5;" width="86" x="431" y="204.4551"/><text fill="#000000" font-family="sans-serif" font-size="14" lengthAdjust="spacing" textLength="72" x="438" y="226.5625">GenericDto</text><polygon fill="#181818" points="568,267.3672,578,271.3672,568,275.3672,572,271.3672" style="stroke:#181818;stroke-width:1.0;"/><line style="stroke:#181818;stroke-width:1.0;" x1="329" x2="574" y1="271.3672" y2="271.3672"/><text fill="#000000" font-family="sans-serif" font-size="13" lengthAdjust="spacing" textLength="227" x="336" y="266.1045">HTTP_METHOD_CALL(authToken, dto)</text><path d="M595,284.3672 L595,415.3672 L781,415.3672 L781,294.3672 L771,284.3672 L595,284.3672 " fill="#FEFFDD" style="stroke:#181818;stroke-width:0.5;"/><path d="M771,284.3672 L771,294.3672 L781,294.3672 L771,284.3672 " fill="#FEFFDD" style="stroke:#181818;stroke-width:0.5;"/><text fill="#000000" font-family="sans-serif" font-size="13" lengthAdjust="spacing" textLength="139" x="601" y="303.3955">Backend will receive the</text><text fill="#000000" font-family="sans-serif" font-size="13" lengthAdjust="spacing" textLength="151" x="601" y="320.6865">HTTP request and perform</text><text fill="#000000" font-family="sans-serif" font-size="13" lengthAdjust="spacing" textLength="91" x="601" y="337.9775">logic operations</text><text fill="#000000" font-family="sans-serif" font-size="13" lengthAdjust="spacing" textLength="4" x="601" y="355.2686">&#160;</text><text fill="#000000" font-family="sans-serif" font-size="13" lengthAdjust="spacing" textLength="147" x="601" y="372.5596">Here the backend logic is</text><text fill="#000000" font-family="sans-serif" font-size="13" lengthAdjust="spacing" textLength="147" x="601" y="389.8506">treated as a black box as</text><text fill="#000000" font-family="sans-serif" font-size="13" lengthAdjust="spacing" textLength="165" x="601" y="407.1416">it is architecturally irrelevant.</text><polygon fill="#181818" points="345,439.6953,335,443.6953,345,447.6953,341,443.6953" style="stroke:#181818;stroke-width:1.0;"/><line style="stroke:#181818;stroke-width:1.0;stroke-dasharray:2.0,2.0;" x1="339" x2="584" y1="443.6953" y2="443.6953"/><text fill="#000000" font-family="sans-serif" font-size="13" lengthAdjust="spacing" textLength="98" x="351" y="438.4326">Ok(responseDto)</text><polygon fill="#181818" points="174.5,470.9863,164.5,474.9863,174.5,478.9863,170.5,474.9863" style="stroke:#181818;stroke-width:1.0;"/><line style="stroke:#181818;stroke-width:1.0;stroke-dasharray:2.0,2.0;" x1="168.5" x2="328" y1="474.9863" y2="474.9863"/><text fill="#000000" font-family="sans-serif" font-size="13" lengthAdjust="spacing" textLength="18" x="180.5" y="469.7236">dto</text><polygon fill="#181818" points="38.5,484.9863,28.5,488.9863,38.5,492.9863,34.5,488.9863" style="stroke:#181818;stroke-width:1.0;"/><line style="stroke:#181818;stroke-width:1.0;stroke-dasharray:2.0,2.0;" x1="32.5" x2="157.5" y1="488.9863" y2="488.9863"/><!--SRC=[VL9DJyCm3BtdL_YuJHi_W0CIh8WTXeQqmdNAKc-DbZN3SGlyU-mKze60GwKwx_dPVhPr70cU4nBO16qYSx34tlc3RHWUi47oRXhtXzYWF0Z7IV0lQOdKUOVAJPtxZLfmLBJYU87UMRV3fb9eBR_6MCU-iuovB_bWSfFBmpKSa3QHzWcY_5dsiJ4LNl1FsRbZGxY1sCcSEIoZb88N6toLio4Xmd9PJ4vFHdenkPoKbKcaQcsRAY0DX637mAenFA-RfO-HJcyqKV9brj585AQ40cM1eJcYEgw0ix9yMZtUbxD5iPhUpkS3stATEnshmD0qKMJ9Rslk7VfsxCs708GEVOV0DHfLaeVN5fCiJHXVVfaGjzwTJ4l6p91oJbPKiPxYa-7SQzw7XNNG7jVnNKBZMN2mv6hFwBWb6y87U28CsCaghzGxq6xFtL4_Za6_uJpuvEZlOZSWJ7962GkTzopvnqMeLZRlT19wJdzLwq-WNwPaw7tykJO5Fm40]--></g></svg>