<?xml version="1.0" encoding="us-ascii" standalone="no"?><svg xmlns="http://www.w3.org/2000/svg" xmlns:xlink="http://www.w3.org/1999/xlink" contentStyleType="text/css" height="383px" preserveAspectRatio="none" style="width:462px;height:383px;background:#FFFFFF;" version="1.1" viewBox="0 0 462 383" width="462px" zoomAndPan="magnify"><defs/><g><rect fill="#FFFFFF" height="23.291" style="stroke:#181818;stroke-width:1.0;" width="10" x="17.5" y="93.6211"/><rect fill="#FFFFFF" height="9" style="stroke:#181818;stroke-width:1.0;" width="10" x="17.5" y="282.6582"/><rect fill="#FFFFFF" height="31.291" style="stroke:#181818;stroke-width:1.0;" width="10" x="187.5" y="116.9121"/><rect fill="#FFFFFF" height="31.291" style="stroke:#181818;stroke-width:1.0;" width="10" x="187.5" y="251.3672"/><rect fill="#FFFFFF" height="103.1641" style="stroke:#181818;stroke-width:1.0;" width="10" x="268" y="148.2031"/><line style="stroke:#181818;stroke-width:0.5;stroke-dasharray:5.0,5.0;" x1="22" x2="22" y1="83.6211" y2="300.6582"/><line style="stroke:#181818;stroke-width:0.5;stroke-dasharray:5.0,5.0;" x1="192.5" x2="192.5" y1="83.6211" y2="300.6582"/><line style="stroke:#181818;stroke-width:0.5;stroke-dasharray:5.0,5.0;" x1="272.5" x2="272.5" y1="83.6211" y2="300.6582"/><text fill="#000000" font-family="sans-serif" font-size="14" lengthAdjust="spacing" textLength="29" x="5" y="80.1074">User</text><ellipse cx="22.5" cy="13.5" fill="#E2E2F0" rx="8" ry="8" style="stroke:#181818;stroke-width:0.5;"/><path d="M22.5,21.5 L22.5,48.5 M9.5,29.5 L35.5,29.5 M22.5,48.5 L9.5,63.5 M22.5,48.5 L35.5,63.5 " fill="none" style="stroke:#181818;stroke-width:0.5;"/><text fill="#000000" font-family="sans-serif" font-size="14" lengthAdjust="spacing" textLength="29" x="5" y="314.7656">User</text><ellipse cx="22.5" cy="326.7793" fill="#E2E2F0" rx="8" ry="8" style="stroke:#181818;stroke-width:0.5;"/><path d="M22.5,334.7793 L22.5,361.7793 M9.5,342.7793 L35.5,342.7793 M22.5,361.7793 L9.5,376.7793 M22.5,361.7793 L35.5,376.7793 " fill="none" style="stroke:#181818;stroke-width:0.5;"/><rect fill="#E2E2F0" height="32.6211" rx="2.5" ry="2.5" style="stroke:#181818;stroke-width:0.5;" width="72" x="156.5" y="50"/><text fill="#000000" font-family="sans-serif" font-size="14" lengthAdjust="spacing" textLength="58" x="163.5" y="72.1074">Frontend</text><rect fill="#E2E2F0" height="32.6211" rx="2.5" ry="2.5" style="stroke:#181818;stroke-width:0.5;" width="72" x="156.5" y="299.6582"/><text fill="#000000" font-family="sans-serif" font-size="14" lengthAdjust="spacing" textLength="58" x="163.5" y="321.7656">Frontend</text><rect fill="#E2E2F0" height="32.6211" rx="2.5" ry="2.5" style="stroke:#181818;stroke-width:0.5;" width="69" x="238.5" y="50"/><text fill="#000000" font-family="sans-serif" font-size="14" lengthAdjust="spacing" textLength="55" x="245.5" y="72.1074">Backend</text><rect fill="#E2E2F0" height="32.6211" rx="2.5" ry="2.5" style="stroke:#181818;stroke-width:0.5;" width="69" x="238.5" y="299.6582"/><text fill="#000000" font-family="sans-serif" font-size="14" lengthAdjust="spacing" textLength="55" x="245.5" y="321.7656">Backend</text><rect fill="#FFFFFF" height="23.291" style="stroke:#181818;stroke-width:1.0;" width="10" x="17.5" y="93.6211"/><rect fill="#FFFFFF" height="9" style="stroke:#181818;stroke-width:1.0;" width="10" x="17.5" y="282.6582"/><rect fill="#FFFFFF" height="31.291" style="stroke:#181818;stroke-width:1.0;" width="10" x="187.5" y="116.9121"/><rect fill="#FFFFFF" height="31.291" style="stroke:#181818;stroke-width:1.0;" width="10" x="187.5" y="251.3672"/><rect fill="#FFFFFF" height="103.1641" style="stroke:#181818;stroke-width:1.0;" width="10" x="268" y="148.2031"/><polygon fill="#181818" points="175.5,112.9121,185.5,116.9121,175.5,120.9121,179.5,116.9121" style="stroke:#181818;stroke-width:1.0;"/><line style="stroke:#181818;stroke-width:1.0;" x1="22.5" x2="181.5" y1="116.9121" y2="116.9121"/><text fill="#000000" font-family="sans-serif" font-size="13" lengthAdjust="spacing" textLength="100" x="29.5" y="111.6494">perform operation</text><polygon fill="#181818" points="256,144.2031,266,148.2031,256,152.2031,260,148.2031" style="stroke:#181818;stroke-width:1.0;"/><line style="stroke:#181818;stroke-width:1.0;" x1="192.5" x2="262" y1="148.2031" y2="148.2031"/><text fill="#000000" font-family="sans-serif" font-size="13" lengthAdjust="spacing" textLength="33" x="199.5" y="142.9404">http/s</text><path d="M283,161.2031 L283,222.2031 L455,222.2031 L455,171.2031 L445,161.2031 L283,161.2031 " fill="#FEFFDD" style="stroke:#181818;stroke-width:0.5;"/><path d="M445,161.2031 L445,171.2031 L455,171.2031 L445,161.2031 " fill="#FEFFDD" style="stroke:#181818;stroke-width:0.5;"/><text fill="#000000" font-family="sans-serif" font-size="13" lengthAdjust="spacing" textLength="139" x="289" y="180.2314">Backend will receive the</text><text fill="#000000" font-family="sans-serif" font-size="13" lengthAdjust="spacing" textLength="151" x="289" y="197.5225">HTTP request and perform</text><text fill="#000000" font-family="sans-serif" font-size="13" lengthAdjust="spacing" textLength="91" x="289" y="214.8135">logic operations</text><polygon fill="#181818" points="208.5,247.3672,198.5,251.3672,208.5,255.3672,204.5,251.3672" style="stroke:#181818;stroke-width:1.0;"/><line style="stroke:#181818;stroke-width:1.0;stroke-dasharray:2.0,2.0;" x1="202.5" x2="272" y1="251.3672" y2="251.3672"/><text fill="#000000" font-family="sans-serif" font-size="13" lengthAdjust="spacing" textLength="33" x="214.5" y="246.1045">http/s</text><polygon fill="#181818" points="38.5,278.6582,28.5,282.6582,38.5,286.6582,34.5,282.6582" style="stroke:#181818;stroke-width:1.0;"/><line style="stroke:#181818;stroke-width:1.0;stroke-dasharray:2.0,2.0;" x1="32.5" x2="191.5" y1="282.6582" y2="282.6582"/><text fill="#000000" font-family="sans-serif" font-size="13" lengthAdjust="spacing" textLength="141" x="44.5" y="277.3955">displays operation result</text><!--SRC=[VP0nSWCn24LxJi45FEbTf4YHIUd2EG3HOYzZML8GQqzk7xJQs6iNQJGW-9y752mhVbPMf8fJLIYa9a4A9SDtpSau3QrsQF53zOt2QIb-UGX0mUH2nhCF-8ERrwx3BHRMGzOpPW_892SO-45mI_eaWAvqY-Rk3gDPUQcGilUe74VhO_ymhX8ZAWUM2wED31_x_Su_lYUkXkGT2mB4V9Hm1wdGvCrsZTGfRcdVS2RPhBPQc5QwfrDqcsKL5xQhR76GMYBzr3k4WzOfsZy4yr5_0G00]--></g></svg>