<?xml version="1.0" encoding="us-ascii" standalone="no"?><svg xmlns="http://www.w3.org/2000/svg" xmlns:xlink="http://www.w3.org/1999/xlink" contentStyleType="text/css" height="957px" preserveAspectRatio="none" style="width:2251px;height:957px;background:#FFFFFF;" version="1.1" viewBox="0 0 2251 957" width="2251px" zoomAndPan="magnify"><defs/><g><text fill="#000000" font-family="sans-serif" font-size="14" font-weight="bold" lengthAdjust="spacing" textLength="210" x="1019.75" y="27.9951">Sequence Diagram - US 17</text><rect fill="#FFFFFF" height="799.6172" style="stroke:#181818;stroke-width:1.0;" width="10" x="272" y="104.7266"/><rect fill="#FFFFFF" height="741.3516" style="stroke:#181818;stroke-width:1.0;" width="10" x="619" y="133.8594"/><rect fill="#FFFFFF" height="638.9844" style="stroke:#181818;stroke-width:1.0;" width="10" x="895" y="207.0938"/><rect fill="#FFFFFF" height="29.1328" style="stroke:#181818;stroke-width:1.0;" width="10" x="1108" y="236.2266"/><rect fill="#FFFFFF" height="29.1328" style="stroke:#181818;stroke-width:1.0;" width="10" x="1108" y="717.3828"/><rect fill="#FFFFFF" height="29.1328" style="stroke:#181818;stroke-width:1.0;" width="10" x="1284.5" y="294.4922"/><rect fill="#FFFFFF" height="29.1328" style="stroke:#181818;stroke-width:1.0;" width="10" x="1421" y="352.7578"/><rect fill="#FFFFFF" height="29.1328" style="stroke:#181818;stroke-width:1.0;" width="10" x="1542" y="452.3203"/><rect fill="#FFFFFF" height="14" style="stroke:#181818;stroke-width:1.0;" width="10" x="1666" y="534.7188"/><rect fill="#FFFFFF" height="14" style="stroke:#181818;stroke-width:1.0;" width="10" x="1666" y="608.9844"/><rect fill="#FFFFFF" height="29.1328" style="stroke:#181818;stroke-width:1.0;" width="10" x="1803" y="659.1172"/><rect fill="#FFFFFF" height="31.2969" style="stroke:#181818;stroke-width:1.0;" width="10" x="2154.5" y="785.6484"/><rect fill="none" height="60.2656" style="stroke:#000000;stroke-width:1.5;" width="957" x="794.5" y="496.4531"/><rect fill="none" height="60.2656" style="stroke:#000000;stroke-width:1.5;" width="957" x="794.5" y="570.7188"/><line style="stroke:#181818;stroke-width:0.5;stroke-dasharray:5.0,5.0;" x1="277" x2="277" y1="73.5938" y2="922.3438"/><line style="stroke:#181818;stroke-width:0.5;stroke-dasharray:5.0,5.0;" x1="624" x2="624" y1="73.5938" y2="922.3438"/><line style="stroke:#181818;stroke-width:0.5;stroke-dasharray:5.0,5.0;" x1="899.5" x2="899.5" y1="73.5938" y2="922.3438"/><line style="stroke:#181818;stroke-width:0.5;stroke-dasharray:5.0,5.0;" x1="1112.5" x2="1112.5" y1="73.5938" y2="922.3438"/><line style="stroke:#181818;stroke-width:0.5;stroke-dasharray:5.0,5.0;" x1="1289.5" x2="1289.5" y1="73.5938" y2="922.3438"/><line style="stroke:#181818;stroke-width:0.5;stroke-dasharray:5.0,5.0;" x1="1425.5" x2="1425.5" y1="73.5938" y2="922.3438"/><line style="stroke:#181818;stroke-width:0.5;stroke-dasharray:5.0,5.0;" x1="1546.5" x2="1546.5" y1="420.5391" y2="922.3438"/><line style="stroke:#181818;stroke-width:0.5;stroke-dasharray:5.0,5.0;" x1="1670.5" x2="1670.5" y1="73.5938" y2="922.3438"/><line style="stroke:#181818;stroke-width:0.5;stroke-dasharray:5.0,5.0;" x1="1807.5" x2="1807.5" y1="73.5938" y2="922.3438"/><line style="stroke:#181818;stroke-width:0.5;stroke-dasharray:5.0,5.0;" x1="1968.5" x2="1968.5" y1="73.5938" y2="922.3438"/><line style="stroke:#181818;stroke-width:0.5;stroke-dasharray:5.0,5.0;" x1="2159.5" x2="2159.5" y1="785.1641" y2="922.3438"/><rect fill="#E2E2F0" height="30.2969" rx="2.5" ry="2.5" style="stroke:#181818;stroke-width:0.5;" width="68" x="243" y="42.2969"/><text fill="#000000" font-family="sans-serif" font-size="14" lengthAdjust="spacing" textLength="54" x="250" y="62.292">Routing</text><rect fill="#E2E2F0" height="30.2969" rx="2.5" ry="2.5" style="stroke:#181818;stroke-width:0.5;" width="68" x="243" y="921.3438"/><text fill="#000000" font-family="sans-serif" font-size="14" lengthAdjust="spacing" textLength="54" x="250" y="941.3389">Routing</text><rect fill="#E2E2F0" height="30.2969" rx="2.5" ry="2.5" style="stroke:#181818;stroke-width:0.5;" width="266" x="491" y="42.2969"/><text fill="#000000" font-family="sans-serif" font-size="14" lengthAdjust="spacing" textLength="252" x="498" y="62.292">RegisterOperationRequestController</text><rect fill="#E2E2F0" height="30.2969" rx="2.5" ry="2.5" style="stroke:#181818;stroke-width:0.5;" width="266" x="491" y="921.3438"/><text fill="#000000" font-family="sans-serif" font-size="14" lengthAdjust="spacing" textLength="252" x="498" y="941.3389">RegisterOperationRequestController</text><rect fill="#E2E2F0" height="30.2969" rx="2.5" ry="2.5" style="stroke:#181818;stroke-width:0.5;" width="191" x="804.5" y="42.2969"/><text fill="#000000" font-family="sans-serif" font-size="14" lengthAdjust="spacing" textLength="177" x="811.5" y="62.292">OperationRequestService</text><rect fill="#E2E2F0" height="30.2969" rx="2.5" ry="2.5" style="stroke:#181818;stroke-width:0.5;" width="191" x="804.5" y="921.3438"/><text fill="#000000" font-family="sans-serif" font-size="14" lengthAdjust="spacing" textLength="177" x="811.5" y="941.3389">OperationRequestService</text><rect fill="#E2E2F0" height="30.2969" rx="2.5" ry="2.5" style="stroke:#181818;stroke-width:0.5;" width="215" x="1005.5" y="42.2969"/><text fill="#000000" font-family="sans-serif" font-size="14" lengthAdjust="spacing" textLength="201" x="1012.5" y="62.292">OperationRequestRepository</text><rect fill="#E2E2F0" height="30.2969" rx="2.5" ry="2.5" style="stroke:#181818;stroke-width:0.5;" width="215" x="1005.5" y="921.3438"/><text fill="#000000" font-family="sans-serif" font-size="14" lengthAdjust="spacing" textLength="201" x="1012.5" y="941.3389">OperationRequestRepository</text><rect fill="#E2E2F0" height="30.2969" rx="2.5" ry="2.5" style="stroke:#181818;stroke-width:0.5;" width="118" x="1230.5" y="42.2969"/><text fill="#000000" font-family="sans-serif" font-size="14" lengthAdjust="spacing" textLength="104" x="1237.5" y="62.292">StaffRepository</text><rect fill="#E2E2F0" height="30.2969" rx="2.5" ry="2.5" style="stroke:#181818;stroke-width:0.5;" width="118" x="1230.5" y="921.3438"/><text fill="#000000" font-family="sans-serif" font-size="14" lengthAdjust="spacing" textLength="104" x="1237.5" y="941.3389">StaffRepository</text><rect fill="#E2E2F0" height="30.2969" rx="2.5" ry="2.5" style="stroke:#181818;stroke-width:0.5;" width="135" x="1358.5" y="42.2969"/><text fill="#000000" font-family="sans-serif" font-size="14" lengthAdjust="spacing" textLength="121" x="1365.5" y="62.292">DoctorRepository</text><rect fill="#E2E2F0" height="30.2969" rx="2.5" ry="2.5" style="stroke:#181818;stroke-width:0.5;" width="135" x="1358.5" y="921.3438"/><text fill="#000000" font-family="sans-serif" font-size="14" lengthAdjust="spacing" textLength="121" x="1365.5" y="941.3389">DoctorRepository</text><rect fill="#E2E2F0" height="30.2969" rx="2.5" ry="2.5" style="stroke:#181818;stroke-width:0.5;" width="87" x="1503.5" y="921.3438"/><text fill="#000000" font-family="sans-serif" font-size="14" lengthAdjust="spacing" textLength="73" x="1510.5" y="941.3389">LogBuilder</text><rect fill="#E2E2F0" height="30.2969" rx="2.5" ry="2.5" style="stroke:#181818;stroke-width:0.5;" width="141" x="1600.5" y="42.2969"/><text fill="#000000" font-family="sans-serif" font-size="14" lengthAdjust="spacing" textLength="127" x="1607.5" y="62.292">OperationRequest</text><rect fill="#E2E2F0" height="30.2969" rx="2.5" ry="2.5" style="stroke:#181818;stroke-width:0.5;" width="141" x="1600.5" y="921.3438"/><text fill="#000000" font-family="sans-serif" font-size="14" lengthAdjust="spacing" textLength="127" x="1607.5" y="941.3389">OperationRequest</text><rect fill="#E2E2F0" height="30.2969" rx="2.5" ry="2.5" style="stroke:#181818;stroke-width:0.5;" width="113" x="1751.5" y="42.2969"/><text fill="#000000" font-family="sans-serif" font-size="14" lengthAdjust="spacing" textLength="99" x="1758.5" y="62.292">LogRepository</text><rect fill="#E2E2F0" height="30.2969" rx="2.5" ry="2.5" style="stroke:#181818;stroke-width:0.5;" width="113" x="1751.5" y="921.3438"/><text fill="#000000" font-family="sans-serif" font-size="14" lengthAdjust="spacing" textLength="99" x="1758.5" y="941.3389">LogRepository</text><rect fill="#E2E2F0" height="30.2969" rx="2.5" ry="2.5" style="stroke:#181818;stroke-width:0.5;" width="189" x="1874.5" y="42.2969"/><text fill="#000000" font-family="sans-serif" font-size="14" lengthAdjust="spacing" textLength="175" x="1881.5" y="62.292">OperationRequestBuilder</text><rect fill="#E2E2F0" height="30.2969" rx="2.5" ry="2.5" style="stroke:#181818;stroke-width:0.5;" width="189" x="1874.5" y="921.3438"/><text fill="#000000" font-family="sans-serif" font-size="14" lengthAdjust="spacing" textLength="175" x="1881.5" y="941.3389">OperationRequestBuilder</text><rect fill="#E2E2F0" height="30.2969" rx="2.5" ry="2.5" style="stroke:#181818;stroke-width:0.5;" width="172" x="2073.5" y="921.3438"/><text fill="#000000" font-family="sans-serif" font-size="14" lengthAdjust="spacing" textLength="158" x="2080.5" y="941.3389">OperationRequestDTO</text><rect fill="#FFFFFF" height="799.6172" style="stroke:#181818;stroke-width:1.0;" width="10" x="272" y="104.7266"/><rect fill="#FFFFFF" height="741.3516" style="stroke:#181818;stroke-width:1.0;" width="10" x="619" y="133.8594"/><rect fill="#FFFFFF" height="638.9844" style="stroke:#181818;stroke-width:1.0;" width="10" x="895" y="207.0938"/><rect fill="#FFFFFF" height="29.1328" style="stroke:#181818;stroke-width:1.0;" width="10" x="1108" y="236.2266"/><rect fill="#FFFFFF" height="29.1328" style="stroke:#181818;stroke-width:1.0;" width="10" x="1108" y="717.3828"/><rect fill="#FFFFFF" height="29.1328" style="stroke:#181818;stroke-width:1.0;" width="10" x="1284.5" y="294.4922"/><rect fill="#FFFFFF" height="29.1328" style="stroke:#181818;stroke-width:1.0;" width="10" x="1421" y="352.7578"/><rect fill="#FFFFFF" height="29.1328" style="stroke:#181818;stroke-width:1.0;" width="10" x="1542" y="452.3203"/><rect fill="#FFFFFF" height="14" style="stroke:#181818;stroke-width:1.0;" width="10" x="1666" y="534.7188"/><rect fill="#FFFFFF" height="14" style="stroke:#181818;stroke-width:1.0;" width="10" x="1666" y="608.9844"/><rect fill="#FFFFFF" height="29.1328" style="stroke:#181818;stroke-width:1.0;" width="10" x="1803" y="659.1172"/><rect fill="#FFFFFF" height="31.2969" style="stroke:#181818;stroke-width:1.0;" width="10" x="2154.5" y="785.6484"/><polygon fill="#181818" points="260,100.7266,270,104.7266,260,108.7266,264,104.7266" style="stroke:#181818;stroke-width:1.0;"/><line style="stroke:#181818;stroke-width:1.0;" x1="0" x2="266" y1="104.7266" y2="104.7266"/><text fill="#000000" font-family="sans-serif" font-size="13" lengthAdjust="spacing" textLength="253" x="7" y="99.6606">PATCH(id, deadline, priority, authToken)</text><polygon fill="#181818" points="607,129.8594,617,133.8594,607,137.8594,611,133.8594" style="stroke:#181818;stroke-width:1.0;"/><line style="stroke:#181818;stroke-width:1.0;" x1="282" x2="613" y1="133.8594" y2="133.8594"/><text fill="#000000" font-family="sans-serif" font-size="13" lengthAdjust="spacing" textLength="318" x="289" y="128.7935">EditOperationRequest(id, priority, deadline, token)</text><rect fill="none" height="39.1016" style="stroke:#000000;stroke-width:1.5;" width="272" x="488" y="141.8594"/><path d="M488,141.8594 L554,141.8594 L554,148.8594 L544,158.8594 L488,158.8594 L488,141.8594 " fill="#EEEEEE" style="stroke:#000000;stroke-width:2.0;"/><text fill="#000000" font-family="sans-serif" font-size="13" font-weight="bold" lengthAdjust="spacing" textLength="21" x="501" y="155.9263">ref</text><text fill="#000000" font-family="sans-serif" font-size="12" lengthAdjust="spacing" textLength="155" x="546.5" y="173.998">Refer to generic auth SD</text><polygon fill="#181818" points="883,203.0938,893,207.0938,883,211.0938,887,207.0938" style="stroke:#181818;stroke-width:1.0;"/><line style="stroke:#181818;stroke-width:1.0;" x1="629" x2="889" y1="207.0938" y2="207.0938"/><text fill="#000000" font-family="sans-serif" font-size="13" lengthAdjust="spacing" textLength="247" x="636" y="202.0278">EditRequest(id, priority, dealine, token)</text><polygon fill="#181818" points="1096,232.2266,1106,236.2266,1096,240.2266,1100,236.2266" style="stroke:#181818;stroke-width:1.0;"/><line style="stroke:#181818;stroke-width:1.0;" x1="905" x2="1102" y1="236.2266" y2="236.2266"/><text fill="#000000" font-family="sans-serif" font-size="13" lengthAdjust="spacing" textLength="123" x="912" y="231.1606">GetRequestById(Id)</text><polygon fill="#181818" points="916,261.3594,906,265.3594,916,269.3594,912,265.3594" style="stroke:#181818;stroke-width:1.0;"/><line style="stroke:#181818;stroke-width:1.0;stroke-dasharray:2.0,2.0;" x1="910" x2="1112" y1="265.3594" y2="265.3594"/><text fill="#000000" font-family="sans-serif" font-size="13" lengthAdjust="spacing" textLength="115" x="922" y="260.2935">OperationRequest</text><polygon fill="#181818" points="1272.5,290.4922,1282.5,294.4922,1272.5,298.4922,1276.5,294.4922" style="stroke:#181818;stroke-width:1.0;"/><line style="stroke:#181818;stroke-width:1.0;" x1="905" x2="1278.5" y1="294.4922" y2="294.4922"/><text fill="#000000" font-family="sans-serif" font-size="13" lengthAdjust="spacing" textLength="176" x="912" y="289.4263">GetStaffByUser(Username)</text><polygon fill="#181818" points="916,319.625,906,323.625,916,327.625,912,323.625" style="stroke:#181818;stroke-width:1.0;"/><line style="stroke:#181818;stroke-width:1.0;stroke-dasharray:2.0,2.0;" x1="910" x2="1288.5" y1="323.625" y2="323.625"/><text fill="#000000" font-family="sans-serif" font-size="13" lengthAdjust="spacing" textLength="30" x="922" y="318.5591">Staff</text><polygon fill="#181818" points="1409,348.7578,1419,352.7578,1409,356.7578,1413,352.7578" style="stroke:#181818;stroke-width:1.0;"/><line style="stroke:#181818;stroke-width:1.0;" x1="905" x2="1415" y1="352.7578" y2="352.7578"/><text fill="#000000" font-family="sans-serif" font-size="13" lengthAdjust="spacing" textLength="292" x="912" y="347.6919">GetDoctorByLicenseNumber(LicenseNumber)</text><polygon fill="#181818" points="916,377.8906,906,381.8906,916,385.8906,912,381.8906" style="stroke:#181818;stroke-width:1.0;"/><line style="stroke:#181818;stroke-width:1.0;stroke-dasharray:2.0,2.0;" x1="910" x2="1425" y1="381.8906" y2="381.8906"/><text fill="#000000" font-family="sans-serif" font-size="13" lengthAdjust="spacing" textLength="43" x="922" y="376.8247">Doctor</text><polygon fill="#181818" points="1491.5,407.0234,1501.5,411.0234,1491.5,415.0234,1495.5,411.0234" style="stroke:#181818;stroke-width:1.0;"/><line style="stroke:#181818;stroke-width:1.0;" x1="905" x2="1497.5" y1="411.0234" y2="411.0234"/><text fill="#000000" font-family="sans-serif" font-size="13" lengthAdjust="spacing" textLength="51" x="912" y="405.9575">create()</text><rect fill="#E2E2F0" height="30.2969" rx="2.5" ry="2.5" style="stroke:#181818;stroke-width:0.5;" width="87" x="1503.5" y="389.8906"/><text fill="#000000" font-family="sans-serif" font-size="14" lengthAdjust="spacing" textLength="73" x="1510.5" y="409.8857">LogBuilder</text><polygon fill="#181818" points="1530,448.3203,1540,452.3203,1530,456.3203,1534,452.3203" style="stroke:#181818;stroke-width:1.0;"/><line style="stroke:#181818;stroke-width:1.0;" x1="905" x2="1536" y1="452.3203" y2="452.3203"/><text fill="#000000" font-family="sans-serif" font-size="13" lengthAdjust="spacing" textLength="41" x="912" y="447.2544">Build()</text><polygon fill="#181818" points="916,477.4531,906,481.4531,916,485.4531,912,481.4531" style="stroke:#181818;stroke-width:1.0;"/><line style="stroke:#181818;stroke-width:1.0;stroke-dasharray:2.0,2.0;" x1="910" x2="1546" y1="481.4531" y2="481.4531"/><text fill="#000000" font-family="sans-serif" font-size="13" lengthAdjust="spacing" textLength="19" x="922" y="476.3872">log</text><path d="M794.5,496.4531 L858.5,496.4531 L858.5,503.5859 L848.5,513.5859 L794.5,513.5859 L794.5,496.4531 " fill="#EEEEEE" style="stroke:#000000;stroke-width:1.5;"/><rect fill="none" height="60.2656" style="stroke:#000000;stroke-width:1.5;" width="957" x="794.5" y="496.4531"/><text fill="#000000" font-family="sans-serif" font-size="13" font-weight="bold" lengthAdjust="spacing" textLength="19" x="809.5" y="509.52">alt</text><text fill="#000000" font-family="sans-serif" font-size="11" font-weight="bold" lengthAdjust="spacing" textLength="107" x="873.5" y="508.6636">[change priority]</text><polygon fill="#181818" points="1654,530.7188,1664,534.7188,1654,538.7188,1658,534.7188" style="stroke:#181818;stroke-width:1.0;"/><line style="stroke:#181818;stroke-width:1.0;" x1="905" x2="1660" y1="534.7188" y2="534.7188"/><text fill="#000000" font-family="sans-serif" font-size="13" lengthAdjust="spacing" textLength="161" x="912" y="529.6528">OperationPriority(priority)</text><polygon fill="#181818" points="916,544.7188,906,548.7188,916,552.7188,912,548.7188" style="stroke:#181818;stroke-width:1.0;"/><line style="stroke:#181818;stroke-width:1.0;stroke-dasharray:2.0,2.0;" x1="910" x2="1670" y1="548.7188" y2="548.7188"/><path d="M794.5,570.7188 L858.5,570.7188 L858.5,577.8516 L848.5,587.8516 L794.5,587.8516 L794.5,570.7188 " fill="#EEEEEE" style="stroke:#000000;stroke-width:1.5;"/><rect fill="none" height="60.2656" style="stroke:#000000;stroke-width:1.5;" width="957" x="794.5" y="570.7188"/><text fill="#000000" font-family="sans-serif" font-size="13" font-weight="bold" lengthAdjust="spacing" textLength="19" x="809.5" y="583.7856">alt</text><text fill="#000000" font-family="sans-serif" font-size="11" font-weight="bold" lengthAdjust="spacing" textLength="117" x="873.5" y="582.9292">[change deadline]</text><polygon fill="#181818" points="1654,604.9844,1664,608.9844,1654,612.9844,1658,608.9844" style="stroke:#181818;stroke-width:1.0;"/><line style="stroke:#181818;stroke-width:1.0;" x1="905" x2="1660" y1="608.9844" y2="608.9844"/><text fill="#000000" font-family="sans-serif" font-size="13" lengthAdjust="spacing" textLength="120" x="912" y="603.9185">Deadline(deadline)</text><polygon fill="#181818" points="916,618.9844,906,622.9844,916,626.9844,912,622.9844" style="stroke:#181818;stroke-width:1.0;"/><line style="stroke:#181818;stroke-width:1.0;stroke-dasharray:2.0,2.0;" x1="910" x2="1670" y1="622.9844" y2="622.9844"/><polygon fill="#181818" points="1791,655.1172,1801,659.1172,1791,663.1172,1795,659.1172" style="stroke:#181818;stroke-width:1.0;"/><line style="stroke:#181818;stroke-width:1.0;" x1="905" x2="1797" y1="659.1172" y2="659.1172"/><text fill="#000000" font-family="sans-serif" font-size="13" lengthAdjust="spacing" textLength="92" x="912" y="654.0513">AddAsync(log)</text><polygon fill="#181818" points="916,684.25,906,688.25,916,692.25,912,688.25" style="stroke:#181818;stroke-width:1.0;"/><line style="stroke:#181818;stroke-width:1.0;stroke-dasharray:2.0,2.0;" x1="910" x2="1807" y1="688.25" y2="688.25"/><text fill="#000000" font-family="sans-serif" font-size="13" lengthAdjust="spacing" textLength="19" x="922" y="683.1841">log</text><polygon fill="#181818" points="1096,713.3828,1106,717.3828,1096,721.3828,1100,717.3828" style="stroke:#181818;stroke-width:1.0;"/><line style="stroke:#181818;stroke-width:1.0;" x1="905" x2="1102" y1="717.3828" y2="717.3828"/><text fill="#000000" font-family="sans-serif" font-size="13" lengthAdjust="spacing" textLength="106" x="912" y="712.3169">Update(request)</text><polygon fill="#181818" points="916,742.5156,906,746.5156,916,750.5156,912,746.5156" style="stroke:#181818;stroke-width:1.0;"/><line style="stroke:#181818;stroke-width:1.0;stroke-dasharray:2.0,2.0;" x1="910" x2="1112" y1="746.5156" y2="746.5156"/><text fill="#000000" font-family="sans-serif" font-size="13" lengthAdjust="spacing" textLength="115" x="922" y="741.4497">OperationRequest</text><polygon fill="#181818" points="2061.5,771.6484,2071.5,775.6484,2061.5,779.6484,2065.5,775.6484" style="stroke:#181818;stroke-width:1.0;"/><line style="stroke:#181818;stroke-width:1.0;" x1="905" x2="2067.5" y1="775.6484" y2="775.6484"/><text fill="#000000" font-family="sans-serif" font-size="13" lengthAdjust="spacing" textLength="53" x="912" y="770.5825">Create()</text><rect fill="#E2E2F0" height="30.2969" rx="2.5" ry="2.5" style="stroke:#181818;stroke-width:0.5;" width="172" x="2073.5" y="754.5156"/><text fill="#000000" font-family="sans-serif" font-size="14" lengthAdjust="spacing" textLength="158" x="2080.5" y="774.5107">OperationRequestDTO</text><polygon fill="#181818" points="916,812.9453,906,816.9453,916,820.9453,912,816.9453" style="stroke:#181818;stroke-width:1.0;"/><line style="stroke:#181818;stroke-width:1.0;stroke-dasharray:2.0,2.0;" x1="910" x2="2158.5" y1="816.9453" y2="816.9453"/><text fill="#000000" font-family="sans-serif" font-size="13" lengthAdjust="spacing" textLength="142" x="922" y="811.8794">OperationRequestDTO</text><polygon fill="#181818" points="640,842.0781,630,846.0781,640,850.0781,636,846.0781" style="stroke:#181818;stroke-width:1.0;"/><line style="stroke:#181818;stroke-width:1.0;stroke-dasharray:2.0,2.0;" x1="634" x2="899" y1="846.0781" y2="846.0781"/><text fill="#000000" font-family="sans-serif" font-size="13" lengthAdjust="spacing" textLength="142" x="646" y="841.0122">OperationRequestDTO</text><polygon fill="#181818" points="293,871.2109,283,875.2109,293,879.2109,289,875.2109" style="stroke:#181818;stroke-width:1.0;"/><line style="stroke:#181818;stroke-width:1.0;" x1="287" x2="623" y1="875.2109" y2="875.2109"/><text fill="#000000" font-family="sans-serif" font-size="13" lengthAdjust="spacing" textLength="100" x="299" y="870.145">operationResult</text><polygon fill="#181818" points="11,900.3438,1,904.3438,11,908.3438,7,904.3438" style="stroke:#181818;stroke-width:1.0;"/><line style="stroke:#181818;stroke-width:1.0;stroke-dasharray:2.0,2.0;" x1="5" x2="276" y1="904.3438" y2="904.3438"/><text fill="#000000" font-family="sans-serif" font-size="13" lengthAdjust="spacing" textLength="100" x="17" y="899.2778">operationResult</text><!--SRC=[hLJ1Rjim3BthAtHqY-Imqu1X690qsLQWM0edsLsr65UO8taoNS1_FqgoBIdTqW7R8O4bFRv7YOz4XGtmFVpiGLV0DqhKLfpvaX_t_DrxnbfXKLMg5HfvQNfKkkQYunRp4wXLXs1tBLY1okZI4NPuPpHQqpHWNL25jid2Bk5xi2-AiY1iHvzNiIMqfbDexE3peLK6twCudN9CDsrbm8sf290ZfQbUuHvClUvL8yDLcdbrDKa7DIqjBgbolIPiNALAn9_-GdbpsFcRe65i-OdgnJ_mnzNXxckXv89B4B9H6XQyjSfOXSE2YnwV3-O7w1icAbGl0i6LcL4e4RZQ4SLMAhoKyeoH9tBZ1PklFoktd_dk-xOCon9ET2aql0ODLbK-3RxVCD2IgdfYp2jJ1iuHOmP_5Cvqex0t4_C4xYtegOde2qmyw-5U5lSolRUhXiSje_BblHa9PW6pmkoq8EEzk1wET5ouFotEa8X5NyQuHDP7freHFmkEXWromT7huO5QINVmhJy_aN2sIjGdhqyKYN8WIgKdy2mS- -3sbY8g2mGhRdvpJgV-gqYqaovAW4a6j9lA9tWc6kJLiz0rp1QOLNtBfHLx717514sI2FqPGg9qAXiGpf0acYbFNd-bl1aFYWdnBuB9OuvLNacvwWPT5RILlwSlpmIy-f9v8SUcEBRI5T06X_-_Zg0vv0roDnaaMeec5FskqT8ioqo8Ct4SJ6_4X0amZH8_3KsCwFecopqCge_BvPj86f2_0000]--></g></svg>