<?xml version="1.0" encoding="us-ascii" standalone="no"?><svg xmlns="http://www.w3.org/2000/svg" xmlns:xlink="http://www.w3.org/1999/xlink" contentStyleType="text/css" height="971px" preserveAspectRatio="none" style="width:1213px;height:971px;background:#FFFFFF;" version="1.1" viewBox="0 0 1213 971" width="1213px" zoomAndPan="magnify"><defs/><g><!--cluster SurgeryRoomAggregate--><g id="cluster_SurgeryRoomAggregate"><path d="M24.5,613 L193.5,613 A3.75,3.75 0 0 1 196,615.5 L203,636.6094 L344.5,636.6094 A2.5,2.5 0 0 1 347,639.1094 L347,961.5 A2.5,2.5 0 0 1 344.5,964 L24.5,964 A2.5,2.5 0 0 1 22,961.5 L22,615.5 A2.5,2.5 0 0 1 24.5,613 " fill="none" style="stroke:#000000;stroke-width:1.5;"/><line style="stroke:#000000;stroke-width:1.5;" x1="22" x2="203" y1="636.6094" y2="636.6094"/><text fill="#000000" font-family="sans-serif" font-size="14" font-weight="bold" lengthAdjust="spacing" textLength="168" x="26" y="629.5332">SurgeryRoomAggregate</text></g><!--cluster AppointmentAggregate--><g id="cluster_AppointmentAggregate"><path d="M8.5,6 L171.5,6 A3.75,3.75 0 0 1 174,8.5 L181,29.6094 L663.5,29.6094 A2.5,2.5 0 0 1 666,32.1094 L666,256.5 A2.5,2.5 0 0 1 663.5,259 L8.5,259 A2.5,2.5 0 0 1 6,256.5 L6,8.5 A2.5,2.5 0 0 1 8.5,6 " fill="none" style="stroke:#000000;stroke-width:1.5;"/><line style="stroke:#000000;stroke-width:1.5;" x1="6" x2="181" y1="29.6094" y2="29.6094"/><text fill="#000000" font-family="sans-serif" font-size="14" font-weight="bold" lengthAdjust="spacing" textLength="162" x="10" y="22.5332">AppointmentAggregate</text></g><!--cluster StaffAggregate--><g id="cluster_StaffAggregate"><path d="M692.5,148 L798.5,148 A3.75,3.75 0 0 1 801,150.5 L808,171.6094 L1203.5,171.6094 A2.5,2.5 0 0 1 1206,174.1094 L1206,498.5 A2.5,2.5 0 0 1 1203.5,501 L692.5,501 A2.5,2.5 0 0 1 690,498.5 L690,150.5 A2.5,2.5 0 0 1 692.5,148 " fill="none" style="stroke:#000000;stroke-width:1.5;"/><line style="stroke:#000000;stroke-width:1.5;" x1="690" x2="808" y1="171.6094" y2="171.6094"/><text fill="#000000" font-family="sans-serif" font-size="14" font-weight="bold" lengthAdjust="spacing" textLength="105" x="694" y="164.5332">StaffAggregate</text></g><!--class SurgeryRoom--><g id="elem_SurgeryRoom"><rect codeLine="4" fill="#F1F1F1" height="58.7031" id="SurgeryRoom" rx="2.5" ry="2.5" style="stroke:#181818;stroke-width:0.5;" width="119" x="211.5" y="769"/><ellipse cx="226.5" cy="790.3516" fill="#0099FF" rx="11" ry="11" style="stroke:#181818;stroke-width:1.0;"/><path d="M225.3438,791.5078 L225.3438,793.6484 L225.9531,793.6484 Q226.5781,793.6484 226.8281,793.8828 Q227.0938,794.1172 227.0938,794.5078 Q227.0938,794.8828 226.8281,795.1172 Q226.5781,795.3516 225.9531,795.3516 L223.375,795.3516 Q222.7656,795.3516 222.5,795.1172 Q222.2344,794.8828 222.2344,794.4922 Q222.2344,794.1172 222.5,793.8828 Q222.7656,793.6484 223.375,793.6484 L223.6406,793.6484 L223.6406,786.9922 L223.375,786.9922 Q222.7656,786.9922 222.5,786.7578 Q222.2344,786.5234 222.2344,786.1328 Q222.2344,785.7578 222.5,785.5234 Q222.7656,785.2891 223.375,785.2891 L227.2344,785.2891 Q229.0313,785.2891 230.0156,786.1797 Q231.0156,787.0703 231.0156,788.3516 Q231.0156,789.1484 230.5469,789.8047 Q230.0781,790.4609 229.1406,790.9609 Q229.6875,791.4297 230.2969,792.1797 Q230.6875,792.6484 231.3281,793.6484 Q231.9844,793.6484 232.1875,793.7891 Q232.5625,794.0391 232.5625,794.5078 Q232.5625,794.8828 232.2969,795.1172 Q232.0469,795.3516 231.4375,795.3516 L230.4531,795.3516 Q228.3906,792.1484 227.0313,791.5078 L225.3438,791.5078 Z M225.3438,789.8047 L226.6719,789.8047 Q227.4063,789.8047 228,789.5859 Q228.7813,789.2891 229.0469,788.9609 Q229.3125,788.6172 229.3125,788.2891 Q229.3125,787.8203 228.7969,787.4141 Q228.2813,786.9922 227.2969,786.9922 L225.3438,786.9922 L225.3438,789.8047 Z " fill="#000000"/><text fill="#000000" font-family="sans-serif" font-size="12" font-style="italic" lengthAdjust="spacing" textLength="73" x="247.5" y="786.457">&#171;Root Entity&#187;</text><text fill="#000000" font-family="sans-serif" font-size="14" lengthAdjust="spacing" textLength="87" x="240.5" y="803.627">SurgeryRoom</text><line style="stroke:#181818;stroke-width:0.5;" x1="212.5" x2="329.5" y1="811.7031" y2="811.7031"/><line style="stroke:#181818;stroke-width:0.5;" x1="212.5" x2="329.5" y1="819.7031" y2="819.7031"/></g><!--class RoomNumber--><g id="elem_RoomNumber"><rect codeLine="6" fill="#F1F1F1" height="58.7031" id="RoomNumber" rx="2.5" ry="2.5" style="stroke:#181818;stroke-width:0.5;" width="133" x="48.5" y="889"/><ellipse cx="63.5" cy="910.3516" fill="#F09800" rx="11" ry="11" style="stroke:#181818;stroke-width:1.0;"/><path d="M64.0938,913.6172 L66.5625,907.7422 L66.1719,907.7422 Q65.5625,907.7422 65.2969,907.5078 Q65.0313,907.2734 65.0313,906.8828 Q65.0313,906.5078 65.2969,906.2734 Q65.5625,906.0391 66.1719,906.0391 L68.4531,906.0391 Q69.0625,906.0391 69.3281,906.2734 Q69.5938,906.5078 69.5938,906.8828 Q69.5938,907.3516 69.1875,907.6172 Q69,907.7422 68.4063,907.7422 L64.9219,916.1016 L63.2813,916.1016 L59.7969,907.7422 Q59.2031,907.7422 59.0156,907.6172 Q58.6094,907.3516 58.6094,906.8828 Q58.6094,906.5078 58.875,906.2734 Q59.1406,906.0391 59.75,906.0391 L62.0469,906.0391 Q62.6563,906.0391 62.9063,906.2734 Q63.1719,906.5078 63.1719,906.8828 Q63.1719,907.2734 62.9063,907.5078 Q62.6563,907.7422 62.0469,907.7422 L61.6406,907.7422 L64.0938,913.6172 Z " fill="#000000"/><text fill="#000000" font-family="sans-serif" font-size="12" font-style="italic" lengthAdjust="spacing" textLength="105" x="75.5" y="906.457">&#171;Unique Identifier&#187;</text><text fill="#000000" font-family="sans-serif" font-size="14" lengthAdjust="spacing" textLength="86" x="85" y="923.627">RoomNumber</text><line style="stroke:#181818;stroke-width:0.5;" x1="49.5" x2="180.5" y1="931.7031" y2="931.7031"/><line style="stroke:#181818;stroke-width:0.5;" x1="49.5" x2="180.5" y1="939.7031" y2="939.7031"/></g><!--class RoomType--><g id="elem_RoomType"><rect codeLine="7" fill="#F1F1F1" height="58.7031" id="RoomType" rx="2.5" ry="2.5" style="stroke:#181818;stroke-width:0.5;" width="113" x="216.5" y="889"/><ellipse cx="231.5" cy="910.3516" fill="#F04800" rx="11" ry="11" style="stroke:#181818;stroke-width:1.0;"/><path d="M232.0938,913.6172 L234.5625,907.7422 L234.1719,907.7422 Q233.5625,907.7422 233.2969,907.5078 Q233.0313,907.2734 233.0313,906.8828 Q233.0313,906.5078 233.2969,906.2734 Q233.5625,906.0391 234.1719,906.0391 L236.4531,906.0391 Q237.0625,906.0391 237.3281,906.2734 Q237.5938,906.5078 237.5938,906.8828 Q237.5938,907.3516 237.1875,907.6172 Q237,907.7422 236.4063,907.7422 L232.9219,916.1016 L231.2813,916.1016 L227.7969,907.7422 Q227.2031,907.7422 227.0156,907.6172 Q226.6094,907.3516 226.6094,906.8828 Q226.6094,906.5078 226.875,906.2734 Q227.1406,906.0391 227.75,906.0391 L230.0469,906.0391 Q230.6563,906.0391 230.9063,906.2734 Q231.1719,906.5078 231.1719,906.8828 Q231.1719,907.2734 230.9063,907.5078 Q230.6563,907.7422 230.0469,907.7422 L229.6406,907.7422 L232.0938,913.6172 Z " fill="#000000"/><text fill="#000000" font-family="sans-serif" font-size="12" font-style="italic" lengthAdjust="spacing" textLength="85" x="243.5" y="906.457">&#171;Value Object&#187;</text><text fill="#000000" font-family="sans-serif" font-size="14" lengthAdjust="spacing" textLength="69" x="251.5" y="923.627">RoomType</text><line style="stroke:#181818;stroke-width:0.5;" x1="217.5" x2="328.5" y1="931.7031" y2="931.7031"/><line style="stroke:#181818;stroke-width:0.5;" x1="217.5" x2="328.5" y1="939.7031" y2="939.7031"/></g><!--class RoomCapacity--><g id="elem_RoomCapacity"><rect codeLine="8" fill="#F1F1F1" height="58.7031" id="RoomCapacity" rx="2.5" ry="2.5" style="stroke:#181818;stroke-width:0.5;" width="124" x="52" y="769"/><ellipse cx="67" cy="790.3516" fill="#F04800" rx="11" ry="11" style="stroke:#181818;stroke-width:1.0;"/><path d="M67.5938,793.6172 L70.0625,787.7422 L69.6719,787.7422 Q69.0625,787.7422 68.7969,787.5078 Q68.5313,787.2734 68.5313,786.8828 Q68.5313,786.5078 68.7969,786.2734 Q69.0625,786.0391 69.6719,786.0391 L71.9531,786.0391 Q72.5625,786.0391 72.8281,786.2734 Q73.0938,786.5078 73.0938,786.8828 Q73.0938,787.3516 72.6875,787.6172 Q72.5,787.7422 71.9063,787.7422 L68.4219,796.1016 L66.7813,796.1016 L63.2969,787.7422 Q62.7031,787.7422 62.5156,787.6172 Q62.1094,787.3516 62.1094,786.8828 Q62.1094,786.5078 62.375,786.2734 Q62.6406,786.0391 63.25,786.0391 L65.5469,786.0391 Q66.1563,786.0391 66.4063,786.2734 Q66.6719,786.5078 66.6719,786.8828 Q66.6719,787.2734 66.4063,787.5078 Q66.1563,787.7422 65.5469,787.7422 L65.1406,787.7422 L67.5938,793.6172 Z " fill="#000000"/><text fill="#000000" font-family="sans-serif" font-size="12" font-style="italic" lengthAdjust="spacing" textLength="85" x="84.5" y="786.457">&#171;Value Object&#187;</text><text fill="#000000" font-family="sans-serif" font-size="14" lengthAdjust="spacing" textLength="92" x="81" y="803.627">RoomCapacity</text><line style="stroke:#181818;stroke-width:0.5;" x1="53" x2="175" y1="811.7031" y2="811.7031"/><line style="stroke:#181818;stroke-width:0.5;" x1="53" x2="175" y1="819.7031" y2="819.7031"/></g><!--class RoomStatus--><g id="elem_RoomStatus"><rect codeLine="9" fill="#F1F1F1" height="58.7031" id="RoomStatus" rx="2.5" ry="2.5" style="stroke:#181818;stroke-width:0.5;" width="113" x="217.5" y="649"/><ellipse cx="232.5" cy="670.3516" fill="#F04800" rx="11" ry="11" style="stroke:#181818;stroke-width:1.0;"/><path d="M233.0938,673.6172 L235.5625,667.7422 L235.1719,667.7422 Q234.5625,667.7422 234.2969,667.5078 Q234.0313,667.2734 234.0313,666.8828 Q234.0313,666.5078 234.2969,666.2734 Q234.5625,666.0391 235.1719,666.0391 L237.4531,666.0391 Q238.0625,666.0391 238.3281,666.2734 Q238.5938,666.5078 238.5938,666.8828 Q238.5938,667.3516 238.1875,667.6172 Q238,667.7422 237.4063,667.7422 L233.9219,676.1016 L232.2813,676.1016 L228.7969,667.7422 Q228.2031,667.7422 228.0156,667.6172 Q227.6094,667.3516 227.6094,666.8828 Q227.6094,666.5078 227.875,666.2734 Q228.1406,666.0391 228.75,666.0391 L231.0469,666.0391 Q231.6563,666.0391 231.9063,666.2734 Q232.1719,666.5078 232.1719,666.8828 Q232.1719,667.2734 231.9063,667.5078 Q231.6563,667.7422 231.0469,667.7422 L230.6406,667.7422 L233.0938,673.6172 Z " fill="#000000"/><text fill="#000000" font-family="sans-serif" font-size="12" font-style="italic" lengthAdjust="spacing" textLength="85" x="244.5" y="666.457">&#171;Value Object&#187;</text><text fill="#000000" font-family="sans-serif" font-size="14" lengthAdjust="spacing" textLength="77" x="248.5" y="683.627">RoomStatus</text><line style="stroke:#181818;stroke-width:0.5;" x1="218.5" x2="329.5" y1="691.7031" y2="691.7031"/><line style="stroke:#181818;stroke-width:0.5;" x1="218.5" x2="329.5" y1="699.7031" y2="699.7031"/></g><!--class MaintenanceSlots--><g id="elem_MaintenanceSlots"><rect codeLine="10" fill="#F1F1F1" height="58.7031" id="MaintenanceSlots" rx="2.5" ry="2.5" style="stroke:#181818;stroke-width:0.5;" width="144" x="38" y="649"/><ellipse cx="53" cy="670.3516" fill="#F04800" rx="11" ry="11" style="stroke:#181818;stroke-width:1.0;"/><path d="M53.5938,673.6172 L56.0625,667.7422 L55.6719,667.7422 Q55.0625,667.7422 54.7969,667.5078 Q54.5313,667.2734 54.5313,666.8828 Q54.5313,666.5078 54.7969,666.2734 Q55.0625,666.0391 55.6719,666.0391 L57.9531,666.0391 Q58.5625,666.0391 58.8281,666.2734 Q59.0938,666.5078 59.0938,666.8828 Q59.0938,667.3516 58.6875,667.6172 Q58.5,667.7422 57.9063,667.7422 L54.4219,676.1016 L52.7813,676.1016 L49.2969,667.7422 Q48.7031,667.7422 48.5156,667.6172 Q48.1094,667.3516 48.1094,666.8828 Q48.1094,666.5078 48.375,666.2734 Q48.6406,666.0391 49.25,666.0391 L51.5469,666.0391 Q52.1563,666.0391 52.4063,666.2734 Q52.6719,666.5078 52.6719,666.8828 Q52.6719,667.2734 52.4063,667.5078 Q52.1563,667.7422 51.5469,667.7422 L51.1406,667.7422 L53.5938,673.6172 Z " fill="#000000"/><text fill="#000000" font-family="sans-serif" font-size="12" font-style="italic" lengthAdjust="spacing" textLength="85" x="80.5" y="666.457">&#171;Value Object&#187;</text><text fill="#000000" font-family="sans-serif" font-size="14" lengthAdjust="spacing" textLength="112" x="67" y="683.627">MaintenanceSlots</text><line style="stroke:#181818;stroke-width:0.5;" x1="39" x2="181" y1="691.7031" y2="691.7031"/><line style="stroke:#181818;stroke-width:0.5;" x1="39" x2="181" y1="699.7031" y2="699.7031"/></g><!--class Appointment--><g id="elem_Appointment"><rect codeLine="20" fill="#F1F1F1" height="58.7031" id="Appointment" rx="2.5" ry="2.5" style="stroke:#181818;stroke-width:0.5;" width="111" x="328.5" y="184"/><ellipse cx="343.5" cy="205.3516" fill="#0099FF" rx="11" ry="11" style="stroke:#181818;stroke-width:1.0;"/><path d="M342.3438,206.5078 L342.3438,208.6484 L342.9531,208.6484 Q343.5781,208.6484 343.8281,208.8828 Q344.0938,209.1172 344.0938,209.5078 Q344.0938,209.8828 343.8281,210.1172 Q343.5781,210.3516 342.9531,210.3516 L340.375,210.3516 Q339.7656,210.3516 339.5,210.1172 Q339.2344,209.8828 339.2344,209.4922 Q339.2344,209.1172 339.5,208.8828 Q339.7656,208.6484 340.375,208.6484 L340.6406,208.6484 L340.6406,201.9922 L340.375,201.9922 Q339.7656,201.9922 339.5,201.7578 Q339.2344,201.5234 339.2344,201.1328 Q339.2344,200.7578 339.5,200.5234 Q339.7656,200.2891 340.375,200.2891 L344.2344,200.2891 Q346.0313,200.2891 347.0156,201.1797 Q348.0156,202.0703 348.0156,203.3516 Q348.0156,204.1484 347.5469,204.8047 Q347.0781,205.4609 346.1406,205.9609 Q346.6875,206.4297 347.2969,207.1797 Q347.6875,207.6484 348.3281,208.6484 Q348.9844,208.6484 349.1875,208.7891 Q349.5625,209.0391 349.5625,209.5078 Q349.5625,209.8828 349.2969,210.1172 Q349.0469,210.3516 348.4375,210.3516 L347.4531,210.3516 Q345.3906,207.1484 344.0313,206.5078 L342.3438,206.5078 Z M342.3438,204.8047 L343.6719,204.8047 Q344.4063,204.8047 345,204.5859 Q345.7813,204.2891 346.0469,203.9609 Q346.3125,203.6172 346.3125,203.2891 Q346.3125,202.8203 345.7969,202.4141 Q345.2813,201.9922 344.2969,201.9922 L342.3438,201.9922 L342.3438,204.8047 Z " fill="#000000"/><text fill="#000000" font-family="sans-serif" font-size="12" font-style="italic" lengthAdjust="spacing" textLength="73" x="360.5" y="201.457">&#171;Root Entity&#187;</text><text fill="#000000" font-family="sans-serif" font-size="14" lengthAdjust="spacing" textLength="79" x="357.5" y="218.627">Appointment</text><line style="stroke:#181818;stroke-width:0.5;" x1="329.5" x2="438.5" y1="226.7031" y2="226.7031"/><line style="stroke:#181818;stroke-width:0.5;" x1="329.5" x2="438.5" y1="234.7031" y2="234.7031"/></g><!--class AppointmentID--><g id="elem_AppointmentID"><rect codeLine="22" fill="#F1F1F1" height="58.7031" id="AppointmentID" rx="2.5" ry="2.5" style="stroke:#181818;stroke-width:0.5;" width="133" x="362.5" y="42"/><ellipse cx="377.5" cy="63.3516" fill="#F09800" rx="11" ry="11" style="stroke:#181818;stroke-width:1.0;"/><path d="M378.0938,66.6172 L380.5625,60.7422 L380.1719,60.7422 Q379.5625,60.7422 379.2969,60.5078 Q379.0313,60.2734 379.0313,59.8828 Q379.0313,59.5078 379.2969,59.2734 Q379.5625,59.0391 380.1719,59.0391 L382.4531,59.0391 Q383.0625,59.0391 383.3281,59.2734 Q383.5938,59.5078 383.5938,59.8828 Q383.5938,60.3516 383.1875,60.6172 Q383,60.7422 382.4063,60.7422 L378.9219,69.1016 L377.2813,69.1016 L373.7969,60.7422 Q373.2031,60.7422 373.0156,60.6172 Q372.6094,60.3516 372.6094,59.8828 Q372.6094,59.5078 372.875,59.2734 Q373.1406,59.0391 373.75,59.0391 L376.0469,59.0391 Q376.6563,59.0391 376.9063,59.2734 Q377.1719,59.5078 377.1719,59.8828 Q377.1719,60.2734 376.9063,60.5078 Q376.6563,60.7422 376.0469,60.7422 L375.6406,60.7422 L378.0938,66.6172 Z " fill="#000000"/><text fill="#000000" font-family="sans-serif" font-size="12" font-style="italic" lengthAdjust="spacing" textLength="105" x="389.5" y="59.457">&#171;Unique Identifier&#187;</text><text fill="#000000" font-family="sans-serif" font-size="14" lengthAdjust="spacing" textLength="92" x="396" y="76.627">AppointmentID</text><line style="stroke:#181818;stroke-width:0.5;" x1="363.5" x2="494.5" y1="84.7031" y2="84.7031"/><line style="stroke:#181818;stroke-width:0.5;" x1="363.5" x2="494.5" y1="92.7031" y2="92.7031"/></g><!--class DateAndTime--><g id="elem_DateAndTime"><rect codeLine="23" fill="#F1F1F1" height="58.7031" id="DateAndTime" rx="2.5" ry="2.5" style="stroke:#181818;stroke-width:0.5;" width="118" x="209" y="42"/><ellipse cx="224" cy="63.3516" fill="#F04800" rx="11" ry="11" style="stroke:#181818;stroke-width:1.0;"/><path d="M224.5938,66.6172 L227.0625,60.7422 L226.6719,60.7422 Q226.0625,60.7422 225.7969,60.5078 Q225.5313,60.2734 225.5313,59.8828 Q225.5313,59.5078 225.7969,59.2734 Q226.0625,59.0391 226.6719,59.0391 L228.9531,59.0391 Q229.5625,59.0391 229.8281,59.2734 Q230.0938,59.5078 230.0938,59.8828 Q230.0938,60.3516 229.6875,60.6172 Q229.5,60.7422 228.9063,60.7422 L225.4219,69.1016 L223.7813,69.1016 L220.2969,60.7422 Q219.7031,60.7422 219.5156,60.6172 Q219.1094,60.3516 219.1094,59.8828 Q219.1094,59.5078 219.375,59.2734 Q219.6406,59.0391 220.25,59.0391 L222.5469,59.0391 Q223.1563,59.0391 223.4063,59.2734 Q223.6719,59.5078 223.6719,59.8828 Q223.6719,60.2734 223.4063,60.5078 Q223.1563,60.7422 222.5469,60.7422 L222.1406,60.7422 L224.5938,66.6172 Z " fill="#000000"/><text fill="#000000" font-family="sans-serif" font-size="12" font-style="italic" lengthAdjust="spacing" textLength="85" x="238.5" y="59.457">&#171;Value Object&#187;</text><text fill="#000000" font-family="sans-serif" font-size="14" lengthAdjust="spacing" textLength="86" x="238" y="76.627">DateAndTime</text><line style="stroke:#181818;stroke-width:0.5;" x1="210" x2="326" y1="84.7031" y2="84.7031"/><line style="stroke:#181818;stroke-width:0.5;" x1="210" x2="326" y1="92.7031" y2="92.7031"/></g><!--class AppointmentStatus--><g id="elem_AppointmentStatus"><rect codeLine="24" fill="#F1F1F1" height="58.7031" id="AppointmentStatus" rx="2.5" ry="2.5" style="stroke:#181818;stroke-width:0.5;" width="151" x="22.5" y="42"/><ellipse cx="37.5" cy="63.3516" fill="#F04800" rx="11" ry="11" style="stroke:#181818;stroke-width:1.0;"/><path d="M38.0938,66.6172 L40.5625,60.7422 L40.1719,60.7422 Q39.5625,60.7422 39.2969,60.5078 Q39.0313,60.2734 39.0313,59.8828 Q39.0313,59.5078 39.2969,59.2734 Q39.5625,59.0391 40.1719,59.0391 L42.4531,59.0391 Q43.0625,59.0391 43.3281,59.2734 Q43.5938,59.5078 43.5938,59.8828 Q43.5938,60.3516 43.1875,60.6172 Q43,60.7422 42.4063,60.7422 L38.9219,69.1016 L37.2813,69.1016 L33.7969,60.7422 Q33.2031,60.7422 33.0156,60.6172 Q32.6094,60.3516 32.6094,59.8828 Q32.6094,59.5078 32.875,59.2734 Q33.1406,59.0391 33.75,59.0391 L36.0469,59.0391 Q36.6563,59.0391 36.9063,59.2734 Q37.1719,59.5078 37.1719,59.8828 Q37.1719,60.2734 36.9063,60.5078 Q36.6563,60.7422 36.0469,60.7422 L35.6406,60.7422 L38.0938,66.6172 Z " fill="#000000"/><text fill="#000000" font-family="sans-serif" font-size="12" font-style="italic" lengthAdjust="spacing" textLength="85" x="68.5" y="59.457">&#171;Value Object&#187;</text><text fill="#000000" font-family="sans-serif" font-size="14" lengthAdjust="spacing" textLength="119" x="51.5" y="76.627">AppointmentStatus</text><line style="stroke:#181818;stroke-width:0.5;" x1="23.5" x2="172.5" y1="84.7031" y2="84.7031"/><line style="stroke:#181818;stroke-width:0.5;" x1="23.5" x2="172.5" y1="92.7031" y2="92.7031"/></g><!--class AssignedStaff--><g id="elem_AssignedStaff"><rect codeLine="25" fill="#F1F1F1" height="58.7031" id="AssignedStaff" rx="2.5" ry="2.5" style="stroke:#181818;stroke-width:0.5;" width="119" x="530.5" y="42"/><ellipse cx="545.5" cy="63.3516" fill="#ADD1B2" rx="11" ry="11" style="stroke:#181818;stroke-width:1.0;"/><path d="M544.3594,64.1484 L544.3594,66.6484 L548.6875,66.6484 L548.6875,65.7266 Q548.6875,65.1172 548.9219,64.8516 Q549.1719,64.5859 549.5469,64.5859 Q549.9219,64.5859 550.1563,64.8516 Q550.3906,65.1172 550.3906,65.7266 L550.3906,68.3516 L542.3906,68.3516 Q541.7656,68.3516 541.5,68.1172 Q541.25,67.8828 541.25,67.4922 Q541.25,67.1172 541.5156,66.8828 Q541.7813,66.6484 542.3906,66.6484 L542.6563,66.6484 L542.6563,59.9922 L542.3906,59.9922 Q541.7656,59.9922 541.5,59.7578 Q541.25,59.5234 541.25,59.1328 Q541.25,58.7578 541.5,58.5234 Q541.7656,58.2891 542.3906,58.2891 L550.0156,58.2891 L550.0156,60.8828 Q550.0156,61.4922 549.7813,61.7578 Q549.5625,62.0078 549.1719,62.0078 Q548.7969,62.0078 548.5625,61.7578 Q548.3281,61.4922 548.3281,60.8828 L548.3281,59.9922 L544.3594,59.9922 L544.3594,62.4453 L545.8438,62.4453 Q545.8438,61.7891 545.9688,61.6016 Q546.2344,61.1953 546.7031,61.1953 Q547.0781,61.1953 547.3125,61.4609 Q547.5469,61.7109 547.5469,62.3203 L547.5469,64.2891 Q547.5469,64.8359 547.4219,65.0234 Q547.1563,65.4141 546.7031,65.4141 Q546.2344,65.4141 545.9688,65.0078 Q545.8438,64.8203 545.8438,64.1484 L544.3594,64.1484 Z " fill="#000000"/><text fill="#000000" font-family="sans-serif" font-size="12" font-style="italic" lengthAdjust="spacing" textLength="44" x="581" y="59.457">&#171;Entity&#187;</text><text fill="#000000" font-family="sans-serif" font-size="14" lengthAdjust="spacing" textLength="87" x="559.5" y="76.627">AssignedStaff</text><line style="stroke:#181818;stroke-width:0.5;" x1="531.5" x2="648.5" y1="84.7031" y2="84.7031"/><line style="stroke:#181818;stroke-width:0.5;" x1="531.5" x2="648.5" y1="92.7031" y2="92.7031"/></g><!--class Staff--><g id="elem_Staff"><rect codeLine="36" fill="#F1F1F1" height="58.7031" id="Staff" rx="2.5" ry="2.5" style="stroke:#181818;stroke-width:0.5;" width="101" x="778.5" y="306"/><ellipse cx="793.5" cy="327.3516" fill="#0099FF" rx="11" ry="11" style="stroke:#181818;stroke-width:1.0;"/><path d="M792.3438,328.5078 L792.3438,330.6484 L792.9531,330.6484 Q793.5781,330.6484 793.8281,330.8828 Q794.0938,331.1172 794.0938,331.5078 Q794.0938,331.8828 793.8281,332.1172 Q793.5781,332.3516 792.9531,332.3516 L790.375,332.3516 Q789.7656,332.3516 789.5,332.1172 Q789.2344,331.8828 789.2344,331.4922 Q789.2344,331.1172 789.5,330.8828 Q789.7656,330.6484 790.375,330.6484 L790.6406,330.6484 L790.6406,323.9922 L790.375,323.9922 Q789.7656,323.9922 789.5,323.7578 Q789.2344,323.5234 789.2344,323.1328 Q789.2344,322.7578 789.5,322.5234 Q789.7656,322.2891 790.375,322.2891 L794.2344,322.2891 Q796.0313,322.2891 797.0156,323.1797 Q798.0156,324.0703 798.0156,325.3516 Q798.0156,326.1484 797.5469,326.8047 Q797.0781,327.4609 796.1406,327.9609 Q796.6875,328.4297 797.2969,329.1797 Q797.6875,329.6484 798.3281,330.6484 Q798.9844,330.6484 799.1875,330.7891 Q799.5625,331.0391 799.5625,331.5078 Q799.5625,331.8828 799.2969,332.1172 Q799.0469,332.3516 798.4375,332.3516 L797.4531,332.3516 Q795.3906,329.1484 794.0313,328.5078 L792.3438,328.5078 Z M792.3438,326.8047 L793.6719,326.8047 Q794.4063,326.8047 795,326.5859 Q795.7813,326.2891 796.0469,325.9609 Q796.3125,325.6172 796.3125,325.2891 Q796.3125,324.8203 795.7969,324.4141 Q795.2813,323.9922 794.2969,323.9922 L792.3438,323.9922 L792.3438,326.8047 Z " fill="#000000"/><text fill="#000000" font-family="sans-serif" font-size="12" font-style="italic" lengthAdjust="spacing" textLength="73" x="805.5" y="323.457">&#171;Root Entity&#187;</text><text fill="#000000" font-family="sans-serif" font-size="14" lengthAdjust="spacing" textLength="29" x="827.5" y="340.627">Staff</text><line style="stroke:#181818;stroke-width:0.5;" x1="779.5" x2="878.5" y1="348.7031" y2="348.7031"/><line style="stroke:#181818;stroke-width:0.5;" x1="779.5" x2="878.5" y1="356.7031" y2="356.7031"/></g><!--class AvailabilitySlots--><g id="elem_AvailabilitySlots"><rect codeLine="38" fill="#F1F1F1" height="58.7031" id="AvailabilitySlots" rx="2.5" ry="2.5" style="stroke:#181818;stroke-width:0.5;" width="129" x="706.5" y="184"/><ellipse cx="721.5" cy="205.3516" fill="#F04800" rx="11" ry="11" style="stroke:#181818;stroke-width:1.0;"/><path d="M722.0938,208.6172 L724.5625,202.7422 L724.1719,202.7422 Q723.5625,202.7422 723.2969,202.5078 Q723.0313,202.2734 723.0313,201.8828 Q723.0313,201.5078 723.2969,201.2734 Q723.5625,201.0391 724.1719,201.0391 L726.4531,201.0391 Q727.0625,201.0391 727.3281,201.2734 Q727.5938,201.5078 727.5938,201.8828 Q727.5938,202.3516 727.1875,202.6172 Q727,202.7422 726.4063,202.7422 L722.9219,211.1016 L721.2813,211.1016 L717.7969,202.7422 Q717.2031,202.7422 717.0156,202.6172 Q716.6094,202.3516 716.6094,201.8828 Q716.6094,201.5078 716.875,201.2734 Q717.1406,201.0391 717.75,201.0391 L720.0469,201.0391 Q720.6563,201.0391 720.9063,201.2734 Q721.1719,201.5078 721.1719,201.8828 Q721.1719,202.2734 720.9063,202.5078 Q720.6563,202.7422 720.0469,202.7422 L719.6406,202.7422 L722.0938,208.6172 Z " fill="#000000"/><text fill="#000000" font-family="sans-serif" font-size="12" font-style="italic" lengthAdjust="spacing" textLength="85" x="741.5" y="201.457">&#171;Value Object&#187;</text><text fill="#000000" font-family="sans-serif" font-size="14" lengthAdjust="spacing" textLength="97" x="735.5" y="218.627">AvailabilitySlots</text><line style="stroke:#181818;stroke-width:0.5;" x1="707.5" x2="834.5" y1="226.7031" y2="226.7031"/><line style="stroke:#181818;stroke-width:0.5;" x1="707.5" x2="834.5" y1="234.7031" y2="234.7031"/></g><!--class LicenseNumber--><g id="elem_LicenseNumber"><rect codeLine="39" fill="#F1F1F1" height="58.7031" id="LicenseNumber" rx="2.5" ry="2.5" style="stroke:#181818;stroke-width:0.5;" width="133" x="870.5" y="184"/><ellipse cx="885.5" cy="205.3516" fill="#F09800" rx="11" ry="11" style="stroke:#181818;stroke-width:1.0;"/><path d="M886.0938,208.6172 L888.5625,202.7422 L888.1719,202.7422 Q887.5625,202.7422 887.2969,202.5078 Q887.0313,202.2734 887.0313,201.8828 Q887.0313,201.5078 887.2969,201.2734 Q887.5625,201.0391 888.1719,201.0391 L890.4531,201.0391 Q891.0625,201.0391 891.3281,201.2734 Q891.5938,201.5078 891.5938,201.8828 Q891.5938,202.3516 891.1875,202.6172 Q891,202.7422 890.4063,202.7422 L886.9219,211.1016 L885.2813,211.1016 L881.7969,202.7422 Q881.2031,202.7422 881.0156,202.6172 Q880.6094,202.3516 880.6094,201.8828 Q880.6094,201.5078 880.875,201.2734 Q881.1406,201.0391 881.75,201.0391 L884.0469,201.0391 Q884.6563,201.0391 884.9063,201.2734 Q885.1719,201.5078 885.1719,201.8828 Q885.1719,202.2734 884.9063,202.5078 Q884.6563,202.7422 884.0469,202.7422 L883.6406,202.7422 L886.0938,208.6172 Z " fill="#000000"/><text fill="#000000" font-family="sans-serif" font-size="12" font-style="italic" lengthAdjust="spacing" textLength="105" x="897.5" y="201.457">&#171;Unique Identifier&#187;</text><text fill="#000000" font-family="sans-serif" font-size="14" lengthAdjust="spacing" textLength="98" x="901" y="218.627">LicenseNumber</text><line style="stroke:#181818;stroke-width:0.5;" x1="871.5" x2="1002.5" y1="226.7031" y2="226.7031"/><line style="stroke:#181818;stroke-width:0.5;" x1="871.5" x2="1002.5" y1="234.7031" y2="234.7031"/></g><!--class ContactInformation--><g id="elem_ContactInformation"><rect codeLine="42" fill="#F1F1F1" height="58.7031" id="ContactInformation" rx="2.5" ry="2.5" style="stroke:#181818;stroke-width:0.5;" width="151" x="1038.5" y="184"/><ellipse cx="1053.5" cy="205.3516" fill="#ADD1B2" rx="11" ry="11" style="stroke:#181818;stroke-width:1.0;"/><path d="M1052.3594,206.1484 L1052.3594,208.6484 L1056.6875,208.6484 L1056.6875,207.7266 Q1056.6875,207.1172 1056.9219,206.8516 Q1057.1719,206.5859 1057.5469,206.5859 Q1057.9219,206.5859 1058.1563,206.8516 Q1058.3906,207.1172 1058.3906,207.7266 L1058.3906,210.3516 L1050.3906,210.3516 Q1049.7656,210.3516 1049.5,210.1172 Q1049.25,209.8828 1049.25,209.4922 Q1049.25,209.1172 1049.5156,208.8828 Q1049.7813,208.6484 1050.3906,208.6484 L1050.6563,208.6484 L1050.6563,201.9922 L1050.3906,201.9922 Q1049.7656,201.9922 1049.5,201.7578 Q1049.25,201.5234 1049.25,201.1328 Q1049.25,200.7578 1049.5,200.5234 Q1049.7656,200.2891 1050.3906,200.2891 L1058.0156,200.2891 L1058.0156,202.8828 Q1058.0156,203.4922 1057.7813,203.7578 Q1057.5625,204.0078 1057.1719,204.0078 Q1056.7969,204.0078 1056.5625,203.7578 Q1056.3281,203.4922 1056.3281,202.8828 L1056.3281,201.9922 L1052.3594,201.9922 L1052.3594,204.4453 L1053.8438,204.4453 Q1053.8438,203.7891 1053.9688,203.6016 Q1054.2344,203.1953 1054.7031,203.1953 Q1055.0781,203.1953 1055.3125,203.4609 Q1055.5469,203.7109 1055.5469,204.3203 L1055.5469,206.2891 Q1055.5469,206.8359 1055.4219,207.0234 Q1055.1563,207.4141 1054.7031,207.4141 Q1054.2344,207.4141 1053.9688,207.0078 Q1053.8438,206.8203 1053.8438,206.1484 L1052.3594,206.1484 Z " fill="#000000"/><text fill="#000000" font-family="sans-serif" font-size="12" font-style="italic" lengthAdjust="spacing" textLength="44" x="1105" y="201.457">&#171;Entity&#187;</text><text fill="#000000" font-family="sans-serif" font-size="14" lengthAdjust="spacing" textLength="119" x="1067.5" y="218.627">ContactInformation</text><line style="stroke:#181818;stroke-width:0.5;" x1="1039.5" x2="1188.5" y1="226.7031" y2="226.7031"/><line style="stroke:#181818;stroke-width:0.5;" x1="1039.5" x2="1188.5" y1="234.7031" y2="234.7031"/></g><!--class FirstName--><g id="elem_FirstName"><rect codeLine="44" fill="#F1F1F1" height="58.7031" id="FirstName" rx="2.5" ry="2.5" style="stroke:#181818;stroke-width:0.5;" width="113" x="706.5" y="426"/><ellipse cx="721.5" cy="447.3516" fill="#F04800" rx="11" ry="11" style="stroke:#181818;stroke-width:1.0;"/><path d="M722.0938,450.6172 L724.5625,444.7422 L724.1719,444.7422 Q723.5625,444.7422 723.2969,444.5078 Q723.0313,444.2734 723.0313,443.8828 Q723.0313,443.5078 723.2969,443.2734 Q723.5625,443.0391 724.1719,443.0391 L726.4531,443.0391 Q727.0625,443.0391 727.3281,443.2734 Q727.5938,443.5078 727.5938,443.8828 Q727.5938,444.3516 727.1875,444.6172 Q727,444.7422 726.4063,444.7422 L722.9219,453.1016 L721.2813,453.1016 L717.7969,444.7422 Q717.2031,444.7422 717.0156,444.6172 Q716.6094,444.3516 716.6094,443.8828 Q716.6094,443.5078 716.875,443.2734 Q717.1406,443.0391 717.75,443.0391 L720.0469,443.0391 Q720.6563,443.0391 720.9063,443.2734 Q721.1719,443.5078 721.1719,443.8828 Q721.1719,444.2734 720.9063,444.5078 Q720.6563,444.7422 720.0469,444.7422 L719.6406,444.7422 L722.0938,450.6172 Z " fill="#000000"/><text fill="#000000" font-family="sans-serif" font-size="12" font-style="italic" lengthAdjust="spacing" textLength="85" x="733.5" y="443.457">&#171;Value Object&#187;</text><text fill="#000000" font-family="sans-serif" font-size="14" lengthAdjust="spacing" textLength="64" x="744" y="460.627">FirstName</text><line style="stroke:#181818;stroke-width:0.5;" x1="707.5" x2="818.5" y1="468.7031" y2="468.7031"/><line style="stroke:#181818;stroke-width:0.5;" x1="707.5" x2="818.5" y1="476.7031" y2="476.7031"/></g><!--class LastName--><g id="elem_LastName"><rect codeLine="45" fill="#F1F1F1" height="58.7031" id="LastName" rx="2.5" ry="2.5" style="stroke:#181818;stroke-width:0.5;" width="113" x="854.5" y="426"/><ellipse cx="869.5" cy="447.3516" fill="#F04800" rx="11" ry="11" style="stroke:#181818;stroke-width:1.0;"/><path d="M870.0938,450.6172 L872.5625,444.7422 L872.1719,444.7422 Q871.5625,444.7422 871.2969,444.5078 Q871.0313,444.2734 871.0313,443.8828 Q871.0313,443.5078 871.2969,443.2734 Q871.5625,443.0391 872.1719,443.0391 L874.4531,443.0391 Q875.0625,443.0391 875.3281,443.2734 Q875.5938,443.5078 875.5938,443.8828 Q875.5938,444.3516 875.1875,444.6172 Q875,444.7422 874.4063,444.7422 L870.9219,453.1016 L869.2813,453.1016 L865.7969,444.7422 Q865.2031,444.7422 865.0156,444.6172 Q864.6094,444.3516 864.6094,443.8828 Q864.6094,443.5078 864.875,443.2734 Q865.1406,443.0391 865.75,443.0391 L868.0469,443.0391 Q868.6563,443.0391 868.9063,443.2734 Q869.1719,443.5078 869.1719,443.8828 Q869.1719,444.2734 868.9063,444.5078 Q868.6563,444.7422 868.0469,444.7422 L867.6406,444.7422 L870.0938,450.6172 Z " fill="#000000"/><text fill="#000000" font-family="sans-serif" font-size="12" font-style="italic" lengthAdjust="spacing" textLength="85" x="881.5" y="443.457">&#171;Value Object&#187;</text><text fill="#000000" font-family="sans-serif" font-size="14" lengthAdjust="spacing" textLength="63" x="892.5" y="460.627">LastName</text><line style="stroke:#181818;stroke-width:0.5;" x1="855.5" x2="966.5" y1="468.7031" y2="468.7031"/><line style="stroke:#181818;stroke-width:0.5;" x1="855.5" x2="966.5" y1="476.7031" y2="476.7031"/></g><!--class FullName--><g id="elem_FullName"><rect codeLine="46" fill="#F1F1F1" height="58.7031" id="FullName" rx="2.5" ry="2.5" style="stroke:#181818;stroke-width:0.5;" width="113" x="1002.5" y="426"/><ellipse cx="1017.5" cy="447.3516" fill="#F04800" rx="11" ry="11" style="stroke:#181818;stroke-width:1.0;"/><path d="M1018.0938,450.6172 L1020.5625,444.7422 L1020.1719,444.7422 Q1019.5625,444.7422 1019.2969,444.5078 Q1019.0313,444.2734 1019.0313,443.8828 Q1019.0313,443.5078 1019.2969,443.2734 Q1019.5625,443.0391 1020.1719,443.0391 L1022.4531,443.0391 Q1023.0625,443.0391 1023.3281,443.2734 Q1023.5938,443.5078 1023.5938,443.8828 Q1023.5938,444.3516 1023.1875,444.6172 Q1023,444.7422 1022.4063,444.7422 L1018.9219,453.1016 L1017.2813,453.1016 L1013.7969,444.7422 Q1013.2031,444.7422 1013.0156,444.6172 Q1012.6094,444.3516 1012.6094,443.8828 Q1012.6094,443.5078 1012.875,443.2734 Q1013.1406,443.0391 1013.75,443.0391 L1016.0469,443.0391 Q1016.6563,443.0391 1016.9063,443.2734 Q1017.1719,443.5078 1017.1719,443.8828 Q1017.1719,444.2734 1016.9063,444.5078 Q1016.6563,444.7422 1016.0469,444.7422 L1015.6406,444.7422 L1018.0938,450.6172 Z " fill="#000000"/><text fill="#000000" font-family="sans-serif" font-size="12" font-style="italic" lengthAdjust="spacing" textLength="85" x="1029.5" y="443.457">&#171;Value Object&#187;</text><text fill="#000000" font-family="sans-serif" font-size="14" lengthAdjust="spacing" textLength="59" x="1042.5" y="460.627">FullName</text><line style="stroke:#181818;stroke-width:0.5;" x1="1003.5" x2="1114.5" y1="468.7031" y2="468.7031"/><line style="stroke:#181818;stroke-width:0.5;" x1="1003.5" x2="1114.5" y1="476.7031" y2="476.7031"/></g><!--class EmailAddress--><g id="elem_EmailAddress"><rect codeLine="47" fill="#F1F1F1" height="58.7031" id="EmailAddress" rx="2.5" ry="2.5" style="stroke:#181818;stroke-width:0.5;" width="118" x="1072" y="306"/><ellipse cx="1087" cy="327.3516" fill="#F04800" rx="11" ry="11" style="stroke:#181818;stroke-width:1.0;"/><path d="M1087.5938,330.6172 L1090.0625,324.7422 L1089.6719,324.7422 Q1089.0625,324.7422 1088.7969,324.5078 Q1088.5313,324.2734 1088.5313,323.8828 Q1088.5313,323.5078 1088.7969,323.2734 Q1089.0625,323.0391 1089.6719,323.0391 L1091.9531,323.0391 Q1092.5625,323.0391 1092.8281,323.2734 Q1093.0938,323.5078 1093.0938,323.8828 Q1093.0938,324.3516 1092.6875,324.6172 Q1092.5,324.7422 1091.9063,324.7422 L1088.4219,333.1016 L1086.7813,333.1016 L1083.2969,324.7422 Q1082.7031,324.7422 1082.5156,324.6172 Q1082.1094,324.3516 1082.1094,323.8828 Q1082.1094,323.5078 1082.375,323.2734 Q1082.6406,323.0391 1083.25,323.0391 L1085.5469,323.0391 Q1086.1563,323.0391 1086.4063,323.2734 Q1086.6719,323.5078 1086.6719,323.8828 Q1086.6719,324.2734 1086.4063,324.5078 Q1086.1563,324.7422 1085.5469,324.7422 L1085.1406,324.7422 L1087.5938,330.6172 Z " fill="#000000"/><text fill="#000000" font-family="sans-serif" font-size="12" font-style="italic" lengthAdjust="spacing" textLength="85" x="1101.5" y="323.457">&#171;Value Object&#187;</text><text fill="#000000" font-family="sans-serif" font-size="14" lengthAdjust="spacing" textLength="86" x="1101" y="340.627">EmailAddress</text><line style="stroke:#181818;stroke-width:0.5;" x1="1073" x2="1189" y1="348.7031" y2="348.7031"/><line style="stroke:#181818;stroke-width:0.5;" x1="1073" x2="1189" y1="356.7031" y2="356.7031"/></g><!--class PhoneNumber--><g id="elem_PhoneNumber"><rect codeLine="48" fill="#F1F1F1" height="58.7031" id="PhoneNumber" rx="2.5" ry="2.5" style="stroke:#181818;stroke-width:0.5;" width="122" x="915" y="306"/><ellipse cx="930" cy="327.3516" fill="#F04800" rx="11" ry="11" style="stroke:#181818;stroke-width:1.0;"/><path d="M930.5938,330.6172 L933.0625,324.7422 L932.6719,324.7422 Q932.0625,324.7422 931.7969,324.5078 Q931.5313,324.2734 931.5313,323.8828 Q931.5313,323.5078 931.7969,323.2734 Q932.0625,323.0391 932.6719,323.0391 L934.9531,323.0391 Q935.5625,323.0391 935.8281,323.2734 Q936.0938,323.5078 936.0938,323.8828 Q936.0938,324.3516 935.6875,324.6172 Q935.5,324.7422 934.9063,324.7422 L931.4219,333.1016 L929.7813,333.1016 L926.2969,324.7422 Q925.7031,324.7422 925.5156,324.6172 Q925.1094,324.3516 925.1094,323.8828 Q925.1094,323.5078 925.375,323.2734 Q925.6406,323.0391 926.25,323.0391 L928.5469,323.0391 Q929.1563,323.0391 929.4063,323.2734 Q929.6719,323.5078 929.6719,323.8828 Q929.6719,324.2734 929.4063,324.5078 Q929.1563,324.7422 928.5469,324.7422 L928.1406,324.7422 L930.5938,330.6172 Z " fill="#000000"/><text fill="#000000" font-family="sans-serif" font-size="12" font-style="italic" lengthAdjust="spacing" textLength="85" x="946.5" y="323.457">&#171;Value Object&#187;</text><text fill="#000000" font-family="sans-serif" font-size="14" lengthAdjust="spacing" textLength="90" x="944" y="340.627">PhoneNumber</text><line style="stroke:#181818;stroke-width:0.5;" x1="916" x2="1036" y1="348.7031" y2="348.7031"/><line style="stroke:#181818;stroke-width:0.5;" x1="916" x2="1036" y1="356.7031" y2="356.7031"/></g><!--reverse link SurgeryRoom to RoomNumber--><g id="link_SurgeryRoom_RoomNumber"><path codeLine="13" d="M223.6702,835.3 C199.2302,853.79 177.11,870.52 152.69,888.99 " fill="none" id="SurgeryRoom-backto-RoomNumber" style="stroke:#181818;stroke-width:1.0;"/><polygon fill="#181818" points="233.24,828.06,226.0417,828.4901,223.6702,835.3,230.8684,834.87,233.24,828.06" style="stroke:#181818;stroke-width:1.0;"/><text fill="#000000" font-family="sans-serif" font-size="13" lengthAdjust="spacing" textLength="7" x="217.7301" y="849.3687">1</text><text fill="#000000" font-family="sans-serif" font-size="13" lengthAdjust="spacing" textLength="7" x="153.1691" y="878.3507">1</text></g><!--reverse link SurgeryRoom to RoomType--><g id="link_SurgeryRoom_RoomType"><path codeLine="14" d="M271.6884,840.0582 C272.0084,858.4782 272.2,870.34 272.51,888.79 " fill="none" id="SurgeryRoom-backto-RoomType" style="stroke:#181818;stroke-width:1.0;"/><polygon fill="#181818" points="271.48,828.06,267.5848,834.1286,271.6884,840.0582,275.5836,833.9896,271.48,828.06" style="stroke:#181818;stroke-width:1.0;"/><text fill="#000000" font-family="sans-serif" font-size="13" lengthAdjust="spacing" textLength="7" x="263.8571" y="849.3687">1</text><text fill="#000000" font-family="sans-serif" font-size="13" lengthAdjust="spacing" textLength="7" x="264.6372" y="878.107">1</text></g><!--link RoomCapacity to SurgeryRoom--><g id="link_RoomCapacity_SurgeryRoom"><path codeLine="15" d="M176.25,798.5 C187.97,798.5 187.69,798.5 199.41,798.5 " fill="none" id="RoomCapacity-to-SurgeryRoom" style="stroke:#181818;stroke-width:1.0;"/><polygon fill="#181818" points="211.41,798.5,205.41,794.5,199.41,798.5,205.41,802.5,211.41,798.5" style="stroke:#181818;stroke-width:1.0;"/><text fill="#000000" font-family="sans-serif" font-size="13" lengthAdjust="spacing" textLength="7" x="183.8523" y="795.1076">1</text><text fill="#000000" font-family="sans-serif" font-size="13" lengthAdjust="spacing" textLength="7" x="196.3266" y="795.0117">1</text></g><!--link RoomStatus to SurgeryRoom--><g id="link_RoomStatus_SurgeryRoom"><path codeLine="16" d="M273.27,708.06 C272.81,726.48 272.5056,738.3439 272.0356,756.7939 " fill="none" id="RoomStatus-to-SurgeryRoom" style="stroke:#181818;stroke-width:1.0;"/><polygon fill="#181818" points="271.73,768.79,275.8815,762.8938,272.0356,756.7939,267.8841,762.6901,271.73,768.79" style="stroke:#181818;stroke-width:1.0;"/><text fill="#000000" font-family="sans-serif" font-size="13" lengthAdjust="spacing" textLength="7" x="265.3976" y="729.3687">1</text><text fill="#000000" font-family="sans-serif" font-size="13" lengthAdjust="spacing" textLength="7" x="264.1241" y="758.107">1</text></g><!--link MaintenanceSlots to SurgeryRoom--><g id="link_MaintenanceSlots_SurgeryRoom"><path codeLine="17" d="M148.97,708.06 C174.19,726.55 197.22,743.428 222.43,761.898 " fill="none" id="MaintenanceSlots-to-SurgeryRoom" style="stroke:#181818;stroke-width:1.0;"/><polygon fill="#181818" points="232.11,768.99,229.634,762.2173,222.43,761.898,224.906,768.6707,232.11,768.99" style="stroke:#181818;stroke-width:1.0;"/><text fill="#000000" font-family="sans-serif" font-size="13" lengthAdjust="spacing" textLength="5" x="151.4919" y="729.3687">*</text><text fill="#000000" font-family="sans-serif" font-size="13" lengthAdjust="spacing" textLength="7" x="215.8372" y="758.3507">1</text></g><!--link AssignedStaff to Appointment--><g id="link_AssignedStaff_Appointment"><path codeLine="27" d="M547.82,101.17 C512.27,125.33 461.66,159.72 426.13,183.87 " fill="none" id="AssignedStaff-Appointment" style="stroke:#181818;stroke-width:1.0;"/><text fill="#000000" font-family="sans-serif" font-size="13" lengthAdjust="spacing" textLength="5" x="534.0236" y="122.1452">*</text><text fill="#000000" font-family="sans-serif" font-size="13" lengthAdjust="spacing" textLength="7" x="427.5803" y="173.2045">1</text></g><!--link DateAndTime to Appointment--><g id="link_DateAndTime_Appointment"><path codeLine="28" d="M291.75,101.17 C311.77,125.33 332.6138,150.4797 352.6238,174.6297 " fill="none" id="DateAndTime-to-Appointment" style="stroke:#181818;stroke-width:1.0;"/><polygon fill="#181818" points="360.28,183.87,359.532,176.6978,352.6238,174.6297,353.3718,181.8019,360.28,183.87" style="stroke:#181818;stroke-width:1.0;"/><text fill="#000000" font-family="sans-serif" font-size="13" lengthAdjust="spacing" textLength="7" x="288.7367" y="122.1452">1</text><text fill="#000000" font-family="sans-serif" font-size="13" lengthAdjust="spacing" textLength="7" x="347.3256" y="173.2045">1</text></g><!--link AppointmentID to Appointment--><g id="link_AppointmentID_Appointment"><path codeLine="31" d="M419.78,101.17 C412.02,125.33 404.631,148.2953 396.871,172.4453 " fill="none" id="AppointmentID-to-Appointment" style="stroke:#181818;stroke-width:1.0;"/><polygon fill="#181818" points="393.2,183.87,398.8437,179.3813,396.871,172.4453,391.2273,176.934,393.2,183.87" style="stroke:#181818;stroke-width:1.0;"/><text fill="#000000" font-family="sans-serif" font-size="13" lengthAdjust="spacing" textLength="7" x="410.2757" y="122.1452">1</text><text fill="#000000" font-family="sans-serif" font-size="13" lengthAdjust="spacing" textLength="7" x="387.4469" y="173.2045">1</text></g><!--link AppointmentStatus to Appointment--><g id="link_AppointmentStatus_Appointment"><path codeLine="32" d="M156.57,101.17 C206.9,125.81 268.2024,155.8134 317.6524,180.0234 " fill="none" id="AppointmentStatus-to-Appointment" style="stroke:#181818;stroke-width:1.0;"/><polygon fill="#181818" points="328.43,185.3,324.8,179.0692,317.6524,180.0234,321.2823,186.2543,328.43,185.3" style="stroke:#181818;stroke-width:1.0;"/><text fill="#000000" font-family="sans-serif" font-size="13" lengthAdjust="spacing" textLength="7" x="160.4119" y="122.1452">1</text><text fill="#000000" font-family="sans-serif" font-size="13" lengthAdjust="spacing" textLength="7" x="313.4925" y="177.9743">1</text></g><!--link Appointment to SurgeryRoom--><g id="link_Appointment_SurgeryRoom"><path codeLine="33" d="M384,243.11 C384,267.42 384,303.25 384,334.5 C384,334.5 384,334.5 384,679.5 C384,717.79 357.5192,745.1036 327.8092,765.5936 " fill="none" id="Appointment-to-SurgeryRoom" style="stroke:#181818;stroke-width:1.0;"/><polygon fill="#181818" points="322.87,769,332.5498,767.1832,326.986,766.1613,328.0079,760.5975,322.87,769" style="stroke:#181818;stroke-width:1.0;"/><text fill="#000000" font-family="sans-serif" font-size="13" lengthAdjust="spacing" textLength="59" x="385" y="531.4951">reserves a</text><text fill="#000000" font-family="sans-serif" font-size="13" lengthAdjust="spacing" textLength="5" x="378.4844" y="264.429">*</text><text fill="#000000" font-family="sans-serif" font-size="13" lengthAdjust="spacing" textLength="5" x="328.6697" y="758.3629">*</text></g><!--reverse link ContactInformation to EmailAddress--><g id="link_ContactInformation_EmailAddress"><path codeLine="50" d="M1119.7522,255.1215 C1122.4422,274.1215 1124.28,287.04 1126.96,305.99 " fill="none" id="ContactInformation-backto-EmailAddress" style="stroke:#181818;stroke-width:1.0;"/><polygon fill="#181818" points="1118.07,243.24,1114.9506,249.7415,1119.7522,255.1215,1122.8716,248.62,1118.07,243.24" style="stroke:#181818;stroke-width:1.0;"/><text fill="#000000" font-family="sans-serif" font-size="13" lengthAdjust="spacing" textLength="7" x="1111.1822" y="264.229">1</text><text fill="#000000" font-family="sans-serif" font-size="13" lengthAdjust="spacing" textLength="7" x="1118.3106" y="295.3507">1</text></g><!--reverse link ContactInformation to PhoneNumber--><g id="link_ContactInformation_PhoneNumber"><path codeLine="51" d="M1071.8947,251.1141 C1050.0447,270.1141 1030.58,287.04 1008.78,305.99 " fill="none" id="ContactInformation-backto-PhoneNumber" style="stroke:#181818;stroke-width:1.0;"/><polygon fill="#181818" points="1080.95,243.24,1073.7977,244.1587,1071.8947,251.1141,1079.0471,250.1955,1080.95,243.24" style="stroke:#181818;stroke-width:1.0;"/><text fill="#000000" font-family="sans-serif" font-size="13" lengthAdjust="spacing" textLength="7" x="1066.7542" y="264.229">1</text><text fill="#000000" font-family="sans-serif" font-size="13" lengthAdjust="spacing" textLength="7" x="1008.185" y="295.3507">1</text></g><!--reverse link Staff to FirstName--><g id="link_Staff_FirstName"><path codeLine="53" d="M807.1633,375.5338 C796.8633,393.9538 789.37,407.34 779.06,425.79 " fill="none" id="Staff-backto-FirstName" style="stroke:#181818;stroke-width:1.0;"/><polygon fill="#181818" points="813.02,365.06,806.6004,368.3447,807.1633,375.5338,813.5829,372.2491,813.02,365.06" style="stroke:#181818;stroke-width:1.0;"/><text fill="#000000" font-family="sans-serif" font-size="13" lengthAdjust="spacing" textLength="7" x="802.0023" y="386.3687">1</text><text fill="#000000" font-family="sans-serif" font-size="13" lengthAdjust="spacing" textLength="7" x="774.8075" y="415.107">1</text></g><!--reverse link Staff to LastName--><g id="link_Staff_LastName"><path codeLine="54" d="M855.6978,374.9144 C868.4978,393.3344 878.23,407.34 891.05,425.79 " fill="none" id="Staff-backto-LastName" style="stroke:#181818;stroke-width:1.0;"/><polygon fill="#181818" points="848.85,365.06,848.9891,372.2698,855.6978,374.9144,855.5587,367.7046,848.85,365.06" style="stroke:#181818;stroke-width:1.0;"/><text fill="#000000" font-family="sans-serif" font-size="13" lengthAdjust="spacing" textLength="7" x="845.2222" y="386.3687">1</text><text fill="#000000" font-family="sans-serif" font-size="13" lengthAdjust="spacing" textLength="7" x="878.9203" y="415.107">1</text></g><!--reverse link Staff to FullName--><g id="link_Staff_FullName"><path codeLine="55" d="M890.437,368.0174 C926.947,386.7474 965.5,406.53 1003.13,425.84 " fill="none" id="Staff-backto-FullName" style="stroke:#181818;stroke-width:1.0;"/><polygon fill="#181818" points="879.76,362.54,883.2727,368.8377,890.437,368.0174,886.9243,361.7197,879.76,362.54" style="stroke:#181818;stroke-width:1.0;"/><text fill="#000000" font-family="sans-serif" font-size="13" lengthAdjust="spacing" textLength="7" x="887.3903" y="362.7582">1</text><text fill="#000000" font-family="sans-serif" font-size="13" lengthAdjust="spacing" textLength="7" x="987.41" y="417.8514">1</text></g><!--link ContactInformation to Staff--><g id="link_ContactInformation_Staff"><path codeLine="56" d="M1067.66,243.15 C1053.05,251.5 1036.64,260.19 1021,267 C968.42,289.89 951.88,286.37 898,306 C892.03,308.17 896.9717,306.1284 890.8317,308.5684 " fill="none" id="ContactInformation-to-Staff" style="stroke:#181818;stroke-width:1.0;"/><polygon fill="#181818" points="879.68,313,886.7331,314.5014,890.8317,308.5684,883.7786,307.0669,879.68,313" style="stroke:#181818;stroke-width:1.0;"/><text fill="#000000" font-family="sans-serif" font-size="13" lengthAdjust="spacing" textLength="7" x="1050.8478" y="264.1213">1</text><text fill="#000000" font-family="sans-serif" font-size="13" lengthAdjust="spacing" textLength="7" x="887.6377" y="306.063">1</text></g><!--link AvailabilitySlots to Staff--><g id="link_AvailabilitySlots_Staff"><path codeLine="57" d="M784.89,243.24 C794.08,262.24 800.8376,276.236 809.9976,295.186 " fill="none" id="AvailabilitySlots-to-Staff" style="stroke:#181818;stroke-width:1.0;"/><polygon fill="#181818" points="815.22,305.99,816.2101,298.8472,809.9976,295.186,809.0075,302.3288,815.22,305.99" style="stroke:#181818;stroke-width:1.0;"/><text fill="#000000" font-family="sans-serif" font-size="13" lengthAdjust="spacing" textLength="5" x="782.1324" y="264.229">*</text><text fill="#000000" font-family="sans-serif" font-size="13" lengthAdjust="spacing" textLength="7" x="804.44" y="295.3507">1</text></g><!--link LicenseNumber to Staff--><g id="link_LicenseNumber_Staff"><path codeLine="58" d="M911.13,243.24 C894.03,262.24 879.7363,278.1193 862.6863,297.0693 " fill="none" id="LicenseNumber-to-Staff" style="stroke:#181818;stroke-width:1.0;"/><polygon fill="#181818" points="854.66,305.99,861.6467,304.2051,862.6863,297.0693,855.6996,298.8542,854.66,305.99" style="stroke:#181818;stroke-width:1.0;"/><text fill="#000000" font-family="sans-serif" font-size="13" lengthAdjust="spacing" textLength="7" x="898.3478" y="264.229">1</text><text fill="#000000" font-family="sans-serif" font-size="13" lengthAdjust="spacing" textLength="7" x="852.5075" y="295.3507">1</text></g><!--link AssignedStaff to Staff--><g id="link_AssignedStaff_Staff"><path codeLine="61" d="M589.24,101.14 C589.69,142.88 596.71,220.5 639,267 C674.8,306.36 735.07,322.78 778.13,329.62 " fill="none" id="AssignedStaff-Staff" style="stroke:#181818;stroke-width:1.0;"/><text fill="#000000" font-family="sans-serif" font-size="13" lengthAdjust="spacing" textLength="48" x="640" y="218.9951">reserves</text><text fill="#000000" font-family="sans-serif" font-size="13" lengthAdjust="spacing" textLength="5" x="583.5982" y="122.1093">*</text><text fill="#000000" font-family="sans-serif" font-size="13" lengthAdjust="spacing" textLength="7" x="763.4842" y="325.2088">1</text></g><!--SRC=[bLJ1JkCm43tNNs6L0qj5jbbf3rk48bM5IfM0HPJbFaqcgTdO2RQ3L27-VUsG3Gv9mSqfohmNltdpniTRhKjrDfsMEGXTyVnxNF2fmgSAHOn1mY2Jm0cvXVWlP4ZNbSnGxkwAWi-pJ6866kaB6LqApVJEBTFpysztfqTXE9ijboVKVDBq3HL5Bw-4Z1OvA6M_yvkARr1IotWuFKh3sQymFA5_13Cgw2f1mqePoYYYXkZmxdSbjgIVDUa1SiFvlNd4MFVm2oWXjZ8FuAmrw4hvCgw12Oq2Z7VhlD1VyumHZWFZ7sCQL6KmgTySCqdRxkUGjiCQ9bcsrNkGJLyrRW3IQsGy6GQsoPYNPM4ut4nhA1bEsJCP3cDrSL0sBipHSv7SC-uT3-Smtud_RqmfbWbC32rD3QlJIRVuvc5jeMi76Rc2tOauA9kKhYFxWFrMF92DDlj4zRkxoMTKeaBvZ8g2SnNOdWOlWSO9ho4_0yjXmt9JyDkOXdZ5OXGAcyNnIWTf5IuAeI7MAv4MaeDcXN06HnrvIoQLlW7_75t1OVXbbUU7u2-vyMkU96OWtbRTRWlnqQXz5CFfUsDpCsc2wmhu4koSRFxyRkQ7IypcXOnQwmQhhL63rJqwWYwg7xREhTR8w0Ih_nUxXmDR7Rn3d7qX_m00]--></g></svg>