<?xml version="1.0" encoding="us-ascii" standalone="no"?><svg xmlns="http://www.w3.org/2000/svg" xmlns:xlink="http://www.w3.org/1999/xlink" contentStyleType="text/css" height="884px" preserveAspectRatio="none" style="width:2463px;height:884px;background:#FFFFFF;" version="1.1" viewBox="0 0 2463 884" width="2463px" zoomAndPan="magnify"><defs/><g><rect fill="#FFFFFF" height="30.3516" style="stroke:#181818;stroke-width:1.0;" width="10" x="345" y="69.9609"/><rect fill="#FFFFFF" height="30.3516" style="stroke:#181818;stroke-width:1.0;" width="10" x="345" y="799.7891"/><rect fill="#FFFFFF" height="76.7969" style="stroke:#181818;stroke-width:1.0;" width="10" x="771" y="100.3125"/><rect fill="#FFFFFF" height="30.3516" style="stroke:#181818;stroke-width:1.0;" width="10" x="771" y="769.4375"/><rect fill="#FFFFFF" height="30.3516" style="stroke:#181818;stroke-width:1.0;" width="10" x="1209" y="177.1094"/><rect fill="#FFFFFF" height="55.7031" style="stroke:#181818;stroke-width:1.0;" width="10" x="1209" y="237.8125"/><rect fill="#FFFFFF" height="93.0547" style="stroke:#181818;stroke-width:1.0;" width="10" x="1209" y="323.8672"/><rect fill="#FFFFFF" height="30.3516" style="stroke:#181818;stroke-width:1.0;" width="10" x="1209" y="447.2734"/><rect fill="#FFFFFF" height="67.7031" style="stroke:#181818;stroke-width:1.0;" width="10" x="1209" y="507.9766"/><rect fill="#FFFFFF" height="30.3516" style="stroke:#181818;stroke-width:1.0;" width="10" x="1209" y="589.6797"/><rect fill="#FFFFFF" height="30.3516" style="stroke:#181818;stroke-width:1.0;" width="10" x="1209" y="634.0313"/><rect fill="#FFFFFF" height="30.3516" style="stroke:#181818;stroke-width:1.0;" width="10" x="1209" y="678.3828"/><rect fill="#FFFFFF" height="30.3516" style="stroke:#181818;stroke-width:1.0;" width="10" x="1209" y="739.0859"/><rect fill="#FFFFFF" height="30.3516" style="stroke:#181818;stroke-width:1.0;" width="10" x="1380" y="207.4609"/><rect fill="#FFFFFF" height="30.3516" style="stroke:#181818;stroke-width:1.0;" width="10" x="1380" y="708.7344"/><rect fill="#FFFFFF" height="30.3516" style="stroke:#181818;stroke-width:1.0;" width="10" x="1555" y="293.5156"/><rect fill="#FFFFFF" height="30.3516" style="stroke:#181818;stroke-width:1.0;" width="10" x="1555" y="477.625"/><rect fill="#FFFFFF" height="14" style="stroke:#181818;stroke-width:1.0;" width="10" x="1696" y="575.6797"/><rect fill="#FFFFFF" height="14" style="stroke:#181818;stroke-width:1.0;" width="10" x="1696" y="620.0313"/><rect fill="#FFFFFF" height="14" style="stroke:#181818;stroke-width:1.0;" width="10" x="1696" y="664.3828"/><rect fill="#FFFFFF" height="30.3516" style="stroke:#181818;stroke-width:1.0;" width="10" x="1907" y="416.9219"/><rect fill="none" height="109.4063" style="stroke:#000000;stroke-width:1.5;" width="520.5" x="1134" y="252.8125"/><rect fill="none" height="170.1094" style="stroke:#000000;stroke-width:1.5;" width="843.5" x="1134" y="376.2188"/><line style="stroke:#181818;stroke-width:0.5;stroke-dasharray:5.0,5.0;" x1="349.5" x2="349.5" y1="37.6094" y2="848.1406"/><line style="stroke:#181818;stroke-width:0.5;stroke-dasharray:5.0,5.0;" x1="775.5" x2="775.5" y1="37.6094" y2="848.1406"/><line style="stroke:#181818;stroke-width:0.5;stroke-dasharray:5.0,5.0;" x1="1214" x2="1214" y1="37.6094" y2="848.1406"/><line style="stroke:#181818;stroke-width:0.5;stroke-dasharray:5.0,5.0;" x1="1384.5" x2="1384.5" y1="37.6094" y2="848.1406"/><line style="stroke:#181818;stroke-width:0.5;stroke-dasharray:5.0,5.0;" x1="1559.5" x2="1559.5" y1="37.6094" y2="848.1406"/><line style="stroke:#181818;stroke-width:0.5;stroke-dasharray:5.0,5.0;" x1="1700.5" x2="1700.5" y1="37.6094" y2="848.1406"/><line style="stroke:#181818;stroke-width:0.5;stroke-dasharray:5.0,5.0;" x1="1801.5" x2="1801.5" y1="37.6094" y2="848.1406"/><line style="stroke:#181818;stroke-width:0.5;stroke-dasharray:5.0,5.0;" x1="1911.5" x2="1911.5" y1="37.6094" y2="848.1406"/><line style="stroke:#181818;stroke-width:0.5;stroke-dasharray:5.0,5.0;" x1="2033.5" x2="2033.5" y1="37.6094" y2="848.1406"/><line style="stroke:#181818;stroke-width:0.5;stroke-dasharray:5.0,5.0;" x1="2184.5" x2="2184.5" y1="37.6094" y2="848.1406"/><line style="stroke:#181818;stroke-width:0.5;stroke-dasharray:5.0,5.0;" x1="2367.5" x2="2367.5" y1="37.6094" y2="848.1406"/><rect fill="#E2E2F0" height="31.6094" rx="2.5" ry="2.5" style="stroke:#181818;stroke-width:0.5;" width="63" x="318.5" y="5"/><text fill="#000000" font-family="sans-serif" font-size="14" lengthAdjust="spacing" textLength="49" x="325.5" y="26.5332">Routing</text><rect fill="#E2E2F0" height="31.6094" rx="2.5" ry="2.5" style="stroke:#181818;stroke-width:0.5;" width="63" x="318.5" y="847.1406"/><text fill="#000000" font-family="sans-serif" font-size="14" lengthAdjust="spacing" textLength="49" x="325.5" y="868.6738">Routing</text><rect fill="#E2E2F0" height="31.6094" rx="2.5" ry="2.5" style="stroke:#181818;stroke-width:0.5;" width="155" x="698.5" y="5"/><text fill="#000000" font-family="sans-serif" font-size="14" lengthAdjust="spacing" textLength="141" x="705.5" y="26.5332">AppointmentController</text><rect fill="#E2E2F0" height="31.6094" rx="2.5" ry="2.5" style="stroke:#181818;stroke-width:0.5;" width="155" x="698.5" y="847.1406"/><text fill="#000000" font-family="sans-serif" font-size="14" lengthAdjust="spacing" textLength="141" x="705.5" y="868.6738">AppointmentController</text><rect fill="#E2E2F0" height="31.6094" rx="2.5" ry="2.5" style="stroke:#181818;stroke-width:0.5;" width="140" x="1144" y="5"/><text fill="#000000" font-family="sans-serif" font-size="14" lengthAdjust="spacing" textLength="126" x="1151" y="26.5332">AppointmentService</text><rect fill="#E2E2F0" height="31.6094" rx="2.5" ry="2.5" style="stroke:#181818;stroke-width:0.5;" width="140" x="1144" y="847.1406"/><text fill="#000000" font-family="sans-serif" font-size="14" lengthAdjust="spacing" textLength="126" x="1151" y="868.6738">AppointmentService</text><rect fill="#E2E2F0" height="31.6094" rx="2.5" ry="2.5" style="stroke:#181818;stroke-width:0.5;" width="161" x="1304.5" y="5"/><text fill="#000000" font-family="sans-serif" font-size="14" lengthAdjust="spacing" textLength="147" x="1311.5" y="26.5332">AppointmentRepository</text><rect fill="#E2E2F0" height="31.6094" rx="2.5" ry="2.5" style="stroke:#181818;stroke-width:0.5;" width="161" x="1304.5" y="847.1406"/><text fill="#000000" font-family="sans-serif" font-size="14" lengthAdjust="spacing" textLength="147" x="1311.5" y="868.6738">AppointmentRepository</text><rect fill="#E2E2F0" height="31.6094" rx="2.5" ry="2.5" style="stroke:#181818;stroke-width:0.5;" width="169" x="1475.5" y="5"/><text fill="#000000" font-family="sans-serif" font-size="14" lengthAdjust="spacing" textLength="155" x="1482.5" y="26.5332">AssignedStaffRepository</text><rect fill="#E2E2F0" height="31.6094" rx="2.5" ry="2.5" style="stroke:#181818;stroke-width:0.5;" width="169" x="1475.5" y="847.1406"/><text fill="#000000" font-family="sans-serif" font-size="14" lengthAdjust="spacing" textLength="155" x="1482.5" y="868.6738">AssignedStaffRepository</text><rect fill="#E2E2F0" height="31.6094" rx="2.5" ry="2.5" style="stroke:#181818;stroke-width:0.5;" width="93" x="1654.5" y="5"/><text fill="#000000" font-family="sans-serif" font-size="14" lengthAdjust="spacing" textLength="79" x="1661.5" y="26.5332">Appointment</text><rect fill="#E2E2F0" height="31.6094" rx="2.5" ry="2.5" style="stroke:#181818;stroke-width:0.5;" width="93" x="1654.5" y="847.1406"/><text fill="#000000" font-family="sans-serif" font-size="14" lengthAdjust="spacing" textLength="79" x="1661.5" y="868.6738">Appointment</text><rect fill="#E2E2F0" height="31.6094" rx="2.5" ry="2.5" style="stroke:#181818;stroke-width:0.5;" width="89" x="1757.5" y="5"/><text fill="#000000" font-family="sans-serif" font-size="14" lengthAdjust="spacing" textLength="75" x="1764.5" y="26.5332">LogsBuilder</text><rect fill="#E2E2F0" height="31.6094" rx="2.5" ry="2.5" style="stroke:#181818;stroke-width:0.5;" width="89" x="1757.5" y="847.1406"/><text fill="#000000" font-family="sans-serif" font-size="14" lengthAdjust="spacing" textLength="75" x="1764.5" y="868.6738">LogsBuilder</text><rect fill="#E2E2F0" height="31.6094" rx="2.5" ry="2.5" style="stroke:#181818;stroke-width:0.5;" width="111" x="1856.5" y="5"/><text fill="#000000" font-family="sans-serif" font-size="14" lengthAdjust="spacing" textLength="97" x="1863.5" y="26.5332">StaffRepository</text><rect fill="#E2E2F0" height="31.6094" rx="2.5" ry="2.5" style="stroke:#181818;stroke-width:0.5;" width="111" x="1856.5" y="847.1406"/><text fill="#000000" font-family="sans-serif" font-size="14" lengthAdjust="spacing" textLength="97" x="1863.5" y="868.6738">StaffRepository</text><rect fill="#E2E2F0" height="31.6094" rx="2.5" ry="2.5" style="stroke:#181818;stroke-width:0.5;" width="113" x="1977.5" y="5"/><text fill="#000000" font-family="sans-serif" font-size="14" lengthAdjust="spacing" textLength="99" x="1984.5" y="26.5332">LogsRepository</text><rect fill="#E2E2F0" height="31.6094" rx="2.5" ry="2.5" style="stroke:#181818;stroke-width:0.5;" width="113" x="1977.5" y="847.1406"/><text fill="#000000" font-family="sans-serif" font-size="14" lengthAdjust="spacing" textLength="99" x="1984.5" y="868.6738">LogsRepository</text><rect fill="#E2E2F0" height="31.6094" rx="2.5" ry="2.5" style="stroke:#181818;stroke-width:0.5;" width="168" x="2100.5" y="5"/><text fill="#000000" font-family="sans-serif" font-size="14" lengthAdjust="spacing" textLength="154" x="2107.5" y="26.5332">SpecializationRepository</text><rect fill="#E2E2F0" height="31.6094" rx="2.5" ry="2.5" style="stroke:#181818;stroke-width:0.5;" width="168" x="2100.5" y="847.1406"/><text fill="#000000" font-family="sans-serif" font-size="14" lengthAdjust="spacing" textLength="154" x="2107.5" y="868.6738">SpecializationRepository</text><rect fill="#E2E2F0" height="31.6094" rx="2.5" ry="2.5" style="stroke:#181818;stroke-width:0.5;" width="179" x="2278.5" y="5"/><text fill="#000000" font-family="sans-serif" font-size="14" lengthAdjust="spacing" textLength="165" x="2285.5" y="26.5332">AvailabilitySlotsRepository</text><rect fill="#E2E2F0" height="31.6094" rx="2.5" ry="2.5" style="stroke:#181818;stroke-width:0.5;" width="179" x="2278.5" y="847.1406"/><text fill="#000000" font-family="sans-serif" font-size="14" lengthAdjust="spacing" textLength="165" x="2285.5" y="868.6738">AvailabilitySlotsRepository</text><rect fill="#FFFFFF" height="30.3516" style="stroke:#181818;stroke-width:1.0;" width="10" x="345" y="69.9609"/><rect fill="#FFFFFF" height="30.3516" style="stroke:#181818;stroke-width:1.0;" width="10" x="345" y="799.7891"/><rect fill="#FFFFFF" height="76.7969" style="stroke:#181818;stroke-width:1.0;" width="10" x="771" y="100.3125"/><rect fill="#FFFFFF" height="30.3516" style="stroke:#181818;stroke-width:1.0;" width="10" x="771" y="769.4375"/><rect fill="#FFFFFF" height="30.3516" style="stroke:#181818;stroke-width:1.0;" width="10" x="1209" y="177.1094"/><rect fill="#FFFFFF" height="55.7031" style="stroke:#181818;stroke-width:1.0;" width="10" x="1209" y="237.8125"/><rect fill="#FFFFFF" height="93.0547" style="stroke:#181818;stroke-width:1.0;" width="10" x="1209" y="323.8672"/><rect fill="#FFFFFF" height="30.3516" style="stroke:#181818;stroke-width:1.0;" width="10" x="1209" y="447.2734"/><rect fill="#FFFFFF" height="67.7031" style="stroke:#181818;stroke-width:1.0;" width="10" x="1209" y="507.9766"/><rect fill="#FFFFFF" height="30.3516" style="stroke:#181818;stroke-width:1.0;" width="10" x="1209" y="589.6797"/><rect fill="#FFFFFF" height="30.3516" style="stroke:#181818;stroke-width:1.0;" width="10" x="1209" y="634.0313"/><rect fill="#FFFFFF" height="30.3516" style="stroke:#181818;stroke-width:1.0;" width="10" x="1209" y="678.3828"/><rect fill="#FFFFFF" height="30.3516" style="stroke:#181818;stroke-width:1.0;" width="10" x="1209" y="739.0859"/><rect fill="#FFFFFF" height="30.3516" style="stroke:#181818;stroke-width:1.0;" width="10" x="1380" y="207.4609"/><rect fill="#FFFFFF" height="30.3516" style="stroke:#181818;stroke-width:1.0;" width="10" x="1380" y="708.7344"/><rect fill="#FFFFFF" height="30.3516" style="stroke:#181818;stroke-width:1.0;" width="10" x="1555" y="293.5156"/><rect fill="#FFFFFF" height="30.3516" style="stroke:#181818;stroke-width:1.0;" width="10" x="1555" y="477.625"/><rect fill="#FFFFFF" height="14" style="stroke:#181818;stroke-width:1.0;" width="10" x="1696" y="575.6797"/><rect fill="#FFFFFF" height="14" style="stroke:#181818;stroke-width:1.0;" width="10" x="1696" y="620.0313"/><rect fill="#FFFFFF" height="14" style="stroke:#181818;stroke-width:1.0;" width="10" x="1696" y="664.3828"/><rect fill="#FFFFFF" height="30.3516" style="stroke:#181818;stroke-width:1.0;" width="10" x="1907" y="416.9219"/><polygon fill="#181818" points="333,65.9609,343,69.9609,333,73.9609,337,69.9609" style="stroke:#181818;stroke-width:1.0;"/><line style="stroke:#181818;stroke-width:1.0;" x1="0" x2="339" y1="69.9609" y2="69.9609"/><text fill="#000000" font-family="sans-serif" font-size="13" lengthAdjust="spacing" textLength="326" x="7" y="65.1045">PATCH(ID, dateAndTime, staffIDs, operationRoom, auth)</text><polygon fill="#181818" points="759,96.3125,769,100.3125,759,104.3125,763,100.3125" style="stroke:#181818;stroke-width:1.0;"/><line style="stroke:#181818;stroke-width:1.0;" x1="350" x2="765" y1="100.3125" y2="100.3125"/><text fill="#000000" font-family="sans-serif" font-size="13" lengthAdjust="spacing" textLength="397" x="357" y="95.4561">UpdateAppointment(ID, dateAndTime, staffIDs, operationRoom, auth)</text><rect fill="none" height="41.4453" style="stroke:#000000;stroke-width:1.5;" width="161" x="695.5" y="108.3125"/><path d="M695.5,108.3125 L757.5,108.3125 L757.5,116.3125 L747.5,126.3125 L695.5,126.3125 L695.5,108.3125 " fill="#EEEEEE" style="stroke:#000000;stroke-width:2.0;"/><text fill="#000000" font-family="sans-serif" font-size="13" font-weight="bold" lengthAdjust="spacing" textLength="17" x="708.5" y="123.8076">ref</text><text fill="#000000" font-family="sans-serif" font-size="12" lengthAdjust="spacing" textLength="134" x="709" y="142.7695">Refer to generic auth SD</text><polygon fill="#181818" points="1197,173.1094,1207,177.1094,1197,181.1094,1201,177.1094" style="stroke:#181818;stroke-width:1.0;"/><line style="stroke:#181818;stroke-width:1.0;" x1="776" x2="1203" y1="177.1094" y2="177.1094"/><text fill="#000000" font-family="sans-serif" font-size="13" lengthAdjust="spacing" textLength="409" x="783" y="172.2529">UpdateSurgeryAppointment(ID, dateAndTime, staffIDs, operationRoom)</text><polygon fill="#181818" points="1368,203.4609,1378,207.4609,1368,211.4609,1372,207.4609" style="stroke:#181818;stroke-width:1.0;"/><line style="stroke:#181818;stroke-width:1.0;" x1="1214" x2="1374" y1="207.4609" y2="207.4609"/><text fill="#000000" font-family="sans-serif" font-size="13" lengthAdjust="spacing" textLength="142" x="1221" y="202.6045">GetAppointmentByID(ID)</text><polygon fill="#181818" points="1230,233.8125,1220,237.8125,1230,241.8125,1226,237.8125" style="stroke:#181818;stroke-width:1.0;"/><line style="stroke:#181818;stroke-width:1.0;stroke-dasharray:2.0,2.0;" x1="1224" x2="1384" y1="237.8125" y2="237.8125"/><text fill="#000000" font-family="sans-serif" font-size="13" lengthAdjust="spacing" textLength="71" x="1236" y="232.9561">appointment</text><path d="M1134,252.8125 L1207,252.8125 L1207,261.1641 L1197,271.1641 L1134,271.1641 L1134,252.8125 " fill="#EEEEEE" style="stroke:#000000;stroke-width:1.5;"/><rect fill="none" height="109.4063" style="stroke:#000000;stroke-width:1.5;" width="520.5" x="1134" y="252.8125"/><text fill="#000000" font-family="sans-serif" font-size="13" font-weight="bold" lengthAdjust="spacing" textLength="28" x="1149" y="267.3076">loop</text><text fill="#000000" font-family="sans-serif" font-size="11" font-weight="bold" lengthAdjust="spacing" textLength="135" x="1222" y="266.2314">[for each assigned staff]</text><polygon fill="#181818" points="1543,289.5156,1553,293.5156,1543,297.5156,1547,293.5156" style="stroke:#181818;stroke-width:1.0;"/><line style="stroke:#181818;stroke-width:1.0;" x1="1214" x2="1549" y1="293.5156" y2="293.5156"/><text fill="#000000" font-family="sans-serif" font-size="13" lengthAdjust="spacing" textLength="184" x="1221" y="288.6592">GetByIDAsync(assignedStaffID)</text><polygon fill="#181818" points="1230,319.8672,1220,323.8672,1230,327.8672,1226,323.8672" style="stroke:#181818;stroke-width:1.0;"/><line style="stroke:#181818;stroke-width:1.0;" x1="1224" x2="1559" y1="323.8672" y2="323.8672"/><text fill="#000000" font-family="sans-serif" font-size="13" lengthAdjust="spacing" textLength="78" x="1236" y="319.0107">assignedStaff</text><polygon fill="#181818" points="1548,350.2188,1558,354.2188,1548,358.2188,1552,354.2188" style="stroke:#181818;stroke-width:1.0;"/><line style="stroke:#181818;stroke-width:1.0;" x1="1219" x2="1554" y1="354.2188" y2="354.2188"/><text fill="#000000" font-family="sans-serif" font-size="13" lengthAdjust="spacing" textLength="132" x="1226" y="349.3623">Remove(assignedStaff)</text><path d="M1134,376.2188 L1207,376.2188 L1207,384.5703 L1197,394.5703 L1134,394.5703 L1134,376.2188 " fill="#EEEEEE" style="stroke:#000000;stroke-width:1.5;"/><rect fill="none" height="170.1094" style="stroke:#000000;stroke-width:1.5;" width="843.5" x="1134" y="376.2188"/><text fill="#000000" font-family="sans-serif" font-size="13" font-weight="bold" lengthAdjust="spacing" textLength="28" x="1149" y="390.7139">loop</text><text fill="#000000" font-family="sans-serif" font-size="11" font-weight="bold" lengthAdjust="spacing" textLength="149" x="1222" y="389.6377">[for each staffID in staffIDs]</text><polygon fill="#181818" points="1895,412.9219,1905,416.9219,1895,420.9219,1899,416.9219" style="stroke:#181818;stroke-width:1.0;"/><line style="stroke:#181818;stroke-width:1.0;" x1="1214" x2="1901" y1="416.9219" y2="416.9219"/><text fill="#000000" font-family="sans-serif" font-size="13" lengthAdjust="spacing" textLength="152" x="1221" y="412.0654">GetStaffByLicense(staffID)</text><polygon fill="#181818" points="1230,443.2734,1220,447.2734,1230,451.2734,1226,447.2734" style="stroke:#181818;stroke-width:1.0;"/><line style="stroke:#181818;stroke-width:1.0;" x1="1224" x2="1911" y1="447.2734" y2="447.2734"/><text fill="#000000" font-family="sans-serif" font-size="13" lengthAdjust="spacing" textLength="24" x="1236" y="442.417">staff</text><polygon fill="#181818" points="1543,473.625,1553,477.625,1543,481.625,1547,477.625" style="stroke:#181818;stroke-width:1.0;"/><line style="stroke:#181818;stroke-width:1.0;" x1="1214" x2="1549" y1="477.625" y2="477.625"/><text fill="#000000" font-family="sans-serif" font-size="13" lengthAdjust="spacing" textLength="134" x="1221" y="472.7686">Add(staff, appointment)</text><polygon fill="#181818" points="1230,503.9766,1220,507.9766,1230,511.9766,1226,507.9766" style="stroke:#181818;stroke-width:1.0;"/><line style="stroke:#181818;stroke-width:1.0;" x1="1224" x2="1559" y1="507.9766" y2="507.9766"/><text fill="#000000" font-family="sans-serif" font-size="13" lengthAdjust="spacing" textLength="24" x="1236" y="503.1201">staff</text><polygon fill="#181818" points="1548,534.3281,1558,538.3281,1548,542.3281,1552,538.3281" style="stroke:#181818;stroke-width:1.0;"/><line style="stroke:#181818;stroke-width:1.0;" x1="1219" x2="1554" y1="538.3281" y2="538.3281"/><text fill="#000000" font-family="sans-serif" font-size="13" lengthAdjust="spacing" textLength="78" x="1226" y="533.4717">Remove(staff)</text><polygon fill="#181818" points="1684,571.6797,1694,575.6797,1684,579.6797,1688,575.6797" style="stroke:#181818;stroke-width:1.0;"/><line style="stroke:#181818;stroke-width:1.0;" x1="1214" x2="1690" y1="575.6797" y2="575.6797"/><text fill="#000000" font-family="sans-serif" font-size="13" lengthAdjust="spacing" textLength="108" x="1221" y="570.8232">ChangeTeam(staff)</text><polygon fill="#181818" points="1230,585.6797,1220,589.6797,1230,593.6797,1226,589.6797" style="stroke:#181818;stroke-width:1.0;"/><line style="stroke:#181818;stroke-width:1.0;stroke-dasharray:2.0,2.0;" x1="1224" x2="1700" y1="589.6797" y2="589.6797"/><polygon fill="#181818" points="1684,616.0313,1694,620.0313,1684,624.0313,1688,620.0313" style="stroke:#181818;stroke-width:1.0;"/><line style="stroke:#181818;stroke-width:1.0;" x1="1214" x2="1690" y1="620.0313" y2="620.0313"/><text fill="#000000" font-family="sans-serif" font-size="13" lengthAdjust="spacing" textLength="155" x="1221" y="615.1748">ChangeDate(dateAndTime)</text><polygon fill="#181818" points="1230,630.0313,1220,634.0313,1230,638.0313,1226,634.0313" style="stroke:#181818;stroke-width:1.0;"/><line style="stroke:#181818;stroke-width:1.0;stroke-dasharray:2.0,2.0;" x1="1224" x2="1700" y1="634.0313" y2="634.0313"/><polygon fill="#181818" points="1684,660.3828,1694,664.3828,1684,668.3828,1688,664.3828" style="stroke:#181818;stroke-width:1.0;"/><line style="stroke:#181818;stroke-width:1.0;" x1="1214" x2="1690" y1="664.3828" y2="664.3828"/><text fill="#000000" font-family="sans-serif" font-size="13" lengthAdjust="spacing" textLength="173" x="1221" y="659.5264">ChangeRoom(operationRoom)</text><polygon fill="#181818" points="1230,674.3828,1220,678.3828,1230,682.3828,1226,678.3828" style="stroke:#181818;stroke-width:1.0;"/><line style="stroke:#181818;stroke-width:1.0;stroke-dasharray:2.0,2.0;" x1="1224" x2="1700" y1="678.3828" y2="678.3828"/><polygon fill="#181818" points="1368,704.7344,1378,708.7344,1368,712.7344,1372,708.7344" style="stroke:#181818;stroke-width:1.0;"/><line style="stroke:#181818;stroke-width:1.0;" x1="1214" x2="1374" y1="708.7344" y2="708.7344"/><text fill="#000000" font-family="sans-serif" font-size="13" lengthAdjust="spacing" textLength="120" x="1221" y="703.8779">Update(appointment)</text><polygon fill="#181818" points="1230,735.0859,1220,739.0859,1230,743.0859,1226,739.0859" style="stroke:#181818;stroke-width:1.0;"/><line style="stroke:#181818;stroke-width:1.0;stroke-dasharray:2.0,2.0;" x1="1224" x2="1384" y1="739.0859" y2="739.0859"/><text fill="#000000" font-family="sans-serif" font-size="13" lengthAdjust="spacing" textLength="71" x="1236" y="734.2295">appointment</text><polygon fill="#181818" points="792,765.4375,782,769.4375,792,773.4375,788,769.4375" style="stroke:#181818;stroke-width:1.0;"/><line style="stroke:#181818;stroke-width:1.0;stroke-dasharray:2.0,2.0;" x1="786" x2="1213" y1="769.4375" y2="769.4375"/><text fill="#000000" font-family="sans-serif" font-size="13" lengthAdjust="spacing" textLength="91" x="798" y="764.5811">appointmentDto</text><polygon fill="#181818" points="366,795.7891,356,799.7891,366,803.7891,362,799.7891" style="stroke:#181818;stroke-width:1.0;"/><line style="stroke:#181818;stroke-width:1.0;stroke-dasharray:2.0,2.0;" x1="360" x2="775" y1="799.7891" y2="799.7891"/><text fill="#000000" font-family="sans-serif" font-size="13" lengthAdjust="spacing" textLength="91" x="372" y="794.9326">appointmentDto</text><polygon fill="#181818" points="11,826.1406,1,830.1406,11,834.1406,7,830.1406" style="stroke:#181818;stroke-width:1.0;"/><line style="stroke:#181818;stroke-width:1.0;stroke-dasharray:2.0,2.0;" x1="5" x2="349" y1="830.1406" y2="830.1406"/><text fill="#000000" font-family="sans-serif" font-size="13" lengthAdjust="spacing" textLength="91" x="17" y="825.2842">appointmentDto</text><!--SRC=[lLNRRfmm47t6N-578h4_45MLs2LjLehK2hPzTs6MjUIrBTkBHB- -1dEn8IHDrUGDncVEdF5SB8aojAIIS8DpSJEKrvXehEmd8EaTfb8AoiqLk3a8RfHW35G7BOrYMyW2L4DBw614IbCqvHOo1oaqDKAr8xYpX6YjQSsXAWmvdnVuuMZjCqSOUOFp9r7h_Oso2bHWVoQ67aqhWX371al89w6aXD7Vn5315yJsR2sy8PIHNvHHqnPCc4KGqX3M-w3TPrSiV8-_fwV3OtpC4bmH0oclJlGAYHD-p7I2XGJb10XnJJ2vcSiT8gMXZSKFDNTabhMhgoNz8Nko-HxV7A22HOZfjsyTb3zymTz-FkJkDuUpxIiZS0qS52rx4bna27Y55PmHweLPWKD7JHgBcwf1jVyYDH3PovZ-nhv5OxWXSdVxDlHNC5x0VNlCRD20RYG83Avs4yykI8VCX4kYtc-jZGaXyLaeRD6NQHfSjYZobNk3ujHtabFTyZ8c_dnrIKJFP17D5d_chDrd3jFnUKDIdo9Qf_M2yXokee5GyrtN8ylB62gEAP-A7_1EO-skeoVQjqzsQt4DiVwxkvXt0ufcmk0Mz2hxsUbjgQTLvNGbVgVyjtBfToYJzigpc2CBEbm8h-44v3e2rvdWiEiTZJytIn_y-WXFeJEBYhqzyU42kXqKRs-aTvGmrCbjq3Zefm_UOPEm-UtnI38ZNXJadXBtD7XFOiY0jzUySq3eqswtuRn-n_u0]--></g></svg>