<?xml version="1.0" encoding="us-ascii" standalone="no"?><svg xmlns="http://www.w3.org/2000/svg" xmlns:xlink="http://www.w3.org/1999/xlink" contentStyleType="text/css" height="1340px" preserveAspectRatio="none" style="width:1601px;height:1340px;background:#FFFFFF;" version="1.1" viewBox="0 0 1601 1340" width="1601px" zoomAndPan="magnify"><defs/><g><rect fill="#FFFFFF" height="30.3516" style="stroke:#181818;stroke-width:1.0;" width="10" x="170" y="69.9609"/><rect fill="#FFFFFF" height="30.3516" style="stroke:#181818;stroke-width:1.0;" width="10" x="170" y="1256.0313"/><rect fill="#FFFFFF" height="76.7969" style="stroke:#181818;stroke-width:1.0;" width="10" x="382" y="100.3125"/><rect fill="#FFFFFF" height="30.3516" style="stroke:#181818;stroke-width:1.0;" width="10" x="382" y="268.1641"/><rect fill="#FFFFFF" height="109.1484" style="stroke:#181818;stroke-width:1.0;" width="10" x="382" y="1146.8828"/><rect fill="#FFFFFF" height="30.3516" style="stroke:#181818;stroke-width:1.0;" width="10" x="589" y="177.1094"/><rect fill="#FFFFFF" height="30.3516" style="stroke:#181818;stroke-width:1.0;" width="10" x="589" y="237.8125"/><rect fill="#FFFFFF" height="30.3516" style="stroke:#181818;stroke-width:1.0;" width="10" x="589" y="298.5156"/><rect fill="#FFFFFF" height="98.3125" style="stroke:#181818;stroke-width:1.0;" width="10" x="589" y="359.2188"/><rect fill="#FFFFFF" height="30.3516" style="stroke:#181818;stroke-width:1.0;" width="10" x="589" y="487.8828"/><rect fill="#FFFFFF" height="46.1875" style="stroke:#181818;stroke-width:1.0;" width="10" x="589" y="548.5859"/><rect fill="#FFFFFF" height="30.3516" style="stroke:#181818;stroke-width:1.0;" width="10" x="589" y="625.125"/><rect fill="#FFFFFF" height="30.3516" style="stroke:#181818;stroke-width:1.0;" width="10" x="589" y="685.8281"/><rect fill="#FFFFFF" height="100.0547" style="stroke:#181818;stroke-width:1.0;" width="10" x="589" y="746.5313"/><rect fill="#FFFFFF" height="55.7031" style="stroke:#181818;stroke-width:1.0;" width="10" x="589" y="876.9375"/><rect fill="#FFFFFF" height="30.3516" style="stroke:#181818;stroke-width:1.0;" width="10" x="589" y="946.6406"/><rect fill="#FFFFFF" height="46.1875" style="stroke:#181818;stroke-width:1.0;" width="10" x="589" y="990.9922"/><rect fill="#FFFFFF" height="51.3516" style="stroke:#181818;stroke-width:1.0;" width="10" x="589" y="1051.1797"/><rect fill="#FFFFFF" height="30.3516" style="stroke:#181818;stroke-width:1.0;" width="10" x="589" y="1116.5313"/><rect fill="#FFFFFF" height="14" style="stroke:#181818;stroke-width:1.0;" width="10" x="828" y="776.8828"/><rect fill="#FFFFFF" height="14" style="stroke:#181818;stroke-width:1.0;" width="10" x="828" y="976.9922"/><rect fill="#FFFFFF" height="14" style="stroke:#181818;stroke-width:1.0;" width="10" x="828" y="1037.1797"/><rect fill="#FFFFFF" height="30.3516" style="stroke:#181818;stroke-width:1.0;" width="10" x="904" y="457.5313"/><rect fill="#FFFFFF" height="30.3516" style="stroke:#181818;stroke-width:1.0;" width="10" x="904" y="594.7734"/><rect fill="#FFFFFF" height="30.3516" style="stroke:#181818;stroke-width:1.0;" width="10" x="1014" y="207.4609"/><rect fill="#FFFFFF" height="30.3516" style="stroke:#181818;stroke-width:1.0;" width="10" x="1014" y="328.8672"/><rect fill="#FFFFFF" height="14" style="stroke:#181818;stroke-width:1.0;" width="10" x="1014" y="1102.5313"/><rect fill="#FFFFFF" height="30.3516" style="stroke:#181818;stroke-width:1.0;" width="10" x="1136" y="518.2344"/><rect fill="#FFFFFF" height="30.3516" style="stroke:#181818;stroke-width:1.0;" width="10" x="1136" y="655.4766"/><rect fill="#FFFFFF" height="30.3516" style="stroke:#181818;stroke-width:1.0;" width="10" x="1286.5" y="716.1797"/><rect fill="#FFFFFF" height="30.3516" style="stroke:#181818;stroke-width:1.0;" width="10" x="1470" y="846.5859"/><rect fill="#FFFFFF" height="14" style="stroke:#181818;stroke-width:1.0;" width="10" x="1470" y="932.6406"/><rect fill="none" height="656.3516" style="stroke:#000000;stroke-width:1.5;" width="1075.5" x="519" y="416.8281"/><rect fill="none" height="260.2969" style="stroke:#000000;stroke-width:1.5;" width="1055.5" x="529" y="805.8828"/><rect fill="none" height="167.2422" style="stroke:#000000;stroke-width:1.5;" width="1035.5" x="539" y="891.9375"/><rect fill="none" height="64.7969" style="stroke:#000000;stroke-width:1.5;" width="238" x="324.5" y="1161.8828"/><line style="stroke:#181818;stroke-width:0.5;stroke-dasharray:5.0,5.0;" x1="174.5" x2="174.5" y1="37.6094" y2="1304.3828"/><line style="stroke:#181818;stroke-width:0.5;stroke-dasharray:5.0,5.0;" x1="386.5" x2="386.5" y1="37.6094" y2="1304.3828"/><line style="stroke:#181818;stroke-width:0.5;stroke-dasharray:5.0,5.0;" x1="594" x2="594" y1="37.6094" y2="1304.3828"/><line style="stroke:#181818;stroke-width:0.5;stroke-dasharray:5.0,5.0;" x1="832.5" x2="832.5" y1="37.6094" y2="1304.3828"/><line style="stroke:#181818;stroke-width:0.5;stroke-dasharray:5.0,5.0;" x1="908.5" x2="908.5" y1="398.5234" y2="1304.3828"/><line style="stroke:#181818;stroke-width:0.5;stroke-dasharray:5.0,5.0;" x1="1018.5" x2="1018.5" y1="37.6094" y2="1304.3828"/><line style="stroke:#181818;stroke-width:0.5;stroke-dasharray:5.0,5.0;" x1="1140.5" x2="1140.5" y1="37.6094" y2="1304.3828"/><line style="stroke:#181818;stroke-width:0.5;stroke-dasharray:5.0,5.0;" x1="1291.5" x2="1291.5" y1="37.6094" y2="1304.3828"/><line style="stroke:#181818;stroke-width:0.5;stroke-dasharray:5.0,5.0;" x1="1474.5" x2="1474.5" y1="37.6094" y2="1304.3828"/><rect fill="#E2E2F0" height="31.6094" rx="2.5" ry="2.5" style="stroke:#181818;stroke-width:0.5;" width="63" x="143.5" y="5"/><text fill="#000000" font-family="sans-serif" font-size="14" lengthAdjust="spacing" textLength="49" x="150.5" y="26.5332">Routing</text><rect fill="#E2E2F0" height="31.6094" rx="2.5" ry="2.5" style="stroke:#181818;stroke-width:0.5;" width="63" x="143.5" y="1303.3828"/><text fill="#000000" font-family="sans-serif" font-size="14" lengthAdjust="spacing" textLength="49" x="150.5" y="1324.916">Routing</text><rect fill="#E2E2F0" height="31.6094" rx="2.5" ry="2.5" style="stroke:#181818;stroke-width:0.5;" width="105" x="334.5" y="5"/><text fill="#000000" font-family="sans-serif" font-size="14" lengthAdjust="spacing" textLength="91" x="341.5" y="26.5332">StaffController</text><rect fill="#E2E2F0" height="31.6094" rx="2.5" ry="2.5" style="stroke:#181818;stroke-width:0.5;" width="105" x="334.5" y="1303.3828"/><text fill="#000000" font-family="sans-serif" font-size="14" lengthAdjust="spacing" textLength="91" x="341.5" y="1324.916">StaffController</text><rect fill="#E2E2F0" height="31.6094" rx="2.5" ry="2.5" style="stroke:#181818;stroke-width:0.5;" width="90" x="549" y="5"/><text fill="#000000" font-family="sans-serif" font-size="14" lengthAdjust="spacing" textLength="76" x="556" y="26.5332">StaffService</text><rect fill="#E2E2F0" height="31.6094" rx="2.5" ry="2.5" style="stroke:#181818;stroke-width:0.5;" width="90" x="549" y="1303.3828"/><text fill="#000000" font-family="sans-serif" font-size="14" lengthAdjust="spacing" textLength="76" x="556" y="1324.916">StaffService</text><rect fill="#E2E2F0" height="31.6094" rx="2.5" ry="2.5" style="stroke:#181818;stroke-width:0.5;" width="43" x="811.5" y="5"/><text fill="#000000" font-family="sans-serif" font-size="14" lengthAdjust="spacing" textLength="29" x="818.5" y="26.5332">Staff</text><rect fill="#E2E2F0" height="31.6094" rx="2.5" ry="2.5" style="stroke:#181818;stroke-width:0.5;" width="43" x="811.5" y="1303.3828"/><text fill="#000000" font-family="sans-serif" font-size="14" lengthAdjust="spacing" textLength="29" x="818.5" y="1324.916">Staff</text><rect fill="#E2E2F0" height="31.6094" rx="2.5" ry="2.5" style="stroke:#181818;stroke-width:0.5;" width="89" x="864.5" y="1303.3828"/><text fill="#000000" font-family="sans-serif" font-size="14" lengthAdjust="spacing" textLength="75" x="871.5" y="1324.916">LogsBuilder</text><rect fill="#E2E2F0" height="31.6094" rx="2.5" ry="2.5" style="stroke:#181818;stroke-width:0.5;" width="111" x="963.5" y="5"/><text fill="#000000" font-family="sans-serif" font-size="14" lengthAdjust="spacing" textLength="97" x="970.5" y="26.5332">StaffRepository</text><rect fill="#E2E2F0" height="31.6094" rx="2.5" ry="2.5" style="stroke:#181818;stroke-width:0.5;" width="111" x="963.5" y="1303.3828"/><text fill="#000000" font-family="sans-serif" font-size="14" lengthAdjust="spacing" textLength="97" x="970.5" y="1324.916">StaffRepository</text><rect fill="#E2E2F0" height="31.6094" rx="2.5" ry="2.5" style="stroke:#181818;stroke-width:0.5;" width="113" x="1084.5" y="5"/><text fill="#000000" font-family="sans-serif" font-size="14" lengthAdjust="spacing" textLength="99" x="1091.5" y="26.5332">LogsRepository</text><rect fill="#E2E2F0" height="31.6094" rx="2.5" ry="2.5" style="stroke:#181818;stroke-width:0.5;" width="113" x="1084.5" y="1303.3828"/><text fill="#000000" font-family="sans-serif" font-size="14" lengthAdjust="spacing" textLength="99" x="1091.5" y="1324.916">LogsRepository</text><rect fill="#E2E2F0" height="31.6094" rx="2.5" ry="2.5" style="stroke:#181818;stroke-width:0.5;" width="168" x="1207.5" y="5"/><text fill="#000000" font-family="sans-serif" font-size="14" lengthAdjust="spacing" textLength="154" x="1214.5" y="26.5332">SpecializationRepository</text><rect fill="#E2E2F0" height="31.6094" rx="2.5" ry="2.5" style="stroke:#181818;stroke-width:0.5;" width="168" x="1207.5" y="1303.3828"/><text fill="#000000" font-family="sans-serif" font-size="14" lengthAdjust="spacing" textLength="154" x="1214.5" y="1324.916">SpecializationRepository</text><rect fill="#E2E2F0" height="31.6094" rx="2.5" ry="2.5" style="stroke:#181818;stroke-width:0.5;" width="179" x="1385.5" y="5"/><text fill="#000000" font-family="sans-serif" font-size="14" lengthAdjust="spacing" textLength="165" x="1392.5" y="26.5332">AvailabilitySlotsRepository</text><rect fill="#E2E2F0" height="31.6094" rx="2.5" ry="2.5" style="stroke:#181818;stroke-width:0.5;" width="179" x="1385.5" y="1303.3828"/><text fill="#000000" font-family="sans-serif" font-size="14" lengthAdjust="spacing" textLength="165" x="1392.5" y="1324.916">AvailabilitySlotsRepository</text><rect fill="#FFFFFF" height="30.3516" style="stroke:#181818;stroke-width:1.0;" width="10" x="170" y="69.9609"/><rect fill="#FFFFFF" height="30.3516" style="stroke:#181818;stroke-width:1.0;" width="10" x="170" y="1256.0313"/><rect fill="#FFFFFF" height="76.7969" style="stroke:#181818;stroke-width:1.0;" width="10" x="382" y="100.3125"/><rect fill="#FFFFFF" height="30.3516" style="stroke:#181818;stroke-width:1.0;" width="10" x="382" y="268.1641"/><rect fill="#FFFFFF" height="109.1484" style="stroke:#181818;stroke-width:1.0;" width="10" x="382" y="1146.8828"/><rect fill="#FFFFFF" height="30.3516" style="stroke:#181818;stroke-width:1.0;" width="10" x="589" y="177.1094"/><rect fill="#FFFFFF" height="30.3516" style="stroke:#181818;stroke-width:1.0;" width="10" x="589" y="237.8125"/><rect fill="#FFFFFF" height="30.3516" style="stroke:#181818;stroke-width:1.0;" width="10" x="589" y="298.5156"/><rect fill="#FFFFFF" height="98.3125" style="stroke:#181818;stroke-width:1.0;" width="10" x="589" y="359.2188"/><rect fill="#FFFFFF" height="30.3516" style="stroke:#181818;stroke-width:1.0;" width="10" x="589" y="487.8828"/><rect fill="#FFFFFF" height="46.1875" style="stroke:#181818;stroke-width:1.0;" width="10" x="589" y="548.5859"/><rect fill="#FFFFFF" height="30.3516" style="stroke:#181818;stroke-width:1.0;" width="10" x="589" y="625.125"/><rect fill="#FFFFFF" height="30.3516" style="stroke:#181818;stroke-width:1.0;" width="10" x="589" y="685.8281"/><rect fill="#FFFFFF" height="100.0547" style="stroke:#181818;stroke-width:1.0;" width="10" x="589" y="746.5313"/><rect fill="#FFFFFF" height="55.7031" style="stroke:#181818;stroke-width:1.0;" width="10" x="589" y="876.9375"/><rect fill="#FFFFFF" height="30.3516" style="stroke:#181818;stroke-width:1.0;" width="10" x="589" y="946.6406"/><rect fill="#FFFFFF" height="46.1875" style="stroke:#181818;stroke-width:1.0;" width="10" x="589" y="990.9922"/><rect fill="#FFFFFF" height="51.3516" style="stroke:#181818;stroke-width:1.0;" width="10" x="589" y="1051.1797"/><rect fill="#FFFFFF" height="30.3516" style="stroke:#181818;stroke-width:1.0;" width="10" x="589" y="1116.5313"/><rect fill="#FFFFFF" height="14" style="stroke:#181818;stroke-width:1.0;" width="10" x="828" y="776.8828"/><rect fill="#FFFFFF" height="14" style="stroke:#181818;stroke-width:1.0;" width="10" x="828" y="976.9922"/><rect fill="#FFFFFF" height="14" style="stroke:#181818;stroke-width:1.0;" width="10" x="828" y="1037.1797"/><rect fill="#FFFFFF" height="30.3516" style="stroke:#181818;stroke-width:1.0;" width="10" x="904" y="457.5313"/><rect fill="#FFFFFF" height="30.3516" style="stroke:#181818;stroke-width:1.0;" width="10" x="904" y="594.7734"/><rect fill="#FFFFFF" height="30.3516" style="stroke:#181818;stroke-width:1.0;" width="10" x="1014" y="207.4609"/><rect fill="#FFFFFF" height="30.3516" style="stroke:#181818;stroke-width:1.0;" width="10" x="1014" y="328.8672"/><rect fill="#FFFFFF" height="14" style="stroke:#181818;stroke-width:1.0;" width="10" x="1014" y="1102.5313"/><rect fill="#FFFFFF" height="30.3516" style="stroke:#181818;stroke-width:1.0;" width="10" x="1136" y="518.2344"/><rect fill="#FFFFFF" height="30.3516" style="stroke:#181818;stroke-width:1.0;" width="10" x="1136" y="655.4766"/><rect fill="#FFFFFF" height="30.3516" style="stroke:#181818;stroke-width:1.0;" width="10" x="1286.5" y="716.1797"/><rect fill="#FFFFFF" height="30.3516" style="stroke:#181818;stroke-width:1.0;" width="10" x="1470" y="846.5859"/><rect fill="#FFFFFF" height="14" style="stroke:#181818;stroke-width:1.0;" width="10" x="1470" y="932.6406"/><polygon fill="#181818" points="158,65.9609,168,69.9609,158,73.9609,162,69.9609" style="stroke:#181818;stroke-width:1.0;"/><line style="stroke:#181818;stroke-width:1.0;" x1="0" x2="164" y1="69.9609" y2="69.9609"/><text fill="#000000" font-family="sans-serif" font-size="13" lengthAdjust="spacing" textLength="151" x="7" y="65.1045">POST(newStaffDTO, auth)</text><polygon fill="#181818" points="370,96.3125,380,100.3125,370,104.3125,374,100.3125" style="stroke:#181818;stroke-width:1.0;"/><line style="stroke:#181818;stroke-width:1.0;" x1="175" x2="376" y1="100.3125" y2="100.3125"/><text fill="#000000" font-family="sans-serif" font-size="13" lengthAdjust="spacing" textLength="183" x="182" y="95.4561">UpdateStaff(newStaffDTO, auth)</text><rect fill="none" height="41.4453" style="stroke:#000000;stroke-width:1.5;" width="142" x="331.5" y="108.3125"/><path d="M331.5,108.3125 L393.5,108.3125 L393.5,116.3125 L383.5,126.3125 L331.5,126.3125 L331.5,108.3125 " fill="#EEEEEE" style="stroke:#000000;stroke-width:2.0;"/><text fill="#000000" font-family="sans-serif" font-size="13" font-weight="bold" lengthAdjust="spacing" textLength="17" x="344.5" y="123.8076">ref</text><text fill="#000000" font-family="sans-serif" font-size="12" lengthAdjust="spacing" textLength="134" x="335.5" y="142.7695">Refer to generic auth SD</text><polygon fill="#181818" points="577,173.1094,587,177.1094,577,181.1094,581,177.1094" style="stroke:#181818;stroke-width:1.0;"/><line style="stroke:#181818;stroke-width:1.0;" x1="387" x2="583" y1="177.1094" y2="177.1094"/><text fill="#000000" font-family="sans-serif" font-size="13" lengthAdjust="spacing" textLength="178" x="394" y="172.2529">GetByIdAsync(licenseNumber)</text><polygon fill="#181818" points="1002,203.4609,1012,207.4609,1002,211.4609,1006,207.4609" style="stroke:#181818;stroke-width:1.0;"/><line style="stroke:#181818;stroke-width:1.0;" x1="594" x2="1008" y1="207.4609" y2="207.4609"/><text fill="#000000" font-family="sans-serif" font-size="13" lengthAdjust="spacing" textLength="202" x="601" y="202.6045">GetStaffByLicense(licenseNumber)</text><polygon fill="#181818" points="610,233.8125,600,237.8125,610,241.8125,606,237.8125" style="stroke:#181818;stroke-width:1.0;"/><line style="stroke:#181818;stroke-width:1.0;stroke-dasharray:2.0,2.0;" x1="604" x2="1018" y1="237.8125" y2="237.8125"/><text fill="#000000" font-family="sans-serif" font-size="13" lengthAdjust="spacing" textLength="69" x="616" y="232.9561">oldStaffDTO</text><polygon fill="#181818" points="403,264.1641,393,268.1641,403,272.1641,399,268.1641" style="stroke:#181818;stroke-width:1.0;"/><line style="stroke:#181818;stroke-width:1.0;stroke-dasharray:2.0,2.0;" x1="397" x2="593" y1="268.1641" y2="268.1641"/><text fill="#000000" font-family="sans-serif" font-size="13" lengthAdjust="spacing" textLength="69" x="409" y="263.3076">oldStaffDTO</text><polygon fill="#181818" points="577,294.5156,587,298.5156,577,302.5156,581,298.5156" style="stroke:#181818;stroke-width:1.0;"/><line style="stroke:#181818;stroke-width:1.0;stroke-dasharray:2.0,2.0;" x1="387" x2="583" y1="298.5156" y2="298.5156"/><text fill="#000000" font-family="sans-serif" font-size="13" lengthAdjust="spacing" textLength="161" x="394" y="293.6592">UpdateAsync(newStaffDTO)</text><polygon fill="#181818" points="1002,324.8672,1012,328.8672,1002,332.8672,1006,328.8672" style="stroke:#181818;stroke-width:1.0;"/><line style="stroke:#181818;stroke-width:1.0;" x1="594" x2="1008" y1="328.8672" y2="328.8672"/><text fill="#000000" font-family="sans-serif" font-size="13" lengthAdjust="spacing" textLength="178" x="601" y="324.0107">GetByIdAsync(licenseNumber)</text><polygon fill="#181818" points="610,355.2188,600,359.2188,610,363.2188,606,359.2188" style="stroke:#181818;stroke-width:1.0;"/><line style="stroke:#181818;stroke-width:1.0;stroke-dasharray:2.0,2.0;" x1="604" x2="1018" y1="359.2188" y2="359.2188"/><text fill="#000000" font-family="sans-serif" font-size="13" lengthAdjust="spacing" textLength="24" x="616" y="354.3623">staff</text><polygon fill="#181818" points="852.5,385.5703,862.5,389.5703,852.5,393.5703,856.5,389.5703" style="stroke:#181818;stroke-width:1.0;"/><line style="stroke:#181818;stroke-width:1.0;stroke-dasharray:2.0,2.0;" x1="599" x2="858.5" y1="389.5703" y2="389.5703"/><text fill="#000000" font-family="sans-serif" font-size="13" lengthAdjust="spacing" textLength="44" x="606" y="384.7139">create()</text><rect fill="#E2E2F0" height="31.6094" rx="2.5" ry="2.5" style="stroke:#181818;stroke-width:0.5;" width="89" x="864.5" y="367.2188"/><text fill="#000000" font-family="sans-serif" font-size="14" lengthAdjust="spacing" textLength="75" x="871.5" y="388.752">LogsBuilder</text><path d="M519,416.8281 L580,416.8281 L580,425.1797 L570,435.1797 L519,435.1797 L519,416.8281 " fill="#EEEEEE" style="stroke:#000000;stroke-width:1.5;"/><rect fill="none" height="656.3516" style="stroke:#000000;stroke-width:1.5;" width="1075.5" x="519" y="416.8281"/><text fill="#000000" font-family="sans-serif" font-size="13" font-weight="bold" lengthAdjust="spacing" textLength="16" x="534" y="431.3232">alt</text><text fill="#000000" font-family="sans-serif" font-size="11" font-weight="bold" lengthAdjust="spacing" textLength="157" x="595" y="430.2471">[contact information altered]</text><polygon fill="#181818" points="892,453.5313,902,457.5313,892,461.5313,896,457.5313" style="stroke:#181818;stroke-width:1.0;"/><line style="stroke:#181818;stroke-width:1.0;" x1="594" x2="898" y1="457.5313" y2="457.5313"/><text fill="#000000" font-family="sans-serif" font-size="13" lengthAdjust="spacing" textLength="206" x="601" y="452.6748">updateLogsWithData(NewStaffDTO)</text><polygon fill="#181818" points="610,483.8828,600,487.8828,610,491.8828,606,487.8828" style="stroke:#181818;stroke-width:1.0;"/><line style="stroke:#181818;stroke-width:1.0;stroke-dasharray:2.0,2.0;" x1="604" x2="908" y1="487.8828" y2="487.8828"/><text fill="#000000" font-family="sans-serif" font-size="13" lengthAdjust="spacing" textLength="17" x="616" y="483.0264">log</text><polygon fill="#181818" points="1124,514.2344,1134,518.2344,1124,522.2344,1128,518.2344" style="stroke:#181818;stroke-width:1.0;"/><line style="stroke:#181818;stroke-width:1.0;" x1="594" x2="1130" y1="518.2344" y2="518.2344"/><text fill="#000000" font-family="sans-serif" font-size="13" lengthAdjust="spacing" textLength="85" x="601" y="513.3779">AddAsync(log)</text><polygon fill="#181818" points="610,544.5859,600,548.5859,610,552.5859,606,548.5859" style="stroke:#181818;stroke-width:1.0;"/><line style="stroke:#181818;stroke-width:1.0;stroke-dasharray:2.0,2.0;" x1="604" x2="1140" y1="548.5859" y2="548.5859"/><text fill="#000000" font-family="sans-serif" font-size="13" lengthAdjust="spacing" textLength="17" x="616" y="543.7295">log</text><line style="stroke:#000000;stroke-width:1.0;stroke-dasharray:2.0,2.0;" x1="519" x2="1594.5" y1="557.5859" y2="557.5859"/><text fill="#000000" font-family="sans-serif" font-size="11" font-weight="bold" lengthAdjust="spacing" textLength="197" x="524" y="569.0049">[contact information wasn't altered]</text><polygon fill="#181818" points="892,590.7734,902,594.7734,892,598.7734,896,594.7734" style="stroke:#181818;stroke-width:1.0;"/><line style="stroke:#181818;stroke-width:1.0;" x1="594" x2="898" y1="594.7734" y2="594.7734"/><text fill="#000000" font-family="sans-serif" font-size="13" lengthAdjust="spacing" textLength="173" x="601" y="589.917">updateLogsWithData(staffDto)</text><polygon fill="#181818" points="610,621.125,600,625.125,610,629.125,606,625.125" style="stroke:#181818;stroke-width:1.0;"/><line style="stroke:#181818;stroke-width:1.0;stroke-dasharray:2.0,2.0;" x1="604" x2="908" y1="625.125" y2="625.125"/><text fill="#000000" font-family="sans-serif" font-size="13" lengthAdjust="spacing" textLength="17" x="616" y="620.2686">log</text><polygon fill="#181818" points="1124,651.4766,1134,655.4766,1124,659.4766,1128,655.4766" style="stroke:#181818;stroke-width:1.0;"/><line style="stroke:#181818;stroke-width:1.0;" x1="594" x2="1130" y1="655.4766" y2="655.4766"/><text fill="#000000" font-family="sans-serif" font-size="13" lengthAdjust="spacing" textLength="85" x="601" y="650.6201">AddAsync(log)</text><polygon fill="#181818" points="610,681.8281,600,685.8281,610,689.8281,606,685.8281" style="stroke:#181818;stroke-width:1.0;"/><line style="stroke:#181818;stroke-width:1.0;stroke-dasharray:2.0,2.0;" x1="604" x2="1140" y1="685.8281" y2="685.8281"/><text fill="#000000" font-family="sans-serif" font-size="13" lengthAdjust="spacing" textLength="17" x="616" y="680.9717">log</text><polygon fill="#181818" points="1274.5,712.1797,1284.5,716.1797,1274.5,720.1797,1278.5,716.1797" style="stroke:#181818;stroke-width:1.0;"/><line style="stroke:#181818;stroke-width:1.0;" x1="594" x2="1280.5" y1="716.1797" y2="716.1797"/><text fill="#000000" font-family="sans-serif" font-size="13" lengthAdjust="spacing" textLength="171" x="601" y="711.3232">GetByIdAsync(specialization)</text><polygon fill="#181818" points="610,742.5313,600,746.5313,610,750.5313,606,746.5313" style="stroke:#181818;stroke-width:1.0;"/><line style="stroke:#181818;stroke-width:1.0;stroke-dasharray:2.0,2.0;" x1="604" x2="1290.5" y1="746.5313" y2="746.5313"/><text fill="#000000" font-family="sans-serif" font-size="13" lengthAdjust="spacing" textLength="79" x="616" y="741.6748">specialization</text><polygon fill="#181818" points="816,772.8828,826,776.8828,816,780.8828,820,776.8828" style="stroke:#181818;stroke-width:1.0;"/><line style="stroke:#181818;stroke-width:1.0;" x1="599" x2="822" y1="776.8828" y2="776.8828"/><text fill="#000000" font-family="sans-serif" font-size="13" lengthAdjust="spacing" textLength="210" x="606" y="772.0264">changeSpecialization(specialization)</text><polygon fill="#181818" points="610,786.8828,600,790.8828,610,794.8828,606,790.8828" style="stroke:#181818;stroke-width:1.0;"/><line style="stroke:#181818;stroke-width:1.0;stroke-dasharray:2.0,2.0;" x1="604" x2="832" y1="790.8828" y2="790.8828"/><path d="M529,805.8828 L602,805.8828 L602,814.2344 L592,824.2344 L529,824.2344 L529,805.8828 " fill="#EEEEEE" style="stroke:#000000;stroke-width:1.5;"/><rect fill="none" height="260.2969" style="stroke:#000000;stroke-width:1.5;" width="1055.5" x="529" y="805.8828"/><text fill="#000000" font-family="sans-serif" font-size="13" font-weight="bold" lengthAdjust="spacing" textLength="28" x="544" y="820.3779">loop</text><text fill="#000000" font-family="sans-serif" font-size="11" font-weight="bold" lengthAdjust="spacing" textLength="201" x="617" y="819.3018">[for each Availability in newStaffDTO]</text><polygon fill="#181818" points="1458,842.5859,1468,846.5859,1458,850.5859,1462,846.5859" style="stroke:#181818;stroke-width:1.0;"/><line style="stroke:#181818;stroke-width:1.0;" x1="594" x2="1464" y1="846.5859" y2="846.5859"/><text fill="#000000" font-family="sans-serif" font-size="13" lengthAdjust="spacing" textLength="226" x="601" y="841.7295">GetAvailabilitySlots(staffLicense, time);</text><polygon fill="#181818" points="610,872.9375,600,876.9375,610,880.9375,606,876.9375" style="stroke:#181818;stroke-width:1.0;"/><line style="stroke:#181818;stroke-width:1.0;stroke-dasharray:2.0,2.0;" x1="604" x2="1474" y1="876.9375" y2="876.9375"/><text fill="#000000" font-family="sans-serif" font-size="13" lengthAdjust="spacing" textLength="84" x="616" y="872.0811">AvailabilitySlot</text><path d="M539,891.9375 L600,891.9375 L600,900.2891 L590,910.2891 L539,910.2891 L539,891.9375 " fill="#EEEEEE" style="stroke:#000000;stroke-width:1.5;"/><rect fill="none" height="167.2422" style="stroke:#000000;stroke-width:1.5;" width="1035.5" x="539" y="891.9375"/><text fill="#000000" font-family="sans-serif" font-size="13" font-weight="bold" lengthAdjust="spacing" textLength="16" x="554" y="906.4326">alt</text><text fill="#000000" font-family="sans-serif" font-size="11" font-weight="bold" lengthAdjust="spacing" textLength="162" x="615" y="905.3564">[AvailabilitySlot doesn't exist]</text><polygon fill="#181818" points="1458,928.6406,1468,932.6406,1458,936.6406,1462,932.6406" style="stroke:#181818;stroke-width:1.0;"/><line style="stroke:#181818;stroke-width:1.0;" x1="594" x2="1464" y1="932.6406" y2="932.6406"/><text fill="#000000" font-family="sans-serif" font-size="13" lengthAdjust="spacing" textLength="129" x="601" y="927.7842">AddAsync(Availability)</text><polygon fill="#181818" points="610,942.6406,600,946.6406,610,950.6406,606,946.6406" style="stroke:#181818;stroke-width:1.0;"/><line style="stroke:#181818;stroke-width:1.0;stroke-dasharray:2.0,2.0;" x1="604" x2="1474" y1="946.6406" y2="946.6406"/><polygon fill="#181818" points="816,972.9922,826,976.9922,816,980.9922,820,976.9922" style="stroke:#181818;stroke-width:1.0;"/><line style="stroke:#181818;stroke-width:1.0;" x1="594" x2="822" y1="976.9922" y2="976.9922"/><text fill="#000000" font-family="sans-serif" font-size="13" lengthAdjust="spacing" textLength="176" x="601" y="972.1357">AddAvailabilitySlot(Availability)</text><polygon fill="#181818" points="610,986.9922,600,990.9922,610,994.9922,606,990.9922" style="stroke:#181818;stroke-width:1.0;"/><line style="stroke:#181818;stroke-width:1.0;stroke-dasharray:2.0,2.0;" x1="604" x2="832" y1="990.9922" y2="990.9922"/><line style="stroke:#000000;stroke-width:1.0;stroke-dasharray:2.0,2.0;" x1="539" x2="1574.5" y1="999.9922" y2="999.9922"/><text fill="#000000" font-family="sans-serif" font-size="11" font-weight="bold" lengthAdjust="spacing" textLength="124" x="544" y="1011.4111">[AvailabilitySlot exists]</text><polygon fill="#181818" points="816,1033.1797,826,1037.1797,816,1041.1797,820,1037.1797" style="stroke:#181818;stroke-width:1.0;"/><line style="stroke:#181818;stroke-width:1.0;" x1="594" x2="822" y1="1037.1797" y2="1037.1797"/><text fill="#000000" font-family="sans-serif" font-size="13" lengthAdjust="spacing" textLength="199" x="601" y="1032.3232">AddAvailabilitySlot(AvailabilitySlot)</text><polygon fill="#181818" points="610,1047.1797,600,1051.1797,610,1055.1797,606,1051.1797" style="stroke:#181818;stroke-width:1.0;"/><line style="stroke:#181818;stroke-width:1.0;stroke-dasharray:2.0,2.0;" x1="604" x2="832" y1="1051.1797" y2="1051.1797"/><polygon fill="#181818" points="1002,1098.5313,1012,1102.5313,1002,1106.5313,1006,1102.5313" style="stroke:#181818;stroke-width:1.0;"/><line style="stroke:#181818;stroke-width:1.0;" x1="594" x2="1008" y1="1102.5313" y2="1102.5313"/><text fill="#000000" font-family="sans-serif" font-size="13" lengthAdjust="spacing" textLength="73" x="601" y="1097.6748">Update(staff)</text><polygon fill="#181818" points="610,1112.5313,600,1116.5313,610,1120.5313,606,1116.5313" style="stroke:#181818;stroke-width:1.0;"/><line style="stroke:#181818;stroke-width:1.0;stroke-dasharray:2.0,2.0;" x1="604" x2="1018" y1="1116.5313" y2="1116.5313"/><polygon fill="#181818" points="403,1142.8828,393,1146.8828,403,1150.8828,399,1146.8828" style="stroke:#181818;stroke-width:1.0;"/><line style="stroke:#181818;stroke-width:1.0;stroke-dasharray:2.0,2.0;" x1="397" x2="593" y1="1146.8828" y2="1146.8828"/><text fill="#000000" font-family="sans-serif" font-size="13" lengthAdjust="spacing" textLength="17" x="409" y="1142.0264">log</text><path d="M324.5,1161.8828 L385.5,1161.8828 L385.5,1170.2344 L375.5,1180.2344 L324.5,1180.2344 L324.5,1161.8828 " fill="#EEEEEE" style="stroke:#000000;stroke-width:1.5;"/><rect fill="none" height="64.7969" style="stroke:#000000;stroke-width:1.5;" width="238" x="324.5" y="1161.8828"/><text fill="#000000" font-family="sans-serif" font-size="13" font-weight="bold" lengthAdjust="spacing" textLength="16" x="339.5" y="1176.3779">alt</text><text fill="#000000" font-family="sans-serif" font-size="11" font-weight="bold" lengthAdjust="spacing" textLength="157" x="400.5" y="1175.3018">[contact information altered]</text><rect fill="none" height="41.4453" style="stroke:#000000;stroke-width:1.5;" width="111" x="331.5" y="1180.2344"/><path d="M331.5,1180.2344 L393.5,1180.2344 L393.5,1188.2344 L383.5,1198.2344 L331.5,1198.2344 L331.5,1180.2344 " fill="#EEEEEE" style="stroke:#000000;stroke-width:2.0;"/><text fill="#000000" font-family="sans-serif" font-size="13" font-weight="bold" lengthAdjust="spacing" textLength="17" x="344.5" y="1195.7295">ref</text><text fill="#000000" font-family="sans-serif" font-size="12" lengthAdjust="spacing" textLength="97" x="337" y="1214.6914">Refer to email SD</text><polygon fill="#181818" points="191,1252.0313,181,1256.0313,191,1260.0313,187,1256.0313" style="stroke:#181818;stroke-width:1.0;"/><line style="stroke:#181818;stroke-width:1.0;stroke-dasharray:2.0,2.0;" x1="185" x2="386" y1="1256.0313" y2="1256.0313"/><text fill="#000000" font-family="sans-serif" font-size="13" lengthAdjust="spacing" textLength="50" x="197" y="1251.1748">staffDTO</text><polygon fill="#181818" points="11,1282.3828,1,1286.3828,11,1290.3828,7,1286.3828" style="stroke:#181818;stroke-width:1.0;"/><line style="stroke:#181818;stroke-width:1.0;stroke-dasharray:2.0,2.0;" x1="5" x2="174" y1="1286.3828" y2="1286.3828"/><text fill="#000000" font-family="sans-serif" font-size="13" lengthAdjust="spacing" textLength="50" x="17" y="1281.5264">staffDTO</text><!--SRC=[xLPDRnen43slVuLlXIZyWRQgb9IqgXI52jBsxEmEOCdOAwyXfR- -OpjhrXz06wIUUa6iFVFyveqzCotJXjUyPTBGkTeQBbUKTLJZNo3jO7DXs7BvKKcZbH2WhL5jjCXj5g1tl0PhqBdlNPqRXTrewrwjkjij5mtet6KEhUguKNeVdErI1X3RYPUL6A-5cZF1Vp73bKo0SIzpkDanBjWJ5zpi5qAPv12sOyBvaCa7BnrzIx_E5eyZ2S-E_FHnTatPrgp7XDM6xnYQU8szEVfPDT7jMzlWfdCgUJUG-8TFbmqol_j4Pz_lvlvp3ajCbL5q1H8qhnq8NKm9o8PgM1BYJiNJ-rGXWyzWRlTVcfjkB-kHm5JA3XwscoVGqV7kWF0LKaq2KezgbV6mBfZR_Rt7F84TqE8Lhp4ve4vYvaeqlLuPclCzIVUGWrCu4IklkTSmfkBJw3KSfF5I1VyaCIV5EwgTVuslKctmRA-k4AhMWDQZCI5C65fZpK04okLIwOrxSHJNGKD3gc6e0nW4sJe1xTeFRjPJPjZeOQXZLOgu2al3Kb8DaPEmiJv4K95V8V28SLzS4EUcwVEYLcV9XQ94gW1nXbTmAP02qK5HvcVMoJVcbMexuwbH_wK-Ighl5UdRxAB-SfPZWB7m_V_qUKQGCMBViSxpTQqN7-YQoHN4NJ0d7QEz8AMyyjYSqggbU0qfRgsZvedNamxA8Rf71Fj6wWNDkgw_ao_juveQle7nEuGeodlWVsZFkDYVaCIHdXMZ1eIgg75bwroAG1i5xld1JzvPl6EHXliyH1XRXt9SUM3suXmDBG4QX5AEfNXZBCSalh-dsr-FgdYLIWXbabNbAbuck1EwUsq8Tk5VXo6nADiVEuuTx_j-bl2N__9EVz5aP6jbWG1DHwApZJ-UKwimgC86Cu8JAdN2k1dLYnE6h7w-xa8DEJfIULD2tayccLi-IVy6]--></g></svg>