<?xml version="1.0" encoding="us-ascii" standalone="no"?><svg xmlns="http://www.w3.org/2000/svg" xmlns:xlink="http://www.w3.org/1999/xlink" contentStyleType="text/css" height="363px" preserveAspectRatio="none" style="width:795px;height:363px;background:#FFFFFF;" version="1.1" viewBox="0 0 795 363" width="795px" zoomAndPan="magnify"><defs/><g><rect fill="#FFFFFF" height="22.3516" style="stroke:#181818;stroke-width:1.0;" width="10" x="52.5" y="47.6094"/><rect fill="#FFFFFF" height="30.3516" style="stroke:#181818;stroke-width:1.0;" width="10" x="52.5" y="203.625"/><rect fill="#FFFFFF" height="30.3516" style="stroke:#181818;stroke-width:1.0;" width="10" x="52.5" y="264.3281"/><rect fill="#FFFFFF" height="9" style="stroke:#181818;stroke-width:1.0;" width="10" x="52.5" y="308.6797"/><rect fill="#FFFFFF" height="30.3516" style="stroke:#181818;stroke-width:1.0;" width="10" x="230.5" y="69.9609"/><rect fill="#FFFFFF" height="72.9609" style="stroke:#181818;stroke-width:1.0;" width="10" x="230.5" y="130.6641"/><rect fill="#FFFFFF" height="30.3516" style="stroke:#181818;stroke-width:1.0;" width="10" x="408.5" y="100.3125"/><rect fill="#FFFFFF" height="30.3516" style="stroke:#181818;stroke-width:1.0;" width="10" x="618" y="233.9766"/><rect fill="#FFFFFF" height="14" style="stroke:#181818;stroke-width:1.0;" width="10" x="736.5" y="294.6797"/><line style="stroke:#181818;stroke-width:0.5;stroke-dasharray:5.0,5.0;" x1="57" x2="57" y1="37.6094" y2="326.6797"/><line style="stroke:#181818;stroke-width:0.5;stroke-dasharray:5.0,5.0;" x1="235.5" x2="235.5" y1="37.6094" y2="326.6797"/><line style="stroke:#181818;stroke-width:0.5;stroke-dasharray:5.0,5.0;" x1="413" x2="413" y1="37.6094" y2="326.6797"/><line style="stroke:#181818;stroke-width:0.5;stroke-dasharray:5.0,5.0;" x1="515" x2="515" y1="169.9688" y2="326.6797"/><line style="stroke:#181818;stroke-width:0.5;stroke-dasharray:5.0,5.0;" x1="623" x2="623" y1="37.6094" y2="326.6797"/><line style="stroke:#181818;stroke-width:0.5;stroke-dasharray:5.0,5.0;" x1="741" x2="741" y1="37.6094" y2="326.6797"/><rect fill="#E2E2F0" height="31.6094" rx="2.5" ry="2.5" style="stroke:#181818;stroke-width:0.5;" width="105" x="5" y="5"/><text fill="#000000" font-family="sans-serif" font-size="14" lengthAdjust="spacing" textLength="91" x="12" y="26.5332">StaffController</text><rect fill="#E2E2F0" height="31.6094" rx="2.5" ry="2.5" style="stroke:#181818;stroke-width:0.5;" width="105" x="5" y="325.6797"/><text fill="#000000" font-family="sans-serif" font-size="14" lengthAdjust="spacing" textLength="91" x="12" y="347.2129">StaffController</text><rect fill="#E2E2F0" height="31.6094" rx="2.5" ry="2.5" style="stroke:#181818;stroke-width:0.5;" width="90" x="190.5" y="5"/><text fill="#000000" font-family="sans-serif" font-size="14" lengthAdjust="spacing" textLength="76" x="197.5" y="26.5332">UserService</text><rect fill="#E2E2F0" height="31.6094" rx="2.5" ry="2.5" style="stroke:#181818;stroke-width:0.5;" width="90" x="190.5" y="325.6797"/><text fill="#000000" font-family="sans-serif" font-size="14" lengthAdjust="spacing" textLength="76" x="197.5" y="347.2129">UserService</text><rect fill="#E2E2F0" height="31.6094" rx="2.5" ry="2.5" style="stroke:#181818;stroke-width:0.5;" width="111" x="358" y="5"/><text fill="#000000" font-family="sans-serif" font-size="14" lengthAdjust="spacing" textLength="97" x="365" y="26.5332">UserRepository</text><rect fill="#E2E2F0" height="31.6094" rx="2.5" ry="2.5" style="stroke:#181818;stroke-width:0.5;" width="111" x="358" y="325.6797"/><text fill="#000000" font-family="sans-serif" font-size="14" lengthAdjust="spacing" textLength="97" x="365" y="347.2129">UserRepository</text><rect fill="#E2E2F0" height="31.6094" rx="2.5" ry="2.5" style="stroke:#181818;stroke-width:0.5;" width="73" x="479" y="325.6797"/><text fill="#000000" font-family="sans-serif" font-size="14" lengthAdjust="spacing" textLength="59" x="486" y="347.2129">UserDTO</text><rect fill="#E2E2F0" height="31.6094" rx="2.5" ry="2.5" style="stroke:#181818;stroke-width:0.5;" width="122" x="562" y="5"/><text fill="#000000" font-family="sans-serif" font-size="14" lengthAdjust="spacing" textLength="108" x="569" y="26.5332">TokenRepository</text><rect fill="#E2E2F0" height="31.6094" rx="2.5" ry="2.5" style="stroke:#181818;stroke-width:0.5;" width="122" x="562" y="325.6797"/><text fill="#000000" font-family="sans-serif" font-size="14" lengthAdjust="spacing" textLength="108" x="569" y="347.2129">TokenRepository</text><rect fill="#E2E2F0" height="31.6094" rx="2.5" ry="2.5" style="stroke:#181818;stroke-width:0.5;" width="95" x="694" y="5"/><text fill="#000000" font-family="sans-serif" font-size="14" lengthAdjust="spacing" textLength="81" x="701" y="26.5332">EmailService</text><rect fill="#E2E2F0" height="31.6094" rx="2.5" ry="2.5" style="stroke:#181818;stroke-width:0.5;" width="95" x="694" y="325.6797"/><text fill="#000000" font-family="sans-serif" font-size="14" lengthAdjust="spacing" textLength="81" x="701" y="347.2129">EmailService</text><rect fill="#FFFFFF" height="22.3516" style="stroke:#181818;stroke-width:1.0;" width="10" x="52.5" y="47.6094"/><rect fill="#FFFFFF" height="30.3516" style="stroke:#181818;stroke-width:1.0;" width="10" x="52.5" y="203.625"/><rect fill="#FFFFFF" height="30.3516" style="stroke:#181818;stroke-width:1.0;" width="10" x="52.5" y="264.3281"/><rect fill="#FFFFFF" height="9" style="stroke:#181818;stroke-width:1.0;" width="10" x="52.5" y="308.6797"/><rect fill="#FFFFFF" height="30.3516" style="stroke:#181818;stroke-width:1.0;" width="10" x="230.5" y="69.9609"/><rect fill="#FFFFFF" height="72.9609" style="stroke:#181818;stroke-width:1.0;" width="10" x="230.5" y="130.6641"/><rect fill="#FFFFFF" height="30.3516" style="stroke:#181818;stroke-width:1.0;" width="10" x="408.5" y="100.3125"/><rect fill="#FFFFFF" height="30.3516" style="stroke:#181818;stroke-width:1.0;" width="10" x="618" y="233.9766"/><rect fill="#FFFFFF" height="14" style="stroke:#181818;stroke-width:1.0;" width="10" x="736.5" y="294.6797"/><polygon fill="#181818" points="218.5,65.9609,228.5,69.9609,218.5,73.9609,222.5,69.9609" style="stroke:#181818;stroke-width:1.0;"/><line style="stroke:#181818;stroke-width:1.0;" x1="57.5" x2="224.5" y1="69.9609" y2="69.9609"/><text fill="#000000" font-family="sans-serif" font-size="13" lengthAdjust="spacing" textLength="149" x="64.5" y="65.1045">GetByIdAsync(staffEmail)</text><polygon fill="#181818" points="396.5,96.3125,406.5,100.3125,396.5,104.3125,400.5,100.3125" style="stroke:#181818;stroke-width:1.0;"/><line style="stroke:#181818;stroke-width:1.0;" x1="235.5" x2="402.5" y1="100.3125" y2="100.3125"/><text fill="#000000" font-family="sans-serif" font-size="13" lengthAdjust="spacing" textLength="149" x="242.5" y="95.4561">GetByIdAsync(staffEmail)</text><polygon fill="#181818" points="251.5,126.6641,241.5,130.6641,251.5,134.6641,247.5,130.6641" style="stroke:#181818;stroke-width:1.0;"/><line style="stroke:#181818;stroke-width:1.0;stroke-dasharray:2.0,2.0;" x1="245.5" x2="412.5" y1="130.6641" y2="130.6641"/><text fill="#000000" font-family="sans-serif" font-size="13" lengthAdjust="spacing" textLength="25" x="257.5" y="125.8076">user</text><polygon fill="#181818" points="467,157.0156,477,161.0156,467,165.0156,471,161.0156" style="stroke:#181818;stroke-width:1.0;"/><line style="stroke:#181818;stroke-width:1.0;" x1="240.5" x2="473" y1="161.0156" y2="161.0156"/><text fill="#000000" font-family="sans-serif" font-size="13" lengthAdjust="spacing" textLength="44" x="247.5" y="156.1592">create()</text><rect fill="#E2E2F0" height="31.6094" rx="2.5" ry="2.5" style="stroke:#181818;stroke-width:0.5;" width="73" x="479" y="138.6641"/><text fill="#000000" font-family="sans-serif" font-size="14" lengthAdjust="spacing" textLength="59" x="486" y="160.1973">UserDTO</text><polygon fill="#181818" points="73.5,199.625,63.5,203.625,73.5,207.625,69.5,203.625" style="stroke:#181818;stroke-width:1.0;"/><line style="stroke:#181818;stroke-width:1.0;stroke-dasharray:2.0,2.0;" x1="67.5" x2="234.5" y1="203.625" y2="203.625"/><text fill="#000000" font-family="sans-serif" font-size="13" lengthAdjust="spacing" textLength="51" x="79.5" y="198.7686">userDTO</text><polygon fill="#181818" points="606,229.9766,616,233.9766,606,237.9766,610,233.9766" style="stroke:#181818;stroke-width:1.0;"/><line style="stroke:#181818;stroke-width:1.0;" x1="57.5" x2="612" y1="233.9766" y2="233.9766"/><text fill="#000000" font-family="sans-serif" font-size="13" lengthAdjust="spacing" textLength="298" x="64.5" y="229.1201">GeneratePasswordValidationTokenAsync(userDTO)</text><polygon fill="#181818" points="73.5,260.3281,63.5,264.3281,73.5,268.3281,69.5,264.3281" style="stroke:#181818;stroke-width:1.0;"/><line style="stroke:#181818;stroke-width:1.0;" x1="67.5" x2="622" y1="264.3281" y2="264.3281"/><text fill="#000000" font-family="sans-serif" font-size="13" lengthAdjust="spacing" textLength="58" x="79.5" y="259.4717">tokenDTO</text><polygon fill="#181818" points="724.5,290.6797,734.5,294.6797,724.5,298.6797,728.5,294.6797" style="stroke:#181818;stroke-width:1.0;"/><line style="stroke:#181818;stroke-width:1.0;" x1="57.5" x2="730.5" y1="294.6797" y2="294.6797"/><text fill="#000000" font-family="sans-serif" font-size="13" lengthAdjust="spacing" textLength="320" x="64.5" y="289.8232">sendContactConfirmation(oldStaffEmail, tokenDTO, log)</text><polygon fill="#181818" points="73.5,304.6797,63.5,308.6797,73.5,312.6797,69.5,308.6797" style="stroke:#181818;stroke-width:1.0;"/><line style="stroke:#181818;stroke-width:1.0;stroke-dasharray:2.0,2.0;" x1="67.5" x2="740.5" y1="308.6797" y2="308.6797"/><!--SRC=[ZLBBRiCW4Bpp5HoTAFc172hrfIgdLdNQEu9rXKB0MZQk_FS5Z8bTgrOljc1dPcTdQGMIbheLbdXDecaUdILqnW1ouRaaDAoTO3uyO0tOQGcnVlLOTtA1U8VMUKqE-moA5mlKq-brTdToPx1pAftjWlfy4TfCF40wTv8pneGatGc2mNZyyFrTTiaF_0NeeJ-gUzzRMVauRXBRC0LpPZdb0LcM6CIYfN-gPVxqd0PYeyn-wkyQKld5JkWLEpd8xJRG9K80LPjI3lMKmQ0SO7pDMvgyX9QZJtDQm01u4zv_ErIVmcWbI3kRDZRCdnkiH3dkaetADtSKTU9pc917-1_sojOFt8DLyTa6PFWr6Y_9NEMCgijMTgN9ZXltjU9pL6QizBW5EQKLu4o8_m00]--></g></svg>