<?xml version="1.0" encoding="us-ascii" standalone="no"?><svg xmlns="http://www.w3.org/2000/svg" xmlns:xlink="http://www.w3.org/1999/xlink" contentStyleType="text/css" height="1334px" preserveAspectRatio="none" style="width:1973px;height:1334px;background:#FFFFFF;" version="1.1" viewBox="0 0 1973 1334" width="1973px" zoomAndPan="magnify"><defs/><g><rect fill="#FFFFFF" height="30.3516" style="stroke:#181818;stroke-width:1.0;" width="10" x="192" y="69.9609"/><rect fill="#FFFFFF" height="30.3516" style="stroke:#181818;stroke-width:1.0;" width="10" x="192" y="1250.0078"/><rect fill="#FFFFFF" height="30.3516" style="stroke:#181818;stroke-width:1.0;" width="10" x="404" y="100.3125"/><rect fill="#FFFFFF" height="30.3516" style="stroke:#181818;stroke-width:1.0;" width="10" x="404" y="221.7188"/><rect fill="#FFFFFF" height="55.7031" style="stroke:#181818;stroke-width:1.0;" width="10" x="404" y="343.125"/><rect fill="#FFFFFF" height="30.3516" style="stroke:#181818;stroke-width:1.0;" width="10" x="404" y="1219.6563"/><rect fill="#FFFFFF" height="30.3516" style="stroke:#181818;stroke-width:1.0;" width="10" x="639" y="252.0703"/><rect fill="#FFFFFF" height="30.3516" style="stroke:#181818;stroke-width:1.0;" width="10" x="639" y="312.7734"/><rect fill="#FFFFFF" height="30.3516" style="stroke:#181818;stroke-width:1.0;" width="10" x="639" y="398.8281"/><rect fill="#FFFFFF" height="30.3516" style="stroke:#181818;stroke-width:1.0;" width="10" x="639" y="459.5313"/><rect fill="#FFFFFF" height="72.9609" style="stroke:#181818;stroke-width:1.0;" width="10" x="639" y="520.2344"/><rect fill="#FFFFFF" height="91.0547" style="stroke:#181818;stroke-width:1.0;" width="10" x="639" y="623.5469"/><rect fill="#FFFFFF" height="100.0547" style="stroke:#181818;stroke-width:1.0;" width="10" x="639" y="744.9531"/><rect fill="#FFFFFF" height="55.7031" style="stroke:#181818;stroke-width:1.0;" width="10" x="639" y="875.3594"/><rect fill="#FFFFFF" height="30.3516" style="stroke:#181818;stroke-width:1.0;" width="10" x="639" y="945.0625"/><rect fill="#FFFFFF" height="46.1875" style="stroke:#181818;stroke-width:1.0;" width="10" x="639" y="989.4141"/><rect fill="#FFFFFF" height="51.3516" style="stroke:#181818;stroke-width:1.0;" width="10" x="639" y="1049.6016"/><rect fill="#FFFFFF" height="60.3516" style="stroke:#181818;stroke-width:1.0;" width="10" x="639" y="1114.9531"/><rect fill="#FFFFFF" height="30.3516" style="stroke:#181818;stroke-width:1.0;" width="10" x="639" y="1189.3047"/><rect fill="#FFFFFF" height="30.3516" style="stroke:#181818;stroke-width:1.0;" width="10" x="744.5" y="130.6641"/><rect fill="#FFFFFF" height="30.3516" style="stroke:#181818;stroke-width:1.0;" width="10" x="744.5" y="191.3672"/><rect fill="#FFFFFF" height="14" style="stroke:#181818;stroke-width:1.0;" width="10" x="878" y="775.3047"/><rect fill="#FFFFFF" height="14" style="stroke:#181818;stroke-width:1.0;" width="10" x="878" y="975.4141"/><rect fill="#FFFFFF" height="14" style="stroke:#181818;stroke-width:1.0;" width="10" x="878" y="1035.6016"/><rect fill="#FFFFFF" height="30.3516" style="stroke:#181818;stroke-width:1.0;" width="10" x="954" y="593.1953"/><rect fill="#FFFFFF" height="30.3516" style="stroke:#181818;stroke-width:1.0;" width="10" x="1069.5" y="161.0156"/><rect fill="#FFFFFF" height="44" style="stroke:#181818;stroke-width:1.0;" width="10" x="1069.5" y="1100.9531"/><rect fill="#FFFFFF" height="30.3516" style="stroke:#181818;stroke-width:1.0;" width="10" x="1196" y="282.4219"/><rect fill="#FFFFFF" height="30.3516" style="stroke:#181818;stroke-width:1.0;" width="10" x="1196" y="489.8828"/><rect fill="#FFFFFF" height="14" style="stroke:#181818;stroke-width:1.0;" width="10" x="1196" y="1175.3047"/><rect fill="#FFFFFF" height="30.3516" style="stroke:#181818;stroke-width:1.0;" width="10" x="1318" y="429.1797"/><rect fill="#FFFFFF" height="30.3516" style="stroke:#181818;stroke-width:1.0;" width="10" x="1468.5" y="714.6016"/><rect fill="#FFFFFF" height="30.3516" style="stroke:#181818;stroke-width:1.0;" width="10" x="1652" y="845.0078"/><rect fill="#FFFFFF" height="14" style="stroke:#181818;stroke-width:1.0;" width="10" x="1652" y="931.0625"/><rect fill="none" height="713.4766" style="stroke:#000000;stroke-width:1.5;" width="1621" x="346.5" y="358.125"/><rect fill="none" height="260.2969" style="stroke:#000000;stroke-width:1.5;" width="1187.5" x="579" y="804.3047"/><rect fill="none" height="167.2422" style="stroke:#000000;stroke-width:1.5;" width="1167.5" x="589" y="890.3594"/><line style="stroke:#181818;stroke-width:0.5;stroke-dasharray:5.0,5.0;" x1="196.5" x2="196.5" y1="37.6094" y2="1298.3594"/><line style="stroke:#181818;stroke-width:0.5;stroke-dasharray:5.0,5.0;" x1="408.5" x2="408.5" y1="37.6094" y2="1298.3594"/><line style="stroke:#181818;stroke-width:0.5;stroke-dasharray:5.0,5.0;" x1="644" x2="644" y1="37.6094" y2="1298.3594"/><line style="stroke:#181818;stroke-width:0.5;stroke-dasharray:5.0,5.0;" x1="749" x2="749" y1="37.6094" y2="1298.3594"/><line style="stroke:#181818;stroke-width:0.5;stroke-dasharray:5.0,5.0;" x1="882.5" x2="882.5" y1="37.6094" y2="1298.3594"/><line style="stroke:#181818;stroke-width:0.5;stroke-dasharray:5.0,5.0;" x1="958.5" x2="958.5" y1="559.5391" y2="1298.3594"/><line style="stroke:#181818;stroke-width:0.5;stroke-dasharray:5.0,5.0;" x1="1074.5" x2="1074.5" y1="37.6094" y2="1298.3594"/><line style="stroke:#181818;stroke-width:0.5;stroke-dasharray:5.0,5.0;" x1="1200.5" x2="1200.5" y1="37.6094" y2="1298.3594"/><line style="stroke:#181818;stroke-width:0.5;stroke-dasharray:5.0,5.0;" x1="1322.5" x2="1322.5" y1="37.6094" y2="1298.3594"/><line style="stroke:#181818;stroke-width:0.5;stroke-dasharray:5.0,5.0;" x1="1473.5" x2="1473.5" y1="37.6094" y2="1298.3594"/><line style="stroke:#181818;stroke-width:0.5;stroke-dasharray:5.0,5.0;" x1="1656.5" x2="1656.5" y1="37.6094" y2="1298.3594"/><line style="stroke:#181818;stroke-width:0.5;stroke-dasharray:5.0,5.0;" x1="1856.5" x2="1856.5" y1="37.6094" y2="1298.3594"/><rect fill="#E2E2F0" height="31.6094" rx="2.5" ry="2.5" style="stroke:#181818;stroke-width:0.5;" width="63" x="165.5" y="5"/><text fill="#000000" font-family="sans-serif" font-size="14" lengthAdjust="spacing" textLength="49" x="172.5" y="26.5332">Routing</text><rect fill="#E2E2F0" height="31.6094" rx="2.5" ry="2.5" style="stroke:#181818;stroke-width:0.5;" width="63" x="165.5" y="1297.3594"/><text fill="#000000" font-family="sans-serif" font-size="14" lengthAdjust="spacing" textLength="49" x="172.5" y="1318.8926">Routing</text><rect fill="#E2E2F0" height="31.6094" rx="2.5" ry="2.5" style="stroke:#181818;stroke-width:0.5;" width="105" x="356.5" y="5"/><text fill="#000000" font-family="sans-serif" font-size="14" lengthAdjust="spacing" textLength="91" x="363.5" y="26.5332">StaffController</text><rect fill="#E2E2F0" height="31.6094" rx="2.5" ry="2.5" style="stroke:#181818;stroke-width:0.5;" width="105" x="356.5" y="1297.3594"/><text fill="#000000" font-family="sans-serif" font-size="14" lengthAdjust="spacing" textLength="91" x="363.5" y="1318.8926">StaffController</text><rect fill="#E2E2F0" height="31.6094" rx="2.5" ry="2.5" style="stroke:#181818;stroke-width:0.5;" width="90" x="599" y="5"/><text fill="#000000" font-family="sans-serif" font-size="14" lengthAdjust="spacing" textLength="76" x="606" y="26.5332">StaffService</text><rect fill="#E2E2F0" height="31.6094" rx="2.5" ry="2.5" style="stroke:#181818;stroke-width:0.5;" width="90" x="599" y="1297.3594"/><text fill="#000000" font-family="sans-serif" font-size="14" lengthAdjust="spacing" textLength="76" x="606" y="1318.8926">StaffService</text><rect fill="#E2E2F0" height="31.6094" rx="2.5" ry="2.5" style="stroke:#181818;stroke-width:0.5;" width="101" x="699" y="5"/><text fill="#000000" font-family="sans-serif" font-size="14" lengthAdjust="spacing" textLength="87" x="706" y="26.5332">TokenService</text><rect fill="#E2E2F0" height="31.6094" rx="2.5" ry="2.5" style="stroke:#181818;stroke-width:0.5;" width="101" x="699" y="1297.3594"/><text fill="#000000" font-family="sans-serif" font-size="14" lengthAdjust="spacing" textLength="87" x="706" y="1318.8926">TokenService</text><rect fill="#E2E2F0" height="31.6094" rx="2.5" ry="2.5" style="stroke:#181818;stroke-width:0.5;" width="43" x="861.5" y="5"/><text fill="#000000" font-family="sans-serif" font-size="14" lengthAdjust="spacing" textLength="29" x="868.5" y="26.5332">Staff</text><rect fill="#E2E2F0" height="31.6094" rx="2.5" ry="2.5" style="stroke:#181818;stroke-width:0.5;" width="43" x="861.5" y="1297.3594"/><text fill="#000000" font-family="sans-serif" font-size="14" lengthAdjust="spacing" textLength="29" x="868.5" y="1318.8926">Staff</text><rect fill="#E2E2F0" height="31.6094" rx="2.5" ry="2.5" style="stroke:#181818;stroke-width:0.5;" width="89" x="914.5" y="1297.3594"/><text fill="#000000" font-family="sans-serif" font-size="14" lengthAdjust="spacing" textLength="75" x="921.5" y="1318.8926">LogsBuilder</text><rect fill="#E2E2F0" height="31.6094" rx="2.5" ry="2.5" style="stroke:#181818;stroke-width:0.5;" width="122" x="1013.5" y="5"/><text fill="#000000" font-family="sans-serif" font-size="14" lengthAdjust="spacing" textLength="108" x="1020.5" y="26.5332">TokenRepository</text><rect fill="#E2E2F0" height="31.6094" rx="2.5" ry="2.5" style="stroke:#181818;stroke-width:0.5;" width="122" x="1013.5" y="1297.3594"/><text fill="#000000" font-family="sans-serif" font-size="14" lengthAdjust="spacing" textLength="108" x="1020.5" y="1318.8926">TokenRepository</text><rect fill="#E2E2F0" height="31.6094" rx="2.5" ry="2.5" style="stroke:#181818;stroke-width:0.5;" width="111" x="1145.5" y="5"/><text fill="#000000" font-family="sans-serif" font-size="14" lengthAdjust="spacing" textLength="97" x="1152.5" y="26.5332">StaffRepository</text><rect fill="#E2E2F0" height="31.6094" rx="2.5" ry="2.5" style="stroke:#181818;stroke-width:0.5;" width="111" x="1145.5" y="1297.3594"/><text fill="#000000" font-family="sans-serif" font-size="14" lengthAdjust="spacing" textLength="97" x="1152.5" y="1318.8926">StaffRepository</text><rect fill="#E2E2F0" height="31.6094" rx="2.5" ry="2.5" style="stroke:#181818;stroke-width:0.5;" width="113" x="1266.5" y="5"/><text fill="#000000" font-family="sans-serif" font-size="14" lengthAdjust="spacing" textLength="99" x="1273.5" y="26.5332">LogsRepository</text><rect fill="#E2E2F0" height="31.6094" rx="2.5" ry="2.5" style="stroke:#181818;stroke-width:0.5;" width="113" x="1266.5" y="1297.3594"/><text fill="#000000" font-family="sans-serif" font-size="14" lengthAdjust="spacing" textLength="99" x="1273.5" y="1318.8926">LogsRepository</text><rect fill="#E2E2F0" height="31.6094" rx="2.5" ry="2.5" style="stroke:#181818;stroke-width:0.5;" width="168" x="1389.5" y="5"/><text fill="#000000" font-family="sans-serif" font-size="14" lengthAdjust="spacing" textLength="154" x="1396.5" y="26.5332">SpecializationRepository</text><rect fill="#E2E2F0" height="31.6094" rx="2.5" ry="2.5" style="stroke:#181818;stroke-width:0.5;" width="168" x="1389.5" y="1297.3594"/><text fill="#000000" font-family="sans-serif" font-size="14" lengthAdjust="spacing" textLength="154" x="1396.5" y="1318.8926">SpecializationRepository</text><rect fill="#E2E2F0" height="31.6094" rx="2.5" ry="2.5" style="stroke:#181818;stroke-width:0.5;" width="179" x="1567.5" y="5"/><text fill="#000000" font-family="sans-serif" font-size="14" lengthAdjust="spacing" textLength="165" x="1574.5" y="26.5332">AvailabilitySlotsRepository</text><rect fill="#E2E2F0" height="31.6094" rx="2.5" ry="2.5" style="stroke:#181818;stroke-width:0.5;" width="179" x="1567.5" y="1297.3594"/><text fill="#000000" font-family="sans-serif" font-size="14" lengthAdjust="spacing" textLength="165" x="1574.5" y="1318.8926">AvailabilitySlotsRepository</text><rect fill="#E2E2F0" height="31.6094" rx="2.5" ry="2.5" style="stroke:#181818;stroke-width:0.5;" width="201" x="1756.5" y="5"/><text fill="#000000" font-family="sans-serif" font-size="14" lengthAdjust="spacing" textLength="187" x="1763.5" y="26.5332">ContactInformationRepository</text><rect fill="#E2E2F0" height="31.6094" rx="2.5" ry="2.5" style="stroke:#181818;stroke-width:0.5;" width="201" x="1756.5" y="1297.3594"/><text fill="#000000" font-family="sans-serif" font-size="14" lengthAdjust="spacing" textLength="187" x="1763.5" y="1318.8926">ContactInformationRepository</text><rect fill="#FFFFFF" height="30.3516" style="stroke:#181818;stroke-width:1.0;" width="10" x="192" y="69.9609"/><rect fill="#FFFFFF" height="30.3516" style="stroke:#181818;stroke-width:1.0;" width="10" x="192" y="1250.0078"/><rect fill="#FFFFFF" height="30.3516" style="stroke:#181818;stroke-width:1.0;" width="10" x="404" y="100.3125"/><rect fill="#FFFFFF" height="30.3516" style="stroke:#181818;stroke-width:1.0;" width="10" x="404" y="221.7188"/><rect fill="#FFFFFF" height="55.7031" style="stroke:#181818;stroke-width:1.0;" width="10" x="404" y="343.125"/><rect fill="#FFFFFF" height="30.3516" style="stroke:#181818;stroke-width:1.0;" width="10" x="404" y="1219.6563"/><rect fill="#FFFFFF" height="30.3516" style="stroke:#181818;stroke-width:1.0;" width="10" x="639" y="252.0703"/><rect fill="#FFFFFF" height="30.3516" style="stroke:#181818;stroke-width:1.0;" width="10" x="639" y="312.7734"/><rect fill="#FFFFFF" height="30.3516" style="stroke:#181818;stroke-width:1.0;" width="10" x="639" y="398.8281"/><rect fill="#FFFFFF" height="30.3516" style="stroke:#181818;stroke-width:1.0;" width="10" x="639" y="459.5313"/><rect fill="#FFFFFF" height="72.9609" style="stroke:#181818;stroke-width:1.0;" width="10" x="639" y="520.2344"/><rect fill="#FFFFFF" height="91.0547" style="stroke:#181818;stroke-width:1.0;" width="10" x="639" y="623.5469"/><rect fill="#FFFFFF" height="100.0547" style="stroke:#181818;stroke-width:1.0;" width="10" x="639" y="744.9531"/><rect fill="#FFFFFF" height="55.7031" style="stroke:#181818;stroke-width:1.0;" width="10" x="639" y="875.3594"/><rect fill="#FFFFFF" height="30.3516" style="stroke:#181818;stroke-width:1.0;" width="10" x="639" y="945.0625"/><rect fill="#FFFFFF" height="46.1875" style="stroke:#181818;stroke-width:1.0;" width="10" x="639" y="989.4141"/><rect fill="#FFFFFF" height="51.3516" style="stroke:#181818;stroke-width:1.0;" width="10" x="639" y="1049.6016"/><rect fill="#FFFFFF" height="60.3516" style="stroke:#181818;stroke-width:1.0;" width="10" x="639" y="1114.9531"/><rect fill="#FFFFFF" height="30.3516" style="stroke:#181818;stroke-width:1.0;" width="10" x="639" y="1189.3047"/><rect fill="#FFFFFF" height="30.3516" style="stroke:#181818;stroke-width:1.0;" width="10" x="744.5" y="130.6641"/><rect fill="#FFFFFF" height="30.3516" style="stroke:#181818;stroke-width:1.0;" width="10" x="744.5" y="191.3672"/><rect fill="#FFFFFF" height="14" style="stroke:#181818;stroke-width:1.0;" width="10" x="878" y="775.3047"/><rect fill="#FFFFFF" height="14" style="stroke:#181818;stroke-width:1.0;" width="10" x="878" y="975.4141"/><rect fill="#FFFFFF" height="14" style="stroke:#181818;stroke-width:1.0;" width="10" x="878" y="1035.6016"/><rect fill="#FFFFFF" height="30.3516" style="stroke:#181818;stroke-width:1.0;" width="10" x="954" y="593.1953"/><rect fill="#FFFFFF" height="30.3516" style="stroke:#181818;stroke-width:1.0;" width="10" x="1069.5" y="161.0156"/><rect fill="#FFFFFF" height="44" style="stroke:#181818;stroke-width:1.0;" width="10" x="1069.5" y="1100.9531"/><rect fill="#FFFFFF" height="30.3516" style="stroke:#181818;stroke-width:1.0;" width="10" x="1196" y="282.4219"/><rect fill="#FFFFFF" height="30.3516" style="stroke:#181818;stroke-width:1.0;" width="10" x="1196" y="489.8828"/><rect fill="#FFFFFF" height="14" style="stroke:#181818;stroke-width:1.0;" width="10" x="1196" y="1175.3047"/><rect fill="#FFFFFF" height="30.3516" style="stroke:#181818;stroke-width:1.0;" width="10" x="1318" y="429.1797"/><rect fill="#FFFFFF" height="30.3516" style="stroke:#181818;stroke-width:1.0;" width="10" x="1468.5" y="714.6016"/><rect fill="#FFFFFF" height="30.3516" style="stroke:#181818;stroke-width:1.0;" width="10" x="1652" y="845.0078"/><rect fill="#FFFFFF" height="14" style="stroke:#181818;stroke-width:1.0;" width="10" x="1652" y="931.0625"/><polygon fill="#181818" points="180,65.9609,190,69.9609,180,73.9609,184,69.9609" style="stroke:#181818;stroke-width:1.0;"/><line style="stroke:#181818;stroke-width:1.0;" x1="0" x2="186" y1="69.9609" y2="69.9609"/><text fill="#000000" font-family="sans-serif" font-size="13" lengthAdjust="spacing" textLength="173" x="7" y="65.1045">PUT(tokenId, password, logId)</text><polygon fill="#181818" points="392,96.3125,402,100.3125,392,104.3125,396,100.3125" style="stroke:#181818;stroke-width:1.0;"/><line style="stroke:#181818;stroke-width:1.0;" x1="197" x2="398" y1="100.3125" y2="100.3125"/><text fill="#000000" font-family="sans-serif" font-size="13" lengthAdjust="spacing" textLength="183" x="204" y="95.4561">UpdateStaff(newStaffDTO, auth)</text><polygon fill="#181818" points="732.5,126.6641,742.5,130.6641,732.5,134.6641,736.5,130.6641" style="stroke:#181818;stroke-width:1.0;"/><line style="stroke:#181818;stroke-width:1.0;" x1="409" x2="738.5" y1="130.6641" y2="130.6641"/><text fill="#000000" font-family="sans-serif" font-size="13" lengthAdjust="spacing" textLength="134" x="416" y="125.8076">GetByIdAsync(tokenId)</text><polygon fill="#181818" points="1057.5,157.0156,1067.5,161.0156,1057.5,165.0156,1061.5,161.0156" style="stroke:#181818;stroke-width:1.0;"/><line style="stroke:#181818;stroke-width:1.0;" x1="749.5" x2="1063.5" y1="161.0156" y2="161.0156"/><text fill="#000000" font-family="sans-serif" font-size="13" lengthAdjust="spacing" textLength="134" x="756.5" y="156.1592">GetByIdAsync(tokenId)</text><polygon fill="#181818" points="765.5,187.3672,755.5,191.3672,765.5,195.3672,761.5,191.3672" style="stroke:#181818;stroke-width:1.0;"/><line style="stroke:#181818;stroke-width:1.0;stroke-dasharray:2.0,2.0;" x1="759.5" x2="1073.5" y1="191.3672" y2="191.3672"/><text fill="#000000" font-family="sans-serif" font-size="13" lengthAdjust="spacing" textLength="32" x="771.5" y="186.5107">token</text><polygon fill="#181818" points="425,217.7188,415,221.7188,425,225.7188,421,221.7188" style="stroke:#181818;stroke-width:1.0;"/><line style="stroke:#181818;stroke-width:1.0;stroke-dasharray:2.0,2.0;" x1="419" x2="748.5" y1="221.7188" y2="221.7188"/><text fill="#000000" font-family="sans-serif" font-size="13" lengthAdjust="spacing" textLength="58" x="431" y="216.8623">tokenDTO</text><polygon fill="#181818" points="627,248.0703,637,252.0703,627,256.0703,631,252.0703" style="stroke:#181818;stroke-width:1.0;"/><line style="stroke:#181818;stroke-width:1.0;" x1="409" x2="633" y1="252.0703" y2="252.0703"/><text fill="#000000" font-family="sans-serif" font-size="13" lengthAdjust="spacing" textLength="134" x="416" y="247.2139">GetLatestVersion(user)</text><polygon fill="#181818" points="1184,278.4219,1194,282.4219,1184,286.4219,1188,282.4219" style="stroke:#181818;stroke-width:1.0;"/><line style="stroke:#181818;stroke-width:1.0;" x1="644" x2="1190" y1="282.4219" y2="282.4219"/><text fill="#000000" font-family="sans-serif" font-size="13" lengthAdjust="spacing" textLength="123" x="651" y="277.5654">GetStaffByUser(user)</text><polygon fill="#181818" points="660,308.7734,650,312.7734,660,316.7734,656,312.7734" style="stroke:#181818;stroke-width:1.0;"/><line style="stroke:#181818;stroke-width:1.0;stroke-dasharray:2.0,2.0;" x1="654" x2="1200" y1="312.7734" y2="312.7734"/><text fill="#000000" font-family="sans-serif" font-size="13" lengthAdjust="spacing" textLength="24" x="666" y="307.917">staff</text><polygon fill="#181818" points="425,339.125,415,343.125,425,347.125,421,343.125" style="stroke:#181818;stroke-width:1.0;"/><line style="stroke:#181818;stroke-width:1.0;stroke-dasharray:2.0,2.0;" x1="419" x2="643" y1="343.125" y2="343.125"/><text fill="#000000" font-family="sans-serif" font-size="13" lengthAdjust="spacing" textLength="24" x="431" y="338.2686">staff</text><path d="M346.5,358.125 L407.5,358.125 L407.5,366.4766 L397.5,376.4766 L346.5,376.4766 L346.5,358.125 " fill="#EEEEEE" style="stroke:#000000;stroke-width:1.5;"/><rect fill="none" height="713.4766" style="stroke:#000000;stroke-width:1.5;" width="1621" x="346.5" y="358.125"/><text fill="#000000" font-family="sans-serif" font-size="13" font-weight="bold" lengthAdjust="spacing" textLength="16" x="361.5" y="372.6201">alt</text><text fill="#000000" font-family="sans-serif" font-size="11" font-weight="bold" lengthAdjust="spacing" textLength="202" x="422.5" y="371.5439">[password matches staff password]</text><polygon fill="#181818" points="627,394.8281,637,398.8281,627,402.8281,631,398.8281" style="stroke:#181818;stroke-width:1.0;"/><line style="stroke:#181818;stroke-width:1.0;" x1="409" x2="633" y1="398.8281" y2="398.8281"/><text fill="#000000" font-family="sans-serif" font-size="13" lengthAdjust="spacing" textLength="206" x="416" y="393.9717">UpdateVersion(staff, logID, tokenID)</text><polygon fill="#181818" points="1306,425.1797,1316,429.1797,1306,433.1797,1310,429.1797" style="stroke:#181818;stroke-width:1.0;"/><line style="stroke:#181818;stroke-width:1.0;" x1="644" x2="1312" y1="429.1797" y2="429.1797"/><text fill="#000000" font-family="sans-serif" font-size="13" lengthAdjust="spacing" textLength="121" x="651" y="424.3232">GetByIdAsync(logID)</text><polygon fill="#181818" points="660,455.5313,650,459.5313,660,463.5313,656,459.5313" style="stroke:#181818;stroke-width:1.0;"/><line style="stroke:#181818;stroke-width:1.0;stroke-dasharray:2.0,2.0;" x1="654" x2="1322" y1="459.5313" y2="459.5313"/><text fill="#000000" font-family="sans-serif" font-size="13" lengthAdjust="spacing" textLength="80" x="666" y="454.6748">logInformation</text><polygon fill="#181818" points="1184,485.8828,1194,489.8828,1184,493.8828,1188,489.8828" style="stroke:#181818;stroke-width:1.0;"/><line style="stroke:#181818;stroke-width:1.0;" x1="644" x2="1190" y1="489.8828" y2="489.8828"/><text fill="#000000" font-family="sans-serif" font-size="13" lengthAdjust="spacing" textLength="244" x="651" y="485.0264">GetStaffByLicense(loggedLicenseNumber)</text><polygon fill="#181818" points="660,516.2344,650,520.2344,660,524.2344,656,520.2344" style="stroke:#181818;stroke-width:1.0;"/><line style="stroke:#181818;stroke-width:1.0;stroke-dasharray:2.0,2.0;" x1="654" x2="1200" y1="520.2344" y2="520.2344"/><text fill="#000000" font-family="sans-serif" font-size="13" lengthAdjust="spacing" textLength="106" x="666" y="515.3779">oldStaffInformation</text><polygon fill="#181818" points="902.5,546.5859,912.5,550.5859,902.5,554.5859,906.5,550.5859" style="stroke:#181818;stroke-width:1.0;"/><line style="stroke:#181818;stroke-width:1.0;" x1="649" x2="908.5" y1="550.5859" y2="550.5859"/><text fill="#000000" font-family="sans-serif" font-size="13" lengthAdjust="spacing" textLength="44" x="656" y="545.7295">create()</text><rect fill="#E2E2F0" height="31.6094" rx="2.5" ry="2.5" style="stroke:#181818;stroke-width:0.5;" width="89" x="914.5" y="528.2344"/><text fill="#000000" font-family="sans-serif" font-size="14" lengthAdjust="spacing" textLength="75" x="921.5" y="549.7676">LogsBuilder</text><polygon fill="#181818" points="942,589.1953,952,593.1953,942,597.1953,946,593.1953" style="stroke:#181818;stroke-width:1.0;"/><line style="stroke:#181818;stroke-width:1.0;" x1="644" x2="948" y1="593.1953" y2="593.1953"/><text fill="#000000" font-family="sans-serif" font-size="13" lengthAdjust="spacing" textLength="235" x="651" y="588.3389">updateLogsWithData(oldStaffInformation)</text><polygon fill="#181818" points="660,619.5469,650,623.5469,660,627.5469,656,623.5469" style="stroke:#181818;stroke-width:1.0;"/><line style="stroke:#181818;stroke-width:1.0;stroke-dasharray:2.0,2.0;" x1="654" x2="958" y1="623.5469" y2="623.5469"/><text fill="#000000" font-family="sans-serif" font-size="13" lengthAdjust="spacing" textLength="17" x="666" y="618.6904">log</text><polygon fill="#181818" points="1311,649.8984,1321,653.8984,1311,657.8984,1315,653.8984" style="stroke:#181818;stroke-width:1.0;"/><line style="stroke:#181818;stroke-width:1.0;" x1="649" x2="1317" y1="653.8984" y2="653.8984"/><text fill="#000000" font-family="sans-serif" font-size="13" lengthAdjust="spacing" textLength="85" x="656" y="649.042">AddAsync(log)</text><polygon fill="#181818" points="1845,680.25,1855,684.25,1845,688.25,1849,684.25" style="stroke:#181818;stroke-width:1.0;"/><line style="stroke:#181818;stroke-width:1.0;" x1="649" x2="1851" y1="684.25" y2="684.25"/><text fill="#000000" font-family="sans-serif" font-size="13" lengthAdjust="spacing" textLength="200" x="656" y="679.3936">Remove(loggedContactInformation)</text><polygon fill="#181818" points="1456.5,710.6016,1466.5,714.6016,1456.5,718.6016,1460.5,714.6016" style="stroke:#181818;stroke-width:1.0;"/><line style="stroke:#181818;stroke-width:1.0;" x1="644" x2="1462.5" y1="714.6016" y2="714.6016"/><text fill="#000000" font-family="sans-serif" font-size="13" lengthAdjust="spacing" textLength="171" x="651" y="709.7451">GetByIdAsync(specialization)</text><polygon fill="#181818" points="660,740.9531,650,744.9531,660,748.9531,656,744.9531" style="stroke:#181818;stroke-width:1.0;"/><line style="stroke:#181818;stroke-width:1.0;stroke-dasharray:2.0,2.0;" x1="654" x2="1472.5" y1="744.9531" y2="744.9531"/><text fill="#000000" font-family="sans-serif" font-size="13" lengthAdjust="spacing" textLength="79" x="666" y="740.0967">specialization</text><polygon fill="#181818" points="866,771.3047,876,775.3047,866,779.3047,870,775.3047" style="stroke:#181818;stroke-width:1.0;"/><line style="stroke:#181818;stroke-width:1.0;" x1="649" x2="872" y1="775.3047" y2="775.3047"/><text fill="#000000" font-family="sans-serif" font-size="13" lengthAdjust="spacing" textLength="210" x="656" y="770.4482">changeSpecialization(specialization)</text><polygon fill="#181818" points="660,785.3047,650,789.3047,660,793.3047,656,789.3047" style="stroke:#181818;stroke-width:1.0;"/><line style="stroke:#181818;stroke-width:1.0;stroke-dasharray:2.0,2.0;" x1="654" x2="882" y1="789.3047" y2="789.3047"/><path d="M579,804.3047 L652,804.3047 L652,812.6563 L642,822.6563 L579,822.6563 L579,804.3047 " fill="#EEEEEE" style="stroke:#000000;stroke-width:1.5;"/><rect fill="none" height="260.2969" style="stroke:#000000;stroke-width:1.5;" width="1187.5" x="579" y="804.3047"/><text fill="#000000" font-family="sans-serif" font-size="13" font-weight="bold" lengthAdjust="spacing" textLength="28" x="594" y="818.7998">loop</text><text fill="#000000" font-family="sans-serif" font-size="11" font-weight="bold" lengthAdjust="spacing" textLength="201" x="667" y="817.7236">[for each Availability in newStaffDTO]</text><polygon fill="#181818" points="1640,841.0078,1650,845.0078,1640,849.0078,1644,845.0078" style="stroke:#181818;stroke-width:1.0;"/><line style="stroke:#181818;stroke-width:1.0;" x1="644" x2="1646" y1="845.0078" y2="845.0078"/><text fill="#000000" font-family="sans-serif" font-size="13" lengthAdjust="spacing" textLength="226" x="651" y="840.1514">GetAvailabilitySlots(staffLicense, time);</text><polygon fill="#181818" points="660,871.3594,650,875.3594,660,879.3594,656,875.3594" style="stroke:#181818;stroke-width:1.0;"/><line style="stroke:#181818;stroke-width:1.0;stroke-dasharray:2.0,2.0;" x1="654" x2="1656" y1="875.3594" y2="875.3594"/><text fill="#000000" font-family="sans-serif" font-size="13" lengthAdjust="spacing" textLength="84" x="666" y="870.5029">AvailabilitySlot</text><path d="M589,890.3594 L650,890.3594 L650,898.7109 L640,908.7109 L589,908.7109 L589,890.3594 " fill="#EEEEEE" style="stroke:#000000;stroke-width:1.5;"/><rect fill="none" height="167.2422" style="stroke:#000000;stroke-width:1.5;" width="1167.5" x="589" y="890.3594"/><text fill="#000000" font-family="sans-serif" font-size="13" font-weight="bold" lengthAdjust="spacing" textLength="16" x="604" y="904.8545">alt</text><text fill="#000000" font-family="sans-serif" font-size="11" font-weight="bold" lengthAdjust="spacing" textLength="162" x="665" y="903.7783">[AvailabilitySlot doesn't exist]</text><polygon fill="#181818" points="1640,927.0625,1650,931.0625,1640,935.0625,1644,931.0625" style="stroke:#181818;stroke-width:1.0;"/><line style="stroke:#181818;stroke-width:1.0;" x1="644" x2="1646" y1="931.0625" y2="931.0625"/><text fill="#000000" font-family="sans-serif" font-size="13" lengthAdjust="spacing" textLength="129" x="651" y="926.2061">AddAsync(Availability)</text><polygon fill="#181818" points="660,941.0625,650,945.0625,660,949.0625,656,945.0625" style="stroke:#181818;stroke-width:1.0;"/><line style="stroke:#181818;stroke-width:1.0;stroke-dasharray:2.0,2.0;" x1="654" x2="1656" y1="945.0625" y2="945.0625"/><polygon fill="#181818" points="866,971.4141,876,975.4141,866,979.4141,870,975.4141" style="stroke:#181818;stroke-width:1.0;"/><line style="stroke:#181818;stroke-width:1.0;" x1="644" x2="872" y1="975.4141" y2="975.4141"/><text fill="#000000" font-family="sans-serif" font-size="13" lengthAdjust="spacing" textLength="176" x="651" y="970.5576">AddAvailabilitySlot(Availability)</text><polygon fill="#181818" points="660,985.4141,650,989.4141,660,993.4141,656,989.4141" style="stroke:#181818;stroke-width:1.0;"/><line style="stroke:#181818;stroke-width:1.0;stroke-dasharray:2.0,2.0;" x1="654" x2="882" y1="989.4141" y2="989.4141"/><line style="stroke:#000000;stroke-width:1.0;stroke-dasharray:2.0,2.0;" x1="589" x2="1756.5" y1="998.4141" y2="998.4141"/><text fill="#000000" font-family="sans-serif" font-size="11" font-weight="bold" lengthAdjust="spacing" textLength="124" x="594" y="1009.833">[AvailabilitySlot exists]</text><polygon fill="#181818" points="866,1031.6016,876,1035.6016,866,1039.6016,870,1035.6016" style="stroke:#181818;stroke-width:1.0;"/><line style="stroke:#181818;stroke-width:1.0;" x1="644" x2="872" y1="1035.6016" y2="1035.6016"/><text fill="#000000" font-family="sans-serif" font-size="13" lengthAdjust="spacing" textLength="199" x="651" y="1030.7451">AddAvailabilitySlot(AvailabilitySlot)</text><polygon fill="#181818" points="660,1045.6016,650,1049.6016,660,1053.6016,656,1049.6016" style="stroke:#181818;stroke-width:1.0;"/><line style="stroke:#181818;stroke-width:1.0;stroke-dasharray:2.0,2.0;" x1="654" x2="882" y1="1049.6016" y2="1049.6016"/><polygon fill="#181818" points="1057.5,1096.9531,1067.5,1100.9531,1057.5,1104.9531,1061.5,1100.9531" style="stroke:#181818;stroke-width:1.0;"/><line style="stroke:#181818;stroke-width:1.0;" x1="644" x2="1063.5" y1="1100.9531" y2="1100.9531"/><text fill="#000000" font-family="sans-serif" font-size="13" lengthAdjust="spacing" textLength="86" x="651" y="1096.0967">Remove(token)</text><polygon fill="#181818" points="660,1110.9531,650,1114.9531,660,1118.9531,656,1114.9531" style="stroke:#181818;stroke-width:1.0;"/><line style="stroke:#181818;stroke-width:1.0;stroke-dasharray:2.0,2.0;" x1="654" x2="1068.5" y1="1114.9531" y2="1114.9531"/><polygon fill="#181818" points="1184,1171.3047,1194,1175.3047,1184,1179.3047,1188,1175.3047" style="stroke:#181818;stroke-width:1.0;"/><line style="stroke:#181818;stroke-width:1.0;" x1="644" x2="1190" y1="1175.3047" y2="1175.3047"/><text fill="#000000" font-family="sans-serif" font-size="13" lengthAdjust="spacing" textLength="73" x="651" y="1170.4482">Update(staff)</text><polygon fill="#181818" points="660,1185.3047,650,1189.3047,660,1193.3047,656,1189.3047" style="stroke:#181818;stroke-width:1.0;"/><line style="stroke:#181818;stroke-width:1.0;stroke-dasharray:2.0,2.0;" x1="654" x2="1200" y1="1189.3047" y2="1189.3047"/><polygon fill="#181818" points="425,1215.6563,415,1219.6563,425,1223.6563,421,1219.6563" style="stroke:#181818;stroke-width:1.0;"/><line style="stroke:#181818;stroke-width:1.0;" x1="419" x2="643" y1="1219.6563" y2="1219.6563"/><text fill="#000000" font-family="sans-serif" font-size="13" lengthAdjust="spacing" textLength="50" x="431" y="1214.7998">staffDTO</text><polygon fill="#181818" points="213,1246.0078,203,1250.0078,213,1254.0078,209,1250.0078" style="stroke:#181818;stroke-width:1.0;"/><line style="stroke:#181818;stroke-width:1.0;stroke-dasharray:2.0,2.0;" x1="207" x2="408" y1="1250.0078" y2="1250.0078"/><text fill="#000000" font-family="sans-serif" font-size="13" lengthAdjust="spacing" textLength="50" x="219" y="1245.1514">staffDTO</text><polygon fill="#181818" points="11,1276.3594,1,1280.3594,11,1284.3594,7,1280.3594" style="stroke:#181818;stroke-width:1.0;"/><line style="stroke:#181818;stroke-width:1.0;stroke-dasharray:2.0,2.0;" x1="5" x2="196" y1="1280.3594" y2="1280.3594"/><text fill="#000000" font-family="sans-serif" font-size="13" lengthAdjust="spacing" textLength="50" x="17" y="1275.5029">staffDTO</text><!--SRC=[lPPRRziW582VpQ_WRN6L_85jcjGkqXIfsgPUjcTgqmIL6CkGTDcltm4CvkPcxQGzj8hXd8zpWtDwCYZMi9vq2j-8WsBT5XE91_X9KHzitYho-FXPT6eGdDD12pLguBdCBHsEhA5QG9hlOnC9tOadsWL2wgbBHGp70wAjQx6LLmV6Mphar1lQ2ycK64uZM2_av5XCkgNid5YEZoinhwSD8vpz9eg9v7m9Uvd2vP4mJXuOP-fqouLA3Y57mZCT7NNIg4ttA8PzuQ36xXizjFfaauVVu-_tTmkbux9fbxWdKZwB0Nw18vksHg31ZWG4RQwj4cZhh8BoVT_2fedNegFFviVwxjiIauFQrQYbYRx_D5M130LeDhl0-qBLrMdJNifJrpYh8epHyrzZLQ1HtvAqXtCe7B96xV3RHiT1Lg5f1f6e6_5PQwOm6Ls8oqkd6z4f9EvMM4-kGKAg7tIGaDV5GTBXXQZu2uKyn06ds9XKNPtk0PNpF25UiT6PGAlOJdiFKqmSev9jKvpAX2nC216kVArYgFPcHySxwfTHLGYbhLSNHxDXItszj4dQh6jKfP6j2kPNOMpThK_Bpf1Ze2TCKFzceCg3aj1gq7In8w3NFcjbkGAkuONj9DMsRcaxVdqzx1zqJPonFAYAQhOi16_DKNCEJ92p7WJl-iK5e9k1WlIYdXS3eOF9kLxxoTHkJHHP54mwwslOKr0L7f7dAcA5Yg-ffCjsgg8wbWhUSX2yeNjnT0dCsq0Q7TTnqcALKPSwdtk7qNZtEtqH8cHCT7tlxyfM9tj7kYsDUsbkT4mRIQbTkM_cxeaUGzGmREsY5enPXuFk1kgHWQuTsu1clTi-C-F5WcU6xMdz0H35y4xs-oQl5zq9YH_fMJ7L4wfYZ2lzYAO4t0egktSAqrzCQjwSfxuwGqAj5Sf-vOxfmfbrBG45hfHzALQCjZ7nx_NcklAeYgLK8fIDh2hA9Sq3RW8jt-g2NlZVRdJGM_K__HUD6DFmDJv9fgMUcIoAKrTWMQvQcC5c9ntRyEqL_FSHvmt3JJpR93FWt7XZ9vTWI9V-wPcT-gmeGXzNgqmj7yJ_0000]--></g></svg>