<?xml version="1.0" encoding="us-ascii" standalone="no"?><svg xmlns="http://www.w3.org/2000/svg" xmlns:xlink="http://www.w3.org/1999/xlink" contentStyleType="text/css" height="509px" preserveAspectRatio="none" style="width:1101px;height:509px;background:#FFFFFF;" version="1.1" viewBox="0 0 1101 509" width="1101px" zoomAndPan="magnify"><defs/><g><text fill="#000000" font-family="sans-serif" font-size="14" font-weight="bold" lengthAdjust="spacing" textLength="240" x="429.5" y="27.9951">Sequence Diagram - US 7.2.12</text><rect fill="#FFFFFF" height="351.5938" style="stroke:#181818;stroke-width:1.0;" width="10" x="205" y="104.7266"/><rect fill="#FFFFFF" height="293.3281" style="stroke:#181818;stroke-width:1.0;" width="10" x="412" y="133.8594"/><rect fill="#FFFFFF" height="190.9609" style="stroke:#181818;stroke-width:1.0;" width="10" x="597" y="207.0938"/><rect fill="#FFFFFF" height="67.2656" style="stroke:#181818;stroke-width:1.0;" width="10" x="850" y="260.3594"/><rect fill="none" height="77.3984" style="stroke:#000000;stroke-width:1.5;" width="443" x="513" y="222.0938"/><line style="stroke:#181818;stroke-width:0.5;stroke-dasharray:5.0,5.0;" x1="210" x2="210" y1="73.5938" y2="474.3203"/><line style="stroke:#181818;stroke-width:0.5;stroke-dasharray:5.0,5.0;" x1="416.5" x2="416.5" y1="73.5938" y2="474.3203"/><line style="stroke:#181818;stroke-width:0.5;stroke-dasharray:5.0,5.0;" x1="602" x2="602" y1="73.5938" y2="474.3203"/><line style="stroke:#181818;stroke-width:0.5;stroke-dasharray:5.0,5.0;" x1="855" x2="855" y1="73.5938" y2="474.3203"/><line style="stroke:#181818;stroke-width:0.5;stroke-dasharray:5.0,5.0;" x1="1025" x2="1025" y1="366.2734" y2="474.3203"/><rect fill="#E2E2F0" height="30.2969" rx="2.5" ry="2.5" style="stroke:#181818;stroke-width:0.5;" width="68" x="176" y="42.2969"/><text fill="#000000" font-family="sans-serif" font-size="14" lengthAdjust="spacing" textLength="54" x="183" y="62.292">Routing</text><rect fill="#E2E2F0" height="30.2969" rx="2.5" ry="2.5" style="stroke:#181818;stroke-width:0.5;" width="68" x="176" y="473.3203"/><text fill="#000000" font-family="sans-serif" font-size="14" lengthAdjust="spacing" textLength="54" x="183" y="493.3154">Routing</text><rect fill="#E2E2F0" height="30.2969" rx="2.5" ry="2.5" style="stroke:#181818;stroke-width:0.5;" width="175" x="329.5" y="42.2969"/><text fill="#000000" font-family="sans-serif" font-size="14" lengthAdjust="spacing" textLength="161" x="336.5" y="62.292">SpecializationController</text><rect fill="#E2E2F0" height="30.2969" rx="2.5" ry="2.5" style="stroke:#181818;stroke-width:0.5;" width="175" x="329.5" y="473.3203"/><text fill="#000000" font-family="sans-serif" font-size="14" lengthAdjust="spacing" textLength="161" x="336.5" y="493.3154">SpecializationController</text><rect fill="#E2E2F0" height="30.2969" rx="2.5" ry="2.5" style="stroke:#181818;stroke-width:0.5;" width="158" x="523" y="42.2969"/><text fill="#000000" font-family="sans-serif" font-size="14" lengthAdjust="spacing" textLength="144" x="530" y="62.292">SpecializationService</text><rect fill="#E2E2F0" height="30.2969" rx="2.5" ry="2.5" style="stroke:#181818;stroke-width:0.5;" width="158" x="523" y="473.3203"/><text fill="#000000" font-family="sans-serif" font-size="14" lengthAdjust="spacing" textLength="144" x="530" y="493.3154">SpecializationService</text><rect fill="#E2E2F0" height="30.2969" rx="2.5" ry="2.5" style="stroke:#181818;stroke-width:0.5;" width="182" x="764" y="42.2969"/><text fill="#000000" font-family="sans-serif" font-size="14" lengthAdjust="spacing" textLength="168" x="771" y="62.292">SpecializationRepository</text><rect fill="#E2E2F0" height="30.2969" rx="2.5" ry="2.5" style="stroke:#181818;stroke-width:0.5;" width="182" x="764" y="473.3203"/><text fill="#000000" font-family="sans-serif" font-size="14" lengthAdjust="spacing" textLength="168" x="771" y="493.3154">SpecializationRepository</text><rect fill="#E2E2F0" height="30.2969" rx="2.5" ry="2.5" style="stroke:#181818;stroke-width:0.5;" width="139" x="956" y="473.3203"/><text fill="#000000" font-family="sans-serif" font-size="14" lengthAdjust="spacing" textLength="125" x="963" y="493.3154">SpecializationDTO</text><rect fill="#FFFFFF" height="351.5938" style="stroke:#181818;stroke-width:1.0;" width="10" x="205" y="104.7266"/><rect fill="#FFFFFF" height="293.3281" style="stroke:#181818;stroke-width:1.0;" width="10" x="412" y="133.8594"/><rect fill="#FFFFFF" height="190.9609" style="stroke:#181818;stroke-width:1.0;" width="10" x="597" y="207.0938"/><rect fill="#FFFFFF" height="67.2656" style="stroke:#181818;stroke-width:1.0;" width="10" x="850" y="260.3594"/><polygon fill="#181818" points="193,100.7266,203,104.7266,193,108.7266,197,104.7266" style="stroke:#181818;stroke-width:1.0;"/><line style="stroke:#181818;stroke-width:1.0;" x1="0" x2="199" y1="104.7266" y2="104.7266"/><text fill="#000000" font-family="sans-serif" font-size="13" lengthAdjust="spacing" textLength="186" x="7" y="99.6606">GET(code, name, authToken)</text><polygon fill="#181818" points="400,129.8594,410,133.8594,400,137.8594,404,133.8594" style="stroke:#181818;stroke-width:1.0;"/><line style="stroke:#181818;stroke-width:1.0;" x1="215" x2="406" y1="133.8594" y2="133.8594"/><text fill="#000000" font-family="sans-serif" font-size="13" lengthAdjust="spacing" textLength="178" x="222" y="128.7935">FilteredSearch(code, name)</text><rect fill="none" height="39.1016" style="stroke:#000000;stroke-width:1.5;" width="181" x="326.5" y="141.8594"/><path d="M326.5,141.8594 L392.5,141.8594 L392.5,148.8594 L382.5,158.8594 L326.5,158.8594 L326.5,141.8594 " fill="#EEEEEE" style="stroke:#000000;stroke-width:2.0;"/><text fill="#000000" font-family="sans-serif" font-size="13" font-weight="bold" lengthAdjust="spacing" textLength="21" x="339.5" y="155.9263">ref</text><text fill="#000000" font-family="sans-serif" font-size="12" lengthAdjust="spacing" textLength="155" x="339.5" y="173.998">Refer to generic auth SD</text><polygon fill="#181818" points="585,203.0938,595,207.0938,585,211.0938,589,207.0938" style="stroke:#181818;stroke-width:1.0;"/><line style="stroke:#181818;stroke-width:1.0;" x1="422" x2="591" y1="207.0938" y2="207.0938"/><text fill="#000000" font-family="sans-serif" font-size="13" lengthAdjust="spacing" textLength="156" x="429" y="202.0278">FilteredGet(code, name)</text><path d="M513,222.0938 L577,222.0938 L577,229.2266 L567,239.2266 L513,239.2266 L513,222.0938 " fill="#EEEEEE" style="stroke:#000000;stroke-width:1.5;"/><rect fill="none" height="77.3984" style="stroke:#000000;stroke-width:1.5;" width="443" x="513" y="222.0938"/><text fill="#000000" font-family="sans-serif" font-size="13" font-weight="bold" lengthAdjust="spacing" textLength="19" x="528" y="235.1606">alt</text><text fill="#000000" font-family="sans-serif" font-size="11" font-weight="bold" lengthAdjust="spacing" textLength="144" x="592" y="234.3042">[code is null or empty]</text><polygon fill="#181818" points="838,256.3594,848,260.3594,838,264.3594,842,260.3594" style="stroke:#181818;stroke-width:1.0;"/><line style="stroke:#181818;stroke-width:1.0;" x1="607" x2="844" y1="260.3594" y2="260.3594"/><text fill="#000000" font-family="sans-serif" font-size="13" lengthAdjust="spacing" textLength="215" x="614" y="255.2935">GetByName(SpecializationName)</text><line style="stroke:#000000;stroke-width:1.0;stroke-dasharray:2.0,2.0;" x1="513" x2="956" y1="269.3594" y2="269.3594"/><polygon fill="#181818" points="838,287.4922,848,291.4922,838,295.4922,842,291.4922" style="stroke:#181818;stroke-width:1.0;"/><line style="stroke:#181818;stroke-width:1.0;" x1="607" x2="844" y1="291.4922" y2="291.4922"/><text fill="#000000" font-family="sans-serif" font-size="13" lengthAdjust="spacing" textLength="219" x="614" y="286.4263">GetByIdAsync(SpecializationCode)</text><polygon fill="#181818" points="618,323.625,608,327.625,618,331.625,614,327.625" style="stroke:#181818;stroke-width:1.0;"/><line style="stroke:#181818;stroke-width:1.0;stroke-dasharray:2.0,2.0;" x1="612" x2="854" y1="327.625" y2="327.625"/><text fill="#000000" font-family="sans-serif" font-size="13" lengthAdjust="spacing" textLength="88" x="624" y="322.5591">Specialization</text><polygon fill="#181818" points="944,352.7578,954,356.7578,944,360.7578,948,356.7578" style="stroke:#181818;stroke-width:1.0;"/><line style="stroke:#181818;stroke-width:1.0;" x1="607" x2="950" y1="356.7578" y2="356.7578"/><text fill="#000000" font-family="sans-serif" font-size="13" lengthAdjust="spacing" textLength="51" x="614" y="351.6919">create()</text><rect fill="#E2E2F0" height="30.2969" rx="2.5" ry="2.5" style="stroke:#181818;stroke-width:0.5;" width="139" x="956" y="335.625"/><text fill="#000000" font-family="sans-serif" font-size="14" lengthAdjust="spacing" textLength="125" x="963" y="355.6201">SpecializationDTO</text><polygon fill="#181818" points="433,394.0547,423,398.0547,433,402.0547,429,398.0547" style="stroke:#181818;stroke-width:1.0;"/><line style="stroke:#181818;stroke-width:1.0;stroke-dasharray:2.0,2.0;" x1="427" x2="601" y1="398.0547" y2="398.0547"/><text fill="#000000" font-family="sans-serif" font-size="13" lengthAdjust="spacing" textLength="113" x="439" y="392.9888">specializationDTO</text><polygon fill="#181818" points="226,423.1875,216,427.1875,226,431.1875,222,427.1875" style="stroke:#181818;stroke-width:1.0;"/><line style="stroke:#181818;stroke-width:1.0;stroke-dasharray:2.0,2.0;" x1="220" x2="416" y1="427.1875" y2="427.1875"/><text fill="#000000" font-family="sans-serif" font-size="13" lengthAdjust="spacing" textLength="113" x="232" y="422.1216">specializationDTO</text><polygon fill="#181818" points="11,452.3203,1,456.3203,11,460.3203,7,456.3203" style="stroke:#181818;stroke-width:1.0;"/><line style="stroke:#181818;stroke-width:1.0;stroke-dasharray:2.0,2.0;" x1="5" x2="209" y1="456.3203" y2="456.3203"/><text fill="#000000" font-family="sans-serif" font-size="13" lengthAdjust="spacing" textLength="113" x="17" y="451.2544">specializationDTO</text><!--SRC=[ZP9FQyCm3CNl_XGwfcKfh9V168Dj_SCkBIJTxiPHMpFNpcoba7twoSv6apB2BY51F-dfFOKq6OGIFnkq2c6XvS7B4-JmLiBTR3wxdGjHIqzQwLfQWi8rfEq1P01FWqfPezBIw2z9sjaNPyaxOz17L94t8t29_gnPdSd0hoDaWRKBcfnlqmRyDG8lTjj8LUI4o1zvNxY7zNANALVX3LXvugTiwBXp7sWdGYhIPqaOZGc6kINkpKqhRGWzLYLAhuwz_bvJiYYAvGgsxykY-onmp_x9mG4jUgsI6fGBWRRYvVT2904MYhPxGckaWSf59kKZf268TT01R6CCE0zuggaLQL0qoz54kqZFxOPdPCDeDiFbKv02JS0_1xnMJw6rAhi-SSKps0gd5U7yucC8YWglb7v5-3JJAVFA8nUpoK_XadouFcX_LfT55-7lVKSRkXizvFa_MFu9lW40]--></g></svg>