<?xml version="1.0" encoding="us-ascii" standalone="no"?><svg xmlns="http://www.w3.org/2000/svg" xmlns:xlink="http://www.w3.org/1999/xlink" contentStyleType="text/css" height="643px" preserveAspectRatio="none" style="width:1526px;height:643px;background:#FFFFFF;" version="1.1" viewBox="0 0 1526 643" width="1526px" zoomAndPan="magnify"><defs/><g><!--cluster UserAggregate--><g id="cluster_UserAggregate"><path d="M8.5,405 L115.5,405 A3.75,3.75 0 0 1 118,407.5 L125,428.6094 L619.5,428.6094 A2.5,2.5 0 0 1 622,431.1094 L622,633.5 A2.5,2.5 0 0 1 619.5,636 L8.5,636 A2.5,2.5 0 0 1 6,633.5 L6,407.5 A2.5,2.5 0 0 1 8.5,405 " fill="none" style="stroke:#000000;stroke-width:1.5;"/><line style="stroke:#000000;stroke-width:1.5;" x1="6" x2="125" y1="428.6094" y2="428.6094"/><text fill="#000000" font-family="sans-serif" font-size="14" font-weight="bold" lengthAdjust="spacing" textLength="106" x="10" y="421.5332">UserAggregate</text></g><!--cluster PatientAggregate--><g id="cluster_PatientAggregate"><path d="M648.5,6 L771.5,6 A3.75,3.75 0 0 1 774,8.5 L781,29.6094 L1516.5,29.6094 A2.5,2.5 0 0 1 1519,32.1094 L1519,633.5 A2.5,2.5 0 0 1 1516.5,636 L648.5,636 A2.5,2.5 0 0 1 646,633.5 L646,8.5 A2.5,2.5 0 0 1 648.5,6 " fill="none" style="stroke:#000000;stroke-width:1.5;"/><line style="stroke:#000000;stroke-width:1.5;" x1="646" x2="781" y1="29.6094" y2="29.6094"/><text fill="#000000" font-family="sans-serif" font-size="14" font-weight="bold" lengthAdjust="spacing" textLength="122" x="650" y="22.5332">PatientAggregate</text></g><!--class User--><g id="elem_User"><rect codeLine="3" fill="#F1F1F1" height="58.7031" id="User" rx="2.5" ry="2.5" style="stroke:#181818;stroke-width:0.5;" width="101" x="330.5" y="561"/><ellipse cx="345.5" cy="582.3516" fill="#0099FF" rx="11" ry="11" style="stroke:#181818;stroke-width:1.0;"/><path d="M344.3438,583.5078 L344.3438,585.6484 L344.9531,585.6484 Q345.5781,585.6484 345.8281,585.8828 Q346.0938,586.1172 346.0938,586.5078 Q346.0938,586.8828 345.8281,587.1172 Q345.5781,587.3516 344.9531,587.3516 L342.375,587.3516 Q341.7656,587.3516 341.5,587.1172 Q341.2344,586.8828 341.2344,586.4922 Q341.2344,586.1172 341.5,585.8828 Q341.7656,585.6484 342.375,585.6484 L342.6406,585.6484 L342.6406,578.9922 L342.375,578.9922 Q341.7656,578.9922 341.5,578.7578 Q341.2344,578.5234 341.2344,578.1328 Q341.2344,577.7578 341.5,577.5234 Q341.7656,577.2891 342.375,577.2891 L346.2344,577.2891 Q348.0313,577.2891 349.0156,578.1797 Q350.0156,579.0703 350.0156,580.3516 Q350.0156,581.1484 349.5469,581.8047 Q349.0781,582.4609 348.1406,582.9609 Q348.6875,583.4297 349.2969,584.1797 Q349.6875,584.6484 350.3281,585.6484 Q350.9844,585.6484 351.1875,585.7891 Q351.5625,586.0391 351.5625,586.5078 Q351.5625,586.8828 351.2969,587.1172 Q351.0469,587.3516 350.4375,587.3516 L349.4531,587.3516 Q347.3906,584.1484 346.0313,583.5078 L344.3438,583.5078 Z M344.3438,581.8047 L345.6719,581.8047 Q346.4063,581.8047 347,581.5859 Q347.7813,581.2891 348.0469,580.9609 Q348.3125,580.6172 348.3125,580.2891 Q348.3125,579.8203 347.7969,579.4141 Q347.2813,578.9922 346.2969,578.9922 L344.3438,578.9922 L344.3438,581.8047 Z " fill="#000000"/><text fill="#000000" font-family="sans-serif" font-size="12" font-style="italic" lengthAdjust="spacing" textLength="73" x="357.5" y="578.457">&#171;Root Entity&#187;</text><text fill="#000000" font-family="sans-serif" font-size="14" lengthAdjust="spacing" textLength="29" x="379.5" y="595.627">User</text><line style="stroke:#181818;stroke-width:0.5;" x1="331.5" x2="430.5" y1="603.7031" y2="603.7031"/><line style="stroke:#181818;stroke-width:0.5;" x1="331.5" x2="430.5" y1="611.7031" y2="611.7031"/></g><!--class ActivationStatus--><g id="elem_ActivationStatus"><rect codeLine="5" fill="#F1F1F1" height="58.7031" id="ActivationStatus" rx="2.5" ry="2.5" style="stroke:#181818;stroke-width:0.5;" width="133" x="162.5" y="561"/><ellipse cx="177.5" cy="582.3516" fill="#F04800" rx="11" ry="11" style="stroke:#181818;stroke-width:1.0;"/><path d="M178.0938,585.6172 L180.5625,579.7422 L180.1719,579.7422 Q179.5625,579.7422 179.2969,579.5078 Q179.0313,579.2734 179.0313,578.8828 Q179.0313,578.5078 179.2969,578.2734 Q179.5625,578.0391 180.1719,578.0391 L182.4531,578.0391 Q183.0625,578.0391 183.3281,578.2734 Q183.5938,578.5078 183.5938,578.8828 Q183.5938,579.3516 183.1875,579.6172 Q183,579.7422 182.4063,579.7422 L178.9219,588.1016 L177.2813,588.1016 L173.7969,579.7422 Q173.2031,579.7422 173.0156,579.6172 Q172.6094,579.3516 172.6094,578.8828 Q172.6094,578.5078 172.875,578.2734 Q173.1406,578.0391 173.75,578.0391 L176.0469,578.0391 Q176.6563,578.0391 176.9063,578.2734 Q177.1719,578.5078 177.1719,578.8828 Q177.1719,579.2734 176.9063,579.5078 Q176.6563,579.7422 176.0469,579.7422 L175.6406,579.7422 L178.0938,585.6172 Z " fill="#000000"/><text fill="#000000" font-family="sans-serif" font-size="12" font-style="italic" lengthAdjust="spacing" textLength="85" x="199.5" y="578.457">&#171;Value Object&#187;</text><text fill="#000000" font-family="sans-serif" font-size="14" lengthAdjust="spacing" textLength="101" x="191.5" y="595.627">ActivationStatus</text><line style="stroke:#181818;stroke-width:0.5;" x1="163.5" x2="294.5" y1="603.7031" y2="603.7031"/><line style="stroke:#181818;stroke-width:0.5;" x1="163.5" x2="294.5" y1="611.7031" y2="611.7031"/></g><!--class Username--><g id="elem_Username"><rect codeLine="6" fill="#F1F1F1" height="58.7031" id="Username" rx="2.5" ry="2.5" style="stroke:#181818;stroke-width:0.5;" width="133" x="472.5" y="441"/><ellipse cx="487.5" cy="462.3516" fill="#F09800" rx="11" ry="11" style="stroke:#181818;stroke-width:1.0;"/><path d="M488.0938,465.6172 L490.5625,459.7422 L490.1719,459.7422 Q489.5625,459.7422 489.2969,459.5078 Q489.0313,459.2734 489.0313,458.8828 Q489.0313,458.5078 489.2969,458.2734 Q489.5625,458.0391 490.1719,458.0391 L492.4531,458.0391 Q493.0625,458.0391 493.3281,458.2734 Q493.5938,458.5078 493.5938,458.8828 Q493.5938,459.3516 493.1875,459.6172 Q493,459.7422 492.4063,459.7422 L488.9219,468.1016 L487.2813,468.1016 L483.7969,459.7422 Q483.2031,459.7422 483.0156,459.6172 Q482.6094,459.3516 482.6094,458.8828 Q482.6094,458.5078 482.875,458.2734 Q483.1406,458.0391 483.75,458.0391 L486.0469,458.0391 Q486.6563,458.0391 486.9063,458.2734 Q487.1719,458.5078 487.1719,458.8828 Q487.1719,459.2734 486.9063,459.5078 Q486.6563,459.7422 486.0469,459.7422 L485.6406,459.7422 L488.0938,465.6172 Z " fill="#000000"/><text fill="#000000" font-family="sans-serif" font-size="12" font-style="italic" lengthAdjust="spacing" textLength="105" x="499.5" y="458.457">&#171;Unique Identifier&#187;</text><text fill="#000000" font-family="sans-serif" font-size="14" lengthAdjust="spacing" textLength="64" x="520" y="475.627">Username</text><line style="stroke:#181818;stroke-width:0.5;" x1="473.5" x2="604.5" y1="483.7031" y2="483.7031"/><line style="stroke:#181818;stroke-width:0.5;" x1="473.5" x2="604.5" y1="491.7031" y2="491.7031"/></g><!--class UserRole--><g id="elem_UserRole"><rect codeLine="7" fill="#F1F1F1" height="58.7031" id="UserRole" rx="2.5" ry="2.5" style="stroke:#181818;stroke-width:0.5;" width="113" x="324.5" y="441"/><ellipse cx="339.5" cy="462.3516" fill="#F04800" rx="11" ry="11" style="stroke:#181818;stroke-width:1.0;"/><path d="M340.0938,465.6172 L342.5625,459.7422 L342.1719,459.7422 Q341.5625,459.7422 341.2969,459.5078 Q341.0313,459.2734 341.0313,458.8828 Q341.0313,458.5078 341.2969,458.2734 Q341.5625,458.0391 342.1719,458.0391 L344.4531,458.0391 Q345.0625,458.0391 345.3281,458.2734 Q345.5938,458.5078 345.5938,458.8828 Q345.5938,459.3516 345.1875,459.6172 Q345,459.7422 344.4063,459.7422 L340.9219,468.1016 L339.2813,468.1016 L335.7969,459.7422 Q335.2031,459.7422 335.0156,459.6172 Q334.6094,459.3516 334.6094,458.8828 Q334.6094,458.5078 334.875,458.2734 Q335.1406,458.0391 335.75,458.0391 L338.0469,458.0391 Q338.6563,458.0391 338.9063,458.2734 Q339.1719,458.5078 339.1719,458.8828 Q339.1719,459.2734 338.9063,459.5078 Q338.6563,459.7422 338.0469,459.7422 L337.6406,459.7422 L340.0938,465.6172 Z " fill="#000000"/><text fill="#000000" font-family="sans-serif" font-size="12" font-style="italic" lengthAdjust="spacing" textLength="85" x="351.5" y="458.457">&#171;Value Object&#187;</text><text fill="#000000" font-family="sans-serif" font-size="14" lengthAdjust="spacing" textLength="58" x="365" y="475.627">UserRole</text><line style="stroke:#181818;stroke-width:0.5;" x1="325.5" x2="436.5" y1="483.7031" y2="483.7031"/><line style="stroke:#181818;stroke-width:0.5;" x1="325.5" x2="436.5" y1="491.7031" y2="491.7031"/></g><!--class EmailAddress--><g id="elem_EmailAddress"><rect codeLine="8" fill="#F1F1F1" height="58.7031" id="EmailAddress" rx="2.5" ry="2.5" style="stroke:#181818;stroke-width:0.5;" width="118" x="171" y="441"/><ellipse cx="186" cy="462.3516" fill="#F04800" rx="11" ry="11" style="stroke:#181818;stroke-width:1.0;"/><path d="M186.5938,465.6172 L189.0625,459.7422 L188.6719,459.7422 Q188.0625,459.7422 187.7969,459.5078 Q187.5313,459.2734 187.5313,458.8828 Q187.5313,458.5078 187.7969,458.2734 Q188.0625,458.0391 188.6719,458.0391 L190.9531,458.0391 Q191.5625,458.0391 191.8281,458.2734 Q192.0938,458.5078 192.0938,458.8828 Q192.0938,459.3516 191.6875,459.6172 Q191.5,459.7422 190.9063,459.7422 L187.4219,468.1016 L185.7813,468.1016 L182.2969,459.7422 Q181.7031,459.7422 181.5156,459.6172 Q181.1094,459.3516 181.1094,458.8828 Q181.1094,458.5078 181.375,458.2734 Q181.6406,458.0391 182.25,458.0391 L184.5469,458.0391 Q185.1563,458.0391 185.4063,458.2734 Q185.6719,458.5078 185.6719,458.8828 Q185.6719,459.2734 185.4063,459.5078 Q185.1563,459.7422 184.5469,459.7422 L184.1406,459.7422 L186.5938,465.6172 Z " fill="#000000"/><text fill="#000000" font-family="sans-serif" font-size="12" font-style="italic" lengthAdjust="spacing" textLength="85" x="200.5" y="458.457">&#171;Value Object&#187;</text><text fill="#000000" font-family="sans-serif" font-size="14" lengthAdjust="spacing" textLength="86" x="200" y="475.627">EmailAddress</text><line style="stroke:#181818;stroke-width:0.5;" x1="172" x2="288" y1="483.7031" y2="483.7031"/><line style="stroke:#181818;stroke-width:0.5;" x1="172" x2="288" y1="491.7031" y2="491.7031"/></g><!--class Password--><g id="elem_Password"><rect codeLine="9" fill="#F1F1F1" height="58.7031" id="Password" rx="2.5" ry="2.5" style="stroke:#181818;stroke-width:0.5;" width="113" x="22.5" y="441"/><ellipse cx="37.5" cy="462.3516" fill="#F04800" rx="11" ry="11" style="stroke:#181818;stroke-width:1.0;"/><path d="M38.0938,465.6172 L40.5625,459.7422 L40.1719,459.7422 Q39.5625,459.7422 39.2969,459.5078 Q39.0313,459.2734 39.0313,458.8828 Q39.0313,458.5078 39.2969,458.2734 Q39.5625,458.0391 40.1719,458.0391 L42.4531,458.0391 Q43.0625,458.0391 43.3281,458.2734 Q43.5938,458.5078 43.5938,458.8828 Q43.5938,459.3516 43.1875,459.6172 Q43,459.7422 42.4063,459.7422 L38.9219,468.1016 L37.2813,468.1016 L33.7969,459.7422 Q33.2031,459.7422 33.0156,459.6172 Q32.6094,459.3516 32.6094,458.8828 Q32.6094,458.5078 32.875,458.2734 Q33.1406,458.0391 33.75,458.0391 L36.0469,458.0391 Q36.6563,458.0391 36.9063,458.2734 Q37.1719,458.5078 37.1719,458.8828 Q37.1719,459.2734 36.9063,459.5078 Q36.6563,459.7422 36.0469,459.7422 L35.6406,459.7422 L38.0938,465.6172 Z " fill="#000000"/><text fill="#000000" font-family="sans-serif" font-size="12" font-style="italic" lengthAdjust="spacing" textLength="85" x="49.5" y="458.457">&#171;Value Object&#187;</text><text fill="#000000" font-family="sans-serif" font-size="14" lengthAdjust="spacing" textLength="61" x="61.5" y="475.627">Password</text><line style="stroke:#181818;stroke-width:0.5;" x1="23.5" x2="134.5" y1="483.7031" y2="483.7031"/><line style="stroke:#181818;stroke-width:0.5;" x1="23.5" x2="134.5" y1="491.7031" y2="491.7031"/></g><!--class Patient--><g id="elem_Patient"><rect codeLine="21" fill="#F1F1F1" height="58.7031" id="Patient" rx="2.5" ry="2.5" style="stroke:#181818;stroke-width:0.5;" width="101" x="987.5" y="162"/><ellipse cx="1002.5" cy="183.3516" fill="#0099FF" rx="11" ry="11" style="stroke:#181818;stroke-width:1.0;"/><path d="M1001.3438,184.5078 L1001.3438,186.6484 L1001.9531,186.6484 Q1002.5781,186.6484 1002.8281,186.8828 Q1003.0938,187.1172 1003.0938,187.5078 Q1003.0938,187.8828 1002.8281,188.1172 Q1002.5781,188.3516 1001.9531,188.3516 L999.375,188.3516 Q998.7656,188.3516 998.5,188.1172 Q998.2344,187.8828 998.2344,187.4922 Q998.2344,187.1172 998.5,186.8828 Q998.7656,186.6484 999.375,186.6484 L999.6406,186.6484 L999.6406,179.9922 L999.375,179.9922 Q998.7656,179.9922 998.5,179.7578 Q998.2344,179.5234 998.2344,179.1328 Q998.2344,178.7578 998.5,178.5234 Q998.7656,178.2891 999.375,178.2891 L1003.2344,178.2891 Q1005.0313,178.2891 1006.0156,179.1797 Q1007.0156,180.0703 1007.0156,181.3516 Q1007.0156,182.1484 1006.5469,182.8047 Q1006.0781,183.4609 1005.1406,183.9609 Q1005.6875,184.4297 1006.2969,185.1797 Q1006.6875,185.6484 1007.3281,186.6484 Q1007.9844,186.6484 1008.1875,186.7891 Q1008.5625,187.0391 1008.5625,187.5078 Q1008.5625,187.8828 1008.2969,188.1172 Q1008.0469,188.3516 1007.4375,188.3516 L1006.4531,188.3516 Q1004.3906,185.1484 1003.0313,184.5078 L1001.3438,184.5078 Z M1001.3438,182.8047 L1002.6719,182.8047 Q1003.4063,182.8047 1004,182.5859 Q1004.7813,182.2891 1005.0469,181.9609 Q1005.3125,181.6172 1005.3125,181.2891 Q1005.3125,180.8203 1004.7969,180.4141 Q1004.2813,179.9922 1003.2969,179.9922 L1001.3438,179.9922 L1001.3438,182.8047 Z " fill="#000000"/><text fill="#000000" font-family="sans-serif" font-size="12" font-style="italic" lengthAdjust="spacing" textLength="73" x="1014.5" y="179.457">&#171;Root Entity&#187;</text><text fill="#000000" font-family="sans-serif" font-size="14" lengthAdjust="spacing" textLength="44" x="1029" y="196.627">Patient</text><line style="stroke:#181818;stroke-width:0.5;" x1="988.5" x2="1087.5" y1="204.7031" y2="204.7031"/><line style="stroke:#181818;stroke-width:0.5;" x1="988.5" x2="1087.5" y1="212.7031" y2="212.7031"/></g><!--class Gender--><g id="elem_Gender"><rect codeLine="23" fill="#F1F1F1" height="58.7031" id="Gender" rx="2.5" ry="2.5" style="stroke:#181818;stroke-width:0.5;" width="113" x="1389.5" y="42"/><ellipse cx="1404.5" cy="63.3516" fill="#F04800" rx="11" ry="11" style="stroke:#181818;stroke-width:1.0;"/><path d="M1405.0938,66.6172 L1407.5625,60.7422 L1407.1719,60.7422 Q1406.5625,60.7422 1406.2969,60.5078 Q1406.0313,60.2734 1406.0313,59.8828 Q1406.0313,59.5078 1406.2969,59.2734 Q1406.5625,59.0391 1407.1719,59.0391 L1409.4531,59.0391 Q1410.0625,59.0391 1410.3281,59.2734 Q1410.5938,59.5078 1410.5938,59.8828 Q1410.5938,60.3516 1410.1875,60.6172 Q1410,60.7422 1409.4063,60.7422 L1405.9219,69.1016 L1404.2813,69.1016 L1400.7969,60.7422 Q1400.2031,60.7422 1400.0156,60.6172 Q1399.6094,60.3516 1399.6094,59.8828 Q1399.6094,59.5078 1399.875,59.2734 Q1400.1406,59.0391 1400.75,59.0391 L1403.0469,59.0391 Q1403.6563,59.0391 1403.9063,59.2734 Q1404.1719,59.5078 1404.1719,59.8828 Q1404.1719,60.2734 1403.9063,60.5078 Q1403.6563,60.7422 1403.0469,60.7422 L1402.6406,60.7422 L1405.0938,66.6172 Z " fill="#000000"/><text fill="#000000" font-family="sans-serif" font-size="12" font-style="italic" lengthAdjust="spacing" textLength="85" x="1416.5" y="59.457">&#171;Value Object&#187;</text><text fill="#000000" font-family="sans-serif" font-size="14" lengthAdjust="spacing" textLength="48" x="1435" y="76.627">Gender</text><line style="stroke:#181818;stroke-width:0.5;" x1="1390.5" x2="1501.5" y1="84.7031" y2="84.7031"/><line style="stroke:#181818;stroke-width:0.5;" x1="1390.5" x2="1501.5" y1="92.7031" y2="92.7031"/></g><!--class MedicalRecordNumber--><g id="elem_MedicalRecordNumber"><rect codeLine="24" fill="#F1F1F1" height="58.7031" id="MedicalRecordNumber" rx="2.5" ry="2.5" style="stroke:#181818;stroke-width:0.5;" width="175" x="1179.5" y="42"/><ellipse cx="1194.5" cy="63.3516" fill="#F09800" rx="11" ry="11" style="stroke:#181818;stroke-width:1.0;"/><path d="M1195.0938,66.6172 L1197.5625,60.7422 L1197.1719,60.7422 Q1196.5625,60.7422 1196.2969,60.5078 Q1196.0313,60.2734 1196.0313,59.8828 Q1196.0313,59.5078 1196.2969,59.2734 Q1196.5625,59.0391 1197.1719,59.0391 L1199.4531,59.0391 Q1200.0625,59.0391 1200.3281,59.2734 Q1200.5938,59.5078 1200.5938,59.8828 Q1200.5938,60.3516 1200.1875,60.6172 Q1200,60.7422 1199.4063,60.7422 L1195.9219,69.1016 L1194.2813,69.1016 L1190.7969,60.7422 Q1190.2031,60.7422 1190.0156,60.6172 Q1189.6094,60.3516 1189.6094,59.8828 Q1189.6094,59.5078 1189.875,59.2734 Q1190.1406,59.0391 1190.75,59.0391 L1193.0469,59.0391 Q1193.6563,59.0391 1193.9063,59.2734 Q1194.1719,59.5078 1194.1719,59.8828 Q1194.1719,60.2734 1193.9063,60.5078 Q1193.6563,60.7422 1193.0469,60.7422 L1192.6406,60.7422 L1195.0938,66.6172 Z " fill="#000000"/><text fill="#000000" font-family="sans-serif" font-size="12" font-style="italic" lengthAdjust="spacing" textLength="105" x="1227.5" y="59.457">&#171;Unique Identifier&#187;</text><text fill="#000000" font-family="sans-serif" font-size="14" lengthAdjust="spacing" textLength="143" x="1208.5" y="76.627">MedicalRecordNumber</text><line style="stroke:#181818;stroke-width:0.5;" x1="1180.5" x2="1353.5" y1="84.7031" y2="84.7031"/><line style="stroke:#181818;stroke-width:0.5;" x1="1180.5" x2="1353.5" y1="92.7031" y2="92.7031"/></g><!--class DateOfBirth--><g id="elem_DateOfBirth"><rect codeLine="25" fill="#F1F1F1" height="58.7031" id="DateOfBirth" rx="2.5" ry="2.5" style="stroke:#181818;stroke-width:0.5;" width="113" x="1031.5" y="42"/><ellipse cx="1046.5" cy="63.3516" fill="#F04800" rx="11" ry="11" style="stroke:#181818;stroke-width:1.0;"/><path d="M1047.0938,66.6172 L1049.5625,60.7422 L1049.1719,60.7422 Q1048.5625,60.7422 1048.2969,60.5078 Q1048.0313,60.2734 1048.0313,59.8828 Q1048.0313,59.5078 1048.2969,59.2734 Q1048.5625,59.0391 1049.1719,59.0391 L1051.4531,59.0391 Q1052.0625,59.0391 1052.3281,59.2734 Q1052.5938,59.5078 1052.5938,59.8828 Q1052.5938,60.3516 1052.1875,60.6172 Q1052,60.7422 1051.4063,60.7422 L1047.9219,69.1016 L1046.2813,69.1016 L1042.7969,60.7422 Q1042.2031,60.7422 1042.0156,60.6172 Q1041.6094,60.3516 1041.6094,59.8828 Q1041.6094,59.5078 1041.875,59.2734 Q1042.1406,59.0391 1042.75,59.0391 L1045.0469,59.0391 Q1045.6563,59.0391 1045.9063,59.2734 Q1046.1719,59.5078 1046.1719,59.8828 Q1046.1719,60.2734 1045.9063,60.5078 Q1045.6563,60.7422 1045.0469,60.7422 L1044.6406,60.7422 L1047.0938,66.6172 Z " fill="#000000"/><text fill="#000000" font-family="sans-serif" font-size="12" font-style="italic" lengthAdjust="spacing" textLength="85" x="1058.5" y="59.457">&#171;Value Object&#187;</text><text fill="#000000" font-family="sans-serif" font-size="14" lengthAdjust="spacing" textLength="74" x="1064" y="76.627">DateOfBirth</text><line style="stroke:#181818;stroke-width:0.5;" x1="1032.5" x2="1143.5" y1="84.7031" y2="84.7031"/><line style="stroke:#181818;stroke-width:0.5;" x1="1032.5" x2="1143.5" y1="92.7031" y2="92.7031"/></g><!--class MedicalConditions--><g id="elem_MedicalConditions"><rect codeLine="26" fill="#F1F1F1" height="58.7031" id="MedicalConditions" rx="2.5" ry="2.5" style="stroke:#181818;stroke-width:0.5;" width="147" x="849.5" y="42"/><ellipse cx="864.5" cy="63.3516" fill="#F04800" rx="11" ry="11" style="stroke:#181818;stroke-width:1.0;"/><path d="M865.0938,66.6172 L867.5625,60.7422 L867.1719,60.7422 Q866.5625,60.7422 866.2969,60.5078 Q866.0313,60.2734 866.0313,59.8828 Q866.0313,59.5078 866.2969,59.2734 Q866.5625,59.0391 867.1719,59.0391 L869.4531,59.0391 Q870.0625,59.0391 870.3281,59.2734 Q870.5938,59.5078 870.5938,59.8828 Q870.5938,60.3516 870.1875,60.6172 Q870,60.7422 869.4063,60.7422 L865.9219,69.1016 L864.2813,69.1016 L860.7969,60.7422 Q860.2031,60.7422 860.0156,60.6172 Q859.6094,60.3516 859.6094,59.8828 Q859.6094,59.5078 859.875,59.2734 Q860.1406,59.0391 860.75,59.0391 L863.0469,59.0391 Q863.6563,59.0391 863.9063,59.2734 Q864.1719,59.5078 864.1719,59.8828 Q864.1719,60.2734 863.9063,60.5078 Q863.6563,60.7422 863.0469,60.7422 L862.6406,60.7422 L865.0938,66.6172 Z " fill="#000000"/><text fill="#000000" font-family="sans-serif" font-size="12" font-style="italic" lengthAdjust="spacing" textLength="85" x="893.5" y="59.457">&#171;Value Object&#187;</text><text fill="#000000" font-family="sans-serif" font-size="14" lengthAdjust="spacing" textLength="115" x="878.5" y="76.627">MedicalConditions</text><line style="stroke:#181818;stroke-width:0.5;" x1="850.5" x2="995.5" y1="84.7031" y2="84.7031"/><line style="stroke:#181818;stroke-width:0.5;" x1="850.5" x2="995.5" y1="92.7031" y2="92.7031"/></g><!--class EmergencyContact--><g id="elem_EmergencyContact"><rect codeLine="27" fill="#F1F1F1" height="58.7031" id="EmergencyContact" rx="2.5" ry="2.5" style="stroke:#181818;stroke-width:0.5;" width="152" x="662" y="42"/><ellipse cx="677" cy="63.3516" fill="#F04800" rx="11" ry="11" style="stroke:#181818;stroke-width:1.0;"/><path d="M677.5938,66.6172 L680.0625,60.7422 L679.6719,60.7422 Q679.0625,60.7422 678.7969,60.5078 Q678.5313,60.2734 678.5313,59.8828 Q678.5313,59.5078 678.7969,59.2734 Q679.0625,59.0391 679.6719,59.0391 L681.9531,59.0391 Q682.5625,59.0391 682.8281,59.2734 Q683.0938,59.5078 683.0938,59.8828 Q683.0938,60.3516 682.6875,60.6172 Q682.5,60.7422 681.9063,60.7422 L678.4219,69.1016 L676.7813,69.1016 L673.2969,60.7422 Q672.7031,60.7422 672.5156,60.6172 Q672.1094,60.3516 672.1094,59.8828 Q672.1094,59.5078 672.375,59.2734 Q672.6406,59.0391 673.25,59.0391 L675.5469,59.0391 Q676.1563,59.0391 676.4063,59.2734 Q676.6719,59.5078 676.6719,59.8828 Q676.6719,60.2734 676.4063,60.5078 Q676.1563,60.7422 675.5469,60.7422 L675.1406,60.7422 L677.5938,66.6172 Z " fill="#000000"/><text fill="#000000" font-family="sans-serif" font-size="12" font-style="italic" lengthAdjust="spacing" textLength="85" x="708.5" y="59.457">&#171;Value Object&#187;</text><text fill="#000000" font-family="sans-serif" font-size="14" lengthAdjust="spacing" textLength="120" x="691" y="76.627">EmergencyContact</text><line style="stroke:#181818;stroke-width:0.5;" x1="663" x2="813" y1="84.7031" y2="84.7031"/><line style="stroke:#181818;stroke-width:0.5;" x1="663" x2="813" y1="92.7031" y2="92.7031"/></g><!--class EmailAddress--><g id="elem_EmailAddress"><rect codeLine="28" fill="#F1F1F1" height="58.7031" id="EmailAddress" rx="2.5" ry="2.5" style="stroke:#181818;stroke-width:0.5;" width="118" x="678" y="561"/><ellipse cx="693" cy="582.3516" fill="#F04800" rx="11" ry="11" style="stroke:#181818;stroke-width:1.0;"/><path d="M693.5938,585.6172 L696.0625,579.7422 L695.6719,579.7422 Q695.0625,579.7422 694.7969,579.5078 Q694.5313,579.2734 694.5313,578.8828 Q694.5313,578.5078 694.7969,578.2734 Q695.0625,578.0391 695.6719,578.0391 L697.9531,578.0391 Q698.5625,578.0391 698.8281,578.2734 Q699.0938,578.5078 699.0938,578.8828 Q699.0938,579.3516 698.6875,579.6172 Q698.5,579.7422 697.9063,579.7422 L694.4219,588.1016 L692.7813,588.1016 L689.2969,579.7422 Q688.7031,579.7422 688.5156,579.6172 Q688.1094,579.3516 688.1094,578.8828 Q688.1094,578.5078 688.375,578.2734 Q688.6406,578.0391 689.25,578.0391 L691.5469,578.0391 Q692.1563,578.0391 692.4063,578.2734 Q692.6719,578.5078 692.6719,578.8828 Q692.6719,579.2734 692.4063,579.5078 Q692.1563,579.7422 691.5469,579.7422 L691.1406,579.7422 L693.5938,585.6172 Z " fill="#000000"/><text fill="#000000" font-family="sans-serif" font-size="12" font-style="italic" lengthAdjust="spacing" textLength="85" x="707.5" y="578.457">&#171;Value Object&#187;</text><text fill="#000000" font-family="sans-serif" font-size="14" lengthAdjust="spacing" textLength="86" x="707" y="595.627">EmailAddress</text><line style="stroke:#181818;stroke-width:0.5;" x1="679" x2="795" y1="603.7031" y2="603.7031"/><line style="stroke:#181818;stroke-width:0.5;" x1="679" x2="795" y1="611.7031" y2="611.7031"/></g><!--class PhoneNumber--><g id="elem_PhoneNumber"><rect codeLine="29" fill="#F1F1F1" height="58.7031" id="PhoneNumber" rx="2.5" ry="2.5" style="stroke:#181818;stroke-width:0.5;" width="122" x="831" y="561"/><ellipse cx="846" cy="582.3516" fill="#F04800" rx="11" ry="11" style="stroke:#181818;stroke-width:1.0;"/><path d="M846.5938,585.6172 L849.0625,579.7422 L848.6719,579.7422 Q848.0625,579.7422 847.7969,579.5078 Q847.5313,579.2734 847.5313,578.8828 Q847.5313,578.5078 847.7969,578.2734 Q848.0625,578.0391 848.6719,578.0391 L850.9531,578.0391 Q851.5625,578.0391 851.8281,578.2734 Q852.0938,578.5078 852.0938,578.8828 Q852.0938,579.3516 851.6875,579.6172 Q851.5,579.7422 850.9063,579.7422 L847.4219,588.1016 L845.7813,588.1016 L842.2969,579.7422 Q841.7031,579.7422 841.5156,579.6172 Q841.1094,579.3516 841.1094,578.8828 Q841.1094,578.5078 841.375,578.2734 Q841.6406,578.0391 842.25,578.0391 L844.5469,578.0391 Q845.1563,578.0391 845.4063,578.2734 Q845.6719,578.5078 845.6719,578.8828 Q845.6719,579.2734 845.4063,579.5078 Q845.1563,579.7422 844.5469,579.7422 L844.1406,579.7422 L846.5938,585.6172 Z " fill="#000000"/><text fill="#000000" font-family="sans-serif" font-size="12" font-style="italic" lengthAdjust="spacing" textLength="85" x="862.5" y="578.457">&#171;Value Object&#187;</text><text fill="#000000" font-family="sans-serif" font-size="14" lengthAdjust="spacing" textLength="90" x="860" y="595.627">PhoneNumber</text><line style="stroke:#181818;stroke-width:0.5;" x1="832" x2="952" y1="603.7031" y2="603.7031"/><line style="stroke:#181818;stroke-width:0.5;" x1="832" x2="952" y1="611.7031" y2="611.7031"/></g><!--class ContactInformation--><g id="elem_ContactInformation"><rect codeLine="33" fill="#F1F1F1" height="58.7031" id="ContactInformation" rx="2.5" ry="2.5" style="stroke:#181818;stroke-width:0.5;" width="151" x="745.5" y="282"/><ellipse cx="760.5" cy="303.3516" fill="#ADD1B2" rx="11" ry="11" style="stroke:#181818;stroke-width:1.0;"/><path d="M759.3594,304.1484 L759.3594,306.6484 L763.6875,306.6484 L763.6875,305.7266 Q763.6875,305.1172 763.9219,304.8516 Q764.1719,304.5859 764.5469,304.5859 Q764.9219,304.5859 765.1563,304.8516 Q765.3906,305.1172 765.3906,305.7266 L765.3906,308.3516 L757.3906,308.3516 Q756.7656,308.3516 756.5,308.1172 Q756.25,307.8828 756.25,307.4922 Q756.25,307.1172 756.5156,306.8828 Q756.7813,306.6484 757.3906,306.6484 L757.6563,306.6484 L757.6563,299.9922 L757.3906,299.9922 Q756.7656,299.9922 756.5,299.7578 Q756.25,299.5234 756.25,299.1328 Q756.25,298.7578 756.5,298.5234 Q756.7656,298.2891 757.3906,298.2891 L765.0156,298.2891 L765.0156,300.8828 Q765.0156,301.4922 764.7813,301.7578 Q764.5625,302.0078 764.1719,302.0078 Q763.7969,302.0078 763.5625,301.7578 Q763.3281,301.4922 763.3281,300.8828 L763.3281,299.9922 L759.3594,299.9922 L759.3594,302.4453 L760.8438,302.4453 Q760.8438,301.7891 760.9688,301.6016 Q761.2344,301.1953 761.7031,301.1953 Q762.0781,301.1953 762.3125,301.4609 Q762.5469,301.7109 762.5469,302.3203 L762.5469,304.2891 Q762.5469,304.8359 762.4219,305.0234 Q762.1563,305.4141 761.7031,305.4141 Q761.2344,305.4141 760.9688,305.0078 Q760.8438,304.8203 760.8438,304.1484 L759.3594,304.1484 Z " fill="#000000"/><text fill="#000000" font-family="sans-serif" font-size="12" font-style="italic" lengthAdjust="spacing" textLength="44" x="812" y="299.457">&#171;Entity&#187;</text><text fill="#000000" font-family="sans-serif" font-size="14" lengthAdjust="spacing" textLength="119" x="774.5" y="316.627">ContactInformation</text><line style="stroke:#181818;stroke-width:0.5;" x1="746.5" x2="895.5" y1="324.7031" y2="324.7031"/><line style="stroke:#181818;stroke-width:0.5;" x1="746.5" x2="895.5" y1="332.7031" y2="332.7031"/></g><!--class FirstName--><g id="elem_FirstName"><rect codeLine="35" fill="#F1F1F1" height="58.7031" id="FirstName" rx="2.5" ry="2.5" style="stroke:#181818;stroke-width:0.5;" width="113" x="931.5" y="282"/><ellipse cx="946.5" cy="303.3516" fill="#F04800" rx="11" ry="11" style="stroke:#181818;stroke-width:1.0;"/><path d="M947.0938,306.6172 L949.5625,300.7422 L949.1719,300.7422 Q948.5625,300.7422 948.2969,300.5078 Q948.0313,300.2734 948.0313,299.8828 Q948.0313,299.5078 948.2969,299.2734 Q948.5625,299.0391 949.1719,299.0391 L951.4531,299.0391 Q952.0625,299.0391 952.3281,299.2734 Q952.5938,299.5078 952.5938,299.8828 Q952.5938,300.3516 952.1875,300.6172 Q952,300.7422 951.4063,300.7422 L947.9219,309.1016 L946.2813,309.1016 L942.7969,300.7422 Q942.2031,300.7422 942.0156,300.6172 Q941.6094,300.3516 941.6094,299.8828 Q941.6094,299.5078 941.875,299.2734 Q942.1406,299.0391 942.75,299.0391 L945.0469,299.0391 Q945.6563,299.0391 945.9063,299.2734 Q946.1719,299.5078 946.1719,299.8828 Q946.1719,300.2734 945.9063,300.5078 Q945.6563,300.7422 945.0469,300.7422 L944.6406,300.7422 L947.0938,306.6172 Z " fill="#000000"/><text fill="#000000" font-family="sans-serif" font-size="12" font-style="italic" lengthAdjust="spacing" textLength="85" x="958.5" y="299.457">&#171;Value Object&#187;</text><text fill="#000000" font-family="sans-serif" font-size="14" lengthAdjust="spacing" textLength="64" x="969" y="316.627">FirstName</text><line style="stroke:#181818;stroke-width:0.5;" x1="932.5" x2="1043.5" y1="324.7031" y2="324.7031"/><line style="stroke:#181818;stroke-width:0.5;" x1="932.5" x2="1043.5" y1="332.7031" y2="332.7031"/></g><!--class LastName--><g id="elem_LastName"><rect codeLine="36" fill="#F1F1F1" height="58.7031" id="LastName" rx="2.5" ry="2.5" style="stroke:#181818;stroke-width:0.5;" width="113" x="1079.5" y="282"/><ellipse cx="1094.5" cy="303.3516" fill="#F04800" rx="11" ry="11" style="stroke:#181818;stroke-width:1.0;"/><path d="M1095.0938,306.6172 L1097.5625,300.7422 L1097.1719,300.7422 Q1096.5625,300.7422 1096.2969,300.5078 Q1096.0313,300.2734 1096.0313,299.8828 Q1096.0313,299.5078 1096.2969,299.2734 Q1096.5625,299.0391 1097.1719,299.0391 L1099.4531,299.0391 Q1100.0625,299.0391 1100.3281,299.2734 Q1100.5938,299.5078 1100.5938,299.8828 Q1100.5938,300.3516 1100.1875,300.6172 Q1100,300.7422 1099.4063,300.7422 L1095.9219,309.1016 L1094.2813,309.1016 L1090.7969,300.7422 Q1090.2031,300.7422 1090.0156,300.6172 Q1089.6094,300.3516 1089.6094,299.8828 Q1089.6094,299.5078 1089.875,299.2734 Q1090.1406,299.0391 1090.75,299.0391 L1093.0469,299.0391 Q1093.6563,299.0391 1093.9063,299.2734 Q1094.1719,299.5078 1094.1719,299.8828 Q1094.1719,300.2734 1093.9063,300.5078 Q1093.6563,300.7422 1093.0469,300.7422 L1092.6406,300.7422 L1095.0938,306.6172 Z " fill="#000000"/><text fill="#000000" font-family="sans-serif" font-size="12" font-style="italic" lengthAdjust="spacing" textLength="85" x="1106.5" y="299.457">&#171;Value Object&#187;</text><text fill="#000000" font-family="sans-serif" font-size="14" lengthAdjust="spacing" textLength="63" x="1117.5" y="316.627">LastName</text><line style="stroke:#181818;stroke-width:0.5;" x1="1080.5" x2="1191.5" y1="324.7031" y2="324.7031"/><line style="stroke:#181818;stroke-width:0.5;" x1="1080.5" x2="1191.5" y1="332.7031" y2="332.7031"/></g><!--class FullName--><g id="elem_FullName"><rect codeLine="37" fill="#F1F1F1" height="58.7031" id="FullName" rx="2.5" ry="2.5" style="stroke:#181818;stroke-width:0.5;" width="113" x="1227.5" y="282"/><ellipse cx="1242.5" cy="303.3516" fill="#F04800" rx="11" ry="11" style="stroke:#181818;stroke-width:1.0;"/><path d="M1243.0938,306.6172 L1245.5625,300.7422 L1245.1719,300.7422 Q1244.5625,300.7422 1244.2969,300.5078 Q1244.0313,300.2734 1244.0313,299.8828 Q1244.0313,299.5078 1244.2969,299.2734 Q1244.5625,299.0391 1245.1719,299.0391 L1247.4531,299.0391 Q1248.0625,299.0391 1248.3281,299.2734 Q1248.5938,299.5078 1248.5938,299.8828 Q1248.5938,300.3516 1248.1875,300.6172 Q1248,300.7422 1247.4063,300.7422 L1243.9219,309.1016 L1242.2813,309.1016 L1238.7969,300.7422 Q1238.2031,300.7422 1238.0156,300.6172 Q1237.6094,300.3516 1237.6094,299.8828 Q1237.6094,299.5078 1237.875,299.2734 Q1238.1406,299.0391 1238.75,299.0391 L1241.0469,299.0391 Q1241.6563,299.0391 1241.9063,299.2734 Q1242.1719,299.5078 1242.1719,299.8828 Q1242.1719,300.2734 1241.9063,300.5078 Q1241.6563,300.7422 1241.0469,300.7422 L1240.6406,300.7422 L1243.0938,306.6172 Z " fill="#000000"/><text fill="#000000" font-family="sans-serif" font-size="12" font-style="italic" lengthAdjust="spacing" textLength="85" x="1254.5" y="299.457">&#171;Value Object&#187;</text><text fill="#000000" font-family="sans-serif" font-size="14" lengthAdjust="spacing" textLength="59" x="1267.5" y="316.627">FullName</text><line style="stroke:#181818;stroke-width:0.5;" x1="1228.5" x2="1339.5" y1="324.7031" y2="324.7031"/><line style="stroke:#181818;stroke-width:0.5;" x1="1228.5" x2="1339.5" y1="332.7031" y2="332.7031"/></g><!--link ActivationStatus to User--><g id="link_ActivationStatus_User"><path codeLine="11" d="M295.8,590.5 C307.33,590.5 306.87,590.5 318.41,590.5 " fill="none" id="ActivationStatus-to-User" style="stroke:#181818;stroke-width:1.0;"/><polygon fill="#181818" points="330.41,590.5,324.41,586.5,318.41,590.5,324.41,594.5,330.41,590.5" style="stroke:#181818;stroke-width:1.0;"/><text fill="#000000" font-family="sans-serif" font-size="13" lengthAdjust="spacing" textLength="7" x="303.4891" y="587.1556">1</text><text fill="#000000" font-family="sans-serif" font-size="13" lengthAdjust="spacing" textLength="7" x="315.4655" y="586.8677">1</text></g><!--link Username to User--><g id="link_Username_User"><path codeLine="13" d="M500.75,500.06 C476,518.55 453.5144,535.3393 428.7844,553.8093 " fill="none" id="Username-to-User" style="stroke:#181818;stroke-width:1.0;"/><polygon fill="#181818" points="419.17,560.99,426.3708,560.6045,428.7844,553.8093,421.5837,554.1948,419.17,560.99" style="stroke:#181818;stroke-width:1.0;"/><text fill="#000000" font-family="sans-serif" font-size="13" lengthAdjust="spacing" textLength="7" x="485.1391" y="521.3687">1</text><text fill="#000000" font-family="sans-serif" font-size="13" lengthAdjust="spacing" textLength="7" x="419.7541" y="550.3507">1</text></g><!--link UserRole to User--><g id="link_UserRole_User"><path codeLine="14" d="M381,500.06 C381,518.48 381,530.34 381,548.79 " fill="none" id="UserRole-to-User" style="stroke:#181818;stroke-width:1.0;"/><polygon fill="#181818" points="381,560.79,385,554.79,381,548.79,377,554.79,381,560.79" style="stroke:#181818;stroke-width:1.0;"/><text fill="#000000" font-family="sans-serif" font-size="13" lengthAdjust="spacing" textLength="7" x="373.2781" y="521.3687">1</text><text fill="#000000" font-family="sans-serif" font-size="13" lengthAdjust="spacing" textLength="7" x="373.2344" y="550.107">1</text></g><!--link EmailAddress to User--><g id="link_EmailAddress_User"><path codeLine="15" d="M266.55,500.06 C290.21,518.55 311.424,535.132 335.064,553.602 " fill="none" id="EmailAddress-to-User" style="stroke:#181818;stroke-width:1.0;"/><polygon fill="#181818" points="344.52,560.99,342.2547,554.144,335.064,553.602,337.3293,560.448,344.52,560.99" style="stroke:#181818;stroke-width:1.0;"/><text fill="#000000" font-family="sans-serif" font-size="13" lengthAdjust="spacing" textLength="7" x="266.3666" y="521.3687">1</text><text fill="#000000" font-family="sans-serif" font-size="13" lengthAdjust="spacing" textLength="7" x="328.7744" y="550.3507">1</text></g><!--link Password to User--><g id="link_Password_User"><path codeLine="16" d="M135.56,493.3 C141.45,495.57 147.34,497.83 153,500 C224.07,527.23 242.34,532.73 313,561 C318.59,563.23 313.3178,561.0314 319.1078,563.4214 " fill="none" id="Password-to-User" style="stroke:#181818;stroke-width:1.0;"/><polygon fill="#181818" points="330.2,568,326.1801,562.0133,319.1078,563.4214,323.1277,569.4081,330.2,568" style="stroke:#181818;stroke-width:1.0;"/><text fill="#000000" font-family="sans-serif" font-size="13" lengthAdjust="spacing" textLength="7" x="143.6306" y="492.8274">1</text><text fill="#000000" font-family="sans-serif" font-size="13" lengthAdjust="spacing" textLength="7" x="315.5641" y="561.2516">1</text></g><!--reverse link ContactInformation to EmailAddress--><g id="link_ContactInformation_EmailAddress"><path codeLine="39" d="M808.8469,352.5834 C792.7469,405.6634 761.91,507.37 745.75,560.64 " fill="none" id="ContactInformation-backto-EmailAddress" style="stroke:#181818;stroke-width:1.0;"/><polygon fill="#181818" points="812.33,341.1,806.7607,345.6807,808.8469,352.5834,814.4162,348.0027,812.33,341.1" style="stroke:#181818;stroke-width:1.0;"/><text fill="#000000" font-family="sans-serif" font-size="13" lengthAdjust="spacing" textLength="7" x="802.8199" y="362.417">1</text><text fill="#000000" font-family="sans-serif" font-size="13" lengthAdjust="spacing" textLength="7" x="739.8984" y="549.9242">1</text></g><!--reverse link ContactInformation to PhoneNumber--><g id="link_ContactInformation_PhoneNumber"><path codeLine="40" d="M831.3105,352.724 C844.9205,405.804 870.95,507.37 884.6,560.64 " fill="none" id="ContactInformation-backto-PhoneNumber" style="stroke:#181818;stroke-width:1.0;"/><polygon fill="#181818" points="828.33,341.1,825.9456,347.9055,831.3105,352.724,833.6949,345.9185,828.33,341.1" style="stroke:#181818;stroke-width:1.0;"/><text fill="#000000" font-family="sans-serif" font-size="13" lengthAdjust="spacing" textLength="7" x="822.1199" y="362.417">1</text><text fill="#000000" font-family="sans-serif" font-size="13" lengthAdjust="spacing" textLength="7" x="875.2156" y="549.9242">1</text></g><!--reverse link Patient to FirstName--><g id="link_Patient_FirstName"><path codeLine="44" d="M1021.2157,232.108 C1013.4057,250.528 1007.98,263.34 1000.17,281.79 " fill="none" id="Patient-backto-FirstName" style="stroke:#181818;stroke-width:1.0;"/><polygon fill="#181818" points="1025.9,221.06,1019.8752,225.0226,1021.2157,232.108,1027.2405,228.1454,1025.9,221.06" style="stroke:#181818;stroke-width:1.0;"/><text fill="#000000" font-family="sans-serif" font-size="13" lengthAdjust="spacing" textLength="7" x="1015.6825" y="242.3687">1</text><text fill="#000000" font-family="sans-serif" font-size="13" lengthAdjust="spacing" textLength="7" x="995.0666" y="271.107">1</text></g><!--reverse link Patient to LastName--><g id="link_Patient_LastName"><path codeLine="45" d="M1069.3874,230.291 C1084.6874,248.711 1096.84,263.34 1112.16,281.79 " fill="none" id="Patient-backto-LastName" style="stroke:#181818;stroke-width:1.0;"/><polygon fill="#181818" points="1061.72,221.06,1062.4767,228.2313,1069.3874,230.291,1068.6307,223.1197,1061.72,221.06" style="stroke:#181818;stroke-width:1.0;"/><text fill="#000000" font-family="sans-serif" font-size="13" lengthAdjust="spacing" textLength="7" x="1058.8904" y="242.3687">1</text><text fill="#000000" font-family="sans-serif" font-size="13" lengthAdjust="spacing" textLength="7" x="1099.1794" y="271.107">1</text></g><!--reverse link Patient to FullName--><g id="link_Patient_FullName"><path codeLine="46" d="M1099.4901,221.9989 C1139.8601,241.3589 1185.53,263.26 1227.38,283.34 " fill="none" id="Patient-backto-FullName" style="stroke:#181818;stroke-width:1.0;"/><polygon fill="#181818" points="1088.67,216.81,1092.3504,223.0112,1099.4901,221.9989,1095.8097,215.7978,1088.67,216.81" style="stroke:#181818;stroke-width:1.0;"/><text fill="#000000" font-family="sans-serif" font-size="13" lengthAdjust="spacing" textLength="7" x="1096.6262" y="216.8951">1</text><text fill="#000000" font-family="sans-serif" font-size="13" lengthAdjust="spacing" textLength="7" x="1212.6771" y="276.2437">1</text></g><!--reverse link Patient to ContactInformation--><g id="link_Patient_ContactInformation"><path codeLine="47" d="M976.8576,225.7522 C942.6676,244.3422 908.17,263.1 873.57,281.91 " fill="none" id="Patient-backto-ContactInformation" style="stroke:#181818;stroke-width:1.0;"/><polygon fill="#181818" points="987.4,220.02,980.2181,219.372,976.8576,225.7522,984.0395,226.4002,987.4,220.02" style="stroke:#181818;stroke-width:1.0;"/><text fill="#000000" font-family="sans-serif" font-size="13" lengthAdjust="spacing" textLength="7" x="972.4541" y="220.5766">1</text><text fill="#000000" font-family="sans-serif" font-size="13" lengthAdjust="spacing" textLength="7" x="877.3041" y="271.2532">1</text></g><!--link Gender to Patient--><g id="link_Gender_Patient"><path codeLine="48" d="M1389.25,95.05 C1383.45,97.15 1377.63,99.17 1372,101 C1272.82,133.29 1166.0812,160.1903 1100.2312,175.9303 " fill="none" id="Gender-to-Patient" style="stroke:#181818;stroke-width:1.0;"/><polygon fill="#181818" points="1088.56,178.72,1095.3255,181.2155,1100.2312,175.9303,1093.4657,173.4347,1088.56,178.72" style="stroke:#181818;stroke-width:1.0;"/><text fill="#000000" font-family="sans-serif" font-size="13" lengthAdjust="spacing" textLength="7" x="1374.5305" y="94.579">1</text><text fill="#000000" font-family="sans-serif" font-size="13" lengthAdjust="spacing" textLength="7" x="1096.5001" y="191.5607">1</text></g><!--link MedicalRecordNumber to Patient--><g id="link_MedicalRecordNumber_Patient"><path codeLine="49" d="M1211.57,101.06 C1174.1,120.37 1135.6985,140.1661 1099.2885,158.9161 " fill="none" id="MedicalRecordNumber-to-Patient" style="stroke:#181818;stroke-width:1.0;"/><polygon fill="#181818" points="1088.62,164.41,1095.7856,165.2192,1099.2885,158.9161,1092.1229,158.1069,1088.62,164.41" style="stroke:#181818;stroke-width:1.0;"/><text fill="#000000" font-family="sans-serif" font-size="13" lengthAdjust="spacing" textLength="7" x="1192.4157" y="122.3687">1</text><text fill="#000000" font-family="sans-serif" font-size="13" lengthAdjust="spacing" textLength="7" x="1096.5689" y="156.7989">1</text></g><!--link DateOfBirth to Patient--><g id="link_DateOfBirth_Patient"><path codeLine="50" d="M1075.9,101.06 C1068.09,119.48 1062.6578,132.2893 1054.8478,150.7393 " fill="none" id="DateOfBirth-to-Patient" style="stroke:#181818;stroke-width:1.0;"/><polygon fill="#181818" points="1050.17,161.79,1056.1925,157.8239,1054.8478,150.7393,1048.8253,154.7054,1050.17,161.79" style="stroke:#181818;stroke-width:1.0;"/><text fill="#000000" font-family="sans-serif" font-size="13" lengthAdjust="spacing" textLength="7" x="1065.6825" y="122.3687">1</text><text fill="#000000" font-family="sans-serif" font-size="13" lengthAdjust="spacing" textLength="7" x="1045.0666" y="151.107">1</text></g><!--link MedicalConditions to Patient--><g id="link_MedicalConditions_Patient"><path codeLine="51" d="M950.84,101.06 C968.79,119.48 983.6649,134.746 1001.6449,153.196 " fill="none" id="MedicalConditions-to-Patient" style="stroke:#181818;stroke-width:1.0;"/><polygon fill="#181818" points="1010.02,161.79,1008.6971,154.7013,1001.6449,153.196,1002.9678,160.2847,1010.02,161.79" style="stroke:#181818;stroke-width:1.0;"/><text fill="#000000" font-family="sans-serif" font-size="13" lengthAdjust="spacing" textLength="5" x="951.0664" y="122.3687">*</text><text fill="#000000" font-family="sans-serif" font-size="13" lengthAdjust="spacing" textLength="7" x="996.1338" y="151.107">1</text></g><!--link EmergencyContact to Patient--><g id="link_EmergencyContact_Patient"><path codeLine="52" d="M810.62,101.06 C865.25,122.55 927.5527,147.0578 976.0127,166.1178 " fill="none" id="EmergencyContact-to-Patient" style="stroke:#181818;stroke-width:1.0;"/><polygon fill="#181818" points="987.18,170.51,983.0604,164.5914,976.0127,166.1178,980.1323,172.0363,987.18,170.51" style="stroke:#181818;stroke-width:1.0;"/><text fill="#000000" font-family="sans-serif" font-size="13" lengthAdjust="spacing" textLength="7" x="817.876" y="122.3687">1</text><text fill="#000000" font-family="sans-serif" font-size="13" lengthAdjust="spacing" textLength="7" x="972.5413" y="163.974">1</text></g><!--link Patient to User--><g id="link_Patient_User"><path codeLine="56" d="M987.31,194.69 C920.59,200.09 802.99,218.64 728,282 C645.85,351.4 702.55,427.64 623,500 C568.82,549.28 491.0261,571.0081 437.6261,581.0781 " fill="none" id="Patient-to-User" style="stroke:#181818;stroke-width:1.0;"/><polygon fill="#181818" points="431.73,582.19,441.3154,584.4529,436.6434,581.2634,439.8329,576.5915,431.73,582.19" style="stroke:#181818;stroke-width:1.0;"/><text fill="#000000" font-family="sans-serif" font-size="13" lengthAdjust="spacing" textLength="50" x="678" y="385.4951">can be a</text><text fill="#000000" font-family="sans-serif" font-size="13" lengthAdjust="spacing" textLength="7" x="972.3508" y="191.5263">1</text><text fill="#000000" font-family="sans-serif" font-size="13" lengthAdjust="spacing" textLength="7" x="439.3561" y="577.4371">1</text></g><!--SRC=[lLHTRu8m57tdLpJwCeqcBDd3N0o9SxgOR4fOzBt21Rj1kvKoOyp- -qhvi0w8-38U17FkkRqVvzJ6xWSE0ArZu9CWu11W0UXe8FdCg23Ye20q7jyuWwvfZaRpUGyvZ8aSjgpZZw72fo6EOpHn1Vd6WZ3w9h18OfHIDuEkRzxTcsOFRN2O05fjty4LbeKa-SHDJw8uWf8oKfGr9L-Ii_10dkWJu2VUZ2QHeZaiX2jEcaMOX1FFuo3_jAVPycVFk7UHeZYLKNHkEsZOLw-qvYogR5gXEboWghTQzAoDseYouWegYpJiVFksh58Ejq40ETfU0yz0lKmpBUVw2XvnSUY0AqjT9j5MOr_KG9RYIPQzyXy95xlh3vuowf5qKV5L6W8U07KFaYsmA_v1VZj6uSzu6XLew2lCIrnGd_58IL8cA9Q7phSt9pmMIzs6bojxmLTJvaaOjg9ad6e3gPBxm-5GVUWJRKNGPbdCwjIuCalocTibrx-AAHjj3YaRQmvfAAu-E7UJRc0ThlDEKwnkaWlvD4jq-lMH5GFKfKplcU82KRZ7zbGkmIfl8lI0N4pH5X3-1G00]--></g></svg>