<?xml version="1.0" encoding="us-ascii" standalone="no"?><svg xmlns="http://www.w3.org/2000/svg" xmlns:xlink="http://www.w3.org/1999/xlink" contentStyleType="text/css" height="1307px" preserveAspectRatio="none" style="width:1310px;height:1307px;background:#FFFFFF;" version="1.1" viewBox="0 0 1310 1307" width="1310px" zoomAndPan="magnify"><defs/><g><!--cluster UserAggregate--><g id="cluster_UserAggregate"><path d="M235.5,766 L356.5,766 A3.75,3.75 0 0 1 359,768.5 L366,788.2969 L372.5,788.2969 A2.5,2.5 0 0 1 375,790.7969 L375,889.5 A2.5,2.5 0 0 1 372.5,892 L235.5,892 A2.5,2.5 0 0 1 233,889.5 L233,768.5 A2.5,2.5 0 0 1 235.5,766 " fill="none" style="stroke:#000000;stroke-width:1.5;"/><line style="stroke:#000000;stroke-width:1.5;" x1="233" x2="366" y1="788.2969" y2="788.2969"/><text fill="#000000" font-family="sans-serif" font-size="14" font-weight="bold" lengthAdjust="spacing" textLength="120" x="237" y="780.9951">UserAggregate</text></g><!--cluster StaffAggregate--><g id="cluster_StaffAggregate"><path d="M879.5,593 L1000.5,593 A3.75,3.75 0 0 1 1003,595.5 L1010,615.2969 L1070.5,615.2969 A2.5,2.5 0 0 1 1073,617.7969 L1073,889.5 A2.5,2.5 0 0 1 1070.5,892 L879.5,892 A2.5,2.5 0 0 1 877,889.5 L877,595.5 A2.5,2.5 0 0 1 879.5,593 " fill="none" style="stroke:#000000;stroke-width:1.5;"/><line style="stroke:#000000;stroke-width:1.5;" x1="877" x2="1010" y1="615.2969" y2="615.2969"/><text fill="#000000" font-family="sans-serif" font-size="14" font-weight="bold" lengthAdjust="spacing" textLength="120" x="881" y="607.9951">StaffAggregate</text></g><!--cluster SpecializationAggregate--><g id="cluster_SpecializationAggregate"><path d="M530.5,324 L722.5,324 A3.75,3.75 0 0 1 725,326.5 L732,346.2969 L732.5,346.2969 A2.5,2.5 0 0 1 735,348.7969 L735,447.5 A2.5,2.5 0 0 1 732.5,450 L530.5,450 A2.5,2.5 0 0 1 528,447.5 L528,326.5 A2.5,2.5 0 0 1 530.5,324 " fill="none" style="stroke:#000000;stroke-width:1.5;"/><line style="stroke:#000000;stroke-width:1.5;" x1="528" x2="732" y1="346.2969" y2="346.2969"/><text fill="#000000" font-family="sans-serif" font-size="14" font-weight="bold" lengthAdjust="spacing" textLength="191" x="532" y="338.9951">SpecializationAggregate</text></g><!--cluster PatientAggregate--><g id="cluster_PatientAggregate"><path d="M45.5,165 L184.5,165 A3.75,3.75 0 0 1 187,167.5 L194,187.2969 L236.5,187.2969 A2.5,2.5 0 0 1 239,189.7969 L239,447.5 A2.5,2.5 0 0 1 236.5,450 L45.5,450 A2.5,2.5 0 0 1 43,447.5 L43,167.5 A2.5,2.5 0 0 1 45.5,165 " fill="none" style="stroke:#000000;stroke-width:1.5;"/><line style="stroke:#000000;stroke-width:1.5;" x1="43" x2="194" y1="187.2969" y2="187.2969"/><text fill="#000000" font-family="sans-serif" font-size="14" font-weight="bold" lengthAdjust="spacing" textLength="138" x="47" y="179.9951">PatientAggregate</text></g><!--cluster OperationRequestAggregate--><g id="cluster_OperationRequestAggregate"><path d="M401.5,766 L628.5,766 A3.75,3.75 0 0 1 631,768.5 L638,788.2969 L638.5,788.2969 A2.5,2.5 0 0 1 641,790.7969 L641,889.5 A2.5,2.5 0 0 1 638.5,892 L401.5,892 A2.5,2.5 0 0 1 399,889.5 L399,768.5 A2.5,2.5 0 0 1 401.5,766 " fill="none" style="stroke:#000000;stroke-width:1.5;"/><line style="stroke:#000000;stroke-width:1.5;" x1="399" x2="638" y1="788.2969" y2="788.2969"/><text fill="#000000" font-family="sans-serif" font-size="14" font-weight="bold" lengthAdjust="spacing" textLength="226" x="403" y="780.9951">OperationRequestAggregate</text></g><!--cluster OperationTypeAggregate--><g id="cluster_OperationTypeAggregate"><path d="M451.5,1174 L652.5,1174 A3.75,3.75 0 0 1 655,1176.5 L662,1196.2969 L662.5,1196.2969 A2.5,2.5 0 0 1 665,1198.7969 L665,1297.5 A2.5,2.5 0 0 1 662.5,1300 L451.5,1300 A2.5,2.5 0 0 1 449,1297.5 L449,1176.5 A2.5,2.5 0 0 1 451.5,1174 " fill="none" style="stroke:#000000;stroke-width:1.5;"/><line style="stroke:#000000;stroke-width:1.5;" x1="449" x2="662" y1="1196.2969" y2="1196.2969"/><text fill="#000000" font-family="sans-serif" font-size="14" font-weight="bold" lengthAdjust="spacing" textLength="200" x="453" y="1188.9951">OperationTypeAggregate</text></g><!--cluster SurgeryRoomAggregate--><g id="cluster_SurgeryRoomAggregate"><path d="M1099.5,766 L1290.5,766 A3.75,3.75 0 0 1 1293,768.5 L1300,788.2969 L1300.5,788.2969 A2.5,2.5 0 0 1 1303,790.7969 L1303,889.5 A2.5,2.5 0 0 1 1300.5,892 L1099.5,892 A2.5,2.5 0 0 1 1097,889.5 L1097,768.5 A2.5,2.5 0 0 1 1099.5,766 " fill="none" style="stroke:#000000;stroke-width:1.5;"/><line style="stroke:#000000;stroke-width:1.5;" x1="1097" x2="1300" y1="788.2969" y2="788.2969"/><text fill="#000000" font-family="sans-serif" font-size="14" font-weight="bold" lengthAdjust="spacing" textLength="190" x="1101" y="780.9951">SurgeryRoomAggregate</text></g><!--cluster AppointmentAggregate--><g id="cluster_AppointmentAggregate"><path d="M774.5,6 L959.5,6 A3.75,3.75 0 0 1 962,8.5 L969,28.2969 L969.5,28.2969 A2.5,2.5 0 0 1 972,30.7969 L972,129.5 A2.5,2.5 0 0 1 969.5,132 L774.5,132 A2.5,2.5 0 0 1 772,129.5 L772,8.5 A2.5,2.5 0 0 1 774.5,6 " fill="none" style="stroke:#000000;stroke-width:1.5;"/><line style="stroke:#000000;stroke-width:1.5;" x1="772" x2="969" y1="28.2969" y2="28.2969"/><text fill="#000000" font-family="sans-serif" font-size="14" font-weight="bold" lengthAdjust="spacing" textLength="184" x="776" y="20.9951">AppointmentAggregate</text></g><!--cluster DoctorAggregate--><g id="cluster_DoctorAggregate"><path d="M563.5,165 L700.5,165 A3.75,3.75 0 0 1 703,167.5 L710,187.2969 L710.5,187.2969 A2.5,2.5 0 0 1 713,189.7969 L713,288.5 A2.5,2.5 0 0 1 710.5,291 L563.5,291 A2.5,2.5 0 0 1 561,288.5 L561,167.5 A2.5,2.5 0 0 1 563.5,165 " fill="none" style="stroke:#000000;stroke-width:1.5;"/><line style="stroke:#000000;stroke-width:1.5;" x1="561" x2="710" y1="187.2969" y2="187.2969"/><text fill="#000000" font-family="sans-serif" font-size="14" font-weight="bold" lengthAdjust="spacing" textLength="136" x="565" y="179.9951">DoctorAggregate</text></g><!--cluster LogAggregate--><g id="cluster_LogAggregate"><path d="M1069.5,6 L1182.5,6 A3.75,3.75 0 0 1 1185,8.5 L1192,28.2969 L1206.5,28.2969 A2.5,2.5 0 0 1 1209,30.7969 L1209,129.5 A2.5,2.5 0 0 1 1206.5,132 L1069.5,132 A2.5,2.5 0 0 1 1067,129.5 L1067,8.5 A2.5,2.5 0 0 1 1069.5,6 " fill="none" style="stroke:#000000;stroke-width:1.5;"/><line style="stroke:#000000;stroke-width:1.5;" x1="1067" x2="1192" y1="28.2969" y2="28.2969"/><text fill="#000000" font-family="sans-serif" font-size="14" font-weight="bold" lengthAdjust="spacing" textLength="112" x="1071" y="20.9951">LogAggregate</text></g><!--class User--><g id="elem_User"><rect codeLine="3" fill="#F1F1F1" height="56.2656" id="User" rx="2.5" ry="2.5" style="stroke:#181818;stroke-width:0.5;" width="111" x="248.5" y="820"/><ellipse cx="263.5" cy="840.1328" fill="#0000FF" rx="11" ry="11" style="stroke:#181818;stroke-width:1.0;"/><path d="M263.6094,844.5859 L265.7969,834.2422 L268.2656,834.2422 L265.3125,846.6328 L261.9219,846.6328 L258.9688,834.2422 L261.4375,834.2422 L263.6094,844.5859 Z " fill="#000000"/><text fill="#000000" font-family="sans-serif" font-size="12" font-style="italic" lengthAdjust="spacing" textLength="83" x="275.5" y="836.1387">&#171;Root Entity&#187;</text><text fill="#000000" font-family="sans-serif" font-size="14" lengthAdjust="spacing" textLength="32" x="301" y="851.9639">User</text><line style="stroke:#181818;stroke-width:0.5;" x1="249.5" x2="358.5" y1="860.2656" y2="860.2656"/><line style="stroke:#181818;stroke-width:0.5;" x1="249.5" x2="358.5" y1="868.2656" y2="868.2656"/></g><!--class Staff--><g id="elem_Staff"><rect codeLine="10" fill="#F1F1F1" height="56.2656" id="Staff" rx="2.5" ry="2.5" style="stroke:#181818;stroke-width:0.5;" width="111" x="892.5" y="820"/><ellipse cx="907.5" cy="840.1328" fill="#0000FF" rx="11" ry="11" style="stroke:#181818;stroke-width:1.0;"/><path d="M907.6094,844.5859 L909.7969,834.2422 L912.2656,834.2422 L909.3125,846.6328 L905.9219,846.6328 L902.9688,834.2422 L905.4375,834.2422 L907.6094,844.5859 Z " fill="#000000"/><text fill="#000000" font-family="sans-serif" font-size="12" font-style="italic" lengthAdjust="spacing" textLength="83" x="919.5" y="836.1387">&#171;Root Entity&#187;</text><text fill="#000000" font-family="sans-serif" font-size="14" lengthAdjust="spacing" textLength="30" x="946" y="851.9639">Staff</text><line style="stroke:#181818;stroke-width:0.5;" x1="893.5" x2="1002.5" y1="860.2656" y2="860.2656"/><line style="stroke:#181818;stroke-width:0.5;" x1="893.5" x2="1002.5" y1="868.2656" y2="868.2656"/></g><!--class ContactInformation--><g id="elem_ContactInformation"><rect codeLine="13" fill="#F1F1F1" height="56.2656" id="ContactInformation" rx="2.5" ry="2.5" style="stroke:#181818;stroke-width:0.5;" width="163" x="893.5" y="647"/><ellipse cx="908.5" cy="667.1328" fill="#ADD1B2" rx="11" ry="11" style="stroke:#181818;stroke-width:1.0;"/><path d="M912.6094,673.1328 L904.8906,673.1328 L904.8906,660.7422 L912.6094,660.7422 L912.6094,662.8984 L907.3438,662.8984 L907.3438,665.5703 L912.1094,665.5703 L912.1094,667.7266 L907.3438,667.7266 L907.3438,670.9766 L912.6094,670.9766 L912.6094,673.1328 Z " fill="#000000"/><text fill="#000000" font-family="sans-serif" font-size="12" font-style="italic" lengthAdjust="spacing" textLength="50" x="963" y="663.1387">&#171;Entity&#187;</text><text fill="#000000" font-family="sans-serif" font-size="14" lengthAdjust="spacing" textLength="131" x="922.5" y="678.9639">ContactInformation</text><line style="stroke:#181818;stroke-width:0.5;" x1="894.5" x2="1055.5" y1="687.2656" y2="687.2656"/><line style="stroke:#181818;stroke-width:0.5;" x1="894.5" x2="1055.5" y1="695.2656" y2="695.2656"/></g><!--class Specialization--><g id="elem_Specialization"><rect codeLine="25" fill="#F1F1F1" height="56.2656" id="Specialization" rx="2.5" ry="2.5" style="stroke:#181818;stroke-width:0.5;" width="126" x="569" y="378"/><ellipse cx="584" cy="398.1328" fill="#0000FF" rx="11" ry="11" style="stroke:#181818;stroke-width:1.0;"/><path d="M584.1094,402.5859 L586.2969,392.2422 L588.7656,392.2422 L585.8125,404.6328 L582.4219,404.6328 L579.4688,392.2422 L581.9375,392.2422 L584.1094,402.5859 Z " fill="#000000"/><text fill="#000000" font-family="sans-serif" font-size="12" font-style="italic" lengthAdjust="spacing" textLength="83" x="603.5" y="394.1387">&#171;Root Entity&#187;</text><text fill="#000000" font-family="sans-serif" font-size="14" lengthAdjust="spacing" textLength="94" x="598" y="409.9639">Specialization</text><line style="stroke:#181818;stroke-width:0.5;" x1="570" x2="694" y1="418.2656" y2="418.2656"/><line style="stroke:#181818;stroke-width:0.5;" x1="570" x2="694" y1="426.2656" y2="426.2656"/></g><!--class Patient--><g id="elem_Patient"><rect codeLine="34" fill="#F1F1F1" height="56.2656" id="Patient" rx="2.5" ry="2.5" style="stroke:#181818;stroke-width:0.5;" width="111" x="85.5" y="219"/><ellipse cx="100.5" cy="239.1328" fill="#0000FF" rx="11" ry="11" style="stroke:#181818;stroke-width:1.0;"/><path d="M100.6094,243.5859 L102.7969,233.2422 L105.2656,233.2422 L102.3125,245.6328 L98.9219,245.6328 L95.9688,233.2422 L98.4375,233.2422 L100.6094,243.5859 Z " fill="#000000"/><text fill="#000000" font-family="sans-serif" font-size="12" font-style="italic" lengthAdjust="spacing" textLength="83" x="112.5" y="235.1387">&#171;Root Entity&#187;</text><text fill="#000000" font-family="sans-serif" font-size="14" lengthAdjust="spacing" textLength="48" x="130" y="250.9639">Patient</text><line style="stroke:#181818;stroke-width:0.5;" x1="86.5" x2="195.5" y1="259.2656" y2="259.2656"/><line style="stroke:#181818;stroke-width:0.5;" x1="86.5" x2="195.5" y1="267.2656" y2="267.2656"/></g><!--class ContactInformation--><g id="elem_ContactInformation"><rect codeLine="39" fill="#F1F1F1" height="56.2656" id="ContactInformation" rx="2.5" ry="2.5" style="stroke:#181818;stroke-width:0.5;" width="163" x="59.5" y="378"/><ellipse cx="74.5" cy="398.1328" fill="#ADD1B2" rx="11" ry="11" style="stroke:#181818;stroke-width:1.0;"/><path d="M78.6094,404.1328 L70.8906,404.1328 L70.8906,391.7422 L78.6094,391.7422 L78.6094,393.8984 L73.3438,393.8984 L73.3438,396.5703 L78.1094,396.5703 L78.1094,398.7266 L73.3438,398.7266 L73.3438,401.9766 L78.6094,401.9766 L78.6094,404.1328 Z " fill="#000000"/><text fill="#000000" font-family="sans-serif" font-size="12" font-style="italic" lengthAdjust="spacing" textLength="50" x="129" y="394.1387">&#171;Entity&#187;</text><text fill="#000000" font-family="sans-serif" font-size="14" lengthAdjust="spacing" textLength="131" x="88.5" y="409.9639">ContactInformation</text><line style="stroke:#181818;stroke-width:0.5;" x1="60.5" x2="221.5" y1="418.2656" y2="418.2656"/><line style="stroke:#181818;stroke-width:0.5;" x1="60.5" x2="221.5" y1="426.2656" y2="426.2656"/></g><!--class OperationRequest--><g id="elem_OperationRequest"><rect codeLine="55" fill="#F1F1F1" height="56.2656" id="OperationRequest" rx="2.5" ry="2.5" style="stroke:#181818;stroke-width:0.5;" width="159" x="414.5" y="820"/><ellipse cx="429.5" cy="840.1328" fill="#0000FF" rx="11" ry="11" style="stroke:#181818;stroke-width:1.0;"/><path d="M429.6094,844.5859 L431.7969,834.2422 L434.2656,834.2422 L431.3125,846.6328 L427.9219,846.6328 L424.9688,834.2422 L427.4375,834.2422 L429.6094,844.5859 Z " fill="#000000"/><text fill="#000000" font-family="sans-serif" font-size="12" font-style="italic" lengthAdjust="spacing" textLength="83" x="465.5" y="836.1387">&#171;Root Entity&#187;</text><text fill="#000000" font-family="sans-serif" font-size="14" lengthAdjust="spacing" textLength="127" x="443.5" y="851.9639">OperationRequest</text><line style="stroke:#181818;stroke-width:0.5;" x1="415.5" x2="572.5" y1="860.2656" y2="860.2656"/><line style="stroke:#181818;stroke-width:0.5;" x1="415.5" x2="572.5" y1="868.2656" y2="868.2656"/></g><!--class OperationType--><g id="elem_OperationType"><rect codeLine="63" fill="#F1F1F1" height="56.2656" id="OperationType" rx="2.5" ry="2.5" style="stroke:#181818;stroke-width:0.5;" width="134" x="490" y="1228"/><ellipse cx="505" cy="1248.1328" fill="#0000FF" rx="11" ry="11" style="stroke:#181818;stroke-width:1.0;"/><path d="M505.1094,1252.5859 L507.2969,1242.2422 L509.7656,1242.2422 L506.8125,1254.6328 L503.4219,1254.6328 L500.4688,1242.2422 L502.9375,1242.2422 L505.1094,1252.5859 Z " fill="#000000"/><text fill="#000000" font-family="sans-serif" font-size="12" font-style="italic" lengthAdjust="spacing" textLength="83" x="528.5" y="1244.1387">&#171;Root Entity&#187;</text><text fill="#000000" font-family="sans-serif" font-size="14" lengthAdjust="spacing" textLength="102" x="519" y="1259.9639">OperationType</text><line style="stroke:#181818;stroke-width:0.5;" x1="491" x2="623" y1="1268.2656" y2="1268.2656"/><line style="stroke:#181818;stroke-width:0.5;" x1="491" x2="623" y1="1276.2656" y2="1276.2656"/></g><!--class SurgeryRoom--><g id="elem_SurgeryRoom"><rect codeLine="69" fill="#F1F1F1" height="56.2656" id="SurgeryRoom" rx="2.5" ry="2.5" style="stroke:#181818;stroke-width:0.5;" width="126" x="1113" y="820"/><ellipse cx="1128" cy="840.1328" fill="#0000FF" rx="11" ry="11" style="stroke:#181818;stroke-width:1.0;"/><path d="M1128.1094,844.5859 L1130.2969,834.2422 L1132.7656,834.2422 L1129.8125,846.6328 L1126.4219,846.6328 L1123.4688,834.2422 L1125.9375,834.2422 L1128.1094,844.5859 Z " fill="#000000"/><text fill="#000000" font-family="sans-serif" font-size="12" font-style="italic" lengthAdjust="spacing" textLength="83" x="1147.5" y="836.1387">&#171;Root Entity&#187;</text><text fill="#000000" font-family="sans-serif" font-size="14" lengthAdjust="spacing" textLength="94" x="1142" y="851.9639">SurgeryRoom</text><line style="stroke:#181818;stroke-width:0.5;" x1="1114" x2="1238" y1="860.2656" y2="860.2656"/><line style="stroke:#181818;stroke-width:0.5;" x1="1114" x2="1238" y1="868.2656" y2="868.2656"/></g><!--class Appointment--><g id="elem_Appointment"><rect codeLine="75" fill="#F1F1F1" height="56.2656" id="Appointment" rx="2.5" ry="2.5" style="stroke:#181818;stroke-width:0.5;" width="121" x="811.5" y="60"/><ellipse cx="826.5" cy="80.1328" fill="#0000FF" rx="11" ry="11" style="stroke:#181818;stroke-width:1.0;"/><path d="M826.6094,84.5859 L828.7969,74.2422 L831.2656,74.2422 L828.3125,86.6328 L824.9219,86.6328 L821.9688,74.2422 L824.4375,74.2422 L826.6094,84.5859 Z " fill="#000000"/><text fill="#000000" font-family="sans-serif" font-size="12" font-style="italic" lengthAdjust="spacing" textLength="83" x="843.5" y="76.1387">&#171;Root Entity&#187;</text><text fill="#000000" font-family="sans-serif" font-size="14" lengthAdjust="spacing" textLength="89" x="840.5" y="91.9639">Appointment</text><line style="stroke:#181818;stroke-width:0.5;" x1="812.5" x2="931.5" y1="100.2656" y2="100.2656"/><line style="stroke:#181818;stroke-width:0.5;" x1="812.5" x2="931.5" y1="108.2656" y2="108.2656"/></g><!--class Doctor--><g id="elem_Doctor"><rect codeLine="80" fill="#F1F1F1" height="56.2656" id="Doctor" rx="2.5" ry="2.5" style="stroke:#181818;stroke-width:0.5;" width="111" x="579.5" y="219"/><ellipse cx="594.5" cy="239.1328" fill="#0000FF" rx="11" ry="11" style="stroke:#181818;stroke-width:1.0;"/><path d="M594.6094,243.5859 L596.7969,233.2422 L599.2656,233.2422 L596.3125,245.6328 L592.9219,245.6328 L589.9688,233.2422 L592.4375,233.2422 L594.6094,243.5859 Z " fill="#000000"/><text fill="#000000" font-family="sans-serif" font-size="12" font-style="italic" lengthAdjust="spacing" textLength="83" x="606.5" y="235.1387">&#171;Root Entity&#187;</text><text fill="#000000" font-family="sans-serif" font-size="14" lengthAdjust="spacing" textLength="47" x="624.5" y="250.9639">Doctor</text><line style="stroke:#181818;stroke-width:0.5;" x1="580.5" x2="689.5" y1="259.2656" y2="259.2656"/><line style="stroke:#181818;stroke-width:0.5;" x1="580.5" x2="689.5" y1="267.2656" y2="267.2656"/></g><!--class Log--><g id="elem_Log"><rect codeLine="86" fill="#F1F1F1" height="56.2656" id="Log" rx="2.5" ry="2.5" style="stroke:#181818;stroke-width:0.5;" width="111" x="1082.5" y="60"/><ellipse cx="1097.5" cy="80.1328" fill="#0000FF" rx="11" ry="11" style="stroke:#181818;stroke-width:1.0;"/><path d="M1097.6094,84.5859 L1099.7969,74.2422 L1102.2656,74.2422 L1099.3125,86.6328 L1095.9219,86.6328 L1092.9688,74.2422 L1095.4375,74.2422 L1097.6094,84.5859 Z " fill="#000000"/><text fill="#000000" font-family="sans-serif" font-size="12" font-style="italic" lengthAdjust="spacing" textLength="83" x="1109.5" y="76.1387">&#171;Root Entity&#187;</text><text fill="#000000" font-family="sans-serif" font-size="14" lengthAdjust="spacing" textLength="25" x="1138.5" y="91.9639">Log</text><line style="stroke:#181818;stroke-width:0.5;" x1="1083.5" x2="1192.5" y1="100.2656" y2="100.2656"/><line style="stroke:#181818;stroke-width:0.5;" x1="1083.5" x2="1192.5" y1="108.2656" y2="108.2656"/></g><!--class OperationPriority--><g id="elem_OperationPriority"><rect fill="#F1F1F1" height="48" id="OperationPriority" rx="2.5" ry="2.5" style="stroke:#181818;stroke-width:0.5;" width="146" x="358" y="939"/><ellipse cx="373" cy="955" fill="#ADD1B2" rx="11" ry="11" style="stroke:#181818;stroke-width:1.0;"/><path d="M375.9688,960.6406 Q375.3906,960.9375 374.75,961.0781 Q374.1094,961.2344 373.4063,961.2344 Q370.9063,961.2344 369.5781,959.5938 Q368.2656,957.9375 368.2656,954.8125 Q368.2656,951.6875 369.5781,950.0313 Q370.9063,948.375 373.4063,948.375 Q374.1094,948.375 374.75,948.5313 Q375.4063,948.6875 375.9688,948.9844 L375.9688,951.7031 Q375.3438,951.125 374.75,950.8594 Q374.1563,950.5781 373.5313,950.5781 Q372.1875,950.5781 371.5,951.6563 Q370.8125,952.7188 370.8125,954.8125 Q370.8125,956.9063 371.5,957.9844 Q372.1875,959.0469 373.5313,959.0469 Q374.1563,959.0469 374.75,958.7813 Q375.3438,958.5 375.9688,957.9219 L375.9688,960.6406 Z " fill="#000000"/><text fill="#000000" font-family="sans-serif" font-size="14" lengthAdjust="spacing" textLength="114" x="387" y="959.8467">OperationPriority</text><line style="stroke:#181818;stroke-width:0.5;" x1="359" x2="503" y1="971" y2="971"/><line style="stroke:#181818;stroke-width:0.5;" x1="359" x2="503" y1="979" y2="979"/></g><!--link ContactInformation to Staff--><g id="link_ContactInformation_Staff"><path codeLine="20" d="M970.72,703.1 C965.68,735.02 959.2212,775.9068 954.1712,807.8968 " fill="none" id="ContactInformation-to-Staff" style="stroke:#181818;stroke-width:1.0;"/><polygon fill="#181818" points="952.3,819.75,957.1867,814.4471,954.1712,807.8968,949.2845,813.1997,952.3,819.75" style="stroke:#181818;stroke-width:1.0;"/><text fill="#000000" font-family="sans-serif" font-size="13" lengthAdjust="spacing" textLength="8" x="960.8053" y="723.384">1</text><text fill="#000000" font-family="sans-serif" font-size="13" lengthAdjust="spacing" textLength="8" x="944.3656" y="808.9821">1</text></g><!--reverse link Specialization to Staff--><g id="link_Specialization_Staff"><path codeLine="30" d="M634.1196,440.12 C639.2796,503.14 659.75,655.26 743,750 C782.11,794.51 846.09,820.21 892.18,833.84 " fill="none" id="Specialization-backto-Staff" style="stroke:#181818;stroke-width:1.0;"/><polygon fill="#181818" points="633.63,434.14,630.3778,443.4364,634.038,439.1233,638.3511,442.7836,633.63,434.14" style="stroke:#181818;stroke-width:1.0;"/><text fill="#000000" font-family="sans-serif" font-size="13" lengthAdjust="spacing" textLength="35" x="658" y="573.0669">has a</text><text fill="#000000" font-family="sans-serif" font-size="13" lengthAdjust="spacing" textLength="8" x="625.0819" y="454.4333">1</text><text fill="#000000" font-family="sans-serif" font-size="13" lengthAdjust="spacing" textLength="8" x="876.5156" y="845.0451">1</text></g><!--reverse link Patient to ContactInformation--><g id="link_Patient_ContactInformation"><path codeLine="44" d="M141,287.35 C141,316.16 141,349.27 141,377.97 " fill="none" id="Patient-backto-ContactInformation" style="stroke:#181818;stroke-width:1.0;"/><polygon fill="#181818" points="141,275.35,137,281.35,141,287.35,145,281.35,141,275.35" style="stroke:#181818;stroke-width:1.0;"/><text fill="#000000" font-family="sans-serif" font-size="13" lengthAdjust="spacing" textLength="8" x="132.125" y="295.2446">1</text><text fill="#000000" font-family="sans-serif" font-size="13" lengthAdjust="spacing" textLength="8" x="132.075" y="366.8052">1</text></g><!--reverse link OperationRequest to OperationPriority--><g id="link_OperationRequest_OperationPriority"><path codeLine="60" d="M473.0661,886.5509 C462.3661,905.7409 454,920.75 443.84,938.97 " fill="none" id="OperationRequest-backto-OperationPriority" style="stroke:#181818;stroke-width:1.0;"/><polygon fill="#181818" points="478.91,876.07,472.4944,879.3624,473.0661,886.5509,479.4817,883.2584,478.91,876.07" style="stroke:#181818;stroke-width:1.0;"/><text fill="#000000" font-family="sans-serif" font-size="13" lengthAdjust="spacing" textLength="8" x="466.4954" y="896.3471">1</text><text fill="#000000" font-family="sans-serif" font-size="13" lengthAdjust="spacing" textLength="8" x="438.1052" y="927.9743">1</text></g><!--reverse link User to Staff--><g id="link_User_Staff"><path codeLine="94" d="M327.985,815.2283 C345.175,793.8983 368.15,770.79 399,758 C413.79,751.87 419,757.22 435,757 C487.17,756.28 569.3,755.49 589,758 C698.31,771.92 822.28,807.58 892.21,829.61 " fill="none" id="User-backto-Staff" style="stroke:#181818;stroke-width:1.0;"/><polygon fill="#181818" points="324.22,819.9,332.9819,815.4024,327.3575,816.0069,326.753,810.3824,324.22,819.9" style="stroke:#181818;stroke-width:1.0;"/><text fill="#000000" font-family="sans-serif" font-size="13" lengthAdjust="spacing" textLength="22" x="436" y="746.0669">is a</text><text fill="#000000" font-family="sans-serif" font-size="13" lengthAdjust="spacing" textLength="8" x="319.9709" y="808.719">1</text><text fill="#000000" font-family="sans-serif" font-size="13" lengthAdjust="spacing" textLength="8" x="876.5494" y="823.3512">1</text></g><!--link Patient to User--><g id="link_Patient_User"><path codeLine="95" d="M89.81,275.03 C72.84,285.95 54.99,299.82 42,316 C15.28,349.27 6,362.33 6,405 C6,405 6,405 6,676 C6,786.5 156.1247,825.6761 242.3747,839.4161 " fill="none" id="Patient-to-User" style="stroke:#181818;stroke-width:1.0;"/><polygon fill="#181818" points="248.3,840.36,240.0414,834.9939,243.3623,839.5734,238.7828,842.8943,248.3,840.36" style="stroke:#181818;stroke-width:1.0;"/><text fill="#000000" font-family="sans-serif" font-size="13" lengthAdjust="spacing" textLength="55" x="7" y="526.0669">can be a</text><text fill="#000000" font-family="sans-serif" font-size="13" lengthAdjust="spacing" textLength="8" x="69.7372" y="294.8546">1</text><text fill="#000000" font-family="sans-serif" font-size="13" lengthAdjust="spacing" textLength="8" x="232.6509" y="835.4786">1</text></g><!--reverse link Doctor to Staff--><g id="link_Doctor_Staff"><path codeLine="99" d="M684.5286,278.4904 C723.5086,305.8904 769,348.74 769,405 C769,405 769,405 769,676 C769,745.19 839.8,794.99 892.34,822.42 " fill="none" id="Doctor-backto-Staff" style="stroke:#181818;stroke-width:1.0;"/><polygon fill="#181818" points="679.62,275.04,684.6827,283.488,683.7105,277.9153,689.2832,276.9432,679.62,275.04" style="stroke:#181818;stroke-width:1.0;"/><text fill="#000000" font-family="sans-serif" font-size="13" lengthAdjust="spacing" textLength="48" x="770" y="526.0669">may be</text><text fill="#000000" font-family="sans-serif" font-size="13" lengthAdjust="spacing" textLength="24" x="663.1634" y="295.3102">0..1</text><text fill="#000000" font-family="sans-serif" font-size="13" lengthAdjust="spacing" textLength="8" x="876.5191" y="809.3358">1</text></g><!--link Doctor to OperationRequest--><g id="link_Doctor_OperationRequest"><path codeLine="100" d="M586.87,275.25 C546.02,302.34 494,348.03 494,405 C494,405 494,405 494,676 C494,726.77 494,780.01 494,813.75 " fill="none" id="Doctor-to-OperationRequest" style="stroke:#181818;stroke-width:1.0;"/><polygon fill="#181818" points="494,819.75,498,810.75,494,814.75,490,810.75,494,819.75" style="stroke:#181818;stroke-width:1.0;"/><text fill="#000000" font-family="sans-serif" font-size="13" lengthAdjust="spacing" textLength="48" x="495" y="526.0669">creates</text><text fill="#000000" font-family="sans-serif" font-size="13" lengthAdjust="spacing" textLength="8" x="567.4666" y="295.1227">1</text><text fill="#000000" font-family="sans-serif" font-size="13" lengthAdjust="spacing" textLength="7" x="486.2344" y="808.9821">*</text></g><!--reverse link Patient to OperationRequest--><g id="link_Patient_OperationRequest"><path codeLine="101" d="M197.2356,278.2768 C214.2056,289.1968 227.01,299.82 240,316 C266.72,349.27 276,362.33 276,405 C276,405 276,405 276,676 C276,681.71 396.08,773.14 458,819.9 " fill="none" id="Patient-backto-OperationRequest" style="stroke:#181818;stroke-width:1.0;"/><polygon fill="#181818" points="192.19,275.03,197.5939,283.2639,196.3947,277.7357,201.923,276.5365,192.19,275.03" style="stroke:#181818;stroke-width:1.0;"/><text fill="#000000" font-family="sans-serif" font-size="13" lengthAdjust="spacing" textLength="69" x="277" y="526.0669">pertains to</text><text fill="#000000" font-family="sans-serif" font-size="13" lengthAdjust="spacing" textLength="7" x="196.2183" y="295.2979">*</text><text fill="#000000" font-family="sans-serif" font-size="13" lengthAdjust="spacing" textLength="7" x="441.8656" y="808.719">*</text></g><!--link OperationRequest to OperationType--><g id="link_OperationRequest_OperationType"><path codeLine="102" d="M519.62,876.39 C537.07,897.95 557,929.66 557,962 C557,962 557,962 557,1127 C557,1161.67 557,1195.61 557,1221.53 " fill="none" id="OperationRequest-to-OperationType" style="stroke:#181818;stroke-width:1.0;"/><polygon fill="#181818" points="557,1227.53,561,1218.53,557,1222.53,553,1218.53,557,1227.53" style="stroke:#181818;stroke-width:1.0;"/><text fill="#000000" font-family="sans-serif" font-size="13" lengthAdjust="spacing" textLength="54" x="558" y="1061.0669">contains</text><text fill="#000000" font-family="sans-serif" font-size="13" lengthAdjust="spacing" textLength="7" x="517.4588" y="896.2933">*</text><text fill="#000000" font-family="sans-serif" font-size="13" lengthAdjust="spacing" textLength="8" x="548.125" y="1216.7139">1</text></g><!--reverse link Specialization to OperationRequest--><g id="link_Specialization_OperationRequest"><path codeLine="103" d="M621.6744,439.915 C596.9344,518.795 527.14,741.34 502.47,819.99 " fill="none" id="Specialization-backto-OperationRequest" style="stroke:#181818;stroke-width:1.0;"/><polygon fill="#181818" points="623.47,434.19,616.9599,441.5805,621.9737,438.9608,624.5933,443.9746,623.47,434.19" style="stroke:#181818;stroke-width:1.0;"/><text fill="#000000" font-family="sans-serif" font-size="13" lengthAdjust="spacing" textLength="56" x="584" y="573.0669">requests</text><text fill="#000000" font-family="sans-serif" font-size="13" lengthAdjust="spacing" textLength="7" x="613.6881" y="454.4949">*</text><text fill="#000000" font-family="sans-serif" font-size="13" lengthAdjust="spacing" textLength="7" x="496.6193" y="808.8299">*</text></g><!--link Appointment to OperationRequest--><g id="link_Appointment_OperationRequest"><path codeLine="106" d="M811.26,96.23 C683.78,113.1 400,160.29 400,246 C400,246 400,246 400,676 C400,732.58 436.0473,783.596 463.8673,815.366 " fill="none" id="Appointment-to-OperationRequest" style="stroke:#181818;stroke-width:1.0;"/><polygon fill="#181818" points="467.82,819.88,464.9002,810.4739,464.5261,816.1184,458.8816,815.7442,467.82,819.88" style="stroke:#181818;stroke-width:1.0;"/><text fill="#000000" font-family="sans-serif" font-size="13" lengthAdjust="spacing" textLength="69" x="401" y="479.0669">pertains to</text><text fill="#000000" font-family="sans-serif" font-size="13" lengthAdjust="spacing" textLength="8" x="795.3698" y="93.3778">1</text><text fill="#000000" font-family="sans-serif" font-size="13" lengthAdjust="spacing" textLength="8" x="453.2181" y="809.1405">1</text></g><!--link Appointment to Staff--><g id="link_Appointment_Staff"><path codeLine="107" d="M872,116.23 C872,147.54 872,200.48 872,246 C872,246 872,246 872,475.5 C872,576.63 851.9,604.79 876,703 C886.66,746.43 908.9234,786.7425 926.5134,814.6825 " fill="none" id="Appointment-to-Staff" style="stroke:#181818;stroke-width:1.0;"/><polygon fill="#181818" points="929.71,819.76,928.3001,810.0126,927.0461,815.5287,921.53,814.2748,929.71,819.76" style="stroke:#181818;stroke-width:1.0;"/><text fill="#000000" font-family="sans-serif" font-size="13" lengthAdjust="spacing" textLength="55" x="873" y="479.0669">reserves</text><text fill="#000000" font-family="sans-serif" font-size="13" lengthAdjust="spacing" textLength="7" x="864.1906" y="136.5441">*</text><text fill="#000000" font-family="sans-serif" font-size="13" lengthAdjust="spacing" textLength="7" x="917.9434" y="808.9942">*</text></g><!--link Appointment to SurgeryRoom--><g id="link_Appointment_SurgeryRoom"><path codeLine="108" d="M932.82,97.01 C1012.72,111.33 1143,149.49 1143,246 C1143,246 1143,246 1143,676 C1143,727.55 1155.9576,780.5307 1165.7376,814.0107 " fill="none" id="Appointment-to-SurgeryRoom" style="stroke:#181818;stroke-width:1.0;"/><polygon fill="#181818" points="1167.42,819.77,1168.736,810.0095,1166.018,814.9706,1161.0569,812.2526,1167.42,819.77" style="stroke:#181818;stroke-width:1.0;"/><text fill="#000000" font-family="sans-serif" font-size="13" lengthAdjust="spacing" textLength="67" x="1144" y="479.0669">reserves a</text><text fill="#000000" font-family="sans-serif" font-size="13" lengthAdjust="spacing" textLength="7" x="940.659" y="94.2528">*</text><text fill="#000000" font-family="sans-serif" font-size="13" lengthAdjust="spacing" textLength="7" x="1157.7775" y="809.0064">*</text></g><!--SRC=[bLHTJy8m57rslwB15rqimLT2I8XAOcBYWX_lTLvc8sjdLpIJ-D_jnpwwqJ5OGe3TSyuzz-vq4Oa_IGBe9GUnI1812P60Ti7P7PDK5kO-ciqkNg_E9-fQBY_HYdE9R7a-t_q5GQ0_KIdq9CbwxLCoXK6f2dt3cIInl6ThBb8YAMUAMY6HWUhhp8CRNOyGng7vDasDmTfV1Z4b6_fhmBLHnsSBSCpi7ORkEyEuwO-cw8FaY3XRYXGKcFJjgImDDZvnLxsRscRbhih6vVCC7BUF6GZ3MC7N5dAlxIvcoB_kKNCYGRdGAcr7NKsFe-SYWuDsDE0OBtK-jY81KIXCwarnKpv5TP5bd3APzZnpfto4QYLwosF9XIV2jd2AlmUU-7ofsmCgLLHiqEtHmnjOIupdvgzvWKmHrVclecrXx_o7uGui9WozWJagGJd5Q38UsnFLFb8fAHIqHjdEHYxSJuwM5g26ouEzaiRNfaj-vNIA55eIod8aUI-r6g8TEjLI7pd5tNj3X7OUtETLs5-vse8RZNh8Rh-6wTfjKKE76ZPR5A0M_wtMSX3iXBwXgAVq3m00]--></g></svg>