<?xml version="1.0" encoding="us-ascii" standalone="no"?><svg xmlns="http://www.w3.org/2000/svg" xmlns:xlink="http://www.w3.org/1999/xlink" contentStyleType="text/css" height="960px" preserveAspectRatio="none" style="width:2350px;height:960px;background:#FFFFFF;" version="1.1" viewBox="0 0 2350 960" width="2350px" zoomAndPan="magnify"><defs/><g><rect fill="#FFFFFF" height="46.7031" style="stroke:#181818;stroke-width:1.0;" width="10" x="275" y="86.3125"/><rect fill="#FFFFFF" height="30.3516" style="stroke:#181818;stroke-width:1.0;" width="10" x="275" y="875.4531"/><rect fill="#FFFFFF" height="93.1484" style="stroke:#181818;stroke-width:1.0;" width="10" x="656" y="133.0156"/><rect fill="#FFFFFF" height="30.3516" style="stroke:#181818;stroke-width:1.0;" width="10" x="656" y="845.1016"/><rect fill="#FFFFFF" height="30.3516" style="stroke:#181818;stroke-width:1.0;" width="10" x="1026" y="226.1641"/><rect fill="#FFFFFF" height="30.3516" style="stroke:#181818;stroke-width:1.0;" width="10" x="1026" y="286.8672"/><rect fill="#FFFFFF" height="30.3516" style="stroke:#181818;stroke-width:1.0;" width="10" x="1026" y="347.5703"/><rect fill="#FFFFFF" height="72.9609" style="stroke:#181818;stroke-width:1.0;" width="10" x="1026" y="408.2734"/><rect fill="#FFFFFF" height="55.7031" style="stroke:#181818;stroke-width:1.0;" width="10" x="1026" y="511.5859"/><rect fill="#FFFFFF" height="30.3516" style="stroke:#181818;stroke-width:1.0;" width="10" x="1026" y="597.6406"/><rect fill="#FFFFFF" height="67.7031" style="stroke:#181818;stroke-width:1.0;" width="10" x="1026" y="658.3438"/><rect fill="#FFFFFF" height="174.7578" style="stroke:#181818;stroke-width:1.0;" width="10" x="1026" y="740.0469"/><rect fill="#FFFFFF" height="30.3516" style="stroke:#181818;stroke-width:1.0;" width="10" x="1031" y="754.0469"/><rect fill="#FFFFFF" height="30.3516" style="stroke:#181818;stroke-width:1.0;" width="10" x="1031" y="814.75"/><rect fill="#FFFFFF" height="30.3516" style="stroke:#181818;stroke-width:1.0;" width="10" x="1199" y="784.3984"/><rect fill="#FFFFFF" height="30.3516" style="stroke:#181818;stroke-width:1.0;" width="10" x="1374" y="627.9922"/><rect fill="#FFFFFF" height="30.3516" style="stroke:#181818;stroke-width:1.0;" width="10" x="1531.5" y="256.5156"/><rect fill="#FFFFFF" height="30.3516" style="stroke:#181818;stroke-width:1.0;" width="10" x="1703.5" y="317.2188"/><rect fill="#FFFFFF" height="30.3516" style="stroke:#181818;stroke-width:1.0;" width="10" x="1903.5" y="377.9219"/><rect fill="#FFFFFF" height="14" style="stroke:#181818;stroke-width:1.0;" width="10" x="2051" y="726.0469"/><rect fill="#FFFFFF" height="30.3516" style="stroke:#181818;stroke-width:1.0;" width="10" x="2176" y="481.2344"/><rect fill="#FFFFFF" height="30.3516" style="stroke:#181818;stroke-width:1.0;" width="10" x="2292" y="567.2891"/><rect fill="none" height="170.1094" style="stroke:#000000;stroke-width:1.5;" width="1393.5" x="951" y="526.5859"/><line style="stroke:#181818;stroke-width:0.5;stroke-dasharray:5.0,5.0;" x1="279.5" x2="279.5" y1="37.6094" y2="923.8047"/><line style="stroke:#181818;stroke-width:0.5;stroke-dasharray:5.0,5.0;" x1="660.5" x2="660.5" y1="37.6094" y2="923.8047"/><line style="stroke:#181818;stroke-width:0.5;stroke-dasharray:5.0,5.0;" x1="1031" x2="1031" y1="37.6094" y2="923.8047"/><line style="stroke:#181818;stroke-width:0.5;stroke-dasharray:5.0,5.0;" x1="1203.5" x2="1203.5" y1="37.6094" y2="923.8047"/><line style="stroke:#181818;stroke-width:0.5;stroke-dasharray:5.0,5.0;" x1="1378.5" x2="1378.5" y1="37.6094" y2="923.8047"/><line style="stroke:#181818;stroke-width:0.5;stroke-dasharray:5.0,5.0;" x1="1536.5" x2="1536.5" y1="37.6094" y2="923.8047"/><line style="stroke:#181818;stroke-width:0.5;stroke-dasharray:5.0,5.0;" x1="1708.5" x2="1708.5" y1="37.6094" y2="923.8047"/><line style="stroke:#181818;stroke-width:0.5;stroke-dasharray:5.0,5.0;" x1="1908.5" x2="1908.5" y1="37.6094" y2="923.8047"/><line style="stroke:#181818;stroke-width:0.5;stroke-dasharray:5.0,5.0;" x1="2055.5" x2="2055.5" y1="37.6094" y2="923.8047"/><line style="stroke:#181818;stroke-width:0.5;stroke-dasharray:5.0,5.0;" x1="2180.5" x2="2180.5" y1="447.5781" y2="923.8047"/><line style="stroke:#181818;stroke-width:0.5;stroke-dasharray:5.0,5.0;" x1="2296.5" x2="2296.5" y1="37.6094" y2="923.8047"/><rect fill="#E2E2F0" height="31.6094" rx="2.5" ry="2.5" style="stroke:#181818;stroke-width:0.5;" width="63" x="248.5" y="5"/><text fill="#000000" font-family="sans-serif" font-size="14" lengthAdjust="spacing" textLength="49" x="255.5" y="26.5332">Routing</text><rect fill="#E2E2F0" height="31.6094" rx="2.5" ry="2.5" style="stroke:#181818;stroke-width:0.5;" width="63" x="248.5" y="922.8047"/><text fill="#000000" font-family="sans-serif" font-size="14" lengthAdjust="spacing" textLength="49" x="255.5" y="944.3379">Routing</text><rect fill="#E2E2F0" height="31.6094" rx="2.5" ry="2.5" style="stroke:#181818;stroke-width:0.5;" width="155" x="583.5" y="5"/><text fill="#000000" font-family="sans-serif" font-size="14" lengthAdjust="spacing" textLength="141" x="590.5" y="26.5332">AppointmentController</text><rect fill="#E2E2F0" height="31.6094" rx="2.5" ry="2.5" style="stroke:#181818;stroke-width:0.5;" width="155" x="583.5" y="922.8047"/><text fill="#000000" font-family="sans-serif" font-size="14" lengthAdjust="spacing" textLength="141" x="590.5" y="944.3379">AppointmentController</text><rect fill="#E2E2F0" height="31.6094" rx="2.5" ry="2.5" style="stroke:#181818;stroke-width:0.5;" width="140" x="961" y="5"/><text fill="#000000" font-family="sans-serif" font-size="14" lengthAdjust="spacing" textLength="126" x="968" y="26.5332">AppointmentService</text><rect fill="#E2E2F0" height="31.6094" rx="2.5" ry="2.5" style="stroke:#181818;stroke-width:0.5;" width="140" x="961" y="922.8047"/><text fill="#000000" font-family="sans-serif" font-size="14" lengthAdjust="spacing" textLength="126" x="968" y="944.3379">AppointmentService</text><rect fill="#E2E2F0" height="31.6094" rx="2.5" ry="2.5" style="stroke:#181818;stroke-width:0.5;" width="161" x="1123.5" y="5"/><text fill="#000000" font-family="sans-serif" font-size="14" lengthAdjust="spacing" textLength="147" x="1130.5" y="26.5332">AppointmentRepository</text><rect fill="#E2E2F0" height="31.6094" rx="2.5" ry="2.5" style="stroke:#181818;stroke-width:0.5;" width="161" x="1123.5" y="922.8047"/><text fill="#000000" font-family="sans-serif" font-size="14" lengthAdjust="spacing" textLength="147" x="1130.5" y="944.3379">AppointmentRepository</text><rect fill="#E2E2F0" height="31.6094" rx="2.5" ry="2.5" style="stroke:#181818;stroke-width:0.5;" width="169" x="1294.5" y="5"/><text fill="#000000" font-family="sans-serif" font-size="14" lengthAdjust="spacing" textLength="155" x="1301.5" y="26.5332">AssignedStaffRepository</text><rect fill="#E2E2F0" height="31.6094" rx="2.5" ry="2.5" style="stroke:#181818;stroke-width:0.5;" width="169" x="1294.5" y="922.8047"/><text fill="#000000" font-family="sans-serif" font-size="14" lengthAdjust="spacing" textLength="155" x="1301.5" y="944.3379">AssignedStaffRepository</text><rect fill="#E2E2F0" height="31.6094" rx="2.5" ry="2.5" style="stroke:#181818;stroke-width:0.5;" width="126" x="1473.5" y="5"/><text fill="#000000" font-family="sans-serif" font-size="14" lengthAdjust="spacing" textLength="112" x="1480.5" y="26.5332">PatientRepository</text><rect fill="#E2E2F0" height="31.6094" rx="2.5" ry="2.5" style="stroke:#181818;stroke-width:0.5;" width="126" x="1473.5" y="922.8047"/><text fill="#000000" font-family="sans-serif" font-size="14" lengthAdjust="spacing" textLength="112" x="1480.5" y="944.3379">PatientRepository</text><rect fill="#E2E2F0" height="31.6094" rx="2.5" ry="2.5" style="stroke:#181818;stroke-width:0.5;" width="198" x="1609.5" y="5"/><text fill="#000000" font-family="sans-serif" font-size="14" lengthAdjust="spacing" textLength="184" x="1616.5" y="26.5332">OperationRequestRepository</text><rect fill="#E2E2F0" height="31.6094" rx="2.5" ry="2.5" style="stroke:#181818;stroke-width:0.5;" width="198" x="1609.5" y="922.8047"/><text fill="#000000" font-family="sans-serif" font-size="14" lengthAdjust="spacing" textLength="184" x="1616.5" y="944.3379">OperationRequestRepository</text><rect fill="#E2E2F0" height="31.6094" rx="2.5" ry="2.5" style="stroke:#181818;stroke-width:0.5;" width="182" x="1817.5" y="5"/><text fill="#000000" font-family="sans-serif" font-size="14" lengthAdjust="spacing" textLength="168" x="1824.5" y="26.5332">OperationRoomRepository</text><rect fill="#E2E2F0" height="31.6094" rx="2.5" ry="2.5" style="stroke:#181818;stroke-width:0.5;" width="182" x="1817.5" y="922.8047"/><text fill="#000000" font-family="sans-serif" font-size="14" lengthAdjust="spacing" textLength="168" x="1824.5" y="944.3379">OperationRoomRepository</text><rect fill="#E2E2F0" height="31.6094" rx="2.5" ry="2.5" style="stroke:#181818;stroke-width:0.5;" width="93" x="2009.5" y="5"/><text fill="#000000" font-family="sans-serif" font-size="14" lengthAdjust="spacing" textLength="79" x="2016.5" y="26.5332">Appointment</text><rect fill="#E2E2F0" height="31.6094" rx="2.5" ry="2.5" style="stroke:#181818;stroke-width:0.5;" width="93" x="2009.5" y="922.8047"/><text fill="#000000" font-family="sans-serif" font-size="14" lengthAdjust="spacing" textLength="79" x="2016.5" y="944.3379">Appointment</text><rect fill="#E2E2F0" height="31.6094" rx="2.5" ry="2.5" style="stroke:#181818;stroke-width:0.5;" width="137" x="2112.5" y="922.8047"/><text fill="#000000" font-family="sans-serif" font-size="14" lengthAdjust="spacing" textLength="123" x="2119.5" y="944.3379">AppointmentBuilder</text><rect fill="#E2E2F0" height="31.6094" rx="2.5" ry="2.5" style="stroke:#181818;stroke-width:0.5;" width="75" x="2259.5" y="5"/><text fill="#000000" font-family="sans-serif" font-size="14" lengthAdjust="spacing" textLength="61" x="2266.5" y="26.5332">staffRepo</text><rect fill="#E2E2F0" height="31.6094" rx="2.5" ry="2.5" style="stroke:#181818;stroke-width:0.5;" width="75" x="2259.5" y="922.8047"/><text fill="#000000" font-family="sans-serif" font-size="14" lengthAdjust="spacing" textLength="61" x="2266.5" y="944.3379">staffRepo</text><rect fill="#FFFFFF" height="46.7031" style="stroke:#181818;stroke-width:1.0;" width="10" x="275" y="86.3125"/><rect fill="#FFFFFF" height="30.3516" style="stroke:#181818;stroke-width:1.0;" width="10" x="275" y="875.4531"/><rect fill="#FFFFFF" height="93.1484" style="stroke:#181818;stroke-width:1.0;" width="10" x="656" y="133.0156"/><rect fill="#FFFFFF" height="30.3516" style="stroke:#181818;stroke-width:1.0;" width="10" x="656" y="845.1016"/><rect fill="#FFFFFF" height="30.3516" style="stroke:#181818;stroke-width:1.0;" width="10" x="1026" y="226.1641"/><rect fill="#FFFFFF" height="30.3516" style="stroke:#181818;stroke-width:1.0;" width="10" x="1026" y="286.8672"/><rect fill="#FFFFFF" height="30.3516" style="stroke:#181818;stroke-width:1.0;" width="10" x="1026" y="347.5703"/><rect fill="#FFFFFF" height="72.9609" style="stroke:#181818;stroke-width:1.0;" width="10" x="1026" y="408.2734"/><rect fill="#FFFFFF" height="55.7031" style="stroke:#181818;stroke-width:1.0;" width="10" x="1026" y="511.5859"/><rect fill="#FFFFFF" height="30.3516" style="stroke:#181818;stroke-width:1.0;" width="10" x="1026" y="597.6406"/><rect fill="#FFFFFF" height="67.7031" style="stroke:#181818;stroke-width:1.0;" width="10" x="1026" y="658.3438"/><rect fill="#FFFFFF" height="174.7578" style="stroke:#181818;stroke-width:1.0;" width="10" x="1026" y="740.0469"/><rect fill="#FFFFFF" height="30.3516" style="stroke:#181818;stroke-width:1.0;" width="10" x="1031" y="754.0469"/><rect fill="#FFFFFF" height="30.3516" style="stroke:#181818;stroke-width:1.0;" width="10" x="1031" y="814.75"/><rect fill="#FFFFFF" height="30.3516" style="stroke:#181818;stroke-width:1.0;" width="10" x="1199" y="784.3984"/><rect fill="#FFFFFF" height="30.3516" style="stroke:#181818;stroke-width:1.0;" width="10" x="1374" y="627.9922"/><rect fill="#FFFFFF" height="30.3516" style="stroke:#181818;stroke-width:1.0;" width="10" x="1531.5" y="256.5156"/><rect fill="#FFFFFF" height="30.3516" style="stroke:#181818;stroke-width:1.0;" width="10" x="1703.5" y="317.2188"/><rect fill="#FFFFFF" height="30.3516" style="stroke:#181818;stroke-width:1.0;" width="10" x="1903.5" y="377.9219"/><rect fill="#FFFFFF" height="14" style="stroke:#181818;stroke-width:1.0;" width="10" x="2051" y="726.0469"/><rect fill="#FFFFFF" height="30.3516" style="stroke:#181818;stroke-width:1.0;" width="10" x="2176" y="481.2344"/><rect fill="#FFFFFF" height="30.3516" style="stroke:#181818;stroke-width:1.0;" width="10" x="2292" y="567.2891"/><polygon fill="#181818" points="263,82.3125,273,86.3125,263,90.3125,267,86.3125" style="stroke:#181818;stroke-width:1.0;"/><line style="stroke:#181818;stroke-width:1.0;" x1="0" x2="269" y1="86.3125" y2="86.3125"/><text fill="#000000" font-family="sans-serif" font-size="13" lengthAdjust="spacing" textLength="252" x="7" y="65.1045">PUT(dateAndTime, staffIDs, patientNumber,</text><text fill="#000000" font-family="sans-serif" font-size="13" lengthAdjust="spacing" textLength="187" x="7" y="81.4561">operationRoom, requestID, auth)</text><polygon fill="#181818" points="644,129.0156,654,133.0156,644,137.0156,648,133.0156" style="stroke:#181818;stroke-width:1.0;"/><line style="stroke:#181818;stroke-width:1.0;" x1="280" x2="650" y1="133.0156" y2="133.0156"/><text fill="#000000" font-family="sans-serif" font-size="13" lengthAdjust="spacing" textLength="348" x="287" y="111.8076">RegisterAppointment(dateAndTime, staffIDs, patientNumber,</text><text fill="#000000" font-family="sans-serif" font-size="13" lengthAdjust="spacing" textLength="187" x="287" y="128.1592">operationRoom, requestID, auth)</text><rect fill="none" height="41.4453" style="stroke:#000000;stroke-width:1.5;" width="161" x="580.5" y="141.0156"/><path d="M580.5,141.0156 L642.5,141.0156 L642.5,149.0156 L632.5,159.0156 L580.5,159.0156 L580.5,141.0156 " fill="#EEEEEE" style="stroke:#000000;stroke-width:2.0;"/><text fill="#000000" font-family="sans-serif" font-size="13" font-weight="bold" lengthAdjust="spacing" textLength="17" x="593.5" y="156.5107">ref</text><text fill="#000000" font-family="sans-serif" font-size="12" lengthAdjust="spacing" textLength="134" x="594" y="175.4727">Refer to generic auth SD</text><polygon fill="#181818" points="1014,222.1641,1024,226.1641,1014,230.1641,1018,226.1641" style="stroke:#181818;stroke-width:1.0;"/><line style="stroke:#181818;stroke-width:1.0;" x1="661" x2="1020" y1="226.1641" y2="226.1641"/><text fill="#000000" font-family="sans-serif" font-size="13" lengthAdjust="spacing" textLength="337" x="668" y="204.9561">registerSurgeryAppointment(dateAndTime, patientNumber,</text><text fill="#000000" font-family="sans-serif" font-size="13" lengthAdjust="spacing" textLength="205" x="668" y="221.3076">staffIDs, operationRoom, requestID)</text><polygon fill="#181818" points="1519.5,252.5156,1529.5,256.5156,1519.5,260.5156,1523.5,256.5156" style="stroke:#181818;stroke-width:1.0;"/><line style="stroke:#181818;stroke-width:1.0;" x1="1031" x2="1525.5" y1="256.5156" y2="256.5156"/><text fill="#000000" font-family="sans-serif" font-size="13" lengthAdjust="spacing" textLength="176" x="1038" y="251.6592">GetByIdAsync(patientNumber)</text><polygon fill="#181818" points="1047,282.8672,1037,286.8672,1047,290.8672,1043,286.8672" style="stroke:#181818;stroke-width:1.0;"/><line style="stroke:#181818;stroke-width:1.0;stroke-dasharray:2.0,2.0;" x1="1041" x2="1535.5" y1="286.8672" y2="286.8672"/><text fill="#000000" font-family="sans-serif" font-size="13" lengthAdjust="spacing" textLength="39" x="1053" y="282.0107">patient</text><polygon fill="#181818" points="1691.5,313.2188,1701.5,317.2188,1691.5,321.2188,1695.5,317.2188" style="stroke:#181818;stroke-width:1.0;"/><line style="stroke:#181818;stroke-width:1.0;" x1="1031" x2="1697.5" y1="317.2188" y2="317.2188"/><text fill="#000000" font-family="sans-serif" font-size="13" lengthAdjust="spacing" textLength="147" x="1038" y="312.3623">GetByIdAsync(requestID)</text><polygon fill="#181818" points="1047,343.5703,1037,347.5703,1047,351.5703,1043,347.5703" style="stroke:#181818;stroke-width:1.0;"/><line style="stroke:#181818;stroke-width:1.0;stroke-dasharray:2.0,2.0;" x1="1041" x2="1707.5" y1="347.5703" y2="347.5703"/><text fill="#000000" font-family="sans-serif" font-size="13" lengthAdjust="spacing" textLength="101" x="1053" y="342.7139">operationRequest</text><polygon fill="#181818" points="1891.5,373.9219,1901.5,377.9219,1891.5,381.9219,1895.5,377.9219" style="stroke:#181818;stroke-width:1.0;"/><line style="stroke:#181818;stroke-width:1.0;" x1="1031" x2="1897.5" y1="377.9219" y2="377.9219"/><text fill="#000000" font-family="sans-serif" font-size="13" lengthAdjust="spacing" textLength="179" x="1038" y="373.0654">GetByIdAsync(operationRoom)</text><polygon fill="#181818" points="1047,404.2734,1037,408.2734,1047,412.2734,1043,408.2734" style="stroke:#181818;stroke-width:1.0;"/><line style="stroke:#181818;stroke-width:1.0;stroke-dasharray:2.0,2.0;" x1="1041" x2="1907.5" y1="408.2734" y2="408.2734"/><text fill="#000000" font-family="sans-serif" font-size="13" lengthAdjust="spacing" textLength="29" x="1053" y="403.417">room</text><polygon fill="#181818" points="2100.5,434.625,2110.5,438.625,2100.5,442.625,2104.5,438.625" style="stroke:#181818;stroke-width:1.0;"/><line style="stroke:#181818;stroke-width:1.0;" x1="1036" x2="2106.5" y1="438.625" y2="438.625"/><text fill="#000000" font-family="sans-serif" font-size="13" lengthAdjust="spacing" textLength="44" x="1043" y="433.7686">create()</text><rect fill="#E2E2F0" height="31.6094" rx="2.5" ry="2.5" style="stroke:#181818;stroke-width:0.5;" width="137" x="2112.5" y="416.2734"/><text fill="#000000" font-family="sans-serif" font-size="14" lengthAdjust="spacing" textLength="123" x="2119.5" y="437.8066">AppointmentBuilder</text><polygon fill="#181818" points="2164,477.2344,2174,481.2344,2164,485.2344,2168,481.2344" style="stroke:#181818;stroke-width:1.0;"/><line style="stroke:#181818;stroke-width:1.0;" x1="1031" x2="2170" y1="481.2344" y2="481.2344"/><text fill="#000000" font-family="sans-serif" font-size="13" lengthAdjust="spacing" textLength="483" x="1038" y="476.3779">BuildAppointmentWithData(dateAndTime, "SCHEDULED", operationRequest, room)</text><polygon fill="#181818" points="1047,507.5859,1037,511.5859,1047,515.5859,1043,511.5859" style="stroke:#181818;stroke-width:1.0;"/><line style="stroke:#181818;stroke-width:1.0;stroke-dasharray:2.0,2.0;" x1="1041" x2="2180" y1="511.5859" y2="511.5859"/><text fill="#000000" font-family="sans-serif" font-size="13" lengthAdjust="spacing" textLength="71" x="1053" y="506.7295">appointment</text><path d="M951,526.5859 L1024,526.5859 L1024,534.9375 L1014,544.9375 L951,544.9375 L951,526.5859 " fill="#EEEEEE" style="stroke:#000000;stroke-width:1.5;"/><rect fill="none" height="170.1094" style="stroke:#000000;stroke-width:1.5;" width="1393.5" x="951" y="526.5859"/><text fill="#000000" font-family="sans-serif" font-size="13" font-weight="bold" lengthAdjust="spacing" textLength="28" x="966" y="541.0811">loop</text><text fill="#000000" font-family="sans-serif" font-size="11" font-weight="bold" lengthAdjust="spacing" textLength="149" x="1039" y="540.0049">[for each staffID in staffIDs]</text><polygon fill="#181818" points="2280,563.2891,2290,567.2891,2280,571.2891,2284,567.2891" style="stroke:#181818;stroke-width:1.0;"/><line style="stroke:#181818;stroke-width:1.0;" x1="1031" x2="2286" y1="567.2891" y2="567.2891"/><text fill="#000000" font-family="sans-serif" font-size="13" lengthAdjust="spacing" textLength="152" x="1038" y="562.4326">GetStaffByLicense(staffID)</text><polygon fill="#181818" points="1047,593.6406,1037,597.6406,1047,601.6406,1043,597.6406" style="stroke:#181818;stroke-width:1.0;"/><line style="stroke:#181818;stroke-width:1.0;" x1="1041" x2="2296" y1="597.6406" y2="597.6406"/><text fill="#000000" font-family="sans-serif" font-size="13" lengthAdjust="spacing" textLength="24" x="1053" y="592.7842">staff</text><polygon fill="#181818" points="1362,623.9922,1372,627.9922,1362,631.9922,1366,627.9922" style="stroke:#181818;stroke-width:1.0;"/><line style="stroke:#181818;stroke-width:1.0;" x1="1031" x2="1368" y1="627.9922" y2="627.9922"/><text fill="#000000" font-family="sans-serif" font-size="13" lengthAdjust="spacing" textLength="134" x="1038" y="623.1357">Add(staff, appointment)</text><polygon fill="#181818" points="1047,654.3438,1037,658.3438,1047,662.3438,1043,658.3438" style="stroke:#181818;stroke-width:1.0;"/><line style="stroke:#181818;stroke-width:1.0;" x1="1041" x2="1378" y1="658.3438" y2="658.3438"/><text fill="#000000" font-family="sans-serif" font-size="13" lengthAdjust="spacing" textLength="24" x="1053" y="653.4873">staff</text><polygon fill="#181818" points="1367,684.6953,1377,688.6953,1367,692.6953,1371,688.6953" style="stroke:#181818;stroke-width:1.0;"/><line style="stroke:#181818;stroke-width:1.0;" x1="1036" x2="1373" y1="688.6953" y2="688.6953"/><text fill="#000000" font-family="sans-serif" font-size="13" lengthAdjust="spacing" textLength="78" x="1043" y="683.8389">Remove(staff)</text><polygon fill="#181818" points="2039,722.0469,2049,726.0469,2039,730.0469,2043,726.0469" style="stroke:#181818;stroke-width:1.0;"/><line style="stroke:#181818;stroke-width:1.0;" x1="1031" x2="2045" y1="726.0469" y2="726.0469"/><text fill="#000000" font-family="sans-serif" font-size="13" lengthAdjust="spacing" textLength="108" x="1038" y="721.1904">ChangeTeam(staff)</text><polygon fill="#181818" points="1047,736.0469,1037,740.0469,1047,744.0469,1043,740.0469" style="stroke:#181818;stroke-width:1.0;"/><line style="stroke:#181818;stroke-width:1.0;stroke-dasharray:2.0,2.0;" x1="1041" x2="2055" y1="740.0469" y2="740.0469"/><polygon fill="#181818" points="1052,750.0469,1042,754.0469,1052,758.0469,1048,754.0469" style="stroke:#181818;stroke-width:1.0;"/><line style="stroke:#181818;stroke-width:1.0;stroke-dasharray:2.0,2.0;" x1="1046" x2="2055" y1="754.0469" y2="754.0469"/><polygon fill="#181818" points="1187,780.3984,1197,784.3984,1187,788.3984,1191,784.3984" style="stroke:#181818;stroke-width:1.0;"/><line style="stroke:#181818;stroke-width:1.0;" x1="1036" x2="1193" y1="784.3984" y2="784.3984"/><text fill="#000000" font-family="sans-serif" font-size="13" lengthAdjust="spacing" textLength="139" x="1043" y="779.542">AddAsync(appointment)</text><polygon fill="#181818" points="1052,810.75,1042,814.75,1052,818.75,1048,814.75" style="stroke:#181818;stroke-width:1.0;"/><line style="stroke:#181818;stroke-width:1.0;stroke-dasharray:2.0,2.0;" x1="1046" x2="1203" y1="814.75" y2="814.75"/><text fill="#000000" font-family="sans-serif" font-size="13" lengthAdjust="spacing" textLength="71" x="1058" y="809.8936">appointment</text><polygon fill="#181818" points="677,841.1016,667,845.1016,677,849.1016,673,845.1016" style="stroke:#181818;stroke-width:1.0;"/><line style="stroke:#181818;stroke-width:1.0;stroke-dasharray:2.0,2.0;" x1="671" x2="1025" y1="845.1016" y2="845.1016"/><text fill="#000000" font-family="sans-serif" font-size="13" lengthAdjust="spacing" textLength="91" x="683" y="840.2451">appointmentDto</text><polygon fill="#181818" points="296,871.4531,286,875.4531,296,879.4531,292,875.4531" style="stroke:#181818;stroke-width:1.0;"/><line style="stroke:#181818;stroke-width:1.0;stroke-dasharray:2.0,2.0;" x1="290" x2="660" y1="875.4531" y2="875.4531"/><text fill="#000000" font-family="sans-serif" font-size="13" lengthAdjust="spacing" textLength="91" x="302" y="870.5967">appointmentDto</text><polygon fill="#181818" points="11,901.8047,1,905.8047,11,909.8047,7,905.8047" style="stroke:#181818;stroke-width:1.0;"/><line style="stroke:#181818;stroke-width:1.0;stroke-dasharray:2.0,2.0;" x1="5" x2="279" y1="905.8047" y2="905.8047"/><text fill="#000000" font-family="sans-serif" font-size="13" lengthAdjust="spacing" textLength="91" x="17" y="900.9482">appointmentDto</text><!--SRC=[hLR1Zfim43t7Ns7jALcH7wYgIicIjf5MtHLasqilBao8fM1xZOcKlwyDDjWGI5lr1iEyv_SyOm-2I4KpAWXJEE6regp0fC9IFm8ItiUD49moLG9JJvmfoSzda2OrK_8ybPc2lD0CJ1eHGgMNR2ep0S4hghYykcGJ2REhYXOCybIHut6GRp-DCAz4qH6x86Fo5m5IvtAMm7iDrG0XuNq6mNavIBUHARFEujJtRKtFEKY4rf_QIk0F-FNjiCo9WWtB3xI425Tc6_Pn5Ha_nkItklm5Ci8_6VUbHKQziRIF8qngTLeXaYbwqLospEqIUYrJIhrK0WMj54XFqNzREeV1ujrhqqSesNt6BzztIVkQm54tcUAu00QIPWq9JcC4BDVSHuGQoLgwRI-jNbhrQIqBaDT94oFflQif4u7yHc3tvjeREI5Qa-qphUaBgErrds-gAykMmS81fIFf0gvJaQDQ1rOjaq_X4BF2R3iFXTtsEHBb3WDoDA4eFZX9GSajT5wTFJr3UK5LxaXq1n1rPA584mvxqG9cbOsFwEEZ9iiaQCHoDP-g4vidxyiFgaunKIHip8VqwUikVdlUnG_HQ3UZHkgy-njh8tGZ66u9wHDyzbjauqqwSoxmaKkiWITtFs3Akgi2BRpDgTmDtfQukT2trsSzALW5ImjPeSKDauikqf4WjEW90qjDEA3fGOkn2L-YFr4qqoRFMrsHlq_t90PZISTzpZj20-ZVQKsWv1UxZIjpKmOzR1vrqjE9i08EG4gNE7OoA7HButVD48CdZi-_O3ovVGtQYo2emDn1w7uZK4VpHptVuMQazUFI8uaLdnNKphXsPdcpFMJ0qrEc1I3qSRsU08y7x6y0]--></g></svg>