<?xml version="1.0" encoding="us-ascii" standalone="no"?><svg xmlns="http://www.w3.org/2000/svg" xmlns:xlink="http://www.w3.org/1999/xlink" contentStyleType="text/css" height="595px" preserveAspectRatio="none" style="width:430px;height:595px;background:#FFFFFF;" version="1.1" viewBox="0 0 430 595" width="430px" zoomAndPan="magnify"><defs/><g><rect fill="#FFFFFF" height="22.3516" style="stroke:#181818;stroke-width:1.0;" width="10" x="40" y="92.6094"/><rect fill="#FFFFFF" height="30.3516" style="stroke:#181818;stroke-width:1.0;" width="10" x="40" y="145.3125"/><rect fill="#FFFFFF" height="30.3516" style="stroke:#181818;stroke-width:1.0;" width="10" x="40" y="231.3672"/><rect fill="#FFFFFF" height="30.3516" style="stroke:#181818;stroke-width:1.0;" width="10" x="40" y="367.6094"/><rect fill="#FFFFFF" height="9" style="stroke:#181818;stroke-width:1.0;" width="10" x="40" y="495.0156"/><rect fill="#FFFFFF" height="30.3516" style="stroke:#181818;stroke-width:1.0;" width="10" x="283" y="114.9609"/><rect fill="#FFFFFF" height="55.7031" style="stroke:#181818;stroke-width:1.0;" width="10" x="283" y="175.6641"/><rect fill="#FFFFFF" height="105.8906" style="stroke:#181818;stroke-width:1.0;" width="10" x="283" y="261.7188"/><rect fill="#FFFFFF" height="97.0547" style="stroke:#181818;stroke-width:1.0;" width="10" x="283" y="397.9609"/><rect fill="none" height="275" style="stroke:#000000;stroke-width:1.5;" width="413" x="10" y="190.6641"/><line style="stroke:#181818;stroke-width:0.5;stroke-dasharray:5.0,5.0;" x1="45" x2="45" y1="82.6094" y2="513.0156"/><line style="stroke:#181818;stroke-width:0.5;stroke-dasharray:5.0,5.0;" x1="288" x2="288" y1="82.6094" y2="513.0156"/><text fill="#000000" font-family="sans-serif" font-size="14" lengthAdjust="spacing" textLength="44" x="20" y="79.5332">Patient</text><ellipse cx="45" cy="13.5" fill="#E2E2F0" rx="8" ry="8" style="stroke:#181818;stroke-width:0.5;"/><path d="M45,21.5 L45,48.5 M32,29.5 L58,29.5 M45,48.5 L32,63.5 M45,48.5 L58,63.5 " fill="none" style="stroke:#181818;stroke-width:0.5;"/><text fill="#000000" font-family="sans-serif" font-size="14" lengthAdjust="spacing" textLength="44" x="20" y="526.5488">Patient</text><ellipse cx="45" cy="538.125" fill="#E2E2F0" rx="8" ry="8" style="stroke:#181818;stroke-width:0.5;"/><path d="M45,546.125 L45,573.125 M32,554.125 L58,554.125 M45,573.125 L32,588.125 M45,573.125 L58,588.125 " fill="none" style="stroke:#181818;stroke-width:0.5;"/><rect fill="#E2E2F0" height="31.6094" rx="2.5" ry="2.5" style="stroke:#181818;stroke-width:0.5;" width="60" x="258" y="50"/><text fill="#000000" font-family="sans-serif" font-size="14" lengthAdjust="spacing" textLength="46" x="265" y="71.5332">System</text><rect fill="#E2E2F0" height="31.6094" rx="2.5" ry="2.5" style="stroke:#181818;stroke-width:0.5;" width="60" x="258" y="512.0156"/><text fill="#000000" font-family="sans-serif" font-size="14" lengthAdjust="spacing" textLength="46" x="265" y="533.5488">System</text><rect fill="#FFFFFF" height="22.3516" style="stroke:#181818;stroke-width:1.0;" width="10" x="40" y="92.6094"/><rect fill="#FFFFFF" height="30.3516" style="stroke:#181818;stroke-width:1.0;" width="10" x="40" y="145.3125"/><rect fill="#FFFFFF" height="30.3516" style="stroke:#181818;stroke-width:1.0;" width="10" x="40" y="231.3672"/><rect fill="#FFFFFF" height="30.3516" style="stroke:#181818;stroke-width:1.0;" width="10" x="40" y="367.6094"/><rect fill="#FFFFFF" height="9" style="stroke:#181818;stroke-width:1.0;" width="10" x="40" y="495.0156"/><rect fill="#FFFFFF" height="30.3516" style="stroke:#181818;stroke-width:1.0;" width="10" x="283" y="114.9609"/><rect fill="#FFFFFF" height="55.7031" style="stroke:#181818;stroke-width:1.0;" width="10" x="283" y="175.6641"/><rect fill="#FFFFFF" height="105.8906" style="stroke:#181818;stroke-width:1.0;" width="10" x="283" y="261.7188"/><rect fill="#FFFFFF" height="97.0547" style="stroke:#181818;stroke-width:1.0;" width="10" x="283" y="397.9609"/><polygon fill="#181818" points="271,110.9609,281,114.9609,271,118.9609,275,114.9609" style="stroke:#181818;stroke-width:1.0;"/><line style="stroke:#181818;stroke-width:1.0;" x1="45" x2="277" y1="114.9609" y2="114.9609"/><text fill="#000000" font-family="sans-serif" font-size="13" lengthAdjust="spacing" textLength="129" x="52" y="110.1045">requests user creation</text><polygon fill="#181818" points="61,141.3125,51,145.3125,61,149.3125,57,145.3125" style="stroke:#181818;stroke-width:1.0;"/><line style="stroke:#181818;stroke-width:1.0;stroke-dasharray:2.0,2.0;" x1="55" x2="287" y1="145.3125" y2="145.3125"/><text fill="#000000" font-family="sans-serif" font-size="13" lengthAdjust="spacing" textLength="161" x="67" y="140.4561">requests type of registration</text><polygon fill="#181818" points="271,171.6641,281,175.6641,271,179.6641,275,175.6641" style="stroke:#181818;stroke-width:1.0;"/><line style="stroke:#181818;stroke-width:1.0;" x1="45" x2="277" y1="175.6641" y2="175.6641"/><text fill="#000000" font-family="sans-serif" font-size="13" lengthAdjust="spacing" textLength="153" x="52" y="170.8076">selects type of registration</text><path d="M10,190.6641 L71,190.6641 L71,199.0156 L61,209.0156 L10,209.0156 L10,190.6641 " fill="#EEEEEE" style="stroke:#000000;stroke-width:1.5;"/><rect fill="none" height="275" style="stroke:#000000;stroke-width:1.5;" width="413" x="10" y="190.6641"/><text fill="#000000" font-family="sans-serif" font-size="13" font-weight="bold" lengthAdjust="spacing" textLength="16" x="25" y="205.1592">alt</text><text fill="#000000" font-family="sans-serif" font-size="11" font-weight="bold" lengthAdjust="spacing" textLength="191" x="86" y="204.083">[If Manual Registration is selected]</text><polygon fill="#181818" points="61,227.3672,51,231.3672,61,235.3672,57,231.3672" style="stroke:#181818;stroke-width:1.0;"/><line style="stroke:#181818;stroke-width:1.0;stroke-dasharray:2.0,2.0;" x1="55" x2="287" y1="231.3672" y2="231.3672"/><text fill="#000000" font-family="sans-serif" font-size="13" lengthAdjust="spacing" textLength="161" x="67" y="226.5107">request the user information</text><polygon fill="#181818" points="271,257.7188,281,261.7188,271,265.7188,275,261.7188" style="stroke:#181818;stroke-width:1.0;"/><line style="stroke:#181818;stroke-width:1.0;" x1="45" x2="277" y1="261.7188" y2="261.7188"/><text fill="#000000" font-family="sans-serif" font-size="13" lengthAdjust="spacing" textLength="175" x="52" y="256.8623">provides requested information</text><line style="stroke:#181818;stroke-width:1.0;stroke-dasharray:2.0,2.0;" x1="293" x2="335" y1="308.4219" y2="308.4219"/><line style="stroke:#181818;stroke-width:1.0;stroke-dasharray:2.0,2.0;" x1="335" x2="335" y1="308.4219" y2="321.4219"/><line style="stroke:#181818;stroke-width:1.0;stroke-dasharray:2.0,2.0;" x1="294" x2="335" y1="321.4219" y2="321.4219"/><polygon fill="#181818" points="304,317.4219,294,321.4219,304,325.4219,300,321.4219" style="stroke:#181818;stroke-width:1.0;"/><text fill="#000000" font-family="sans-serif" font-size="13" lengthAdjust="spacing" textLength="99" x="300" y="287.2139">sends verification</text><text fill="#000000" font-family="sans-serif" font-size="13" lengthAdjust="spacing" textLength="111" x="300" y="303.5654">email to the patient</text><line style="stroke:#000000;stroke-width:1.0;stroke-dasharray:2.0,2.0;" x1="10" x2="423" y1="330.4219" y2="330.4219"/><text fill="#000000" font-family="sans-serif" font-size="11" font-weight="bold" lengthAdjust="spacing" textLength="173" x="15" y="341.8408">[If IAM Registration is selected]</text><polygon fill="#181818" points="61,363.6094,51,367.6094,61,371.6094,57,367.6094" style="stroke:#181818;stroke-width:1.0;"/><line style="stroke:#181818;stroke-width:1.0;stroke-dasharray:2.0,2.0;" x1="55" x2="287" y1="367.6094" y2="367.6094"/><text fill="#000000" font-family="sans-serif" font-size="13" lengthAdjust="spacing" textLength="214" x="67" y="362.7529">asks to login through the IAM service</text><polygon fill="#181818" points="271,393.9609,281,397.9609,271,401.9609,275,397.9609" style="stroke:#181818;stroke-width:1.0;"/><line style="stroke:#181818;stroke-width:1.0;" x1="45" x2="277" y1="397.9609" y2="397.9609"/><text fill="#000000" font-family="sans-serif" font-size="13" lengthAdjust="spacing" textLength="174" x="52" y="393.1045">logins through the IAM service</text><line style="stroke:#181818;stroke-width:1.0;stroke-dasharray:2.0,2.0;" x1="293" x2="335" y1="444.6641" y2="444.6641"/><line style="stroke:#181818;stroke-width:1.0;stroke-dasharray:2.0,2.0;" x1="335" x2="335" y1="444.6641" y2="457.6641"/><line style="stroke:#181818;stroke-width:1.0;stroke-dasharray:2.0,2.0;" x1="294" x2="335" y1="457.6641" y2="457.6641"/><polygon fill="#181818" points="304,453.6641,294,457.6641,304,461.6641,300,457.6641" style="stroke:#181818;stroke-width:1.0;"/><text fill="#000000" font-family="sans-serif" font-size="13" lengthAdjust="spacing" textLength="52" x="300" y="423.4561">gets IAM</text><text fill="#000000" font-family="sans-serif" font-size="13" lengthAdjust="spacing" textLength="97" x="300" y="439.8076">service response</text><polygon fill="#181818" points="61,491.0156,51,495.0156,61,499.0156,57,495.0156" style="stroke:#181818;stroke-width:1.0;"/><line style="stroke:#181818;stroke-width:1.0;stroke-dasharray:2.0,2.0;" x1="55" x2="287" y1="495.0156" y2="495.0156"/><text fill="#000000" font-family="sans-serif" font-size="13" lengthAdjust="spacing" textLength="173" x="67" y="490.1592">success information message</text><!--SRC=[bP4nRiCm34LtdO8No0Ko5CYO8K3Ghba8cNQ8of8hqWPy-rAEWpfjZJYZIFq7FlBWDMKuep951HH0h-3Ec9KzTsYrZr6KsjAIKPopFW-eL3wM1-pUIWFsaEch9r61NYY3psJG55r53v4VGC6LvCu81RGWwDWHfDeA3OlcFw0damW5yXimaoi6XMCD9umz1dXVV0MM6KNLXh51htHpvrYdtBuwTPVJm1N9dKVL6cXzZtV_M0aCbBbcFwKlaLha09gcARlRlHq5eI9_F9pMpHzbKJwbO49gE1eifxwvJj02CVk1FRrWFN5a2sYE_YkzXuRiu9Qyn3bgQvGksSivMmVOcN-PIEyzYIoN3AqLi7ao_pS0]--></g></svg>