<?xml version="1.0" encoding="us-ascii" standalone="no"?><svg xmlns="http://www.w3.org/2000/svg" xmlns:xlink="http://www.w3.org/1999/xlink" contentStyleType="text/css" height="1427px" preserveAspectRatio="none" style="width:2219px;height:1427px;background:#FFFFFF;" version="1.1" viewBox="0 0 2219 1427" width="2219px" zoomAndPan="magnify"><defs/><g><rect fill="#FFFFFF" height="46.7031" style="stroke:#181818;stroke-width:1.0;" width="10" x="169" y="69.9609"/><rect fill="#FFFFFF" height="30.3516" style="stroke:#181818;stroke-width:1.0;" width="10" x="169" y="1342.8906"/><rect fill="#FFFFFF" height="141.6641" style="stroke:#181818;stroke-width:1.0;" width="10" x="377" y="116.6641"/><rect fill="#FFFFFF" height="37.3516" style="stroke:#181818;stroke-width:1.0;" width="10" x="377" y="288.6797"/><rect fill="#FFFFFF" height="55.7031" style="stroke:#181818;stroke-width:1.0;" width="10" x="377" y="417.0859"/><rect fill="#FFFFFF" height="46.7031" style="stroke:#181818;stroke-width:1.0;" width="10" x="377" y="624.5469"/><rect fill="#FFFFFF" height="30.3516" style="stroke:#181818;stroke-width:1.0;" width="10" x="377" y="927.0625"/><rect fill="#FFFFFF" height="55.7031" style="stroke:#181818;stroke-width:1.0;" width="10" x="377" y="1212.4844"/><rect fill="#FFFFFF" height="44.3516" style="stroke:#181818;stroke-width:1.0;" width="10" x="377" y="1298.5391"/><rect fill="#FFFFFF" height="30.3516" style="stroke:#181818;stroke-width:1.0;" width="10" x="758.5" y="258.3281"/><rect fill="#FFFFFF" height="30.3516" style="stroke:#181818;stroke-width:1.0;" width="10" x="869" y="326.0313"/><rect fill="#FFFFFF" height="30.3516" style="stroke:#181818;stroke-width:1.0;" width="10" x="869" y="386.7344"/><rect fill="#FFFFFF" height="30.3516" style="stroke:#181818;stroke-width:1.0;" width="10" x="869" y="671.25"/><rect fill="#FFFFFF" height="30.3516" style="stroke:#181818;stroke-width:1.0;" width="10" x="869" y="731.9531"/><rect fill="#FFFFFF" height="73.7031" style="stroke:#181818;stroke-width:1.0;" width="10" x="869" y="792.6563"/><rect fill="#FFFFFF" height="30.3516" style="stroke:#181818;stroke-width:1.0;" width="10" x="869" y="896.7109"/><rect fill="#FFFFFF" height="30.3516" style="stroke:#181818;stroke-width:1.0;" width="10" x="1064" y="356.3828"/><rect fill="#FFFFFF" height="30.3516" style="stroke:#181818;stroke-width:1.0;" width="10" x="1064" y="762.3047"/><rect fill="#FFFFFF" height="30.3516" style="stroke:#181818;stroke-width:1.0;" width="10" x="1064" y="866.3594"/><rect fill="#FFFFFF" height="30.3516" style="stroke:#181818;stroke-width:1.0;" width="10" x="1182" y="472.7891"/><rect fill="#FFFFFF" height="30.3516" style="stroke:#181818;stroke-width:1.0;" width="10" x="1182" y="533.4922"/><rect fill="#FFFFFF" height="30.3516" style="stroke:#181818;stroke-width:1.0;" width="10" x="1182" y="594.1953"/><rect fill="#FFFFFF" height="30.3516" style="stroke:#181818;stroke-width:1.0;" width="10" x="1370.5" y="957.4141"/><rect fill="#FFFFFF" height="30.3516" style="stroke:#181818;stroke-width:1.0;" width="10" x="1370.5" y="1018.1172"/><rect fill="#FFFFFF" height="30.3516" style="stroke:#181818;stroke-width:1.0;" width="10" x="1370.5" y="1078.8203"/><rect fill="#FFFFFF" height="72.9609" style="stroke:#181818;stroke-width:1.0;" width="10" x="1370.5" y="1139.5234"/><rect fill="#FFFFFF" height="30.3516" style="stroke:#181818;stroke-width:1.0;" width="10" x="1588.5" y="503.1406"/><rect fill="#FFFFFF" height="30.3516" style="stroke:#181818;stroke-width:1.0;" width="10" x="1699.5" y="563.8438"/><rect fill="#FFFFFF" height="30.3516" style="stroke:#181818;stroke-width:1.0;" width="10" x="1699.5" y="701.6016"/><rect fill="#FFFFFF" height="30.3516" style="stroke:#181818;stroke-width:1.0;" width="10" x="1699.5" y="987.7656"/><rect fill="#FFFFFF" height="30.3516" style="stroke:#181818;stroke-width:1.0;" width="10" x="1816" y="1048.4688"/><rect fill="#FFFFFF" height="30.3516" style="stroke:#181818;stroke-width:1.0;" width="10" x="1938" y="1109.1719"/><rect fill="#FFFFFF" height="30.3516" style="stroke:#181818;stroke-width:1.0;" width="10" x="2056.5" y="1268.1875"/><rect fill="none" height="165.0156" style="stroke:#000000;stroke-width:1.5;" width="502" x="319.5" y="131.6641"/><rect fill="none" height="881.4531" style="stroke:#000000;stroke-width:1.5;" width="1903.5" x="309.5" y="432.0859"/><rect fill="none" height="79.0547" style="stroke:#000000;stroke-width:1.5;" width="1799.5" x="319.5" y="1227.4844"/><line style="stroke:#181818;stroke-width:0.5;stroke-dasharray:5.0,5.0;" x1="173.5" x2="173.5" y1="37.6094" y2="1391.2422"/><line style="stroke:#181818;stroke-width:0.5;stroke-dasharray:5.0,5.0;" x1="381.5" x2="381.5" y1="37.6094" y2="1391.2422"/><line style="stroke:#181818;stroke-width:0.5;stroke-dasharray:5.0,5.0;" x1="633.5" x2="633.5" y1="224.6719" y2="1391.2422"/><line style="stroke:#181818;stroke-width:0.5;stroke-dasharray:5.0,5.0;" x1="763.5" x2="763.5" y1="37.6094" y2="1391.2422"/><line style="stroke:#181818;stroke-width:0.5;stroke-dasharray:5.0,5.0;" x1="873.5" x2="873.5" y1="37.6094" y2="1391.2422"/><line style="stroke:#181818;stroke-width:0.5;stroke-dasharray:5.0,5.0;" x1="1069" x2="1069" y1="37.6094" y2="1391.2422"/><line style="stroke:#181818;stroke-width:0.5;stroke-dasharray:5.0,5.0;" x1="1187" x2="1187" y1="37.6094" y2="1391.2422"/><line style="stroke:#181818;stroke-width:0.5;stroke-dasharray:5.0,5.0;" x1="1278" x2="1278" y1="37.6094" y2="1391.2422"/><line style="stroke:#181818;stroke-width:0.5;stroke-dasharray:5.0,5.0;" x1="1375" x2="1375" y1="37.6094" y2="1391.2422"/><line style="stroke:#181818;stroke-width:0.5;stroke-dasharray:5.0,5.0;" x1="1487" x2="1487" y1="37.6094" y2="1391.2422"/><line style="stroke:#181818;stroke-width:0.5;stroke-dasharray:5.0,5.0;" x1="1593" x2="1593" y1="37.6094" y2="1391.2422"/><line style="stroke:#181818;stroke-width:0.5;stroke-dasharray:5.0,5.0;" x1="1704" x2="1704" y1="37.6094" y2="1391.2422"/><line style="stroke:#181818;stroke-width:0.5;stroke-dasharray:5.0,5.0;" x1="1821" x2="1821" y1="37.6094" y2="1391.2422"/><line style="stroke:#181818;stroke-width:0.5;stroke-dasharray:5.0,5.0;" x1="1943" x2="1943" y1="37.6094" y2="1391.2422"/><line style="stroke:#181818;stroke-width:0.5;stroke-dasharray:5.0,5.0;" x1="2061" x2="2061" y1="37.6094" y2="1391.2422"/><line style="stroke:#181818;stroke-width:0.5;stroke-dasharray:5.0,5.0;" x1="2161" x2="2161" y1="1178.8281" y2="1391.2422"/><rect fill="#E2E2F0" height="31.6094" rx="2.5" ry="2.5" style="stroke:#181818;stroke-width:0.5;" width="63" x="142.5" y="5"/><text fill="#000000" font-family="sans-serif" font-size="14" lengthAdjust="spacing" textLength="49" x="149.5" y="26.5332">Routing</text><rect fill="#E2E2F0" height="31.6094" rx="2.5" ry="2.5" style="stroke:#181818;stroke-width:0.5;" width="63" x="142.5" y="1390.2422"/><text fill="#000000" font-family="sans-serif" font-size="14" lengthAdjust="spacing" textLength="49" x="149.5" y="1411.7754">Routing</text><rect fill="#E2E2F0" height="31.6094" rx="2.5" ry="2.5" style="stroke:#181818;stroke-width:0.5;" width="105" x="329.5" y="5"/><text fill="#000000" font-family="sans-serif" font-size="14" lengthAdjust="spacing" textLength="91" x="336.5" y="26.5332">UserController</text><rect fill="#E2E2F0" height="31.6094" rx="2.5" ry="2.5" style="stroke:#181818;stroke-width:0.5;" width="105" x="329.5" y="1390.2422"/><text fill="#000000" font-family="sans-serif" font-size="14" lengthAdjust="spacing" textLength="91" x="336.5" y="1411.7754">UserController</text><rect fill="#E2E2F0" height="31.6094" rx="2.5" ry="2.5" style="stroke:#181818;stroke-width:0.5;" width="143" x="562.5" y="1390.2422"/><text fill="#000000" font-family="sans-serif" font-size="14" lengthAdjust="spacing" textLength="129" x="569.5" y="1411.7754">LoginCredentialsDto</text><rect fill="#E2E2F0" height="31.6094" rx="2.5" ry="2.5" style="stroke:#181818;stroke-width:0.5;" width="96" x="715.5" y="5"/><text fill="#000000" font-family="sans-serif" font-size="14" lengthAdjust="spacing" textLength="82" x="722.5" y="26.5332">LoginService</text><rect fill="#E2E2F0" height="31.6094" rx="2.5" ry="2.5" style="stroke:#181818;stroke-width:0.5;" width="96" x="715.5" y="1390.2422"/><text fill="#000000" font-family="sans-serif" font-size="14" lengthAdjust="spacing" textLength="82" x="722.5" y="1411.7754">LoginService</text><rect fill="#E2E2F0" height="31.6094" rx="2.5" ry="2.5" style="stroke:#181818;stroke-width:0.5;" width="105" x="821.5" y="5"/><text fill="#000000" font-family="sans-serif" font-size="14" lengthAdjust="spacing" textLength="91" x="828.5" y="26.5332">PatientService</text><rect fill="#E2E2F0" height="31.6094" rx="2.5" ry="2.5" style="stroke:#181818;stroke-width:0.5;" width="105" x="821.5" y="1390.2422"/><text fill="#000000" font-family="sans-serif" font-size="14" lengthAdjust="spacing" textLength="91" x="828.5" y="1411.7754">PatientService</text><rect fill="#E2E2F0" height="31.6094" rx="2.5" ry="2.5" style="stroke:#181818;stroke-width:0.5;" width="126" x="1006" y="5"/><text fill="#000000" font-family="sans-serif" font-size="14" lengthAdjust="spacing" textLength="112" x="1013" y="26.5332">PatientRepository</text><rect fill="#E2E2F0" height="31.6094" rx="2.5" ry="2.5" style="stroke:#181818;stroke-width:0.5;" width="126" x="1006" y="1390.2422"/><text fill="#000000" font-family="sans-serif" font-size="14" lengthAdjust="spacing" textLength="112" x="1013" y="1411.7754">PatientRepository</text><rect fill="#E2E2F0" height="31.6094" rx="2.5" ry="2.5" style="stroke:#181818;stroke-width:0.5;" width="90" x="1142" y="5"/><text fill="#000000" font-family="sans-serif" font-size="14" lengthAdjust="spacing" textLength="76" x="1149" y="26.5332">UserService</text><rect fill="#E2E2F0" height="31.6094" rx="2.5" ry="2.5" style="stroke:#181818;stroke-width:0.5;" width="90" x="1142" y="1390.2422"/><text fill="#000000" font-family="sans-serif" font-size="14" lengthAdjust="spacing" textLength="76" x="1149" y="1411.7754">UserService</text><rect fill="#E2E2F0" height="31.6094" rx="2.5" ry="2.5" style="stroke:#181818;stroke-width:0.5;" width="73" x="1242" y="5"/><text fill="#000000" font-family="sans-serif" font-size="14" lengthAdjust="spacing" textLength="59" x="1249" y="26.5332">UserDTO</text><rect fill="#E2E2F0" height="31.6094" rx="2.5" ry="2.5" style="stroke:#181818;stroke-width:0.5;" width="73" x="1242" y="1390.2422"/><text fill="#000000" font-family="sans-serif" font-size="14" lengthAdjust="spacing" textLength="59" x="1249" y="1411.7754">UserDTO</text><rect fill="#E2E2F0" height="31.6094" rx="2.5" ry="2.5" style="stroke:#181818;stroke-width:0.5;" width="101" x="1325" y="5"/><text fill="#000000" font-family="sans-serif" font-size="14" lengthAdjust="spacing" textLength="87" x="1332" y="26.5332">TokenService</text><rect fill="#E2E2F0" height="31.6094" rx="2.5" ry="2.5" style="stroke:#181818;stroke-width:0.5;" width="101" x="1325" y="1390.2422"/><text fill="#000000" font-family="sans-serif" font-size="14" lengthAdjust="spacing" textLength="87" x="1332" y="1411.7754">TokenService</text><rect fill="#E2E2F0" height="31.6094" rx="2.5" ry="2.5" style="stroke:#181818;stroke-width:0.5;" width="102" x="1436" y="5"/><text fill="#000000" font-family="sans-serif" font-size="14" lengthAdjust="spacing" textLength="88" x="1443" y="26.5332">PatientBuilder</text><rect fill="#E2E2F0" height="31.6094" rx="2.5" ry="2.5" style="stroke:#181818;stroke-width:0.5;" width="102" x="1436" y="1390.2422"/><text fill="#000000" font-family="sans-serif" font-size="14" lengthAdjust="spacing" textLength="88" x="1443" y="1411.7754">PatientBuilder</text><rect fill="#E2E2F0" height="31.6094" rx="2.5" ry="2.5" style="stroke:#181818;stroke-width:0.5;" width="91" x="1548" y="5"/><text fill="#000000" font-family="sans-serif" font-size="14" lengthAdjust="spacing" textLength="77" x="1555" y="26.5332">UserFactory</text><rect fill="#E2E2F0" height="31.6094" rx="2.5" ry="2.5" style="stroke:#181818;stroke-width:0.5;" width="91" x="1548" y="1390.2422"/><text fill="#000000" font-family="sans-serif" font-size="14" lengthAdjust="spacing" textLength="77" x="1555" y="1411.7754">UserFactory</text><rect fill="#E2E2F0" height="31.6094" rx="2.5" ry="2.5" style="stroke:#181818;stroke-width:0.5;" width="111" x="1649" y="5"/><text fill="#000000" font-family="sans-serif" font-size="14" lengthAdjust="spacing" textLength="97" x="1656" y="26.5332">UserRepository</text><rect fill="#E2E2F0" height="31.6094" rx="2.5" ry="2.5" style="stroke:#181818;stroke-width:0.5;" width="111" x="1649" y="1390.2422"/><text fill="#000000" font-family="sans-serif" font-size="14" lengthAdjust="spacing" textLength="97" x="1656" y="1411.7754">UserRepository</text><rect fill="#E2E2F0" height="31.6094" rx="2.5" ry="2.5" style="stroke:#181818;stroke-width:0.5;" width="102" x="1770" y="5"/><text fill="#000000" font-family="sans-serif" font-size="14" lengthAdjust="spacing" textLength="88" x="1777" y="26.5332">TokenFactory</text><rect fill="#E2E2F0" height="31.6094" rx="2.5" ry="2.5" style="stroke:#181818;stroke-width:0.5;" width="102" x="1770" y="1390.2422"/><text fill="#000000" font-family="sans-serif" font-size="14" lengthAdjust="spacing" textLength="88" x="1777" y="1411.7754">TokenFactory</text><rect fill="#E2E2F0" height="31.6094" rx="2.5" ry="2.5" style="stroke:#181818;stroke-width:0.5;" width="122" x="1882" y="5"/><text fill="#000000" font-family="sans-serif" font-size="14" lengthAdjust="spacing" textLength="108" x="1889" y="26.5332">TokenRepository</text><rect fill="#E2E2F0" height="31.6094" rx="2.5" ry="2.5" style="stroke:#181818;stroke-width:0.5;" width="122" x="1882" y="1390.2422"/><text fill="#000000" font-family="sans-serif" font-size="14" lengthAdjust="spacing" textLength="108" x="1889" y="1411.7754">TokenRepository</text><rect fill="#E2E2F0" height="31.6094" rx="2.5" ry="2.5" style="stroke:#181818;stroke-width:0.5;" width="95" x="2014" y="5"/><text fill="#000000" font-family="sans-serif" font-size="14" lengthAdjust="spacing" textLength="81" x="2021" y="26.5332">EmailService</text><rect fill="#E2E2F0" height="31.6094" rx="2.5" ry="2.5" style="stroke:#181818;stroke-width:0.5;" width="95" x="2014" y="1390.2422"/><text fill="#000000" font-family="sans-serif" font-size="14" lengthAdjust="spacing" textLength="81" x="2021" y="1411.7754">EmailService</text><rect fill="#E2E2F0" height="31.6094" rx="2.5" ry="2.5" style="stroke:#181818;stroke-width:0.5;" width="84" x="2119" y="1390.2422"/><text fill="#000000" font-family="sans-serif" font-size="14" lengthAdjust="spacing" textLength="70" x="2126" y="1411.7754">TokenDTO</text><rect fill="#FFFFFF" height="46.7031" style="stroke:#181818;stroke-width:1.0;" width="10" x="169" y="69.9609"/><rect fill="#FFFFFF" height="30.3516" style="stroke:#181818;stroke-width:1.0;" width="10" x="169" y="1342.8906"/><rect fill="#FFFFFF" height="141.6641" style="stroke:#181818;stroke-width:1.0;" width="10" x="377" y="116.6641"/><rect fill="#FFFFFF" height="37.3516" style="stroke:#181818;stroke-width:1.0;" width="10" x="377" y="288.6797"/><rect fill="#FFFFFF" height="55.7031" style="stroke:#181818;stroke-width:1.0;" width="10" x="377" y="417.0859"/><rect fill="#FFFFFF" height="46.7031" style="stroke:#181818;stroke-width:1.0;" width="10" x="377" y="624.5469"/><rect fill="#FFFFFF" height="30.3516" style="stroke:#181818;stroke-width:1.0;" width="10" x="377" y="927.0625"/><rect fill="#FFFFFF" height="55.7031" style="stroke:#181818;stroke-width:1.0;" width="10" x="377" y="1212.4844"/><rect fill="#FFFFFF" height="44.3516" style="stroke:#181818;stroke-width:1.0;" width="10" x="377" y="1298.5391"/><rect fill="#FFFFFF" height="30.3516" style="stroke:#181818;stroke-width:1.0;" width="10" x="758.5" y="258.3281"/><rect fill="#FFFFFF" height="30.3516" style="stroke:#181818;stroke-width:1.0;" width="10" x="869" y="326.0313"/><rect fill="#FFFFFF" height="30.3516" style="stroke:#181818;stroke-width:1.0;" width="10" x="869" y="386.7344"/><rect fill="#FFFFFF" height="30.3516" style="stroke:#181818;stroke-width:1.0;" width="10" x="869" y="671.25"/><rect fill="#FFFFFF" height="30.3516" style="stroke:#181818;stroke-width:1.0;" width="10" x="869" y="731.9531"/><rect fill="#FFFFFF" height="73.7031" style="stroke:#181818;stroke-width:1.0;" width="10" x="869" y="792.6563"/><rect fill="#FFFFFF" height="30.3516" style="stroke:#181818;stroke-width:1.0;" width="10" x="869" y="896.7109"/><rect fill="#FFFFFF" height="30.3516" style="stroke:#181818;stroke-width:1.0;" width="10" x="1064" y="356.3828"/><rect fill="#FFFFFF" height="30.3516" style="stroke:#181818;stroke-width:1.0;" width="10" x="1064" y="762.3047"/><rect fill="#FFFFFF" height="30.3516" style="stroke:#181818;stroke-width:1.0;" width="10" x="1064" y="866.3594"/><rect fill="#FFFFFF" height="30.3516" style="stroke:#181818;stroke-width:1.0;" width="10" x="1182" y="472.7891"/><rect fill="#FFFFFF" height="30.3516" style="stroke:#181818;stroke-width:1.0;" width="10" x="1182" y="533.4922"/><rect fill="#FFFFFF" height="30.3516" style="stroke:#181818;stroke-width:1.0;" width="10" x="1182" y="594.1953"/><rect fill="#FFFFFF" height="30.3516" style="stroke:#181818;stroke-width:1.0;" width="10" x="1370.5" y="957.4141"/><rect fill="#FFFFFF" height="30.3516" style="stroke:#181818;stroke-width:1.0;" width="10" x="1370.5" y="1018.1172"/><rect fill="#FFFFFF" height="30.3516" style="stroke:#181818;stroke-width:1.0;" width="10" x="1370.5" y="1078.8203"/><rect fill="#FFFFFF" height="72.9609" style="stroke:#181818;stroke-width:1.0;" width="10" x="1370.5" y="1139.5234"/><rect fill="#FFFFFF" height="30.3516" style="stroke:#181818;stroke-width:1.0;" width="10" x="1588.5" y="503.1406"/><rect fill="#FFFFFF" height="30.3516" style="stroke:#181818;stroke-width:1.0;" width="10" x="1699.5" y="563.8438"/><rect fill="#FFFFFF" height="30.3516" style="stroke:#181818;stroke-width:1.0;" width="10" x="1699.5" y="701.6016"/><rect fill="#FFFFFF" height="30.3516" style="stroke:#181818;stroke-width:1.0;" width="10" x="1699.5" y="987.7656"/><rect fill="#FFFFFF" height="30.3516" style="stroke:#181818;stroke-width:1.0;" width="10" x="1816" y="1048.4688"/><rect fill="#FFFFFF" height="30.3516" style="stroke:#181818;stroke-width:1.0;" width="10" x="1938" y="1109.1719"/><rect fill="#FFFFFF" height="30.3516" style="stroke:#181818;stroke-width:1.0;" width="10" x="2056.5" y="1268.1875"/><polygon fill="#181818" points="157,65.9609,167,69.9609,157,73.9609,161,69.9609" style="stroke:#181818;stroke-width:1.0;"/><line style="stroke:#181818;stroke-width:1.0;" x1="0" x2="163" y1="69.9609" y2="69.9609"/><text fill="#000000" font-family="sans-serif" font-size="13" lengthAdjust="spacing" textLength="95" x="7" y="65.1045">POST(userData)</text><polygon fill="#181818" points="365,112.6641,375,116.6641,365,120.6641,369,116.6641" style="stroke:#181818;stroke-width:1.0;"/><line style="stroke:#181818;stroke-width:1.0;" x1="174" x2="371" y1="116.6641" y2="116.6641"/><text fill="#000000" font-family="sans-serif" font-size="13" lengthAdjust="spacing" textLength="179" x="181" y="95.4561">registerUserPatient(userData) /</text><text fill="#000000" font-family="sans-serif" font-size="13" lengthAdjust="spacing" textLength="101" x="181" y="111.8076">registerUserIAM()</text><path d="M319.5,131.6641 L380.5,131.6641 L380.5,140.0156 L370.5,150.0156 L319.5,150.0156 L319.5,131.6641 " fill="#EEEEEE" style="stroke:#000000;stroke-width:1.5;"/><rect fill="none" height="165.0156" style="stroke:#000000;stroke-width:1.5;" width="502" x="319.5" y="131.6641"/><text fill="#000000" font-family="sans-serif" font-size="13" font-weight="bold" lengthAdjust="spacing" textLength="16" x="334.5" y="146.1592">alt</text><text fill="#000000" font-family="sans-serif" font-size="11" font-weight="bold" lengthAdjust="spacing" textLength="186" x="395.5" y="145.083">[If IAM Registration was selected]</text><line style="stroke:#181818;stroke-width:1.0;stroke-dasharray:2.0,2.0;" x1="387" x2="429" y1="172.3672" y2="172.3672"/><line style="stroke:#181818;stroke-width:1.0;stroke-dasharray:2.0,2.0;" x1="429" x2="429" y1="172.3672" y2="185.3672"/><line style="stroke:#181818;stroke-width:1.0;stroke-dasharray:2.0,2.0;" x1="388" x2="429" y1="185.3672" y2="185.3672"/><polygon fill="#181818" points="398,181.3672,388,185.3672,398,189.3672,394,185.3672" style="stroke:#181818;stroke-width:1.0;"/><text fill="#000000" font-family="sans-serif" font-size="13" font-weight="bold" lengthAdjust="spacing" textLength="228" x="394" y="167.5107">[Gets Google Response Information]</text><polygon fill="#181818" points="550.5,211.7188,560.5,215.7188,550.5,219.7188,554.5,215.7188" style="stroke:#181818;stroke-width:1.0;"/><line style="stroke:#181818;stroke-width:1.0;" x1="387" x2="556.5" y1="215.7188" y2="215.7188"/><text fill="#000000" font-family="sans-serif" font-size="13" lengthAdjust="spacing" textLength="44" x="394" y="210.8623">create()</text><rect fill="#E2E2F0" height="31.6094" rx="2.5" ry="2.5" style="stroke:#181818;stroke-width:0.5;" width="143" x="562.5" y="193.3672"/><text fill="#000000" font-family="sans-serif" font-size="14" lengthAdjust="spacing" textLength="129" x="569.5" y="214.9004">LoginCredentialsDto</text><polygon fill="#181818" points="746.5,254.3281,756.5,258.3281,746.5,262.3281,750.5,258.3281" style="stroke:#181818;stroke-width:1.0;"/><line style="stroke:#181818;stroke-width:1.0;" x1="382" x2="752.5" y1="258.3281" y2="258.3281"/><text fill="#000000" font-family="sans-serif" font-size="13" lengthAdjust="spacing" textLength="185" x="389" y="253.4717">TreatAuthenticateResult(claims)</text><polygon fill="#181818" points="398,284.6797,388,288.6797,398,292.6797,394,288.6797" style="stroke:#181818;stroke-width:1.0;"/><line style="stroke:#181818;stroke-width:1.0;stroke-dasharray:2.0,2.0;" x1="392" x2="762.5" y1="288.6797" y2="288.6797"/><text fill="#000000" font-family="sans-serif" font-size="13" lengthAdjust="spacing" textLength="92" x="404" y="283.8232">loginCredentials</text><polygon fill="#181818" points="857,322.0313,867,326.0313,857,330.0313,861,326.0313" style="stroke:#181818;stroke-width:1.0;"/><line style="stroke:#181818;stroke-width:1.0;" x1="382" x2="863" y1="326.0313" y2="326.0313"/><text fill="#000000" font-family="sans-serif" font-size="13" lengthAdjust="spacing" textLength="215" x="389" y="321.1748">checkPatientProfileExistence(userID)</text><polygon fill="#181818" points="1052,352.3828,1062,356.3828,1052,360.3828,1056,356.3828" style="stroke:#181818;stroke-width:1.0;"/><line style="stroke:#181818;stroke-width:1.0;" x1="874" x2="1058" y1="356.3828" y2="356.3828"/><text fill="#000000" font-family="sans-serif" font-size="13" lengthAdjust="spacing" textLength="126" x="881" y="351.5264">getByIdAsync(userID)</text><polygon fill="#181818" points="890,382.7344,880,386.7344,890,390.7344,886,386.7344" style="stroke:#181818;stroke-width:1.0;"/><line style="stroke:#181818;stroke-width:1.0;stroke-dasharray:2.0,2.0;" x1="884" x2="1068" y1="386.7344" y2="386.7344"/><text fill="#000000" font-family="sans-serif" font-size="13" lengthAdjust="spacing" textLength="49" x="896" y="381.8779">patience</text><polygon fill="#181818" points="398,413.0859,388,417.0859,398,421.0859,394,417.0859" style="stroke:#181818;stroke-width:1.0;"/><line style="stroke:#181818;stroke-width:1.0;stroke-dasharray:2.0,2.0;" x1="392" x2="873" y1="417.0859" y2="417.0859"/><text fill="#000000" font-family="sans-serif" font-size="13" lengthAdjust="spacing" textLength="122" x="404" y="412.2295">existingPatientProfile</text><path d="M309.5,432.0859 L370.5,432.0859 L370.5,440.4375 L360.5,450.4375 L309.5,450.4375 L309.5,432.0859 " fill="#EEEEEE" style="stroke:#000000;stroke-width:1.5;"/><rect fill="none" height="881.4531" style="stroke:#000000;stroke-width:1.5;" width="1903.5" x="309.5" y="432.0859"/><text fill="#000000" font-family="sans-serif" font-size="13" font-weight="bold" lengthAdjust="spacing" textLength="16" x="324.5" y="446.5811">alt</text><text fill="#000000" font-family="sans-serif" font-size="11" font-weight="bold" lengthAdjust="spacing" textLength="150" x="385.5" y="445.5049">[If patientExistence == true]</text><polygon fill="#181818" points="1170,468.7891,1180,472.7891,1170,476.7891,1174,472.7891" style="stroke:#181818;stroke-width:1.0;"/><line style="stroke:#181818;stroke-width:1.0;" x1="382" x2="1176" y1="472.7891" y2="472.7891"/><text fill="#000000" font-family="sans-serif" font-size="13" lengthAdjust="spacing" textLength="202" x="389" y="467.9326">addWithPasswordAsync(userData)</text><polygon fill="#181818" points="1576.5,499.1406,1586.5,503.1406,1576.5,507.1406,1580.5,503.1406" style="stroke:#181818;stroke-width:1.0;"/><line style="stroke:#181818;stroke-width:1.0;" x1="1187" x2="1582.5" y1="503.1406" y2="503.1406"/><text fill="#000000" font-family="sans-serif" font-size="13" lengthAdjust="spacing" textLength="368" x="1194" y="498.2842">createDeactivatedUser(username, role.PATIENT, emailAddress)</text><polygon fill="#181818" points="1203,529.4922,1193,533.4922,1203,537.4922,1199,533.4922" style="stroke:#181818;stroke-width:1.0;"/><line style="stroke:#181818;stroke-width:1.0;stroke-dasharray:2.0,2.0;" x1="1197" x2="1592.5" y1="533.4922" y2="533.4922"/><text fill="#000000" font-family="sans-serif" font-size="13" lengthAdjust="spacing" textLength="45" x="1209" y="528.6357">userDto</text><polygon fill="#181818" points="1687.5,559.8438,1697.5,563.8438,1687.5,567.8438,1691.5,563.8438" style="stroke:#181818;stroke-width:1.0;"/><line style="stroke:#181818;stroke-width:1.0;" x1="1187" x2="1693.5" y1="563.8438" y2="563.8438"/><text fill="#000000" font-family="sans-serif" font-size="13" lengthAdjust="spacing" textLength="91" x="1194" y="558.9873">addAsync(user)</text><polygon fill="#181818" points="1203,590.1953,1193,594.1953,1203,598.1953,1199,594.1953" style="stroke:#181818;stroke-width:1.0;"/><line style="stroke:#181818;stroke-width:1.0;stroke-dasharray:2.0,2.0;" x1="1197" x2="1703.5" y1="594.1953" y2="594.1953"/><text fill="#000000" font-family="sans-serif" font-size="13" lengthAdjust="spacing" textLength="25" x="1209" y="589.3389">user</text><polygon fill="#181818" points="398,620.5469,388,624.5469,398,628.5469,394,624.5469" style="stroke:#181818;stroke-width:1.0;"/><line style="stroke:#181818;stroke-width:1.0;stroke-dasharray:2.0,2.0;" x1="392" x2="1186" y1="624.5469" y2="624.5469"/><text fill="#000000" font-family="sans-serif" font-size="13" lengthAdjust="spacing" textLength="45" x="404" y="619.6904">userDto</text><polygon fill="#181818" points="857,667.25,867,671.25,857,675.25,861,671.25" style="stroke:#181818;stroke-width:1.0;"/><line style="stroke:#181818;stroke-width:1.0;" x1="382" x2="863" y1="671.25" y2="671.25"/><text fill="#000000" font-family="sans-serif" font-size="13" lengthAdjust="spacing" textLength="302" x="389" y="650.042">addUserToPatientProfile(existingPatientProfile.MRN,</text><text fill="#000000" font-family="sans-serif" font-size="13" lengthAdjust="spacing" textLength="134" x="389" y="666.3936">userDto.EmailAddress)</text><polygon fill="#181818" points="1687.5,697.6016,1697.5,701.6016,1687.5,705.6016,1691.5,701.6016" style="stroke:#181818;stroke-width:1.0;"/><line style="stroke:#181818;stroke-width:1.0;" x1="874" x2="1693.5" y1="701.6016" y2="701.6016"/><text fill="#000000" font-family="sans-serif" font-size="13" lengthAdjust="spacing" textLength="126" x="881" y="696.7451">getByIdAsync(userID)</text><polygon fill="#181818" points="890,727.9531,880,731.9531,890,735.9531,886,731.9531" style="stroke:#181818;stroke-width:1.0;"/><line style="stroke:#181818;stroke-width:1.0;stroke-dasharray:2.0,2.0;" x1="884" x2="1703.5" y1="731.9531" y2="731.9531"/><text fill="#000000" font-family="sans-serif" font-size="13" lengthAdjust="spacing" textLength="25" x="896" y="727.0967">user</text><polygon fill="#181818" points="1052,758.3047,1062,762.3047,1052,766.3047,1056,762.3047" style="stroke:#181818;stroke-width:1.0;"/><line style="stroke:#181818;stroke-width:1.0;" x1="874" x2="1058" y1="762.3047" y2="762.3047"/><text fill="#000000" font-family="sans-serif" font-size="13" lengthAdjust="spacing" textLength="157" x="881" y="757.4482">getByIdAsync(patientMRN)</text><polygon fill="#181818" points="890,788.6563,880,792.6563,890,796.6563,886,792.6563" style="stroke:#181818;stroke-width:1.0;"/><line style="stroke:#181818;stroke-width:1.0;stroke-dasharray:2.0,2.0;" x1="884" x2="1068" y1="792.6563" y2="792.6563"/><text fill="#000000" font-family="sans-serif" font-size="13" lengthAdjust="spacing" textLength="39" x="896" y="787.7998">patient</text><line style="stroke:#181818;stroke-width:1.0;stroke-dasharray:2.0,2.0;" x1="879" x2="921" y1="823.0078" y2="823.0078"/><line style="stroke:#181818;stroke-width:1.0;stroke-dasharray:2.0,2.0;" x1="921" x2="921" y1="823.0078" y2="836.0078"/><line style="stroke:#181818;stroke-width:1.0;stroke-dasharray:2.0,2.0;" x1="880" x2="921" y1="836.0078" y2="836.0078"/><polygon fill="#181818" points="890,832.0078,880,836.0078,890,840.0078,886,836.0078" style="stroke:#181818;stroke-width:1.0;"/><text fill="#000000" font-family="sans-serif" font-size="13" lengthAdjust="spacing" textLength="171" x="886" y="818.1514">patient.addUser(user.id, user)</text><polygon fill="#181818" points="1052,862.3594,1062,866.3594,1052,870.3594,1056,866.3594" style="stroke:#181818;stroke-width:1.0;"/><line style="stroke:#181818;stroke-width:1.0;" x1="874" x2="1058" y1="866.3594" y2="866.3594"/><text fill="#000000" font-family="sans-serif" font-size="13" lengthAdjust="spacing" textLength="86" x="881" y="861.5029">update(patient)</text><polygon fill="#181818" points="890,892.7109,880,896.7109,890,900.7109,886,896.7109" style="stroke:#181818;stroke-width:1.0;"/><line style="stroke:#181818;stroke-width:1.0;stroke-dasharray:2.0,2.0;" x1="884" x2="1068" y1="896.7109" y2="896.7109"/><text fill="#000000" font-family="sans-serif" font-size="13" lengthAdjust="spacing" textLength="111" x="896" y="891.8545">opperationSuccess</text><polygon fill="#181818" points="398,923.0625,388,927.0625,398,931.0625,394,927.0625" style="stroke:#181818;stroke-width:1.0;"/><line style="stroke:#181818;stroke-width:1.0;stroke-dasharray:2.0,2.0;" x1="392" x2="873" y1="927.0625" y2="927.0625"/><text fill="#000000" font-family="sans-serif" font-size="13" lengthAdjust="spacing" textLength="111" x="404" y="922.2061">opperationSuccess</text><polygon fill="#181818" points="1358.5,953.4141,1368.5,957.4141,1358.5,961.4141,1362.5,957.4141" style="stroke:#181818;stroke-width:1.0;"/><line style="stroke:#181818;stroke-width:1.0;" x1="382" x2="1364.5" y1="957.4141" y2="957.4141"/><text fill="#000000" font-family="sans-serif" font-size="13" lengthAdjust="spacing" textLength="269" x="389" y="952.5576">generatePasswordValidationTokenAsync(user)</text><polygon fill="#181818" points="1687.5,983.7656,1697.5,987.7656,1687.5,991.7656,1691.5,987.7656" style="stroke:#181818;stroke-width:1.0;"/><line style="stroke:#181818;stroke-width:1.0;" x1="1375.5" x2="1693.5" y1="987.7656" y2="987.7656"/><text fill="#000000" font-family="sans-serif" font-size="13" lengthAdjust="spacing" textLength="219" x="1382.5" y="982.9092">getByIdAsync(userDto.EmailAddress)</text><polygon fill="#181818" points="1391.5,1014.1172,1381.5,1018.1172,1391.5,1022.1172,1387.5,1018.1172" style="stroke:#181818;stroke-width:1.0;"/><line style="stroke:#181818;stroke-width:1.0;stroke-dasharray:2.0,2.0;" x1="1385.5" x2="1703.5" y1="1018.1172" y2="1018.1172"/><text fill="#000000" font-family="sans-serif" font-size="13" lengthAdjust="spacing" textLength="25" x="1397.5" y="1013.2607">user</text><polygon fill="#181818" points="1804,1044.4688,1814,1048.4688,1804,1052.4688,1808,1048.4688" style="stroke:#181818;stroke-width:1.0;"/><line style="stroke:#181818;stroke-width:1.0;" x1="1375.5" x2="1810" y1="1048.4688" y2="1048.4688"/><text fill="#000000" font-family="sans-serif" font-size="13" lengthAdjust="spacing" textLength="301" x="1382.5" y="1043.6123">createPasswordActivationToken(dateAndTime, user)</text><polygon fill="#181818" points="1391.5,1074.8203,1381.5,1078.8203,1391.5,1082.8203,1387.5,1078.8203" style="stroke:#181818;stroke-width:1.0;"/><line style="stroke:#181818;stroke-width:1.0;stroke-dasharray:2.0,2.0;" x1="1385.5" x2="1820" y1="1078.8203" y2="1078.8203"/><text fill="#000000" font-family="sans-serif" font-size="13" lengthAdjust="spacing" textLength="32" x="1397.5" y="1073.9639">token</text><polygon fill="#181818" points="1926,1105.1719,1936,1109.1719,1926,1113.1719,1930,1109.1719" style="stroke:#181818;stroke-width:1.0;"/><line style="stroke:#181818;stroke-width:1.0;" x1="1375.5" x2="1932" y1="1109.1719" y2="1109.1719"/><text fill="#000000" font-family="sans-serif" font-size="13" lengthAdjust="spacing" textLength="98" x="1382.5" y="1104.3154">addAsync(token)</text><polygon fill="#181818" points="1391.5,1135.5234,1381.5,1139.5234,1391.5,1143.5234,1387.5,1139.5234" style="stroke:#181818;stroke-width:1.0;"/><line style="stroke:#181818;stroke-width:1.0;stroke-dasharray:2.0,2.0;" x1="1385.5" x2="1942" y1="1139.5234" y2="1139.5234"/><text fill="#000000" font-family="sans-serif" font-size="13" lengthAdjust="spacing" textLength="32" x="1397.5" y="1134.667">token</text><polygon fill="#181818" points="2107,1165.875,2117,1169.875,2107,1173.875,2111,1169.875" style="stroke:#181818;stroke-width:1.0;"/><line style="stroke:#181818;stroke-width:1.0;" x1="1380.5" x2="2113" y1="1169.875" y2="1169.875"/><text fill="#000000" font-family="sans-serif" font-size="13" lengthAdjust="spacing" textLength="44" x="1387.5" y="1165.0186">create()</text><rect fill="#E2E2F0" height="31.6094" rx="2.5" ry="2.5" style="stroke:#181818;stroke-width:0.5;" width="84" x="2119" y="1147.5234"/><text fill="#000000" font-family="sans-serif" font-size="14" lengthAdjust="spacing" textLength="70" x="2126" y="1169.0566">TokenDTO</text><polygon fill="#181818" points="398,1208.4844,388,1212.4844,398,1216.4844,394,1212.4844" style="stroke:#181818;stroke-width:1.0;"/><line style="stroke:#181818;stroke-width:1.0;stroke-dasharray:2.0,2.0;" x1="392" x2="1374.5" y1="1212.4844" y2="1212.4844"/><text fill="#000000" font-family="sans-serif" font-size="13" lengthAdjust="spacing" textLength="58" x="404" y="1207.6279">tokenDTO</text><path d="M319.5,1227.4844 L380.5,1227.4844 L380.5,1235.8359 L370.5,1245.8359 L319.5,1245.8359 L319.5,1227.4844 " fill="#EEEEEE" style="stroke:#000000;stroke-width:1.5;"/><rect fill="none" height="79.0547" style="stroke:#000000;stroke-width:1.5;" width="1799.5" x="319.5" y="1227.4844"/><text fill="#000000" font-family="sans-serif" font-size="13" font-weight="bold" lengthAdjust="spacing" textLength="16" x="334.5" y="1241.9795">alt</text><text fill="#000000" font-family="sans-serif" font-size="11" font-weight="bold" lengthAdjust="spacing" textLength="204" x="395.5" y="1240.9033">[if Manual Registration was selected]</text><polygon fill="#181818" points="2044.5,1264.1875,2054.5,1268.1875,2044.5,1272.1875,2048.5,1268.1875" style="stroke:#181818;stroke-width:1.0;"/><line style="stroke:#181818;stroke-width:1.0;" x1="382" x2="2050.5" y1="1268.1875" y2="1268.1875"/><text fill="#000000" font-family="sans-serif" font-size="13" lengthAdjust="spacing" textLength="313" x="389" y="1263.3311">sendEmailVerificationEmail(dto.Username, tokenDTO)</text><polygon fill="#181818" points="398,1294.5391,388,1298.5391,398,1302.5391,394,1298.5391" style="stroke:#181818;stroke-width:1.0;"/><line style="stroke:#181818;stroke-width:1.0;stroke-dasharray:2.0,2.0;" x1="392" x2="2060.5" y1="1298.5391" y2="1298.5391"/><text fill="#000000" font-family="sans-serif" font-size="13" lengthAdjust="spacing" textLength="97" x="404" y="1293.6826">opperationResult</text><polygon fill="#181818" points="190,1338.8906,180,1342.8906,190,1346.8906,186,1342.8906" style="stroke:#181818;stroke-width:1.0;"/><line style="stroke:#181818;stroke-width:1.0;stroke-dasharray:2.0,2.0;" x1="184" x2="381" y1="1342.8906" y2="1342.8906"/><text fill="#000000" font-family="sans-serif" font-size="13" lengthAdjust="spacing" textLength="150" x="196" y="1338.0342">opperationResultMessage</text><polygon fill="#181818" points="11,1369.2422,1,1373.2422,11,1377.2422,7,1373.2422" style="stroke:#181818;stroke-width:1.0;"/><line style="stroke:#181818;stroke-width:1.0;stroke-dasharray:2.0,2.0;" x1="5" x2="173" y1="1373.2422" y2="1373.2422"/><text fill="#000000" font-family="sans-serif" font-size="13" lengthAdjust="spacing" textLength="150" x="17" y="1368.3857">opperationResultMessage</text><!--SRC=[nLTDSzem4BtpAtGa3D0xqsI61ffXfYHCGj93quF6MeWcHlB8SjBy-qh2iYLB1jCqBJUatNtxzalU30j94vfX9j4jBoHbMzJBdCFx7CGbPrBmD0M1S8uIAL9Fv1lVKdOfW02J5AVvJFBm_Wx42qt0krXXIPNEWQjRo7XE9HTleLUbMdWnMzzuPsl-38VmlnGq9OfROEWhJkBGjLiXK5J9tBIHcUymJIislTxeeah51ArkxjRzGhF24f_rb77wWYLOYPwLL4ewCKf3m9Rc4eHsj6HO6q2V7fahi9Wk-sSz0e7Twi2a6waVJYLQR93IGBV6Wb36EKElgYPoI26HG8oWyMDKEpGO_BW2cQChphUfGe0yuom7j60RBdR6oC_103cw5x6QKY8Jb0XGJYcN0s4Rm0bQQvbf8P-qRgB45MAHodwIOhhBzweEuvgWFV4ALjzu00wpjE5bqtHWA0G5HdHaFJv-NsZMJv0ybwShmJSqXValdKEMWCdjOjQ1LgFTKFbheDNuJhrEq1RabxS5cUPlB6c3Z00qxvpEQU0xQADO339pK9eDGHk6JoLTvnHqO5K7-E4-GhNiZRsFiieDEZz7KXGGwIQRQtUIJH0cv3kLJokSvwzSED7UT__H53lMAgekGWbePvJjfrbba-XhWyZm3eP8ZNqOhwRhnVnwFKIW9zMK405vs4TDRE-YHFISibwCWZ0OnkeLiT8D5DVOgTIzebRXhaDy6g588JVCnsd5GDfgzoYbkchTYBLGQA_1eDTKNBJccljDq8_tndXvUpryPAKBu_cX8dd7L0gozzwHr3sDGO1EpUJV6xtbY54X_n_ZLtxOz6q379UrQ18yfcI8wbxj7i8Y8_gpeRJvRoF7impsdqftHPAeflZe5wmhuF71u7uvcq9asZ3Ov-a1fvGO82DuO9I6RUzzb5jE7bwdbZywS0ASFsZ_HXXERVvELBtTmRxBrNV0tfGDT5yNyvIHDTLFT3JWxRHT8DyRzprkK9RwRnGZ-XPtPnn_ZWtSgPmYkMn2D9aT8lR-RAezDDnPGkcwSMMfTP1uV36Z6xJ4hC1ffztimjyv9qg64NFq089kzDAajCr1dwWEkw- -1wsB7JhSXQYeUxZHcRLVrfhc0sFjcvIxKTdj-FDer8QqL5C3Rw7Nv19inDf6lPTtC6CLVmC0]--></g></svg>