<?xml version="1.0" encoding="us-ascii" standalone="no"?><svg xmlns="http://www.w3.org/2000/svg" xmlns:xlink="http://www.w3.org/1999/xlink" contentStyleType="text/css" height="369px" preserveAspectRatio="none" style="width:338px;height:369px;background:#FFFFFF;" version="1.1" viewBox="0 0 338 369" width="338px" zoomAndPan="magnify"><defs/><g><!--cluster SurgeryRoomAggregate--><g id="cluster_SurgeryRoomAggregate"><path d="M8.5,6.0137 L177.5,6.0137 A3.75,3.75 0 0 1 180,8.5137 L187,30.6348 L328.5,30.6348 A2.5,2.5 0 0 1 331,33.1348 L331,359.5137 A2.5,2.5 0 0 1 328.5,362.0137 L8.5,362.0137 A2.5,2.5 0 0 1 6,359.5137 L6,8.5137 A2.5,2.5 0 0 1 8.5,6.0137 " fill="none" style="stroke:#000000;stroke-width:1.5;"/><line style="stroke:#000000;stroke-width:1.5;" x1="6" x2="187" y1="30.6348" y2="30.6348"/><text fill="#000000" font-family="sans-serif" font-size="14" font-weight="bold" lengthAdjust="spacing" textLength="168" x="10" y="23.1211">SurgeryRoomAggregate</text></g><!--class SurgeryRoom--><g id="elem_SurgeryRoom"><rect codeLine="3" fill="#F1F1F1" height="60.582" id="SurgeryRoom" rx="2.5" ry="2.5" style="stroke:#181818;stroke-width:0.5;" width="119" x="184.5" y="164.0137"/><ellipse cx="199.5" cy="186.3047" fill="#0099FF" rx="11" ry="11" style="stroke:#181818;stroke-width:1.0;"/><path d="M198.3438,187.4609 L198.3438,189.6016 L198.9531,189.6016 Q199.5781,189.6016 199.8281,189.8359 Q200.0938,190.0703 200.0938,190.4609 Q200.0938,190.8359 199.8281,191.0703 Q199.5781,191.3047 198.9531,191.3047 L196.375,191.3047 Q195.7656,191.3047 195.5,191.0703 Q195.2344,190.8359 195.2344,190.4453 Q195.2344,190.0703 195.5,189.8359 Q195.7656,189.6016 196.375,189.6016 L196.6406,189.6016 L196.6406,182.9453 L196.375,182.9453 Q195.7656,182.9453 195.5,182.7109 Q195.2344,182.4766 195.2344,182.0859 Q195.2344,181.7109 195.5,181.4766 Q195.7656,181.2422 196.375,181.2422 L200.2344,181.2422 Q202.0313,181.2422 203.0156,182.1328 Q204.0156,183.0234 204.0156,184.3047 Q204.0156,185.1016 203.5469,185.7578 Q203.0781,186.4141 202.1406,186.9141 Q202.6875,187.3828 203.2969,188.1328 Q203.6875,188.6016 204.3281,189.6016 Q204.9844,189.6016 205.1875,189.7422 Q205.5625,189.9922 205.5625,190.4609 Q205.5625,190.8359 205.2969,191.0703 Q205.0469,191.3047 204.4375,191.3047 L203.4531,191.3047 Q201.3906,188.1016 200.0313,187.4609 L198.3438,187.4609 Z M198.3438,185.7578 L199.6719,185.7578 Q200.4063,185.7578 201,185.5391 Q201.7813,185.2422 202.0469,184.9141 Q202.3125,184.5703 202.3125,184.2422 Q202.3125,183.7734 201.7969,183.3672 Q201.2813,182.9453 200.2969,182.9453 L198.3438,182.9453 L198.3438,185.7578 Z " fill="#000000"/><text fill="#000000" font-family="sans-serif" font-size="12" font-style="italic" lengthAdjust="spacing" textLength="73" x="220.5" y="181.9629">&#171;Root Entity&#187;</text><text fill="#000000" font-family="sans-serif" font-size="14" lengthAdjust="spacing" textLength="87" x="213.5" y="200.082">SurgeryRoom</text><line style="stroke:#181818;stroke-width:0.5;" x1="185.5" x2="302.5" y1="208.5957" y2="208.5957"/><line style="stroke:#181818;stroke-width:0.5;" x1="185.5" x2="302.5" y1="216.5957" y2="216.5957"/></g><!--class RoomNumber--><g id="elem_RoomNumber"><rect codeLine="5" fill="#F1F1F1" height="60.582" id="RoomNumber" rx="2.5" ry="2.5" style="stroke:#181818;stroke-width:0.5;" width="133" x="27.5" y="285.0137"/><ellipse cx="42.5" cy="307.3047" fill="#F09800" rx="11" ry="11" style="stroke:#181818;stroke-width:1.0;"/><path d="M43.0938,310.5703 L45.5625,304.6953 L45.1719,304.6953 Q44.5625,304.6953 44.2969,304.4609 Q44.0313,304.2266 44.0313,303.8359 Q44.0313,303.4609 44.2969,303.2266 Q44.5625,302.9922 45.1719,302.9922 L47.4531,302.9922 Q48.0625,302.9922 48.3281,303.2266 Q48.5938,303.4609 48.5938,303.8359 Q48.5938,304.3047 48.1875,304.5703 Q48,304.6953 47.4063,304.6953 L43.9219,313.0547 L42.2813,313.0547 L38.7969,304.6953 Q38.2031,304.6953 38.0156,304.5703 Q37.6094,304.3047 37.6094,303.8359 Q37.6094,303.4609 37.875,303.2266 Q38.1406,302.9922 38.75,302.9922 L41.0469,302.9922 Q41.6563,302.9922 41.9063,303.2266 Q42.1719,303.4609 42.1719,303.8359 Q42.1719,304.2266 41.9063,304.4609 Q41.6563,304.6953 41.0469,304.6953 L40.6406,304.6953 L43.0938,310.5703 Z " fill="#000000"/><text fill="#000000" font-family="sans-serif" font-size="12" font-style="italic" lengthAdjust="spacing" textLength="105" x="54.5" y="302.9629">&#171;Unique Identifier&#187;</text><text fill="#000000" font-family="sans-serif" font-size="14" lengthAdjust="spacing" textLength="86" x="64" y="321.082">RoomNumber</text><line style="stroke:#181818;stroke-width:0.5;" x1="28.5" x2="159.5" y1="329.5957" y2="329.5957"/><line style="stroke:#181818;stroke-width:0.5;" x1="28.5" x2="159.5" y1="337.5957" y2="337.5957"/></g><!--class RoomType--><g id="elem_RoomType"><rect codeLine="6" fill="#F1F1F1" height="60.582" id="RoomType" rx="2.5" ry="2.5" style="stroke:#181818;stroke-width:0.5;" width="113" x="195.5" y="285.0137"/><ellipse cx="210.5" cy="307.3047" fill="#F04800" rx="11" ry="11" style="stroke:#181818;stroke-width:1.0;"/><path d="M211.0938,310.5703 L213.5625,304.6953 L213.1719,304.6953 Q212.5625,304.6953 212.2969,304.4609 Q212.0313,304.2266 212.0313,303.8359 Q212.0313,303.4609 212.2969,303.2266 Q212.5625,302.9922 213.1719,302.9922 L215.4531,302.9922 Q216.0625,302.9922 216.3281,303.2266 Q216.5938,303.4609 216.5938,303.8359 Q216.5938,304.3047 216.1875,304.5703 Q216,304.6953 215.4063,304.6953 L211.9219,313.0547 L210.2813,313.0547 L206.7969,304.6953 Q206.2031,304.6953 206.0156,304.5703 Q205.6094,304.3047 205.6094,303.8359 Q205.6094,303.4609 205.875,303.2266 Q206.1406,302.9922 206.75,302.9922 L209.0469,302.9922 Q209.6563,302.9922 209.9063,303.2266 Q210.1719,303.4609 210.1719,303.8359 Q210.1719,304.2266 209.9063,304.4609 Q209.6563,304.6953 209.0469,304.6953 L208.6406,304.6953 L211.0938,310.5703 Z " fill="#000000"/><text fill="#000000" font-family="sans-serif" font-size="12" font-style="italic" lengthAdjust="spacing" textLength="85" x="222.5" y="302.9629">&#171;Value Object&#187;</text><text fill="#000000" font-family="sans-serif" font-size="14" lengthAdjust="spacing" textLength="69" x="230.5" y="321.082">RoomType</text><line style="stroke:#181818;stroke-width:0.5;" x1="196.5" x2="307.5" y1="329.5957" y2="329.5957"/><line style="stroke:#181818;stroke-width:0.5;" x1="196.5" x2="307.5" y1="337.5957" y2="337.5957"/></g><!--class RoomCapacity--><g id="elem_RoomCapacity"><rect codeLine="7" fill="#F1F1F1" height="60.582" id="RoomCapacity" rx="2.5" ry="2.5" style="stroke:#181818;stroke-width:0.5;" width="124" x="25" y="164.0137"/><ellipse cx="40" cy="186.3047" fill="#F04800" rx="11" ry="11" style="stroke:#181818;stroke-width:1.0;"/><path d="M40.5938,189.5703 L43.0625,183.6953 L42.6719,183.6953 Q42.0625,183.6953 41.7969,183.4609 Q41.5313,183.2266 41.5313,182.8359 Q41.5313,182.4609 41.7969,182.2266 Q42.0625,181.9922 42.6719,181.9922 L44.9531,181.9922 Q45.5625,181.9922 45.8281,182.2266 Q46.0938,182.4609 46.0938,182.8359 Q46.0938,183.3047 45.6875,183.5703 Q45.5,183.6953 44.9063,183.6953 L41.4219,192.0547 L39.7813,192.0547 L36.2969,183.6953 Q35.7031,183.6953 35.5156,183.5703 Q35.1094,183.3047 35.1094,182.8359 Q35.1094,182.4609 35.375,182.2266 Q35.6406,181.9922 36.25,181.9922 L38.5469,181.9922 Q39.1563,181.9922 39.4063,182.2266 Q39.6719,182.4609 39.6719,182.8359 Q39.6719,183.2266 39.4063,183.4609 Q39.1563,183.6953 38.5469,183.6953 L38.1406,183.6953 L40.5938,189.5703 Z " fill="#000000"/><text fill="#000000" font-family="sans-serif" font-size="12" font-style="italic" lengthAdjust="spacing" textLength="85" x="57.5" y="181.9629">&#171;Value Object&#187;</text><text fill="#000000" font-family="sans-serif" font-size="14" lengthAdjust="spacing" textLength="92" x="54" y="200.082">RoomCapacity</text><line style="stroke:#181818;stroke-width:0.5;" x1="26" x2="148" y1="208.5957" y2="208.5957"/><line style="stroke:#181818;stroke-width:0.5;" x1="26" x2="148" y1="216.5957" y2="216.5957"/></g><!--class RoomStatus--><g id="elem_RoomStatus"><rect codeLine="8" fill="#F1F1F1" height="60.582" id="RoomStatus" rx="2.5" ry="2.5" style="stroke:#181818;stroke-width:0.5;" width="113" x="201.5" y="43.0137"/><ellipse cx="216.5" cy="65.3047" fill="#F04800" rx="11" ry="11" style="stroke:#181818;stroke-width:1.0;"/><path d="M217.0938,68.5703 L219.5625,62.6953 L219.1719,62.6953 Q218.5625,62.6953 218.2969,62.4609 Q218.0313,62.2266 218.0313,61.8359 Q218.0313,61.4609 218.2969,61.2266 Q218.5625,60.9922 219.1719,60.9922 L221.4531,60.9922 Q222.0625,60.9922 222.3281,61.2266 Q222.5938,61.4609 222.5938,61.8359 Q222.5938,62.3047 222.1875,62.5703 Q222,62.6953 221.4063,62.6953 L217.9219,71.0547 L216.2813,71.0547 L212.7969,62.6953 Q212.2031,62.6953 212.0156,62.5703 Q211.6094,62.3047 211.6094,61.8359 Q211.6094,61.4609 211.875,61.2266 Q212.1406,60.9922 212.75,60.9922 L215.0469,60.9922 Q215.6563,60.9922 215.9063,61.2266 Q216.1719,61.4609 216.1719,61.8359 Q216.1719,62.2266 215.9063,62.4609 Q215.6563,62.6953 215.0469,62.6953 L214.6406,62.6953 L217.0938,68.5703 Z " fill="#000000"/><text fill="#000000" font-family="sans-serif" font-size="12" font-style="italic" lengthAdjust="spacing" textLength="85" x="228.5" y="60.9629">&#171;Value Object&#187;</text><text fill="#000000" font-family="sans-serif" font-size="14" lengthAdjust="spacing" textLength="77" x="232.5" y="79.082">RoomStatus</text><line style="stroke:#181818;stroke-width:0.5;" x1="202.5" x2="313.5" y1="87.5957" y2="87.5957"/><line style="stroke:#181818;stroke-width:0.5;" x1="202.5" x2="313.5" y1="95.5957" y2="95.5957"/></g><!--class MaintenanceSlots--><g id="elem_MaintenanceSlots"><rect codeLine="9" fill="#F1F1F1" height="60.582" id="MaintenanceSlots" rx="2.5" ry="2.5" style="stroke:#181818;stroke-width:0.5;" width="144" x="22" y="43.0137"/><ellipse cx="37" cy="65.3047" fill="#F04800" rx="11" ry="11" style="stroke:#181818;stroke-width:1.0;"/><path d="M37.5938,68.5703 L40.0625,62.6953 L39.6719,62.6953 Q39.0625,62.6953 38.7969,62.4609 Q38.5313,62.2266 38.5313,61.8359 Q38.5313,61.4609 38.7969,61.2266 Q39.0625,60.9922 39.6719,60.9922 L41.9531,60.9922 Q42.5625,60.9922 42.8281,61.2266 Q43.0938,61.4609 43.0938,61.8359 Q43.0938,62.3047 42.6875,62.5703 Q42.5,62.6953 41.9063,62.6953 L38.4219,71.0547 L36.7813,71.0547 L33.2969,62.6953 Q32.7031,62.6953 32.5156,62.5703 Q32.1094,62.3047 32.1094,61.8359 Q32.1094,61.4609 32.375,61.2266 Q32.6406,60.9922 33.25,60.9922 L35.5469,60.9922 Q36.1563,60.9922 36.4063,61.2266 Q36.6719,61.4609 36.6719,61.8359 Q36.6719,62.2266 36.4063,62.4609 Q36.1563,62.6953 35.5469,62.6953 L35.1406,62.6953 L37.5938,68.5703 Z " fill="#000000"/><text fill="#000000" font-family="sans-serif" font-size="12" font-style="italic" lengthAdjust="spacing" textLength="85" x="64.5" y="60.9629">&#171;Value Object&#187;</text><text fill="#000000" font-family="sans-serif" font-size="14" lengthAdjust="spacing" textLength="112" x="51" y="79.082">MaintenanceSlots</text><line style="stroke:#181818;stroke-width:0.5;" x1="23" x2="165" y1="87.5957" y2="87.5957"/><line style="stroke:#181818;stroke-width:0.5;" x1="23" x2="165" y1="95.5957" y2="95.5957"/></g><!--reverse link SurgeryRoom to RoomNumber--><g id="link_SurgeryRoom_RoomNumber"><path codeLine="12" d="M197.1378,232.6901 C174.1378,250.9301 154.2,266.7537 131.25,284.9637 " fill="none" id="SurgeryRoom-backto-RoomNumber" style="stroke:#181818;stroke-width:1.0;"/><polygon fill="#181818" points="206.54,225.2337,199.3534,225.8278,197.1378,232.6901,204.3243,232.0959,206.54,225.2337" style="stroke:#181818;stroke-width:1.0;"/><text fill="#000000" font-family="sans-serif" font-size="13" lengthAdjust="spacing" textLength="7" x="191.988" y="246.5585">1</text><text fill="#000000" font-family="sans-serif" font-size="13" lengthAdjust="spacing" textLength="7" x="131.6328" y="273.5273">1</text></g><!--reverse link SurgeryRoom to RoomType--><g id="link_SurgeryRoom_RoomType"><path codeLine="13" d="M246.8035,237.2067 C248.0235,255.3867 248.78,266.5737 250,284.7537 " fill="none" id="SurgeryRoom-backto-RoomType" style="stroke:#181818;stroke-width:1.0;"/><polygon fill="#181818" points="246,225.2337,242.4107,231.488,246.8035,237.2067,250.3928,230.9524,246,225.2337" style="stroke:#181818;stroke-width:1.0;"/><text fill="#000000" font-family="sans-serif" font-size="13" lengthAdjust="spacing" textLength="7" x="238.7234" y="246.5585">1</text><text fill="#000000" font-family="sans-serif" font-size="13" lengthAdjust="spacing" textLength="7" x="241.8656" y="273.7577">1</text></g><!--link RoomCapacity to SurgeryRoom--><g id="link_RoomCapacity_SurgeryRoom"><path codeLine="14" d="M149.25,194.5137 C160.97,194.5137 160.69,194.5137 172.41,194.5137 " fill="none" id="RoomCapacity-to-SurgeryRoom" style="stroke:#181818;stroke-width:1.0;"/><polygon fill="#181818" points="184.41,194.5137,178.41,190.5137,172.41,194.5137,178.41,198.5137,184.41,194.5137" style="stroke:#181818;stroke-width:1.0;"/><text fill="#000000" font-family="sans-serif" font-size="13" lengthAdjust="spacing" textLength="7" x="156.8523" y="190.6002">1</text><text fill="#000000" font-family="sans-serif" font-size="13" lengthAdjust="spacing" textLength="7" x="169.3266" y="190.4983">1</text></g><!--link RoomStatus to SurgeryRoom--><g id="link_RoomStatus_SurgeryRoom"><path codeLine="15" d="M254.5,104.2337 C252.37,122.4137 251.0429,133.656 248.9029,151.836 " fill="none" id="RoomStatus-to-SurgeryRoom" style="stroke:#181818;stroke-width:1.0;"/><polygon fill="#181818" points="247.5,163.7537,252.174,158.2624,248.9029,151.836,244.2289,157.3272,247.5,163.7537" style="stroke:#181818;stroke-width:1.0;"/><text fill="#000000" font-family="sans-serif" font-size="13" lengthAdjust="spacing" textLength="7" x="246.2094" y="125.5585">1</text><text fill="#000000" font-family="sans-serif" font-size="13" lengthAdjust="spacing" textLength="7" x="240.5" y="152.7577">1</text></g><!--link MaintenanceSlots to SurgeryRoom--><g id="link_MaintenanceSlots_SurgeryRoom"><path codeLine="16" d="M131.46,104.2337 C154.46,122.4737 174.3997,138.2949 197.3497,156.5049 " fill="none" id="MaintenanceSlots-to-SurgeryRoom" style="stroke:#181818;stroke-width:1.0;"/><polygon fill="#181818" points="206.75,163.9637,204.5361,157.1008,197.3497,156.5049,199.5636,163.3677,206.75,163.9637" style="stroke:#181818;stroke-width:1.0;"/><text fill="#000000" font-family="sans-serif" font-size="13" lengthAdjust="spacing" textLength="5" x="132.9058" y="125.5585">*</text><text fill="#000000" font-family="sans-serif" font-size="13" lengthAdjust="spacing" textLength="7" x="190.8359" y="152.5273">1</text></g><!--SRC=[bP1DQy9048RFvbSCyL95OGiz6920Y8A7Vc1QxsCwhgl99jtC7eBqltSJImWOhRqDCyy3yxvl61zH4aJMI3BbEilIcPI693B1oUijD2ikssUOJX_MexuGGR1S3i2j6CvK69w-FQytJx0egdtwOjCj6QYCpQY_4y54Y05yQFLb2LQVvAoT8XE6uCIMzrxcr4XFjRJ1n3clsmF5VC7FCSUuUlCVJiJ8jhZNU4QbcJJgcA8auxyzLqIh0V_HXx7DnyDwQfNfDN5l8qt26ZDAxlaA-PkhvZgGYo3-i1ly0G00]--></g></svg>