<?xml version="1.0" encoding="us-ascii" standalone="no"?><svg xmlns="http://www.w3.org/2000/svg" xmlns:xlink="http://www.w3.org/1999/xlink" contentStyleType="text/css" height="1671px" preserveAspectRatio="none" style="width:674px;height:1671px;background:#FFFFFF;" version="1.1" viewBox="0 0 674 1671" width="674px" zoomAndPan="magnify"><defs/><g><!--entity User--><g id="elem_User"><ellipse cx="242" cy="402" fill="#F1F1F1" rx="8" ry="8" style="stroke:#181818;stroke-width:0.5;"/><path d="M242,410 L242,437 M229,418 L255,418 M242,437 L229,452 M242,437 L255,452 " fill="none" style="stroke:#181818;stroke-width:0.5;"/><text fill="#000000" font-family="sans-serif" font-size="14" lengthAdjust="spacing" textLength="129" x="177.5" y="468.0332">BACKOFFICE USER</text></g><!--entity Doctor--><g id="elem_Doctor"><ellipse cx="36.5" cy="150" fill="#F1F1F1" rx="8" ry="8" style="stroke:#181818;stroke-width:0.5;"/><path d="M36.5,158 L36.5,185 M23.5,166 L49.5,166 M36.5,185 L23.5,200 M36.5,185 L49.5,200 " fill="none" style="stroke:#181818;stroke-width:0.5;"/><text fill="#000000" font-family="sans-serif" font-size="14" lengthAdjust="spacing" textLength="61" x="6" y="216.0332">DOCTOR</text></g><!--entity Admin--><g id="elem_Admin"><ellipse cx="36.5" cy="1070" fill="#F1F1F1" rx="8" ry="8" style="stroke:#181818;stroke-width:0.5;"/><path d="M36.5,1078 L36.5,1105 M23.5,1086 L49.5,1086 M36.5,1105 L23.5,1120 M36.5,1105 L49.5,1120 " fill="none" style="stroke:#181818;stroke-width:0.5;"/><text fill="#000000" font-family="sans-serif" font-size="14" lengthAdjust="spacing" textLength="42" x="15.5" y="1136.0332">ADMIN</text></g><!--entity Patient--><g id="elem_Patient"><ellipse cx="242" cy="515" fill="#F1F1F1" rx="8" ry="8" style="stroke:#181818;stroke-width:0.5;"/><path d="M242,523 L242,550 M229,531 L255,531 M242,550 L229,565 M242,550 L255,565 " fill="none" style="stroke:#181818;stroke-width:0.5;"/><text fill="#000000" font-family="sans-serif" font-size="14" lengthAdjust="spacing" textLength="57" x="213.5" y="581.0332">PATIENT</text></g><!--entity Staff--><g id="elem_Staff"><ellipse cx="36.5" cy="311" fill="#F1F1F1" rx="8" ry="8" style="stroke:#181818;stroke-width:0.5;"/><path d="M36.5,319 L36.5,346 M23.5,327 L49.5,327 M36.5,346 L23.5,361 M36.5,346 L49.5,361 " fill="none" style="stroke:#181818;stroke-width:0.5;"/><text fill="#000000" font-family="sans-serif" font-size="14" lengthAdjust="spacing" textLength="45" x="14" y="377.0332">STAFF</text></g><g id="elem_Log in"><ellipse cx="542.5624" cy="450.4517" fill="#F1F1F1" rx="39.0624" ry="15.4517" style="stroke:#181818;stroke-width:0.5;"/><text fill="#000000" font-family="sans-serif" font-size="14" lengthAdjust="spacing" textLength="39" x="523.0624" y="454.1802">Log in</text></g><g id="elem_Reset password"><ellipse cx="542.3525" cy="382.3705" fill="#F1F1F1" rx="74.8525" ry="17.3705" style="stroke:#181818;stroke-width:0.5;"/><text fill="#000000" font-family="sans-serif" font-size="14" lengthAdjust="spacing" textLength="101" x="488.8525" y="386.8871">Reset password</text></g><g id="elem_Register for healthcare application"><ellipse cx="542.6716" cy="528.5343" fill="#F1F1F1" rx="125.6716" ry="27.5343" style="stroke:#181818;stroke-width:0.5;"/><text fill="#000000" font-family="sans-serif" font-size="14" lengthAdjust="spacing" textLength="217" x="434.1716" y="532.2628">Register for healthcare application</text></g><g id="elem_Update own information"><ellipse cx="542.313" cy="612.2626" fill="#F1F1F1" rx="94.313" ry="21.2626" style="stroke:#181818;stroke-width:0.5;"/><text fill="#000000" font-family="sans-serif" font-size="14" lengthAdjust="spacing" textLength="148" x="468.313" y="615.9911">Update own information</text></g><g id="elem_Delete account"><ellipse cx="542.6476" cy="686.4295" fill="#F1F1F1" rx="72.6476" ry="16.9295" style="stroke:#181818;stroke-width:0.5;"/><text fill="#000000" font-family="sans-serif" font-size="14" lengthAdjust="spacing" textLength="95" x="492.1476" y="690.9461">Delete account</text></g><g id="elem_Request operation"><ellipse cx="242.097" cy="24.6194" fill="#F1F1F1" rx="81.097" ry="18.6194" style="stroke:#181818;stroke-width:0.5;"/><text fill="#000000" font-family="sans-serif" font-size="14" lengthAdjust="spacing" textLength="117" x="183.0843" y="28.4982">Request operation</text></g><g id="elem_Update operation request"><ellipse cx="242.0583" cy="100.4117" fill="#F1F1F1" rx="100.0583" ry="22.4117" style="stroke:#181818;stroke-width:0.5;"/><text fill="#000000" font-family="sans-serif" font-size="14" lengthAdjust="spacing" textLength="161" x="161.5583" y="104.1402">Update operation request</text></g><g id="elem_Delete operation request"><ellipse cx="241.7802" cy="180.556" fill="#F1F1F1" rx="98.2802" ry="22.056" style="stroke:#181818;stroke-width:0.5;"/><text fill="#000000" font-family="sans-serif" font-size="14" lengthAdjust="spacing" textLength="157" x="163.2802" y="184.2846">Delete operation request</text></g><g id="elem_List/Search operation requests"><ellipse cx="242.0137" cy="263.4027" fill="#F1F1F1" rx="115.0137" ry="25.4027" style="stroke:#181818;stroke-width:0.5;"/><text fill="#000000" font-family="sans-serif" font-size="14" lengthAdjust="spacing" textLength="194" x="145.0137" y="267.1313">List/Search operation requests</text></g><g id="elem_View 3D model"><ellipse cx="241.9259" cy="341.2852" fill="#F1F1F1" rx="71.9259" ry="16.7852" style="stroke:#181818;stroke-width:0.5;"/><text fill="#000000" font-family="sans-serif" font-size="14" lengthAdjust="spacing" textLength="93" x="192.4259" y="345.8018">View 3D model</text></g><g id="elem_Register backoffice user"><ellipse cx="242.011" cy="641.7022" fill="#F1F1F1" rx="96.511" ry="21.7022" style="stroke:#181818;stroke-width:0.5;"/><text fill="#000000" font-family="sans-serif" font-size="14" lengthAdjust="spacing" textLength="153" x="165.511" y="645.4307">Register backoffice user</text></g><g id="elem_Create new patient profile"><ellipse cx="242.0042" cy="720.5008" fill="#F1F1F1" rx="100.5042" ry="22.5008" style="stroke:#181818;stroke-width:0.5;"/><text fill="#000000" font-family="sans-serif" font-size="14" lengthAdjust="spacing" textLength="162" x="161.0042" y="724.2293">Create new patient profile</text></g><g id="elem_Edit patient profile"><ellipse cx="241.8789" cy="796.3758" fill="#F1F1F1" rx="79.8789" ry="18.3758" style="stroke:#181818;stroke-width:0.5;"/><text fill="#000000" font-family="sans-serif" font-size="14" lengthAdjust="spacing" textLength="114" x="183.8373" y="800.4024">Edit patient profile</text></g><g id="elem_Delete patient profile"><ellipse cx="241.9661" cy="870.2932" fill="#F1F1F1" rx="86.9661" ry="19.7932" style="stroke:#181818;stroke-width:0.5;"/><text fill="#000000" font-family="sans-serif" font-size="14" lengthAdjust="spacing" textLength="131" x="176.4661" y="874.0217">Delete patient profile</text></g><g id="elem_List/Search patient profiles"><ellipse cx="242.1901" cy="948.538" fill="#F1F1F1" rx="103.1901" ry="23.038" style="stroke:#181818;stroke-width:0.5;"/><text fill="#000000" font-family="sans-serif" font-size="14" lengthAdjust="spacing" textLength="168" x="158.1901" y="952.2665">List/Search patient profiles</text></g><g id="elem_Create new staff profile"><ellipse cx="241.9382" cy="1027.5876" fill="#F1F1F1" rx="93.4382" ry="21.0876" style="stroke:#181818;stroke-width:0.5;"/><text fill="#000000" font-family="sans-serif" font-size="14" lengthAdjust="spacing" textLength="146" x="168.9382" y="1031.3162">Create new staff profile</text></g><g id="elem_Edit staff profile"><ellipse cx="242.2427" cy="1100.6485" fill="#F1F1F1" rx="73.7427" ry="17.1485" style="stroke:#181818;stroke-width:0.5;"/><text fill="#000000" font-family="sans-serif" font-size="14" lengthAdjust="spacing" textLength="98" x="190.2427" y="1105.1651">Edit staff profile</text></g><g id="elem_Deactivate staff profile"><ellipse cx="241.7628" cy="1173.6526" fill="#F1F1F1" rx="91.2628" ry="20.6526" style="stroke:#181818;stroke-width:0.5;"/><text fill="#000000" font-family="sans-serif" font-size="14" lengthAdjust="spacing" textLength="141" x="171.2628" y="1177.3811">Deactivate staff profile</text></g><g id="elem_List/Search staff profiles"><ellipse cx="242.0702" cy="1250.614" fill="#F1F1F1" rx="96.0702" ry="21.614" style="stroke:#181818;stroke-width:0.5;"/><text fill="#000000" font-family="sans-serif" font-size="14" lengthAdjust="spacing" textLength="152" x="166.0702" y="1254.3426">List/Search staff profiles</text></g><g id="elem_Create new operation type"><ellipse cx="242.2412" cy="1330.4482" fill="#F1F1F1" rx="102.7412" ry="22.9482" style="stroke:#181818;stroke-width:0.5;"/><text fill="#000000" font-family="sans-serif" font-size="14" lengthAdjust="spacing" textLength="167" x="158.7412" y="1334.1768">Create new operation type</text></g><g id="elem_Edit operation type"><ellipse cx="241.9202" cy="1407.284" fill="#F1F1F1" rx="81.9202" ry="18.784" style="stroke:#181818;stroke-width:0.5;"/><text fill="#000000" font-family="sans-serif" font-size="14" lengthAdjust="spacing" textLength="119" x="182.2512" y="1411.0629">Edit operation type</text></g><g id="elem_Delete operation type"><ellipse cx="242.105" cy="1481.721" fill="#F1F1F1" rx="89.105" ry="20.221" style="stroke:#181818;stroke-width:0.5;"/><text fill="#000000" font-family="sans-serif" font-size="14" lengthAdjust="spacing" textLength="136" x="174.105" y="1485.4495">Delete operation type</text></g><g id="elem_List/Search operation types"><ellipse cx="241.9418" cy="1560.4884" fill="#F1F1F1" rx="105.4418" ry="23.4884" style="stroke:#181818;stroke-width:0.5;"/><text fill="#000000" font-family="sans-serif" font-size="14" lengthAdjust="spacing" textLength="173" x="155.4418" y="1564.2169">List/Search operation types</text></g><g id="elem_Generate better scheduling"><ellipse cx="241.9418" cy="1642.4884" fill="#F1F1F1" rx="105.4418" ry="23.4884" style="stroke:#181818;stroke-width:0.5;"/><text fill="#000000" font-family="sans-serif" font-size="14" lengthAdjust="spacing" textLength="173" x="155.4418" y="1646.2169">Generate better scheduling</text></g><!--link User to Log in--><g id="link_User_Log in"><path d="M306.67,436.34 C366.6,439.95 448.3409,444.8784 497.8609,447.8684 " fill="none" id="User-to-Log in" style="stroke:#181818;stroke-width:1.0;"/><polygon fill="#181818" points="503.85,448.23,495.1074,443.6948,498.8591,447.9287,494.6253,451.6803,503.85,448.23" style="stroke:#181818;stroke-width:1.0;"/></g><!--link User to Reset password--><g id="link_User_Reset password"><path d="M306.67,421.84 C358.21,413.2 424.3923,402.1104 475.0623,393.6304 " fill="none" id="User-to-Reset password" style="stroke:#181818;stroke-width:1.0;"/><polygon fill="#181818" points="480.98,392.64,471.4432,390.1804,476.0486,393.4653,472.7637,398.0707,480.98,392.64" style="stroke:#181818;stroke-width:1.0;"/></g><!--link Patient to Log in--><g id="link_Patient_Log in"><path d="M270.79,534.79 C304.93,521.82 364.78,499.69 417,483.5 C447.86,473.93 477.7271,466.0971 502.9571,459.8271 " fill="none" id="Patient-to-Log in" style="stroke:#181818;stroke-width:1.0;"/><polygon fill="#181818" points="508.78,458.38,499.081,456.6687,503.9276,459.5859,501.0104,464.4325,508.78,458.38" style="stroke:#181818;stroke-width:1.0;"/></g><!--link Patient to Register for healthcare application--><g id="link_Patient_Register for healthcare application"><path d="M270.55,543.93 C304.83,541.98 359.6097,538.8611 414.9297,535.7111 " fill="none" id="Patient-to-Register for healthcare application" style="stroke:#181818;stroke-width:1.0;"/><polygon fill="#181818" points="420.92,535.37,411.7072,531.8881,415.9281,535.6542,412.162,539.8752,420.92,535.37" style="stroke:#181818;stroke-width:1.0;"/></g><!--link Patient to Update own information--><g id="link_Patient_Update own information"><path d="M270.55,551.68 C316.59,562.02 404.5858,581.7653 468.7958,596.1853 " fill="none" id="Patient-to-Update own information" style="stroke:#181818;stroke-width:1.0;"/><polygon fill="#181818" points="474.65,597.5,466.7452,591.6251,469.7715,596.4044,464.9922,599.4307,474.65,597.5" style="stroke:#181818;stroke-width:1.0;"/></g><!--link Patient to Delete account--><g id="link_Patient_Delete account"><path d="M270.64,557.24 C294.32,567.78 328.95,584.35 357,602.5 C385.91,621.2 386.45,635.62 417,651.5 C438.22,662.53 457.5065,668.9953 479.5965,674.4753 " fill="none" id="Patient-to-Delete account" style="stroke:#181818;stroke-width:1.0;"/><polygon fill="#181818" points="485.42,675.92,477.6479,669.8707,480.5671,674.7161,475.7217,677.6353,485.42,675.92" style="stroke:#181818;stroke-width:1.0;"/></g><!--link Doctor to Request operation--><g id="link_Doctor_Request operation"><path d="M58.04,141.33 C73.7,115.01 97.55,81.43 127,60.5 C142.48,49.5 155.7133,43.485 173.7033,38.085 " fill="none" id="Doctor-to-Request operation" style="stroke:#181818;stroke-width:1.0;"/><polygon fill="#181818" points="179.45,36.36,169.68,35.1163,174.6611,37.7975,171.9799,42.7786,179.45,36.36" style="stroke:#181818;stroke-width:1.0;"/></g><!--link Doctor to Update operation request--><g id="link_Doctor_Update operation request"><path d="M67.07,166.54 C84.39,158.56 106.76,148.56 127,140.5 C145.71,133.05 160.7522,127.5386 179.3222,121.0886 " fill="none" id="Doctor-to-Update operation request" style="stroke:#181818;stroke-width:1.0;"/><polygon fill="#181818" points="184.99,119.12,175.1758,118.2944,180.2668,120.7605,177.8007,125.8515,184.99,119.12" style="stroke:#181818;stroke-width:1.0;"/></g><!--link Doctor to Delete operation request--><g id="link_Doctor_Delete operation request"><path d="M67.09,180.5 C87.37,180.5 109.54,180.5 137.3,180.5 " fill="none" id="Doctor-to-Delete operation request" style="stroke:#181818;stroke-width:1.0;"/><polygon fill="#181818" points="143.3,180.5,134.3,176.5,138.3,180.5,134.3,184.5,143.3,180.5" style="stroke:#181818;stroke-width:1.0;"/></g><!--link Doctor to List/Search operation requests--><g id="link_Doctor_List/Search operation requests"><path d="M67.2,193.82 C84.56,201.51 106.93,211.26 127,219.5 C145.05,226.91 159.2602,232.5255 177.2202,239.4355 " fill="none" id="Doctor-to-List/Search operation requests" style="stroke:#181818;stroke-width:1.0;"/><polygon fill="#181818" points="182.82,241.59,175.8566,234.625,178.1535,239.7946,172.9839,242.0915,182.82,241.59" style="stroke:#181818;stroke-width:1.0;"/></g><!--link Admin to User--><g id="link_Admin_User"><path d="M38.55,1061.48 C42.5,941.52 59.81,580.71 127,488.5 C139.4,471.48 152.9345,461.8234 171.9045,453.3234 " fill="none" id="Admin-to-User" style="stroke:#181818;stroke-width:1.0;"/><polygon fill="#181818" points="177.38,450.87,167.5312,450.8998,172.8171,452.9145,170.8024,458.2004,177.38,450.87" style="stroke:#181818;stroke-width:1.0;"/></g><!--link Doctor to Staff--><g id="link_Doctor_Staff"><path d="M36.5,219.96 C36.5,247.37 36.5,268.78 36.5,296.19 " fill="none" id="Doctor-to-Staff" style="stroke:#181818;stroke-width:1.0;"/><polygon fill="#181818" points="36.5,302.19,40.5,293.19,36.5,297.19,32.5,293.19,36.5,302.19" style="stroke:#181818;stroke-width:1.0;"/></g><!--link Staff to User--><g id="link_Staff_User"><path d="M59.28,351.24 C87.27,363.76 131.6026,383.5808 171.9926,401.6408 " fill="none" id="Staff-to-User" style="stroke:#181818;stroke-width:1.0;"/><polygon fill="#181818" points="177.47,404.09,170.8867,396.7647,172.9055,402.049,167.6212,404.0679,177.47,404.09" style="stroke:#181818;stroke-width:1.0;"/></g><!--link Staff to View 3D model--><g id="link_Staff_View 3D model"><path d="M59.28,341.5 C85.53,341.5 124.96,341.5 163.83,341.5 " fill="none" id="Staff-to-View 3D model" style="stroke:#181818;stroke-width:1.0;"/><polygon fill="#181818" points="169.83,341.5,160.83,337.5,164.83,341.5,160.83,345.5,169.83,341.5" style="stroke:#181818;stroke-width:1.0;"/></g><!--link Admin to Register backoffice user--><g id="link_Admin_Register backoffice user"><path d="M40.96,1061.23 C49.93,968.04 76.79,737.11 127,680.5 C137.41,668.76 145.92,662.7398 160.64,656.9998 " fill="none" id="Admin-to-Register backoffice user" style="stroke:#181818;stroke-width:1.0;"/><polygon fill="#181818" points="166.23,654.82,156.3917,654.363,161.5716,656.6365,159.2982,661.8164,166.23,654.82" style="stroke:#181818;stroke-width:1.0;"/></g><!--link Admin to Create new patient profile--><g id="link_Admin_Create new patient profile"><path d="M36.59,1061.35 C37.14,991.73 48.34,845.72 127,760.5 C137.46,749.17 145.7455,743.2943 160.1755,737.4743 " fill="none" id="Admin-to-Create new patient profile" style="stroke:#181818;stroke-width:1.0;"/><polygon fill="#181818" points="165.74,735.23,155.8971,734.8868,161.103,737.1002,158.8895,742.3061,165.74,735.23" style="stroke:#181818;stroke-width:1.0;"/></g><!--link Admin to Edit patient profile--><g id="link_Admin_Edit patient profile"><path d="M39.86,1061.21 C45.42,1003.46 64.13,895.77 127,833.5 C140.01,820.61 151.8268,814.0214 169.2368,808.5414 " fill="none" id="Admin-to-Edit patient profile" style="stroke:#181818;stroke-width:1.0;"/><polygon fill="#181818" points="174.96,806.74,165.1743,805.6267,170.1907,808.2412,167.5762,813.2576,174.96,806.74" style="stroke:#181818;stroke-width:1.0;"/></g><!--link Admin to Delete patient profile--><g id="link_Admin_Delete patient profile"><path d="M45.91,1061.45 C57.18,1018.21 81.3,949.25 127,908.5 C140.16,896.77 151.3623,890.5506 168.0923,884.9306 " fill="none" id="Admin-to-Delete patient profile" style="stroke:#181818;stroke-width:1.0;"/><polygon fill="#181818" points="173.78,883.02,163.9748,882.0942,169.0403,884.6122,166.5222,889.6777,173.78,883.02" style="stroke:#181818;stroke-width:1.0;"/></g><!--link Admin to List/Search patient profiles--><g id="link_Admin_List/Search patient profiles"><path d="M57.56,1066.71 C73.62,1042.26 98.16,1010.03 127,989.5 C140.96,979.56 151.961,973.867 168.141,967.897 " fill="none" id="Admin-to-List/Search patient profiles" style="stroke:#181818;stroke-width:1.0;"/><polygon fill="#181818" points="173.77,965.82,163.9418,965.1828,169.0791,967.5508,166.7111,972.6882,173.77,965.82" style="stroke:#181818;stroke-width:1.0;"/></g><!--link Admin to Create new staff profile--><g id="link_Admin_Create new staff profile"><path d="M57.69,1092.61 C75.78,1085.59 103.08,1075.13 127,1066.5 C147.17,1059.22 163.7791,1053.4506 183.2591,1046.8306 " fill="none" id="Admin-to-Create new staff profile" style="stroke:#181818;stroke-width:1.0;"/><polygon fill="#181818" points="188.94,1044.9,179.1316,1044.0086,184.2059,1046.5088,181.7057,1051.5832,188.94,1044.9" style="stroke:#181818;stroke-width:1.0;"/></g><!--link Admin to Edit staff profile--><g id="link_Admin_Edit staff profile"><path d="M57.76,1100.5 C83.39,1100.5 122.95,1100.5 162.22,1100.5 " fill="none" id="Admin-to-Edit staff profile" style="stroke:#181818;stroke-width:1.0;"/><polygon fill="#181818" points="168.22,1100.5,159.22,1096.5,163.22,1100.5,159.22,1104.5,168.22,1100.5" style="stroke:#181818;stroke-width:1.0;"/></g><!--link Admin to Deactivate staff profile--><g id="link_Admin_Deactivate staff profile"><path d="M57.65,1108.72 C75.72,1116.01 103,1126.81 127,1135.5 C147.11,1142.78 163.6921,1148.4402 183.1821,1154.8702 " fill="none" id="Admin-to-Deactivate staff profile" style="stroke:#181818;stroke-width:1.0;"/><polygon fill="#181818" points="188.88,1156.75,181.5863,1150.1317,184.1317,1155.1835,179.0799,1157.7289,188.88,1156.75" style="stroke:#181818;stroke-width:1.0;"/></g><!--link Admin to List/Search staff profiles--><g id="link_Admin_List/Search staff profiles"><path d="M57.64,1134.68 C73.65,1159.16 98.11,1191.27 127,1211.5 C141.39,1221.58 152.9387,1227.2814 169.5887,1233.0314 " fill="none" id="Admin-to-List/Search staff profiles" style="stroke:#181818;stroke-width:1.0;"/><polygon fill="#181818" points="175.26,1234.99,168.0587,1228.2713,170.5339,1233.3579,165.4473,1235.833,175.26,1234.99" style="stroke:#181818;stroke-width:1.0;"/></g><!--link Admin to Create new operation type--><g id="link_Admin_Create new operation type"><path d="M46.46,1139.52 C58.13,1181.96 82.5,1249.12 127,1289.5 C138.92,1300.31 148.302,1306.135 163.442,1312.055 " fill="none" id="Admin-to-Create new operation type" style="stroke:#181818;stroke-width:1.0;"/><polygon fill="#181818" points="169.03,1314.24,162.1047,1307.2372,164.3733,1312.4192,159.1913,1314.6878,169.03,1314.24" style="stroke:#181818;stroke-width:1.0;"/></g><!--link Admin to Edit operation type--><g id="link_Admin_Edit operation type"><path d="M39.57,1139.94 C44.76,1198.51 62.99,1308.33 127,1371.5 C139.48,1383.82 150.4231,1390.1087 167.1531,1395.4387 " fill="none" id="Admin-to-Edit operation type" style="stroke:#181818;stroke-width:1.0;"/><polygon fill="#181818" points="172.87,1397.26,165.5089,1390.7167,168.1059,1395.7422,163.0805,1398.3392,172.87,1397.26" style="stroke:#181818;stroke-width:1.0;"/></g><!--link Admin to Delete operation type--><g id="link_Admin_Delete operation type"><path d="M42.88,1139.54 C54.71,1219.94 85.26,1400.21 127,1444.5 C138.2,1456.39 147.5947,1462.4556 163.0847,1467.9456 " fill="none" id="Admin-to-Delete operation type" style="stroke:#181818;stroke-width:1.0;"/><polygon fill="#181818" points="168.74,1469.95,161.5933,1463.1732,164.0272,1468.2797,158.9208,1470.7137,168.74,1469.95" style="stroke:#181818;stroke-width:1.0;"/></g><!--link Admin to List/Search operation types--><g id="link_Admin_List/Search operation types"><path d="M41.03,1139.63 C50.16,1232.49 77.33,1462.64 127,1519.5 C136.76,1530.67 144.2685,1536.4188 158.0285,1542.3388 " fill="none" id="Admin-to-List/Search operation types" style="stroke:#181818;stroke-width:1.0;"/><polygon fill="#181818" points="163.54,1544.71,156.8535,1537.4788,158.947,1542.734,153.6918,1544.8275,163.54,1544.71" style="stroke:#181818;stroke-width:1.0;"/></g><!--link Admin to Generate better scheduling--><g id="link_Admin_Generate better scheduling"><path d="M39.53,1139.71 C45.74,1245.12 67.79,1531.37 127,1601.5 C136.5,1612.75 143.8288,1618.5148 157.4488,1624.4448 " fill="none" id="Admin-to-Generate better scheduling" style="stroke:#181818;stroke-width:1.0;"/><polygon fill="#181818" points="162.95,1626.84,156.295,1619.5798,158.3657,1624.844,153.1014,1626.9147,162.95,1626.84" style="stroke:#181818;stroke-width:1.0;"/></g><!--SRC=[XPDDRzim38Rl_XM4BsqEQGwxxL30YvCYMDiK-TYTbMbRg2of4hrW_twouwPs4wSN0o8VaYzVoJSbi_K_PpEhK7DTgJjXgbdjQIemV3A9XSCgKfGpi04dYv8Xauu4IwEZQE_90Ng8VoNpt-lbSZLVm7wxsCHHQWIROovTptVh44goIkesagHFg-SuUa6MfBaDlIIxrU9v5qTRnZnlGzjTibp6tP3fz1vk7qq1KazwaGrvOh3e_S6uR1ATUWxuGN13XVGS6kH1Nqcek1Je2D1Q9GKsYtsfsDiCcS0STEWMggfBK4gA0eH2c5fpKD8vqCryhyap64kkA-wdFmPyPC4T-I7LJVY6UWpBpRQ4JfJdg0-wZjVGi8sDfzfxQ9tl_3-bU-VRFv8Ey2E5ocIa1fq-JNr5yMRoN0g2y8pSf0_D7JLhwj35TjPPPtAfQ80jCibNWSw8QqZVXI-S7zFasqr75OsdKyBmF_nj-en3VKK3QbJFv-tnFtj1q9NysLCv8ou_amORwdaWtIG9NecR-_MYfAnMKXUJw3y0]--></g></svg>