<?xml version="1.0" encoding="us-ascii" standalone="no"?><svg xmlns="http://www.w3.org/2000/svg" xmlns:xlink="http://www.w3.org/1999/xlink" contentStyleType="text/css" height="1605px" preserveAspectRatio="none" style="width:678px;height:1605px;background:#FFFFFF;" version="1.1" viewBox="0 0 678 1605" width="678px" zoomAndPan="magnify"><defs/><g><!--entity User--><g id="elem_User"><ellipse cx="243" cy="520.5" fill="#F1F1F1" rx="8" ry="8" style="stroke:#181818;stroke-width:0.5;"/><path d="M243,528.5 L243,555.5 M230,536.5 L256,536.5 M243,555.5 L230,570.5 M243,555.5 L256,570.5 " fill="none" style="stroke:#181818;stroke-width:0.5;"/><text fill="#000000" font-family="sans-serif" font-size="14" lengthAdjust="spacing" textLength="129" x="178.5" y="587.1074">BACKOFFICE USER</text></g><!--entity Doctor--><g id="elem_Doctor"><ellipse cx="36.5" cy="337.5" fill="#F1F1F1" rx="8" ry="8" style="stroke:#181818;stroke-width:0.5;"/><path d="M36.5,345.5 L36.5,372.5 M23.5,353.5 L49.5,353.5 M36.5,372.5 L23.5,387.5 M36.5,372.5 L49.5,387.5 " fill="none" style="stroke:#181818;stroke-width:0.5;"/><text fill="#000000" font-family="sans-serif" font-size="14" lengthAdjust="spacing" textLength="61" x="6" y="404.1074">DOCTOR</text></g><!--entity Admin--><g id="elem_Admin"><ellipse cx="36.5" cy="1044.5" fill="#F1F1F1" rx="8" ry="8" style="stroke:#181818;stroke-width:0.5;"/><path d="M36.5,1052.5 L36.5,1079.5 M23.5,1060.5 L49.5,1060.5 M36.5,1079.5 L23.5,1094.5 M36.5,1079.5 L49.5,1094.5 " fill="none" style="stroke:#181818;stroke-width:0.5;"/><text fill="#000000" font-family="sans-serif" font-size="14" lengthAdjust="spacing" textLength="42" x="15.5" y="1111.1074">ADMIN</text></g><!--entity Patient--><g id="elem_Patient"><ellipse cx="243" cy="86.5" fill="#F1F1F1" rx="8" ry="8" style="stroke:#181818;stroke-width:0.5;"/><path d="M243,94.5 L243,121.5 M230,102.5 L256,102.5 M243,121.5 L230,136.5 M243,121.5 L256,136.5 " fill="none" style="stroke:#181818;stroke-width:0.5;"/><text fill="#000000" font-family="sans-serif" font-size="14" lengthAdjust="spacing" textLength="57" x="214.5" y="153.1074">PATIENT</text></g><g id="elem_Log in"><ellipse cx="545.6532" cy="371.7002" fill="#F1F1F1" rx="39.1532" ry="16.2002" style="stroke:#181818;stroke-width:0.5;"/><text fill="#000000" font-family="sans-serif" font-size="14" lengthAdjust="spacing" textLength="39" x="524.3431" y="376.158">Log in</text></g><g id="elem_Reset password"><ellipse cx="545.32" cy="551.364" fill="#F1F1F1" rx="77.32" ry="17.864" style="stroke:#181818;stroke-width:0.5;"/><text fill="#000000" font-family="sans-serif" font-size="14" lengthAdjust="spacing" textLength="101" x="491.82" y="556.1677">Reset password</text></g><g id="elem_Register for healthcare application"><ellipse cx="545.6018" cy="33.7204" fill="#F1F1F1" rx="126.6018" ry="27.7204" style="stroke:#181818;stroke-width:0.5;"/><text fill="#000000" font-family="sans-serif" font-size="14" lengthAdjust="spacing" textLength="217" x="437.1018" y="37.5172">Register for healthcare application</text></g><g id="elem_Update own information"><ellipse cx="545.6884" cy="117.5377" fill="#F1F1F1" rx="95.6884" ry="21.5377" style="stroke:#181818;stroke-width:0.5;"/><text fill="#000000" font-family="sans-serif" font-size="14" lengthAdjust="spacing" textLength="148" x="469.2253" y="122.1811">Update own information</text></g><g id="elem_Delete account"><ellipse cx="545.6904" cy="191.4381" fill="#F1F1F1" rx="75.1904" ry="17.4381" style="stroke:#181818;stroke-width:0.5;"/><text fill="#000000" font-family="sans-serif" font-size="14" lengthAdjust="spacing" textLength="95" x="495.1904" y="196.2418">Delete account</text></g><g id="elem_Request operation"><ellipse cx="242.7712" cy="211.5542" fill="#F1F1F1" rx="83.2712" ry="19.0542" style="stroke:#181818;stroke-width:0.5;"/><text fill="#000000" font-family="sans-serif" font-size="14" lengthAdjust="spacing" textLength="117" x="181.2712" y="216.3579">Request operation</text></g><g id="elem_Update operation request"><ellipse cx="243.244" cy="288.6488" fill="#F1F1F1" rx="101.244" ry="22.6488" style="stroke:#181818;stroke-width:0.5;"/><text fill="#000000" font-family="sans-serif" font-size="14" lengthAdjust="spacing" textLength="161" x="161.9994" y="292.7223">Update operation request</text></g><g id="elem_Delete operation request"><ellipse cx="243.0098" cy="368.302" fill="#F1F1F1" rx="99.5098" ry="22.302" style="stroke:#181818;stroke-width:0.5;"/><text fill="#000000" font-family="sans-serif" font-size="14" lengthAdjust="spacing" textLength="157" x="163.2577" y="372.5534">Delete operation request</text></g><g id="elem_List/Search operation requests"><ellipse cx="243.0317" cy="451.6063" fill="#F1F1F1" rx="116.0317" ry="25.6063" style="stroke:#181818;stroke-width:0.5;"/><text fill="#000000" font-family="sans-serif" font-size="14" lengthAdjust="spacing" textLength="194" x="146.0317" y="455.4032">List/Search operation requests</text></g><g id="elem_Register backoffice user"><ellipse cx="242.7971" cy="648.4594" fill="#F1F1F1" rx="97.7971" ry="21.9594" style="stroke:#181818;stroke-width:0.5;"/><text fill="#000000" font-family="sans-serif" font-size="14" lengthAdjust="spacing" textLength="153" x="164.519" y="652.8865">Register backoffice user</text></g><g id="elem_Create new patient profile"><ellipse cx="243.1807" cy="728.7361" fill="#F1F1F1" rx="101.6807" ry="22.7361" style="stroke:#181818;stroke-width:0.5;"/><text fill="#000000" font-family="sans-serif" font-size="14" lengthAdjust="spacing" textLength="162" x="161.5603" y="732.7649">Create new patient profile</text></g><g id="elem_Edit patient profile"><ellipse cx="243.1278" cy="805.3256" fill="#F1F1F1" rx="82.1278" ry="18.8256" style="stroke:#181818;stroke-width:0.5;"/><text fill="#000000" font-family="sans-serif" font-size="14" lengthAdjust="spacing" textLength="114" x="183.1278" y="810.1293">Edit patient profile</text></g><g id="elem_Delete patient profile"><ellipse cx="242.7523" cy="879.6505" fill="#F1F1F1" rx="88.7523" ry="20.1505" style="stroke:#181818;stroke-width:0.5;"/><text fill="#000000" font-family="sans-serif" font-size="14" lengthAdjust="spacing" textLength="131" x="174.2523" y="884.4542">Delete patient profile</text></g><g id="elem_List/Search patient profiles"><ellipse cx="242.827" cy="958.2654" fill="#F1F1F1" rx="104.327" ry="23.2654" style="stroke:#181818;stroke-width:0.5;"/><text fill="#000000" font-family="sans-serif" font-size="14" lengthAdjust="spacing" textLength="168" x="158.827" y="962.0623">List/Search patient profiles</text></g><g id="elem_Create new staff profile"><ellipse cx="242.8554" cy="1038.3711" fill="#F1F1F1" rx="94.8554" ry="21.3711" style="stroke:#181818;stroke-width:0.5;"/><text fill="#000000" font-family="sans-serif" font-size="14" lengthAdjust="spacing" textLength="146" x="167.1093" y="1043.1">Create new staff profile</text></g><g id="elem_Edit staff profile"><ellipse cx="243.2476" cy="1112.6495" fill="#F1F1F1" rx="76.2476" ry="17.6495" style="stroke:#181818;stroke-width:0.5;"/><text fill="#000000" font-family="sans-serif" font-size="14" lengthAdjust="spacing" textLength="98" x="191.2476" y="1117.4532">Edit staff profile</text></g><g id="elem_Deactivate staff profile"><ellipse cx="242.7968" cy="1186.4594" fill="#F1F1F1" rx="92.7968" ry="20.9594" style="stroke:#181818;stroke-width:0.5;"/><text fill="#000000" font-family="sans-serif" font-size="14" lengthAdjust="spacing" textLength="141" x="169.2968" y="1191.2631">Deactivate staff profile</text></g><g id="elem_List/Search staff profiles"><ellipse cx="242.8725" cy="1264.3745" fill="#F1F1F1" rx="97.3725" ry="21.8745" style="stroke:#181818;stroke-width:0.5;"/><text fill="#000000" font-family="sans-serif" font-size="14" lengthAdjust="spacing" textLength="152" x="164.9599" y="1268.8452">List/Search staff profiles</text></g><g id="elem_Create new operation type"><ellipse cx="242.8831" cy="1344.6766" fill="#F1F1F1" rx="103.8831" ry="23.1766" style="stroke:#181818;stroke-width:0.5;"/><text fill="#000000" font-family="sans-serif" font-size="14" lengthAdjust="spacing" textLength="167" x="159.3675" y="1348.4795">Create new operation type</text></g><g id="elem_Edit operation type"><ellipse cx="243.0399" cy="1421.708" fill="#F1F1F1" rx="84.0399" ry="19.208" style="stroke:#181818;stroke-width:0.5;"/><text fill="#000000" font-family="sans-serif" font-size="14" lengthAdjust="spacing" textLength="119" x="180.5399" y="1426.5117">Edit operation type</text></g><g id="elem_Delete operation type"><ellipse cx="242.7622" cy="1496.5524" fill="#F1F1F1" rx="90.7622" ry="20.5524" style="stroke:#181818;stroke-width:0.5;"/><text fill="#000000" font-family="sans-serif" font-size="14" lengthAdjust="spacing" textLength="136" x="171.7622" y="1501.3562">Delete operation type</text></g><g id="elem_List/Search operation types"><ellipse cx="243.0539" cy="1575.7108" fill="#F1F1F1" rx="106.5539" ry="23.7108" style="stroke:#181818;stroke-width:0.5;"/><text fill="#000000" font-family="sans-serif" font-size="14" lengthAdjust="spacing" textLength="173" x="156.5539" y="1579.5077">List/Search operation types</text></g><!--link User to Log in--><g id="link_User_Log in"><path d="M307.72,521.69 C324.61,513.31 342.69,503.9 359,494.5 C421.94,458.23 487.6009,412.382 520.6309,388.742 " fill="none" id="User-to-Log in" style="stroke:#181818;stroke-width:1.0;"/><polygon fill="#181818" points="525.51,385.25,515.8633,387.2353,521.4441,388.16,520.5194,393.7408,525.51,385.25" style="stroke:#181818;stroke-width:1.0;"/></g><!--link User to Reset password--><g id="link_User_Reset password"><path d="M307.73,551.5 C354.5,551.5 412.25,551.5 461.81,551.5 " fill="none" id="User-to-Reset password" style="stroke:#181818;stroke-width:1.0;"/><polygon fill="#181818" points="467.81,551.5,458.81,547.5,462.81,551.5,458.81,555.5,467.81,551.5" style="stroke:#181818;stroke-width:1.0;"/></g><!--link Patient to Log in--><g id="link_Patient_Log in"><path d="M271.57,127.9 C295.88,137.8 331.61,154.2 359,174.5 C398.25,203.59 492.2588,310.9186 527.5988,351.8486 " fill="none" id="Patient-to-Log in" style="stroke:#181818;stroke-width:1.0;"/><polygon fill="#181818" points="531.52,356.39,528.6659,346.9638,528.2524,352.6055,522.6106,352.192,531.52,356.39" style="stroke:#181818;stroke-width:1.0;"/></g><!--link Patient to Register for healthcare application--><g id="link_Patient_Register for healthcare application"><path d="M271.73,109.75 C315.68,97.46 397.1416,74.6956 461.1616,56.7956 " fill="none" id="Patient-to-Register for healthcare application" style="stroke:#181818;stroke-width:1.0;"/><polygon fill="#181818" points="466.94,55.18,457.1953,53.7512,462.1247,56.5264,459.3495,61.4557,466.94,55.18" style="stroke:#181818;stroke-width:1.0;"/></g><!--link Patient to Update own information--><g id="link_Patient_Update own information"><path d="M271.73,117.5 C311.91,117.5 382.24,117.5 443.96,117.5 " fill="none" id="Patient-to-Update own information" style="stroke:#181818;stroke-width:1.0;"/><polygon fill="#181818" points="449.96,117.5,440.96,113.5,444.96,117.5,440.96,121.5,449.96,117.5" style="stroke:#181818;stroke-width:1.0;"/></g><!--link Patient to Delete account--><g id="link_Patient_Delete account"><path d="M271.73,124.33 C322.08,136.73 423.3841,161.6751 487.3741,177.4351 " fill="none" id="Patient-to-Delete account" style="stroke:#181818;stroke-width:1.0;"/><polygon fill="#181818" points="493.2,178.87,485.4177,172.8338,488.3451,177.6743,483.5046,180.6017,493.2,178.87" style="stroke:#181818;stroke-width:1.0;"/></g><!--link Doctor to Request operation--><g id="link_Doctor_Request operation"><path d="M58.42,328.81 C74.09,302.6 97.82,269.36 127,248.5 C142.53,237.4 155.8147,231.2825 173.8747,225.7325 " fill="none" id="Doctor-to-Request operation" style="stroke:#181818;stroke-width:1.0;"/><polygon fill="#181818" points="179.61,223.97,169.8321,222.7902,174.8306,225.4388,172.1821,230.4373,179.61,223.97" style="stroke:#181818;stroke-width:1.0;"/></g><!--link Doctor to Update operation request--><g id="link_Doctor_Update operation request"><path d="M67.06,354.52 C84.37,346.53 106.75,336.53 127,328.5 C145.86,321.02 161.0757,315.47 179.8157,309.03 " fill="none" id="Doctor-to-Update operation request" style="stroke:#181818;stroke-width:1.0;"/><polygon fill="#181818" points="185.49,307.08,175.6786,306.2221,180.7614,308.705,178.2785,313.7878,185.49,307.08" style="stroke:#181818;stroke-width:1.0;"/></g><!--link Doctor to Delete operation request--><g id="link_Doctor_Delete operation request"><path d="M67.24,368.5 C87.51,368.5 109.62,368.5 137.37,368.5 " fill="none" id="Doctor-to-Delete operation request" style="stroke:#181818;stroke-width:1.0;"/><polygon fill="#181818" points="143.37,368.5,134.37,364.5,138.37,368.5,134.37,372.5,143.37,368.5" style="stroke:#181818;stroke-width:1.0;"/></g><!--link Doctor to List/Search operation requests--><g id="link_Doctor_List/Search operation requests"><path d="M67.13,382.3 C84.47,390.24 106.84,400.24 127,408.5 C144.65,415.74 158.3984,421.073 176.1184,427.683 " fill="none" id="Doctor-to-List/Search operation requests" style="stroke:#181818;stroke-width:1.0;"/><polygon fill="#181818" points="181.74,429.78,174.7056,422.8868,177.0553,428.0325,171.9096,430.3822,181.74,429.78" style="stroke:#181818;stroke-width:1.0;"/></g><!--link Doctor to User--><g id="link_Doctor_User"><path d="M58.72,408.22 C74.69,435.22 98.64,470.28 127,494.5 C142.08,507.38 155.1863,515.5617 172.8963,524.1917 " fill="none" id="Doctor-to-User" style="stroke:#181818;stroke-width:1.0;"/><polygon fill="#181818" points="178.29,526.82,171.9517,519.2817,173.7953,524.6297,168.4472,526.4733,178.29,526.82" style="stroke:#181818;stroke-width:1.0;"/></g><!--link Admin to User--><g id="link_Admin_User"><path d="M40.61,1035.67 C49.14,935.44 75.73,675.94 127,608.5 C139.88,591.56 153.6882,581.8137 172.7982,573.1237 " fill="none" id="Admin-to-User" style="stroke:#181818;stroke-width:1.0;"/><polygon fill="#181818" points="178.26,570.64,168.4115,570.7243,173.7085,572.7097,171.7231,578.0067,178.26,570.64" style="stroke:#181818;stroke-width:1.0;"/></g><!--link Admin to Register backoffice user--><g id="link_Admin_Register backoffice user"><path d="M41.82,1035.74 C52.14,947.67 80.87,739.88 127,688.5 C137.66,676.63 146.4554,670.4736 161.4254,664.5936 " fill="none" id="Admin-to-Register backoffice user" style="stroke:#181818;stroke-width:1.0;"/><polygon fill="#181818" points="167.01,662.4,157.1707,661.9673,162.3561,664.228,160.0954,669.4134,167.01,662.4" style="stroke:#181818;stroke-width:1.0;"/></g><!--link Admin to Create new patient profile--><g id="link_Admin_Create new patient profile"><path d="M37.96,1035.98 C40.85,971.5 55.87,843.36 127,768.5 C137.7,757.24 146.1668,751.3624 160.7368,745.5524 " fill="none" id="Admin-to-Create new patient profile" style="stroke:#181818;stroke-width:1.0;"/><polygon fill="#181818" points="166.31,743.33,156.4685,742.9481,161.6656,745.182,159.4318,750.3791,166.31,743.33" style="stroke:#181818;stroke-width:1.0;"/></g><!--link Admin to Edit patient profile--><g id="link_Admin_Edit patient profile"><path d="M42.05,1035.7 C50.08,983.84 71.54,893.63 127,841.5 C139.96,829.32 151.2657,823.0579 168.2357,817.7279 " fill="none" id="Admin-to-Edit patient profile" style="stroke:#181818;stroke-width:1.0;"/><polygon fill="#181818" points="173.96,815.93,164.175,814.8107,169.1898,817.4283,166.5722,822.4431,173.96,815.93" style="stroke:#181818;stroke-width:1.0;"/></g><!--link Admin to Delete patient profile--><g id="link_Admin_Delete patient profile"><path d="M50.53,1035.95 C64.23,1000.22 89.11,948.6 127,917.5 C140.82,906.16 152.4339,900.0453 169.4139,894.4253 " fill="none" id="Admin-to-Delete patient profile" style="stroke:#181818;stroke-width:1.0;"/><polygon fill="#181818" points="175.11,892.54,165.309,891.5705,170.3632,894.1111,167.8227,899.1653,175.11,892.54" style="stroke:#181818;stroke-width:1.0;"/></g><!--link Admin to List/Search patient profiles--><g id="link_Admin_List/Search patient profiles"><path d="M57.55,1054.72 C74.69,1037.93 100.69,1014.68 127,999.5 C142.61,990.5 154.8791,984.9668 171.8591,978.9068 " fill="none" id="Admin-to-List/Search patient profiles" style="stroke:#181818;stroke-width:1.0;"/><polygon fill="#181818" points="177.51,976.89,167.6891,976.1479,172.8009,978.5706,170.3781,983.6824,177.51,976.89" style="stroke:#181818;stroke-width:1.0;"/></g><!--link Admin to Create new staff profile--><g id="link_Admin_Create new staff profile"><path d="M57.86,1071.82 C83.52,1067.17 123.1358,1060.008 162.4958,1052.888 " fill="none" id="Admin-to-Create new staff profile" style="stroke:#181818;stroke-width:1.0;"/><polygon fill="#181818" points="168.4,1051.82,158.8317,1049.4859,163.4799,1052.71,160.2558,1057.3582,168.4,1051.82" style="stroke:#181818;stroke-width:1.0;"/></g><!--link Admin to Edit staff profile--><g id="link_Admin_Edit staff profile"><path d="M57.86,1079.18 C86.65,1084.39 134.5357,1093.0629 176.5857,1100.6629 " fill="none" id="Admin-to-Edit staff profile" style="stroke:#181818;stroke-width:1.0;"/><polygon fill="#181818" points="182.49,1101.73,174.3449,1096.1931,177.5697,1100.8407,172.9221,1104.0655,182.49,1101.73" style="stroke:#181818;stroke-width:1.0;"/></g><!--link Admin to Deactivate staff profile--><g id="link_Admin_Deactivate staff profile"><path d="M57.69,1095.22 C74.91,1111.15 100.96,1133.2 127,1147.5 C144.09,1156.89 158.1498,1162.707 176.4098,1168.707 " fill="none" id="Admin-to-Deactivate staff profile" style="stroke:#181818;stroke-width:1.0;"/><polygon fill="#181818" points="182.11,1170.58,174.8084,1163.9704,177.3599,1169.0192,172.3111,1171.5706,182.11,1170.58" style="stroke:#181818;stroke-width:1.0;"/></g><!--link Admin to List/Search staff profiles--><g id="link_Admin_List/Search staff profiles"><path d="M52.33,1115.3 C66.69,1148.78 91.52,1195.67 127,1224.5 C140.29,1235.3 151.0367,1241.2321 167.2367,1247.0821 " fill="none" id="Admin-to-List/Search staff profiles" style="stroke:#181818;stroke-width:1.0;"/><polygon fill="#181818" points="172.88,1249.12,165.7736,1242.301,168.1772,1247.4218,163.0564,1249.8254,172.88,1249.12" style="stroke:#181818;stroke-width:1.0;"/></g><!--link Admin to Create new operation type--><g id="link_Admin_Create new operation type"><path d="M42.89,1115.28 C51.74,1165.68 74.01,1252.16 127,1303.5 C138.34,1314.49 147.2476,1320.3255 162.0776,1326.2455 " fill="none" id="Admin-to-Create new operation type" style="stroke:#181818;stroke-width:1.0;"/><polygon fill="#181818" points="167.65,1328.47,160.7744,1321.4184,163.0063,1326.6163,157.8084,1328.8483,167.65,1328.47" style="stroke:#181818;stroke-width:1.0;"/></g><!--link Admin to Edit operation type--><g id="link_Admin_Edit operation type"><path d="M37.67,1115.2 C40.14,1180.28 54.53,1309.87 127,1384.5 C139.27,1397.14 150.1668,1403.6063 166.9368,1409.0863 " fill="none" id="Admin-to-Edit operation type" style="stroke:#181818;stroke-width:1.0;"/><polygon fill="#181818" points="172.64,1410.95,165.3276,1404.3524,167.8873,1409.3969,162.8427,1411.9567,172.64,1410.95" style="stroke:#181818;stroke-width:1.0;"/></g><!--link Admin to Delete operation type--><g id="link_Admin_Delete operation type"><path d="M41.9,1115.1 C52.35,1202.28 81.22,1407.06 127,1457.5 C138.33,1469.99 148.1791,1476.4355 164.0991,1482.2055 " fill="none" id="Admin-to-Delete operation type" style="stroke:#181818;stroke-width:1.0;"/><polygon fill="#181818" points="169.74,1484.25,162.6416,1477.4227,165.0392,1482.5463,159.9156,1484.9439,169.74,1484.25" style="stroke:#181818;stroke-width:1.0;"/></g><!--link Admin to List/Search operation types--><g id="link_Admin_List/Search operation types"><path d="M40.25,1115.02 C47.92,1214.4 72.66,1471.34 127,1534.5 C136.68,1545.75 144.1485,1551.5388 157.9085,1557.4588 " fill="none" id="Admin-to-List/Search operation types" style="stroke:#181818;stroke-width:1.0;"/><polygon fill="#181818" points="163.42,1559.83,156.7335,1552.5988,158.827,1557.854,153.5718,1559.9475,163.42,1559.83" style="stroke:#181818;stroke-width:1.0;"/></g><!--SRC=[XPBDReCm3CVlF4N4PUFGSTzX4WCgLUlQgXyFu0K3qI394hDgRx_GqXRMqbqYnVxP_llZeIJIzZaCTGMIchfwugeE6uiJ3kx911G6Qg_2d1WfPaHH4ik4GKv2IS_RMJGCBFDVe_XjEPtEufJjDkdQznB5IHrzoJBUBfqfoceX3vOeUPyjV6y5953ImRIAjhDqiVMxd9F92tkSgu896VGiQxH8J8ErUsMom3kd6F03uneBOSabo9sS4g6YaeD11bfNWaFRnv-8dSw0aAczTDbSL7qBIh121m7dgf7ab7GDTpM_6hJ4b4RJ1VVTfm8dBpD7VaXr5VwXvgwvS8DWU7cDsg6kTexT5ixVtlyogW_WdohF1KVcRi44VIWss8gNk7TxE0v46vMB2WTOcWcw2tJjtKFwlVtXx9WcIv3duuh6tGc2E-hlDiyur5Sqe4RrN7P2F_g6e3l-gmEu8cullyLiy0i0]--></g></svg>