<?xml version="1.0" encoding="us-ascii" standalone="no"?><svg xmlns="http://www.w3.org/2000/svg" xmlns:xlink="http://www.w3.org/1999/xlink" contentStyleType="text/css" height="248px" preserveAspectRatio="none" style="width:629px;height:248px;background:#FFFFFF;" version="1.1" viewBox="0 0 629 248" width="629px" zoomAndPan="magnify"><defs/><g><!--cluster UserAggregate--><g id="cluster_UserAggregate"><path d="M8.5,6.0137 L115.5,6.0137 A3.75,3.75 0 0 1 118,8.5137 L125,30.6348 L619.5,30.6348 A2.5,2.5 0 0 1 622,33.1348 L622,238.5137 A2.5,2.5 0 0 1 619.5,241.0137 L8.5,241.0137 A2.5,2.5 0 0 1 6,238.5137 L6,8.5137 A2.5,2.5 0 0 1 8.5,6.0137 " fill="none" style="stroke:#000000;stroke-width:1.5;"/><line style="stroke:#000000;stroke-width:1.5;" x1="6" x2="125" y1="30.6348" y2="30.6348"/><text fill="#000000" font-family="sans-serif" font-size="14" font-weight="bold" lengthAdjust="spacing" textLength="106" x="10" y="23.1211">UserAggregate</text></g><!--class User--><g id="elem_User"><rect codeLine="3" fill="#F1F1F1" height="60.582" id="User" rx="2.5" ry="2.5" style="stroke:#181818;stroke-width:0.5;" width="101" x="260.5" y="164.0137"/><ellipse cx="275.5" cy="186.3047" fill="#0000FF" rx="11" ry="11" style="stroke:#181818;stroke-width:1.0;"/><path d="M276.0938,189.5703 L278.5625,183.6953 L278.1719,183.6953 Q277.5625,183.6953 277.2969,183.4609 Q277.0313,183.2266 277.0313,182.8359 Q277.0313,182.4609 277.2969,182.2266 Q277.5625,181.9922 278.1719,181.9922 L280.4531,181.9922 Q281.0625,181.9922 281.3281,182.2266 Q281.5938,182.4609 281.5938,182.8359 Q281.5938,183.3047 281.1875,183.5703 Q281,183.6953 280.4063,183.6953 L276.9219,192.0547 L275.2813,192.0547 L271.7969,183.6953 Q271.2031,183.6953 271.0156,183.5703 Q270.6094,183.3047 270.6094,182.8359 Q270.6094,182.4609 270.875,182.2266 Q271.1406,181.9922 271.75,181.9922 L274.0469,181.9922 Q274.6563,181.9922 274.9063,182.2266 Q275.1719,182.4609 275.1719,182.8359 Q275.1719,183.2266 274.9063,183.4609 Q274.6563,183.6953 274.0469,183.6953 L273.6406,183.6953 L276.0938,189.5703 Z " fill="#000000"/><text fill="#000000" font-family="sans-serif" font-size="12" font-style="italic" lengthAdjust="spacing" textLength="73" x="287.5" y="181.9629">&#171;Root Entity&#187;</text><text fill="#000000" font-family="sans-serif" font-size="14" lengthAdjust="spacing" textLength="29" x="309.5" y="200.082">User</text><line style="stroke:#181818;stroke-width:0.5;" x1="261.5" x2="360.5" y1="208.5957" y2="208.5957"/><line style="stroke:#181818;stroke-width:0.5;" x1="261.5" x2="360.5" y1="216.5957" y2="216.5957"/></g><!--class ActivationStatus--><g id="elem_ActivationStatus"><rect codeLine="5" fill="#F1F1F1" height="60.582" id="ActivationStatus" rx="2.5" ry="2.5" style="stroke:#181818;stroke-width:0.5;" width="133" x="92.5" y="164.0137"/><ellipse cx="107.5" cy="186.3047" fill="#F04800" rx="11" ry="11" style="stroke:#181818;stroke-width:1.0;"/><path d="M108.0938,189.5703 L110.5625,183.6953 L110.1719,183.6953 Q109.5625,183.6953 109.2969,183.4609 Q109.0313,183.2266 109.0313,182.8359 Q109.0313,182.4609 109.2969,182.2266 Q109.5625,181.9922 110.1719,181.9922 L112.4531,181.9922 Q113.0625,181.9922 113.3281,182.2266 Q113.5938,182.4609 113.5938,182.8359 Q113.5938,183.3047 113.1875,183.5703 Q113,183.6953 112.4063,183.6953 L108.9219,192.0547 L107.2813,192.0547 L103.7969,183.6953 Q103.2031,183.6953 103.0156,183.5703 Q102.6094,183.3047 102.6094,182.8359 Q102.6094,182.4609 102.875,182.2266 Q103.1406,181.9922 103.75,181.9922 L106.0469,181.9922 Q106.6563,181.9922 106.9063,182.2266 Q107.1719,182.4609 107.1719,182.8359 Q107.1719,183.2266 106.9063,183.4609 Q106.6563,183.6953 106.0469,183.6953 L105.6406,183.6953 L108.0938,189.5703 Z " fill="#000000"/><text fill="#000000" font-family="sans-serif" font-size="12" font-style="italic" lengthAdjust="spacing" textLength="85" x="129.5" y="181.9629">&#171;Value Object&#187;</text><text fill="#000000" font-family="sans-serif" font-size="14" lengthAdjust="spacing" textLength="101" x="121.5" y="200.082">ActivationStatus</text><line style="stroke:#181818;stroke-width:0.5;" x1="93.5" x2="224.5" y1="208.5957" y2="208.5957"/><line style="stroke:#181818;stroke-width:0.5;" x1="93.5" x2="224.5" y1="216.5957" y2="216.5957"/></g><!--class Username--><g id="elem_Username"><rect codeLine="6" fill="#F1F1F1" height="60.582" id="Username" rx="2.5" ry="2.5" style="stroke:#181818;stroke-width:0.5;" width="133" x="472.5" y="43.0137"/><ellipse cx="487.5" cy="65.3047" fill="#F09800" rx="11" ry="11" style="stroke:#181818;stroke-width:1.0;"/><path d="M488.0938,68.5703 L490.5625,62.6953 L490.1719,62.6953 Q489.5625,62.6953 489.2969,62.4609 Q489.0313,62.2266 489.0313,61.8359 Q489.0313,61.4609 489.2969,61.2266 Q489.5625,60.9922 490.1719,60.9922 L492.4531,60.9922 Q493.0625,60.9922 493.3281,61.2266 Q493.5938,61.4609 493.5938,61.8359 Q493.5938,62.3047 493.1875,62.5703 Q493,62.6953 492.4063,62.6953 L488.9219,71.0547 L487.2813,71.0547 L483.7969,62.6953 Q483.2031,62.6953 483.0156,62.5703 Q482.6094,62.3047 482.6094,61.8359 Q482.6094,61.4609 482.875,61.2266 Q483.1406,60.9922 483.75,60.9922 L486.0469,60.9922 Q486.6563,60.9922 486.9063,61.2266 Q487.1719,61.4609 487.1719,61.8359 Q487.1719,62.2266 486.9063,62.4609 Q486.6563,62.6953 486.0469,62.6953 L485.6406,62.6953 L488.0938,68.5703 Z " fill="#000000"/><text fill="#000000" font-family="sans-serif" font-size="12" font-style="italic" lengthAdjust="spacing" textLength="105" x="499.5" y="60.9629">&#171;Unique Identifier&#187;</text><text fill="#000000" font-family="sans-serif" font-size="14" lengthAdjust="spacing" textLength="64" x="520" y="79.082">Username</text><line style="stroke:#181818;stroke-width:0.5;" x1="473.5" x2="604.5" y1="87.5957" y2="87.5957"/><line style="stroke:#181818;stroke-width:0.5;" x1="473.5" x2="604.5" y1="95.5957" y2="95.5957"/></g><!--class UserRole--><g id="elem_UserRole"><rect codeLine="7" fill="#F1F1F1" height="60.582" id="UserRole" rx="2.5" ry="2.5" style="stroke:#181818;stroke-width:0.5;" width="113" x="324.5" y="43.0137"/><ellipse cx="339.5" cy="65.3047" fill="#F04800" rx="11" ry="11" style="stroke:#181818;stroke-width:1.0;"/><path d="M340.0938,68.5703 L342.5625,62.6953 L342.1719,62.6953 Q341.5625,62.6953 341.2969,62.4609 Q341.0313,62.2266 341.0313,61.8359 Q341.0313,61.4609 341.2969,61.2266 Q341.5625,60.9922 342.1719,60.9922 L344.4531,60.9922 Q345.0625,60.9922 345.3281,61.2266 Q345.5938,61.4609 345.5938,61.8359 Q345.5938,62.3047 345.1875,62.5703 Q345,62.6953 344.4063,62.6953 L340.9219,71.0547 L339.2813,71.0547 L335.7969,62.6953 Q335.2031,62.6953 335.0156,62.5703 Q334.6094,62.3047 334.6094,61.8359 Q334.6094,61.4609 334.875,61.2266 Q335.1406,60.9922 335.75,60.9922 L338.0469,60.9922 Q338.6563,60.9922 338.9063,61.2266 Q339.1719,61.4609 339.1719,61.8359 Q339.1719,62.2266 338.9063,62.4609 Q338.6563,62.6953 338.0469,62.6953 L337.6406,62.6953 L340.0938,68.5703 Z " fill="#000000"/><text fill="#000000" font-family="sans-serif" font-size="12" font-style="italic" lengthAdjust="spacing" textLength="85" x="351.5" y="60.9629">&#171;Value Object&#187;</text><text fill="#000000" font-family="sans-serif" font-size="14" lengthAdjust="spacing" textLength="58" x="365" y="79.082">UserRole</text><line style="stroke:#181818;stroke-width:0.5;" x1="325.5" x2="436.5" y1="87.5957" y2="87.5957"/><line style="stroke:#181818;stroke-width:0.5;" x1="325.5" x2="436.5" y1="95.5957" y2="95.5957"/></g><!--class EmailAddress--><g id="elem_EmailAddress"><rect codeLine="8" fill="#F1F1F1" height="60.582" id="EmailAddress" rx="2.5" ry="2.5" style="stroke:#181818;stroke-width:0.5;" width="118" x="171" y="43.0137"/><ellipse cx="186" cy="65.3047" fill="#F04800" rx="11" ry="11" style="stroke:#181818;stroke-width:1.0;"/><path d="M186.5938,68.5703 L189.0625,62.6953 L188.6719,62.6953 Q188.0625,62.6953 187.7969,62.4609 Q187.5313,62.2266 187.5313,61.8359 Q187.5313,61.4609 187.7969,61.2266 Q188.0625,60.9922 188.6719,60.9922 L190.9531,60.9922 Q191.5625,60.9922 191.8281,61.2266 Q192.0938,61.4609 192.0938,61.8359 Q192.0938,62.3047 191.6875,62.5703 Q191.5,62.6953 190.9063,62.6953 L187.4219,71.0547 L185.7813,71.0547 L182.2969,62.6953 Q181.7031,62.6953 181.5156,62.5703 Q181.1094,62.3047 181.1094,61.8359 Q181.1094,61.4609 181.375,61.2266 Q181.6406,60.9922 182.25,60.9922 L184.5469,60.9922 Q185.1563,60.9922 185.4063,61.2266 Q185.6719,61.4609 185.6719,61.8359 Q185.6719,62.2266 185.4063,62.4609 Q185.1563,62.6953 184.5469,62.6953 L184.1406,62.6953 L186.5938,68.5703 Z " fill="#000000"/><text fill="#000000" font-family="sans-serif" font-size="12" font-style="italic" lengthAdjust="spacing" textLength="85" x="200.5" y="60.9629">&#171;Value Object&#187;</text><text fill="#000000" font-family="sans-serif" font-size="14" lengthAdjust="spacing" textLength="86" x="200" y="79.082">EmailAddress</text><line style="stroke:#181818;stroke-width:0.5;" x1="172" x2="288" y1="87.5957" y2="87.5957"/><line style="stroke:#181818;stroke-width:0.5;" x1="172" x2="288" y1="95.5957" y2="95.5957"/></g><!--class Password--><g id="elem_Password"><rect codeLine="9" fill="#F1F1F1" height="60.582" id="Password" rx="2.5" ry="2.5" style="stroke:#181818;stroke-width:0.5;" width="113" x="22.5" y="43.0137"/><ellipse cx="37.5" cy="65.3047" fill="#F04800" rx="11" ry="11" style="stroke:#181818;stroke-width:1.0;"/><path d="M38.0938,68.5703 L40.5625,62.6953 L40.1719,62.6953 Q39.5625,62.6953 39.2969,62.4609 Q39.0313,62.2266 39.0313,61.8359 Q39.0313,61.4609 39.2969,61.2266 Q39.5625,60.9922 40.1719,60.9922 L42.4531,60.9922 Q43.0625,60.9922 43.3281,61.2266 Q43.5938,61.4609 43.5938,61.8359 Q43.5938,62.3047 43.1875,62.5703 Q43,62.6953 42.4063,62.6953 L38.9219,71.0547 L37.2813,71.0547 L33.7969,62.6953 Q33.2031,62.6953 33.0156,62.5703 Q32.6094,62.3047 32.6094,61.8359 Q32.6094,61.4609 32.875,61.2266 Q33.1406,60.9922 33.75,60.9922 L36.0469,60.9922 Q36.6563,60.9922 36.9063,61.2266 Q37.1719,61.4609 37.1719,61.8359 Q37.1719,62.2266 36.9063,62.4609 Q36.6563,62.6953 36.0469,62.6953 L35.6406,62.6953 L38.0938,68.5703 Z " fill="#000000"/><text fill="#000000" font-family="sans-serif" font-size="12" font-style="italic" lengthAdjust="spacing" textLength="85" x="49.5" y="60.9629">&#171;Value Object&#187;</text><text fill="#000000" font-family="sans-serif" font-size="14" lengthAdjust="spacing" textLength="61" x="61.5" y="79.082">Password</text><line style="stroke:#181818;stroke-width:0.5;" x1="23.5" x2="134.5" y1="87.5957" y2="87.5957"/><line style="stroke:#181818;stroke-width:0.5;" x1="23.5" x2="134.5" y1="95.5957" y2="95.5957"/></g><!--link ActivationStatus to User--><g id="link_ActivationStatus_User"><path codeLine="11" d="M225.8,194.5137 C237.33,194.5137 236.87,194.5137 248.41,194.5137 " fill="none" id="ActivationStatus-to-User" style="stroke:#181818;stroke-width:1.0;"/><polygon fill="#181818" points="260.41,194.5137,254.41,190.5137,248.41,194.5137,254.41,198.5137,260.41,194.5137" style="stroke:#181818;stroke-width:1.0;"/><text fill="#000000" font-family="sans-serif" font-size="13" lengthAdjust="spacing" textLength="7" x="233.4891" y="190.6511">1</text><text fill="#000000" font-family="sans-serif" font-size="13" lengthAdjust="spacing" textLength="7" x="245.4655" y="190.3456">1</text></g><!--link Username to User--><g id="link_Username_User"><path codeLine="13" d="M482.35,104.0837 C445.29,123.4237 407.9275,142.9199 372.1675,161.5899 " fill="none" id="Username-to-User" style="stroke:#181818;stroke-width:1.0;"/><polygon fill="#181818" points="361.53,167.1437,368.7,167.9126,372.1675,161.5899,364.9975,160.821,361.53,167.1437" style="stroke:#181818;stroke-width:1.0;"/><text fill="#000000" font-family="sans-serif" font-size="13" lengthAdjust="spacing" textLength="7" x="463.8839" y="125.6273">1</text><text fill="#000000" font-family="sans-serif" font-size="13" lengthAdjust="spacing" textLength="7" x="369.4657" y="158.9557">1</text></g><!--link UserRole to User--><g id="link_UserRole_User"><path codeLine="14" d="M363.52,104.2337 C352.83,122.4137 345.2867,135.2319 334.5867,153.4119 " fill="none" id="UserRole-to-User" style="stroke:#181818;stroke-width:1.0;"/><polygon fill="#181818" points="328.5,163.7537,334.9906,160.6117,334.5867,153.4119,328.0961,156.5539,328.5,163.7537" style="stroke:#181818;stroke-width:1.0;"/><text fill="#000000" font-family="sans-serif" font-size="13" lengthAdjust="spacing" textLength="7" x="352.6518" y="125.5585">1</text><text fill="#000000" font-family="sans-serif" font-size="13" lengthAdjust="spacing" textLength="7" x="324.3875" y="152.7577">1</text></g><!--link EmailAddress to User--><g id="link_EmailAddress_User"><path codeLine="15" d="M250.23,104.2337 C262.6,122.4137 271.6157,135.655 283.9957,153.835 " fill="none" id="EmailAddress-to-User" style="stroke:#181818;stroke-width:1.0;"/><polygon fill="#181818" points="290.75,163.7537,290.6791,156.5429,283.9957,153.835,284.0666,161.0458,290.75,163.7537" style="stroke:#181818;stroke-width:1.0;"/><text fill="#000000" font-family="sans-serif" font-size="13" lengthAdjust="spacing" textLength="7" x="246.3146" y="125.5585">1</text><text fill="#000000" font-family="sans-serif" font-size="13" lengthAdjust="spacing" textLength="7" x="278.8516" y="152.7577">1</text></g><!--link Password to User--><g id="link_Password_User"><path codeLine="16" d="M135.75,103.6237 C173.85,123.1637 218.2616,145.9448 255.0216,164.8048 " fill="none" id="Password-to-User" style="stroke:#181818;stroke-width:1.0;"/><polygon fill="#181818" points="260.36,167.5437,254.1783,159.8764,255.9113,165.2613,250.5265,166.9942,260.36,167.5437" style="stroke:#181818;stroke-width:1.0;"/><text fill="#000000" font-family="sans-serif" font-size="13" lengthAdjust="spacing" textLength="7" x="139.7328" y="125.6884">1</text><text fill="#000000" font-family="sans-serif" font-size="13" lengthAdjust="spacing" textLength="7" x="245.4082" y="159.4144">1</text></g><!--SRC=[bP1H2m514CVVVOg95qITya1fwz8fJqIyZxjnBNUxsPiZoNUt5dT4OHvsstxpQ_wpKmot61CiCZ9-71kAaGbE5R0LA9PyT0W6W_goLVDiZKODc6dDTop4wLnnxSC4impyaEKUMMerP-GyWxkwzhezpsl04fESOBBQKCX2W9LBzpf9OKg5qdVAGicTTSOHsObhIQRq0fMdJflfXFwO5AGe4p-A3Dd7xzhK7WTjeg-ASzx_ejgfGhlfhcleMrknjQFF-47TSX_fonuVEuh8DofAQbDU0000]--></g></svg>