<?xml version="1.0" encoding="us-ascii" standalone="no"?><svg xmlns="http://www.w3.org/2000/svg" xmlns:xlink="http://www.w3.org/1999/xlink" contentStyleType="text/css" height="470px" preserveAspectRatio="none" style="width:370px;height:470px;background:#FFFFFF;" version="1.1" viewBox="0 0 370 470" width="370px" zoomAndPan="magnify"><defs/><g><rect fill="#FFFFFF" height="23.291" style="stroke:#181818;stroke-width:1.0;" width="10" x="32.5" y="93.6211"/><rect fill="#FFFFFF" height="31.291" style="stroke:#181818;stroke-width:1.0;" width="10" x="32.5" y="148.2031"/><rect fill="#FFFFFF" height="31.291" style="stroke:#181818;stroke-width:1.0;" width="10" x="32.5" y="210.7852"/><rect fill="#FFFFFF" height="31.291" style="stroke:#181818;stroke-width:1.0;" width="10" x="32.5" y="299.6582"/><rect fill="#FFFFFF" height="9" style="stroke:#181818;stroke-width:1.0;" width="10" x="32.5" y="369.2402"/><rect fill="#FFFFFF" height="31.291" style="stroke:#181818;stroke-width:1.0;" width="10" x="224.5" y="116.9121"/><rect fill="#FFFFFF" height="31.291" style="stroke:#181818;stroke-width:1.0;" width="10" x="224.5" y="179.4941"/><rect fill="#FFFFFF" height="57.582" style="stroke:#181818;stroke-width:1.0;" width="10" x="224.5" y="242.0762"/><rect fill="#FFFFFF" height="38.291" style="stroke:#181818;stroke-width:1.0;" width="10" x="224.5" y="330.9492"/><rect fill="none" height="81.873" style="stroke:#000000;stroke-width:1.5;" width="354" x="10" y="257.0762"/><line style="stroke:#181818;stroke-width:0.5;stroke-dasharray:5.0,5.0;" x1="37" x2="37" y1="83.6211" y2="387.2402"/><line style="stroke:#181818;stroke-width:0.5;stroke-dasharray:5.0,5.0;" x1="229.5" x2="229.5" y1="83.6211" y2="387.2402"/><text fill="#000000" font-family="sans-serif" font-size="14" lengthAdjust="spacing" textLength="29" x="20" y="80.1074">User</text><ellipse cx="37.5" cy="13.5" fill="#E2E2F0" rx="8" ry="8" style="stroke:#181818;stroke-width:0.5;"/><path d="M37.5,21.5 L37.5,48.5 M24.5,29.5 L50.5,29.5 M37.5,48.5 L24.5,63.5 M37.5,48.5 L50.5,63.5 " fill="none" style="stroke:#181818;stroke-width:0.5;"/><text fill="#000000" font-family="sans-serif" font-size="14" lengthAdjust="spacing" textLength="29" x="20" y="401.3477">User</text><ellipse cx="37.5" cy="413.3613" fill="#E2E2F0" rx="8" ry="8" style="stroke:#181818;stroke-width:0.5;"/><path d="M37.5,421.3613 L37.5,448.3613 M24.5,429.3613 L50.5,429.3613 M37.5,448.3613 L24.5,463.3613 M37.5,448.3613 L50.5,463.3613 " fill="none" style="stroke:#181818;stroke-width:0.5;"/><rect fill="#E2E2F0" height="32.6211" rx="2.5" ry="2.5" style="stroke:#181818;stroke-width:0.5;" width="60" x="199.5" y="50"/><text fill="#000000" font-family="sans-serif" font-size="14" lengthAdjust="spacing" textLength="46" x="206.5" y="72.1074">System</text><rect fill="#E2E2F0" height="32.6211" rx="2.5" ry="2.5" style="stroke:#181818;stroke-width:0.5;" width="60" x="199.5" y="386.2402"/><text fill="#000000" font-family="sans-serif" font-size="14" lengthAdjust="spacing" textLength="46" x="206.5" y="408.3477">System</text><rect fill="#FFFFFF" height="23.291" style="stroke:#181818;stroke-width:1.0;" width="10" x="32.5" y="93.6211"/><rect fill="#FFFFFF" height="31.291" style="stroke:#181818;stroke-width:1.0;" width="10" x="32.5" y="148.2031"/><rect fill="#FFFFFF" height="31.291" style="stroke:#181818;stroke-width:1.0;" width="10" x="32.5" y="210.7852"/><rect fill="#FFFFFF" height="31.291" style="stroke:#181818;stroke-width:1.0;" width="10" x="32.5" y="299.6582"/><rect fill="#FFFFFF" height="9" style="stroke:#181818;stroke-width:1.0;" width="10" x="32.5" y="369.2402"/><rect fill="#FFFFFF" height="31.291" style="stroke:#181818;stroke-width:1.0;" width="10" x="224.5" y="116.9121"/><rect fill="#FFFFFF" height="31.291" style="stroke:#181818;stroke-width:1.0;" width="10" x="224.5" y="179.4941"/><rect fill="#FFFFFF" height="57.582" style="stroke:#181818;stroke-width:1.0;" width="10" x="224.5" y="242.0762"/><rect fill="#FFFFFF" height="38.291" style="stroke:#181818;stroke-width:1.0;" width="10" x="224.5" y="330.9492"/><polygon fill="#181818" points="212.5,112.9121,222.5,116.9121,212.5,120.9121,216.5,116.9121" style="stroke:#181818;stroke-width:1.0;"/><line style="stroke:#181818;stroke-width:1.0;" x1="37.5" x2="218.5" y1="116.9121" y2="116.9121"/><text fill="#000000" font-family="sans-serif" font-size="13" lengthAdjust="spacing" textLength="155" x="44.5" y="111.6494">requests password change</text><polygon fill="#181818" points="53.5,144.2031,43.5,148.2031,53.5,152.2031,49.5,148.2031" style="stroke:#181818;stroke-width:1.0;"/><line style="stroke:#181818;stroke-width:1.0;stroke-dasharray:2.0,2.0;" x1="47.5" x2="228.5" y1="148.2031" y2="148.2031"/><text fill="#000000" font-family="sans-serif" font-size="13" lengthAdjust="spacing" textLength="85" x="59.5" y="142.9404">requests email</text><polygon fill="#181818" points="212.5,175.4941,222.5,179.4941,212.5,183.4941,216.5,179.4941" style="stroke:#181818;stroke-width:1.0;"/><line style="stroke:#181818;stroke-width:1.0;" x1="37.5" x2="218.5" y1="179.4941" y2="179.4941"/><text fill="#000000" font-family="sans-serif" font-size="13" lengthAdjust="spacing" textLength="163" x="44.5" y="174.2314">inputs requested information</text><polygon fill="#181818" points="53.5,206.7852,43.5,210.7852,53.5,214.7852,49.5,210.7852" style="stroke:#181818;stroke-width:1.0;"/><line style="stroke:#181818;stroke-width:1.0;stroke-dasharray:2.0,2.0;" x1="47.5" x2="228.5" y1="210.7852" y2="210.7852"/><text fill="#000000" font-family="sans-serif" font-size="13" lengthAdjust="spacing" textLength="70" x="59.5" y="205.5225">sends email</text><polygon fill="#181818" points="212.5,238.0762,222.5,242.0762,212.5,246.0762,216.5,242.0762" style="stroke:#181818;stroke-width:1.0;"/><line style="stroke:#181818;stroke-width:1.0;" x1="37.5" x2="218.5" y1="242.0762" y2="242.0762"/><text fill="#000000" font-family="sans-serif" font-size="13" lengthAdjust="spacing" textLength="121" x="44.5" y="236.8135">sends new password</text><path d="M10,257.0762 L83,257.0762 L83,266.3672 L73,276.3672 L10,276.3672 L10,257.0762 " fill="#EEEEEE" style="stroke:#000000;stroke-width:1.5;"/><rect fill="none" height="81.873" style="stroke:#000000;stroke-width:1.5;" width="354" x="10" y="257.0762"/><text fill="#000000" font-family="sans-serif" font-size="13" font-weight="bold" lengthAdjust="spacing" textLength="28" x="25" y="272.1045">loop</text><text fill="#000000" font-family="sans-serif" font-size="11" font-weight="bold" lengthAdjust="spacing" textLength="261" x="98" y="270.9463">[while password does not meet requirements]</text><polygon fill="#181818" points="53.5,295.6582,43.5,299.6582,53.5,303.6582,49.5,299.6582" style="stroke:#181818;stroke-width:1.0;"/><line style="stroke:#181818;stroke-width:1.0;stroke-dasharray:2.0,2.0;" x1="47.5" x2="228.5" y1="299.6582" y2="299.6582"/><text fill="#000000" font-family="sans-serif" font-size="13" lengthAdjust="spacing" textLength="136" x="59.5" y="294.3955">requests new password</text><polygon fill="#181818" points="212.5,326.9492,222.5,330.9492,212.5,334.9492,216.5,330.9492" style="stroke:#181818;stroke-width:1.0;"/><line style="stroke:#181818;stroke-width:1.0;" x1="37.5" x2="218.5" y1="330.9492" y2="330.9492"/><text fill="#000000" font-family="sans-serif" font-size="13" lengthAdjust="spacing" textLength="121" x="44.5" y="325.6865">sends new password</text><polygon fill="#181818" points="53.5,365.2402,43.5,369.2402,53.5,373.2402,49.5,369.2402" style="stroke:#181818;stroke-width:1.0;"/><line style="stroke:#181818;stroke-width:1.0;stroke-dasharray:2.0,2.0;" x1="47.5" x2="228.5" y1="369.2402" y2="369.2402"/><text fill="#000000" font-family="sans-serif" font-size="13" lengthAdjust="spacing" textLength="84" x="59.5" y="363.9775">success email</text><!--SRC=[bL3B3S8m3Brd2Y_00XoGs009CO2LF21IavJOfM9xal8NQg57s-_djxQQCkq4cLY8hPBPS5PlVSjHQNiHHQWdkOWnvUxFhAZ0OQB5gbveIHcd3g92BOlqAJkoHuu768SFrdCO12jtKJIgr9i60ll6l5ChUiBTnxOhlBi0N5diKmwiFiKv2GJHFUmdtJ_jRxI8_ldzj6cJKalzqJTurUKIYaHI2e0Ed_YCWAZZDOqP_YXhPjg2fXhugwlEMiX_RPah]--></g></svg>