<?xml version="1.0" encoding="us-ascii" standalone="no"?><svg xmlns="http://www.w3.org/2000/svg" xmlns:xlink="http://www.w3.org/1999/xlink" contentStyleType="text/css" height="243px" preserveAspectRatio="none" style="width:629px;height:243px;background:#FFFFFF;" version="1.1" viewBox="0 0 629 243" width="629px" zoomAndPan="magnify"><defs/><g><!--cluster UserAggregate--><g id="cluster_UserAggregate"><path d="M8.5,6 L115.5,6 A3.75,3.75 0 0 1 118,8.5 L125,29.6094 L619.5,29.6094 A2.5,2.5 0 0 1 622,32.1094 L622,233.5 A2.5,2.5 0 0 1 619.5,236 L8.5,236 A2.5,2.5 0 0 1 6,233.5 L6,8.5 A2.5,2.5 0 0 1 8.5,6 " fill="none" style="stroke:#000000;stroke-width:1.5;"/><line style="stroke:#000000;stroke-width:1.5;" x1="6" x2="125" y1="29.6094" y2="29.6094"/><text fill="#000000" font-family="sans-serif" font-size="14" font-weight="bold" lengthAdjust="spacing" textLength="106" x="10" y="22.5332">UserAggregate</text></g><!--class User--><g id="elem_User"><rect codeLine="3" fill="#F1F1F1" height="58.7031" id="User" rx="2.5" ry="2.5" style="stroke:#181818;stroke-width:0.5;" width="101" x="260.5" y="161"/><ellipse cx="275.5" cy="182.3516" fill="#0000FF" rx="11" ry="11" style="stroke:#181818;stroke-width:1.0;"/><path d="M276.0938,185.6172 L278.5625,179.7422 L278.1719,179.7422 Q277.5625,179.7422 277.2969,179.5078 Q277.0313,179.2734 277.0313,178.8828 Q277.0313,178.5078 277.2969,178.2734 Q277.5625,178.0391 278.1719,178.0391 L280.4531,178.0391 Q281.0625,178.0391 281.3281,178.2734 Q281.5938,178.5078 281.5938,178.8828 Q281.5938,179.3516 281.1875,179.6172 Q281,179.7422 280.4063,179.7422 L276.9219,188.1016 L275.2813,188.1016 L271.7969,179.7422 Q271.2031,179.7422 271.0156,179.6172 Q270.6094,179.3516 270.6094,178.8828 Q270.6094,178.5078 270.875,178.2734 Q271.1406,178.0391 271.75,178.0391 L274.0469,178.0391 Q274.6563,178.0391 274.9063,178.2734 Q275.1719,178.5078 275.1719,178.8828 Q275.1719,179.2734 274.9063,179.5078 Q274.6563,179.7422 274.0469,179.7422 L273.6406,179.7422 L276.0938,185.6172 Z " fill="#000000"/><text fill="#000000" font-family="sans-serif" font-size="12" font-style="italic" lengthAdjust="spacing" textLength="73" x="287.5" y="178.457">&#171;Root Entity&#187;</text><text fill="#000000" font-family="sans-serif" font-size="14" lengthAdjust="spacing" textLength="29" x="309.5" y="195.627">User</text><line style="stroke:#181818;stroke-width:0.5;" x1="261.5" x2="360.5" y1="203.7031" y2="203.7031"/><line style="stroke:#181818;stroke-width:0.5;" x1="261.5" x2="360.5" y1="211.7031" y2="211.7031"/></g><!--class ActivationStatus--><g id="elem_ActivationStatus"><rect codeLine="5" fill="#F1F1F1" height="58.7031" id="ActivationStatus" rx="2.5" ry="2.5" style="stroke:#181818;stroke-width:0.5;" width="133" x="92.5" y="161"/><ellipse cx="107.5" cy="182.3516" fill="#F04800" rx="11" ry="11" style="stroke:#181818;stroke-width:1.0;"/><path d="M108.0938,185.6172 L110.5625,179.7422 L110.1719,179.7422 Q109.5625,179.7422 109.2969,179.5078 Q109.0313,179.2734 109.0313,178.8828 Q109.0313,178.5078 109.2969,178.2734 Q109.5625,178.0391 110.1719,178.0391 L112.4531,178.0391 Q113.0625,178.0391 113.3281,178.2734 Q113.5938,178.5078 113.5938,178.8828 Q113.5938,179.3516 113.1875,179.6172 Q113,179.7422 112.4063,179.7422 L108.9219,188.1016 L107.2813,188.1016 L103.7969,179.7422 Q103.2031,179.7422 103.0156,179.6172 Q102.6094,179.3516 102.6094,178.8828 Q102.6094,178.5078 102.875,178.2734 Q103.1406,178.0391 103.75,178.0391 L106.0469,178.0391 Q106.6563,178.0391 106.9063,178.2734 Q107.1719,178.5078 107.1719,178.8828 Q107.1719,179.2734 106.9063,179.5078 Q106.6563,179.7422 106.0469,179.7422 L105.6406,179.7422 L108.0938,185.6172 Z " fill="#000000"/><text fill="#000000" font-family="sans-serif" font-size="12" font-style="italic" lengthAdjust="spacing" textLength="85" x="129.5" y="178.457">&#171;Value Object&#187;</text><text fill="#000000" font-family="sans-serif" font-size="14" lengthAdjust="spacing" textLength="101" x="121.5" y="195.627">ActivationStatus</text><line style="stroke:#181818;stroke-width:0.5;" x1="93.5" x2="224.5" y1="203.7031" y2="203.7031"/><line style="stroke:#181818;stroke-width:0.5;" x1="93.5" x2="224.5" y1="211.7031" y2="211.7031"/></g><!--class Username--><g id="elem_Username"><rect codeLine="6" fill="#F1F1F1" height="58.7031" id="Username" rx="2.5" ry="2.5" style="stroke:#181818;stroke-width:0.5;" width="133" x="472.5" y="42"/><ellipse cx="487.5" cy="63.3516" fill="#F09800" rx="11" ry="11" style="stroke:#181818;stroke-width:1.0;"/><path d="M488.0938,66.6172 L490.5625,60.7422 L490.1719,60.7422 Q489.5625,60.7422 489.2969,60.5078 Q489.0313,60.2734 489.0313,59.8828 Q489.0313,59.5078 489.2969,59.2734 Q489.5625,59.0391 490.1719,59.0391 L492.4531,59.0391 Q493.0625,59.0391 493.3281,59.2734 Q493.5938,59.5078 493.5938,59.8828 Q493.5938,60.3516 493.1875,60.6172 Q493,60.7422 492.4063,60.7422 L488.9219,69.1016 L487.2813,69.1016 L483.7969,60.7422 Q483.2031,60.7422 483.0156,60.6172 Q482.6094,60.3516 482.6094,59.8828 Q482.6094,59.5078 482.875,59.2734 Q483.1406,59.0391 483.75,59.0391 L486.0469,59.0391 Q486.6563,59.0391 486.9063,59.2734 Q487.1719,59.5078 487.1719,59.8828 Q487.1719,60.2734 486.9063,60.5078 Q486.6563,60.7422 486.0469,60.7422 L485.6406,60.7422 L488.0938,66.6172 Z " fill="#000000"/><text fill="#000000" font-family="sans-serif" font-size="12" font-style="italic" lengthAdjust="spacing" textLength="105" x="499.5" y="59.457">&#171;Unique Identifier&#187;</text><text fill="#000000" font-family="sans-serif" font-size="14" lengthAdjust="spacing" textLength="64" x="520" y="76.627">Username</text><line style="stroke:#181818;stroke-width:0.5;" x1="473.5" x2="604.5" y1="84.7031" y2="84.7031"/><line style="stroke:#181818;stroke-width:0.5;" x1="473.5" x2="604.5" y1="92.7031" y2="92.7031"/></g><!--class UserRole--><g id="elem_UserRole"><rect codeLine="7" fill="#F1F1F1" height="58.7031" id="UserRole" rx="2.5" ry="2.5" style="stroke:#181818;stroke-width:0.5;" width="113" x="324.5" y="42"/><ellipse cx="339.5" cy="63.3516" fill="#F04800" rx="11" ry="11" style="stroke:#181818;stroke-width:1.0;"/><path d="M340.0938,66.6172 L342.5625,60.7422 L342.1719,60.7422 Q341.5625,60.7422 341.2969,60.5078 Q341.0313,60.2734 341.0313,59.8828 Q341.0313,59.5078 341.2969,59.2734 Q341.5625,59.0391 342.1719,59.0391 L344.4531,59.0391 Q345.0625,59.0391 345.3281,59.2734 Q345.5938,59.5078 345.5938,59.8828 Q345.5938,60.3516 345.1875,60.6172 Q345,60.7422 344.4063,60.7422 L340.9219,69.1016 L339.2813,69.1016 L335.7969,60.7422 Q335.2031,60.7422 335.0156,60.6172 Q334.6094,60.3516 334.6094,59.8828 Q334.6094,59.5078 334.875,59.2734 Q335.1406,59.0391 335.75,59.0391 L338.0469,59.0391 Q338.6563,59.0391 338.9063,59.2734 Q339.1719,59.5078 339.1719,59.8828 Q339.1719,60.2734 338.9063,60.5078 Q338.6563,60.7422 338.0469,60.7422 L337.6406,60.7422 L340.0938,66.6172 Z " fill="#000000"/><text fill="#000000" font-family="sans-serif" font-size="12" font-style="italic" lengthAdjust="spacing" textLength="85" x="351.5" y="59.457">&#171;Value Object&#187;</text><text fill="#000000" font-family="sans-serif" font-size="14" lengthAdjust="spacing" textLength="58" x="365" y="76.627">UserRole</text><line style="stroke:#181818;stroke-width:0.5;" x1="325.5" x2="436.5" y1="84.7031" y2="84.7031"/><line style="stroke:#181818;stroke-width:0.5;" x1="325.5" x2="436.5" y1="92.7031" y2="92.7031"/></g><!--class EmailAddress--><g id="elem_EmailAddress"><rect codeLine="8" fill="#F1F1F1" height="58.7031" id="EmailAddress" rx="2.5" ry="2.5" style="stroke:#181818;stroke-width:0.5;" width="118" x="171" y="42"/><ellipse cx="186" cy="63.3516" fill="#F04800" rx="11" ry="11" style="stroke:#181818;stroke-width:1.0;"/><path d="M186.5938,66.6172 L189.0625,60.7422 L188.6719,60.7422 Q188.0625,60.7422 187.7969,60.5078 Q187.5313,60.2734 187.5313,59.8828 Q187.5313,59.5078 187.7969,59.2734 Q188.0625,59.0391 188.6719,59.0391 L190.9531,59.0391 Q191.5625,59.0391 191.8281,59.2734 Q192.0938,59.5078 192.0938,59.8828 Q192.0938,60.3516 191.6875,60.6172 Q191.5,60.7422 190.9063,60.7422 L187.4219,69.1016 L185.7813,69.1016 L182.2969,60.7422 Q181.7031,60.7422 181.5156,60.6172 Q181.1094,60.3516 181.1094,59.8828 Q181.1094,59.5078 181.375,59.2734 Q181.6406,59.0391 182.25,59.0391 L184.5469,59.0391 Q185.1563,59.0391 185.4063,59.2734 Q185.6719,59.5078 185.6719,59.8828 Q185.6719,60.2734 185.4063,60.5078 Q185.1563,60.7422 184.5469,60.7422 L184.1406,60.7422 L186.5938,66.6172 Z " fill="#000000"/><text fill="#000000" font-family="sans-serif" font-size="12" font-style="italic" lengthAdjust="spacing" textLength="85" x="200.5" y="59.457">&#171;Value Object&#187;</text><text fill="#000000" font-family="sans-serif" font-size="14" lengthAdjust="spacing" textLength="86" x="200" y="76.627">EmailAddress</text><line style="stroke:#181818;stroke-width:0.5;" x1="172" x2="288" y1="84.7031" y2="84.7031"/><line style="stroke:#181818;stroke-width:0.5;" x1="172" x2="288" y1="92.7031" y2="92.7031"/></g><!--class Password--><g id="elem_Password"><rect codeLine="9" fill="#F1F1F1" height="58.7031" id="Password" rx="2.5" ry="2.5" style="stroke:#181818;stroke-width:0.5;" width="113" x="22.5" y="42"/><ellipse cx="37.5" cy="63.3516" fill="#F04800" rx="11" ry="11" style="stroke:#181818;stroke-width:1.0;"/><path d="M38.0938,66.6172 L40.5625,60.7422 L40.1719,60.7422 Q39.5625,60.7422 39.2969,60.5078 Q39.0313,60.2734 39.0313,59.8828 Q39.0313,59.5078 39.2969,59.2734 Q39.5625,59.0391 40.1719,59.0391 L42.4531,59.0391 Q43.0625,59.0391 43.3281,59.2734 Q43.5938,59.5078 43.5938,59.8828 Q43.5938,60.3516 43.1875,60.6172 Q43,60.7422 42.4063,60.7422 L38.9219,69.1016 L37.2813,69.1016 L33.7969,60.7422 Q33.2031,60.7422 33.0156,60.6172 Q32.6094,60.3516 32.6094,59.8828 Q32.6094,59.5078 32.875,59.2734 Q33.1406,59.0391 33.75,59.0391 L36.0469,59.0391 Q36.6563,59.0391 36.9063,59.2734 Q37.1719,59.5078 37.1719,59.8828 Q37.1719,60.2734 36.9063,60.5078 Q36.6563,60.7422 36.0469,60.7422 L35.6406,60.7422 L38.0938,66.6172 Z " fill="#000000"/><text fill="#000000" font-family="sans-serif" font-size="12" font-style="italic" lengthAdjust="spacing" textLength="85" x="49.5" y="59.457">&#171;Value Object&#187;</text><text fill="#000000" font-family="sans-serif" font-size="14" lengthAdjust="spacing" textLength="61" x="61.5" y="76.627">Password</text><line style="stroke:#181818;stroke-width:0.5;" x1="23.5" x2="134.5" y1="84.7031" y2="84.7031"/><line style="stroke:#181818;stroke-width:0.5;" x1="23.5" x2="134.5" y1="92.7031" y2="92.7031"/></g><!--link ActivationStatus to User--><g id="link_ActivationStatus_User"><path codeLine="11" d="M225.8,190.5 C237.33,190.5 236.87,190.5 248.41,190.5 " fill="none" id="ActivationStatus-to-User" style="stroke:#181818;stroke-width:1.0;"/><polygon fill="#181818" points="260.41,190.5,254.41,186.5,248.41,190.5,254.41,194.5,260.41,190.5" style="stroke:#181818;stroke-width:1.0;"/><text fill="#000000" font-family="sans-serif" font-size="13" lengthAdjust="spacing" textLength="7" x="233.4891" y="187.1556">1</text><text fill="#000000" font-family="sans-serif" font-size="13" lengthAdjust="spacing" textLength="7" x="245.4655" y="186.8677">1</text></g><!--link Username to User--><g id="link_Username_User"><path codeLine="13" d="M483.22,101.12 C446.05,120.2 408.2563,139.5912 372.2063,158.0912 " fill="none" id="Username-to-User" style="stroke:#181818;stroke-width:1.0;"/><polygon fill="#181818" points="361.53,163.57,368.6944,164.3894,372.2063,158.0912,365.0419,157.2718,361.53,163.57" style="stroke:#181818;stroke-width:1.0;"/><text fill="#000000" font-family="sans-serif" font-size="13" lengthAdjust="spacing" textLength="7" x="464.5493" y="122.0854">1</text><text fill="#000000" font-family="sans-serif" font-size="13" lengthAdjust="spacing" textLength="7" x="369.4657" y="155.9824">1</text></g><!--link UserRole to User--><g id="link_UserRole_User"><path codeLine="14" d="M363.88,101.12 C353.03,119.25 345.2114,132.3226 334.3514,150.4726 " fill="none" id="UserRole-to-User" style="stroke:#181818;stroke-width:1.0;"/><polygon fill="#181818" points="328.19,160.77,334.7032,157.6751,334.3514,150.4726,327.8382,153.5675,328.19,160.77" style="stroke:#181818;stroke-width:1.0;"/><text fill="#000000" font-family="sans-serif" font-size="13" lengthAdjust="spacing" textLength="7" x="352.8204" y="122.0854">1</text><text fill="#000000" font-family="sans-serif" font-size="13" lengthAdjust="spacing" textLength="7" x="324.1847" y="150.0826">1</text></g><!--link EmailAddress to User--><g id="link_EmailAddress_User"><path codeLine="15" d="M249.81,101.12 C262.37,119.25 271.7078,132.7549 284.2778,150.9049 " fill="none" id="EmailAddress-to-User" style="stroke:#181818;stroke-width:1.0;"/><polygon fill="#181818" points="291.11,160.77,290.9823,153.56,284.2778,150.9049,284.4055,158.1148,291.11,160.77" style="stroke:#181818;stroke-width:1.0;"/><text fill="#000000" font-family="sans-serif" font-size="13" lengthAdjust="spacing" textLength="7" x="246.021" y="122.0854">1</text><text fill="#000000" font-family="sans-serif" font-size="13" lengthAdjust="spacing" textLength="7" x="278.9934" y="150.0826">1</text></g><!--link Password to User--><g id="link_Password_User"><path codeLine="16" d="M135.75,101.12 C173.85,120.33 218.2422,142.7292 255.0022,161.2592 " fill="none" id="Password-to-User" style="stroke:#181818;stroke-width:1.0;"/><polygon fill="#181818" points="260.36,163.96,254.1238,156.337,255.8952,161.7094,250.5228,163.4807,260.36,163.96" style="stroke:#181818;stroke-width:1.0;"/><text fill="#000000" font-family="sans-serif" font-size="13" lengthAdjust="spacing" textLength="7" x="139.2336" y="122.0854">1</text><text fill="#000000" font-family="sans-serif" font-size="13" lengthAdjust="spacing" textLength="7" x="245.4082" y="156.4297">1</text></g><!--SRC=[bP1H2m514CVVVOg95qITya1fwz8fJqIyZxjnBNUxsPiZoNUt5dT4OHvsstxpQ_wpKmot61CiCZ9-71kAaGbE5R0LA9PyT0W6W_goLVDiZKODc6dDTop4wLnnxSC4impyaEKUMMerP-GyWxkwzhezpsl04fESOBBQKCX2W9LBzpf9OKg5qdVAGicTTSOHsObhIQRq0fMdJflfXFwO5AGe4p-A3Dd7xzhK7WTjeg-ASzx_ejgfGhlfhcleMrknjQFF-47TSX_fonuVEuh8DofAQbDU0000]--></g></svg>