<?xml version="1.0" encoding="us-ascii" standalone="no"?><svg xmlns="http://www.w3.org/2000/svg" xmlns:xlink="http://www.w3.org/1999/xlink" contentStyleType="text/css" height="846px" preserveAspectRatio="none" style="width:1398px;height:846px;background:#FFFFFF;" version="1.1" viewBox="0 0 1398 846" width="1398px" zoomAndPan="magnify"><defs/><g><rect fill="#FFFFFF" height="30.3516" style="stroke:#181818;stroke-width:1.0;" width="10" x="167" y="69.9609"/><rect fill="#FFFFFF" height="30.3516" style="stroke:#181818;stroke-width:1.0;" width="10" x="167" y="761.1172"/><rect fill="#FFFFFF" height="116.3125" style="stroke:#181818;stroke-width:1.0;" width="10" x="300" y="100.3125"/><rect fill="#FFFFFF" height="30.3516" style="stroke:#181818;stroke-width:1.0;" width="10" x="300" y="246.9766"/><rect fill="#FFFFFF" height="30.3516" style="stroke:#181818;stroke-width:1.0;" width="10" x="300" y="497.6953"/><rect fill="#FFFFFF" height="99.4063" style="stroke:#181818;stroke-width:1.0;" width="10" x="300" y="661.7109"/><rect fill="#FFFFFF" height="30.3516" style="stroke:#181818;stroke-width:1.0;" width="10" x="692.5" y="216.625"/><rect fill="#FFFFFF" height="30.3516" style="stroke:#181818;stroke-width:1.0;" width="10" x="692.5" y="277.3281"/><rect fill="#FFFFFF" height="159.6641" style="stroke:#181818;stroke-width:1.0;" width="10" x="692.5" y="338.0313"/><rect fill="#FFFFFF" height="41.3516" style="stroke:#181818;stroke-width:1.0;" width="10" x="697.5" y="376.3828"/><rect fill="#FFFFFF" height="30.3516" style="stroke:#181818;stroke-width:1.0;" width="10" x="1053" y="528.0469"/><rect fill="#FFFFFF" height="72.9609" style="stroke:#181818;stroke-width:1.0;" width="10" x="1053" y="588.75"/><rect fill="#FFFFFF" height="30.3516" style="stroke:#181818;stroke-width:1.0;" width="10" x="1246" y="307.6797"/><rect fill="#FFFFFF" height="30.3516" style="stroke:#181818;stroke-width:1.0;" width="10" x="1246" y="558.3984"/><line style="stroke:#181818;stroke-width:0.5;stroke-dasharray:5.0,5.0;" x1="171.5" x2="171.5" y1="37.6094" y2="809.4688"/><line style="stroke:#181818;stroke-width:0.5;stroke-dasharray:5.0,5.0;" x1="304.5" x2="304.5" y1="37.6094" y2="809.4688"/><line style="stroke:#181818;stroke-width:0.5;stroke-dasharray:5.0,5.0;" x1="567.5" x2="567.5" y1="182.9688" y2="809.4688"/><line style="stroke:#181818;stroke-width:0.5;stroke-dasharray:5.0,5.0;" x1="697.5" x2="697.5" y1="37.6094" y2="809.4688"/><line style="stroke:#181818;stroke-width:0.5;stroke-dasharray:5.0,5.0;" x1="940.5" x2="940.5" y1="464.0391" y2="809.4688"/><line style="stroke:#181818;stroke-width:0.5;stroke-dasharray:5.0,5.0;" x1="1057.5" x2="1057.5" y1="37.6094" y2="809.4688"/><line style="stroke:#181818;stroke-width:0.5;stroke-dasharray:5.0,5.0;" x1="1250.5" x2="1250.5" y1="37.6094" y2="809.4688"/><line style="stroke:#181818;stroke-width:0.5;stroke-dasharray:5.0,5.0;" x1="1354.5" x2="1354.5" y1="628.0547" y2="809.4688"/><rect fill="#E2E2F0" height="31.6094" rx="2.5" ry="2.5" style="stroke:#181818;stroke-width:0.5;" width="63" x="140.5" y="5"/><text fill="#000000" font-family="sans-serif" font-size="14" lengthAdjust="spacing" textLength="49" x="147.5" y="26.5332">Routing</text><rect fill="#E2E2F0" height="31.6094" rx="2.5" ry="2.5" style="stroke:#181818;stroke-width:0.5;" width="63" x="140.5" y="808.4688"/><text fill="#000000" font-family="sans-serif" font-size="14" lengthAdjust="spacing" textLength="49" x="147.5" y="830.002">Routing</text><rect fill="#E2E2F0" height="31.6094" rx="2.5" ry="2.5" style="stroke:#181818;stroke-width:0.5;" width="111" x="249.5" y="5"/><text fill="#000000" font-family="sans-serif" font-size="14" lengthAdjust="spacing" textLength="97" x="256.5" y="26.5332">LoginController</text><rect fill="#E2E2F0" height="31.6094" rx="2.5" ry="2.5" style="stroke:#181818;stroke-width:0.5;" width="111" x="249.5" y="808.4688"/><text fill="#000000" font-family="sans-serif" font-size="14" lengthAdjust="spacing" textLength="97" x="256.5" y="830.002">LoginController</text><rect fill="#E2E2F0" height="31.6094" rx="2.5" ry="2.5" style="stroke:#181818;stroke-width:0.5;" width="143" x="496.5" y="808.4688"/><text fill="#000000" font-family="sans-serif" font-size="14" lengthAdjust="spacing" textLength="129" x="503.5" y="830.002">LoginCredentialsDto</text><rect fill="#E2E2F0" height="31.6094" rx="2.5" ry="2.5" style="stroke:#181818;stroke-width:0.5;" width="96" x="649.5" y="5"/><text fill="#000000" font-family="sans-serif" font-size="14" lengthAdjust="spacing" textLength="82" x="656.5" y="26.5332">LoginService</text><rect fill="#E2E2F0" height="31.6094" rx="2.5" ry="2.5" style="stroke:#181818;stroke-width:0.5;" width="96" x="649.5" y="808.4688"/><text fill="#000000" font-family="sans-serif" font-size="14" lengthAdjust="spacing" textLength="82" x="656.5" y="830.002">LoginService</text><rect fill="#E2E2F0" height="31.6094" rx="2.5" ry="2.5" style="stroke:#181818;stroke-width:0.5;" width="114" x="883.5" y="808.4688"/><text fill="#000000" font-family="sans-serif" font-size="14" lengthAdjust="spacing" textLength="100" x="890.5" y="830.002">LoginOutputDto</text><rect fill="#E2E2F0" height="31.6094" rx="2.5" ry="2.5" style="stroke:#181818;stroke-width:0.5;" width="101" x="1007.5" y="5"/><text fill="#000000" font-family="sans-serif" font-size="14" lengthAdjust="spacing" textLength="87" x="1014.5" y="26.5332">TokenService</text><rect fill="#E2E2F0" height="31.6094" rx="2.5" ry="2.5" style="stroke:#181818;stroke-width:0.5;" width="101" x="1007.5" y="808.4688"/><text fill="#000000" font-family="sans-serif" font-size="14" lengthAdjust="spacing" textLength="87" x="1014.5" y="830.002">TokenService</text><rect fill="#E2E2F0" height="31.6094" rx="2.5" ry="2.5" style="stroke:#181818;stroke-width:0.5;" width="111" x="1195.5" y="5"/><text fill="#000000" font-family="sans-serif" font-size="14" lengthAdjust="spacing" textLength="97" x="1202.5" y="26.5332">UserRepository</text><rect fill="#E2E2F0" height="31.6094" rx="2.5" ry="2.5" style="stroke:#181818;stroke-width:0.5;" width="111" x="1195.5" y="808.4688"/><text fill="#000000" font-family="sans-serif" font-size="14" lengthAdjust="spacing" textLength="97" x="1202.5" y="830.002">UserRepository</text><rect fill="#E2E2F0" height="31.6094" rx="2.5" ry="2.5" style="stroke:#181818;stroke-width:0.5;" width="76" x="1316.5" y="808.4688"/><text fill="#000000" font-family="sans-serif" font-size="14" lengthAdjust="spacing" textLength="62" x="1323.5" y="830.002">TokenDto</text><rect fill="#FFFFFF" height="30.3516" style="stroke:#181818;stroke-width:1.0;" width="10" x="167" y="69.9609"/><rect fill="#FFFFFF" height="30.3516" style="stroke:#181818;stroke-width:1.0;" width="10" x="167" y="761.1172"/><rect fill="#FFFFFF" height="116.3125" style="stroke:#181818;stroke-width:1.0;" width="10" x="300" y="100.3125"/><rect fill="#FFFFFF" height="30.3516" style="stroke:#181818;stroke-width:1.0;" width="10" x="300" y="246.9766"/><rect fill="#FFFFFF" height="30.3516" style="stroke:#181818;stroke-width:1.0;" width="10" x="300" y="497.6953"/><rect fill="#FFFFFF" height="99.4063" style="stroke:#181818;stroke-width:1.0;" width="10" x="300" y="661.7109"/><rect fill="#FFFFFF" height="30.3516" style="stroke:#181818;stroke-width:1.0;" width="10" x="692.5" y="216.625"/><rect fill="#FFFFFF" height="30.3516" style="stroke:#181818;stroke-width:1.0;" width="10" x="692.5" y="277.3281"/><rect fill="#FFFFFF" height="159.6641" style="stroke:#181818;stroke-width:1.0;" width="10" x="692.5" y="338.0313"/><rect fill="#FFFFFF" height="41.3516" style="stroke:#181818;stroke-width:1.0;" width="10" x="697.5" y="376.3828"/><rect fill="#FFFFFF" height="30.3516" style="stroke:#181818;stroke-width:1.0;" width="10" x="1053" y="528.0469"/><rect fill="#FFFFFF" height="72.9609" style="stroke:#181818;stroke-width:1.0;" width="10" x="1053" y="588.75"/><rect fill="#FFFFFF" height="30.3516" style="stroke:#181818;stroke-width:1.0;" width="10" x="1246" y="307.6797"/><rect fill="#FFFFFF" height="30.3516" style="stroke:#181818;stroke-width:1.0;" width="10" x="1246" y="558.3984"/><polygon fill="#181818" points="155,65.9609,165,69.9609,155,73.9609,159,69.9609" style="stroke:#181818;stroke-width:1.0;"/><line style="stroke:#181818;stroke-width:1.0;" x1="0" x2="161" y1="69.9609" y2="69.9609"/><text fill="#000000" font-family="sans-serif" font-size="13" font-weight="bold" lengthAdjust="spacing" textLength="7" x="7" y="65.1045">1</text><text fill="#000000" font-family="sans-serif" font-size="13" lengthAdjust="spacing" textLength="137" x="18" y="65.1045">POST(LoginIAMInfoDto)</text><polygon fill="#181818" points="288,96.3125,298,100.3125,288,104.3125,292,100.3125" style="stroke:#181818;stroke-width:1.0;"/><line style="stroke:#181818;stroke-width:1.0;" x1="172" x2="294" y1="100.3125" y2="100.3125"/><text fill="#000000" font-family="sans-serif" font-size="13" font-weight="bold" lengthAdjust="spacing" textLength="7" x="179" y="95.4561">2</text><text fill="#000000" font-family="sans-serif" font-size="13" lengthAdjust="spacing" textLength="58" x="190" y="95.4561">loginIAM()</text><line style="stroke:#181818;stroke-width:1.0;stroke-dasharray:2.0,2.0;" x1="310" x2="352" y1="130.6641" y2="130.6641"/><line style="stroke:#181818;stroke-width:1.0;stroke-dasharray:2.0,2.0;" x1="352" x2="352" y1="130.6641" y2="143.6641"/><line style="stroke:#181818;stroke-width:1.0;stroke-dasharray:2.0,2.0;" x1="311" x2="352" y1="143.6641" y2="143.6641"/><polygon fill="#181818" points="321,139.6641,311,143.6641,321,147.6641,317,143.6641" style="stroke:#181818;stroke-width:1.0;"/><text fill="#000000" font-family="sans-serif" font-size="13" font-weight="bold" lengthAdjust="spacing" textLength="7" x="317" y="125.8076">3</text><text fill="#000000" font-family="sans-serif" font-size="13" font-weight="bold" lengthAdjust="spacing" textLength="228" x="328" y="125.8076">[Gets Google Response Information]</text><polygon fill="#181818" points="484.5,170.0156,494.5,174.0156,484.5,178.0156,488.5,174.0156" style="stroke:#181818;stroke-width:1.0;"/><line style="stroke:#181818;stroke-width:1.0;" x1="310" x2="490.5" y1="174.0156" y2="174.0156"/><text fill="#000000" font-family="sans-serif" font-size="13" font-weight="bold" lengthAdjust="spacing" textLength="7" x="317" y="169.1592">4</text><text fill="#000000" font-family="sans-serif" font-size="13" lengthAdjust="spacing" textLength="44" x="328" y="169.1592">create()</text><rect fill="#E2E2F0" height="31.6094" rx="2.5" ry="2.5" style="stroke:#181818;stroke-width:0.5;" width="143" x="496.5" y="151.6641"/><text fill="#000000" font-family="sans-serif" font-size="14" lengthAdjust="spacing" textLength="129" x="503.5" y="173.1973">LoginCredentialsDto</text><polygon fill="#181818" points="680.5,212.625,690.5,216.625,680.5,220.625,684.5,216.625" style="stroke:#181818;stroke-width:1.0;"/><line style="stroke:#181818;stroke-width:1.0;" x1="305" x2="686.5" y1="216.625" y2="216.625"/><text fill="#000000" font-family="sans-serif" font-size="13" font-weight="bold" lengthAdjust="spacing" textLength="7" x="312" y="211.7686">5</text><text fill="#000000" font-family="sans-serif" font-size="13" lengthAdjust="spacing" textLength="185" x="323" y="211.7686">TreatAuthenticateResult(claims)</text><polygon fill="#181818" points="321,242.9766,311,246.9766,321,250.9766,317,246.9766" style="stroke:#181818;stroke-width:1.0;"/><line style="stroke:#181818;stroke-width:1.0;stroke-dasharray:2.0,2.0;" x1="315" x2="696.5" y1="246.9766" y2="246.9766"/><text fill="#000000" font-family="sans-serif" font-size="13" font-weight="bold" lengthAdjust="spacing" textLength="7" x="327" y="242.1201">6</text><text fill="#000000" font-family="sans-serif" font-size="13" lengthAdjust="spacing" textLength="92" x="338" y="242.1201">loginCredentials</text><polygon fill="#181818" points="680.5,273.3281,690.5,277.3281,680.5,281.3281,684.5,277.3281" style="stroke:#181818;stroke-width:1.0;"/><line style="stroke:#181818;stroke-width:1.0;" x1="305" x2="686.5" y1="277.3281" y2="277.3281"/><text fill="#000000" font-family="sans-serif" font-size="13" font-weight="bold" lengthAdjust="spacing" textLength="7" x="312" y="272.4717">7</text><text fill="#000000" font-family="sans-serif" font-size="13" lengthAdjust="spacing" textLength="127" x="323" y="272.4717">login(loginCredentials)</text><polygon fill="#181818" points="1234,303.6797,1244,307.6797,1234,311.6797,1238,307.6797" style="stroke:#181818;stroke-width:1.0;"/><line style="stroke:#181818;stroke-width:1.0;" x1="697.5" x2="1240" y1="307.6797" y2="307.6797"/><text fill="#000000" font-family="sans-serif" font-size="13" font-weight="bold" lengthAdjust="spacing" textLength="7" x="704.5" y="302.8232">8</text><text fill="#000000" font-family="sans-serif" font-size="13" lengthAdjust="spacing" textLength="146" x="715.5" y="302.8232">getByIdAsync(username)</text><polygon fill="#181818" points="713.5,334.0313,703.5,338.0313,713.5,342.0313,709.5,338.0313" style="stroke:#181818;stroke-width:1.0;"/><line style="stroke:#181818;stroke-width:1.0;stroke-dasharray:2.0,2.0;" x1="707.5" x2="1250" y1="338.0313" y2="338.0313"/><text fill="#000000" font-family="sans-serif" font-size="13" font-weight="bold" lengthAdjust="spacing" textLength="7" x="719.5" y="333.1748">9</text><text fill="#000000" font-family="sans-serif" font-size="13" lengthAdjust="spacing" textLength="25" x="730.5" y="333.1748">user</text><line style="stroke:#181818;stroke-width:1.0;" x1="702.5" x2="749.5" y1="363.3828" y2="363.3828"/><line style="stroke:#181818;stroke-width:1.0;" x1="749.5" x2="749.5" y1="363.3828" y2="376.3828"/><line style="stroke:#181818;stroke-width:1.0;" x1="708.5" x2="749.5" y1="376.3828" y2="376.3828"/><polygon fill="#181818" points="718.5,372.3828,708.5,376.3828,718.5,380.3828,714.5,376.3828" style="stroke:#181818;stroke-width:1.0;"/><text fill="#000000" font-family="sans-serif" font-size="13" font-weight="bold" lengthAdjust="spacing" textLength="14" x="714.5" y="358.5264">10</text><text fill="#000000" font-family="sans-serif" font-size="13" lengthAdjust="spacing" textLength="201" x="732.5" y="358.5264">passwordMatches(user, password)</text><line style="stroke:#181818;stroke-width:1.0;stroke-dasharray:2.0,2.0;" x1="707.5" x2="749.5" y1="416.7344" y2="416.7344"/><line style="stroke:#181818;stroke-width:1.0;stroke-dasharray:2.0,2.0;" x1="749.5" x2="749.5" y1="416.7344" y2="429.7344"/><line style="stroke:#181818;stroke-width:1.0;stroke-dasharray:2.0,2.0;" x1="702.5" x2="749.5" y1="429.7344" y2="429.7344"/><polygon fill="#181818" points="712.5,425.7344,702.5,429.7344,712.5,433.7344,708.5,429.7344" style="stroke:#181818;stroke-width:1.0;"/><text fill="#000000" font-family="sans-serif" font-size="13" font-weight="bold" lengthAdjust="spacing" textLength="14" x="714.5" y="411.8779">11</text><text fill="#000000" font-family="sans-serif" font-size="13" lengthAdjust="spacing" textLength="51" x="732.5" y="411.8779">opResult</text><polygon fill="#181818" points="871.5,451.0859,881.5,455.0859,871.5,459.0859,875.5,455.0859" style="stroke:#181818;stroke-width:1.0;"/><line style="stroke:#181818;stroke-width:1.0;" x1="702.5" x2="877.5" y1="455.0859" y2="455.0859"/><text fill="#000000" font-family="sans-serif" font-size="13" font-weight="bold" lengthAdjust="spacing" textLength="14" x="709.5" y="450.2295">12</text><text fill="#000000" font-family="sans-serif" font-size="13" lengthAdjust="spacing" textLength="44" x="727.5" y="450.2295">create()</text><rect fill="#E2E2F0" height="31.6094" rx="2.5" ry="2.5" style="stroke:#181818;stroke-width:0.5;" width="114" x="883.5" y="432.7344"/><text fill="#000000" font-family="sans-serif" font-size="14" lengthAdjust="spacing" textLength="100" x="890.5" y="454.2676">LoginOutputDto</text><polygon fill="#181818" points="321,493.6953,311,497.6953,321,501.6953,317,497.6953" style="stroke:#181818;stroke-width:1.0;"/><line style="stroke:#181818;stroke-width:1.0;stroke-dasharray:2.0,2.0;" x1="315" x2="696.5" y1="497.6953" y2="497.6953"/><text fill="#000000" font-family="sans-serif" font-size="13" font-weight="bold" lengthAdjust="spacing" textLength="14" x="327" y="492.8389">13</text><text fill="#000000" font-family="sans-serif" font-size="13" lengthAdjust="spacing" textLength="86" x="345" y="492.8389">loginOutputDto</text><polygon fill="#181818" points="1041,524.0469,1051,528.0469,1041,532.0469,1045,528.0469" style="stroke:#181818;stroke-width:1.0;"/><line style="stroke:#181818;stroke-width:1.0;" x1="305" x2="1047" y1="528.0469" y2="528.0469"/><text fill="#000000" font-family="sans-serif" font-size="13" font-weight="bold" lengthAdjust="spacing" textLength="14" x="312" y="523.1904">14</text><text fill="#000000" font-family="sans-serif" font-size="13" lengthAdjust="spacing" textLength="224" x="330" y="523.1904">CreateAuthToken(LoginCredentialsDto)</text><polygon fill="#181818" points="1234,554.3984,1244,558.3984,1234,562.3984,1238,558.3984" style="stroke:#181818;stroke-width:1.0;"/><line style="stroke:#181818;stroke-width:1.0;" x1="1058" x2="1240" y1="558.3984" y2="558.3984"/><text fill="#000000" font-family="sans-serif" font-size="13" font-weight="bold" lengthAdjust="spacing" textLength="14" x="1065" y="553.542">15</text><text fill="#000000" font-family="sans-serif" font-size="13" lengthAdjust="spacing" textLength="146" x="1083" y="553.542">getByIdAsync(username)</text><polygon fill="#181818" points="1074,584.75,1064,588.75,1074,592.75,1070,588.75" style="stroke:#181818;stroke-width:1.0;"/><line style="stroke:#181818;stroke-width:1.0;stroke-dasharray:2.0,2.0;" x1="1068" x2="1250" y1="588.75" y2="588.75"/><text fill="#000000" font-family="sans-serif" font-size="13" font-weight="bold" lengthAdjust="spacing" textLength="14" x="1080" y="583.8936">16</text><text fill="#000000" font-family="sans-serif" font-size="13" lengthAdjust="spacing" textLength="25" x="1098" y="583.8936">user</text><polygon fill="#181818" points="1304.5,615.1016,1314.5,619.1016,1304.5,623.1016,1308.5,619.1016" style="stroke:#181818;stroke-width:1.0;"/><line style="stroke:#181818;stroke-width:1.0;stroke-dasharray:2.0,2.0;" x1="1063" x2="1310.5" y1="619.1016" y2="619.1016"/><text fill="#000000" font-family="sans-serif" font-size="13" font-weight="bold" lengthAdjust="spacing" textLength="14" x="1070" y="614.2451">17</text><text fill="#000000" font-family="sans-serif" font-size="13" lengthAdjust="spacing" textLength="44" x="1088" y="614.2451">create()</text><rect fill="#E2E2F0" height="31.6094" rx="2.5" ry="2.5" style="stroke:#181818;stroke-width:0.5;" width="76" x="1316.5" y="596.75"/><text fill="#000000" font-family="sans-serif" font-size="14" lengthAdjust="spacing" textLength="62" x="1323.5" y="618.2832">TokenDto</text><polygon fill="#181818" points="321,657.7109,311,661.7109,321,665.7109,317,661.7109" style="stroke:#181818;stroke-width:1.0;"/><line style="stroke:#181818;stroke-width:1.0;stroke-dasharray:2.0,2.0;" x1="315" x2="1057" y1="661.7109" y2="661.7109"/><text fill="#000000" font-family="sans-serif" font-size="13" font-weight="bold" lengthAdjust="spacing" textLength="14" x="327" y="656.8545">18</text><text fill="#000000" font-family="sans-serif" font-size="13" lengthAdjust="spacing" textLength="52" x="345" y="656.8545">tokenDto</text><path d="M104,674.7109 L104,733.7109 L295,733.7109 L295,684.7109 L285,674.7109 L104,674.7109 " fill="#FEFFDD" style="stroke:#181818;stroke-width:0.5;"/><path d="M285,674.7109 L285,684.7109 L295,684.7109 L285,674.7109 " fill="#FEFFDD" style="stroke:#181818;stroke-width:0.5;"/><text fill="#000000" font-family="sans-serif" font-size="13" lengthAdjust="spacing" textLength="168" x="110" y="693.2061">Dto containing login output is</text><text fill="#000000" font-family="sans-serif" font-size="13" lengthAdjust="spacing" textLength="170" x="110" y="709.5576">populated with the token here</text><text fill="#000000" font-family="sans-serif" font-size="13" lengthAdjust="spacing" textLength="162" x="110" y="725.9092">otherwise that field is empty</text><polygon fill="#181818" points="188,757.1172,178,761.1172,188,765.1172,184,761.1172" style="stroke:#181818;stroke-width:1.0;"/><line style="stroke:#181818;stroke-width:1.0;" x1="182" x2="304" y1="761.1172" y2="761.1172"/><text fill="#000000" font-family="sans-serif" font-size="13" font-weight="bold" lengthAdjust="spacing" textLength="14" x="194" y="756.2607">19</text><text fill="#000000" font-family="sans-serif" font-size="13" lengthAdjust="spacing" textLength="86" x="212" y="756.2607">loginOutputDto</text><polygon fill="#181818" points="11,787.4688,1,791.4688,11,795.4688,7,791.4688" style="stroke:#181818;stroke-width:1.0;"/><line style="stroke:#181818;stroke-width:1.0;stroke-dasharray:2.0,2.0;" x1="5" x2="171" y1="791.4688" y2="791.4688"/><text fill="#000000" font-family="sans-serif" font-size="13" font-weight="bold" lengthAdjust="spacing" textLength="14" x="17" y="786.6123">20</text><text fill="#000000" font-family="sans-serif" font-size="13" lengthAdjust="spacing" textLength="86" x="35" y="786.6123">loginOutputDto</text><!--SRC=[bLJ1Zfim4Btp5RwLHAMvHrMaT2kj8dMrLPAUgXvSCmjMZUtQGwByVSU61G8ak-Lax3TldkUDvqE9QFrwjRAAQwmhzKcOQkNXRmrQG9PBNZXU9GclqUYw-WqkIIntA8Mq5C3sfaQf2yOzSxI4gyDlff3wmMXqHYbm0IJGgHcCWnmqIgxyLpJJymEuanGG29Gf3YSnXJpNQ6kaw1OqvZcQFp3amVXFJ5Ue7nxS7gpn4esx15pTxYH9jcckoDRi-_FXcCQqk-tJJhyOohQW8WcK9qw8fXIClYQ2GiF5rq5OZ4aNIGuZU1yUYnIYmu9bRJJbNIv_FW9wzcXCeO3jmLkZFR0WmLKSfT6_baisYDtC5PWWQoOSK2uICWGtrQNJOpZTrbY6A450obKhJ8NYil9NwgFQxg_r9v2sP0FzQgHbIDC6tYh2G5jaISTSKqrtHMqwPucn0FnosULRVz4Y3VkQLx2OKTTJTdtHqMH3ZM5t6D-tqNrH7O7btf-DovyuYX9yLFMnssrScwCQ5RxZCxPnC8Ac5vkec6sJ6uvsR-zknIQ6lZv1edc8MKA_nNUQpZJjFN-xnnpeEzh_zRWV2LFR0l6LqmFnx_3wXa3YYVUTBVOLh2qtjkW8q2QK6LwmBstumWmKD7Ivr64oHuUOYHOnwJkODRPMb2rdPuabevVUiBCI77GeG_lkB6d6OCcHlKXGER4mg2nU8WfqtYXXx8rYJXhWTPpURgAHp_rS_PnbxmXl1-i_]--></g></svg>