<?xml version="1.0" encoding="us-ascii" standalone="no"?><svg xmlns="http://www.w3.org/2000/svg" xmlns:xlink="http://www.w3.org/1999/xlink" contentStyleType="text/css" height="440.8px" preserveAspectRatio="none" style="width:708px;height:440px;background:#FFFFFF;" version="1.1" viewBox="0 0 708 440" width="708.8px" zoomAndPan="magnify"><defs/><g><!--cluster PatientAggregate--><g id="cluster_PatientAggregate"><path d="M6.8,4.8109 L105.2,4.8109 A3,3 0 0 1 107.2,6.8109 L112.8,24.5078 L701.2,24.5078 A2,2 0 0 1 703.2,26.5078 L703.2,433.2109 A2,2 0 0 1 701.2,435.2109 L6.8,435.2109 A2,2 0 0 1 4.8,433.2109 L4.8,6.8109 A2,2 0 0 1 6.8,4.8109 " fill="none" style="stroke:#000000;stroke-width:1.2000000000000002;"/><line style="stroke:#000000;stroke-width:1.2000000000000002;" x1="4.8" x2="112.8" y1="24.5078" y2="24.5078"/><text fill="#000000" font-family="sans-serif" font-size="11.2" font-weight="bold" lengthAdjust="spacing" textLength="97.6" x="8" y="18.4969">PatientAggregate</text></g><!--class Patient--><g id="elem_Patient"><rect codeLine="4" fill="#F1F1F1" height="48.4656" id="Patient" rx="2" ry="2" style="stroke:#181818;stroke-width:0.4000000000000001;" width="80.8" x="318" y="131.2109"/><ellipse cx="330" cy="149.0438" fill="#0000FF" rx="8.8" ry="8.8" style="stroke:#181818;stroke-width:0.8000000000000002;"/><path d="M330.475,151.6563 L332.45,146.9563 L332.1375,146.9563 Q331.65,146.9563 331.4375,146.7688 Q331.225,146.5813 331.225,146.2688 Q331.225,145.9688 331.4375,145.7813 Q331.65,145.5938 332.1375,145.5938 L333.9625,145.5938 Q334.45,145.5938 334.6625,145.7813 Q334.875,145.9688 334.875,146.2688 Q334.875,146.6438 334.55,146.8563 Q334.4,146.9563 333.925,146.9563 L331.1375,153.6438 L329.825,153.6438 L327.0375,146.9563 Q326.5625,146.9563 326.4125,146.8563 Q326.0875,146.6438 326.0875,146.2688 Q326.0875,145.9688 326.3,145.7813 Q326.5125,145.5938 327,145.5938 L328.8375,145.5938 Q329.325,145.5938 329.525,145.7813 Q329.7375,145.9688 329.7375,146.2688 Q329.7375,146.5813 329.525,146.7688 Q329.325,146.9563 328.8375,146.9563 L328.5125,146.9563 L330.475,151.6563 Z " fill="#000000"/><text fill="#000000" font-family="sans-serif" font-size="9.6" font-style="italic" lengthAdjust="spacing" textLength="58.4" x="339.6" y="145.5703">&#171;Root Entity&#187;</text><text fill="#000000" font-family="sans-serif" font-size="11.2" lengthAdjust="spacing" textLength="35.2" x="351.2" y="160.0656">Patient</text><line style="stroke:#181818;stroke-width:0.4000000000000001;" x1="318.8" x2="398" y1="166.8766" y2="166.8766"/><line style="stroke:#181818;stroke-width:0.4000000000000001;" x1="318.8" x2="398" y1="173.2766" y2="173.2766"/></g><!--class Gender--><g id="elem_Gender"><rect codeLine="6" fill="#F1F1F1" height="48.4656" id="Gender" rx="2" ry="2" style="stroke:#181818;stroke-width:0.4000000000000001;" width="90.4" x="599.6" y="34.4109"/><ellipse cx="611.6" cy="52.2438" fill="#F04800" rx="8.8" ry="8.8" style="stroke:#181818;stroke-width:0.8000000000000002;"/><path d="M612.075,54.8563 L614.05,50.1563 L613.7375,50.1563 Q613.25,50.1563 613.0375,49.9688 Q612.825,49.7813 612.825,49.4688 Q612.825,49.1688 613.0375,48.9813 Q613.25,48.7938 613.7375,48.7938 L615.5625,48.7938 Q616.05,48.7938 616.2625,48.9813 Q616.475,49.1688 616.475,49.4688 Q616.475,49.8438 616.15,50.0563 Q616,50.1563 615.525,50.1563 L612.7375,56.8438 L611.425,56.8438 L608.6375,50.1563 Q608.1625,50.1563 608.0125,50.0563 Q607.6875,49.8438 607.6875,49.4688 Q607.6875,49.1688 607.9,48.9813 Q608.1125,48.7938 608.6,48.7938 L610.4375,48.7938 Q610.925,48.7938 611.125,48.9813 Q611.3375,49.1688 611.3375,49.4688 Q611.3375,49.7813 611.125,49.9688 Q610.925,50.1563 610.4375,50.1563 L610.1125,50.1563 L612.075,54.8563 Z " fill="#000000"/><text fill="#000000" font-family="sans-serif" font-size="9.6" font-style="italic" lengthAdjust="spacing" textLength="68" x="621.2" y="48.7703">&#171;Value Object&#187;</text><text fill="#000000" font-family="sans-serif" font-size="11.2" lengthAdjust="spacing" textLength="38.4" x="636" y="63.2656">Gender</text><line style="stroke:#181818;stroke-width:0.4000000000000001;" x1="600.4" x2="689.2" y1="70.0766" y2="70.0766"/><line style="stroke:#181818;stroke-width:0.4000000000000001;" x1="600.4" x2="689.2" y1="76.4766" y2="76.4766"/></g><!--class MedicalRecordNumber--><g id="elem_MedicalRecordNumber"><rect codeLine="7" fill="#F1F1F1" height="48.4656" id="MedicalRecordNumber" rx="2" ry="2" style="stroke:#181818;stroke-width:0.4000000000000001;" width="140" x="431.6" y="34.4109"/><ellipse cx="443.6" cy="52.2438" fill="#F09800" rx="8.8" ry="8.8" style="stroke:#181818;stroke-width:0.8000000000000002;"/><path d="M444.075,54.8563 L446.05,50.1563 L445.7375,50.1563 Q445.25,50.1563 445.0375,49.9688 Q444.825,49.7813 444.825,49.4688 Q444.825,49.1688 445.0375,48.9813 Q445.25,48.7938 445.7375,48.7938 L447.5625,48.7938 Q448.05,48.7938 448.2625,48.9813 Q448.475,49.1688 448.475,49.4688 Q448.475,49.8438 448.15,50.0563 Q448,50.1563 447.525,50.1563 L444.7375,56.8438 L443.425,56.8438 L440.6375,50.1563 Q440.1625,50.1563 440.0125,50.0563 Q439.6875,49.8438 439.6875,49.4688 Q439.6875,49.1688 439.9,48.9813 Q440.1125,48.7938 440.6,48.7938 L442.4375,48.7938 Q442.925,48.7938 443.125,48.9813 Q443.3375,49.1688 443.3375,49.4688 Q443.3375,49.7813 443.125,49.9688 Q442.925,50.1563 442.4375,50.1563 L442.1125,50.1563 L444.075,54.8563 Z " fill="#000000"/><text fill="#000000" font-family="sans-serif" font-size="9.6" font-style="italic" lengthAdjust="spacing" textLength="84" x="470" y="48.7703">&#171;Unique Identifier&#187;</text><text fill="#000000" font-family="sans-serif" font-size="11.2" lengthAdjust="spacing" textLength="114.4" x="454.8" y="63.2656">MedicalRecordNumber</text><line style="stroke:#181818;stroke-width:0.4000000000000001;" x1="432.4" x2="570.8" y1="70.0766" y2="70.0766"/><line style="stroke:#181818;stroke-width:0.4000000000000001;" x1="432.4" x2="570.8" y1="76.4766" y2="76.4766"/></g><!--class DateOfBirth--><g id="elem_DateOfBirth"><rect codeLine="8" fill="#F1F1F1" height="48.4656" id="DateOfBirth" rx="2" ry="2" style="stroke:#181818;stroke-width:0.4000000000000001;" width="90.4" x="313.2" y="34.4109"/><ellipse cx="325.2" cy="52.2438" fill="#F04800" rx="8.8" ry="8.8" style="stroke:#181818;stroke-width:0.8000000000000002;"/><path d="M325.675,54.8563 L327.65,50.1563 L327.3375,50.1563 Q326.85,50.1563 326.6375,49.9688 Q326.425,49.7813 326.425,49.4688 Q326.425,49.1688 326.6375,48.9813 Q326.85,48.7938 327.3375,48.7938 L329.1625,48.7938 Q329.65,48.7938 329.8625,48.9813 Q330.075,49.1688 330.075,49.4688 Q330.075,49.8438 329.75,50.0563 Q329.6,50.1563 329.125,50.1563 L326.3375,56.8438 L325.025,56.8438 L322.2375,50.1563 Q321.7625,50.1563 321.6125,50.0563 Q321.2875,49.8438 321.2875,49.4688 Q321.2875,49.1688 321.5,48.9813 Q321.7125,48.7938 322.2,48.7938 L324.0375,48.7938 Q324.525,48.7938 324.725,48.9813 Q324.9375,49.1688 324.9375,49.4688 Q324.9375,49.7813 324.725,49.9688 Q324.525,50.1563 324.0375,50.1563 L323.7125,50.1563 L325.675,54.8563 Z " fill="#000000"/><text fill="#000000" font-family="sans-serif" font-size="9.6" font-style="italic" lengthAdjust="spacing" textLength="68" x="334.8" y="48.7703">&#171;Value Object&#187;</text><text fill="#000000" font-family="sans-serif" font-size="11.2" lengthAdjust="spacing" textLength="59.2" x="339.2" y="63.2656">DateOfBirth</text><line style="stroke:#181818;stroke-width:0.4000000000000001;" x1="314" x2="402.8" y1="70.0766" y2="70.0766"/><line style="stroke:#181818;stroke-width:0.4000000000000001;" x1="314" x2="402.8" y1="76.4766" y2="76.4766"/></g><!--class MedicalConditions--><g id="elem_MedicalConditions"><rect codeLine="9" fill="#F1F1F1" height="48.4656" id="MedicalConditions" rx="2" ry="2" style="stroke:#181818;stroke-width:0.4000000000000001;" width="117.6" x="167.6" y="34.4109"/><ellipse cx="179.6" cy="52.2438" fill="#F04800" rx="8.8" ry="8.8" style="stroke:#181818;stroke-width:0.8000000000000002;"/><path d="M180.075,54.8563 L182.05,50.1563 L181.7375,50.1563 Q181.25,50.1563 181.0375,49.9688 Q180.825,49.7813 180.825,49.4688 Q180.825,49.1688 181.0375,48.9813 Q181.25,48.7938 181.7375,48.7938 L183.5625,48.7938 Q184.05,48.7938 184.2625,48.9813 Q184.475,49.1688 184.475,49.4688 Q184.475,49.8438 184.15,50.0563 Q184,50.1563 183.525,50.1563 L180.7375,56.8438 L179.425,56.8438 L176.6375,50.1563 Q176.1625,50.1563 176.0125,50.0563 Q175.6875,49.8438 175.6875,49.4688 Q175.6875,49.1688 175.9,48.9813 Q176.1125,48.7938 176.6,48.7938 L178.4375,48.7938 Q178.925,48.7938 179.125,48.9813 Q179.3375,49.1688 179.3375,49.4688 Q179.3375,49.7813 179.125,49.9688 Q178.925,50.1563 178.4375,50.1563 L178.1125,50.1563 L180.075,54.8563 Z " fill="#000000"/><text fill="#000000" font-family="sans-serif" font-size="9.6" font-style="italic" lengthAdjust="spacing" textLength="68" x="202.8" y="48.7703">&#171;Value Object&#187;</text><text fill="#000000" font-family="sans-serif" font-size="11.2" lengthAdjust="spacing" textLength="92" x="190.8" y="63.2656">MedicalConditions</text><line style="stroke:#181818;stroke-width:0.4000000000000001;" x1="168.4" x2="284.4" y1="70.0766" y2="70.0766"/><line style="stroke:#181818;stroke-width:0.4000000000000001;" x1="168.4" x2="284.4" y1="76.4766" y2="76.4766"/></g><!--class EmergencyContact--><g id="elem_EmergencyContact"><rect codeLine="10" fill="#F1F1F1" height="48.4656" id="EmergencyContact" rx="2" ry="2" style="stroke:#181818;stroke-width:0.4000000000000001;" width="121.6" x="17.6" y="34.4109"/><ellipse cx="29.6" cy="52.2438" fill="#F04800" rx="8.8" ry="8.8" style="stroke:#181818;stroke-width:0.8000000000000002;"/><path d="M30.075,54.8563 L32.05,50.1563 L31.7375,50.1563 Q31.25,50.1563 31.0375,49.9688 Q30.825,49.7813 30.825,49.4688 Q30.825,49.1688 31.0375,48.9813 Q31.25,48.7938 31.7375,48.7938 L33.5625,48.7938 Q34.05,48.7938 34.2625,48.9813 Q34.475,49.1688 34.475,49.4688 Q34.475,49.8438 34.15,50.0563 Q34,50.1563 33.525,50.1563 L30.7375,56.8438 L29.425,56.8438 L26.6375,50.1563 Q26.1625,50.1563 26.0125,50.0563 Q25.6875,49.8438 25.6875,49.4688 Q25.6875,49.1688 25.9,48.9813 Q26.1125,48.7938 26.6,48.7938 L28.4375,48.7938 Q28.925,48.7938 29.125,48.9813 Q29.3375,49.1688 29.3375,49.4688 Q29.3375,49.7813 29.125,49.9688 Q28.925,50.1563 28.4375,50.1563 L28.1125,50.1563 L30.075,54.8563 Z " fill="#000000"/><text fill="#000000" font-family="sans-serif" font-size="9.6" font-style="italic" lengthAdjust="spacing" textLength="68" x="54.8" y="48.7703">&#171;Value Object&#187;</text><text fill="#000000" font-family="sans-serif" font-size="11.2" lengthAdjust="spacing" textLength="96" x="40.8" y="63.2656">EmergencyContact</text><line style="stroke:#181818;stroke-width:0.4000000000000001;" x1="18.4" x2="138.4" y1="70.0766" y2="70.0766"/><line style="stroke:#181818;stroke-width:0.4000000000000001;" x1="18.4" x2="138.4" y1="76.4766" y2="76.4766"/></g><!--class EmailAddress--><g id="elem_EmailAddress"><rect codeLine="11" fill="#F1F1F1" height="48.4656" id="EmailAddress" rx="2" ry="2" style="stroke:#181818;stroke-width:0.4000000000000001;" width="94.4" x="72.8" y="373.6109"/><ellipse cx="84.8" cy="391.4438" fill="#F04800" rx="8.8" ry="8.8" style="stroke:#181818;stroke-width:0.8000000000000002;"/><path d="M85.275,394.0563 L87.25,389.3563 L86.9375,389.3563 Q86.45,389.3563 86.2375,389.1688 Q86.025,388.9813 86.025,388.6688 Q86.025,388.3688 86.2375,388.1813 Q86.45,387.9938 86.9375,387.9938 L88.7625,387.9938 Q89.25,387.9938 89.4625,388.1813 Q89.675,388.3688 89.675,388.6688 Q89.675,389.0438 89.35,389.2563 Q89.2,389.3563 88.725,389.3563 L85.9375,396.0438 L84.625,396.0438 L81.8375,389.3563 Q81.3625,389.3563 81.2125,389.2563 Q80.8875,389.0438 80.8875,388.6688 Q80.8875,388.3688 81.1,388.1813 Q81.3125,387.9938 81.8,387.9938 L83.6375,387.9938 Q84.125,387.9938 84.325,388.1813 Q84.5375,388.3688 84.5375,388.6688 Q84.5375,388.9813 84.325,389.1688 Q84.125,389.3563 83.6375,389.3563 L83.3125,389.3563 L85.275,394.0563 Z " fill="#000000"/><text fill="#000000" font-family="sans-serif" font-size="9.6" font-style="italic" lengthAdjust="spacing" textLength="68" x="96.4" y="387.9703">&#171;Value Object&#187;</text><text fill="#000000" font-family="sans-serif" font-size="11.2" lengthAdjust="spacing" textLength="68.8" x="96" y="402.4656">EmailAddress</text><line style="stroke:#181818;stroke-width:0.4000000000000001;" x1="73.6" x2="166.4" y1="409.2766" y2="409.2766"/><line style="stroke:#181818;stroke-width:0.4000000000000001;" x1="73.6" x2="166.4" y1="415.6766" y2="415.6766"/></g><!--class PhoneNumber--><g id="elem_PhoneNumber"><rect codeLine="12" fill="#F1F1F1" height="48.4656" id="PhoneNumber" rx="2" ry="2" style="stroke:#181818;stroke-width:0.4000000000000001;" width="97.6" x="195.2" y="373.6109"/><ellipse cx="207.2" cy="391.4438" fill="#F04800" rx="8.8" ry="8.8" style="stroke:#181818;stroke-width:0.8000000000000002;"/><path d="M207.675,394.0563 L209.65,389.3563 L209.3375,389.3563 Q208.85,389.3563 208.6375,389.1688 Q208.425,388.9813 208.425,388.6688 Q208.425,388.3688 208.6375,388.1813 Q208.85,387.9938 209.3375,387.9938 L211.1625,387.9938 Q211.65,387.9938 211.8625,388.1813 Q212.075,388.3688 212.075,388.6688 Q212.075,389.0438 211.75,389.2563 Q211.6,389.3563 211.125,389.3563 L208.3375,396.0438 L207.025,396.0438 L204.2375,389.3563 Q203.7625,389.3563 203.6125,389.2563 Q203.2875,389.0438 203.2875,388.6688 Q203.2875,388.3688 203.5,388.1813 Q203.7125,387.9938 204.2,387.9938 L206.0375,387.9938 Q206.525,387.9938 206.725,388.1813 Q206.9375,388.3688 206.9375,388.6688 Q206.9375,388.9813 206.725,389.1688 Q206.525,389.3563 206.0375,389.3563 L205.7125,389.3563 L207.675,394.0563 Z " fill="#000000"/><text fill="#000000" font-family="sans-serif" font-size="9.6" font-style="italic" lengthAdjust="spacing" textLength="68" x="220.4" y="387.9703">&#171;Value Object&#187;</text><text fill="#000000" font-family="sans-serif" font-size="11.2" lengthAdjust="spacing" textLength="72" x="218.4" y="402.4656">PhoneNumber</text><line style="stroke:#181818;stroke-width:0.4000000000000001;" x1="196" x2="292" y1="409.2766" y2="409.2766"/><line style="stroke:#181818;stroke-width:0.4000000000000001;" x1="196" x2="292" y1="415.6766" y2="415.6766"/></g><!--class ContactInformation--><g id="elem_ContactInformation"><rect codeLine="16" fill="#F1F1F1" height="48.4656" id="ContactInformation" rx="2" ry="2" style="stroke:#181818;stroke-width:0.4000000000000001;" width="120.8" x="110" y="228.0109"/><ellipse cx="122" cy="245.8438" fill="#ADD1B2" rx="8.8" ry="8.8" style="stroke:#181818;stroke-width:0.8000000000000002;"/><path d="M121.0875,246.4813 L121.0875,248.4813 L124.55,248.4813 L124.55,247.7438 Q124.55,247.2563 124.7375,247.0438 Q124.9375,246.8313 125.2375,246.8313 Q125.5375,246.8313 125.725,247.0438 Q125.9125,247.2563 125.9125,247.7438 L125.9125,249.8438 L119.5125,249.8438 Q119.0125,249.8438 118.8,249.6563 Q118.6,249.4688 118.6,249.1563 Q118.6,248.8563 118.8125,248.6688 Q119.025,248.4813 119.5125,248.4813 L119.725,248.4813 L119.725,243.1563 L119.5125,243.1563 Q119.0125,243.1563 118.8,242.9688 Q118.6,242.7813 118.6,242.4688 Q118.6,242.1688 118.8,241.9813 Q119.0125,241.7938 119.5125,241.7938 L125.6125,241.7938 L125.6125,243.8688 Q125.6125,244.3563 125.425,244.5688 Q125.25,244.7688 124.9375,244.7688 Q124.6375,244.7688 124.45,244.5688 Q124.2625,244.3563 124.2625,243.8688 L124.2625,243.1563 L121.0875,243.1563 L121.0875,245.1188 L122.275,245.1188 Q122.275,244.5938 122.375,244.4438 Q122.5875,244.1188 122.9625,244.1188 Q123.2625,244.1188 123.45,244.3313 Q123.6375,244.5313 123.6375,245.0188 L123.6375,246.5938 Q123.6375,247.0313 123.5375,247.1813 Q123.325,247.4938 122.9625,247.4938 Q122.5875,247.4938 122.375,247.1688 Q122.275,247.0188 122.275,246.4813 L121.0875,246.4813 Z " fill="#000000"/><text fill="#000000" font-family="sans-serif" font-size="9.6" font-style="italic" lengthAdjust="spacing" textLength="35.2" x="163.2" y="242.3703">&#171;Entity&#187;</text><text fill="#000000" font-family="sans-serif" font-size="11.2" lengthAdjust="spacing" textLength="95.2" x="133.2" y="256.8656">ContactInformation</text><line style="stroke:#181818;stroke-width:0.4000000000000001;" x1="110.8" x2="230" y1="263.6766" y2="263.6766"/><line style="stroke:#181818;stroke-width:0.4000000000000001;" x1="110.8" x2="230" y1="270.0766" y2="270.0766"/></g><!--class FirstName--><g id="elem_FirstName"><rect codeLine="18" fill="#F1F1F1" height="48.4656" id="FirstName" rx="2" ry="2" style="stroke:#181818;stroke-width:0.4000000000000001;" width="90.4" x="258.8" y="228.0109"/><ellipse cx="270.8" cy="245.8438" fill="#F04800" rx="8.8" ry="8.8" style="stroke:#181818;stroke-width:0.8000000000000002;"/><path d="M271.275,248.4563 L273.25,243.7563 L272.9375,243.7563 Q272.45,243.7563 272.2375,243.5688 Q272.025,243.3813 272.025,243.0688 Q272.025,242.7688 272.2375,242.5813 Q272.45,242.3938 272.9375,242.3938 L274.7625,242.3938 Q275.25,242.3938 275.4625,242.5813 Q275.675,242.7688 275.675,243.0688 Q275.675,243.4438 275.35,243.6563 Q275.2,243.7563 274.725,243.7563 L271.9375,250.4438 L270.625,250.4438 L267.8375,243.7563 Q267.3625,243.7563 267.2125,243.6563 Q266.8875,243.4438 266.8875,243.0688 Q266.8875,242.7688 267.1,242.5813 Q267.3125,242.3938 267.8,242.3938 L269.6375,242.3938 Q270.125,242.3938 270.325,242.5813 Q270.5375,242.7688 270.5375,243.0688 Q270.5375,243.3813 270.325,243.5688 Q270.125,243.7563 269.6375,243.7563 L269.3125,243.7563 L271.275,248.4563 Z " fill="#000000"/><text fill="#000000" font-family="sans-serif" font-size="9.6" font-style="italic" lengthAdjust="spacing" textLength="68" x="280.4" y="242.3703">&#171;Value Object&#187;</text><text fill="#000000" font-family="sans-serif" font-size="11.2" lengthAdjust="spacing" textLength="51.2" x="288.8" y="256.8656">FirstName</text><line style="stroke:#181818;stroke-width:0.4000000000000001;" x1="259.6" x2="348.4" y1="263.6766" y2="263.6766"/><line style="stroke:#181818;stroke-width:0.4000000000000001;" x1="259.6" x2="348.4" y1="270.0766" y2="270.0766"/></g><!--class LastName--><g id="elem_LastName"><rect codeLine="19" fill="#F1F1F1" height="48.4656" id="LastName" rx="2" ry="2" style="stroke:#181818;stroke-width:0.4000000000000001;" width="90.4" x="377.2" y="228.0109"/><ellipse cx="389.2" cy="245.8438" fill="#F04800" rx="8.8" ry="8.8" style="stroke:#181818;stroke-width:0.8000000000000002;"/><path d="M389.675,248.4563 L391.65,243.7563 L391.3375,243.7563 Q390.85,243.7563 390.6375,243.5688 Q390.425,243.3813 390.425,243.0688 Q390.425,242.7688 390.6375,242.5813 Q390.85,242.3938 391.3375,242.3938 L393.1625,242.3938 Q393.65,242.3938 393.8625,242.5813 Q394.075,242.7688 394.075,243.0688 Q394.075,243.4438 393.75,243.6563 Q393.6,243.7563 393.125,243.7563 L390.3375,250.4438 L389.025,250.4438 L386.2375,243.7563 Q385.7625,243.7563 385.6125,243.6563 Q385.2875,243.4438 385.2875,243.0688 Q385.2875,242.7688 385.5,242.5813 Q385.7125,242.3938 386.2,242.3938 L388.0375,242.3938 Q388.525,242.3938 388.725,242.5813 Q388.9375,242.7688 388.9375,243.0688 Q388.9375,243.3813 388.725,243.5688 Q388.525,243.7563 388.0375,243.7563 L387.7125,243.7563 L389.675,248.4563 Z " fill="#000000"/><text fill="#000000" font-family="sans-serif" font-size="9.6" font-style="italic" lengthAdjust="spacing" textLength="68" x="398.8" y="242.3703">&#171;Value Object&#187;</text><text fill="#000000" font-family="sans-serif" font-size="11.2" lengthAdjust="spacing" textLength="50.4" x="407.6" y="256.8656">LastName</text><line style="stroke:#181818;stroke-width:0.4000000000000001;" x1="378" x2="466.8" y1="263.6766" y2="263.6766"/><line style="stroke:#181818;stroke-width:0.4000000000000001;" x1="378" x2="466.8" y1="270.0766" y2="270.0766"/></g><!--class FullName--><g id="elem_FullName"><rect codeLine="20" fill="#F1F1F1" height="48.4656" id="FullName" rx="2" ry="2" style="stroke:#181818;stroke-width:0.4000000000000001;" width="90.4" x="495.6" y="228.0109"/><ellipse cx="507.6" cy="245.8438" fill="#F04800" rx="8.8" ry="8.8" style="stroke:#181818;stroke-width:0.8000000000000002;"/><path d="M508.075,248.4563 L510.05,243.7563 L509.7375,243.7563 Q509.25,243.7563 509.0375,243.5688 Q508.825,243.3813 508.825,243.0688 Q508.825,242.7688 509.0375,242.5813 Q509.25,242.3938 509.7375,242.3938 L511.5625,242.3938 Q512.05,242.3938 512.2625,242.5813 Q512.475,242.7688 512.475,243.0688 Q512.475,243.4438 512.15,243.6563 Q512,243.7563 511.525,243.7563 L508.7375,250.4438 L507.425,250.4438 L504.6375,243.7563 Q504.1625,243.7563 504.0125,243.6563 Q503.6875,243.4438 503.6875,243.0688 Q503.6875,242.7688 503.9,242.5813 Q504.1125,242.3938 504.6,242.3938 L506.4375,242.3938 Q506.925,242.3938 507.125,242.5813 Q507.3375,242.7688 507.3375,243.0688 Q507.3375,243.3813 507.125,243.5688 Q506.925,243.7563 506.4375,243.7563 L506.1125,243.7563 L508.075,248.4563 Z " fill="#000000"/><text fill="#000000" font-family="sans-serif" font-size="9.6" font-style="italic" lengthAdjust="spacing" textLength="68" x="517.2" y="242.3703">&#171;Value Object&#187;</text><text fill="#000000" font-family="sans-serif" font-size="11.2" lengthAdjust="spacing" textLength="47.2" x="527.6" y="256.8656">FullName</text><line style="stroke:#181818;stroke-width:0.4000000000000001;" x1="496.4" x2="585.2" y1="263.6766" y2="263.6766"/><line style="stroke:#181818;stroke-width:0.4000000000000001;" x1="496.4" x2="585.2" y1="270.0766" y2="270.0766"/></g><!--reverse link ContactInformation to EmailAddress--><g id="link_ContactInformation_EmailAddress"><path codeLine="22" d="M158.9068,286.0473 C149.5628,312.7273 137.68,346.6989 128.336,373.3949 " fill="none" id="ContactInformation-backto-EmailAddress" style="stroke:#181818;stroke-width:0.8000000000000002;"/><polygon fill="#181818" points="162.08,276.9869,157.4733,280.4594,158.9068,286.0473,163.5135,282.5749,162.08,276.9869" style="stroke:#181818;stroke-width:0.8000000000000002;"/><text fill="#000000" font-family="sans-serif" font-size="10.4" lengthAdjust="spacing" textLength="5.6" x="154.4298" y="294.0468">1</text><text fill="#000000" font-family="sans-serif" font-size="10.4" lengthAdjust="spacing" textLength="5.6" x="123.8778" y="364.5965">1</text></g><!--reverse link ContactInformation to PhoneNumber--><g id="link_ContactInformation_PhoneNumber"><path codeLine="23" d="M186.922,285.5346 C200.562,312.2146 218.184,346.6989 231.832,373.3949 " fill="none" id="ContactInformation-backto-PhoneNumber" style="stroke:#181818;stroke-width:0.8000000000000002;"/><polygon fill="#181818" points="182.552,276.9869,181.8877,282.7174,186.922,285.5346,187.5862,279.8041,182.552,276.9869" style="stroke:#181818;stroke-width:0.8000000000000002;"/><text fill="#000000" font-family="sans-serif" font-size="10.4" lengthAdjust="spacing" textLength="5.6" x="178.6763" y="294.0468">1</text><text fill="#000000" font-family="sans-serif" font-size="10.4" lengthAdjust="spacing" textLength="5.6" x="223.1449" y="364.5965">1</text></g><!--reverse link Patient to FirstName--><g id="link_Patient_FirstName"><path codeLine="27" d="M340.0526,188.5218 C331.7406,203.0658 325.912,213.2589 317.6,227.8029 " fill="none" id="Patient-backto-FirstName" style="stroke:#181818;stroke-width:0.8000000000000002;"/><polygon fill="#181818" points="344.816,180.1869,339.656,182.7666,340.0526,188.5218,345.2126,185.9422,344.816,180.1869" style="stroke:#181818;stroke-width:0.8000000000000002;"/><text fill="#000000" font-family="sans-serif" font-size="10.4" lengthAdjust="spacing" textLength="5.6" x="336.1952" y="197.2468">1</text><text fill="#000000" font-family="sans-serif" font-size="10.4" lengthAdjust="spacing" textLength="5.6" x="314.2275" y="219.0062">1</text></g><!--reverse link Patient to LastName--><g id="link_Patient_LastName"><path codeLine="28" d="M379.7394,188.1543 C389.5154,202.6983 396.616,213.2589 406.4,227.8029 " fill="none" id="Patient-backto-LastName" style="stroke:#181818;stroke-width:0.8000000000000002;"/><polygon fill="#181818" points="374.384,180.1869,374.4059,185.9558,379.7394,188.1543,379.7175,182.3855,374.384,180.1869" style="stroke:#181818;stroke-width:0.8000000000000002;"/><text fill="#000000" font-family="sans-serif" font-size="10.4" lengthAdjust="spacing" textLength="5.6" x="371.2148" y="197.2468">1</text><text fill="#000000" font-family="sans-serif" font-size="10.4" lengthAdjust="spacing" textLength="5.6" x="396.9225" y="219.0062">1</text></g><!--reverse link Patient to FullName--><g id="link_Patient_FullName"><path codeLine="29" d="M407.3908,181.9804 C435.9348,196.8764 465.696,212.4109 495.304,227.8669 " fill="none" id="Patient-backto-FullName" style="stroke:#181818;stroke-width:0.8000000000000002;"/><polygon fill="#181818" points="398.88,177.5389,401.6549,182.5966,407.3908,181.9804,404.6159,176.9227,398.88,177.5389" style="stroke:#181818;stroke-width:0.8000000000000002;"/><text fill="#000000" font-family="sans-serif" font-size="10.4" lengthAdjust="spacing" textLength="5.6" x="405.2368" y="177.4252">1</text><text fill="#000000" font-family="sans-serif" font-size="10.4" lengthAdjust="spacing" textLength="5.6" x="483.5161" y="221.51">1</text></g><!--reverse link Patient to ContactInformation--><g id="link_Patient_ContactInformation"><path codeLine="30" d="M309.2763,181.2855 C279.7003,196.2695 248.12,212.2589 217.184,227.9229 " fill="none" id="Patient-backto-ContactInformation" style="stroke:#181818;stroke-width:0.8000000000000002;"/><polygon fill="#181818" points="317.84,176.9469,312.112,176.2617,309.2763,181.2855,315.0044,181.9708,317.84,176.9469" style="stroke:#181818;stroke-width:0.8000000000000002;"/><text fill="#000000" font-family="sans-serif" font-size="10.4" lengthAdjust="spacing" textLength="5.6" x="305.8715" y="176.7462">1</text><text fill="#000000" font-family="sans-serif" font-size="10.4" lengthAdjust="spacing" textLength="5.6" x="220.6557" y="219.1509">1</text></g><!--link Gender to Patient--><g id="link_Gender_Patient"><path codeLine="31" d="M599.36,78.1229 C594.728,79.8909 590.08,81.6109 585.6,83.2109 C520.928,106.2589 453.8062,126.8014 408.1262,140.3054 " fill="none" id="Gender-to-Patient" style="stroke:#181818;stroke-width:0.8000000000000002;"/><polygon fill="#181818" points="398.92,143.0269,404.4303,144.7349,408.1262,140.3054,402.6159,138.5975,398.92,143.0269" style="stroke:#181818;stroke-width:0.8000000000000002;"/><text fill="#000000" font-family="sans-serif" font-size="10.4" lengthAdjust="spacing" textLength="5.6" x="587.5793" y="77.385">1</text><text fill="#000000" font-family="sans-serif" font-size="10.4" lengthAdjust="spacing" textLength="5.6" x="405.2826" y="137.8442">1</text></g><!--link MedicalRecordNumber to Patient--><g id="link_MedicalRecordNumber_Patient"><path codeLine="32" d="M465.832,83.3869 C443.88,97.9789 423.8664,111.2879 401.9544,125.8559 " fill="none" id="MedicalRecordNumber-to-Patient" style="stroke:#181818;stroke-width:0.8000000000000002;"/><polygon fill="#181818" points="393.96,131.1709,399.7289,131.1782,401.9544,125.8559,396.1855,125.8486,393.96,131.1709" style="stroke:#181818;stroke-width:0.8000000000000002;"/><text fill="#000000" font-family="sans-serif" font-size="10.4" lengthAdjust="spacing" textLength="5.6" x="453.121" y="100.4468">1</text><text fill="#000000" font-family="sans-serif" font-size="10.4" lengthAdjust="spacing" textLength="5.6" x="395.5263" y="122.0219">1</text></g><!--link DateOfBirth to Patient--><g id="link_DateOfBirth_Patient"><path codeLine="33" d="M358.4,83.3869 C358.4,97.9309 358.4,106.8589 358.4,121.4029 " fill="none" id="DateOfBirth-to-Patient" style="stroke:#181818;stroke-width:0.8000000000000002;"/><polygon fill="#181818" points="358.4,131.0029,361.6,126.2029,358.4,121.4029,355.2,126.2029,358.4,131.0029" style="stroke:#181818;stroke-width:0.8000000000000002;"/><text fill="#000000" font-family="sans-serif" font-size="10.4" lengthAdjust="spacing" textLength="5.6" x="352.2838" y="100.4468">1</text><text fill="#000000" font-family="sans-serif" font-size="10.4" lengthAdjust="spacing" textLength="5.6" x="352.2225" y="122.2062">1</text></g><!--link MedicalConditions to Patient--><g id="link_MedicalConditions_Patient"><path codeLine="34" d="M259.368,83.3869 C279.608,97.9789 297.6377,110.9875 317.8377,125.5555 " fill="none" id="MedicalConditions-to-Patient" style="stroke:#181818;stroke-width:0.8000000000000002;"/><polygon fill="#181818" points="325.624,131.1709,323.6026,125.7678,317.8377,125.5555,319.859,130.9587,325.624,131.1709" style="stroke:#181818;stroke-width:0.8000000000000002;"/><text fill="#000000" font-family="sans-serif" font-size="10.4" lengthAdjust="spacing" textLength="4" x="261.0777" y="100.4468">*</text><text fill="#000000" font-family="sans-serif" font-size="10.4" lengthAdjust="spacing" textLength="5.6" x="312.2418" y="122.0219">1</text></g><!--link EmergencyContact to Patient--><g id="link_EmergencyContact_Patient"><path codeLine="35" d="M139.504,80.3869 C193.648,98.7949 262.0868,122.0651 308.8708,137.9691 " fill="none" id="EmergencyContact-to-Patient" style="stroke:#181818;stroke-width:0.8000000000000002;"/><polygon fill="#181818" points="317.96,141.0589,314.4454,136.4843,308.8708,137.9691,312.3855,142.5438,317.96,141.0589" style="stroke:#181818;stroke-width:0.8000000000000002;"/><text fill="#000000" font-family="sans-serif" font-size="10.4" lengthAdjust="spacing" textLength="5.6" x="145.5949" y="79.445">1</text><text fill="#000000" font-family="sans-serif" font-size="10.4" lengthAdjust="spacing" textLength="5.6" x="306.0091" y="135.5872">1</text></g><!--SRC=[bPD1Qy8m583l_HMXkqnPeOCTDf22StO8cnPXtcFoMhEboPQc1v7zzyMqrQWjipa5ydqlxxta9PXyuGnGWZK3eSTPfY336j3EGsPDXMPwsvoYqUXsTNSJcXN70xIKKjT45Er-FMjCE2uAz0g2WghvD7nu3CC1Mc5U0bgiFu7eA4B6E0hlG1d1V0b4AZelyxLZFrdxGx0Vey-eIOIb3DHvY1UJzY9zPafl-byyaO8opQGeUhZJ75G6WcoDhJ7HlLJC-9XI1KMV6vED573MdYxByzmdh5ESYLIg7EyhDG6QnqEdhnSpLUWvpg57Pc-ujnANd5-bLCvb0VwzZuP14DYDsz6h1AUNJQ-EXU-1eFmEXXLQ_N_B70hjHWw5TICToRN3zJHPeEMuRNQwM7T8_eddZ8G_R2Sl1g0jf6U_elS7]--></g></svg>