<?xml version="1.0" encoding="us-ascii" standalone="no"?><svg xmlns="http://www.w3.org/2000/svg" xmlns:xlink="http://www.w3.org/1999/xlink" contentStyleType="text/css" height="636px" preserveAspectRatio="none" style="width:1451px;height:636px;background:#FFFFFF;" version="1.1" viewBox="0 0 1451 636" width="1451px" zoomAndPan="magnify"><defs/><g><text fill="#000000" font-family="sans-serif" font-size="14" font-weight="bold" lengthAdjust="spacing" textLength="210" x="619.75" y="27.9951">Sequence Diagram - US 18</text><rect fill="#FFFFFF" height="478.125" style="stroke:#181818;stroke-width:1.0;" width="10" x="163" y="104.7266"/><rect fill="#FFFFFF" height="419.8594" style="stroke:#181818;stroke-width:1.0;" width="10" x="414" y="133.8594"/><rect fill="#FFFFFF" height="317.4922" style="stroke:#181818;stroke-width:1.0;" width="10" x="665" y="207.0938"/><rect fill="#FFFFFF" height="29.1328" style="stroke:#181818;stroke-width:1.0;" width="10" x="878" y="236.2266"/><rect fill="#FFFFFF" height="14" style="stroke:#181818;stroke-width:1.0;" width="10" x="878" y="411.0234"/><rect fill="#FFFFFF" height="29.1328" style="stroke:#181818;stroke-width:1.0;" width="10" x="1054.5" y="294.4922"/><rect fill="#FFFFFF" height="29.1328" style="stroke:#181818;stroke-width:1.0;" width="10" x="1191" y="352.7578"/><rect fill="#FFFFFF" height="31.2969" style="stroke:#181818;stroke-width:1.0;" width="10" x="1354.5" y="464.1563"/><line style="stroke:#181818;stroke-width:0.5;stroke-dasharray:5.0,5.0;" x1="168" x2="168" y1="73.5938" y2="600.8516"/><line style="stroke:#181818;stroke-width:0.5;stroke-dasharray:5.0,5.0;" x1="419" x2="419" y1="73.5938" y2="600.8516"/><line style="stroke:#181818;stroke-width:0.5;stroke-dasharray:5.0,5.0;" x1="669.5" x2="669.5" y1="73.5938" y2="600.8516"/><line style="stroke:#181818;stroke-width:0.5;stroke-dasharray:5.0,5.0;" x1="882.5" x2="882.5" y1="73.5938" y2="600.8516"/><line style="stroke:#181818;stroke-width:0.5;stroke-dasharray:5.0,5.0;" x1="1059.5" x2="1059.5" y1="73.5938" y2="600.8516"/><line style="stroke:#181818;stroke-width:0.5;stroke-dasharray:5.0,5.0;" x1="1195.5" x2="1195.5" y1="73.5938" y2="600.8516"/><line style="stroke:#181818;stroke-width:0.5;stroke-dasharray:5.0,5.0;" x1="1359.5" x2="1359.5" y1="463.6719" y2="600.8516"/><rect fill="#E2E2F0" height="30.2969" rx="2.5" ry="2.5" style="stroke:#181818;stroke-width:0.5;" width="68" x="134" y="42.2969"/><text fill="#000000" font-family="sans-serif" font-size="14" lengthAdjust="spacing" textLength="54" x="141" y="62.292">Routing</text><rect fill="#E2E2F0" height="30.2969" rx="2.5" ry="2.5" style="stroke:#181818;stroke-width:0.5;" width="68" x="134" y="599.8516"/><text fill="#000000" font-family="sans-serif" font-size="14" lengthAdjust="spacing" textLength="54" x="141" y="619.8467">Routing</text><rect fill="#E2E2F0" height="30.2969" rx="2.5" ry="2.5" style="stroke:#181818;stroke-width:0.5;" width="266" x="286" y="42.2969"/><text fill="#000000" font-family="sans-serif" font-size="14" lengthAdjust="spacing" textLength="252" x="293" y="62.292">RegisterOperationRequestController</text><rect fill="#E2E2F0" height="30.2969" rx="2.5" ry="2.5" style="stroke:#181818;stroke-width:0.5;" width="266" x="286" y="599.8516"/><text fill="#000000" font-family="sans-serif" font-size="14" lengthAdjust="spacing" textLength="252" x="293" y="619.8467">RegisterOperationRequestController</text><rect fill="#E2E2F0" height="30.2969" rx="2.5" ry="2.5" style="stroke:#181818;stroke-width:0.5;" width="191" x="574.5" y="42.2969"/><text fill="#000000" font-family="sans-serif" font-size="14" lengthAdjust="spacing" textLength="177" x="581.5" y="62.292">OperationRequestService</text><rect fill="#E2E2F0" height="30.2969" rx="2.5" ry="2.5" style="stroke:#181818;stroke-width:0.5;" width="191" x="574.5" y="599.8516"/><text fill="#000000" font-family="sans-serif" font-size="14" lengthAdjust="spacing" textLength="177" x="581.5" y="619.8467">OperationRequestService</text><rect fill="#E2E2F0" height="30.2969" rx="2.5" ry="2.5" style="stroke:#181818;stroke-width:0.5;" width="215" x="775.5" y="42.2969"/><text fill="#000000" font-family="sans-serif" font-size="14" lengthAdjust="spacing" textLength="201" x="782.5" y="62.292">OperationRequestRepository</text><rect fill="#E2E2F0" height="30.2969" rx="2.5" ry="2.5" style="stroke:#181818;stroke-width:0.5;" width="215" x="775.5" y="599.8516"/><text fill="#000000" font-family="sans-serif" font-size="14" lengthAdjust="spacing" textLength="201" x="782.5" y="619.8467">OperationRequestRepository</text><rect fill="#E2E2F0" height="30.2969" rx="2.5" ry="2.5" style="stroke:#181818;stroke-width:0.5;" width="118" x="1000.5" y="42.2969"/><text fill="#000000" font-family="sans-serif" font-size="14" lengthAdjust="spacing" textLength="104" x="1007.5" y="62.292">StaffRepository</text><rect fill="#E2E2F0" height="30.2969" rx="2.5" ry="2.5" style="stroke:#181818;stroke-width:0.5;" width="118" x="1000.5" y="599.8516"/><text fill="#000000" font-family="sans-serif" font-size="14" lengthAdjust="spacing" textLength="104" x="1007.5" y="619.8467">StaffRepository</text><rect fill="#E2E2F0" height="30.2969" rx="2.5" ry="2.5" style="stroke:#181818;stroke-width:0.5;" width="135" x="1128.5" y="42.2969"/><text fill="#000000" font-family="sans-serif" font-size="14" lengthAdjust="spacing" textLength="121" x="1135.5" y="62.292">DoctorRepository</text><rect fill="#E2E2F0" height="30.2969" rx="2.5" ry="2.5" style="stroke:#181818;stroke-width:0.5;" width="135" x="1128.5" y="599.8516"/><text fill="#000000" font-family="sans-serif" font-size="14" lengthAdjust="spacing" textLength="121" x="1135.5" y="619.8467">DoctorRepository</text><rect fill="#E2E2F0" height="30.2969" rx="2.5" ry="2.5" style="stroke:#181818;stroke-width:0.5;" width="172" x="1273.5" y="599.8516"/><text fill="#000000" font-family="sans-serif" font-size="14" lengthAdjust="spacing" textLength="158" x="1280.5" y="619.8467">OperationRequestDTO</text><rect fill="#FFFFFF" height="478.125" style="stroke:#181818;stroke-width:1.0;" width="10" x="163" y="104.7266"/><rect fill="#FFFFFF" height="419.8594" style="stroke:#181818;stroke-width:1.0;" width="10" x="414" y="133.8594"/><rect fill="#FFFFFF" height="317.4922" style="stroke:#181818;stroke-width:1.0;" width="10" x="665" y="207.0938"/><rect fill="#FFFFFF" height="29.1328" style="stroke:#181818;stroke-width:1.0;" width="10" x="878" y="236.2266"/><rect fill="#FFFFFF" height="14" style="stroke:#181818;stroke-width:1.0;" width="10" x="878" y="411.0234"/><rect fill="#FFFFFF" height="29.1328" style="stroke:#181818;stroke-width:1.0;" width="10" x="1054.5" y="294.4922"/><rect fill="#FFFFFF" height="29.1328" style="stroke:#181818;stroke-width:1.0;" width="10" x="1191" y="352.7578"/><rect fill="#FFFFFF" height="31.2969" style="stroke:#181818;stroke-width:1.0;" width="10" x="1354.5" y="464.1563"/><polygon fill="#181818" points="151,100.7266,161,104.7266,151,108.7266,155,104.7266" style="stroke:#181818;stroke-width:1.0;"/><line style="stroke:#181818;stroke-width:1.0;" x1="0" x2="157" y1="104.7266" y2="104.7266"/><text fill="#000000" font-family="sans-serif" font-size="13" lengthAdjust="spacing" textLength="144" x="7" y="99.6606">DELETE(id, authToken)</text><polygon fill="#181818" points="402,129.8594,412,133.8594,402,137.8594,406,133.8594" style="stroke:#181818;stroke-width:1.0;"/><line style="stroke:#181818;stroke-width:1.0;" x1="173" x2="408" y1="133.8594" y2="133.8594"/><text fill="#000000" font-family="sans-serif" font-size="13" lengthAdjust="spacing" textLength="222" x="180" y="128.7935">DeleteOperationRequest(id, token)</text><rect fill="none" height="39.1016" style="stroke:#000000;stroke-width:1.5;" width="272" x="283" y="141.8594"/><path d="M283,141.8594 L349,141.8594 L349,148.8594 L339,158.8594 L283,158.8594 L283,141.8594 " fill="#EEEEEE" style="stroke:#000000;stroke-width:2.0;"/><text fill="#000000" font-family="sans-serif" font-size="13" font-weight="bold" lengthAdjust="spacing" textLength="21" x="296" y="155.9263">ref</text><text fill="#000000" font-family="sans-serif" font-size="12" lengthAdjust="spacing" textLength="155" x="341.5" y="173.998">Refer to generic auth SD</text><polygon fill="#181818" points="653,203.0938,663,207.0938,653,211.0938,657,207.0938" style="stroke:#181818;stroke-width:1.0;"/><line style="stroke:#181818;stroke-width:1.0;" x1="424" x2="659" y1="207.0938" y2="207.0938"/><text fill="#000000" font-family="sans-serif" font-size="13" lengthAdjust="spacing" textLength="222" x="431" y="202.0278">DeleteOperationRequest(id, token)</text><polygon fill="#181818" points="866,232.2266,876,236.2266,866,240.2266,870,236.2266" style="stroke:#181818;stroke-width:1.0;"/><line style="stroke:#181818;stroke-width:1.0;" x1="675" x2="872" y1="236.2266" y2="236.2266"/><text fill="#000000" font-family="sans-serif" font-size="13" lengthAdjust="spacing" textLength="123" x="682" y="231.1606">GetRequestById(Id)</text><polygon fill="#181818" points="686,261.3594,676,265.3594,686,269.3594,682,265.3594" style="stroke:#181818;stroke-width:1.0;"/><line style="stroke:#181818;stroke-width:1.0;stroke-dasharray:2.0,2.0;" x1="680" x2="882" y1="265.3594" y2="265.3594"/><text fill="#000000" font-family="sans-serif" font-size="13" lengthAdjust="spacing" textLength="115" x="692" y="260.2935">OperationRequest</text><polygon fill="#181818" points="1042.5,290.4922,1052.5,294.4922,1042.5,298.4922,1046.5,294.4922" style="stroke:#181818;stroke-width:1.0;"/><line style="stroke:#181818;stroke-width:1.0;" x1="675" x2="1048.5" y1="294.4922" y2="294.4922"/><text fill="#000000" font-family="sans-serif" font-size="13" lengthAdjust="spacing" textLength="176" x="682" y="289.4263">GetStaffByUser(Username)</text><polygon fill="#181818" points="686,319.625,676,323.625,686,327.625,682,323.625" style="stroke:#181818;stroke-width:1.0;"/><line style="stroke:#181818;stroke-width:1.0;stroke-dasharray:2.0,2.0;" x1="680" x2="1058.5" y1="323.625" y2="323.625"/><text fill="#000000" font-family="sans-serif" font-size="13" lengthAdjust="spacing" textLength="30" x="692" y="318.5591">Staff</text><polygon fill="#181818" points="1179,348.7578,1189,352.7578,1179,356.7578,1183,352.7578" style="stroke:#181818;stroke-width:1.0;"/><line style="stroke:#181818;stroke-width:1.0;" x1="675" x2="1185" y1="352.7578" y2="352.7578"/><text fill="#000000" font-family="sans-serif" font-size="13" lengthAdjust="spacing" textLength="292" x="682" y="347.6919">GetDoctorByLicenseNumber(LicenseNumber)</text><polygon fill="#181818" points="686,377.8906,676,381.8906,686,385.8906,682,381.8906" style="stroke:#181818;stroke-width:1.0;"/><line style="stroke:#181818;stroke-width:1.0;stroke-dasharray:2.0,2.0;" x1="680" x2="1195" y1="381.8906" y2="381.8906"/><text fill="#000000" font-family="sans-serif" font-size="13" lengthAdjust="spacing" textLength="43" x="692" y="376.8247">Doctor</text><polygon fill="#181818" points="866,407.0234,876,411.0234,866,415.0234,870,411.0234" style="stroke:#181818;stroke-width:1.0;"/><line style="stroke:#181818;stroke-width:1.0;" x1="675" x2="872" y1="411.0234" y2="411.0234"/><text fill="#000000" font-family="sans-serif" font-size="13" lengthAdjust="spacing" textLength="177" x="682" y="405.9575">Remove(OperationRequest)</text><polygon fill="#181818" points="686,421.0234,676,425.0234,686,429.0234,682,425.0234" style="stroke:#181818;stroke-width:1.0;"/><line style="stroke:#181818;stroke-width:1.0;stroke-dasharray:2.0,2.0;" x1="680" x2="882" y1="425.0234" y2="425.0234"/><polygon fill="#181818" points="1261.5,450.1563,1271.5,454.1563,1261.5,458.1563,1265.5,454.1563" style="stroke:#181818;stroke-width:1.0;"/><line style="stroke:#181818;stroke-width:1.0;" x1="675" x2="1267.5" y1="454.1563" y2="454.1563"/><text fill="#000000" font-family="sans-serif" font-size="13" lengthAdjust="spacing" textLength="53" x="682" y="449.0903">Create()</text><rect fill="#E2E2F0" height="30.2969" rx="2.5" ry="2.5" style="stroke:#181818;stroke-width:0.5;" width="172" x="1273.5" y="433.0234"/><text fill="#000000" font-family="sans-serif" font-size="14" lengthAdjust="spacing" textLength="158" x="1280.5" y="453.0186">OperationRequestDTO</text><polygon fill="#181818" points="686,491.4531,676,495.4531,686,499.4531,682,495.4531" style="stroke:#181818;stroke-width:1.0;"/><line style="stroke:#181818;stroke-width:1.0;stroke-dasharray:2.0,2.0;" x1="680" x2="1358.5" y1="495.4531" y2="495.4531"/><text fill="#000000" font-family="sans-serif" font-size="13" lengthAdjust="spacing" textLength="142" x="692" y="490.3872">OperationRequestDTO</text><polygon fill="#181818" points="435,520.5859,425,524.5859,435,528.5859,431,524.5859" style="stroke:#181818;stroke-width:1.0;"/><line style="stroke:#181818;stroke-width:1.0;stroke-dasharray:2.0,2.0;" x1="429" x2="669" y1="524.5859" y2="524.5859"/><text fill="#000000" font-family="sans-serif" font-size="13" lengthAdjust="spacing" textLength="142" x="441" y="519.52">OperationRequestDTO</text><polygon fill="#181818" points="184,549.7188,174,553.7188,184,557.7188,180,553.7188" style="stroke:#181818;stroke-width:1.0;"/><line style="stroke:#181818;stroke-width:1.0;" x1="178" x2="418" y1="553.7188" y2="553.7188"/><text fill="#000000" font-family="sans-serif" font-size="13" lengthAdjust="spacing" textLength="100" x="190" y="548.6528">operationResult</text><polygon fill="#181818" points="11,578.8516,1,582.8516,11,586.8516,7,582.8516" style="stroke:#181818;stroke-width:1.0;"/><line style="stroke:#181818;stroke-width:1.0;stroke-dasharray:2.0,2.0;" x1="5" x2="167" y1="582.8516" y2="582.8516"/><text fill="#000000" font-family="sans-serif" font-size="13" lengthAdjust="spacing" textLength="100" x="17" y="577.7856">operationResult</text><!--SRC=[ZPD1JuGm48Nl_HKzuaOEtemn7bRGRB9n4zZrNc70HcYn39lmxvsMPQ4OTpr0A7rlll9cG8aLy1I-Er0Py4YAqeYQX_oGyhjxnXfXK6Qo4GfveZkKgkIYvGRz7IXbYs1s3HY1Kgl45cpnMIiqkgh0M5E6fl9iItaAvYZf5AHjwV6YDe56jnArwTrvQEN9KnH5uMlQyPKdZ7H60b-Pw-oNRicFzZidHSrO-4I1y0SUnTju7mSol-MYmy-z_W9rmqI6yYWGR6YCTAIsILWzL82mhEpykF2wx5WIl_3TUvmComGA2XOrBq61aPc3yZHYe79Af63CSOXdq_mNRmAw1Z1dj9z7SL21Ly2JQTrlyc2Jpx_E9kPquKHSibWElk5CE7TdmBZ-hVi3RGVsfaGDCzZKoyatmphtd3Nfpy1JamVSC0NhValZfrfuw-eF0dkh6NsSZx74Z3mKcgD7yJBB16fzX62Pq9L4_mwG9d6rehhF1cWpc1-NPfIkItsXQVREZEV2qxHUyGm3CqwS-n_qv6Yxocl-CC-FONXLIN_D3m00]--></g></svg>