<?xml version="1.0" encoding="us-ascii" standalone="no"?><svg xmlns="http://www.w3.org/2000/svg" xmlns:xlink="http://www.w3.org/1999/xlink" contentStyleType="text/css" height="686px" preserveAspectRatio="none" style="width:1410px;height:686px;background:#FFFFFF;" version="1.1" viewBox="0 0 1410 686" width="1410px" zoomAndPan="magnify"><defs/><g><!--cluster UserAggregate--><g id="cluster_UserAggregate"><path d="M789.5,165 L896.5,165 A3.75,3.75 0 0 1 899,167.5 L906,188.6094 L1400.5,188.6094 A2.5,2.5 0 0 1 1403,191.1094 L1403,417.5 A2.5,2.5 0 0 1 1400.5,420 L789.5,420 A2.5,2.5 0 0 1 787,417.5 L787,167.5 A2.5,2.5 0 0 1 789.5,165 " fill="none" style="stroke:#000000;stroke-width:1.5;"/><line style="stroke:#000000;stroke-width:1.5;" x1="787" x2="906" y1="188.6094" y2="188.6094"/><text fill="#000000" font-family="sans-serif" font-size="14" font-weight="bold" lengthAdjust="spacing" textLength="106" x="791" y="181.5332">UserAggregate</text></g><!--cluster StaffAggregate--><g id="cluster_StaffAggregate"><path d="M8.5,309 L114.5,309 A3.75,3.75 0 0 1 117,311.5 L124,332.6094 L519.5,332.6094 A2.5,2.5 0 0 1 522,335.1094 L522,676.5 A2.5,2.5 0 0 1 519.5,679 L8.5,679 A2.5,2.5 0 0 1 6,676.5 L6,311.5 A2.5,2.5 0 0 1 8.5,309 " fill="none" style="stroke:#000000;stroke-width:1.5;"/><line style="stroke:#000000;stroke-width:1.5;" x1="6" x2="124" y1="332.6094" y2="332.6094"/><text fill="#000000" font-family="sans-serif" font-size="14" font-weight="bold" lengthAdjust="spacing" textLength="105" x="10" y="325.5332">StaffAggregate</text></g><!--cluster SpecializationAggregate--><g id="cluster_SpecializationAggregate"><path d="M389.5,6 L560.5,6 A3.75,3.75 0 0 1 563,8.5 L570,29.6094 L570.5,29.6094 A2.5,2.5 0 0 1 573,32.1094 L573,273.5 A2.5,2.5 0 0 1 570.5,276 L389.5,276 A2.5,2.5 0 0 1 387,273.5 L387,8.5 A2.5,2.5 0 0 1 389.5,6 " fill="none" style="stroke:#000000;stroke-width:1.5;"/><line style="stroke:#000000;stroke-width:1.5;" x1="387" x2="570" y1="29.6094" y2="29.6094"/><text fill="#000000" font-family="sans-serif" font-size="14" font-weight="bold" lengthAdjust="spacing" textLength="170" x="391" y="22.5332">SpecializationAggregate</text></g><!--cluster DoctorAggregate--><g id="cluster_DoctorAggregate"><path d="M599.5,6 L720.5,6 A3.75,3.75 0 0 1 723,8.5 L730,29.6094 L760.5,29.6094 A2.5,2.5 0 0 1 763,32.1094 L763,273.5 A2.5,2.5 0 0 1 760.5,276 L599.5,276 A2.5,2.5 0 0 1 597,273.5 L597,8.5 A2.5,2.5 0 0 1 599.5,6 " fill="none" style="stroke:#000000;stroke-width:1.5;"/><line style="stroke:#000000;stroke-width:1.5;" x1="597" x2="730" y1="29.6094" y2="29.6094"/><text fill="#000000" font-family="sans-serif" font-size="14" font-weight="bold" lengthAdjust="spacing" textLength="120" x="601" y="22.5332">DoctorAggregate</text></g><!--class User--><g id="elem_User"><rect codeLine="4" fill="#F1F1F1" height="58.7031" id="User" rx="2.5" ry="2.5" style="stroke:#181818;stroke-width:0.5;" width="101" x="971.5" y="345"/><ellipse cx="986.5" cy="366.3516" fill="#0000FF" rx="11" ry="11" style="stroke:#181818;stroke-width:1.0;"/><path d="M987.0938,369.6172 L989.5625,363.7422 L989.1719,363.7422 Q988.5625,363.7422 988.2969,363.5078 Q988.0313,363.2734 988.0313,362.8828 Q988.0313,362.5078 988.2969,362.2734 Q988.5625,362.0391 989.1719,362.0391 L991.4531,362.0391 Q992.0625,362.0391 992.3281,362.2734 Q992.5938,362.5078 992.5938,362.8828 Q992.5938,363.3516 992.1875,363.6172 Q992,363.7422 991.4063,363.7422 L987.9219,372.1016 L986.2813,372.1016 L982.7969,363.7422 Q982.2031,363.7422 982.0156,363.6172 Q981.6094,363.3516 981.6094,362.8828 Q981.6094,362.5078 981.875,362.2734 Q982.1406,362.0391 982.75,362.0391 L985.0469,362.0391 Q985.6563,362.0391 985.9063,362.2734 Q986.1719,362.5078 986.1719,362.8828 Q986.1719,363.2734 985.9063,363.5078 Q985.6563,363.7422 985.0469,363.7422 L984.6406,363.7422 L987.0938,369.6172 Z " fill="#000000"/><text fill="#000000" font-family="sans-serif" font-size="12" font-style="italic" lengthAdjust="spacing" textLength="73" x="998.5" y="362.457">&#171;Root Entity&#187;</text><text fill="#000000" font-family="sans-serif" font-size="14" lengthAdjust="spacing" textLength="29" x="1020.5" y="379.627">User</text><line style="stroke:#181818;stroke-width:0.5;" x1="972.5" x2="1071.5" y1="387.7031" y2="387.7031"/><line style="stroke:#181818;stroke-width:0.5;" x1="972.5" x2="1071.5" y1="395.7031" y2="395.7031"/></g><!--class ActivationStatus--><g id="elem_ActivationStatus"><rect codeLine="6" fill="#F1F1F1" height="58.7031" id="ActivationStatus" rx="2.5" ry="2.5" style="stroke:#181818;stroke-width:0.5;" width="133" x="803.5" y="345"/><ellipse cx="818.5" cy="366.3516" fill="#F04800" rx="11" ry="11" style="stroke:#181818;stroke-width:1.0;"/><path d="M819.0938,369.6172 L821.5625,363.7422 L821.1719,363.7422 Q820.5625,363.7422 820.2969,363.5078 Q820.0313,363.2734 820.0313,362.8828 Q820.0313,362.5078 820.2969,362.2734 Q820.5625,362.0391 821.1719,362.0391 L823.4531,362.0391 Q824.0625,362.0391 824.3281,362.2734 Q824.5938,362.5078 824.5938,362.8828 Q824.5938,363.3516 824.1875,363.6172 Q824,363.7422 823.4063,363.7422 L819.9219,372.1016 L818.2813,372.1016 L814.7969,363.7422 Q814.2031,363.7422 814.0156,363.6172 Q813.6094,363.3516 813.6094,362.8828 Q813.6094,362.5078 813.875,362.2734 Q814.1406,362.0391 814.75,362.0391 L817.0469,362.0391 Q817.6563,362.0391 817.9063,362.2734 Q818.1719,362.5078 818.1719,362.8828 Q818.1719,363.2734 817.9063,363.5078 Q817.6563,363.7422 817.0469,363.7422 L816.6406,363.7422 L819.0938,369.6172 Z " fill="#000000"/><text fill="#000000" font-family="sans-serif" font-size="12" font-style="italic" lengthAdjust="spacing" textLength="85" x="840.5" y="362.457">&#171;Value Object&#187;</text><text fill="#000000" font-family="sans-serif" font-size="14" lengthAdjust="spacing" textLength="101" x="832.5" y="379.627">ActivationStatus</text><line style="stroke:#181818;stroke-width:0.5;" x1="804.5" x2="935.5" y1="387.7031" y2="387.7031"/><line style="stroke:#181818;stroke-width:0.5;" x1="804.5" x2="935.5" y1="395.7031" y2="395.7031"/></g><!--class Username--><g id="elem_Username"><rect codeLine="7" fill="#F1F1F1" height="58.7031" id="Username" rx="2.5" ry="2.5" style="stroke:#181818;stroke-width:0.5;" width="133" x="1253.5" y="201"/><ellipse cx="1268.5" cy="222.3516" fill="#F09800" rx="11" ry="11" style="stroke:#181818;stroke-width:1.0;"/><path d="M1269.0938,225.6172 L1271.5625,219.7422 L1271.1719,219.7422 Q1270.5625,219.7422 1270.2969,219.5078 Q1270.0313,219.2734 1270.0313,218.8828 Q1270.0313,218.5078 1270.2969,218.2734 Q1270.5625,218.0391 1271.1719,218.0391 L1273.4531,218.0391 Q1274.0625,218.0391 1274.3281,218.2734 Q1274.5938,218.5078 1274.5938,218.8828 Q1274.5938,219.3516 1274.1875,219.6172 Q1274,219.7422 1273.4063,219.7422 L1269.9219,228.1016 L1268.2813,228.1016 L1264.7969,219.7422 Q1264.2031,219.7422 1264.0156,219.6172 Q1263.6094,219.3516 1263.6094,218.8828 Q1263.6094,218.5078 1263.875,218.2734 Q1264.1406,218.0391 1264.75,218.0391 L1267.0469,218.0391 Q1267.6563,218.0391 1267.9063,218.2734 Q1268.1719,218.5078 1268.1719,218.8828 Q1268.1719,219.2734 1267.9063,219.5078 Q1267.6563,219.7422 1267.0469,219.7422 L1266.6406,219.7422 L1269.0938,225.6172 Z " fill="#000000"/><text fill="#000000" font-family="sans-serif" font-size="12" font-style="italic" lengthAdjust="spacing" textLength="105" x="1280.5" y="218.457">&#171;Unique Identifier&#187;</text><text fill="#000000" font-family="sans-serif" font-size="14" lengthAdjust="spacing" textLength="64" x="1301" y="235.627">Username</text><line style="stroke:#181818;stroke-width:0.5;" x1="1254.5" x2="1385.5" y1="243.7031" y2="243.7031"/><line style="stroke:#181818;stroke-width:0.5;" x1="1254.5" x2="1385.5" y1="251.7031" y2="251.7031"/></g><!--class UserRole--><g id="elem_UserRole"><rect codeLine="8" fill="#F1F1F1" height="58.7031" id="UserRole" rx="2.5" ry="2.5" style="stroke:#181818;stroke-width:0.5;" width="113" x="1105.5" y="201"/><ellipse cx="1120.5" cy="222.3516" fill="#F04800" rx="11" ry="11" style="stroke:#181818;stroke-width:1.0;"/><path d="M1121.0938,225.6172 L1123.5625,219.7422 L1123.1719,219.7422 Q1122.5625,219.7422 1122.2969,219.5078 Q1122.0313,219.2734 1122.0313,218.8828 Q1122.0313,218.5078 1122.2969,218.2734 Q1122.5625,218.0391 1123.1719,218.0391 L1125.4531,218.0391 Q1126.0625,218.0391 1126.3281,218.2734 Q1126.5938,218.5078 1126.5938,218.8828 Q1126.5938,219.3516 1126.1875,219.6172 Q1126,219.7422 1125.4063,219.7422 L1121.9219,228.1016 L1120.2813,228.1016 L1116.7969,219.7422 Q1116.2031,219.7422 1116.0156,219.6172 Q1115.6094,219.3516 1115.6094,218.8828 Q1115.6094,218.5078 1115.875,218.2734 Q1116.1406,218.0391 1116.75,218.0391 L1119.0469,218.0391 Q1119.6563,218.0391 1119.9063,218.2734 Q1120.1719,218.5078 1120.1719,218.8828 Q1120.1719,219.2734 1119.9063,219.5078 Q1119.6563,219.7422 1119.0469,219.7422 L1118.6406,219.7422 L1121.0938,225.6172 Z " fill="#000000"/><text fill="#000000" font-family="sans-serif" font-size="12" font-style="italic" lengthAdjust="spacing" textLength="85" x="1132.5" y="218.457">&#171;Value Object&#187;</text><text fill="#000000" font-family="sans-serif" font-size="14" lengthAdjust="spacing" textLength="58" x="1146" y="235.627">UserRole</text><line style="stroke:#181818;stroke-width:0.5;" x1="1106.5" x2="1217.5" y1="243.7031" y2="243.7031"/><line style="stroke:#181818;stroke-width:0.5;" x1="1106.5" x2="1217.5" y1="251.7031" y2="251.7031"/></g><!--class EmailAddress--><g id="elem_EmailAddress"><rect codeLine="9" fill="#F1F1F1" height="58.7031" id="EmailAddress" rx="2.5" ry="2.5" style="stroke:#181818;stroke-width:0.5;" width="118" x="952" y="201"/><ellipse cx="967" cy="222.3516" fill="#F04800" rx="11" ry="11" style="stroke:#181818;stroke-width:1.0;"/><path d="M967.5938,225.6172 L970.0625,219.7422 L969.6719,219.7422 Q969.0625,219.7422 968.7969,219.5078 Q968.5313,219.2734 968.5313,218.8828 Q968.5313,218.5078 968.7969,218.2734 Q969.0625,218.0391 969.6719,218.0391 L971.9531,218.0391 Q972.5625,218.0391 972.8281,218.2734 Q973.0938,218.5078 973.0938,218.8828 Q973.0938,219.3516 972.6875,219.6172 Q972.5,219.7422 971.9063,219.7422 L968.4219,228.1016 L966.7813,228.1016 L963.2969,219.7422 Q962.7031,219.7422 962.5156,219.6172 Q962.1094,219.3516 962.1094,218.8828 Q962.1094,218.5078 962.375,218.2734 Q962.6406,218.0391 963.25,218.0391 L965.5469,218.0391 Q966.1563,218.0391 966.4063,218.2734 Q966.6719,218.5078 966.6719,218.8828 Q966.6719,219.2734 966.4063,219.5078 Q966.1563,219.7422 965.5469,219.7422 L965.1406,219.7422 L967.5938,225.6172 Z " fill="#000000"/><text fill="#000000" font-family="sans-serif" font-size="12" font-style="italic" lengthAdjust="spacing" textLength="85" x="981.5" y="218.457">&#171;Value Object&#187;</text><text fill="#000000" font-family="sans-serif" font-size="14" lengthAdjust="spacing" textLength="86" x="981" y="235.627">EmailAddress</text><line style="stroke:#181818;stroke-width:0.5;" x1="953" x2="1069" y1="243.7031" y2="243.7031"/><line style="stroke:#181818;stroke-width:0.5;" x1="953" x2="1069" y1="251.7031" y2="251.7031"/></g><!--class Password--><g id="elem_Password"><rect codeLine="10" fill="#F1F1F1" height="58.7031" id="Password" rx="2.5" ry="2.5" style="stroke:#181818;stroke-width:0.5;" width="113" x="803.5" y="201"/><ellipse cx="818.5" cy="222.3516" fill="#F04800" rx="11" ry="11" style="stroke:#181818;stroke-width:1.0;"/><path d="M819.0938,225.6172 L821.5625,219.7422 L821.1719,219.7422 Q820.5625,219.7422 820.2969,219.5078 Q820.0313,219.2734 820.0313,218.8828 Q820.0313,218.5078 820.2969,218.2734 Q820.5625,218.0391 821.1719,218.0391 L823.4531,218.0391 Q824.0625,218.0391 824.3281,218.2734 Q824.5938,218.5078 824.5938,218.8828 Q824.5938,219.3516 824.1875,219.6172 Q824,219.7422 823.4063,219.7422 L819.9219,228.1016 L818.2813,228.1016 L814.7969,219.7422 Q814.2031,219.7422 814.0156,219.6172 Q813.6094,219.3516 813.6094,218.8828 Q813.6094,218.5078 813.875,218.2734 Q814.1406,218.0391 814.75,218.0391 L817.0469,218.0391 Q817.6563,218.0391 817.9063,218.2734 Q818.1719,218.5078 818.1719,218.8828 Q818.1719,219.2734 817.9063,219.5078 Q817.6563,219.7422 817.0469,219.7422 L816.6406,219.7422 L819.0938,225.6172 Z " fill="#000000"/><text fill="#000000" font-family="sans-serif" font-size="12" font-style="italic" lengthAdjust="spacing" textLength="85" x="830.5" y="218.457">&#171;Value Object&#187;</text><text fill="#000000" font-family="sans-serif" font-size="14" lengthAdjust="spacing" textLength="61" x="842.5" y="235.627">Password</text><line style="stroke:#181818;stroke-width:0.5;" x1="804.5" x2="915.5" y1="243.7031" y2="243.7031"/><line style="stroke:#181818;stroke-width:0.5;" x1="804.5" x2="915.5" y1="251.7031" y2="251.7031"/></g><!--class Staff--><g id="elem_Staff"><rect codeLine="21" fill="#F1F1F1" height="58.7031" id="Staff" rx="2.5" ry="2.5" style="stroke:#181818;stroke-width:0.5;" width="101" x="390.5" y="484"/><ellipse cx="405.5" cy="505.3516" fill="#0000FF" rx="11" ry="11" style="stroke:#181818;stroke-width:1.0;"/><path d="M406.0938,508.6172 L408.5625,502.7422 L408.1719,502.7422 Q407.5625,502.7422 407.2969,502.5078 Q407.0313,502.2734 407.0313,501.8828 Q407.0313,501.5078 407.2969,501.2734 Q407.5625,501.0391 408.1719,501.0391 L410.4531,501.0391 Q411.0625,501.0391 411.3281,501.2734 Q411.5938,501.5078 411.5938,501.8828 Q411.5938,502.3516 411.1875,502.6172 Q411,502.7422 410.4063,502.7422 L406.9219,511.1016 L405.2813,511.1016 L401.7969,502.7422 Q401.2031,502.7422 401.0156,502.6172 Q400.6094,502.3516 400.6094,501.8828 Q400.6094,501.5078 400.875,501.2734 Q401.1406,501.0391 401.75,501.0391 L404.0469,501.0391 Q404.6563,501.0391 404.9063,501.2734 Q405.1719,501.5078 405.1719,501.8828 Q405.1719,502.2734 404.9063,502.5078 Q404.6563,502.7422 404.0469,502.7422 L403.6406,502.7422 L406.0938,508.6172 Z " fill="#000000"/><text fill="#000000" font-family="sans-serif" font-size="12" font-style="italic" lengthAdjust="spacing" textLength="73" x="417.5" y="501.457">&#171;Root Entity&#187;</text><text fill="#000000" font-family="sans-serif" font-size="14" lengthAdjust="spacing" textLength="29" x="439.5" y="518.627">Staff</text><line style="stroke:#181818;stroke-width:0.5;" x1="391.5" x2="490.5" y1="526.7031" y2="526.7031"/><line style="stroke:#181818;stroke-width:0.5;" x1="391.5" x2="490.5" y1="534.7031" y2="534.7031"/></g><!--class AvailabilitySlots--><g id="elem_AvailabilitySlots"><rect codeLine="23" fill="#F1F1F1" height="58.7031" id="AvailabilitySlots" rx="2.5" ry="2.5" style="stroke:#181818;stroke-width:0.5;" width="129" x="376.5" y="345"/><ellipse cx="391.5" cy="366.3516" fill="#F04800" rx="11" ry="11" style="stroke:#181818;stroke-width:1.0;"/><path d="M392.0938,369.6172 L394.5625,363.7422 L394.1719,363.7422 Q393.5625,363.7422 393.2969,363.5078 Q393.0313,363.2734 393.0313,362.8828 Q393.0313,362.5078 393.2969,362.2734 Q393.5625,362.0391 394.1719,362.0391 L396.4531,362.0391 Q397.0625,362.0391 397.3281,362.2734 Q397.5938,362.5078 397.5938,362.8828 Q397.5938,363.3516 397.1875,363.6172 Q397,363.7422 396.4063,363.7422 L392.9219,372.1016 L391.2813,372.1016 L387.7969,363.7422 Q387.2031,363.7422 387.0156,363.6172 Q386.6094,363.3516 386.6094,362.8828 Q386.6094,362.5078 386.875,362.2734 Q387.1406,362.0391 387.75,362.0391 L390.0469,362.0391 Q390.6563,362.0391 390.9063,362.2734 Q391.1719,362.5078 391.1719,362.8828 Q391.1719,363.2734 390.9063,363.5078 Q390.6563,363.7422 390.0469,363.7422 L389.6406,363.7422 L392.0938,369.6172 Z " fill="#000000"/><text fill="#000000" font-family="sans-serif" font-size="12" font-style="italic" lengthAdjust="spacing" textLength="85" x="411.5" y="362.457">&#171;Value Object&#187;</text><text fill="#000000" font-family="sans-serif" font-size="14" lengthAdjust="spacing" textLength="97" x="405.5" y="379.627">AvailabilitySlots</text><line style="stroke:#181818;stroke-width:0.5;" x1="377.5" x2="504.5" y1="387.7031" y2="387.7031"/><line style="stroke:#181818;stroke-width:0.5;" x1="377.5" x2="504.5" y1="395.7031" y2="395.7031"/></g><!--class LicenseNumber--><g id="elem_LicenseNumber"><rect codeLine="24" fill="#F1F1F1" height="58.7031" id="LicenseNumber" rx="2.5" ry="2.5" style="stroke:#181818;stroke-width:0.5;" width="133" x="208.5" y="345"/><ellipse cx="223.5" cy="366.3516" fill="#F09800" rx="11" ry="11" style="stroke:#181818;stroke-width:1.0;"/><path d="M224.0938,369.6172 L226.5625,363.7422 L226.1719,363.7422 Q225.5625,363.7422 225.2969,363.5078 Q225.0313,363.2734 225.0313,362.8828 Q225.0313,362.5078 225.2969,362.2734 Q225.5625,362.0391 226.1719,362.0391 L228.4531,362.0391 Q229.0625,362.0391 229.3281,362.2734 Q229.5938,362.5078 229.5938,362.8828 Q229.5938,363.3516 229.1875,363.6172 Q229,363.7422 228.4063,363.7422 L224.9219,372.1016 L223.2813,372.1016 L219.7969,363.7422 Q219.2031,363.7422 219.0156,363.6172 Q218.6094,363.3516 218.6094,362.8828 Q218.6094,362.5078 218.875,362.2734 Q219.1406,362.0391 219.75,362.0391 L222.0469,362.0391 Q222.6563,362.0391 222.9063,362.2734 Q223.1719,362.5078 223.1719,362.8828 Q223.1719,363.2734 222.9063,363.5078 Q222.6563,363.7422 222.0469,363.7422 L221.6406,363.7422 L224.0938,369.6172 Z " fill="#000000"/><text fill="#000000" font-family="sans-serif" font-size="12" font-style="italic" lengthAdjust="spacing" textLength="105" x="235.5" y="362.457">&#171;Unique Identifier&#187;</text><text fill="#000000" font-family="sans-serif" font-size="14" lengthAdjust="spacing" textLength="98" x="239" y="379.627">LicenseNumber</text><line style="stroke:#181818;stroke-width:0.5;" x1="209.5" x2="340.5" y1="387.7031" y2="387.7031"/><line style="stroke:#181818;stroke-width:0.5;" x1="209.5" x2="340.5" y1="395.7031" y2="395.7031"/></g><!--class ContactInformation--><g id="elem_ContactInformation"><rect codeLine="27" fill="#F1F1F1" height="58.7031" id="ContactInformation" rx="2.5" ry="2.5" style="stroke:#181818;stroke-width:0.5;" width="151" x="22.5" y="345"/><ellipse cx="37.5" cy="366.3516" fill="#ADD1B2" rx="11" ry="11" style="stroke:#181818;stroke-width:1.0;"/><path d="M36.3594,367.1484 L36.3594,369.6484 L40.6875,369.6484 L40.6875,368.7266 Q40.6875,368.1172 40.9219,367.8516 Q41.1719,367.5859 41.5469,367.5859 Q41.9219,367.5859 42.1563,367.8516 Q42.3906,368.1172 42.3906,368.7266 L42.3906,371.3516 L34.3906,371.3516 Q33.7656,371.3516 33.5,371.1172 Q33.25,370.8828 33.25,370.4922 Q33.25,370.1172 33.5156,369.8828 Q33.7813,369.6484 34.3906,369.6484 L34.6563,369.6484 L34.6563,362.9922 L34.3906,362.9922 Q33.7656,362.9922 33.5,362.7578 Q33.25,362.5234 33.25,362.1328 Q33.25,361.7578 33.5,361.5234 Q33.7656,361.2891 34.3906,361.2891 L42.0156,361.2891 L42.0156,363.8828 Q42.0156,364.4922 41.7813,364.7578 Q41.5625,365.0078 41.1719,365.0078 Q40.7969,365.0078 40.5625,364.7578 Q40.3281,364.4922 40.3281,363.8828 L40.3281,362.9922 L36.3594,362.9922 L36.3594,365.4453 L37.8438,365.4453 Q37.8438,364.7891 37.9688,364.6016 Q38.2344,364.1953 38.7031,364.1953 Q39.0781,364.1953 39.3125,364.4609 Q39.5469,364.7109 39.5469,365.3203 L39.5469,367.2891 Q39.5469,367.8359 39.4219,368.0234 Q39.1563,368.4141 38.7031,368.4141 Q38.2344,368.4141 37.9688,368.0078 Q37.8438,367.8203 37.8438,367.1484 L36.3594,367.1484 Z " fill="#000000"/><text fill="#000000" font-family="sans-serif" font-size="12" font-style="italic" lengthAdjust="spacing" textLength="44" x="89" y="362.457">&#171;Entity&#187;</text><text fill="#000000" font-family="sans-serif" font-size="14" lengthAdjust="spacing" textLength="119" x="51.5" y="379.627">ContactInformation</text><line style="stroke:#181818;stroke-width:0.5;" x1="23.5" x2="172.5" y1="387.7031" y2="387.7031"/><line style="stroke:#181818;stroke-width:0.5;" x1="23.5" x2="172.5" y1="395.7031" y2="395.7031"/></g><!--class FirstName--><g id="elem_FirstName"><rect codeLine="29" fill="#F1F1F1" height="58.7031" id="FirstName" rx="2.5" ry="2.5" style="stroke:#181818;stroke-width:0.5;" width="113" x="96.5" y="604"/><ellipse cx="111.5" cy="625.3516" fill="#F04800" rx="11" ry="11" style="stroke:#181818;stroke-width:1.0;"/><path d="M112.0938,628.6172 L114.5625,622.7422 L114.1719,622.7422 Q113.5625,622.7422 113.2969,622.5078 Q113.0313,622.2734 113.0313,621.8828 Q113.0313,621.5078 113.2969,621.2734 Q113.5625,621.0391 114.1719,621.0391 L116.4531,621.0391 Q117.0625,621.0391 117.3281,621.2734 Q117.5938,621.5078 117.5938,621.8828 Q117.5938,622.3516 117.1875,622.6172 Q117,622.7422 116.4063,622.7422 L112.9219,631.1016 L111.2813,631.1016 L107.7969,622.7422 Q107.2031,622.7422 107.0156,622.6172 Q106.6094,622.3516 106.6094,621.8828 Q106.6094,621.5078 106.875,621.2734 Q107.1406,621.0391 107.75,621.0391 L110.0469,621.0391 Q110.6563,621.0391 110.9063,621.2734 Q111.1719,621.5078 111.1719,621.8828 Q111.1719,622.2734 110.9063,622.5078 Q110.6563,622.7422 110.0469,622.7422 L109.6406,622.7422 L112.0938,628.6172 Z " fill="#000000"/><text fill="#000000" font-family="sans-serif" font-size="12" font-style="italic" lengthAdjust="spacing" textLength="85" x="123.5" y="621.457">&#171;Value Object&#187;</text><text fill="#000000" font-family="sans-serif" font-size="14" lengthAdjust="spacing" textLength="64" x="134" y="638.627">FirstName</text><line style="stroke:#181818;stroke-width:0.5;" x1="97.5" x2="208.5" y1="646.7031" y2="646.7031"/><line style="stroke:#181818;stroke-width:0.5;" x1="97.5" x2="208.5" y1="654.7031" y2="654.7031"/></g><!--class LastName--><g id="elem_LastName"><rect codeLine="30" fill="#F1F1F1" height="58.7031" id="LastName" rx="2.5" ry="2.5" style="stroke:#181818;stroke-width:0.5;" width="113" x="244.5" y="604"/><ellipse cx="259.5" cy="625.3516" fill="#F04800" rx="11" ry="11" style="stroke:#181818;stroke-width:1.0;"/><path d="M260.0938,628.6172 L262.5625,622.7422 L262.1719,622.7422 Q261.5625,622.7422 261.2969,622.5078 Q261.0313,622.2734 261.0313,621.8828 Q261.0313,621.5078 261.2969,621.2734 Q261.5625,621.0391 262.1719,621.0391 L264.4531,621.0391 Q265.0625,621.0391 265.3281,621.2734 Q265.5938,621.5078 265.5938,621.8828 Q265.5938,622.3516 265.1875,622.6172 Q265,622.7422 264.4063,622.7422 L260.9219,631.1016 L259.2813,631.1016 L255.7969,622.7422 Q255.2031,622.7422 255.0156,622.6172 Q254.6094,622.3516 254.6094,621.8828 Q254.6094,621.5078 254.875,621.2734 Q255.1406,621.0391 255.75,621.0391 L258.0469,621.0391 Q258.6563,621.0391 258.9063,621.2734 Q259.1719,621.5078 259.1719,621.8828 Q259.1719,622.2734 258.9063,622.5078 Q258.6563,622.7422 258.0469,622.7422 L257.6406,622.7422 L260.0938,628.6172 Z " fill="#000000"/><text fill="#000000" font-family="sans-serif" font-size="12" font-style="italic" lengthAdjust="spacing" textLength="85" x="271.5" y="621.457">&#171;Value Object&#187;</text><text fill="#000000" font-family="sans-serif" font-size="14" lengthAdjust="spacing" textLength="63" x="282.5" y="638.627">LastName</text><line style="stroke:#181818;stroke-width:0.5;" x1="245.5" x2="356.5" y1="646.7031" y2="646.7031"/><line style="stroke:#181818;stroke-width:0.5;" x1="245.5" x2="356.5" y1="654.7031" y2="654.7031"/></g><!--class FullName--><g id="elem_FullName"><rect codeLine="31" fill="#F1F1F1" height="58.7031" id="FullName" rx="2.5" ry="2.5" style="stroke:#181818;stroke-width:0.5;" width="113" x="392.5" y="604"/><ellipse cx="407.5" cy="625.3516" fill="#F04800" rx="11" ry="11" style="stroke:#181818;stroke-width:1.0;"/><path d="M408.0938,628.6172 L410.5625,622.7422 L410.1719,622.7422 Q409.5625,622.7422 409.2969,622.5078 Q409.0313,622.2734 409.0313,621.8828 Q409.0313,621.5078 409.2969,621.2734 Q409.5625,621.0391 410.1719,621.0391 L412.4531,621.0391 Q413.0625,621.0391 413.3281,621.2734 Q413.5938,621.5078 413.5938,621.8828 Q413.5938,622.3516 413.1875,622.6172 Q413,622.7422 412.4063,622.7422 L408.9219,631.1016 L407.2813,631.1016 L403.7969,622.7422 Q403.2031,622.7422 403.0156,622.6172 Q402.6094,622.3516 402.6094,621.8828 Q402.6094,621.5078 402.875,621.2734 Q403.1406,621.0391 403.75,621.0391 L406.0469,621.0391 Q406.6563,621.0391 406.9063,621.2734 Q407.1719,621.5078 407.1719,621.8828 Q407.1719,622.2734 406.9063,622.5078 Q406.6563,622.7422 406.0469,622.7422 L405.6406,622.7422 L408.0938,628.6172 Z " fill="#000000"/><text fill="#000000" font-family="sans-serif" font-size="12" font-style="italic" lengthAdjust="spacing" textLength="85" x="419.5" y="621.457">&#171;Value Object&#187;</text><text fill="#000000" font-family="sans-serif" font-size="14" lengthAdjust="spacing" textLength="59" x="432.5" y="638.627">FullName</text><line style="stroke:#181818;stroke-width:0.5;" x1="393.5" x2="504.5" y1="646.7031" y2="646.7031"/><line style="stroke:#181818;stroke-width:0.5;" x1="393.5" x2="504.5" y1="654.7031" y2="654.7031"/></g><!--class EmailAddress--><g id="elem_EmailAddress"><rect codeLine="32" fill="#F1F1F1" height="58.7031" id="EmailAddress" rx="2.5" ry="2.5" style="stroke:#181818;stroke-width:0.5;" width="118" x="186" y="484"/><ellipse cx="201" cy="505.3516" fill="#F04800" rx="11" ry="11" style="stroke:#181818;stroke-width:1.0;"/><path d="M201.5938,508.6172 L204.0625,502.7422 L203.6719,502.7422 Q203.0625,502.7422 202.7969,502.5078 Q202.5313,502.2734 202.5313,501.8828 Q202.5313,501.5078 202.7969,501.2734 Q203.0625,501.0391 203.6719,501.0391 L205.9531,501.0391 Q206.5625,501.0391 206.8281,501.2734 Q207.0938,501.5078 207.0938,501.8828 Q207.0938,502.3516 206.6875,502.6172 Q206.5,502.7422 205.9063,502.7422 L202.4219,511.1016 L200.7813,511.1016 L197.2969,502.7422 Q196.7031,502.7422 196.5156,502.6172 Q196.1094,502.3516 196.1094,501.8828 Q196.1094,501.5078 196.375,501.2734 Q196.6406,501.0391 197.25,501.0391 L199.5469,501.0391 Q200.1563,501.0391 200.4063,501.2734 Q200.6719,501.5078 200.6719,501.8828 Q200.6719,502.2734 200.4063,502.5078 Q200.1563,502.7422 199.5469,502.7422 L199.1406,502.7422 L201.5938,508.6172 Z " fill="#000000"/><text fill="#000000" font-family="sans-serif" font-size="12" font-style="italic" lengthAdjust="spacing" textLength="85" x="215.5" y="501.457">&#171;Value Object&#187;</text><text fill="#000000" font-family="sans-serif" font-size="14" lengthAdjust="spacing" textLength="86" x="215" y="518.627">EmailAddress</text><line style="stroke:#181818;stroke-width:0.5;" x1="187" x2="303" y1="526.7031" y2="526.7031"/><line style="stroke:#181818;stroke-width:0.5;" x1="187" x2="303" y1="534.7031" y2="534.7031"/></g><!--class PhoneNumber--><g id="elem_PhoneNumber"><rect codeLine="33" fill="#F1F1F1" height="58.7031" id="PhoneNumber" rx="2.5" ry="2.5" style="stroke:#181818;stroke-width:0.5;" width="122" x="29" y="484"/><ellipse cx="44" cy="505.3516" fill="#F04800" rx="11" ry="11" style="stroke:#181818;stroke-width:1.0;"/><path d="M44.5938,508.6172 L47.0625,502.7422 L46.6719,502.7422 Q46.0625,502.7422 45.7969,502.5078 Q45.5313,502.2734 45.5313,501.8828 Q45.5313,501.5078 45.7969,501.2734 Q46.0625,501.0391 46.6719,501.0391 L48.9531,501.0391 Q49.5625,501.0391 49.8281,501.2734 Q50.0938,501.5078 50.0938,501.8828 Q50.0938,502.3516 49.6875,502.6172 Q49.5,502.7422 48.9063,502.7422 L45.4219,511.1016 L43.7813,511.1016 L40.2969,502.7422 Q39.7031,502.7422 39.5156,502.6172 Q39.1094,502.3516 39.1094,501.8828 Q39.1094,501.5078 39.375,501.2734 Q39.6406,501.0391 40.25,501.0391 L42.5469,501.0391 Q43.1563,501.0391 43.4063,501.2734 Q43.6719,501.5078 43.6719,501.8828 Q43.6719,502.2734 43.4063,502.5078 Q43.1563,502.7422 42.5469,502.7422 L42.1406,502.7422 L44.5938,508.6172 Z " fill="#000000"/><text fill="#000000" font-family="sans-serif" font-size="12" font-style="italic" lengthAdjust="spacing" textLength="85" x="60.5" y="501.457">&#171;Value Object&#187;</text><text fill="#000000" font-family="sans-serif" font-size="14" lengthAdjust="spacing" textLength="90" x="58" y="518.627">PhoneNumber</text><line style="stroke:#181818;stroke-width:0.5;" x1="30" x2="150" y1="526.7031" y2="526.7031"/><line style="stroke:#181818;stroke-width:0.5;" x1="30" x2="150" y1="534.7031" y2="534.7031"/></g><!--class Specialization--><g id="elem_Specialization"><rect codeLine="50" fill="#F1F1F1" height="58.7031" id="Specialization" rx="2.5" ry="2.5" style="stroke:#181818;stroke-width:0.5;" width="118" x="430" y="201"/><ellipse cx="445" cy="222.3516" fill="#0000FF" rx="11" ry="11" style="stroke:#181818;stroke-width:1.0;"/><path d="M445.5938,225.6172 L448.0625,219.7422 L447.6719,219.7422 Q447.0625,219.7422 446.7969,219.5078 Q446.5313,219.2734 446.5313,218.8828 Q446.5313,218.5078 446.7969,218.2734 Q447.0625,218.0391 447.6719,218.0391 L449.9531,218.0391 Q450.5625,218.0391 450.8281,218.2734 Q451.0938,218.5078 451.0938,218.8828 Q451.0938,219.3516 450.6875,219.6172 Q450.5,219.7422 449.9063,219.7422 L446.4219,228.1016 L444.7813,228.1016 L441.2969,219.7422 Q440.7031,219.7422 440.5156,219.6172 Q440.1094,219.3516 440.1094,218.8828 Q440.1094,218.5078 440.375,218.2734 Q440.6406,218.0391 441.25,218.0391 L443.5469,218.0391 Q444.1563,218.0391 444.4063,218.2734 Q444.6719,218.5078 444.6719,218.8828 Q444.6719,219.2734 444.4063,219.5078 Q444.1563,219.7422 443.5469,219.7422 L443.1406,219.7422 L445.5938,225.6172 Z " fill="#000000"/><text fill="#000000" font-family="sans-serif" font-size="12" font-style="italic" lengthAdjust="spacing" textLength="73" x="465.5" y="218.457">&#171;Root Entity&#187;</text><text fill="#000000" font-family="sans-serif" font-size="14" lengthAdjust="spacing" textLength="86" x="459" y="235.627">Specialization</text><line style="stroke:#181818;stroke-width:0.5;" x1="431" x2="547" y1="243.7031" y2="243.7031"/><line style="stroke:#181818;stroke-width:0.5;" x1="431" x2="547" y1="251.7031" y2="251.7031"/></g><!--class SpecializationName--><g id="elem_SpecializationName"><rect codeLine="51" fill="#F1F1F1" height="58.7031" id="SpecializationName" rx="2.5" ry="2.5" style="stroke:#181818;stroke-width:0.5;" width="154" x="403" y="42"/><ellipse cx="418" cy="63.3516" fill="#F09800" rx="11" ry="11" style="stroke:#181818;stroke-width:1.0;"/><path d="M418.5938,66.6172 L421.0625,60.7422 L420.6719,60.7422 Q420.0625,60.7422 419.7969,60.5078 Q419.5313,60.2734 419.5313,59.8828 Q419.5313,59.5078 419.7969,59.2734 Q420.0625,59.0391 420.6719,59.0391 L422.9531,59.0391 Q423.5625,59.0391 423.8281,59.2734 Q424.0938,59.5078 424.0938,59.8828 Q424.0938,60.3516 423.6875,60.6172 Q423.5,60.7422 422.9063,60.7422 L419.4219,69.1016 L417.7813,69.1016 L414.2969,60.7422 Q413.7031,60.7422 413.5156,60.6172 Q413.1094,60.3516 413.1094,59.8828 Q413.1094,59.5078 413.375,59.2734 Q413.6406,59.0391 414.25,59.0391 L416.5469,59.0391 Q417.1563,59.0391 417.4063,59.2734 Q417.6719,59.5078 417.6719,59.8828 Q417.6719,60.2734 417.4063,60.5078 Q417.1563,60.7422 416.5469,60.7422 L416.1406,60.7422 L418.5938,66.6172 Z " fill="#000000"/><text fill="#000000" font-family="sans-serif" font-size="12" font-style="italic" lengthAdjust="spacing" textLength="105" x="440.5" y="59.457">&#171;Unique Identifier&#187;</text><text fill="#000000" font-family="sans-serif" font-size="14" lengthAdjust="spacing" textLength="122" x="432" y="76.627">SpecializationName</text><line style="stroke:#181818;stroke-width:0.5;" x1="404" x2="556" y1="84.7031" y2="84.7031"/><line style="stroke:#181818;stroke-width:0.5;" x1="404" x2="556" y1="92.7031" y2="92.7031"/></g><!--class Doctor--><g id="elem_Doctor"><rect codeLine="57" fill="#F1F1F1" height="58.7031" id="Doctor" rx="2.5" ry="2.5" style="stroke:#181818;stroke-width:0.5;" width="101" x="629.5" y="201"/><ellipse cx="644.5" cy="222.3516" fill="#0099FF" rx="11" ry="11" style="stroke:#181818;stroke-width:1.0;"/><path d="M643.3438,223.5078 L643.3438,225.6484 L643.9531,225.6484 Q644.5781,225.6484 644.8281,225.8828 Q645.0938,226.1172 645.0938,226.5078 Q645.0938,226.8828 644.8281,227.1172 Q644.5781,227.3516 643.9531,227.3516 L641.375,227.3516 Q640.7656,227.3516 640.5,227.1172 Q640.2344,226.8828 640.2344,226.4922 Q640.2344,226.1172 640.5,225.8828 Q640.7656,225.6484 641.375,225.6484 L641.6406,225.6484 L641.6406,218.9922 L641.375,218.9922 Q640.7656,218.9922 640.5,218.7578 Q640.2344,218.5234 640.2344,218.1328 Q640.2344,217.7578 640.5,217.5234 Q640.7656,217.2891 641.375,217.2891 L645.2344,217.2891 Q647.0313,217.2891 648.0156,218.1797 Q649.0156,219.0703 649.0156,220.3516 Q649.0156,221.1484 648.5469,221.8047 Q648.0781,222.4609 647.1406,222.9609 Q647.6875,223.4297 648.2969,224.1797 Q648.6875,224.6484 649.3281,225.6484 Q649.9844,225.6484 650.1875,225.7891 Q650.5625,226.0391 650.5625,226.5078 Q650.5625,226.8828 650.2969,227.1172 Q650.0469,227.3516 649.4375,227.3516 L648.4531,227.3516 Q646.3906,224.1484 645.0313,223.5078 L643.3438,223.5078 Z M643.3438,221.8047 L644.6719,221.8047 Q645.4063,221.8047 646,221.5859 Q646.7813,221.2891 647.0469,220.9609 Q647.3125,220.6172 647.3125,220.2891 Q647.3125,219.8203 646.7969,219.4141 Q646.2813,218.9922 645.2969,218.9922 L643.3438,218.9922 L643.3438,221.8047 Z " fill="#000000"/><text fill="#000000" font-family="sans-serif" font-size="12" font-style="italic" lengthAdjust="spacing" textLength="73" x="656.5" y="218.457">&#171;Root Entity&#187;</text><text fill="#000000" font-family="sans-serif" font-size="14" lengthAdjust="spacing" textLength="42" x="672" y="235.627">Doctor</text><line style="stroke:#181818;stroke-width:0.5;" x1="630.5" x2="729.5" y1="243.7031" y2="243.7031"/><line style="stroke:#181818;stroke-width:0.5;" x1="630.5" x2="729.5" y1="251.7031" y2="251.7031"/></g><!--class DoctorID--><g id="elem_DoctorID"><rect codeLine="58" fill="#F1F1F1" height="58.7031" id="DoctorID" rx="2.5" ry="2.5" style="stroke:#181818;stroke-width:0.5;" width="133" x="613.5" y="42"/><ellipse cx="628.5" cy="63.3516" fill="#F09800" rx="11" ry="11" style="stroke:#181818;stroke-width:1.0;"/><path d="M629.0938,66.6172 L631.5625,60.7422 L631.1719,60.7422 Q630.5625,60.7422 630.2969,60.5078 Q630.0313,60.2734 630.0313,59.8828 Q630.0313,59.5078 630.2969,59.2734 Q630.5625,59.0391 631.1719,59.0391 L633.4531,59.0391 Q634.0625,59.0391 634.3281,59.2734 Q634.5938,59.5078 634.5938,59.8828 Q634.5938,60.3516 634.1875,60.6172 Q634,60.7422 633.4063,60.7422 L629.9219,69.1016 L628.2813,69.1016 L624.7969,60.7422 Q624.2031,60.7422 624.0156,60.6172 Q623.6094,60.3516 623.6094,59.8828 Q623.6094,59.5078 623.875,59.2734 Q624.1406,59.0391 624.75,59.0391 L627.0469,59.0391 Q627.6563,59.0391 627.9063,59.2734 Q628.1719,59.5078 628.1719,59.8828 Q628.1719,60.2734 627.9063,60.5078 Q627.6563,60.7422 627.0469,60.7422 L626.6406,60.7422 L629.0938,66.6172 Z " fill="#000000"/><text fill="#000000" font-family="sans-serif" font-size="12" font-style="italic" lengthAdjust="spacing" textLength="105" x="640.5" y="59.457">&#171;Unique Identifier&#187;</text><text fill="#000000" font-family="sans-serif" font-size="14" lengthAdjust="spacing" textLength="55" x="665.5" y="76.627">DoctorID</text><line style="stroke:#181818;stroke-width:0.5;" x1="614.5" x2="745.5" y1="84.7031" y2="84.7031"/><line style="stroke:#181818;stroke-width:0.5;" x1="614.5" x2="745.5" y1="92.7031" y2="92.7031"/></g><!--link ActivationStatus to User--><g id="link_ActivationStatus_User"><path codeLine="12" d="M936.8,374.5 C948.33,374.5 947.87,374.5 959.41,374.5 " fill="none" id="ActivationStatus-to-User" style="stroke:#181818;stroke-width:1.0;"/><polygon fill="#181818" points="971.41,374.5,965.41,370.5,959.41,374.5,965.41,378.5,971.41,374.5" style="stroke:#181818;stroke-width:1.0;"/><text fill="#000000" font-family="sans-serif" font-size="13" lengthAdjust="spacing" textLength="7" x="944.4891" y="371.1556">1</text><text fill="#000000" font-family="sans-serif" font-size="13" lengthAdjust="spacing" textLength="7" x="956.4655" y="370.8677">1</text></g><!--link Username to User--><g id="link_Username_User"><path codeLine="14" d="M1277.19,260.13 C1264.21,268.29 1249.75,276.89 1236,284 C1181.81,312.03 1128.0284,333.9699 1083.9984,350.6899 " fill="none" id="Username-to-User" style="stroke:#181818;stroke-width:1.0;"/><polygon fill="#181818" points="1072.78,354.95,1079.8092,356.5594,1083.9984,350.6899,1076.9692,349.0805,1072.78,354.95" style="stroke:#181818;stroke-width:1.0;"/><text fill="#000000" font-family="sans-serif" font-size="13" lengthAdjust="spacing" textLength="7" x="1261.0727" y="281.0974">1</text><text fill="#000000" font-family="sans-serif" font-size="13" lengthAdjust="spacing" textLength="7" x="1080.4131" y="348.6165">1</text></g><!--link UserRole to User--><g id="link_UserRole_User"><path codeLine="15" d="M1133.67,260.24 C1109.38,284.87 1082.9943,311.6342 1058.7143,336.2642 " fill="none" id="UserRole-to-User" style="stroke:#181818;stroke-width:1.0;"/><polygon fill="#181818" points="1050.29,344.81,1057.3508,343.3452,1058.7143,336.2642,1051.6536,337.729,1050.29,344.81" style="stroke:#181818;stroke-width:1.0;"/><text fill="#000000" font-family="sans-serif" font-size="13" lengthAdjust="spacing" textLength="7" x="1120.4035" y="281.229">1</text><text fill="#000000" font-family="sans-serif" font-size="13" lengthAdjust="spacing" textLength="7" x="1048.7128" y="334.1314">1</text></g><!--link EmailAddress to User--><g id="link_EmailAddress_User"><path codeLine="16" d="M1013.23,260.24 C1015.13,284.87 1016.9422,308.2159 1018.8522,332.8459 " fill="none" id="EmailAddress-to-User" style="stroke:#181818;stroke-width:1.0;"/><polygon fill="#181818" points="1019.78,344.81,1023.3041,338.5187,1018.8522,332.8459,1015.3281,339.1372,1019.78,344.81" style="stroke:#181818;stroke-width:1.0;"/><text fill="#000000" font-family="sans-serif" font-size="13" lengthAdjust="spacing" textLength="7" x="1005.98" y="281.229">1</text><text fill="#000000" font-family="sans-serif" font-size="13" lengthAdjust="spacing" textLength="7" x="1011.5288" y="334.1314">1</text></g><!--link Password to User--><g id="link_Password_User"><path codeLine="17" d="M901.97,260.06 C918.69,272.06 937.77,286.57 954,301 C969.21,314.53 976.8185,322.084 989.2585,335.894 " fill="none" id="Password-to-User" style="stroke:#181818;stroke-width:1.0;"/><polygon fill="#181818" points="997.29,344.81,996.2462,337.6748,989.2585,335.894,990.3023,343.0292,997.29,344.81" style="stroke:#181818;stroke-width:1.0;"/><text fill="#000000" font-family="sans-serif" font-size="13" lengthAdjust="spacing" textLength="7" x="902.9044" y="281.3687">1</text><text fill="#000000" font-family="sans-serif" font-size="13" lengthAdjust="spacing" textLength="7" x="984.1191" y="334.1314">1</text></g><!--reverse link ContactInformation to EmailAddress--><g id="link_ContactInformation_EmailAddress"><path codeLine="37" d="M137.5975,412.4026 C162.6775,435.7826 189.15,460.45 214.22,483.82 " fill="none" id="ContactInformation-backto-EmailAddress" style="stroke:#181818;stroke-width:1.0;"/><polygon fill="#181818" points="128.82,404.22,130.4812,411.2371,137.5975,412.4026,135.9363,405.3854,128.82,404.22" style="stroke:#181818;stroke-width:1.0;"/><text fill="#000000" font-family="sans-serif" font-size="13" lengthAdjust="spacing" textLength="7" x="127.1986" y="425.2051">1</text><text fill="#000000" font-family="sans-serif" font-size="13" lengthAdjust="spacing" textLength="7" x="199.7213" y="473.1435">1</text></g><!--reverse link ContactInformation to PhoneNumber--><g id="link_ContactInformation_PhoneNumber"><path codeLine="38" d="M95.6231,416.1997 C94.2631,439.5797 93.04,460.45 91.67,483.82 " fill="none" id="ContactInformation-backto-PhoneNumber" style="stroke:#181818;stroke-width:1.0;"/><polygon fill="#181818" points="96.32,404.22,91.9783,409.9776,95.6231,416.1997,99.9648,410.4422,96.32,404.22" style="stroke:#181818;stroke-width:1.0;"/><text fill="#000000" font-family="sans-serif" font-size="13" lengthAdjust="spacing" textLength="7" x="88.3002" y="425.2051">1</text><text fill="#000000" font-family="sans-serif" font-size="13" lengthAdjust="spacing" textLength="7" x="84.2697" y="473.1435">1</text></g><!--reverse link Staff to FirstName--><g id="link_Staff_FirstName"><path codeLine="41" d="M379.0661,539.8701 C328.5261,560.5801 262.25,587.74 209.73,609.26 " fill="none" id="Staff-backto-FirstName" style="stroke:#181818;stroke-width:1.0;"/><polygon fill="#181818" points="390.17,535.32,383.1014,533.8937,379.0661,539.8701,386.1347,541.2963,390.17,535.32" style="stroke:#181818;stroke-width:1.0;"/><text fill="#000000" font-family="sans-serif" font-size="13" lengthAdjust="spacing" textLength="7" x="375.5298" y="534.8041">1</text><text fill="#000000" font-family="sans-serif" font-size="13" lengthAdjust="spacing" textLength="7" x="217.447" y="602.6659">1</text></g><!--reverse link Staff to LastName--><g id="link_Staff_LastName"><path codeLine="42" d="M397.9352,550.7945 C376.0852,569.2145 356.95,585.34 335.06,603.79 " fill="none" id="Staff-backto-LastName" style="stroke:#181818;stroke-width:1.0;"/><polygon fill="#181818" points="407.11,543.06,399.9444,543.869,397.9352,550.7945,405.1008,549.9855,407.11,543.06" style="stroke:#181818;stroke-width:1.0;"/><text fill="#000000" font-family="sans-serif" font-size="13" lengthAdjust="spacing" textLength="7" x="392.3983" y="564.3687">1</text><text fill="#000000" font-family="sans-serif" font-size="13" lengthAdjust="spacing" textLength="7" x="334.745" y="593.107">1</text></g><!--reverse link Staff to FullName--><g id="link_Staff_FullName"><path codeLine="43" d="M443.7525,555.0325 C445.0025,573.4525 445.8,585.34 447.05,603.79 " fill="none" id="Staff-backto-FullName" style="stroke:#181818;stroke-width:1.0;"/><polygon fill="#181818" points="442.94,543.06,439.3554,549.3171,443.7525,555.0325,447.3371,548.7754,442.94,543.06" style="stroke:#181818;stroke-width:1.0;"/><text fill="#000000" font-family="sans-serif" font-size="13" lengthAdjust="spacing" textLength="7" x="435.6183" y="564.3687">1</text><text fill="#000000" font-family="sans-serif" font-size="13" lengthAdjust="spacing" textLength="7" x="438.8578" y="593.107">1</text></g><!--link ContactInformation to Staff--><g id="link_ContactInformation_Staff"><path codeLine="44" d="M144.9,404.24 C159.39,412.5 175.59,421.12 191,428 C257.94,457.89 327.3396,480.0614 378.6196,495.0114 " fill="none" id="ContactInformation-to-Staff" style="stroke:#181818;stroke-width:1.0;"/><polygon fill="#181818" points="390.14,498.37,385.4993,492.8506,378.6196,495.0114,383.2603,500.5308,390.14,498.37" style="stroke:#181818;stroke-width:1.0;"/><text fill="#000000" font-family="sans-serif" font-size="13" lengthAdjust="spacing" textLength="7" x="146.4444" y="425.229">1</text><text fill="#000000" font-family="sans-serif" font-size="13" lengthAdjust="spacing" textLength="7" x="375.4956" y="492.6581">1</text></g><!--link AvailabilitySlots to Staff--><g id="link_AvailabilitySlots_Staff"><path codeLine="45" d="M441,404.22 C441,427.6 441,448.45 441,471.82 " fill="none" id="AvailabilitySlots-to-Staff" style="stroke:#181818;stroke-width:1.0;"/><polygon fill="#181818" points="441,483.82,445,477.82,441,471.82,437,477.82,441,483.82" style="stroke:#181818;stroke-width:1.0;"/><text fill="#000000" font-family="sans-serif" font-size="13" lengthAdjust="spacing" textLength="5" x="435.5078" y="425.2051">*</text><text fill="#000000" font-family="sans-serif" font-size="13" lengthAdjust="spacing" textLength="7" x="433.2344" y="473.1435">1</text></g><!--link LicenseNumber to Staff--><g id="link_LicenseNumber_Staff"><path codeLine="46" d="M309.8,404.22 C338.13,427.6 368.6745,452.8122 396.9945,476.1822 " fill="none" id="LicenseNumber-to-Staff" style="stroke:#181818;stroke-width:1.0;"/><polygon fill="#181818" points="406.25,483.82,404.1682,476.9159,396.9945,476.1822,399.0763,483.0863,406.25,483.82" style="stroke:#181818;stroke-width:1.0;"/><text fill="#000000" font-family="sans-serif" font-size="13" lengthAdjust="spacing" textLength="7" x="308.9622" y="425.2051">1</text><text fill="#000000" font-family="sans-serif" font-size="13" lengthAdjust="spacing" textLength="7" x="390.8828" y="473.1435">1</text></g><!--link SpecializationName to Specialization--><g id="link_SpecializationName_Specialization"><path codeLine="53" d="M481.65,101.3 C483.27,129.62 485.0535,160.6397 486.6735,188.9097 " fill="none" id="SpecializationName-to-Specialization" style="stroke:#181818;stroke-width:1.0;"/><polygon fill="#181818" points="487.36,200.89,491.0102,194.671,486.6735,188.9097,483.0233,195.1287,487.36,200.89" style="stroke:#181818;stroke-width:1.0;"/><text fill="#000000" font-family="sans-serif" font-size="13" lengthAdjust="spacing" textLength="51" x="485" y="145.4951">identifies</text><text fill="#000000" font-family="sans-serif" font-size="13" lengthAdjust="spacing" textLength="7" x="474.2858" y="122.3008">1</text><text fill="#000000" font-family="sans-serif" font-size="13" lengthAdjust="spacing" textLength="7" x="479.2356" y="190.2289">1</text></g><!--link DoctorID to Doctor--><g id="link_DoctorID_Doctor"><path codeLine="60" d="M680,101.3 C680,129.62 680,160.62 680,188.89 " fill="none" id="DoctorID-to-Doctor" style="stroke:#181818;stroke-width:1.0;"/><polygon fill="#181818" points="680,200.89,684,194.89,680,188.89,676,194.89,680,200.89" style="stroke:#181818;stroke-width:1.0;"/><text fill="#000000" font-family="sans-serif" font-size="13" lengthAdjust="spacing" textLength="51" x="681" y="145.4951">identifies</text><text fill="#000000" font-family="sans-serif" font-size="13" lengthAdjust="spacing" textLength="7" x="672.3109" y="122.3008">1</text><text fill="#000000" font-family="sans-serif" font-size="13" lengthAdjust="spacing" textLength="7" x="672.2344" y="190.2289">1</text></g><!--reverse link Doctor to Staff--><g id="link_Doctor_Staff"><path codeLine="63" d="M667.9893,265.774 C652.8293,306.554 622.81,376.48 577,428 C553.45,454.49 519.62,475.55 491.6,490.02 " fill="none" id="Doctor-backto-Staff" style="stroke:#181818;stroke-width:1.0;"/><polygon fill="#181818" points="670.08,260.15,663.1946,267.1921,668.3377,264.8366,670.6932,269.9797,670.08,260.15" style="stroke:#181818;stroke-width:1.0;"/><text fill="#000000" font-family="sans-serif" font-size="13" lengthAdjust="spacing" textLength="43" x="654" y="379.9951">may be</text><text fill="#000000" font-family="sans-serif" font-size="13" lengthAdjust="spacing" textLength="22" x="643.9614" y="281.1213">0..1</text><text fill="#000000" font-family="sans-serif" font-size="13" lengthAdjust="spacing" textLength="7" x="499.5459" y="482.9391">1</text></g><!--reverse link Specialization to Staff--><g id="link_Specialization_Staff"><path codeLine="64" d="M509.5039,265.4486 C516.0039,277.5786 519.73,286.87 523,301 C535.73,355.99 544.21,375.69 523,428 C514.17,449.79 496.72,469.05 480.19,483.66 " fill="none" id="Specialization-backto-Staff" style="stroke:#181818;stroke-width:1.0;"/><polygon fill="#181818" points="506.67,260.16,507.3952,269.9821,509.0316,264.5671,514.4466,266.2035,506.67,260.16" style="stroke:#181818;stroke-width:1.0;"/><text fill="#000000" font-family="sans-serif" font-size="13" lengthAdjust="spacing" textLength="32" x="536" y="379.9951">has a</text><text fill="#000000" font-family="sans-serif" font-size="13" lengthAdjust="spacing" textLength="7" x="502.4597" y="281.1333">1</text><text fill="#000000" font-family="sans-serif" font-size="13" lengthAdjust="spacing" textLength="7" x="480.9972" y="472.9485">1</text></g><!--reverse link User to Staff--><g id="link_User_Staff"><path codeLine="66" d="M986.9162,407.9248 C975.8462,416.8848 967.4,422.17 954,428 C795.29,497.05 586.52,510.07 491.73,512.25 " fill="none" id="User-backto-Staff" style="stroke:#181818;stroke-width:1.0;"/><polygon fill="#181818" points="991.58,404.15,982.0678,406.7031,987.6935,407.2957,987.1009,412.9214,991.58,404.15" style="stroke:#181818;stroke-width:1.0;"/><text fill="#000000" font-family="sans-serif" font-size="13" lengthAdjust="spacing" textLength="21" x="929" y="450.4951">is a</text></g><!--SRC=[dLLDRwCm53o7Ns7HmswZah3I7ZPHX1IrYHHfbQrIjVSNCCIjiLFRTDMj-j_N6C9700NA8OYy6R-Pvp5yEoXrbFFfz4Y1gIIc4v_7KubV4ynyx0G48W6nPTs3_m8HHeyIYsKK2Ho1mkZ3GlfQCKNKkocXnUBxqysLgw_r-XhjE5TvsVC-FYq3lwKW9LhwYho18fmzA529H3arT7_-Sjrhz0GqmUZF_XdxolEG9fVSj1E361UKcQ4yCg9beqs0TSUGO57oLYo93Mt7AHxGQHK3eSiW45W_zAVTwv-_N0GNAORJd8NzmqREsDnIqHciS6sgrVAfQiorLci-MX65v4RriznzBIyCExRVr0Ri_vjM17j2TUs1SZLalB-9Zvd4soJU5v6x40AhAlMMCmM-sh2GYzZCNIzoaedgEjT4IBMjXgs7FXXCMIUK3gHyDPi7piv7rndFV1BDUQNf63kEkLU5zC5N5EGDoY6Rz2N7F7ycKmPHZBGBK0om2z0Xoca0cycqnssuUWgRQrNFpH7x12ZvP_eM1wX-VcgO2mUftCuwRTlxhMYMQ27NVDGbpH4vBIAhxkwuhxYek1hbbh92gcUNMfdDsgoCCXyPTdFNK_sem5S5vmtFXUP_s-vaea4B9yzXziQQenZUqHvRPsxjDkW190BBoXxJb7dPPqztr8N_]--></g></svg>