<?xml version="1.0" encoding="us-ascii" standalone="no"?><svg xmlns="http://www.w3.org/2000/svg" xmlns:xlink="http://www.w3.org/1999/xlink" contentStyleType="text/css" height="869px" preserveAspectRatio="none" style="width:1413px;height:869px;background:#FFFFFF;" version="1.1" viewBox="0 0 1413 869" width="1413px" zoomAndPan="magnify"><defs/><g><rect fill="#FFFFFF" height="30.3516" style="stroke:#181818;stroke-width:1.0;" width="10" x="135" y="69.9609"/><rect fill="#FFFFFF" height="30.3516" style="stroke:#181818;stroke-width:1.0;" width="10" x="135" y="784.3047"/><rect fill="#FFFFFF" height="119.4063" style="stroke:#181818;stroke-width:1.0;" width="10" x="319" y="100.3125"/><rect fill="#FFFFFF" height="30.3516" style="stroke:#181818;stroke-width:1.0;" width="10" x="319" y="753.9531"/><rect fill="#FFFFFF" height="30.3516" style="stroke:#181818;stroke-width:1.0;" width="10" x="520" y="219.7188"/><rect fill="#FFFFFF" height="72.9609" style="stroke:#181818;stroke-width:1.0;" width="10" x="520" y="280.4219"/><rect fill="#FFFFFF" height="30.3516" style="stroke:#181818;stroke-width:1.0;" width="10" x="520" y="383.7344"/><rect fill="#FFFFFF" height="55.7031" style="stroke:#181818;stroke-width:1.0;" width="10" x="520" y="444.4375"/><rect fill="#FFFFFF" height="55.7031" style="stroke:#181818;stroke-width:1.0;" width="10" x="520" y="530.4922"/><rect fill="#FFFFFF" height="62.7031" style="stroke:#181818;stroke-width:1.0;" width="10" x="520" y="616.5469"/><rect fill="#FFFFFF" height="44.3516" style="stroke:#181818;stroke-width:1.0;" width="10" x="520" y="709.6016"/><rect fill="#FFFFFF" height="30.3516" style="stroke:#181818;stroke-width:1.0;" width="10" x="797" y="414.0859"/><rect fill="#FFFFFF" height="30.3516" style="stroke:#181818;stroke-width:1.0;" width="10" x="797" y="586.1953"/><rect fill="#FFFFFF" height="30.3516" style="stroke:#181818;stroke-width:1.0;" width="10" x="918" y="250.0703"/><rect fill="#FFFFFF" height="30.3516" style="stroke:#181818;stroke-width:1.0;" width="10" x="1027" y="353.3828"/><rect fill="#FFFFFF" height="30.3516" style="stroke:#181818;stroke-width:1.0;" width="10" x="1164.5" y="500.1406"/><rect fill="#FFFFFF" height="30.3516" style="stroke:#181818;stroke-width:1.0;" width="10" x="1320.5" y="679.25"/><rect fill="none" height="265.1641" style="stroke:#000000;stroke-width:1.5;" width="947.5" x="460" y="459.4375"/><rect fill="none" height="79.0547" style="stroke:#000000;stroke-width:1.5;" width="397.5" x="470" y="545.4922"/><rect fill="none" height="79.0547" style="stroke:#000000;stroke-width:1.5;" width="927.5" x="470" y="638.5469"/><line style="stroke:#181818;stroke-width:0.5;stroke-dasharray:5.0,5.0;" x1="139.5" x2="139.5" y1="37.6094" y2="832.6563"/><line style="stroke:#181818;stroke-width:0.5;stroke-dasharray:5.0,5.0;" x1="323.5" x2="323.5" y1="37.6094" y2="832.6563"/><line style="stroke:#181818;stroke-width:0.5;stroke-dasharray:5.0,5.0;" x1="433" x2="433" y1="139.6172" y2="832.6563"/><line style="stroke:#181818;stroke-width:0.5;stroke-dasharray:5.0,5.0;" x1="525" x2="525" y1="37.6094" y2="832.6563"/><line style="stroke:#181818;stroke-width:0.5;stroke-dasharray:5.0,5.0;" x1="801.5" x2="801.5" y1="37.6094" y2="832.6563"/><line style="stroke:#181818;stroke-width:0.5;stroke-dasharray:5.0,5.0;" x1="922.5" x2="922.5" y1="37.6094" y2="832.6563"/><line style="stroke:#181818;stroke-width:0.5;stroke-dasharray:5.0,5.0;" x1="1031.5" x2="1031.5" y1="319.7266" y2="832.6563"/><line style="stroke:#181818;stroke-width:0.5;stroke-dasharray:5.0,5.0;" x1="1169.5" x2="1169.5" y1="37.6094" y2="832.6563"/><line style="stroke:#181818;stroke-width:0.5;stroke-dasharray:5.0,5.0;" x1="1325.5" x2="1325.5" y1="37.6094" y2="832.6563"/><rect fill="#E2E2F0" height="31.6094" rx="2.5" ry="2.5" style="stroke:#181818;stroke-width:0.5;" width="63" x="108.5" y="5"/><text fill="#000000" font-family="sans-serif" font-size="14" lengthAdjust="spacing" textLength="49" x="115.5" y="26.5332">Routing</text><rect fill="#E2E2F0" height="31.6094" rx="2.5" ry="2.5" style="stroke:#181818;stroke-width:0.5;" width="63" x="108.5" y="831.6563"/><text fill="#000000" font-family="sans-serif" font-size="14" lengthAdjust="spacing" textLength="49" x="115.5" y="853.1895">Routing</text><rect fill="#E2E2F0" height="31.6094" rx="2.5" ry="2.5" style="stroke:#181818;stroke-width:0.5;" width="105" x="271.5" y="5"/><text fill="#000000" font-family="sans-serif" font-size="14" lengthAdjust="spacing" textLength="91" x="278.5" y="26.5332">StaffController</text><rect fill="#E2E2F0" height="31.6094" rx="2.5" ry="2.5" style="stroke:#181818;stroke-width:0.5;" width="105" x="271.5" y="831.6563"/><text fill="#000000" font-family="sans-serif" font-size="14" lengthAdjust="spacing" textLength="91" x="278.5" y="853.1895">StaffController</text><rect fill="#E2E2F0" height="31.6094" rx="2.5" ry="2.5" style="stroke:#181818;stroke-width:0.5;" width="73" x="397" y="831.6563"/><text fill="#000000" font-family="sans-serif" font-size="14" lengthAdjust="spacing" textLength="59" x="404" y="853.1895">StaffDTO</text><rect fill="#E2E2F0" height="31.6094" rx="2.5" ry="2.5" style="stroke:#181818;stroke-width:0.5;" width="90" x="480" y="5"/><text fill="#000000" font-family="sans-serif" font-size="14" lengthAdjust="spacing" textLength="76" x="487" y="26.5332">StaffService</text><rect fill="#E2E2F0" height="31.6094" rx="2.5" ry="2.5" style="stroke:#181818;stroke-width:0.5;" width="90" x="480" y="831.6563"/><text fill="#000000" font-family="sans-serif" font-size="14" lengthAdjust="spacing" textLength="76" x="487" y="853.1895">StaffService</text><rect fill="#E2E2F0" height="31.6094" rx="2.5" ry="2.5" style="stroke:#181818;stroke-width:0.5;" width="111" x="746.5" y="5"/><text fill="#000000" font-family="sans-serif" font-size="14" lengthAdjust="spacing" textLength="97" x="753.5" y="26.5332">StaffRepository</text><rect fill="#E2E2F0" height="31.6094" rx="2.5" ry="2.5" style="stroke:#181818;stroke-width:0.5;" width="111" x="746.5" y="831.6563"/><text fill="#000000" font-family="sans-serif" font-size="14" lengthAdjust="spacing" textLength="97" x="753.5" y="853.1895">StaffRepository</text><rect fill="#E2E2F0" height="31.6094" rx="2.5" ry="2.5" style="stroke:#181818;stroke-width:0.5;" width="111" x="867.5" y="5"/><text fill="#000000" font-family="sans-serif" font-size="14" lengthAdjust="spacing" textLength="97" x="874.5" y="26.5332">UserRepository</text><rect fill="#E2E2F0" height="31.6094" rx="2.5" ry="2.5" style="stroke:#181818;stroke-width:0.5;" width="111" x="867.5" y="831.6563"/><text fill="#000000" font-family="sans-serif" font-size="14" lengthAdjust="spacing" textLength="97" x="874.5" y="853.1895">UserRepository</text><rect fill="#E2E2F0" height="31.6094" rx="2.5" ry="2.5" style="stroke:#181818;stroke-width:0.5;" width="87" x="988.5" y="831.6563"/><text fill="#000000" font-family="sans-serif" font-size="14" lengthAdjust="spacing" textLength="73" x="995.5" y="853.1895">StaffBuilder</text><rect fill="#E2E2F0" height="31.6094" rx="2.5" ry="2.5" style="stroke:#181818;stroke-width:0.5;" width="168" x="1085.5" y="5"/><text fill="#000000" font-family="sans-serif" font-size="14" lengthAdjust="spacing" textLength="154" x="1092.5" y="26.5332">SpecializationRepository</text><rect fill="#E2E2F0" height="31.6094" rx="2.5" ry="2.5" style="stroke:#181818;stroke-width:0.5;" width="168" x="1085.5" y="831.6563"/><text fill="#000000" font-family="sans-serif" font-size="14" lengthAdjust="spacing" textLength="154" x="1092.5" y="853.1895">SpecializationRepository</text><rect fill="#E2E2F0" height="31.6094" rx="2.5" ry="2.5" style="stroke:#181818;stroke-width:0.5;" width="124" x="1263.5" y="5"/><text fill="#000000" font-family="sans-serif" font-size="14" lengthAdjust="spacing" textLength="110" x="1270.5" y="26.5332">DoctorRepository</text><rect fill="#E2E2F0" height="31.6094" rx="2.5" ry="2.5" style="stroke:#181818;stroke-width:0.5;" width="124" x="1263.5" y="831.6563"/><text fill="#000000" font-family="sans-serif" font-size="14" lengthAdjust="spacing" textLength="110" x="1270.5" y="853.1895">DoctorRepository</text><rect fill="#FFFFFF" height="30.3516" style="stroke:#181818;stroke-width:1.0;" width="10" x="135" y="69.9609"/><rect fill="#FFFFFF" height="30.3516" style="stroke:#181818;stroke-width:1.0;" width="10" x="135" y="784.3047"/><rect fill="#FFFFFF" height="119.4063" style="stroke:#181818;stroke-width:1.0;" width="10" x="319" y="100.3125"/><rect fill="#FFFFFF" height="30.3516" style="stroke:#181818;stroke-width:1.0;" width="10" x="319" y="753.9531"/><rect fill="#FFFFFF" height="30.3516" style="stroke:#181818;stroke-width:1.0;" width="10" x="520" y="219.7188"/><rect fill="#FFFFFF" height="72.9609" style="stroke:#181818;stroke-width:1.0;" width="10" x="520" y="280.4219"/><rect fill="#FFFFFF" height="30.3516" style="stroke:#181818;stroke-width:1.0;" width="10" x="520" y="383.7344"/><rect fill="#FFFFFF" height="55.7031" style="stroke:#181818;stroke-width:1.0;" width="10" x="520" y="444.4375"/><rect fill="#FFFFFF" height="55.7031" style="stroke:#181818;stroke-width:1.0;" width="10" x="520" y="530.4922"/><rect fill="#FFFFFF" height="62.7031" style="stroke:#181818;stroke-width:1.0;" width="10" x="520" y="616.5469"/><rect fill="#FFFFFF" height="44.3516" style="stroke:#181818;stroke-width:1.0;" width="10" x="520" y="709.6016"/><rect fill="#FFFFFF" height="30.3516" style="stroke:#181818;stroke-width:1.0;" width="10" x="797" y="414.0859"/><rect fill="#FFFFFF" height="30.3516" style="stroke:#181818;stroke-width:1.0;" width="10" x="797" y="586.1953"/><rect fill="#FFFFFF" height="30.3516" style="stroke:#181818;stroke-width:1.0;" width="10" x="918" y="250.0703"/><rect fill="#FFFFFF" height="30.3516" style="stroke:#181818;stroke-width:1.0;" width="10" x="1027" y="353.3828"/><rect fill="#FFFFFF" height="30.3516" style="stroke:#181818;stroke-width:1.0;" width="10" x="1164.5" y="500.1406"/><rect fill="#FFFFFF" height="30.3516" style="stroke:#181818;stroke-width:1.0;" width="10" x="1320.5" y="679.25"/><polygon fill="#181818" points="123,65.9609,133,69.9609,123,73.9609,127,69.9609" style="stroke:#181818;stroke-width:1.0;"/><line style="stroke:#181818;stroke-width:1.0;" x1="0" x2="129" y1="69.9609" y2="69.9609"/><text fill="#000000" font-family="sans-serif" font-size="13" lengthAdjust="spacing" textLength="116" x="7" y="65.1045">PUT(staffDTO, auth)</text><polygon fill="#181818" points="307,96.3125,317,100.3125,307,104.3125,311,100.3125" style="stroke:#181818;stroke-width:1.0;"/><line style="stroke:#181818;stroke-width:1.0;" x1="140" x2="313" y1="100.3125" y2="100.3125"/><text fill="#000000" font-family="sans-serif" font-size="13" lengthAdjust="spacing" textLength="155" x="147" y="95.4561">CreateStaff(staffDTO, auth)</text><polygon fill="#181818" points="385,126.6641,395,130.6641,385,134.6641,389,130.6641" style="stroke:#181818;stroke-width:1.0;"/><line style="stroke:#181818;stroke-width:1.0;" x1="329" x2="391" y1="130.6641" y2="130.6641"/><text fill="#000000" font-family="sans-serif" font-size="13" lengthAdjust="spacing" textLength="44" x="336" y="125.8076">create()</text><rect fill="#E2E2F0" height="31.6094" rx="2.5" ry="2.5" style="stroke:#181818;stroke-width:0.5;" width="73" x="397" y="108.3125"/><text fill="#000000" font-family="sans-serif" font-size="14" lengthAdjust="spacing" textLength="59" x="404" y="129.8457">StaffDTO</text><rect fill="none" height="41.4453" style="stroke:#000000;stroke-width:1.5;" width="142" x="268.5" y="150.9219"/><path d="M268.5,150.9219 L330.5,150.9219 L330.5,158.9219 L320.5,168.9219 L268.5,168.9219 L268.5,150.9219 " fill="#EEEEEE" style="stroke:#000000;stroke-width:2.0;"/><text fill="#000000" font-family="sans-serif" font-size="13" font-weight="bold" lengthAdjust="spacing" textLength="17" x="281.5" y="166.417">ref</text><text fill="#000000" font-family="sans-serif" font-size="12" lengthAdjust="spacing" textLength="134" x="272.5" y="185.3789">Refer to generic auth SD</text><polygon fill="#181818" points="508,215.7188,518,219.7188,508,223.7188,512,219.7188" style="stroke:#181818;stroke-width:1.0;"/><line style="stroke:#181818;stroke-width:1.0;" x1="324" x2="514" y1="219.7188" y2="219.7188"/><text fill="#000000" font-family="sans-serif" font-size="13" lengthAdjust="spacing" textLength="132" x="331" y="214.8623">RegisterStaff(staffDTO)</text><polygon fill="#181818" points="906,246.0703,916,250.0703,906,254.0703,910,250.0703" style="stroke:#181818;stroke-width:1.0;"/><line style="stroke:#181818;stroke-width:1.0;" x1="525" x2="912" y1="250.0703" y2="250.0703"/><text fill="#000000" font-family="sans-serif" font-size="13" lengthAdjust="spacing" textLength="123" x="532" y="245.2139">GetByIdAsync(email)</text><polygon fill="#181818" points="541,276.4219,531,280.4219,541,284.4219,537,280.4219" style="stroke:#181818;stroke-width:1.0;"/><line style="stroke:#181818;stroke-width:1.0;stroke-dasharray:2.0,2.0;" x1="535" x2="922" y1="280.4219" y2="280.4219"/><text fill="#000000" font-family="sans-serif" font-size="13" lengthAdjust="spacing" textLength="25" x="547" y="275.5654">user</text><polygon fill="#181818" points="976.5,306.7734,986.5,310.7734,976.5,314.7734,980.5,310.7734" style="stroke:#181818;stroke-width:1.0;"/><line style="stroke:#181818;stroke-width:1.0;" x1="530" x2="982.5" y1="310.7734" y2="310.7734"/><text fill="#000000" font-family="sans-serif" font-size="13" lengthAdjust="spacing" textLength="44" x="537" y="305.917">create()</text><rect fill="#E2E2F0" height="31.6094" rx="2.5" ry="2.5" style="stroke:#181818;stroke-width:0.5;" width="87" x="988.5" y="288.4219"/><text fill="#000000" font-family="sans-serif" font-size="14" lengthAdjust="spacing" textLength="73" x="995.5" y="309.9551">StaffBuilder</text><polygon fill="#181818" points="1015,349.3828,1025,353.3828,1015,357.3828,1019,353.3828" style="stroke:#181818;stroke-width:1.0;"/><line style="stroke:#181818;stroke-width:1.0;" x1="525" x2="1021" y1="353.3828" y2="353.3828"/><text fill="#000000" font-family="sans-serif" font-size="13" lengthAdjust="spacing" textLength="177" x="532" y="348.5264">updateStaffWithData(staffDTO)</text><polygon fill="#181818" points="541,379.7344,531,383.7344,541,387.7344,537,383.7344" style="stroke:#181818;stroke-width:1.0;"/><line style="stroke:#181818;stroke-width:1.0;stroke-dasharray:2.0,2.0;" x1="535" x2="1031" y1="383.7344" y2="383.7344"/><text fill="#000000" font-family="sans-serif" font-size="13" lengthAdjust="spacing" textLength="24" x="547" y="378.8779">staff</text><polygon fill="#181818" points="785,410.0859,795,414.0859,785,418.0859,789,414.0859" style="stroke:#181818;stroke-width:1.0;"/><line style="stroke:#181818;stroke-width:1.0;" x1="525" x2="791" y1="414.0859" y2="414.0859"/><text fill="#000000" font-family="sans-serif" font-size="13" lengthAdjust="spacing" textLength="248" x="532" y="409.2295">GetStaffByContact(staffContactInformation)</text><polygon fill="#181818" points="541,440.4375,531,444.4375,541,448.4375,537,444.4375" style="stroke:#181818;stroke-width:1.0;"/><line style="stroke:#181818;stroke-width:1.0;stroke-dasharray:2.0,2.0;" x1="535" x2="801" y1="444.4375" y2="444.4375"/><text fill="#000000" font-family="sans-serif" font-size="13" lengthAdjust="spacing" textLength="50" x="547" y="439.5811">staffDTO</text><path d="M460,459.4375 L521,459.4375 L521,467.7891 L511,477.7891 L460,477.7891 L460,459.4375 " fill="#EEEEEE" style="stroke:#000000;stroke-width:1.5;"/><rect fill="none" height="265.1641" style="stroke:#000000;stroke-width:1.5;" width="947.5" x="460" y="459.4375"/><text fill="#000000" font-family="sans-serif" font-size="13" font-weight="bold" lengthAdjust="spacing" textLength="16" x="475" y="473.9326">alt</text><text fill="#000000" font-family="sans-serif" font-size="11" font-weight="bold" lengthAdjust="spacing" textLength="173" x="536" y="472.8564">[contact information isn't used]</text><polygon fill="#181818" points="1152.5,496.1406,1162.5,500.1406,1152.5,504.1406,1156.5,500.1406" style="stroke:#181818;stroke-width:1.0;"/><line style="stroke:#181818;stroke-width:1.0;" x1="525" x2="1158.5" y1="500.1406" y2="500.1406"/><text fill="#000000" font-family="sans-serif" font-size="13" lengthAdjust="spacing" textLength="197" x="532" y="495.2842">GetByIdAsync(staffSpecialization)</text><polygon fill="#181818" points="541,526.4922,531,530.4922,541,534.4922,537,530.4922" style="stroke:#181818;stroke-width:1.0;"/><line style="stroke:#181818;stroke-width:1.0;stroke-dasharray:2.0,2.0;" x1="535" x2="1168.5" y1="530.4922" y2="530.4922"/><text fill="#000000" font-family="sans-serif" font-size="13" lengthAdjust="spacing" textLength="50" x="547" y="525.6357">staffDTO</text><path d="M470,545.4922 L531,545.4922 L531,553.8438 L521,563.8438 L470,563.8438 L470,545.4922 " fill="#EEEEEE" style="stroke:#000000;stroke-width:1.5;"/><rect fill="none" height="79.0547" style="stroke:#000000;stroke-width:1.5;" width="397.5" x="470" y="545.4922"/><text fill="#000000" font-family="sans-serif" font-size="13" font-weight="bold" lengthAdjust="spacing" textLength="16" x="485" y="559.9873">alt</text><text fill="#000000" font-family="sans-serif" font-size="11" font-weight="bold" lengthAdjust="spacing" textLength="120" x="546" y="558.9111">[specialization exists]</text><polygon fill="#181818" points="785,582.1953,795,586.1953,785,590.1953,789,586.1953" style="stroke:#181818;stroke-width:1.0;"/><line style="stroke:#181818;stroke-width:1.0;" x1="525" x2="791" y1="586.1953" y2="586.1953"/><text fill="#000000" font-family="sans-serif" font-size="13" lengthAdjust="spacing" textLength="92" x="532" y="581.3389">AddAsync(staff)</text><polygon fill="#181818" points="541,612.5469,531,616.5469,541,620.5469,537,616.5469" style="stroke:#181818;stroke-width:1.0;"/><line style="stroke:#181818;stroke-width:1.0;stroke-dasharray:2.0,2.0;" x1="535" x2="801" y1="616.5469" y2="616.5469"/><text fill="#000000" font-family="sans-serif" font-size="13" lengthAdjust="spacing" textLength="50" x="547" y="611.6904">staffDTO</text><path d="M470,638.5469 L531,638.5469 L531,646.8984 L521,656.8984 L470,656.8984 L470,638.5469 " fill="#EEEEEE" style="stroke:#000000;stroke-width:1.5;"/><rect fill="none" height="79.0547" style="stroke:#000000;stroke-width:1.5;" width="927.5" x="470" y="638.5469"/><text fill="#000000" font-family="sans-serif" font-size="13" font-weight="bold" lengthAdjust="spacing" textLength="16" x="485" y="653.042">alt</text><text fill="#000000" font-family="sans-serif" font-size="11" font-weight="bold" lengthAdjust="spacing" textLength="135" x="546" y="651.9658">[specialization is doctor]</text><polygon fill="#181818" points="1308.5,675.25,1318.5,679.25,1308.5,683.25,1312.5,679.25" style="stroke:#181818;stroke-width:1.0;"/><line style="stroke:#181818;stroke-width:1.0;" x1="525" x2="1314.5" y1="679.25" y2="679.25"/><text fill="#000000" font-family="sans-serif" font-size="13" lengthAdjust="spacing" textLength="92" x="532" y="674.3936">AddAsync(staff)</text><polygon fill="#181818" points="541,705.6016,531,709.6016,541,713.6016,537,709.6016" style="stroke:#181818;stroke-width:1.0;"/><line style="stroke:#181818;stroke-width:1.0;stroke-dasharray:2.0,2.0;" x1="535" x2="1324.5" y1="709.6016" y2="709.6016"/><text fill="#000000" font-family="sans-serif" font-size="13" lengthAdjust="spacing" textLength="50" x="547" y="704.7451">staffDTO</text><polygon fill="#181818" points="340,749.9531,330,753.9531,340,757.9531,336,753.9531" style="stroke:#181818;stroke-width:1.0;"/><line style="stroke:#181818;stroke-width:1.0;stroke-dasharray:2.0,2.0;" x1="334" x2="524" y1="753.9531" y2="753.9531"/><text fill="#000000" font-family="sans-serif" font-size="13" lengthAdjust="spacing" textLength="50" x="346" y="749.0967">staffDTO</text><polygon fill="#181818" points="156,780.3047,146,784.3047,156,788.3047,152,784.3047" style="stroke:#181818;stroke-width:1.0;"/><line style="stroke:#181818;stroke-width:1.0;stroke-dasharray:2.0,2.0;" x1="150" x2="323" y1="784.3047" y2="784.3047"/><text fill="#000000" font-family="sans-serif" font-size="13" lengthAdjust="spacing" textLength="50" x="162" y="779.4482">staffDTO</text><polygon fill="#181818" points="11,810.6563,1,814.6563,11,818.6563,7,814.6563" style="stroke:#181818;stroke-width:1.0;"/><line style="stroke:#181818;stroke-width:1.0;stroke-dasharray:2.0,2.0;" x1="5" x2="139" y1="814.6563" y2="814.6563"/><text fill="#000000" font-family="sans-serif" font-size="13" lengthAdjust="spacing" textLength="50" x="17" y="809.7998">staffDTO</text><!--SRC=[dLHDRzmW43t3h-3MtQZx1wggKf9DgvnIUPFsJF5uW-JO5h2hRdzz1p3O69ojUeFXpUFDvy2LaK8El3Eiwaz6TaV6DLDu13hC7W-6DyrztndLjoqe2n96jJbc__oK6m-WpbA0zTBkVXOvg8AXrzBqwX9nrfG0NpIe57SQBJdVtKcsjPVwonzJp012ybR-uKRstU9pVCj8zxt0znHOHnkbkoy-R-mJ-_xolD5ZDZuoVZAlMyg5aMUEppwv7ee-DeteSgy07vtmpBM6XNEykXfGHu5KeG0tDqWe7E5cIsdry9Kz_NYeFBg21fDYUdQ43fGKxWzss5FeQgQWcUX2gP2iWgFK1bIgBr7coECjbfb65cGCnKB6Rs3kBe_rhRvqOWDlNBO9M_IFbbXe6bbsgKXhdtD4Zokgnkv8irO0s2-6EbJffpIlUsvuEHkv_j23DB0jrBlZd28uN54V1yKdrRV-nOugEdfnu-MnQthrvjhzYjPf-EX4Nz9hftt9j9PotXecl18c9obCwkw3iSMgAKa26uTmsImUaqplbf9IF6GoXO76BmBjMZm9LV0ZXO28ZKWdGXZynZdHb92r4jtMyp1GU5avATLYP7rVFIdMWnG283ZnvIXas6oBGAPrzp-Hp9SbWYUkVufbvhqM37CxR3uUqtvTRTUayUVxTBRFWpDRNtWUIkddtIvponVuNm00]--></g></svg>