<?xml version="1.0" encoding="us-ascii" standalone="no"?><svg xmlns="http://www.w3.org/2000/svg" xmlns:xlink="http://www.w3.org/1999/xlink" contentStyleType="text/css" height="888.3px" preserveAspectRatio="none" style="width:1479px;height:888px;background:#FFFFFF;" version="1.1" viewBox="0 0 1479 888" width="1479.8px" zoomAndPan="magnify"><defs/><g><rect fill="#FFFFFF" height="21.9037" style="stroke:#181818;stroke-width:0.6999999999999998;" width="7" x="132.3" y="50.3385"/><rect fill="#FFFFFF" height="21.9037" style="stroke:#181818;stroke-width:0.6999999999999998;" width="7" x="132.3" y="827.4615"/><rect fill="#FFFFFF" height="21.9037" style="stroke:#181818;stroke-width:0.6999999999999998;" width="7" x="266" y="72.2422"/><rect fill="#FFFFFF" height="40.3074" style="stroke:#181818;stroke-width:0.6999999999999998;" width="7" x="266" y="390.3252"/><rect fill="#FFFFFF" height="45.2074" style="stroke:#181818;stroke-width:0.6999999999999998;" width="7" x="266" y="608.8934"/><rect fill="#FFFFFF" height="77.1148" style="stroke:#181818;stroke-width:0.6999999999999998;" width="7" x="266" y="750.3467"/><rect fill="#FFFFFF" height="21.9037" style="stroke:#181818;stroke-width:0.6999999999999998;" width="7" x="399.7" y="94.1459"/><rect fill="#FFFFFF" height="83.9111" style="stroke:#181818;stroke-width:0.6999999999999998;" width="7" x="399.7" y="137.9533"/><rect fill="#FFFFFF" height="29.6037" style="stroke:#181818;stroke-width:0.6999999999999998;" width="7" x="403.2" y="165.457"/><rect fill="#FFFFFF" height="21.9037" style="stroke:#181818;stroke-width:0.6999999999999998;" width="7" x="399.7" y="243.7682"/><rect fill="#FFFFFF" height="52.4385" style="stroke:#181818;stroke-width:0.6999999999999998;" width="7" x="399.7" y="337.8867"/><rect fill="#FFFFFF" height="21.9037" style="stroke:#181818;stroke-width:0.6999999999999998;" width="7" x="564.9" y="430.6326"/><rect fill="#FFFFFF" height="21.9037" style="stroke:#181818;stroke-width:0.6999999999999998;" width="7" x="564.9" y="474.44"/><rect fill="#FFFFFF" height="52.4385" style="stroke:#181818;stroke-width:0.6999999999999998;" width="7" x="564.9" y="556.4549"/><rect fill="#FFFFFF" height="21.9037" style="stroke:#181818;stroke-width:0.6999999999999998;" width="7" x="803.25" y="654.1008"/><rect fill="#FFFFFF" height="52.4385" style="stroke:#181818;stroke-width:0.6999999999999998;" width="7" x="803.25" y="697.9082"/><rect fill="#FFFFFF" height="21.9037" style="stroke:#181818;stroke-width:0.6999999999999998;" width="7" x="938.35" y="116.0496"/><rect fill="#FFFFFF" height="21.9037" style="stroke:#181818;stroke-width:0.6999999999999998;" width="7" x="938.35" y="452.5363"/><rect fill="#FFFFFF" height="60.1111" style="stroke:#181818;stroke-width:0.6999999999999998;" width="7" x="938.35" y="496.3437"/><rect fill="#FFFFFF" height="21.9037" style="stroke:#181818;stroke-width:0.6999999999999998;" width="7" x="938.35" y="676.0045"/><rect fill="#FFFFFF" height="21.9037" style="stroke:#181818;stroke-width:0.6999999999999998;" width="7" x="1144.5" y="221.8645"/><rect fill="#FFFFFF" height="72.2148" style="stroke:#181818;stroke-width:0.6999999999999998;" width="7" x="1144.5" y="265.6719"/><rect fill="none" height="213.6682" style="stroke:#000000;stroke-width:1.0499999999999998;" width="867.65" x="223.65" y="400.8252"/><rect fill="none" height="181.9645" style="stroke:#000000;stroke-width:1.0499999999999998;" width="1203.3" x="116.2" y="624.2934"/><line style="stroke:#181818;stroke-width:0.3499999999999999;stroke-dasharray:5.0,5.0;" x1="135.45" x2="135.45" y1="27.0348" y2="861.9652"/><line style="stroke:#181818;stroke-width:0.3499999999999999;stroke-dasharray:5.0,5.0;" x1="269.15" x2="269.15" y1="27.0348" y2="861.9652"/><line style="stroke:#181818;stroke-width:0.3499999999999999;stroke-dasharray:5.0,5.0;" x1="403.2" x2="403.2" y1="27.0348" y2="861.9652"/><line style="stroke:#181818;stroke-width:0.3499999999999999;stroke-dasharray:5.0,5.0;" x1="568.4" x2="568.4" y1="27.0348" y2="861.9652"/><line style="stroke:#181818;stroke-width:0.3499999999999999;stroke-dasharray:5.0,5.0;" x1="654.5" x2="654.5" y1="584.3223" y2="861.9652"/><line style="stroke:#181818;stroke-width:0.3499999999999999;stroke-dasharray:5.0,5.0;" x1="724.5" x2="724.5" y1="365.7541" y2="861.9652"/><line style="stroke:#181818;stroke-width:0.3499999999999999;stroke-dasharray:5.0,5.0;" x1="806.4" x2="806.4" y1="27.0348" y2="861.9652"/><line style="stroke:#181818;stroke-width:0.3499999999999999;stroke-dasharray:5.0,5.0;" x1="941.5" x2="941.5" y1="27.0348" y2="861.9652"/><line style="stroke:#181818;stroke-width:0.3499999999999999;stroke-dasharray:5.0,5.0;" x1="1030.4" x2="1030.4" y1="27.0348" y2="861.9652"/><line style="stroke:#181818;stroke-width:0.3499999999999999;stroke-dasharray:5.0,5.0;" x1="1148" x2="1148" y1="27.0348" y2="861.9652"/><line style="stroke:#181818;stroke-width:0.3499999999999999;stroke-dasharray:5.0,5.0;" x1="1237.6" x2="1237.6" y1="27.0348" y2="861.9652"/><line style="stroke:#181818;stroke-width:0.3499999999999999;stroke-dasharray:5.0,5.0;" x1="1285.9" x2="1285.9" y1="725.7756" y2="861.9652"/><rect fill="#E2E2F0" height="22.8348" rx="1.75" ry="1.75" style="stroke:#181818;stroke-width:0.3499999999999999;" width="44.1" x="113.75" y="3.5"/><text fill="#000000" font-family="sans-serif" font-size="9.8" lengthAdjust="spacing" textLength="34.3" x="118.65" y="18.9752">Routing</text><rect fill="#E2E2F0" height="22.8348" rx="1.75" ry="1.75" style="stroke:#181818;stroke-width:0.3499999999999999;" width="44.1" x="113.75" y="861.2652"/><text fill="#000000" font-family="sans-serif" font-size="9.8" lengthAdjust="spacing" textLength="34.3" x="118.65" y="876.7404">Routing</text><rect fill="#E2E2F0" height="22.8348" rx="1.75" ry="1.75" style="stroke:#181818;stroke-width:0.3499999999999999;" width="77.7" x="230.65" y="3.5"/><text fill="#000000" font-family="sans-serif" font-size="9.8" lengthAdjust="spacing" textLength="67.9" x="235.55" y="18.9752">LoginController</text><rect fill="#E2E2F0" height="22.8348" rx="1.75" ry="1.75" style="stroke:#181818;stroke-width:0.3499999999999999;" width="77.7" x="230.65" y="861.2652"/><text fill="#000000" font-family="sans-serif" font-size="9.8" lengthAdjust="spacing" textLength="67.9" x="235.55" y="876.7404">LoginController</text><rect fill="#E2E2F0" height="22.8348" rx="1.75" ry="1.75" style="stroke:#181818;stroke-width:0.3499999999999999;" width="67.2" x="369.6" y="3.5"/><text fill="#000000" font-family="sans-serif" font-size="9.8" lengthAdjust="spacing" textLength="57.4" x="374.5" y="18.9752">LoginService</text><rect fill="#E2E2F0" height="22.8348" rx="1.75" ry="1.75" style="stroke:#181818;stroke-width:0.3499999999999999;" width="67.2" x="369.6" y="861.2652"/><text fill="#000000" font-family="sans-serif" font-size="9.8" lengthAdjust="spacing" textLength="57.4" x="374.5" y="876.7404">LoginService</text><rect fill="#E2E2F0" height="22.8348" rx="1.75" ry="1.75" style="stroke:#181818;stroke-width:0.3499999999999999;" width="63" x="536.9" y="3.5"/><text fill="#000000" font-family="sans-serif" font-size="9.8" lengthAdjust="spacing" textLength="53.2" x="541.8" y="18.9752">UserService</text><rect fill="#E2E2F0" height="22.8348" rx="1.75" ry="1.75" style="stroke:#181818;stroke-width:0.3499999999999999;" width="63" x="536.9" y="861.2652"/><text fill="#000000" font-family="sans-serif" font-size="9.8" lengthAdjust="spacing" textLength="53.2" x="541.8" y="876.7404">UserService</text><rect fill="#E2E2F0" height="22.8348" rx="1.75" ry="1.75" style="stroke:#181818;stroke-width:0.3499999999999999;" width="45.5" x="632.1" y="861.2652"/><text fill="#000000" font-family="sans-serif" font-size="9.8" lengthAdjust="spacing" textLength="35.7" x="637" y="876.7404">UserDto</text><rect fill="#E2E2F0" height="22.8348" rx="1.75" ry="1.75" style="stroke:#181818;stroke-width:0.3499999999999999;" width="79.8" x="684.6" y="861.2652"/><text fill="#000000" font-family="sans-serif" font-size="9.8" lengthAdjust="spacing" textLength="70" x="689.5" y="876.7404">LoginOutputDto</text><rect fill="#E2E2F0" height="22.8348" rx="1.75" ry="1.75" style="stroke:#181818;stroke-width:0.3499999999999999;" width="70.7" x="771.4" y="3.5"/><text fill="#000000" font-family="sans-serif" font-size="9.8" lengthAdjust="spacing" textLength="60.9" x="776.3" y="18.9752">TokenService</text><rect fill="#E2E2F0" height="22.8348" rx="1.75" ry="1.75" style="stroke:#181818;stroke-width:0.3499999999999999;" width="70.7" x="771.4" y="861.2652"/><text fill="#000000" font-family="sans-serif" font-size="9.8" lengthAdjust="spacing" textLength="60.9" x="776.3" y="876.7404">TokenService</text><rect fill="#E2E2F0" height="22.8348" rx="1.75" ry="1.75" style="stroke:#181818;stroke-width:0.3499999999999999;" width="77.7" x="903" y="3.5"/><text fill="#000000" font-family="sans-serif" font-size="9.8" lengthAdjust="spacing" textLength="67.9" x="907.9" y="18.9752">UserRepository</text><rect fill="#E2E2F0" height="22.8348" rx="1.75" ry="1.75" style="stroke:#181818;stroke-width:0.3499999999999999;" width="77.7" x="903" y="861.2652"/><text fill="#000000" font-family="sans-serif" font-size="9.8" lengthAdjust="spacing" textLength="67.9" x="907.9" y="876.7404">UserRepository</text><rect fill="#E2E2F0" height="22.8348" rx="1.75" ry="1.75" style="stroke:#181818;stroke-width:0.3499999999999999;" width="85.4" x="987.7" y="3.5"/><text fill="#000000" font-family="sans-serif" font-size="9.8" lengthAdjust="spacing" textLength="75.6" x="992.6" y="18.9752">TokenRepository</text><rect fill="#E2E2F0" height="22.8348" rx="1.75" ry="1.75" style="stroke:#181818;stroke-width:0.3499999999999999;" width="85.4" x="987.7" y="861.2652"/><text fill="#000000" font-family="sans-serif" font-size="9.8" lengthAdjust="spacing" textLength="75.6" x="992.6" y="876.7404">TokenRepository</text><rect fill="#E2E2F0" height="22.8348" rx="1.75" ry="1.75" style="stroke:#181818;stroke-width:0.3499999999999999;" width="135.8" x="1080.1" y="3.5"/><text fill="#000000" font-family="sans-serif" font-size="9.8" lengthAdjust="spacing" textLength="126" x="1085" y="18.9752">UserLoginAttemptRepository</text><rect fill="#E2E2F0" height="22.8348" rx="1.75" ry="1.75" style="stroke:#181818;stroke-width:0.3499999999999999;" width="135.8" x="1080.1" y="861.2652"/><text fill="#000000" font-family="sans-serif" font-size="9.8" lengthAdjust="spacing" textLength="126" x="1085" y="876.7404">UserLoginAttemptRepository</text><rect fill="#E2E2F0" height="22.8348" rx="1.75" ry="1.75" style="stroke:#181818;stroke-width:0.3499999999999999;" width="29.4" x="1222.9" y="3.5"/><text fill="#000000" font-family="sans-serif" font-size="9.8" lengthAdjust="spacing" textLength="19.6" x="1227.8" y="18.9752">user</text><rect fill="#E2E2F0" height="22.8348" rx="1.75" ry="1.75" style="stroke:#181818;stroke-width:0.3499999999999999;" width="29.4" x="1222.9" y="861.2652"/><text fill="#000000" font-family="sans-serif" font-size="9.8" lengthAdjust="spacing" textLength="19.6" x="1227.8" y="876.7404">user</text><rect fill="#E2E2F0" height="22.8348" rx="1.75" ry="1.75" style="stroke:#181818;stroke-width:0.3499999999999999;" width="53.2" x="1259.3" y="861.2652"/><text fill="#000000" font-family="sans-serif" font-size="9.8" lengthAdjust="spacing" textLength="43.4" x="1264.2" y="876.7404">TokenDto</text><rect fill="#FFFFFF" height="21.9037" style="stroke:#181818;stroke-width:0.6999999999999998;" width="7" x="132.3" y="50.3385"/><rect fill="#FFFFFF" height="21.9037" style="stroke:#181818;stroke-width:0.6999999999999998;" width="7" x="132.3" y="827.4615"/><rect fill="#FFFFFF" height="21.9037" style="stroke:#181818;stroke-width:0.6999999999999998;" width="7" x="266" y="72.2422"/><rect fill="#FFFFFF" height="40.3074" style="stroke:#181818;stroke-width:0.6999999999999998;" width="7" x="266" y="390.3252"/><rect fill="#FFFFFF" height="45.2074" style="stroke:#181818;stroke-width:0.6999999999999998;" width="7" x="266" y="608.8934"/><rect fill="#FFFFFF" height="77.1148" style="stroke:#181818;stroke-width:0.6999999999999998;" width="7" x="266" y="750.3467"/><rect fill="#FFFFFF" height="21.9037" style="stroke:#181818;stroke-width:0.6999999999999998;" width="7" x="399.7" y="94.1459"/><rect fill="#FFFFFF" height="83.9111" style="stroke:#181818;stroke-width:0.6999999999999998;" width="7" x="399.7" y="137.9533"/><rect fill="#FFFFFF" height="29.6037" style="stroke:#181818;stroke-width:0.6999999999999998;" width="7" x="403.2" y="165.457"/><rect fill="#FFFFFF" height="21.9037" style="stroke:#181818;stroke-width:0.6999999999999998;" width="7" x="399.7" y="243.7682"/><rect fill="#FFFFFF" height="52.4385" style="stroke:#181818;stroke-width:0.6999999999999998;" width="7" x="399.7" y="337.8867"/><rect fill="#FFFFFF" height="21.9037" style="stroke:#181818;stroke-width:0.6999999999999998;" width="7" x="564.9" y="430.6326"/><rect fill="#FFFFFF" height="21.9037" style="stroke:#181818;stroke-width:0.6999999999999998;" width="7" x="564.9" y="474.44"/><rect fill="#FFFFFF" height="52.4385" style="stroke:#181818;stroke-width:0.6999999999999998;" width="7" x="564.9" y="556.4549"/><rect fill="#FFFFFF" height="21.9037" style="stroke:#181818;stroke-width:0.6999999999999998;" width="7" x="803.25" y="654.1008"/><rect fill="#FFFFFF" height="52.4385" style="stroke:#181818;stroke-width:0.6999999999999998;" width="7" x="803.25" y="697.9082"/><rect fill="#FFFFFF" height="21.9037" style="stroke:#181818;stroke-width:0.6999999999999998;" width="7" x="938.35" y="116.0496"/><rect fill="#FFFFFF" height="21.9037" style="stroke:#181818;stroke-width:0.6999999999999998;" width="7" x="938.35" y="452.5363"/><rect fill="#FFFFFF" height="60.1111" style="stroke:#181818;stroke-width:0.6999999999999998;" width="7" x="938.35" y="496.3437"/><rect fill="#FFFFFF" height="21.9037" style="stroke:#181818;stroke-width:0.6999999999999998;" width="7" x="938.35" y="676.0045"/><rect fill="#FFFFFF" height="21.9037" style="stroke:#181818;stroke-width:0.6999999999999998;" width="7" x="1144.5" y="221.8645"/><rect fill="#FFFFFF" height="72.2148" style="stroke:#181818;stroke-width:0.6999999999999998;" width="7" x="1144.5" y="265.6719"/><polygon fill="#181818" points="123.9,47.5385,130.9,50.3385,123.9,53.1385,126.7,50.3385" style="stroke:#181818;stroke-width:0.6999999999999998;"/><line style="stroke:#181818;stroke-width:0.6999999999999998;" x1="0" x2="128.1" y1="50.3385" y2="50.3385"/><text fill="#000000" font-family="sans-serif" font-size="9.1" font-weight="bold" lengthAdjust="spacing" textLength="4.9" x="4.9" y="46.6546">1</text><text fill="#000000" font-family="sans-serif" font-size="9.1" lengthAdjust="spacing" textLength="111.3" x="12.6" y="46.6546">POST(LoginCredentialsDto)</text><polygon fill="#181818" points="257.6,69.4422,264.6,72.2422,257.6,75.0422,260.4,72.2422" style="stroke:#181818;stroke-width:0.6999999999999998;"/><line style="stroke:#181818;stroke-width:0.6999999999999998;" x1="135.8" x2="261.8" y1="72.2422" y2="72.2422"/><text fill="#000000" font-family="sans-serif" font-size="9.1" font-weight="bold" lengthAdjust="spacing" textLength="4.9" x="140.7" y="68.5583">2</text><text fill="#000000" font-family="sans-serif" font-size="9.1" lengthAdjust="spacing" textLength="105.7" x="148.4" y="68.5583">login(LoginCredentialsDto)</text><polygon fill="#181818" points="391.3,91.3459,398.3,94.1459,391.3,96.9459,394.1,94.1459" style="stroke:#181818;stroke-width:0.6999999999999998;"/><line style="stroke:#181818;stroke-width:0.6999999999999998;" x1="269.5" x2="395.5" y1="94.1459" y2="94.1459"/><text fill="#000000" font-family="sans-serif" font-size="9.1" font-weight="bold" lengthAdjust="spacing" textLength="4.9" x="274.4" y="90.462">3</text><text fill="#000000" font-family="sans-serif" font-size="9.1" lengthAdjust="spacing" textLength="105.7" x="282.1" y="90.462">login(LoginCredentialsDto)</text><polygon fill="#181818" points="929.95,113.2496,936.95,116.0496,929.95,118.8496,932.75,116.0496" style="stroke:#181818;stroke-width:0.6999999999999998;"/><line style="stroke:#181818;stroke-width:0.6999999999999998;" x1="403.2" x2="934.15" y1="116.0496" y2="116.0496"/><text fill="#000000" font-family="sans-serif" font-size="9.1" font-weight="bold" lengthAdjust="spacing" textLength="4.9" x="408.1" y="112.3657">4</text><text fill="#000000" font-family="sans-serif" font-size="9.1" lengthAdjust="spacing" textLength="102.2" x="415.8" y="112.3657">getByIdAsync(username)</text><polygon fill="#181818" points="414.4,135.1533,407.4,137.9533,414.4,140.7533,411.6,137.9533" style="stroke:#181818;stroke-width:0.6999999999999998;"/><line style="stroke:#181818;stroke-width:0.6999999999999998;stroke-dasharray:2.0,2.0;" x1="410.2" x2="941.15" y1="137.9533" y2="137.9533"/><text fill="#000000" font-family="sans-serif" font-size="9.1" font-weight="bold" lengthAdjust="spacing" textLength="4.9" x="418.6" y="134.2694">5</text><text fill="#000000" font-family="sans-serif" font-size="9.1" lengthAdjust="spacing" textLength="17.5" x="426.3" y="134.2694">user</text><line style="stroke:#181818;stroke-width:0.6999999999999998;" x1="406.7" x2="439.6" y1="156.357" y2="156.357"/><line style="stroke:#181818;stroke-width:0.6999999999999998;" x1="439.6" x2="439.6" y1="156.357" y2="165.457"/><line style="stroke:#181818;stroke-width:0.6999999999999998;" x1="410.9" x2="439.6" y1="165.457" y2="165.457"/><polygon fill="#181818" points="417.9,162.657,410.9,165.457,417.9,168.257,415.1,165.457" style="stroke:#181818;stroke-width:0.6999999999999998;"/><text fill="#000000" font-family="sans-serif" font-size="9.1" font-weight="bold" lengthAdjust="spacing" textLength="4.9" x="415.1" y="152.6731">6</text><text fill="#000000" font-family="sans-serif" font-size="9.1" lengthAdjust="spacing" textLength="140.7" x="422.8" y="152.6731">passwordMatches(user, password)</text><line style="stroke:#181818;stroke-width:0.6999999999999998;stroke-dasharray:2.0,2.0;" x1="410.2" x2="439.6" y1="194.3607" y2="194.3607"/><line style="stroke:#181818;stroke-width:0.6999999999999998;stroke-dasharray:2.0,2.0;" x1="439.6" x2="439.6" y1="194.3607" y2="203.4607"/><line style="stroke:#181818;stroke-width:0.6999999999999998;stroke-dasharray:2.0,2.0;" x1="406.7" x2="439.6" y1="203.4607" y2="203.4607"/><polygon fill="#181818" points="413.7,200.6607,406.7,203.4607,413.7,206.2607,410.9,203.4607" style="stroke:#181818;stroke-width:0.6999999999999998;"/><text fill="#000000" font-family="sans-serif" font-size="9.1" font-weight="bold" lengthAdjust="spacing" textLength="4.9" x="415.1" y="190.6769">7</text><text fill="#000000" font-family="sans-serif" font-size="9.1" lengthAdjust="spacing" textLength="35.7" x="422.8" y="190.6769">opResult</text><polygon fill="#181818" points="1136.1,219.0645,1143.1,221.8645,1136.1,224.6645,1138.9,221.8645" style="stroke:#181818;stroke-width:0.6999999999999998;"/><line style="stroke:#181818;stroke-width:0.6999999999999998;stroke-dasharray:2.0,2.0;" x1="403.2" x2="1140.3" y1="221.8645" y2="221.8645"/><text fill="#000000" font-family="sans-serif" font-size="9.1" font-weight="bold" lengthAdjust="spacing" textLength="4.9" x="408.1" y="218.1806">8</text><text fill="#000000" font-family="sans-serif" font-size="9.1" lengthAdjust="spacing" textLength="147" x="415.8" y="218.1806">GetLoginAttemptsOfUser(username)</text><polygon fill="#181818" points="414.4,240.9682,407.4,243.7682,414.4,246.5682,411.6,243.7682" style="stroke:#181818;stroke-width:0.6999999999999998;"/><line style="stroke:#181818;stroke-width:0.6999999999999998;stroke-dasharray:2.0,2.0;" x1="410.2" x2="1147.3" y1="243.7682" y2="243.7682"/><text fill="#000000" font-family="sans-serif" font-size="9.1" font-weight="bold" lengthAdjust="spacing" textLength="4.9" x="418.6" y="240.0843">9</text><text fill="#000000" font-family="sans-serif" font-size="9.1" lengthAdjust="spacing" textLength="56" x="426.3" y="240.0843">loginAttempts</text><polygon fill="#181818" points="1136.1,262.8719,1143.1,265.6719,1136.1,268.4719,1138.9,265.6719" style="stroke:#181818;stroke-width:0.6999999999999998;"/><line style="stroke:#181818;stroke-width:0.6999999999999998;stroke-dasharray:2.0,2.0;" x1="403.2" x2="1140.3" y1="265.6719" y2="265.6719"/><text fill="#000000" font-family="sans-serif" font-size="9.1" font-weight="bold" lengthAdjust="spacing" textLength="9.8" x="408.1" y="261.988">10</text><text fill="#000000" font-family="sans-serif" font-size="9.1" lengthAdjust="spacing" textLength="161.7" x="420.7" y="261.988">addAsync(updatedFailedLoginAttempts)</text><path d="M1155,274.7719 L1155,317.4719 L1474.9,317.4719 L1474.9,281.7719 L1467.9,274.7719 L1155,274.7719 " fill="#FEFFDD" style="stroke:#181818;stroke-width:0.3499999999999999;"/><path d="M1467.9,274.7719 L1467.9,281.7719 L1474.9,281.7719 L1467.9,274.7719 " fill="#FEFFDD" style="stroke:#181818;stroke-width:0.3499999999999999;"/><text fill="#000000" font-family="sans-serif" font-size="9.1" lengthAdjust="spacing" textLength="253.4" x="1159.2" y="288.0917">If the login was SUCCESSFUL the failed attempts are set to 0.</text><text fill="#000000" font-family="sans-serif" font-size="9.1" lengthAdjust="spacing" textLength="305.2" x="1159.2" y="300.1954">If the login was UNSUCCESSFUL the failed attempts are incremented by 1.</text><text fill="#000000" font-family="sans-serif" font-size="9.1" lengthAdjust="spacing" textLength="259.7" x="1159.2" y="312.2991">If the login limit was BREACHED the failed attempts are set to 0</text><polygon fill="#181818" points="414.4,335.0867,407.4,337.8867,414.4,340.6867,411.6,337.8867" style="stroke:#181818;stroke-width:0.6999999999999998;"/><line style="stroke:#181818;stroke-width:0.6999999999999998;stroke-dasharray:2.0,2.0;" x1="410.2" x2="1147.3" y1="337.8867" y2="337.8867"/><text fill="#000000" font-family="sans-serif" font-size="9.1" font-weight="bold" lengthAdjust="spacing" textLength="9.8" x="418.6" y="334.2028">11</text><text fill="#000000" font-family="sans-serif" font-size="9.1" lengthAdjust="spacing" textLength="56" x="431.2" y="334.2028">loginAttempts</text><polygon fill="#181818" points="676.2,356.9904,683.2,359.7904,676.2,362.5904,679,359.7904" style="stroke:#181818;stroke-width:0.6999999999999998;"/><line style="stroke:#181818;stroke-width:0.6999999999999998;" x1="406.7" x2="680.4" y1="359.7904" y2="359.7904"/><text fill="#000000" font-family="sans-serif" font-size="9.1" font-weight="bold" lengthAdjust="spacing" textLength="9.8" x="411.6" y="356.1065">12</text><text fill="#000000" font-family="sans-serif" font-size="9.1" lengthAdjust="spacing" textLength="30.8" x="424.2" y="356.1065">create()</text><rect fill="#E2E2F0" height="22.8348" rx="1.75" ry="1.75" style="stroke:#181818;stroke-width:0.3499999999999999;" width="79.8" x="684.6" y="343.4867"/><text fill="#000000" font-family="sans-serif" font-size="9.8" lengthAdjust="spacing" textLength="70" x="689.5" y="358.9619">LoginOutputDto</text><polygon fill="#181818" points="280.7,387.5252,273.7,390.3252,280.7,393.1252,277.9,390.3252" style="stroke:#181818;stroke-width:0.6999999999999998;"/><line style="stroke:#181818;stroke-width:0.6999999999999998;stroke-dasharray:2.0,2.0;" x1="276.5" x2="402.5" y1="390.3252" y2="390.3252"/><text fill="#000000" font-family="sans-serif" font-size="9.1" font-weight="bold" lengthAdjust="spacing" textLength="9.8" x="284.9" y="386.6413">13</text><text fill="#000000" font-family="sans-serif" font-size="9.1" lengthAdjust="spacing" textLength="60.2" x="297.5" y="386.6413">loginOutputDto</text><path d="M223.65,400.8252 L266.35,400.8252 L266.35,407.3289 L259.35,414.3289 L223.65,414.3289 L223.65,400.8252 " fill="#EEEEEE" style="stroke:#000000;stroke-width:1.0499999999999998;"/><rect fill="none" height="213.6682" style="stroke:#000000;stroke-width:1.0499999999999998;" width="867.65" x="223.65" y="400.8252"/><text fill="#000000" font-family="sans-serif" font-size="9.1" font-weight="bold" lengthAdjust="spacing" textLength="11.2" x="234.15" y="411.345">alt</text><text fill="#000000" font-family="sans-serif" font-size="7.7" font-weight="bold" lengthAdjust="spacing" textLength="165.9" x="276.85" y="410.5343">[if LOGIN ATTEMPTS SURPASSES MAXIMUM]</text><polygon fill="#181818" points="556.5,427.8326,563.5,430.6326,556.5,433.4326,559.3,430.6326" style="stroke:#181818;stroke-width:0.6999999999999998;"/><line style="stroke:#181818;stroke-width:0.6999999999999998;" x1="269.5" x2="560.7" y1="430.6326" y2="430.6326"/><text fill="#000000" font-family="sans-serif" font-size="9.1" font-weight="bold" lengthAdjust="spacing" textLength="9.8" x="274.4" y="426.9487">14</text><text fill="#000000" font-family="sans-serif" font-size="9.1" lengthAdjust="spacing" textLength="2.8" x="287" y="426.9487">&#160;</text><polygon fill="#181818" points="929.95,449.7363,936.95,452.5363,929.95,455.3363,932.75,452.5363" style="stroke:#181818;stroke-width:0.6999999999999998;"/><line style="stroke:#181818;stroke-width:0.6999999999999998;" x1="568.4" x2="934.15" y1="452.5363" y2="452.5363"/><text fill="#000000" font-family="sans-serif" font-size="9.1" font-weight="bold" lengthAdjust="spacing" textLength="9.8" x="573.3" y="448.8524">15</text><text fill="#000000" font-family="sans-serif" font-size="9.1" lengthAdjust="spacing" textLength="102.2" x="585.9" y="448.8524">getByIdAsync(username)</text><polygon fill="#181818" points="579.6,471.64,572.6,474.44,579.6,477.24,576.8,474.44" style="stroke:#181818;stroke-width:0.6999999999999998;"/><line style="stroke:#181818;stroke-width:0.6999999999999998;stroke-dasharray:2.0,2.0;" x1="575.4" x2="941.15" y1="474.44" y2="474.44"/><text fill="#000000" font-family="sans-serif" font-size="9.1" font-weight="bold" lengthAdjust="spacing" textLength="9.8" x="583.8" y="470.7562">16</text><text fill="#000000" font-family="sans-serif" font-size="9.1" lengthAdjust="spacing" textLength="17.5" x="596.4" y="470.7562">user</text><polygon fill="#181818" points="929.95,493.5437,936.95,496.3437,929.95,499.1437,932.75,496.3437" style="stroke:#181818;stroke-width:0.6999999999999998;"/><line style="stroke:#181818;stroke-width:0.6999999999999998;" x1="568.4" x2="934.15" y1="496.3437" y2="496.3437"/><text fill="#000000" font-family="sans-serif" font-size="9.1" font-weight="bold" lengthAdjust="spacing" textLength="9.8" x="573.3" y="492.6599">17</text><text fill="#000000" font-family="sans-serif" font-size="9.1" lengthAdjust="spacing" textLength="97.3" x="585.9" y="492.6599">addAsync(updatedUser)</text><path d="M948.5,505.4437 L948.5,536.2437 L1084.3,536.2437 L1084.3,512.4437 L1077.3,505.4437 L948.5,505.4437 " fill="#FEFFDD" style="stroke:#181818;stroke-width:0.3499999999999999;"/><path d="M1077.3,505.4437 L1077.3,512.4437 L1084.3,512.4437 L1077.3,505.4437 " fill="#FEFFDD" style="stroke:#181818;stroke-width:0.3499999999999999;"/><text fill="#000000" font-family="sans-serif" font-size="9.1" lengthAdjust="spacing" textLength="121.1" x="952.7" y="518.7636">The User's activation status is</text><text fill="#000000" font-family="sans-serif" font-size="9.1" lengthAdjust="spacing" textLength="109.9" x="952.7" y="530.8673">changed to DEACTIVATED</text><polygon fill="#181818" points="579.6,553.6549,572.6,556.4549,579.6,559.2549,576.8,556.4549" style="stroke:#181818;stroke-width:0.6999999999999998;"/><line style="stroke:#181818;stroke-width:0.6999999999999998;stroke-dasharray:2.0,2.0;" x1="575.4" x2="941.15" y1="556.4549" y2="556.4549"/><text fill="#000000" font-family="sans-serif" font-size="9.1" font-weight="bold" lengthAdjust="spacing" textLength="9.8" x="583.8" y="552.771">18</text><text fill="#000000" font-family="sans-serif" font-size="9.1" lengthAdjust="spacing" textLength="17.5" x="596.4" y="552.771">user</text><polygon fill="#181818" points="623.7,575.5586,630.7,578.3586,623.7,581.1586,626.5,578.3586" style="stroke:#181818;stroke-width:0.6999999999999998;"/><line style="stroke:#181818;stroke-width:0.6999999999999998;" x1="571.9" x2="627.9" y1="578.3586" y2="578.3586"/><text fill="#000000" font-family="sans-serif" font-size="9.1" font-weight="bold" lengthAdjust="spacing" textLength="9.8" x="576.8" y="574.6747">19</text><text fill="#000000" font-family="sans-serif" font-size="9.1" lengthAdjust="spacing" textLength="30.8" x="589.4" y="574.6747">create()</text><rect fill="#E2E2F0" height="22.8348" rx="1.75" ry="1.75" style="stroke:#181818;stroke-width:0.3499999999999999;" width="45.5" x="632.1" y="562.0549"/><text fill="#000000" font-family="sans-serif" font-size="9.8" lengthAdjust="spacing" textLength="35.7" x="637" y="577.5301">UserDto</text><polygon fill="#181818" points="280.7,606.0934,273.7,608.8934,280.7,611.6934,277.9,608.8934" style="stroke:#181818;stroke-width:0.6999999999999998;"/><line style="stroke:#181818;stroke-width:0.6999999999999998;stroke-dasharray:2.0,2.0;" x1="276.5" x2="567.7" y1="608.8934" y2="608.8934"/><text fill="#000000" font-family="sans-serif" font-size="9.1" font-weight="bold" lengthAdjust="spacing" textLength="9.8" x="284.9" y="605.2095">20</text><text fill="#000000" font-family="sans-serif" font-size="9.1" lengthAdjust="spacing" textLength="31.5" x="297.5" y="605.2095">userDto</text><path d="M116.2,624.2934 L158.9,624.2934 L158.9,630.7971 L151.9,637.7971 L116.2,637.7971 L116.2,624.2934 " fill="#EEEEEE" style="stroke:#000000;stroke-width:1.0499999999999998;"/><rect fill="none" height="181.9645" style="stroke:#000000;stroke-width:1.0499999999999998;" width="1203.3" x="116.2" y="624.2934"/><text fill="#000000" font-family="sans-serif" font-size="9.1" font-weight="bold" lengthAdjust="spacing" textLength="11.2" x="126.7" y="634.8132">alt</text><text fill="#000000" font-family="sans-serif" font-size="7.7" font-weight="bold" lengthAdjust="spacing" textLength="149.8" x="169.4" y="634.0024">[IF AUTHENTICATION WAS SUCCESSFUL]</text><polygon fill="#181818" points="794.85,651.3008,801.85,654.1008,794.85,656.9008,797.65,654.1008" style="stroke:#181818;stroke-width:0.6999999999999998;"/><line style="stroke:#181818;stroke-width:0.6999999999999998;" x1="269.5" x2="799.05" y1="654.1008" y2="654.1008"/><text fill="#000000" font-family="sans-serif" font-size="9.1" font-weight="bold" lengthAdjust="spacing" textLength="9.8" x="274.4" y="650.4169">21</text><text fill="#000000" font-family="sans-serif" font-size="9.1" lengthAdjust="spacing" textLength="156.8" x="287" y="650.4169">CreateAuthToken(LoginCredentialsDto)</text><polygon fill="#181818" points="929.95,673.2045,936.95,676.0045,929.95,678.8045,932.75,676.0045" style="stroke:#181818;stroke-width:0.6999999999999998;"/><line style="stroke:#181818;stroke-width:0.6999999999999998;" x1="806.75" x2="934.15" y1="676.0045" y2="676.0045"/><text fill="#000000" font-family="sans-serif" font-size="9.1" font-weight="bold" lengthAdjust="spacing" textLength="9.8" x="811.65" y="672.3206">22</text><text fill="#000000" font-family="sans-serif" font-size="9.1" lengthAdjust="spacing" textLength="102.2" x="824.25" y="672.3206">getByIdAsync(username)</text><polygon fill="#181818" points="817.95,695.1082,810.95,697.9082,817.95,700.7082,815.15,697.9082" style="stroke:#181818;stroke-width:0.6999999999999998;"/><line style="stroke:#181818;stroke-width:0.6999999999999998;stroke-dasharray:2.0,2.0;" x1="813.75" x2="941.15" y1="697.9082" y2="697.9082"/><text fill="#000000" font-family="sans-serif" font-size="9.1" font-weight="bold" lengthAdjust="spacing" textLength="9.8" x="822.15" y="694.2243">23</text><text fill="#000000" font-family="sans-serif" font-size="9.1" lengthAdjust="spacing" textLength="17.5" x="834.75" y="694.2243">user</text><polygon fill="#181818" points="1250.9,717.0119,1257.9,719.8119,1250.9,722.6119,1253.7,719.8119" style="stroke:#181818;stroke-width:0.6999999999999998;"/><line style="stroke:#181818;stroke-width:0.6999999999999998;stroke-dasharray:2.0,2.0;" x1="810.25" x2="1255.1" y1="719.8119" y2="719.8119"/><text fill="#000000" font-family="sans-serif" font-size="9.1" font-weight="bold" lengthAdjust="spacing" textLength="9.8" x="815.15" y="716.128">24</text><text fill="#000000" font-family="sans-serif" font-size="9.1" lengthAdjust="spacing" textLength="30.8" x="827.75" y="716.128">create()</text><rect fill="#E2E2F0" height="22.8348" rx="1.75" ry="1.75" style="stroke:#181818;stroke-width:0.3499999999999999;" width="53.2" x="1259.3" y="703.5082"/><text fill="#000000" font-family="sans-serif" font-size="9.8" lengthAdjust="spacing" textLength="43.4" x="1264.2" y="718.9834">TokenDto</text><polygon fill="#181818" points="280.7,747.5467,273.7,750.3467,280.7,753.1467,277.9,750.3467" style="stroke:#181818;stroke-width:0.6999999999999998;"/><line style="stroke:#181818;stroke-width:0.6999999999999998;stroke-dasharray:2.0,2.0;" x1="276.5" x2="806.05" y1="750.3467" y2="750.3467"/><text fill="#000000" font-family="sans-serif" font-size="9.1" font-weight="bold" lengthAdjust="spacing" textLength="9.8" x="284.9" y="746.6628">25</text><text fill="#000000" font-family="sans-serif" font-size="9.1" lengthAdjust="spacing" textLength="36.4" x="297.5" y="746.6628">tokenDto</text><path d="M123.2,759.4467 L123.2,802.1467 L262.5,802.1467 L262.5,766.4467 L255.5,759.4467 L123.2,759.4467 " fill="#FEFFDD" style="stroke:#181818;stroke-width:0.3499999999999999;"/><path d="M255.5,759.4467 L255.5,766.4467 L262.5,766.4467 L255.5,759.4467 " fill="#FEFFDD" style="stroke:#181818;stroke-width:0.3499999999999999;"/><text fill="#000000" font-family="sans-serif" font-size="9.1" lengthAdjust="spacing" textLength="116.2" x="127.4" y="772.7665">dto containing login output is</text><text fill="#000000" font-family="sans-serif" font-size="9.1" lengthAdjust="spacing" textLength="119" x="127.4" y="784.8702">populated with the token here</text><text fill="#000000" font-family="sans-serif" font-size="9.1" lengthAdjust="spacing" textLength="124.6" x="127.4" y="796.9739">otherwise it's the field is empty</text><polygon fill="#181818" points="147,824.6615,140,827.4615,147,830.2615,144.2,827.4615" style="stroke:#181818;stroke-width:0.6999999999999998;"/><line style="stroke:#181818;stroke-width:0.6999999999999998;" x1="142.8" x2="268.8" y1="827.4615" y2="827.4615"/><text fill="#000000" font-family="sans-serif" font-size="9.1" font-weight="bold" lengthAdjust="spacing" textLength="9.8" x="151.2" y="823.7776">26</text><text fill="#000000" font-family="sans-serif" font-size="9.1" lengthAdjust="spacing" textLength="60.2" x="163.8" y="823.7776">loginOutputDto</text><polygon fill="#181818" points="7.7,846.5652,0.7,849.3652,7.7,852.1652,4.9,849.3652" style="stroke:#181818;stroke-width:0.6999999999999998;"/><line style="stroke:#181818;stroke-width:0.6999999999999998;stroke-dasharray:2.0,2.0;" x1="3.5" x2="135.1" y1="849.3652" y2="849.3652"/><text fill="#000000" font-family="sans-serif" font-size="9.1" font-weight="bold" lengthAdjust="spacing" textLength="9.8" x="11.9" y="845.6813">27</text><text fill="#000000" font-family="sans-serif" font-size="9.1" lengthAdjust="spacing" textLength="60.2" x="24.5" y="845.6813">loginOutputDto</text><!--SRC=[hLRVRzem47xtN-6tbcgqssirJKg1jf4AL2HiUtKJ0zQIEBClHVptE_yW98H2AksbnVRTv-_klZldQWDGwlkxkp9Z1LHvTfl8_4xplnKl4ZvC1LihbXF2Af15bRznHKZ958X4bEX05x82KQmfqrJXJzuwV95hKOna0Kfc6LV6A06LTMqYhjv5mer19jVHUz8oMMgk6XQLLgSinY3zAVxgNZ6leAp06-4bnqQn_CERFC2kyPxEHGjUIYr0gfsxp-rqmTfsiD_gu5bw0G3FIsZx84thGOO_N7RfFNsTH_6rIwpYAIz0i4nZC0D2KiuI4EyCxGmhKgzSPOY3G2nJX7k3BehBKCwvNje24lFN8BbgqTvWphjU-c8J3uE0-tGYv9h3movC0xqhackpNx2S3vfethqLjKjO3JDiahHPEKwJTUWm8arIDK39jDvAbKuP91kkBQilzUxWuy2Q8B9SS5rbS2AIOmUVYISEJP7e-ShefbzEQWtjuOQTikrX2Ja2kfYQ5akMxcjLfcYVFZAHyRH5V40AQIGbrXkeBmXN53RSKQ5Rb7sq78qcKVIuVB47Auj3cSUWJ76gEM17qQ-tNU_bh8U_A1B5SrGf7hpjwBSZd4pa0YpQms8IZ9uduujC22zIQgBxNyNeKugMHB7PRcuG1YD3c-j1gqosOVqLzIWyHzLrAc4PKB6YB_EdS4Q3E9vCN-C8AxHu3Q9e4j5fy3kSBgU7YU2dyt7FDrhEdXFt_zCjxzqljRn7xzNoUqQdAHshsdHUJqODhTURCSh8G5oXUfo7a0NLmA3IL6YIR5YnHesXfCQel3Zy6SIJyK5SPwBi5MGpHjLLJ7r-a4pbtjPp8TiA6uge5YUPy946o_XvCel3KH27yndz5KIDnZxePV_EuaqZIoEeO6FVpvwlIRqwlDWrvcVLLKESg6OxzGtQbvD_YXbYs2XFrA1jvSi0tjZBAkChSF6dA9K4lx6OACo7c1jWqhQu4LGfooepmgLR0HixnYmKtN35YSIrsWgD4n5GadR82Pwbw4dD6DeTb7S-JtvSe7LTsVqNoySpfrq__vNoVJZiuUgD_m40]--></g></svg>