<?xml version="1.0" encoding="us-ascii" standalone="no"?><svg xmlns="http://www.w3.org/2000/svg" xmlns:xlink="http://www.w3.org/1999/xlink" contentStyleType="text/css" height="409px" preserveAspectRatio="none" style="width:368px;height:409px;background:#FFFFFF;" version="1.1" viewBox="0 0 368 409" width="368px" zoomAndPan="magnify"><defs/><g><rect fill="#FFFFFF" height="23.291" style="stroke:#181818;stroke-width:1.0;" width="10" x="42.5" y="93.6211"/><rect fill="#FFFFFF" height="31.291" style="stroke:#181818;stroke-width:1.0;" width="10" x="42.5" y="174.4941"/><rect fill="#FFFFFF" height="9" style="stroke:#181818;stroke-width:1.0;" width="10" x="42.5" y="308.6582"/><rect fill="#FFFFFF" height="57.582" style="stroke:#181818;stroke-width:1.0;" width="10" x="307.5" y="116.9121"/><rect fill="#FFFFFF" height="102.873" style="stroke:#181818;stroke-width:1.0;" width="10" x="307.5" y="205.7852"/><rect fill="none" height="146.4551" style="stroke:#000000;stroke-width:1.5;" width="352.5" x="10" y="131.9121"/><rect fill="none" height="50.582" style="stroke:#000000;stroke-width:1.5;" width="332.5" x="20" y="220.7852"/><line style="stroke:#181818;stroke-width:0.5;stroke-dasharray:5.0,5.0;" x1="47" x2="47" y1="83.6211" y2="326.6582"/><line style="stroke:#181818;stroke-width:0.5;stroke-dasharray:5.0,5.0;" x1="312.5" x2="312.5" y1="83.6211" y2="326.6582"/><text fill="#000000" font-family="sans-serif" font-size="14" lengthAdjust="spacing" textLength="29" x="30" y="80.1074">User</text><ellipse cx="47.5" cy="13.5" fill="#E2E2F0" rx="8" ry="8" style="stroke:#181818;stroke-width:0.5;"/><path d="M47.5,21.5 L47.5,48.5 M34.5,29.5 L60.5,29.5 M47.5,48.5 L34.5,63.5 M47.5,48.5 L60.5,63.5 " fill="none" style="stroke:#181818;stroke-width:0.5;"/><text fill="#000000" font-family="sans-serif" font-size="14" lengthAdjust="spacing" textLength="29" x="30" y="340.7656">User</text><ellipse cx="47.5" cy="352.7793" fill="#E2E2F0" rx="8" ry="8" style="stroke:#181818;stroke-width:0.5;"/><path d="M47.5,360.7793 L47.5,387.7793 M34.5,368.7793 L60.5,368.7793 M47.5,387.7793 L34.5,402.7793 M47.5,387.7793 L60.5,402.7793 " fill="none" style="stroke:#181818;stroke-width:0.5;"/><rect fill="#E2E2F0" height="32.6211" rx="2.5" ry="2.5" style="stroke:#181818;stroke-width:0.5;" width="60" x="282.5" y="50"/><text fill="#000000" font-family="sans-serif" font-size="14" lengthAdjust="spacing" textLength="46" x="289.5" y="72.1074">System</text><rect fill="#E2E2F0" height="32.6211" rx="2.5" ry="2.5" style="stroke:#181818;stroke-width:0.5;" width="60" x="282.5" y="325.6582"/><text fill="#000000" font-family="sans-serif" font-size="14" lengthAdjust="spacing" textLength="46" x="289.5" y="347.7656">System</text><rect fill="#FFFFFF" height="23.291" style="stroke:#181818;stroke-width:1.0;" width="10" x="42.5" y="93.6211"/><rect fill="#FFFFFF" height="31.291" style="stroke:#181818;stroke-width:1.0;" width="10" x="42.5" y="174.4941"/><rect fill="#FFFFFF" height="9" style="stroke:#181818;stroke-width:1.0;" width="10" x="42.5" y="308.6582"/><rect fill="#FFFFFF" height="57.582" style="stroke:#181818;stroke-width:1.0;" width="10" x="307.5" y="116.9121"/><rect fill="#FFFFFF" height="102.873" style="stroke:#181818;stroke-width:1.0;" width="10" x="307.5" y="205.7852"/><polygon fill="#181818" points="295.5,112.9121,305.5,116.9121,295.5,120.9121,299.5,116.9121" style="stroke:#181818;stroke-width:1.0;"/><line style="stroke:#181818;stroke-width:1.0;" x1="47.5" x2="301.5" y1="116.9121" y2="116.9121"/><text fill="#000000" font-family="sans-serif" font-size="13" lengthAdjust="spacing" textLength="102" x="54.5" y="111.6494">inputs credentials</text><path d="M10,131.9121 L83,131.9121 L83,141.2031 L73,151.2031 L10,151.2031 L10,131.9121 " fill="#EEEEEE" style="stroke:#000000;stroke-width:1.5;"/><rect fill="none" height="146.4551" style="stroke:#000000;stroke-width:1.5;" width="352.5" x="10" y="131.9121"/><text fill="#000000" font-family="sans-serif" font-size="13" font-weight="bold" lengthAdjust="spacing" textLength="28" x="25" y="146.9404">loop</text><text fill="#000000" font-family="sans-serif" font-size="11" font-weight="bold" lengthAdjust="spacing" textLength="145" x="98" y="145.7822">[while authentication faisl]</text><polygon fill="#181818" points="63.5,170.4941,53.5,174.4941,63.5,178.4941,59.5,174.4941" style="stroke:#181818;stroke-width:1.0;"/><line style="stroke:#181818;stroke-width:1.0;stroke-dasharray:2.0,2.0;" x1="57.5" x2="311.5" y1="174.4941" y2="174.4941"/><text fill="#000000" font-family="sans-serif" font-size="13" lengthAdjust="spacing" textLength="144" x="69.5" y="169.2314">requests new credentials</text><polygon fill="#181818" points="295.5,201.7852,305.5,205.7852,295.5,209.7852,299.5,205.7852" style="stroke:#181818;stroke-width:1.0;"/><line style="stroke:#181818;stroke-width:1.0;" x1="47.5" x2="301.5" y1="205.7852" y2="205.7852"/><text fill="#000000" font-family="sans-serif" font-size="13" lengthAdjust="spacing" textLength="164" x="54.5" y="200.5225">re-introduces the credentials</text><path d="M20,220.7852 L81,220.7852 L81,230.0762 L71,240.0762 L20,240.0762 L20,220.7852 " fill="#EEEEEE" style="stroke:#000000;stroke-width:1.5;"/><rect fill="none" height="50.582" style="stroke:#000000;stroke-width:1.5;" width="332.5" x="20" y="220.7852"/><text fill="#000000" font-family="sans-serif" font-size="13" font-weight="bold" lengthAdjust="spacing" textLength="16" x="35" y="235.8135">alt</text><text fill="#000000" font-family="sans-serif" font-size="11" font-weight="bold" lengthAdjust="spacing" textLength="184" x="96" y="234.6553">[if authentication limit is reached]</text><polygon fill="#181818" points="58.5,259.3672,48.5,263.3672,58.5,267.3672,54.5,263.3672" style="stroke:#181818;stroke-width:1.0;"/><line style="stroke:#181818;stroke-width:1.0;stroke-dasharray:2.0,2.0;" x1="52.5" x2="306.5" y1="263.3672" y2="263.3672"/><text fill="#000000" font-family="sans-serif" font-size="13" lengthAdjust="spacing" textLength="236" x="64.5" y="258.1045">informs user that he has been locked out</text><polygon fill="#181818" points="63.5,304.6582,53.5,308.6582,63.5,312.6582,59.5,308.6582" style="stroke:#181818;stroke-width:1.0;"/><line style="stroke:#181818;stroke-width:1.0;stroke-dasharray:2.0,2.0;" x1="57.5" x2="311.5" y1="308.6582" y2="308.6582"/><text fill="#000000" font-family="sans-serif" font-size="13" lengthAdjust="spacing" textLength="101" x="69.5" y="303.3955">shows homepage</text><!--SRC=[ZP31QGGn34Nlga8DR0Dx2AI3G4W1Ygs9HJpMn98pRFShpo6GWIov6EGl_VUbv-JQySsu8nbISeGNwYv9DcgEhpTpNgTaDmC8NRx9UJOU5LwUfe9NbBODDqoTCpSNgWQPV_N_58SLG5NTS2zIGnvUvbGY5ssua5W5cCQN04pE5Jj_3RP0DDx_mapd1naxNwHvrpmI6mRo_t6fEifo3bfbbVYtSAPKE9ypIrkqhuPZtjSBEGQpn3NVcMDQqoTdr14vWLi-7fndEVjOqTsmwCeRVV3ZZG7k]--></g></svg>