<?xml version="1.0" encoding="us-ascii" standalone="no"?><svg xmlns="http://www.w3.org/2000/svg" xmlns:xlink="http://www.w3.org/1999/xlink" contentStyleType="text/css" height="661px" preserveAspectRatio="none" style="width:2274px;height:661px;background:#FFFFFF;" version="1.1" viewBox="0 0 2274 661" width="2274px" zoomAndPan="magnify"><defs/><g><!--cluster PatientAggregate--><g id="cluster_PatientAggregate"><path d="M8.5,125 L131.5,125 A3.75,3.75 0 0 1 134,127.5 L141,148.6094 L694.5,148.6094 A2.5,2.5 0 0 1 697,151.1094 L697,651.5 A2.5,2.5 0 0 1 694.5,654 L8.5,654 A2.5,2.5 0 0 1 6,651.5 L6,127.5 A2.5,2.5 0 0 1 8.5,125 " fill="none" style="stroke:#000000;stroke-width:1.5;"/><line style="stroke:#000000;stroke-width:1.5;" x1="6" x2="141" y1="148.6094" y2="148.6094"/><text fill="#000000" font-family="sans-serif" font-size="14" font-weight="bold" lengthAdjust="spacing" textLength="122" x="10" y="141.5332">PatientAggregate</text></g><!--cluster ClinicalDetailsAggregate--><g id="cluster_ClinicalDetailsAggregate"><path d="M1498.5,125 L1671.5,125 A3.75,3.75 0 0 1 1674,127.5 L1681,148.6094 L1681.5,148.6094 A2.5,2.5 0 0 1 1684,151.1094 L1684,233.5 A2.5,2.5 0 0 1 1681.5,236 L1498.5,236 A2.5,2.5 0 0 1 1496,233.5 L1496,127.5 A2.5,2.5 0 0 1 1498.5,125 " fill="none" style="stroke:#000000;stroke-width:1.5;"/><line style="stroke:#000000;stroke-width:1.5;" x1="1496" x2="1681" y1="148.6094" y2="148.6094"/><text fill="#000000" font-family="sans-serif" font-size="14" font-weight="bold" lengthAdjust="spacing" textLength="172" x="1500" y="141.5332">ClinicalDetailsAggregate</text></g><!--cluster MedicalConditionAggregate--><g id="cluster_MedicalConditionAggregate"><path d="M723.5,6 L920.5,6 A3.75,3.75 0 0 1 923,8.5 L930,29.6094 L1469.5,29.6094 A2.5,2.5 0 0 1 1472,32.1094 L1472,233.5 A2.5,2.5 0 0 1 1469.5,236 L723.5,236 A2.5,2.5 0 0 1 721,233.5 L721,8.5 A2.5,2.5 0 0 1 723.5,6 " fill="none" style="stroke:#000000;stroke-width:1.5;"/><line style="stroke:#000000;stroke-width:1.5;" x1="721" x2="930" y1="29.6094" y2="29.6094"/><text fill="#000000" font-family="sans-serif" font-size="14" font-weight="bold" lengthAdjust="spacing" textLength="196" x="725" y="22.5332">MedicalConditionAggregate</text></g><!--cluster AllergyAggregate--><g id="cluster_AllergyAggregate"><path d="M1710.5,6 L1832.5,6 A3.75,3.75 0 0 1 1835,8.5 L1842,29.6094 L2264.5,29.6094 A2.5,2.5 0 0 1 2267,32.1094 L2267,233.5 A2.5,2.5 0 0 1 2264.5,236 L1710.5,236 A2.5,2.5 0 0 1 1708,233.5 L1708,8.5 A2.5,2.5 0 0 1 1710.5,6 " fill="none" style="stroke:#000000;stroke-width:1.5;"/><line style="stroke:#000000;stroke-width:1.5;" x1="1708" x2="1842" y1="29.6094" y2="29.6094"/><text fill="#000000" font-family="sans-serif" font-size="14" font-weight="bold" lengthAdjust="spacing" textLength="121" x="1712" y="22.5332">AllergyAggregate</text></g><!--class Patient--><g id="elem_Patient"><rect codeLine="4" fill="#F1F1F1" height="58.7031" id="Patient" rx="2.5" ry="2.5" style="stroke:#181818;stroke-width:0.5;" width="101" x="394.5" y="280"/><ellipse cx="409.5" cy="301.3516" fill="#0099FF" rx="11" ry="11" style="stroke:#181818;stroke-width:1.0;"/><path d="M408.3438,302.5078 L408.3438,304.6484 L408.9531,304.6484 Q409.5781,304.6484 409.8281,304.8828 Q410.0938,305.1172 410.0938,305.5078 Q410.0938,305.8828 409.8281,306.1172 Q409.5781,306.3516 408.9531,306.3516 L406.375,306.3516 Q405.7656,306.3516 405.5,306.1172 Q405.2344,305.8828 405.2344,305.4922 Q405.2344,305.1172 405.5,304.8828 Q405.7656,304.6484 406.375,304.6484 L406.6406,304.6484 L406.6406,297.9922 L406.375,297.9922 Q405.7656,297.9922 405.5,297.7578 Q405.2344,297.5234 405.2344,297.1328 Q405.2344,296.7578 405.5,296.5234 Q405.7656,296.2891 406.375,296.2891 L410.2344,296.2891 Q412.0313,296.2891 413.0156,297.1797 Q414.0156,298.0703 414.0156,299.3516 Q414.0156,300.1484 413.5469,300.8047 Q413.0781,301.4609 412.1406,301.9609 Q412.6875,302.4297 413.2969,303.1797 Q413.6875,303.6484 414.3281,304.6484 Q414.9844,304.6484 415.1875,304.7891 Q415.5625,305.0391 415.5625,305.5078 Q415.5625,305.8828 415.2969,306.1172 Q415.0469,306.3516 414.4375,306.3516 L413.4531,306.3516 Q411.3906,303.1484 410.0313,302.5078 L408.3438,302.5078 Z M408.3438,300.8047 L409.6719,300.8047 Q410.4063,300.8047 411,300.5859 Q411.7813,300.2891 412.0469,299.9609 Q412.3125,299.6172 412.3125,299.2891 Q412.3125,298.8203 411.7969,298.4141 Q411.2813,297.9922 410.2969,297.9922 L408.3438,297.9922 L408.3438,300.8047 Z " fill="#000000"/><text fill="#000000" font-family="sans-serif" font-size="12" font-style="italic" lengthAdjust="spacing" textLength="73" x="421.5" y="297.457">&#171;Root Entity&#187;</text><text fill="#000000" font-family="sans-serif" font-size="14" lengthAdjust="spacing" textLength="44" x="436" y="314.627">Patient</text><line style="stroke:#181818;stroke-width:0.5;" x1="395.5" x2="494.5" y1="322.7031" y2="322.7031"/><line style="stroke:#181818;stroke-width:0.5;" x1="395.5" x2="494.5" y1="330.7031" y2="330.7031"/></g><!--class Gender--><g id="elem_Gender"><rect codeLine="6" fill="#F1F1F1" height="58.7031" id="Gender" rx="2.5" ry="2.5" style="stroke:#181818;stroke-width:0.5;" width="113" x="567.5" y="161"/><ellipse cx="582.5" cy="182.3516" fill="#F04800" rx="11" ry="11" style="stroke:#181818;stroke-width:1.0;"/><path d="M583.0938,185.6172 L585.5625,179.7422 L585.1719,179.7422 Q584.5625,179.7422 584.2969,179.5078 Q584.0313,179.2734 584.0313,178.8828 Q584.0313,178.5078 584.2969,178.2734 Q584.5625,178.0391 585.1719,178.0391 L587.4531,178.0391 Q588.0625,178.0391 588.3281,178.2734 Q588.5938,178.5078 588.5938,178.8828 Q588.5938,179.3516 588.1875,179.6172 Q588,179.7422 587.4063,179.7422 L583.9219,188.1016 L582.2813,188.1016 L578.7969,179.7422 Q578.2031,179.7422 578.0156,179.6172 Q577.6094,179.3516 577.6094,178.8828 Q577.6094,178.5078 577.875,178.2734 Q578.1406,178.0391 578.75,178.0391 L581.0469,178.0391 Q581.6563,178.0391 581.9063,178.2734 Q582.1719,178.5078 582.1719,178.8828 Q582.1719,179.2734 581.9063,179.5078 Q581.6563,179.7422 581.0469,179.7422 L580.6406,179.7422 L583.0938,185.6172 Z " fill="#000000"/><text fill="#000000" font-family="sans-serif" font-size="12" font-style="italic" lengthAdjust="spacing" textLength="85" x="594.5" y="178.457">&#171;Value Object&#187;</text><text fill="#000000" font-family="sans-serif" font-size="14" lengthAdjust="spacing" textLength="48" x="613" y="195.627">Gender</text><line style="stroke:#181818;stroke-width:0.5;" x1="568.5" x2="679.5" y1="203.7031" y2="203.7031"/><line style="stroke:#181818;stroke-width:0.5;" x1="568.5" x2="679.5" y1="211.7031" y2="211.7031"/></g><!--class MedicalRecordNumber--><g id="elem_MedicalRecordNumber"><rect codeLine="7" fill="#F1F1F1" height="58.7031" id="MedicalRecordNumber" rx="2.5" ry="2.5" style="stroke:#181818;stroke-width:0.5;" width="175" x="357.5" y="161"/><ellipse cx="372.5" cy="182.3516" fill="#F09800" rx="11" ry="11" style="stroke:#181818;stroke-width:1.0;"/><path d="M373.0938,185.6172 L375.5625,179.7422 L375.1719,179.7422 Q374.5625,179.7422 374.2969,179.5078 Q374.0313,179.2734 374.0313,178.8828 Q374.0313,178.5078 374.2969,178.2734 Q374.5625,178.0391 375.1719,178.0391 L377.4531,178.0391 Q378.0625,178.0391 378.3281,178.2734 Q378.5938,178.5078 378.5938,178.8828 Q378.5938,179.3516 378.1875,179.6172 Q378,179.7422 377.4063,179.7422 L373.9219,188.1016 L372.2813,188.1016 L368.7969,179.7422 Q368.2031,179.7422 368.0156,179.6172 Q367.6094,179.3516 367.6094,178.8828 Q367.6094,178.5078 367.875,178.2734 Q368.1406,178.0391 368.75,178.0391 L371.0469,178.0391 Q371.6563,178.0391 371.9063,178.2734 Q372.1719,178.5078 372.1719,178.8828 Q372.1719,179.2734 371.9063,179.5078 Q371.6563,179.7422 371.0469,179.7422 L370.6406,179.7422 L373.0938,185.6172 Z " fill="#000000"/><text fill="#000000" font-family="sans-serif" font-size="12" font-style="italic" lengthAdjust="spacing" textLength="105" x="405.5" y="178.457">&#171;Unique Identifier&#187;</text><text fill="#000000" font-family="sans-serif" font-size="14" lengthAdjust="spacing" textLength="143" x="386.5" y="195.627">MedicalRecordNumber</text><line style="stroke:#181818;stroke-width:0.5;" x1="358.5" x2="531.5" y1="203.7031" y2="203.7031"/><line style="stroke:#181818;stroke-width:0.5;" x1="358.5" x2="531.5" y1="211.7031" y2="211.7031"/></g><!--class DateOfBirth--><g id="elem_DateOfBirth"><rect codeLine="8" fill="#F1F1F1" height="58.7031" id="DateOfBirth" rx="2.5" ry="2.5" style="stroke:#181818;stroke-width:0.5;" width="113" x="209.5" y="161"/><ellipse cx="224.5" cy="182.3516" fill="#F04800" rx="11" ry="11" style="stroke:#181818;stroke-width:1.0;"/><path d="M225.0938,185.6172 L227.5625,179.7422 L227.1719,179.7422 Q226.5625,179.7422 226.2969,179.5078 Q226.0313,179.2734 226.0313,178.8828 Q226.0313,178.5078 226.2969,178.2734 Q226.5625,178.0391 227.1719,178.0391 L229.4531,178.0391 Q230.0625,178.0391 230.3281,178.2734 Q230.5938,178.5078 230.5938,178.8828 Q230.5938,179.3516 230.1875,179.6172 Q230,179.7422 229.4063,179.7422 L225.9219,188.1016 L224.2813,188.1016 L220.7969,179.7422 Q220.2031,179.7422 220.0156,179.6172 Q219.6094,179.3516 219.6094,178.8828 Q219.6094,178.5078 219.875,178.2734 Q220.1406,178.0391 220.75,178.0391 L223.0469,178.0391 Q223.6563,178.0391 223.9063,178.2734 Q224.1719,178.5078 224.1719,178.8828 Q224.1719,179.2734 223.9063,179.5078 Q223.6563,179.7422 223.0469,179.7422 L222.6406,179.7422 L225.0938,185.6172 Z " fill="#000000"/><text fill="#000000" font-family="sans-serif" font-size="12" font-style="italic" lengthAdjust="spacing" textLength="85" x="236.5" y="178.457">&#171;Value Object&#187;</text><text fill="#000000" font-family="sans-serif" font-size="14" lengthAdjust="spacing" textLength="74" x="242" y="195.627">DateOfBirth</text><line style="stroke:#181818;stroke-width:0.5;" x1="210.5" x2="321.5" y1="203.7031" y2="203.7031"/><line style="stroke:#181818;stroke-width:0.5;" x1="210.5" x2="321.5" y1="211.7031" y2="211.7031"/></g><!--class EmergencyContact--><g id="elem_EmergencyContact"><rect codeLine="9" fill="#F1F1F1" height="58.7031" id="EmergencyContact" rx="2.5" ry="2.5" style="stroke:#181818;stroke-width:0.5;" width="152" x="22" y="161"/><ellipse cx="37" cy="182.3516" fill="#F04800" rx="11" ry="11" style="stroke:#181818;stroke-width:1.0;"/><path d="M37.5938,185.6172 L40.0625,179.7422 L39.6719,179.7422 Q39.0625,179.7422 38.7969,179.5078 Q38.5313,179.2734 38.5313,178.8828 Q38.5313,178.5078 38.7969,178.2734 Q39.0625,178.0391 39.6719,178.0391 L41.9531,178.0391 Q42.5625,178.0391 42.8281,178.2734 Q43.0938,178.5078 43.0938,178.8828 Q43.0938,179.3516 42.6875,179.6172 Q42.5,179.7422 41.9063,179.7422 L38.4219,188.1016 L36.7813,188.1016 L33.2969,179.7422 Q32.7031,179.7422 32.5156,179.6172 Q32.1094,179.3516 32.1094,178.8828 Q32.1094,178.5078 32.375,178.2734 Q32.6406,178.0391 33.25,178.0391 L35.5469,178.0391 Q36.1563,178.0391 36.4063,178.2734 Q36.6719,178.5078 36.6719,178.8828 Q36.6719,179.2734 36.4063,179.5078 Q36.1563,179.7422 35.5469,179.7422 L35.1406,179.7422 L37.5938,185.6172 Z " fill="#000000"/><text fill="#000000" font-family="sans-serif" font-size="12" font-style="italic" lengthAdjust="spacing" textLength="85" x="68.5" y="178.457">&#171;Value Object&#187;</text><text fill="#000000" font-family="sans-serif" font-size="14" lengthAdjust="spacing" textLength="120" x="51" y="195.627">EmergencyContact</text><line style="stroke:#181818;stroke-width:0.5;" x1="23" x2="173" y1="203.7031" y2="203.7031"/><line style="stroke:#181818;stroke-width:0.5;" x1="23" x2="173" y1="211.7031" y2="211.7031"/></g><!--class EmailAddress--><g id="elem_EmailAddress"><rect codeLine="10" fill="#F1F1F1" height="58.7031" id="EmailAddress" rx="2.5" ry="2.5" style="stroke:#181818;stroke-width:0.5;" width="118" x="36" y="579"/><ellipse cx="51" cy="600.3516" fill="#F04800" rx="11" ry="11" style="stroke:#181818;stroke-width:1.0;"/><path d="M51.5938,603.6172 L54.0625,597.7422 L53.6719,597.7422 Q53.0625,597.7422 52.7969,597.5078 Q52.5313,597.2734 52.5313,596.8828 Q52.5313,596.5078 52.7969,596.2734 Q53.0625,596.0391 53.6719,596.0391 L55.9531,596.0391 Q56.5625,596.0391 56.8281,596.2734 Q57.0938,596.5078 57.0938,596.8828 Q57.0938,597.3516 56.6875,597.6172 Q56.5,597.7422 55.9063,597.7422 L52.4219,606.1016 L50.7813,606.1016 L47.2969,597.7422 Q46.7031,597.7422 46.5156,597.6172 Q46.1094,597.3516 46.1094,596.8828 Q46.1094,596.5078 46.375,596.2734 Q46.6406,596.0391 47.25,596.0391 L49.5469,596.0391 Q50.1563,596.0391 50.4063,596.2734 Q50.6719,596.5078 50.6719,596.8828 Q50.6719,597.2734 50.4063,597.5078 Q50.1563,597.7422 49.5469,597.7422 L49.1406,597.7422 L51.5938,603.6172 Z " fill="#000000"/><text fill="#000000" font-family="sans-serif" font-size="12" font-style="italic" lengthAdjust="spacing" textLength="85" x="65.5" y="596.457">&#171;Value Object&#187;</text><text fill="#000000" font-family="sans-serif" font-size="14" lengthAdjust="spacing" textLength="86" x="65" y="613.627">EmailAddress</text><line style="stroke:#181818;stroke-width:0.5;" x1="37" x2="153" y1="621.7031" y2="621.7031"/><line style="stroke:#181818;stroke-width:0.5;" x1="37" x2="153" y1="629.7031" y2="629.7031"/></g><!--class PhoneNumber--><g id="elem_PhoneNumber"><rect codeLine="11" fill="#F1F1F1" height="58.7031" id="PhoneNumber" rx="2.5" ry="2.5" style="stroke:#181818;stroke-width:0.5;" width="122" x="189" y="579"/><ellipse cx="204" cy="600.3516" fill="#F04800" rx="11" ry="11" style="stroke:#181818;stroke-width:1.0;"/><path d="M204.5938,603.6172 L207.0625,597.7422 L206.6719,597.7422 Q206.0625,597.7422 205.7969,597.5078 Q205.5313,597.2734 205.5313,596.8828 Q205.5313,596.5078 205.7969,596.2734 Q206.0625,596.0391 206.6719,596.0391 L208.9531,596.0391 Q209.5625,596.0391 209.8281,596.2734 Q210.0938,596.5078 210.0938,596.8828 Q210.0938,597.3516 209.6875,597.6172 Q209.5,597.7422 208.9063,597.7422 L205.4219,606.1016 L203.7813,606.1016 L200.2969,597.7422 Q199.7031,597.7422 199.5156,597.6172 Q199.1094,597.3516 199.1094,596.8828 Q199.1094,596.5078 199.375,596.2734 Q199.6406,596.0391 200.25,596.0391 L202.5469,596.0391 Q203.1563,596.0391 203.4063,596.2734 Q203.6719,596.5078 203.6719,596.8828 Q203.6719,597.2734 203.4063,597.5078 Q203.1563,597.7422 202.5469,597.7422 L202.1406,597.7422 L204.5938,603.6172 Z " fill="#000000"/><text fill="#000000" font-family="sans-serif" font-size="12" font-style="italic" lengthAdjust="spacing" textLength="85" x="220.5" y="596.457">&#171;Value Object&#187;</text><text fill="#000000" font-family="sans-serif" font-size="14" lengthAdjust="spacing" textLength="90" x="218" y="613.627">PhoneNumber</text><line style="stroke:#181818;stroke-width:0.5;" x1="190" x2="310" y1="621.7031" y2="621.7031"/><line style="stroke:#181818;stroke-width:0.5;" x1="190" x2="310" y1="629.7031" y2="629.7031"/></g><!--class ContactInformation--><g id="elem_ContactInformation"><rect codeLine="13" fill="#F1F1F1" height="58.7031" id="ContactInformation" rx="2.5" ry="2.5" style="stroke:#181818;stroke-width:0.5;" width="151" x="70.5" y="399"/><ellipse cx="85.5" cy="420.3516" fill="#ADD1B2" rx="11" ry="11" style="stroke:#181818;stroke-width:1.0;"/><path d="M84.3594,421.1484 L84.3594,423.6484 L88.6875,423.6484 L88.6875,422.7266 Q88.6875,422.1172 88.9219,421.8516 Q89.1719,421.5859 89.5469,421.5859 Q89.9219,421.5859 90.1563,421.8516 Q90.3906,422.1172 90.3906,422.7266 L90.3906,425.3516 L82.3906,425.3516 Q81.7656,425.3516 81.5,425.1172 Q81.25,424.8828 81.25,424.4922 Q81.25,424.1172 81.5156,423.8828 Q81.7813,423.6484 82.3906,423.6484 L82.6563,423.6484 L82.6563,416.9922 L82.3906,416.9922 Q81.7656,416.9922 81.5,416.7578 Q81.25,416.5234 81.25,416.1328 Q81.25,415.7578 81.5,415.5234 Q81.7656,415.2891 82.3906,415.2891 L90.0156,415.2891 L90.0156,417.8828 Q90.0156,418.4922 89.7813,418.7578 Q89.5625,419.0078 89.1719,419.0078 Q88.7969,419.0078 88.5625,418.7578 Q88.3281,418.4922 88.3281,417.8828 L88.3281,416.9922 L84.3594,416.9922 L84.3594,419.4453 L85.8438,419.4453 Q85.8438,418.7891 85.9688,418.6016 Q86.2344,418.1953 86.7031,418.1953 Q87.0781,418.1953 87.3125,418.4609 Q87.5469,418.7109 87.5469,419.3203 L87.5469,421.2891 Q87.5469,421.8359 87.4219,422.0234 Q87.1563,422.4141 86.7031,422.4141 Q86.2344,422.4141 85.9688,422.0078 Q85.8438,421.8203 85.8438,421.1484 L84.3594,421.1484 Z " fill="#000000"/><text fill="#000000" font-family="sans-serif" font-size="12" font-style="italic" lengthAdjust="spacing" textLength="44" x="137" y="416.457">&#171;Entity&#187;</text><text fill="#000000" font-family="sans-serif" font-size="14" lengthAdjust="spacing" textLength="119" x="99.5" y="433.627">ContactInformation</text><line style="stroke:#181818;stroke-width:0.5;" x1="71.5" x2="220.5" y1="441.7031" y2="441.7031"/><line style="stroke:#181818;stroke-width:0.5;" x1="71.5" x2="220.5" y1="449.7031" y2="449.7031"/></g><!--class FirstName--><g id="elem_FirstName"><rect codeLine="15" fill="#F1F1F1" height="58.7031" id="FirstName" rx="2.5" ry="2.5" style="stroke:#181818;stroke-width:0.5;" width="113" x="256.5" y="399"/><ellipse cx="271.5" cy="420.3516" fill="#F04800" rx="11" ry="11" style="stroke:#181818;stroke-width:1.0;"/><path d="M272.0938,423.6172 L274.5625,417.7422 L274.1719,417.7422 Q273.5625,417.7422 273.2969,417.5078 Q273.0313,417.2734 273.0313,416.8828 Q273.0313,416.5078 273.2969,416.2734 Q273.5625,416.0391 274.1719,416.0391 L276.4531,416.0391 Q277.0625,416.0391 277.3281,416.2734 Q277.5938,416.5078 277.5938,416.8828 Q277.5938,417.3516 277.1875,417.6172 Q277,417.7422 276.4063,417.7422 L272.9219,426.1016 L271.2813,426.1016 L267.7969,417.7422 Q267.2031,417.7422 267.0156,417.6172 Q266.6094,417.3516 266.6094,416.8828 Q266.6094,416.5078 266.875,416.2734 Q267.1406,416.0391 267.75,416.0391 L270.0469,416.0391 Q270.6563,416.0391 270.9063,416.2734 Q271.1719,416.5078 271.1719,416.8828 Q271.1719,417.2734 270.9063,417.5078 Q270.6563,417.7422 270.0469,417.7422 L269.6406,417.7422 L272.0938,423.6172 Z " fill="#000000"/><text fill="#000000" font-family="sans-serif" font-size="12" font-style="italic" lengthAdjust="spacing" textLength="85" x="283.5" y="416.457">&#171;Value Object&#187;</text><text fill="#000000" font-family="sans-serif" font-size="14" lengthAdjust="spacing" textLength="64" x="294" y="433.627">FirstName</text><line style="stroke:#181818;stroke-width:0.5;" x1="257.5" x2="368.5" y1="441.7031" y2="441.7031"/><line style="stroke:#181818;stroke-width:0.5;" x1="257.5" x2="368.5" y1="449.7031" y2="449.7031"/></g><!--class LastName--><g id="elem_LastName"><rect codeLine="16" fill="#F1F1F1" height="58.7031" id="LastName" rx="2.5" ry="2.5" style="stroke:#181818;stroke-width:0.5;" width="113" x="404.5" y="399"/><ellipse cx="419.5" cy="420.3516" fill="#F04800" rx="11" ry="11" style="stroke:#181818;stroke-width:1.0;"/><path d="M420.0938,423.6172 L422.5625,417.7422 L422.1719,417.7422 Q421.5625,417.7422 421.2969,417.5078 Q421.0313,417.2734 421.0313,416.8828 Q421.0313,416.5078 421.2969,416.2734 Q421.5625,416.0391 422.1719,416.0391 L424.4531,416.0391 Q425.0625,416.0391 425.3281,416.2734 Q425.5938,416.5078 425.5938,416.8828 Q425.5938,417.3516 425.1875,417.6172 Q425,417.7422 424.4063,417.7422 L420.9219,426.1016 L419.2813,426.1016 L415.7969,417.7422 Q415.2031,417.7422 415.0156,417.6172 Q414.6094,417.3516 414.6094,416.8828 Q414.6094,416.5078 414.875,416.2734 Q415.1406,416.0391 415.75,416.0391 L418.0469,416.0391 Q418.6563,416.0391 418.9063,416.2734 Q419.1719,416.5078 419.1719,416.8828 Q419.1719,417.2734 418.9063,417.5078 Q418.6563,417.7422 418.0469,417.7422 L417.6406,417.7422 L420.0938,423.6172 Z " fill="#000000"/><text fill="#000000" font-family="sans-serif" font-size="12" font-style="italic" lengthAdjust="spacing" textLength="85" x="431.5" y="416.457">&#171;Value Object&#187;</text><text fill="#000000" font-family="sans-serif" font-size="14" lengthAdjust="spacing" textLength="63" x="442.5" y="433.627">LastName</text><line style="stroke:#181818;stroke-width:0.5;" x1="405.5" x2="516.5" y1="441.7031" y2="441.7031"/><line style="stroke:#181818;stroke-width:0.5;" x1="405.5" x2="516.5" y1="449.7031" y2="449.7031"/></g><!--class FullName--><g id="elem_FullName"><rect codeLine="17" fill="#F1F1F1" height="58.7031" id="FullName" rx="2.5" ry="2.5" style="stroke:#181818;stroke-width:0.5;" width="113" x="552.5" y="399"/><ellipse cx="567.5" cy="420.3516" fill="#F04800" rx="11" ry="11" style="stroke:#181818;stroke-width:1.0;"/><path d="M568.0938,423.6172 L570.5625,417.7422 L570.1719,417.7422 Q569.5625,417.7422 569.2969,417.5078 Q569.0313,417.2734 569.0313,416.8828 Q569.0313,416.5078 569.2969,416.2734 Q569.5625,416.0391 570.1719,416.0391 L572.4531,416.0391 Q573.0625,416.0391 573.3281,416.2734 Q573.5938,416.5078 573.5938,416.8828 Q573.5938,417.3516 573.1875,417.6172 Q573,417.7422 572.4063,417.7422 L568.9219,426.1016 L567.2813,426.1016 L563.7969,417.7422 Q563.2031,417.7422 563.0156,417.6172 Q562.6094,417.3516 562.6094,416.8828 Q562.6094,416.5078 562.875,416.2734 Q563.1406,416.0391 563.75,416.0391 L566.0469,416.0391 Q566.6563,416.0391 566.9063,416.2734 Q567.1719,416.5078 567.1719,416.8828 Q567.1719,417.2734 566.9063,417.5078 Q566.6563,417.7422 566.0469,417.7422 L565.6406,417.7422 L568.0938,423.6172 Z " fill="#000000"/><text fill="#000000" font-family="sans-serif" font-size="12" font-style="italic" lengthAdjust="spacing" textLength="85" x="579.5" y="416.457">&#171;Value Object&#187;</text><text fill="#000000" font-family="sans-serif" font-size="14" lengthAdjust="spacing" textLength="59" x="592.5" y="433.627">FullName</text><line style="stroke:#181818;stroke-width:0.5;" x1="553.5" x2="664.5" y1="441.7031" y2="441.7031"/><line style="stroke:#181818;stroke-width:0.5;" x1="553.5" x2="664.5" y1="449.7031" y2="449.7031"/></g><!--class ClinicalDetails--><g id="elem_ClinicalDetails"><rect codeLine="33" fill="#F1F1F1" height="58.7031" id="ClinicalDetails" rx="2.5" ry="2.5" style="stroke:#181818;stroke-width:0.5;" width="120" x="1512" y="161"/><ellipse cx="1527" cy="182.3516" fill="#0099FF" rx="11" ry="11" style="stroke:#181818;stroke-width:1.0;"/><path d="M1525.8438,183.5078 L1525.8438,185.6484 L1526.4531,185.6484 Q1527.0781,185.6484 1527.3281,185.8828 Q1527.5938,186.1172 1527.5938,186.5078 Q1527.5938,186.8828 1527.3281,187.1172 Q1527.0781,187.3516 1526.4531,187.3516 L1523.875,187.3516 Q1523.2656,187.3516 1523,187.1172 Q1522.7344,186.8828 1522.7344,186.4922 Q1522.7344,186.1172 1523,185.8828 Q1523.2656,185.6484 1523.875,185.6484 L1524.1406,185.6484 L1524.1406,178.9922 L1523.875,178.9922 Q1523.2656,178.9922 1523,178.7578 Q1522.7344,178.5234 1522.7344,178.1328 Q1522.7344,177.7578 1523,177.5234 Q1523.2656,177.2891 1523.875,177.2891 L1527.7344,177.2891 Q1529.5313,177.2891 1530.5156,178.1797 Q1531.5156,179.0703 1531.5156,180.3516 Q1531.5156,181.1484 1531.0469,181.8047 Q1530.5781,182.4609 1529.6406,182.9609 Q1530.1875,183.4297 1530.7969,184.1797 Q1531.1875,184.6484 1531.8281,185.6484 Q1532.4844,185.6484 1532.6875,185.7891 Q1533.0625,186.0391 1533.0625,186.5078 Q1533.0625,186.8828 1532.7969,187.1172 Q1532.5469,187.3516 1531.9375,187.3516 L1530.9531,187.3516 Q1528.8906,184.1484 1527.5313,183.5078 L1525.8438,183.5078 Z M1525.8438,181.8047 L1527.1719,181.8047 Q1527.9063,181.8047 1528.5,181.5859 Q1529.2813,181.2891 1529.5469,180.9609 Q1529.8125,180.6172 1529.8125,180.2891 Q1529.8125,179.8203 1529.2969,179.4141 Q1528.7813,178.9922 1527.7969,178.9922 L1525.8438,178.9922 L1525.8438,181.8047 Z " fill="#000000"/><text fill="#000000" font-family="sans-serif" font-size="12" font-style="italic" lengthAdjust="spacing" textLength="73" x="1548.5" y="178.457">&#171;Root Entity&#187;</text><text fill="#000000" font-family="sans-serif" font-size="14" lengthAdjust="spacing" textLength="88" x="1541" y="195.627">ClinicalDetails</text><line style="stroke:#181818;stroke-width:0.5;" x1="1513" x2="1631" y1="203.7031" y2="203.7031"/><line style="stroke:#181818;stroke-width:0.5;" x1="1513" x2="1631" y1="211.7031" y2="211.7031"/></g><!--class MedicalCondition--><g id="elem_MedicalCondition"><rect codeLine="37" fill="#F1F1F1" height="58.7031" id="MedicalCondition" rx="2.5" ry="2.5" style="stroke:#181818;stroke-width:0.5;" width="140" x="1112" y="42"/><ellipse cx="1127" cy="63.3516" fill="#0099FF" rx="11" ry="11" style="stroke:#181818;stroke-width:1.0;"/><path d="M1125.8438,64.5078 L1125.8438,66.6484 L1126.4531,66.6484 Q1127.0781,66.6484 1127.3281,66.8828 Q1127.5938,67.1172 1127.5938,67.5078 Q1127.5938,67.8828 1127.3281,68.1172 Q1127.0781,68.3516 1126.4531,68.3516 L1123.875,68.3516 Q1123.2656,68.3516 1123,68.1172 Q1122.7344,67.8828 1122.7344,67.4922 Q1122.7344,67.1172 1123,66.8828 Q1123.2656,66.6484 1123.875,66.6484 L1124.1406,66.6484 L1124.1406,59.9922 L1123.875,59.9922 Q1123.2656,59.9922 1123,59.7578 Q1122.7344,59.5234 1122.7344,59.1328 Q1122.7344,58.7578 1123,58.5234 Q1123.2656,58.2891 1123.875,58.2891 L1127.7344,58.2891 Q1129.5313,58.2891 1130.5156,59.1797 Q1131.5156,60.0703 1131.5156,61.3516 Q1131.5156,62.1484 1131.0469,62.8047 Q1130.5781,63.4609 1129.6406,63.9609 Q1130.1875,64.4297 1130.7969,65.1797 Q1131.1875,65.6484 1131.8281,66.6484 Q1132.4844,66.6484 1132.6875,66.7891 Q1133.0625,67.0391 1133.0625,67.5078 Q1133.0625,67.8828 1132.7969,68.1172 Q1132.5469,68.3516 1131.9375,68.3516 L1130.9531,68.3516 Q1128.8906,65.1484 1127.5313,64.5078 L1125.8438,64.5078 Z M1125.8438,62.8047 L1127.1719,62.8047 Q1127.9063,62.8047 1128.5,62.5859 Q1129.2813,62.2891 1129.5469,61.9609 Q1129.8125,61.6172 1129.8125,61.2891 Q1129.8125,60.8203 1129.2969,60.4141 Q1128.7813,59.9922 1127.7969,59.9922 L1125.8438,59.9922 L1125.8438,62.8047 Z " fill="#000000"/><text fill="#000000" font-family="sans-serif" font-size="12" font-style="italic" lengthAdjust="spacing" textLength="73" x="1158.5" y="59.457">&#171;Root Entity&#187;</text><text fill="#000000" font-family="sans-serif" font-size="14" lengthAdjust="spacing" textLength="108" x="1141" y="76.627">MedicalCondition</text><line style="stroke:#181818;stroke-width:0.5;" x1="1113" x2="1251" y1="84.7031" y2="84.7031"/><line style="stroke:#181818;stroke-width:0.5;" x1="1113" x2="1251" y1="92.7031" y2="92.7031"/></g><!--class ConditionCode--><g id="elem_ConditionCode"><rect codeLine="39" fill="#F1F1F1" height="58.7031" id="ConditionCode" rx="2.5" ry="2.5" style="stroke:#181818;stroke-width:0.5;" width="126" x="737" y="161"/><ellipse cx="752" cy="182.3516" fill="#F04800" rx="11" ry="11" style="stroke:#181818;stroke-width:1.0;"/><path d="M752.5938,185.6172 L755.0625,179.7422 L754.6719,179.7422 Q754.0625,179.7422 753.7969,179.5078 Q753.5313,179.2734 753.5313,178.8828 Q753.5313,178.5078 753.7969,178.2734 Q754.0625,178.0391 754.6719,178.0391 L756.9531,178.0391 Q757.5625,178.0391 757.8281,178.2734 Q758.0938,178.5078 758.0938,178.8828 Q758.0938,179.3516 757.6875,179.6172 Q757.5,179.7422 756.9063,179.7422 L753.4219,188.1016 L751.7813,188.1016 L748.2969,179.7422 Q747.7031,179.7422 747.5156,179.6172 Q747.1094,179.3516 747.1094,178.8828 Q747.1094,178.5078 747.375,178.2734 Q747.6406,178.0391 748.25,178.0391 L750.5469,178.0391 Q751.1563,178.0391 751.4063,178.2734 Q751.6719,178.5078 751.6719,178.8828 Q751.6719,179.2734 751.4063,179.5078 Q751.1563,179.7422 750.5469,179.7422 L750.1406,179.7422 L752.5938,185.6172 Z " fill="#000000"/><text fill="#000000" font-family="sans-serif" font-size="12" font-style="italic" lengthAdjust="spacing" textLength="85" x="770.5" y="178.457">&#171;Value Object&#187;</text><text fill="#000000" font-family="sans-serif" font-size="14" lengthAdjust="spacing" textLength="94" x="766" y="195.627">ConditionCode</text><line style="stroke:#181818;stroke-width:0.5;" x1="738" x2="862" y1="203.7031" y2="203.7031"/><line style="stroke:#181818;stroke-width:0.5;" x1="738" x2="862" y1="211.7031" y2="211.7031"/></g><!--class ConditionDesignation--><g id="elem_ConditionDesignation"><rect codeLine="40" fill="#F1F1F1" height="58.7031" id="ConditionDesignation" rx="2.5" ry="2.5" style="stroke:#181818;stroke-width:0.5;" width="167" x="898.5" y="161"/><ellipse cx="913.5" cy="182.3516" fill="#F04800" rx="11" ry="11" style="stroke:#181818;stroke-width:1.0;"/><path d="M914.0938,185.6172 L916.5625,179.7422 L916.1719,179.7422 Q915.5625,179.7422 915.2969,179.5078 Q915.0313,179.2734 915.0313,178.8828 Q915.0313,178.5078 915.2969,178.2734 Q915.5625,178.0391 916.1719,178.0391 L918.4531,178.0391 Q919.0625,178.0391 919.3281,178.2734 Q919.5938,178.5078 919.5938,178.8828 Q919.5938,179.3516 919.1875,179.6172 Q919,179.7422 918.4063,179.7422 L914.9219,188.1016 L913.2813,188.1016 L909.7969,179.7422 Q909.2031,179.7422 909.0156,179.6172 Q908.6094,179.3516 908.6094,178.8828 Q908.6094,178.5078 908.875,178.2734 Q909.1406,178.0391 909.75,178.0391 L912.0469,178.0391 Q912.6563,178.0391 912.9063,178.2734 Q913.1719,178.5078 913.1719,178.8828 Q913.1719,179.2734 912.9063,179.5078 Q912.6563,179.7422 912.0469,179.7422 L911.6406,179.7422 L914.0938,185.6172 Z " fill="#000000"/><text fill="#000000" font-family="sans-serif" font-size="12" font-style="italic" lengthAdjust="spacing" textLength="85" x="952.5" y="178.457">&#171;Value Object&#187;</text><text fill="#000000" font-family="sans-serif" font-size="14" lengthAdjust="spacing" textLength="135" x="927.5" y="195.627">ConditionDesignation</text><line style="stroke:#181818;stroke-width:0.5;" x1="899.5" x2="1064.5" y1="203.7031" y2="203.7031"/><line style="stroke:#181818;stroke-width:0.5;" x1="899.5" x2="1064.5" y1="211.7031" y2="211.7031"/></g><!--class ConditionDescription--><g id="elem_ConditionDescription"><rect codeLine="41" fill="#F1F1F1" height="58.7031" id="ConditionDescription" rx="2.5" ry="2.5" style="stroke:#181818;stroke-width:0.5;" width="163" x="1100.5" y="161"/><ellipse cx="1115.5" cy="182.3516" fill="#F04800" rx="11" ry="11" style="stroke:#181818;stroke-width:1.0;"/><path d="M1116.0938,185.6172 L1118.5625,179.7422 L1118.1719,179.7422 Q1117.5625,179.7422 1117.2969,179.5078 Q1117.0313,179.2734 1117.0313,178.8828 Q1117.0313,178.5078 1117.2969,178.2734 Q1117.5625,178.0391 1118.1719,178.0391 L1120.4531,178.0391 Q1121.0625,178.0391 1121.3281,178.2734 Q1121.5938,178.5078 1121.5938,178.8828 Q1121.5938,179.3516 1121.1875,179.6172 Q1121,179.7422 1120.4063,179.7422 L1116.9219,188.1016 L1115.2813,188.1016 L1111.7969,179.7422 Q1111.2031,179.7422 1111.0156,179.6172 Q1110.6094,179.3516 1110.6094,178.8828 Q1110.6094,178.5078 1110.875,178.2734 Q1111.1406,178.0391 1111.75,178.0391 L1114.0469,178.0391 Q1114.6563,178.0391 1114.9063,178.2734 Q1115.1719,178.5078 1115.1719,178.8828 Q1115.1719,179.2734 1114.9063,179.5078 Q1114.6563,179.7422 1114.0469,179.7422 L1113.6406,179.7422 L1116.0938,185.6172 Z " fill="#000000"/><text fill="#000000" font-family="sans-serif" font-size="12" font-style="italic" lengthAdjust="spacing" textLength="85" x="1152.5" y="178.457">&#171;Value Object&#187;</text><text fill="#000000" font-family="sans-serif" font-size="14" lengthAdjust="spacing" textLength="131" x="1129.5" y="195.627">ConditionDescription</text><line style="stroke:#181818;stroke-width:0.5;" x1="1101.5" x2="1262.5" y1="203.7031" y2="203.7031"/><line style="stroke:#181818;stroke-width:0.5;" x1="1101.5" x2="1262.5" y1="211.7031" y2="211.7031"/></g><!--class ConditionSymptoms--><g id="elem_ConditionSymptoms"><rect codeLine="42" fill="#F1F1F1" height="58.7031" id="ConditionSymptoms" rx="2.5" ry="2.5" style="stroke:#181818;stroke-width:0.5;" width="157" x="1298.5" y="161"/><ellipse cx="1313.5" cy="182.3516" fill="#F04800" rx="11" ry="11" style="stroke:#181818;stroke-width:1.0;"/><path d="M1314.0938,185.6172 L1316.5625,179.7422 L1316.1719,179.7422 Q1315.5625,179.7422 1315.2969,179.5078 Q1315.0313,179.2734 1315.0313,178.8828 Q1315.0313,178.5078 1315.2969,178.2734 Q1315.5625,178.0391 1316.1719,178.0391 L1318.4531,178.0391 Q1319.0625,178.0391 1319.3281,178.2734 Q1319.5938,178.5078 1319.5938,178.8828 Q1319.5938,179.3516 1319.1875,179.6172 Q1319,179.7422 1318.4063,179.7422 L1314.9219,188.1016 L1313.2813,188.1016 L1309.7969,179.7422 Q1309.2031,179.7422 1309.0156,179.6172 Q1308.6094,179.3516 1308.6094,178.8828 Q1308.6094,178.5078 1308.875,178.2734 Q1309.1406,178.0391 1309.75,178.0391 L1312.0469,178.0391 Q1312.6563,178.0391 1312.9063,178.2734 Q1313.1719,178.5078 1313.1719,178.8828 Q1313.1719,179.2734 1312.9063,179.5078 Q1312.6563,179.7422 1312.0469,179.7422 L1311.6406,179.7422 L1314.0938,185.6172 Z " fill="#000000"/><text fill="#000000" font-family="sans-serif" font-size="12" font-style="italic" lengthAdjust="spacing" textLength="85" x="1347.5" y="178.457">&#171;Value Object&#187;</text><text fill="#000000" font-family="sans-serif" font-size="14" lengthAdjust="spacing" textLength="125" x="1327.5" y="195.627">ConditionSymptoms</text><line style="stroke:#181818;stroke-width:0.5;" x1="1299.5" x2="1454.5" y1="203.7031" y2="203.7031"/><line style="stroke:#181818;stroke-width:0.5;" x1="1299.5" x2="1454.5" y1="211.7031" y2="211.7031"/></g><!--class Allergy--><g id="elem_Allergy"><rect codeLine="51" fill="#F1F1F1" height="58.7031" id="Allergy" rx="2.5" ry="2.5" style="stroke:#181818;stroke-width:0.5;" width="101" x="1827.5" y="42"/><ellipse cx="1842.5" cy="63.3516" fill="#0099FF" rx="11" ry="11" style="stroke:#181818;stroke-width:1.0;"/><path d="M1841.3438,64.5078 L1841.3438,66.6484 L1841.9531,66.6484 Q1842.5781,66.6484 1842.8281,66.8828 Q1843.0938,67.1172 1843.0938,67.5078 Q1843.0938,67.8828 1842.8281,68.1172 Q1842.5781,68.3516 1841.9531,68.3516 L1839.375,68.3516 Q1838.7656,68.3516 1838.5,68.1172 Q1838.2344,67.8828 1838.2344,67.4922 Q1838.2344,67.1172 1838.5,66.8828 Q1838.7656,66.6484 1839.375,66.6484 L1839.6406,66.6484 L1839.6406,59.9922 L1839.375,59.9922 Q1838.7656,59.9922 1838.5,59.7578 Q1838.2344,59.5234 1838.2344,59.1328 Q1838.2344,58.7578 1838.5,58.5234 Q1838.7656,58.2891 1839.375,58.2891 L1843.2344,58.2891 Q1845.0313,58.2891 1846.0156,59.1797 Q1847.0156,60.0703 1847.0156,61.3516 Q1847.0156,62.1484 1846.5469,62.8047 Q1846.0781,63.4609 1845.1406,63.9609 Q1845.6875,64.4297 1846.2969,65.1797 Q1846.6875,65.6484 1847.3281,66.6484 Q1847.9844,66.6484 1848.1875,66.7891 Q1848.5625,67.0391 1848.5625,67.5078 Q1848.5625,67.8828 1848.2969,68.1172 Q1848.0469,68.3516 1847.4375,68.3516 L1846.4531,68.3516 Q1844.3906,65.1484 1843.0313,64.5078 L1841.3438,64.5078 Z M1841.3438,62.8047 L1842.6719,62.8047 Q1843.4063,62.8047 1844,62.5859 Q1844.7813,62.2891 1845.0469,61.9609 Q1845.3125,61.6172 1845.3125,61.2891 Q1845.3125,60.8203 1844.7969,60.4141 Q1844.2813,59.9922 1843.2969,59.9922 L1841.3438,59.9922 L1841.3438,62.8047 Z " fill="#000000"/><text fill="#000000" font-family="sans-serif" font-size="12" font-style="italic" lengthAdjust="spacing" textLength="73" x="1854.5" y="59.457">&#171;Root Entity&#187;</text><text fill="#000000" font-family="sans-serif" font-size="14" lengthAdjust="spacing" textLength="43" x="1869.5" y="76.627">Allergy</text><line style="stroke:#181818;stroke-width:0.5;" x1="1828.5" x2="1927.5" y1="84.7031" y2="84.7031"/><line style="stroke:#181818;stroke-width:0.5;" x1="1828.5" x2="1927.5" y1="92.7031" y2="92.7031"/></g><!--class ConditionCode--><g id="elem_ConditionCode"><rect codeLine="53" fill="#F1F1F1" height="58.7031" id="ConditionCode" rx="2.5" ry="2.5" style="stroke:#181818;stroke-width:0.5;" width="126" x="1724" y="161"/><ellipse cx="1739" cy="182.3516" fill="#F04800" rx="11" ry="11" style="stroke:#181818;stroke-width:1.0;"/><path d="M1739.5938,185.6172 L1742.0625,179.7422 L1741.6719,179.7422 Q1741.0625,179.7422 1740.7969,179.5078 Q1740.5313,179.2734 1740.5313,178.8828 Q1740.5313,178.5078 1740.7969,178.2734 Q1741.0625,178.0391 1741.6719,178.0391 L1743.9531,178.0391 Q1744.5625,178.0391 1744.8281,178.2734 Q1745.0938,178.5078 1745.0938,178.8828 Q1745.0938,179.3516 1744.6875,179.6172 Q1744.5,179.7422 1743.9063,179.7422 L1740.4219,188.1016 L1738.7813,188.1016 L1735.2969,179.7422 Q1734.7031,179.7422 1734.5156,179.6172 Q1734.1094,179.3516 1734.1094,178.8828 Q1734.1094,178.5078 1734.375,178.2734 Q1734.6406,178.0391 1735.25,178.0391 L1737.5469,178.0391 Q1738.1563,178.0391 1738.4063,178.2734 Q1738.6719,178.5078 1738.6719,178.8828 Q1738.6719,179.2734 1738.4063,179.5078 Q1738.1563,179.7422 1737.5469,179.7422 L1737.1406,179.7422 L1739.5938,185.6172 Z " fill="#000000"/><text fill="#000000" font-family="sans-serif" font-size="12" font-style="italic" lengthAdjust="spacing" textLength="85" x="1757.5" y="178.457">&#171;Value Object&#187;</text><text fill="#000000" font-family="sans-serif" font-size="14" lengthAdjust="spacing" textLength="94" x="1753" y="195.627">ConditionCode</text><line style="stroke:#181818;stroke-width:0.5;" x1="1725" x2="1849" y1="203.7031" y2="203.7031"/><line style="stroke:#181818;stroke-width:0.5;" x1="1725" x2="1849" y1="211.7031" y2="211.7031"/></g><!--class ConditionDesignation--><g id="elem_ConditionDesignation"><rect codeLine="54" fill="#F1F1F1" height="58.7031" id="ConditionDesignation" rx="2.5" ry="2.5" style="stroke:#181818;stroke-width:0.5;" width="167" x="1885.5" y="161"/><ellipse cx="1900.5" cy="182.3516" fill="#F04800" rx="11" ry="11" style="stroke:#181818;stroke-width:1.0;"/><path d="M1901.0938,185.6172 L1903.5625,179.7422 L1903.1719,179.7422 Q1902.5625,179.7422 1902.2969,179.5078 Q1902.0313,179.2734 1902.0313,178.8828 Q1902.0313,178.5078 1902.2969,178.2734 Q1902.5625,178.0391 1903.1719,178.0391 L1905.4531,178.0391 Q1906.0625,178.0391 1906.3281,178.2734 Q1906.5938,178.5078 1906.5938,178.8828 Q1906.5938,179.3516 1906.1875,179.6172 Q1906,179.7422 1905.4063,179.7422 L1901.9219,188.1016 L1900.2813,188.1016 L1896.7969,179.7422 Q1896.2031,179.7422 1896.0156,179.6172 Q1895.6094,179.3516 1895.6094,178.8828 Q1895.6094,178.5078 1895.875,178.2734 Q1896.1406,178.0391 1896.75,178.0391 L1899.0469,178.0391 Q1899.6563,178.0391 1899.9063,178.2734 Q1900.1719,178.5078 1900.1719,178.8828 Q1900.1719,179.2734 1899.9063,179.5078 Q1899.6563,179.7422 1899.0469,179.7422 L1898.6406,179.7422 L1901.0938,185.6172 Z " fill="#000000"/><text fill="#000000" font-family="sans-serif" font-size="12" font-style="italic" lengthAdjust="spacing" textLength="85" x="1939.5" y="178.457">&#171;Value Object&#187;</text><text fill="#000000" font-family="sans-serif" font-size="14" lengthAdjust="spacing" textLength="135" x="1914.5" y="195.627">ConditionDesignation</text><line style="stroke:#181818;stroke-width:0.5;" x1="1886.5" x2="2051.5" y1="203.7031" y2="203.7031"/><line style="stroke:#181818;stroke-width:0.5;" x1="1886.5" x2="2051.5" y1="211.7031" y2="211.7031"/></g><!--class ConditionDescription--><g id="elem_ConditionDescription"><rect codeLine="55" fill="#F1F1F1" height="58.7031" id="ConditionDescription" rx="2.5" ry="2.5" style="stroke:#181818;stroke-width:0.5;" width="163" x="2087.5" y="161"/><ellipse cx="2102.5" cy="182.3516" fill="#F04800" rx="11" ry="11" style="stroke:#181818;stroke-width:1.0;"/><path d="M2103.0938,185.6172 L2105.5625,179.7422 L2105.1719,179.7422 Q2104.5625,179.7422 2104.2969,179.5078 Q2104.0313,179.2734 2104.0313,178.8828 Q2104.0313,178.5078 2104.2969,178.2734 Q2104.5625,178.0391 2105.1719,178.0391 L2107.4531,178.0391 Q2108.0625,178.0391 2108.3281,178.2734 Q2108.5938,178.5078 2108.5938,178.8828 Q2108.5938,179.3516 2108.1875,179.6172 Q2108,179.7422 2107.4063,179.7422 L2103.9219,188.1016 L2102.2813,188.1016 L2098.7969,179.7422 Q2098.2031,179.7422 2098.0156,179.6172 Q2097.6094,179.3516 2097.6094,178.8828 Q2097.6094,178.5078 2097.875,178.2734 Q2098.1406,178.0391 2098.75,178.0391 L2101.0469,178.0391 Q2101.6563,178.0391 2101.9063,178.2734 Q2102.1719,178.5078 2102.1719,178.8828 Q2102.1719,179.2734 2101.9063,179.5078 Q2101.6563,179.7422 2101.0469,179.7422 L2100.6406,179.7422 L2103.0938,185.6172 Z " fill="#000000"/><text fill="#000000" font-family="sans-serif" font-size="12" font-style="italic" lengthAdjust="spacing" textLength="85" x="2139.5" y="178.457">&#171;Value Object&#187;</text><text fill="#000000" font-family="sans-serif" font-size="14" lengthAdjust="spacing" textLength="131" x="2116.5" y="195.627">ConditionDescription</text><line style="stroke:#181818;stroke-width:0.5;" x1="2088.5" x2="2249.5" y1="203.7031" y2="203.7031"/><line style="stroke:#181818;stroke-width:0.5;" x1="2088.5" x2="2249.5" y1="211.7031" y2="211.7031"/></g><!--reverse link ContactInformation to EmailAddress--><g id="link_ContactInformation_EmailAddress"><path codeLine="19" d="M134.5042,469.6357 C124.9842,502.8557 112.68,545.79 103.17,578.97 " fill="none" id="ContactInformation-backto-EmailAddress" style="stroke:#181818;stroke-width:1.0;"/><polygon fill="#181818" points="137.81,458.1,132.3119,462.7659,134.5042,469.6357,140.0023,464.9698,137.81,458.1" style="stroke:#181818;stroke-width:1.0;"/><text fill="#000000" font-family="sans-serif" font-size="13" lengthAdjust="spacing" textLength="7" x="128.3989" y="479.417">1</text><text fill="#000000" font-family="sans-serif" font-size="13" lengthAdjust="spacing" textLength="7" x="97.1916" y="568.3264">1</text></g><!--reverse link ContactInformation to PhoneNumber--><g id="link_ContactInformation_PhoneNumber"><path codeLine="20" d="M168.7638,468.461 C188.1738,501.681 213.94,545.79 233.33,578.97 " fill="none" id="ContactInformation-backto-PhoneNumber" style="stroke:#181818;stroke-width:1.0;"/><polygon fill="#181818" points="162.71,458.1,162.2832,465.2985,168.7638,468.461,169.1906,461.2626,162.71,458.1" style="stroke:#181818;stroke-width:1.0;"/><text fill="#000000" font-family="sans-serif" font-size="13" lengthAdjust="spacing" textLength="7" x="158.4346" y="479.417">1</text><text fill="#000000" font-family="sans-serif" font-size="13" lengthAdjust="spacing" textLength="7" x="221.9178" y="568.3264">1</text></g><!--reverse link Patient to FirstName--><g id="link_Patient_FirstName"><path codeLine="22" d="M403.7287,347.0785 C383.2687,365.2085 365.89,380.62 345.41,398.77 " fill="none" id="Patient-backto-FirstName" style="stroke:#181818;stroke-width:1.0;"/><polygon fill="#181818" points="412.71,339.12,405.5666,340.1055,403.7287,347.0785,410.8722,346.093,412.71,339.12" style="stroke:#181818;stroke-width:1.0;"/><text fill="#000000" font-family="sans-serif" font-size="13" lengthAdjust="spacing" textLength="7" x="398.6638" y="360.0854">1</text><text fill="#000000" font-family="sans-serif" font-size="13" lengthAdjust="spacing" textLength="7" x="344.7341" y="388.0826">1</text></g><!--reverse link Patient to LastName--><g id="link_Patient_LastName"><path codeLine="23" d="M450.5363,351.0093 C453.0163,369.1393 454.59,380.62 457.07,398.77 " fill="none" id="Patient-backto-LastName" style="stroke:#181818;stroke-width:1.0;"/><polygon fill="#181818" points="448.91,339.12,445.7601,345.6068,450.5363,351.0093,453.6863,344.5225,448.91,339.12" style="stroke:#181818;stroke-width:1.0;"/><text fill="#000000" font-family="sans-serif" font-size="13" lengthAdjust="spacing" textLength="7" x="441.9907" y="360.0854">1</text><text fill="#000000" font-family="sans-serif" font-size="13" lengthAdjust="spacing" textLength="7" x="448.4447" y="388.0826">1</text></g><!--reverse link Patient to FullName--><g id="link_Patient_FullName"><path codeLine="24" d="M494.8887,346.0894 C520.3987,364.2894 543.53,380.79 569.01,398.97 " fill="none" id="Patient-backto-FullName" style="stroke:#181818;stroke-width:1.0;"/><polygon fill="#181818" points="485.12,339.12,487.6812,345.8609,494.8887,346.0894,492.3275,339.3485,485.12,339.12" style="stroke:#181818;stroke-width:1.0;"/><text fill="#000000" font-family="sans-serif" font-size="13" lengthAdjust="spacing" textLength="7" x="485.3296" y="360.0854">1</text><text fill="#000000" font-family="sans-serif" font-size="13" lengthAdjust="spacing" textLength="7" x="552.4966" y="388.3264">1</text></g><!--reverse link Patient to ContactInformation--><g id="link_Patient_ContactInformation"><path codeLine="25" d="M383.105,334.7225 C334.955,353.5625 273.23,377.71 218.87,398.99 " fill="none" id="Patient-backto-ContactInformation" style="stroke:#181818;stroke-width:1.0;"/><polygon fill="#181818" points="394.28,330.35,387.235,328.8113,383.105,334.7225,390.15,336.2613,394.28,330.35" style="stroke:#181818;stroke-width:1.0;"/><text fill="#000000" font-family="sans-serif" font-size="13" lengthAdjust="spacing" textLength="7" x="379.6553" y="329.6977">1</text><text fill="#000000" font-family="sans-serif" font-size="13" lengthAdjust="spacing" textLength="7" x="227.0447" y="388.3507">1</text></g><!--link Gender to Patient--><g id="link_Gender_Patient"><path codeLine="26" d="M584.78,220.05 C573.64,227.96 561.43,236.44 550,244 C531.62,256.15 521.2806,262.721 503.2406,273.701 " fill="none" id="Gender-to-Patient" style="stroke:#181818;stroke-width:1.0;"/><polygon fill="#181818" points="492.99,279.94,500.195,280.2374,503.2406,273.701,496.0356,273.4036,492.99,279.94" style="stroke:#181818;stroke-width:1.0;"/><text fill="#000000" font-family="sans-serif" font-size="13" lengthAdjust="spacing" textLength="7" x="568.969" y="241.3567">1</text><text fill="#000000" font-family="sans-serif" font-size="13" lengthAdjust="spacing" textLength="7" x="495.7222" y="269.2898">1</text></g><!--link MedicalRecordNumber to Patient--><g id="link_MedicalRecordNumber_Patient"><path codeLine="27" d="M445,220.12 C445,238.25 445,249.62 445,267.77 " fill="none" id="MedicalRecordNumber-to-Patient" style="stroke:#181818;stroke-width:1.0;"/><polygon fill="#181818" points="445,279.77,449,273.77,445,267.77,441,273.77,445,279.77" style="stroke:#181818;stroke-width:1.0;"/><text fill="#000000" font-family="sans-serif" font-size="13" lengthAdjust="spacing" textLength="7" x="437.3109" y="241.0854">1</text><text fill="#000000" font-family="sans-serif" font-size="13" lengthAdjust="spacing" textLength="7" x="437.2344" y="269.0826">1</text></g><!--link DateOfBirth to Patient--><g id="link_DateOfBirth_Patient"><path codeLine="28" d="M305.22,220.05 C316.36,227.96 328.57,236.44 340,244 C358.38,256.15 368.7194,262.721 386.7594,273.701 " fill="none" id="DateOfBirth-to-Patient" style="stroke:#181818;stroke-width:1.0;"/><polygon fill="#181818" points="397.01,279.94,393.9644,273.4036,386.7594,273.701,389.805,280.2374,397.01,279.94" style="stroke:#181818;stroke-width:1.0;"/><text fill="#000000" font-family="sans-serif" font-size="13" lengthAdjust="spacing" textLength="7" x="305.5873" y="241.3567">1</text><text fill="#000000" font-family="sans-serif" font-size="13" lengthAdjust="spacing" textLength="7" x="379.3902" y="269.7552">1</text></g><!--link EmergencyContact to Patient--><g id="link_EmergencyContact_Patient"><path codeLine="29" d="M143.68,220.14 C158.67,228.68 175.68,237.49 192,244 C259.79,271.03 330.5975,287.3056 382.5575,297.3356 " fill="none" id="EmergencyContact-to-Patient" style="stroke:#181818;stroke-width:1.0;"/><polygon fill="#181818" points="394.34,299.61,389.2069,294.5453,382.5575,297.3356,387.6906,302.4003,394.34,299.61" style="stroke:#181818;stroke-width:1.0;"/><text fill="#000000" font-family="sans-serif" font-size="13" lengthAdjust="spacing" textLength="7" x="144.9842" y="241.1093">1</text><text fill="#000000" font-family="sans-serif" font-size="13" lengthAdjust="spacing" textLength="7" x="379.3853" y="294.5251">1</text></g><!--reverse link MedicalCondition to ConditionCode--><g id="link_MedicalCondition_ConditionCode"><path codeLine="44" d="M1100.0002,79.266 C1024.2202,86.216 920.82,98.33 881,117 C859.13,127.26 838.88,145.38 824.1,160.94 " fill="none" id="MedicalCondition-backto-ConditionCode" style="stroke:#181818;stroke-width:1.0;"/><polygon fill="#181818" points="1111.95,78.17,1105.6098,74.7347,1100.0002,79.266,1106.3404,82.7013,1111.95,78.17" style="stroke:#181818;stroke-width:1.0;"/><text fill="#000000" font-family="sans-serif" font-size="13" lengthAdjust="spacing" textLength="7" x="1096.9055" y="75.5551">1</text><text fill="#000000" font-family="sans-serif" font-size="13" lengthAdjust="spacing" textLength="7" x="821.6063" y="150.2898">1</text></g><!--reverse link MedicalCondition to ConditionDescription--><g id="link_MedicalCondition_ConditionDescription"><path codeLine="45" d="M1182,113.12 C1182,131.25 1182,142.62 1182,160.77 " fill="none" id="MedicalCondition-backto-ConditionDescription" style="stroke:#181818;stroke-width:1.0;"/><polygon fill="#181818" points="1182,101.12,1178,107.12,1182,113.12,1186,107.12,1182,101.12" style="stroke:#181818;stroke-width:1.0;"/><text fill="#000000" font-family="sans-serif" font-size="13" lengthAdjust="spacing" textLength="7" x="1174.3109" y="122.0854">1</text><text fill="#000000" font-family="sans-serif" font-size="13" lengthAdjust="spacing" textLength="7" x="1174.2344" y="150.0826">1</text></g><!--reverse link MedicalCondition to ConditionDesignation--><g id="link_MedicalCondition_ConditionDesignation"><path codeLine="46" d="M1102.8974,106.1828 C1092.4274,111.1728 1092.72,111.4 1083,117 C1060.55,129.93 1036.96,146.66 1018.22,160.8 " fill="none" id="MedicalCondition-backto-ConditionDesignation" style="stroke:#181818;stroke-width:1.0;"/><polygon fill="#181818" points="1113.73,101.02,1106.5928,99.9905,1102.8974,106.1828,1110.0346,107.2123,1113.73,101.02" style="stroke:#181818;stroke-width:1.0;"/><text fill="#000000" font-family="sans-serif" font-size="13" lengthAdjust="spacing" textLength="7" x="1097.0859" y="119.6004">1</text><text fill="#000000" font-family="sans-serif" font-size="13" lengthAdjust="spacing" textLength="7" x="1018.3775" y="150.1192">1</text></g><!--reverse link MedicalCondition to ConditionSymptoms--><g id="link_MedicalCondition_ConditionSymptoms"><path codeLine="47" d="M1261.7299,106.2702 C1271.9999,111.2202 1271.51,111.38 1281,117 C1302.57,129.77 1325.01,146.5 1342.76,160.67 " fill="none" id="MedicalCondition-backto-ConditionSymptoms" style="stroke:#181818;stroke-width:1.0;"/><polygon fill="#181818" points="1250.92,101.06,1254.5882,107.2684,1261.7299,106.2702,1258.0617,100.0618,1250.92,101.06" style="stroke:#181818;stroke-width:1.0;"/><text fill="#000000" font-family="sans-serif" font-size="13" lengthAdjust="spacing" textLength="7" x="1257.4129" y="122.3687">1</text><text fill="#000000" font-family="sans-serif" font-size="13" lengthAdjust="spacing" textLength="7" x="1327.5044" y="149.9607">1</text></g><!--reverse link Allergy to ConditionCode--><g id="link_Allergy_ConditionCode"><path codeLine="57" d="M1848.3731,110.5925 C1834.2731,128.7225 1823.46,142.62 1809.35,160.77 " fill="none" id="Allergy-backto-ConditionCode" style="stroke:#181818;stroke-width:1.0;"/><polygon fill="#181818" points="1855.74,101.12,1848.899,103.4006,1848.3731,110.5925,1855.214,108.3119,1855.74,101.12" style="stroke:#181818;stroke-width:1.0;"/><text fill="#000000" font-family="sans-serif" font-size="13" lengthAdjust="spacing" textLength="7" x="1843.6685" y="122.0854">1</text><text fill="#000000" font-family="sans-serif" font-size="13" lengthAdjust="spacing" textLength="7" x="1806.4734" y="150.0826">1</text></g><!--reverse link Allergy to ConditionDescription--><g id="link_Allergy_ConditionDescription"><path codeLine="58" d="M1940.5924,80.3621 C1980.3924,86.4421 2024.59,96.18 2070,117 C2094.21,128.1 2118.38,145.64 2136.78,160.69 " fill="none" id="Allergy-backto-ConditionDescription" style="stroke:#181818;stroke-width:1.0;"/><polygon fill="#181818" points="1928.73,78.55,1934.0571,83.4102,1940.5924,80.3621,1935.2652,75.5019,1928.73,78.55" style="stroke:#181818;stroke-width:1.0;"/><text fill="#000000" font-family="sans-serif" font-size="13" lengthAdjust="spacing" textLength="7" x="1936.3561" y="75.9571">1</text><text fill="#000000" font-family="sans-serif" font-size="13" lengthAdjust="spacing" textLength="7" x="2121.9663" y="149.9851">1</text></g><!--reverse link Allergy to ConditionDesignation--><g id="link_Allergy_ConditionDesignation"><path codeLine="59" d="M1907.6269,110.5925 C1921.7269,128.7225 1932.54,142.62 1946.65,160.77 " fill="none" id="Allergy-backto-ConditionDesignation" style="stroke:#181818;stroke-width:1.0;"/><polygon fill="#181818" points="1900.26,101.12,1900.786,108.3119,1907.6269,110.5925,1907.101,103.4006,1900.26,101.12" style="stroke:#181818;stroke-width:1.0;"/><text fill="#000000" font-family="sans-serif" font-size="13" lengthAdjust="spacing" textLength="7" x="1896.9534" y="122.0854">1</text><text fill="#000000" font-family="sans-serif" font-size="13" lengthAdjust="spacing" textLength="7" x="1933.9953" y="150.0826">1</text></g><!--link MedicalCondition to ClinicalDetails--><g id="link_MedicalCondition_ClinicalDetails"><path codeLine="62" d="M1252.13,74.05 C1312.45,77.51 1400.74,87.73 1472,117 C1497.19,127.35 1512.7667,137.6054 1531.3667,153.0454 " fill="none" id="MedicalCondition-to-ClinicalDetails" style="stroke:#181818;stroke-width:1.0;"/><polygon fill="#181818" points="1540.6,160.71,1538.5382,153.7999,1531.3667,153.0454,1533.4285,159.9555,1540.6,160.71" style="stroke:#181818;stroke-width:1.0;"/><text fill="#000000" font-family="sans-serif" font-size="13" lengthAdjust="spacing" textLength="5" x="1260.0739" y="70.9845">*</text><text fill="#000000" font-family="sans-serif" font-size="13" lengthAdjust="spacing" textLength="7" x="1525.9656" y="150.0095">1</text></g><!--link Allergy to ClinicalDetails--><g id="link_Allergy_ClinicalDetails"><path codeLine="63" d="M1827.18,82.54 C1792.87,90.1 1746.92,101.77 1708,117 C1677.35,128.99 1655.1752,140.2298 1629.5752,154.8798 " fill="none" id="Allergy-to-ClinicalDetails" style="stroke:#181818;stroke-width:1.0;"/><polygon fill="#181818" points="1619.16,160.84,1626.3543,161.3316,1629.5752,154.8798,1622.3808,154.3882,1619.16,160.84" style="stroke:#181818;stroke-width:1.0;"/><text fill="#000000" font-family="sans-serif" font-size="13" lengthAdjust="spacing" textLength="5" x="1814.3486" y="80.5292">*</text><text fill="#000000" font-family="sans-serif" font-size="13" lengthAdjust="spacing" textLength="7" x="1621.7106" y="150.1679">1</text></g><!--link ClinicalDetails to Patient--><g id="link_ClinicalDetails_Patient"><path codeLine="64" d="M1527.39,220.06 C1510.66,229.36 1491.07,238.66 1472,244 C1285.13,296.34 675.81,306.3 495.62,308.11 " fill="none" id="ClinicalDetails-Patient" style="stroke:#181818;stroke-width:1.0;"/><text fill="#000000" font-family="sans-serif" font-size="13" lengthAdjust="spacing" textLength="7" x="1510.4673" y="241.3687">1</text><text fill="#000000" font-family="sans-serif" font-size="13" lengthAdjust="spacing" textLength="7" x="503.5689" y="304.2736">1</text></g><!--SRC=[tLHDJy9053pJNx71WqAirCI364E288R43uAH-z9zbDNzgDljWH3_krjeIoa55e-UskRDREVDcxVdSwt3wAxL2XaMEkRiofUy5S5t3C87br0SACmTPuJzBnm06c5DGUXk42W8i0QqT6gFGbEzo4he_lvYV7dcUUtsOD10OoarMYCwdUMFuzHw34SHUW91G2NWoUNPpBkvzRm6cc0M0tgRVeAlEnrau2dw1GZrCHk3BnLvZVcqG6slg1-26ireI8m4EgEWjlXz8_Ljza2Ldjl-yf632em9YvuK6llQdeSfwnAYm7nOSaPpAQ3KrZvAxdUgQoXcKd7ZlHI6cpcD2bOFg8hqA-PWA-SPduOVn8nPuGrXLtJzkewQhkkkNehk7KSNV3DdR_fCQcuSkiqrQXrCfvRtjQUUzx6dlaTE1J9DzwfQhbLbkH9O36qbO2UYLQYVpVBs61N9h_kWZSjHliIR7IuX3kroCi_2sMbNHWcXYJDLDqGPS-puB5yveIU9TIXpKXyY6eXiGKxc-eg6V-A-BtYe9OyijcB7c3Jbg-TMzxROWl0JA9bFjfIinM8GkeoPL2wgvf-M_jdOdLhMru6f7OHi3UiOCf-HCMftIitD1L3QPIS_-02clF_h2sNhFla5]--></g></svg>