<?xml version="1.0" encoding="us-ascii" standalone="no"?><svg xmlns="http://www.w3.org/2000/svg" xmlns:xlink="http://www.w3.org/1999/xlink" contentStyleType="text/css" height="563px" preserveAspectRatio="none" style="width:1367px;height:563px;background:#FFFFFF;" version="1.1" viewBox="0 0 1367 563" width="1367px" zoomAndPan="magnify"><defs/><g><rect fill="#FFFFFF" height="30.3516" style="stroke:#181818;stroke-width:1.0;" width="10" x="262" y="69.9609"/><rect fill="#FFFFFF" height="30.3516" style="stroke:#181818;stroke-width:1.0;" width="10" x="262" y="478.4375"/><rect fill="#FFFFFF" height="30.3516" style="stroke:#181818;stroke-width:1.0;" width="10" x="614" y="100.3125"/><rect fill="#FFFFFF" height="30.3516" style="stroke:#181818;stroke-width:1.0;" width="10" x="614" y="448.0859"/><rect fill="#FFFFFF" height="30.3516" style="stroke:#181818;stroke-width:1.0;" width="10" x="900" y="130.6641"/><rect fill="#FFFFFF" height="256.7188" style="stroke:#181818;stroke-width:1.0;" width="10" x="900" y="191.3672"/><rect fill="#FFFFFF" height="30.3516" style="stroke:#181818;stroke-width:1.0;" width="10" x="1271" y="161.0156"/><rect fill="none" height="169.7578" style="stroke:#000000;stroke-width:1.5;" width="332" x="810.5" y="248.9766"/><rect fill="none" height="61.7031" style="stroke:#000000;stroke-width:1.5;" width="253" x="820.5" y="274.3281"/><rect fill="none" height="61.7031" style="stroke:#000000;stroke-width:1.5;" width="312" x="820.5" y="350.0313"/><line style="stroke:#181818;stroke-width:0.5;stroke-dasharray:5.0,5.0;" x1="266.5" x2="266.5" y1="37.6094" y2="526.7891"/><line style="stroke:#181818;stroke-width:0.5;stroke-dasharray:5.0,5.0;" x1="619" x2="619" y1="37.6094" y2="526.7891"/><line style="stroke:#181818;stroke-width:0.5;stroke-dasharray:5.0,5.0;" x1="904.5" x2="904.5" y1="37.6094" y2="526.7891"/><line style="stroke:#181818;stroke-width:0.5;stroke-dasharray:5.0,5.0;" x1="1119" x2="1119" y1="230.6719" y2="526.7891"/><line style="stroke:#181818;stroke-width:0.5;stroke-dasharray:5.0,5.0;" x1="1276" x2="1276" y1="37.6094" y2="526.7891"/><rect fill="#E2E2F0" height="31.6094" rx="2.5" ry="2.5" style="stroke:#181818;stroke-width:0.5;" width="63" x="235.5" y="5"/><text fill="#000000" font-family="sans-serif" font-size="14" lengthAdjust="spacing" textLength="49" x="242.5" y="26.5332">Routing</text><rect fill="#E2E2F0" height="31.6094" rx="2.5" ry="2.5" style="stroke:#181818;stroke-width:0.5;" width="63" x="235.5" y="525.7891"/><text fill="#000000" font-family="sans-serif" font-size="14" lengthAdjust="spacing" textLength="49" x="242.5" y="547.3223">Routing</text><rect fill="#E2E2F0" height="31.6094" rx="2.5" ry="2.5" style="stroke:#181818;stroke-width:0.5;" width="164" x="537" y="5"/><text fill="#000000" font-family="sans-serif" font-size="14" lengthAdjust="spacing" textLength="150" x="544" y="26.5332">ClinicalDetailsController</text><rect fill="#E2E2F0" height="31.6094" rx="2.5" ry="2.5" style="stroke:#181818;stroke-width:0.5;" width="164" x="537" y="525.7891"/><text fill="#000000" font-family="sans-serif" font-size="14" lengthAdjust="spacing" textLength="150" x="544" y="547.3223">ClinicalDetailsController</text><rect fill="#E2E2F0" height="31.6094" rx="2.5" ry="2.5" style="stroke:#181818;stroke-width:0.5;" width="149" x="830.5" y="5"/><text fill="#000000" font-family="sans-serif" font-size="14" lengthAdjust="spacing" textLength="135" x="837.5" y="26.5332">ClinicalDetailsService</text><rect fill="#E2E2F0" height="31.6094" rx="2.5" ry="2.5" style="stroke:#181818;stroke-width:0.5;" width="149" x="830.5" y="525.7891"/><text fill="#000000" font-family="sans-serif" font-size="14" lengthAdjust="spacing" textLength="135" x="837.5" y="547.3223">ClinicalDetailsService</text><rect fill="#E2E2F0" height="31.6094" rx="2.5" ry="2.5" style="stroke:#181818;stroke-width:0.5;" width="124" x="1057" y="525.7891"/><text fill="#000000" font-family="sans-serif" font-size="14" lengthAdjust="spacing" textLength="110" x="1064" y="547.3223">ClinicalDetailsDto</text><rect fill="#E2E2F0" height="31.6094" rx="2.5" ry="2.5" style="stroke:#181818;stroke-width:0.5;" width="170" x="1191" y="5"/><text fill="#000000" font-family="sans-serif" font-size="14" lengthAdjust="spacing" textLength="156" x="1198" y="26.5332">ClinicalDetailsRepository</text><rect fill="#E2E2F0" height="31.6094" rx="2.5" ry="2.5" style="stroke:#181818;stroke-width:0.5;" width="170" x="1191" y="525.7891"/><text fill="#000000" font-family="sans-serif" font-size="14" lengthAdjust="spacing" textLength="156" x="1198" y="547.3223">ClinicalDetailsRepository</text><rect fill="#FFFFFF" height="30.3516" style="stroke:#181818;stroke-width:1.0;" width="10" x="262" y="69.9609"/><rect fill="#FFFFFF" height="30.3516" style="stroke:#181818;stroke-width:1.0;" width="10" x="262" y="478.4375"/><rect fill="#FFFFFF" height="30.3516" style="stroke:#181818;stroke-width:1.0;" width="10" x="614" y="100.3125"/><rect fill="#FFFFFF" height="30.3516" style="stroke:#181818;stroke-width:1.0;" width="10" x="614" y="448.0859"/><rect fill="#FFFFFF" height="30.3516" style="stroke:#181818;stroke-width:1.0;" width="10" x="900" y="130.6641"/><rect fill="#FFFFFF" height="256.7188" style="stroke:#181818;stroke-width:1.0;" width="10" x="900" y="191.3672"/><rect fill="#FFFFFF" height="30.3516" style="stroke:#181818;stroke-width:1.0;" width="10" x="1271" y="161.0156"/><polygon fill="#181818" points="250,65.9609,260,69.9609,250,73.9609,254,69.9609" style="stroke:#181818;stroke-width:1.0;"/><line style="stroke:#181818;stroke-width:1.0;" x1="0" x2="256" y1="69.9609" y2="69.9609"/><text fill="#000000" font-family="sans-serif" font-size="13" lengthAdjust="spacing" textLength="243" x="7" y="65.1045">GET(token, allergyID, medicalConditionID)</text><polygon fill="#181818" points="602,96.3125,612,100.3125,602,104.3125,606,100.3125" style="stroke:#181818;stroke-width:1.0;"/><line style="stroke:#181818;stroke-width:1.0;" x1="267" x2="608" y1="100.3125" y2="100.3125"/><text fill="#000000" font-family="sans-serif" font-size="13" lengthAdjust="spacing" textLength="323" x="274" y="95.4561">filterClinicalDetails(token, allergyID, medicalConditionID)</text><polygon fill="#181818" points="888,126.6641,898,130.6641,888,134.6641,892,130.6641" style="stroke:#181818;stroke-width:1.0;"/><line style="stroke:#181818;stroke-width:1.0;" x1="619" x2="894" y1="130.6641" y2="130.6641"/><text fill="#000000" font-family="sans-serif" font-size="13" lengthAdjust="spacing" textLength="257" x="626" y="125.8076">filterByValues(allergyID, medicalConditionID)</text><polygon fill="#181818" points="1259,157.0156,1269,161.0156,1259,165.0156,1263,161.0156" style="stroke:#181818;stroke-width:1.0;"/><line style="stroke:#181818;stroke-width:1.0;" x1="905" x2="1265" y1="161.0156" y2="161.0156"/><text fill="#000000" font-family="sans-serif" font-size="13" lengthAdjust="spacing" textLength="41" x="912" y="156.1592">getAll()</text><polygon fill="#181818" points="921,187.3672,911,191.3672,921,195.3672,917,191.3672" style="stroke:#181818;stroke-width:1.0;"/><line style="stroke:#181818;stroke-width:1.0;stroke-dasharray:2.0,2.0;" x1="915" x2="1275" y1="191.3672" y2="191.3672"/><text fill="#000000" font-family="sans-serif" font-size="13" lengthAdjust="spacing" textLength="80" x="927" y="186.5107">clinicalDetails</text><polygon fill="#181818" points="1045,217.7188,1055,221.7188,1045,225.7188,1049,221.7188" style="stroke:#181818;stroke-width:1.0;"/><line style="stroke:#181818;stroke-width:1.0;" x1="910" x2="1051" y1="221.7188" y2="221.7188"/><text fill="#000000" font-family="sans-serif" font-size="13" lengthAdjust="spacing" textLength="123" x="917" y="216.8623">clinicalDetails.toDto()</text><rect fill="#E2E2F0" height="31.6094" rx="2.5" ry="2.5" style="stroke:#181818;stroke-width:0.5;" width="124" x="1057" y="199.3672"/><text fill="#000000" font-family="sans-serif" font-size="14" lengthAdjust="spacing" textLength="110" x="1064" y="220.9004">ClinicalDetailsDto</text><path d="M810.5,248.9766 L883.5,248.9766 L883.5,257.3281 L873.5,267.3281 L810.5,267.3281 L810.5,248.9766 " fill="#EEEEEE" style="stroke:#000000;stroke-width:1.5;"/><rect fill="none" height="169.7578" style="stroke:#000000;stroke-width:1.5;" width="332" x="810.5" y="248.9766"/><text fill="#000000" font-family="sans-serif" font-size="13" font-weight="bold" lengthAdjust="spacing" textLength="28" x="825.5" y="263.4717">loop</text><text fill="#000000" font-family="sans-serif" font-size="11" font-weight="bold" lengthAdjust="spacing" textLength="141" x="898.5" y="262.3955">[for each clinicalDetailDto]</text><path d="M820.5,274.3281 L881.5,274.3281 L881.5,282.6797 L871.5,292.6797 L820.5,292.6797 L820.5,274.3281 " fill="#EEEEEE" style="stroke:#000000;stroke-width:1.5;"/><rect fill="none" height="61.7031" style="stroke:#000000;stroke-width:1.5;" width="253" x="820.5" y="274.3281"/><text fill="#000000" font-family="sans-serif" font-size="13" font-weight="bold" lengthAdjust="spacing" textLength="16" x="835.5" y="288.8232">alt</text><text fill="#000000" font-family="sans-serif" font-size="11" font-weight="bold" lengthAdjust="spacing" textLength="172" x="896.5" y="287.7471">[allergyID is in the clinicalDetail]</text><line style="stroke:#181818;stroke-width:1.0;" x1="910" x2="952" y1="315.0313" y2="315.0313"/><line style="stroke:#181818;stroke-width:1.0;" x1="952" x2="952" y1="315.0313" y2="328.0313"/><line style="stroke:#181818;stroke-width:1.0;" x1="911" x2="952" y1="328.0313" y2="328.0313"/><polygon fill="#181818" points="921,324.0313,911,328.0313,921,332.0313,917,328.0313" style="stroke:#181818;stroke-width:1.0;"/><text fill="#000000" font-family="sans-serif" font-size="13" lengthAdjust="spacing" textLength="106" x="917" y="310.1748">store clinicalDetail</text><path d="M820.5,350.0313 L881.5,350.0313 L881.5,358.3828 L871.5,368.3828 L820.5,368.3828 L820.5,350.0313 " fill="#EEEEEE" style="stroke:#000000;stroke-width:1.5;"/><rect fill="none" height="61.7031" style="stroke:#000000;stroke-width:1.5;" width="312" x="820.5" y="350.0313"/><text fill="#000000" font-family="sans-serif" font-size="13" font-weight="bold" lengthAdjust="spacing" textLength="16" x="835.5" y="364.5264">alt</text><text fill="#000000" font-family="sans-serif" font-size="11" font-weight="bold" lengthAdjust="spacing" textLength="231" x="896.5" y="363.4502">[medicalConditionID is in the clinicalDetail]</text><line style="stroke:#181818;stroke-width:1.0;" x1="910" x2="952" y1="390.7344" y2="390.7344"/><line style="stroke:#181818;stroke-width:1.0;" x1="952" x2="952" y1="390.7344" y2="403.7344"/><line style="stroke:#181818;stroke-width:1.0;" x1="911" x2="952" y1="403.7344" y2="403.7344"/><polygon fill="#181818" points="921,399.7344,911,403.7344,921,407.7344,917,403.7344" style="stroke:#181818;stroke-width:1.0;"/><text fill="#000000" font-family="sans-serif" font-size="13" lengthAdjust="spacing" textLength="106" x="917" y="385.8779">store clinicalDetail</text><polygon fill="#181818" points="635,444.0859,625,448.0859,635,452.0859,631,448.0859" style="stroke:#181818;stroke-width:1.0;"/><line style="stroke:#181818;stroke-width:1.0;" x1="629" x2="904" y1="448.0859" y2="448.0859"/><text fill="#000000" font-family="sans-serif" font-size="13" lengthAdjust="spacing" textLength="144" x="641" y="443.2295">storedClinicalDetailsDTO</text><polygon fill="#181818" points="283,474.4375,273,478.4375,283,482.4375,279,478.4375" style="stroke:#181818;stroke-width:1.0;"/><line style="stroke:#181818;stroke-width:1.0;stroke-dasharray:2.0,2.0;" x1="277" x2="618" y1="478.4375" y2="478.4375"/><text fill="#000000" font-family="sans-serif" font-size="13" lengthAdjust="spacing" textLength="144" x="289" y="473.5811">storedClinicalDetailsDTO</text><polygon fill="#181818" points="11,504.7891,1,508.7891,11,512.7891,7,508.7891" style="stroke:#181818;stroke-width:1.0;"/><line style="stroke:#181818;stroke-width:1.0;stroke-dasharray:2.0,2.0;" x1="5" x2="266" y1="508.7891" y2="508.7891"/><text fill="#000000" font-family="sans-serif" font-size="13" lengthAdjust="spacing" textLength="144" x="17" y="503.9326">storedClinicalDetailsDTO</text><!--SRC=[jLFDQiCm3BxdANJiIhC766EmDMFqDEZAxYPHEp7F3hPQwDjFSjlybOJkCDyIlZz_aciJc4ggZMDO-psJssLrvz_IagFIs0BPa8rBxpXuQp60YL1oi5Fe3mm7Ab6XyL1E8GlsYghOJw7MMFj8xCDHmK6-iYn_kkI61tXxtSpOVwDRWD6Gk-EgMC0FLYeYsIjYycvLt6McP3eOnkRI8ESY99fwDH7SacKCWnWtMbHuPTBQfkhKCnc9eHJK-BqSFutTOvpTxf3qMdcjMzLLLSIrAb7V8JzRE-iH5TdoKgTAJ8oyoLNs6-WAdCOmvgmZdS-l5UxPoymbIW9RxslO-W0Y-pM02YnXz1ZBRUj04SW1V-60qS0xEKxNYB8xesXqLTPpkgxyFonxrcVgUViIjne-bSqx30O8uulLUnvZUXEBr7qUZtcU_r7jGly5]--></g></svg>