<?xml version="1.0" encoding="us-ascii" standalone="no"?><svg xmlns="http://www.w3.org/2000/svg" xmlns:xlink="http://www.w3.org/1999/xlink" contentStyleType="text/css" height="248px" preserveAspectRatio="none" style="width:572px;height:248px;background:#FFFFFF;" version="1.1" viewBox="0 0 572 248" width="572px" zoomAndPan="magnify"><defs/><g><!--cluster AllergyAggregate--><g id="cluster_AllergyAggregate"><path d="M8.5,6.0137 L130.5,6.0137 A3.75,3.75 0 0 1 133,8.5137 L140,30.6348 L562.5,30.6348 A2.5,2.5 0 0 1 565,33.1348 L565,238.5137 A2.5,2.5 0 0 1 562.5,241.0137 L8.5,241.0137 A2.5,2.5 0 0 1 6,238.5137 L6,8.5137 A2.5,2.5 0 0 1 8.5,6.0137 " fill="none" style="stroke:#000000;stroke-width:1.5;"/><line style="stroke:#000000;stroke-width:1.5;" x1="6" x2="140" y1="30.6348" y2="30.6348"/><text fill="#000000" font-family="sans-serif" font-size="14" font-weight="bold" lengthAdjust="spacing" textLength="121" x="10" y="23.1211">AllergyAggregate</text></g><!--class Allergy--><g id="elem_Allergy"><rect codeLine="3" fill="#F1F1F1" height="60.582" id="Allergy" rx="2.5" ry="2.5" style="stroke:#181818;stroke-width:0.5;" width="101" x="216.5" y="43.0137"/><ellipse cx="231.5" cy="65.3047" fill="#0099FF" rx="11" ry="11" style="stroke:#181818;stroke-width:1.0;"/><path d="M230.3438,66.4609 L230.3438,68.6016 L230.9531,68.6016 Q231.5781,68.6016 231.8281,68.8359 Q232.0938,69.0703 232.0938,69.4609 Q232.0938,69.8359 231.8281,70.0703 Q231.5781,70.3047 230.9531,70.3047 L228.375,70.3047 Q227.7656,70.3047 227.5,70.0703 Q227.2344,69.8359 227.2344,69.4453 Q227.2344,69.0703 227.5,68.8359 Q227.7656,68.6016 228.375,68.6016 L228.6406,68.6016 L228.6406,61.9453 L228.375,61.9453 Q227.7656,61.9453 227.5,61.7109 Q227.2344,61.4766 227.2344,61.0859 Q227.2344,60.7109 227.5,60.4766 Q227.7656,60.2422 228.375,60.2422 L232.2344,60.2422 Q234.0313,60.2422 235.0156,61.1328 Q236.0156,62.0234 236.0156,63.3047 Q236.0156,64.1016 235.5469,64.7578 Q235.0781,65.4141 234.1406,65.9141 Q234.6875,66.3828 235.2969,67.1328 Q235.6875,67.6016 236.3281,68.6016 Q236.9844,68.6016 237.1875,68.7422 Q237.5625,68.9922 237.5625,69.4609 Q237.5625,69.8359 237.2969,70.0703 Q237.0469,70.3047 236.4375,70.3047 L235.4531,70.3047 Q233.3906,67.1016 232.0313,66.4609 L230.3438,66.4609 Z M230.3438,64.7578 L231.6719,64.7578 Q232.4063,64.7578 233,64.5391 Q233.7813,64.2422 234.0469,63.9141 Q234.3125,63.5703 234.3125,63.2422 Q234.3125,62.7734 233.7969,62.3672 Q233.2813,61.9453 232.2969,61.9453 L230.3438,61.9453 L230.3438,64.7578 Z " fill="#000000"/><text fill="#000000" font-family="sans-serif" font-size="12" font-style="italic" lengthAdjust="spacing" textLength="73" x="243.5" y="60.9629">&#171;Root Entity&#187;</text><text fill="#000000" font-family="sans-serif" font-size="14" lengthAdjust="spacing" textLength="43" x="258.5" y="79.082">Allergy</text><line style="stroke:#181818;stroke-width:0.5;" x1="217.5" x2="316.5" y1="87.5957" y2="87.5957"/><line style="stroke:#181818;stroke-width:0.5;" x1="217.5" x2="316.5" y1="95.5957" y2="95.5957"/></g><!--class ConditionCode--><g id="elem_ConditionCode"><rect codeLine="5" fill="#F1F1F1" height="60.582" id="ConditionCode" rx="2.5" ry="2.5" style="stroke:#181818;stroke-width:0.5;" width="126" x="22" y="164.0137"/><ellipse cx="37" cy="186.3047" fill="#F04800" rx="11" ry="11" style="stroke:#181818;stroke-width:1.0;"/><path d="M37.5938,189.5703 L40.0625,183.6953 L39.6719,183.6953 Q39.0625,183.6953 38.7969,183.4609 Q38.5313,183.2266 38.5313,182.8359 Q38.5313,182.4609 38.7969,182.2266 Q39.0625,181.9922 39.6719,181.9922 L41.9531,181.9922 Q42.5625,181.9922 42.8281,182.2266 Q43.0938,182.4609 43.0938,182.8359 Q43.0938,183.3047 42.6875,183.5703 Q42.5,183.6953 41.9063,183.6953 L38.4219,192.0547 L36.7813,192.0547 L33.2969,183.6953 Q32.7031,183.6953 32.5156,183.5703 Q32.1094,183.3047 32.1094,182.8359 Q32.1094,182.4609 32.375,182.2266 Q32.6406,181.9922 33.25,181.9922 L35.5469,181.9922 Q36.1563,181.9922 36.4063,182.2266 Q36.6719,182.4609 36.6719,182.8359 Q36.6719,183.2266 36.4063,183.4609 Q36.1563,183.6953 35.5469,183.6953 L35.1406,183.6953 L37.5938,189.5703 Z " fill="#000000"/><text fill="#000000" font-family="sans-serif" font-size="12" font-style="italic" lengthAdjust="spacing" textLength="85" x="55.5" y="181.9629">&#171;Value Object&#187;</text><text fill="#000000" font-family="sans-serif" font-size="14" lengthAdjust="spacing" textLength="94" x="51" y="200.082">ConditionCode</text><line style="stroke:#181818;stroke-width:0.5;" x1="23" x2="147" y1="208.5957" y2="208.5957"/><line style="stroke:#181818;stroke-width:0.5;" x1="23" x2="147" y1="216.5957" y2="216.5957"/></g><!--class ConditionDesignation--><g id="elem_ConditionDesignation"><rect codeLine="6" fill="#F1F1F1" height="60.582" id="ConditionDesignation" rx="2.5" ry="2.5" style="stroke:#181818;stroke-width:0.5;" width="167" x="183.5" y="164.0137"/><ellipse cx="198.5" cy="186.3047" fill="#F04800" rx="11" ry="11" style="stroke:#181818;stroke-width:1.0;"/><path d="M199.0938,189.5703 L201.5625,183.6953 L201.1719,183.6953 Q200.5625,183.6953 200.2969,183.4609 Q200.0313,183.2266 200.0313,182.8359 Q200.0313,182.4609 200.2969,182.2266 Q200.5625,181.9922 201.1719,181.9922 L203.4531,181.9922 Q204.0625,181.9922 204.3281,182.2266 Q204.5938,182.4609 204.5938,182.8359 Q204.5938,183.3047 204.1875,183.5703 Q204,183.6953 203.4063,183.6953 L199.9219,192.0547 L198.2813,192.0547 L194.7969,183.6953 Q194.2031,183.6953 194.0156,183.5703 Q193.6094,183.3047 193.6094,182.8359 Q193.6094,182.4609 193.875,182.2266 Q194.1406,181.9922 194.75,181.9922 L197.0469,181.9922 Q197.6563,181.9922 197.9063,182.2266 Q198.1719,182.4609 198.1719,182.8359 Q198.1719,183.2266 197.9063,183.4609 Q197.6563,183.6953 197.0469,183.6953 L196.6406,183.6953 L199.0938,189.5703 Z " fill="#000000"/><text fill="#000000" font-family="sans-serif" font-size="12" font-style="italic" lengthAdjust="spacing" textLength="85" x="237.5" y="181.9629">&#171;Value Object&#187;</text><text fill="#000000" font-family="sans-serif" font-size="14" lengthAdjust="spacing" textLength="135" x="212.5" y="200.082">ConditionDesignation</text><line style="stroke:#181818;stroke-width:0.5;" x1="184.5" x2="349.5" y1="208.5957" y2="208.5957"/><line style="stroke:#181818;stroke-width:0.5;" x1="184.5" x2="349.5" y1="216.5957" y2="216.5957"/></g><!--class ConditionDescription--><g id="elem_ConditionDescription"><rect codeLine="7" fill="#F1F1F1" height="60.582" id="ConditionDescription" rx="2.5" ry="2.5" style="stroke:#181818;stroke-width:0.5;" width="163" x="385.5" y="164.0137"/><ellipse cx="400.5" cy="186.3047" fill="#F04800" rx="11" ry="11" style="stroke:#181818;stroke-width:1.0;"/><path d="M401.0938,189.5703 L403.5625,183.6953 L403.1719,183.6953 Q402.5625,183.6953 402.2969,183.4609 Q402.0313,183.2266 402.0313,182.8359 Q402.0313,182.4609 402.2969,182.2266 Q402.5625,181.9922 403.1719,181.9922 L405.4531,181.9922 Q406.0625,181.9922 406.3281,182.2266 Q406.5938,182.4609 406.5938,182.8359 Q406.5938,183.3047 406.1875,183.5703 Q406,183.6953 405.4063,183.6953 L401.9219,192.0547 L400.2813,192.0547 L396.7969,183.6953 Q396.2031,183.6953 396.0156,183.5703 Q395.6094,183.3047 395.6094,182.8359 Q395.6094,182.4609 395.875,182.2266 Q396.1406,181.9922 396.75,181.9922 L399.0469,181.9922 Q399.6563,181.9922 399.9063,182.2266 Q400.1719,182.4609 400.1719,182.8359 Q400.1719,183.2266 399.9063,183.4609 Q399.6563,183.6953 399.0469,183.6953 L398.6406,183.6953 L401.0938,189.5703 Z " fill="#000000"/><text fill="#000000" font-family="sans-serif" font-size="12" font-style="italic" lengthAdjust="spacing" textLength="85" x="437.5" y="181.9629">&#171;Value Object&#187;</text><text fill="#000000" font-family="sans-serif" font-size="14" lengthAdjust="spacing" textLength="131" x="414.5" y="200.082">ConditionDescription</text><line style="stroke:#181818;stroke-width:0.5;" x1="386.5" x2="547.5" y1="208.5957" y2="208.5957"/><line style="stroke:#181818;stroke-width:0.5;" x1="386.5" x2="547.5" y1="216.5957" y2="216.5957"/></g><!--reverse link Allergy to ConditionCode--><g id="link_Allergy_ConditionCode"><path codeLine="9" d="M211.496,110.8001 C183.596,129.0401 158.04,145.7537 130.19,163.9637 " fill="none" id="Allergy-backto-ConditionCode" style="stroke:#181818;stroke-width:1.0;"/><polygon fill="#181818" points="221.54,104.2337,214.3292,104.1689,211.496,110.8001,218.7068,110.8649,221.54,104.2337" style="stroke:#181818;stroke-width:1.0;"/><text fill="#000000" font-family="sans-serif" font-size="13" lengthAdjust="spacing" textLength="7" x="205.513" y="125.5585">1</text><text fill="#000000" font-family="sans-serif" font-size="13" lengthAdjust="spacing" textLength="7" x="132.3097" y="152.5273">1</text></g><!--reverse link Allergy to ConditionDescription--><g id="link_Allergy_ConditionDescription"><path codeLine="10" d="M327.0121,110.2205 C357.6621,128.4605 386.54,145.6437 417.21,163.8937 " fill="none" id="Allergy-backto-ConditionDescription" style="stroke:#181818;stroke-width:1.0;"/><polygon fill="#181818" points="316.7,104.0837,319.8105,110.5894,327.0121,110.2205,323.9017,103.7147,316.7,104.0837" style="stroke:#181818;stroke-width:1.0;"/><text fill="#000000" font-family="sans-serif" font-size="13" lengthAdjust="spacing" textLength="7" x="318.5069" y="125.6273">1</text><text fill="#000000" font-family="sans-serif" font-size="13" lengthAdjust="spacing" textLength="7" x="399.2189" y="152.9266">1</text></g><!--reverse link Allergy to ConditionDesignation--><g id="link_Allergy_ConditionDesignation"><path codeLine="11" d="M267,116.2337 C267,134.4137 267,145.5737 267,163.7537 " fill="none" id="Allergy-backto-ConditionDesignation" style="stroke:#181818;stroke-width:1.0;"/><polygon fill="#181818" points="267,104.2337,263,110.2337,267,116.2337,271,110.2337,267,104.2337" style="stroke:#181818;stroke-width:1.0;"/><text fill="#000000" font-family="sans-serif" font-size="13" lengthAdjust="spacing" textLength="7" x="259.3547" y="125.5585">1</text><text fill="#000000" font-family="sans-serif" font-size="13" lengthAdjust="spacing" textLength="7" x="259.2781" y="152.7577">1</text></g><!--SRC=[2qXCpavCJrLmpCb9BKglT4nFBqfDJon9LQZcudJDAyaigOH9ATZOQ0JfA1iOM5gwkMag1ENdboX0LDZPALJNSd5nEkSa5XShEEVdfMIMPERdEUUdf88qXUaefncOM1WOQ2g49UQKfYhu9sMb9fT0TA5hSaajpapFImGnoT6RN9HPG9nUBawOlvGCbHIqT7N1D8hZ2IX1iewmIfYdk6gv0000]--></g></svg>